<svg xmlns="http://www.w3.org/2000/svg" viewBox="0 0 1778 600"><defs><style>.cls-1{fill:#f9d5d5;}.cls-2{fill:#f25d5e;}</style></defs><g id="Capa_2" data-name="Capa 2"><g id="Capa_1-2" data-name="Capa 1"><rect class="cls-1" width="1778" height="600" rx="17.09"/><path class="cls-2" d="M787.56,333.27a4.29,4.29,0,0,0-3-1.1c-6.94-4.11-11.09-10.31-13.1-19.42-2.29,9.59-5.72,16.58-14.11,19.74-8,3-15.66,2.75-22.9-3.77,0,4.81.06,8.79,0,12.77-.19,10.47,1.56,8.54-8.94,9.09-4.35.23-5.23-1.5-5.18-5.46.19-15.62,0-31.25.13-46.88,0-4.4-2-9.85,1-12.94,2.65-2.72,8-.47,12-1,1.69,1.1.38,3.21,1.67,4.7,6.38-5.62,13.92-6.7,21.76-4.36s12.52,8.24,14.54,16.73c2.67-6.38,6.21-11.62,12-14.93a35.13,35.13,0,0,1,20.12-1.83c13.63,2.57,21.26,16.5,17.53,31.48-2.4,9.66-8.42,15.45-18.26,17.6C797.67,334.82,792.66,333.79,787.56,333.27Zm-30.43-24.21c-.45-2.62-.58-5.61-1.7-8.45-1.8-4.54-5.14-7.05-9.91-7-5,0-8.54,2.51-10,7.5a27.34,27.34,0,0,0,.06,16.24c1.48,4.54,4.79,7.05,9.77,7.06C752.46,324.42,757,318.59,757.13,309.06Zm50.3.44a18.5,18.5,0,0,0-1.23-8.84c-1.59-3.82-4.05-7-8.75-7.05s-8.06,2-9.69,6.41a26,26,0,0,0,0,18.08,9.09,9.09,0,0,0,9.28,6.27c4.65-.07,7.42-2.64,9.11-6.56A17.93,17.93,0,0,0,807.43,309.5Z"/><path class="cls-2" d="M1053.09,373l2,2.49c.87,1.8,1.79,3.57,2.58,5.4.66,1.53.78,3.5-1.42,3.18-4.74-.68-10.81,3.23-13.86-4-1-2.25-3.55-2.23-5.77-1.77a3.9,3.9,0,0,0-3.13,3.48c-.36,2.32,1,3.77,2.8,4.84,1.27.75,2.51,1.69,4.14,1.48l1.9.51,9,3,3.08,1.77c4.23,4.73,6.7,10,4,16.31s-8,8.61-14.19,9.42c-8.12,1.08-15.87-.06-22.63-5.18l-.78-.78c-.9-1.39-1.8-2.79-3-4.66-2.87,7-8.52,9.08-14.41,10.8l-4,.29c-2-.12-4-.1-6-.37-7.27-1-13.29-3.74-16.71-10.93-1.9-4-.82-5,3.17-4.95,4.69.11,9.49-1,12.48,4.53,1.57,2.89,5,3,8.08,2,1.89-.66,3.16-1.92,3.09-4.05-.11-3.57-3-4.54-5.62-5.51-4.21-1.53-8.6-2.62-12.71-4.38-5.28-2.26-7.83-6.7-7.6-12.37s3-9.67,8.12-12.22c3.36-1.7,7-2.15,10.62-2.52,8.66-.89,17.21,4.3,19.56,11.61.52,1.6,1.27,3.84-1.37,3.65-4.67-.33-10.34,2.73-13.52-3.8-1.1-2.25-3.77-2.55-6.23-1.69a3.63,3.63,0,0,0-2.6,3.31c-.28,2.83,1.35,4.42,3.68,5.27,4,1.49,8.2,2.69,12.28,4.12s7.68,3.84,8.81,8.14c.88,3.37,2.57,4.13,5.64,4,4.19-.16,8.32-.88,10.94,4.34,1.54,3,5.57,3.32,9,2a3.79,3.79,0,0,0,2.69-4.28c-.52-3.63-3.55-4.57-6.36-5.57-2-.72-4.21-1-6.25-1.69a37.19,37.19,0,0,1-6.9-2.83,13.14,13.14,0,0,1,.28-23.2C1035.09,367.2,1044.21,368,1053.09,373Z"/><path class="cls-2" d="M970.74,223.15c0-6.66.11-13.32,0-20-.08-3.31.93-4.72,4.52-4.78,10.09-.16,10.11-.31,10.15,9.82,0,6.82,0,13.65-.06,20.47,0,2.93-.33,5.17,4.12,3.89,3.08-.87,6.61-.06,9.94-.2,2-.09,2.93,1.09,3.85,2.57a7.67,7.67,0,0,0,8,3.82c1.87-.24,3.74-.48,4.21-2.76s-.15-4.48-2.5-5.38c-3.72-1.41-7.56-2.53-11.36-3.73-10.11-3.2-14.21-11-10.7-19.89,1.22-3.08,3.76-4.62,6.15-6.32,10-7.06,27.48-2.33,31.25,8.24,1.2,3.35.48,4.65-3.12,4.39-2.31-.16-4.65-.08-7,0-1.83,0-3.1-.4-3.9-2.31-1.22-3-3.58-4.34-6.82-3.57a3.55,3.55,0,0,0-3,3.51c.07,3.37,2.51,4.8,5.35,5.77,4.71,1.6,9.67,2.49,14,5.1,8.75,5.24,9.25,18.22.46,23.2-9.52,5.4-19.48,4.8-29.12-.1-2.73-1.39-4.43-4-5.71-6.76-.56-1.23-1.37-2.58-2.89-2.21-1.32.33-1.15,1.78-1.23,3-.52,8.31-.54,8.07-9.15,8.34-4.42.14-5.85-1.2-5.58-5.63.37-6.13.09-12.31.09-18.46Z"/><path class="cls-2" d="M853.84,321.29l-.39,2c-1.3,2.86-1.35,6-2,9h0l-8,.61-3,.05-5-.3q-1.46-3.69-2.89-7.4c-3.07-10.18-6-20.42-9.24-30.53-4-12.42-4.37-10,7.84-10.4,3.57-.12,4.85,1.35,5.47,4.78,1.78,9.77,4,19.46,6.09,29.66a6.74,6.74,0,0,0,1.7-4.11c1.59-8.32,3.47-16.6,4.71-25,.59-4,2.45-4.82,6-4.79,3.11,0,6.31.71,9.37-.52l1.88.16c2.65,6.69,2.62,14,5,20.79.17,1,.35,2,.52,2.94l1.74,10.75c2.6-6.41,3.68-13.06,4.62-19.74l.21-2c1.41-2.34,1.63-5.05,2-7.63.52-4,2.08-6,6.44-5.38a78.26,78.26,0,0,0,9.45.17l0,0c-.41,1.76-.7,3.56-1.23,5.28q-6.65,21.35-13.36,42.67l-.14.18-3.1.49a12.74,12.74,0,0,0-7-.12l-6-.56-.05-.07c-1.13-6.05-1.88-12.18-3.89-18-.39-2-.77-4-1.16-6a9.73,9.73,0,0,0-2.64-7.36Q855.77,311.14,853.84,321.29Z"/><path class="cls-2" d="M868.47,351.87c2.92,0,3.81,1.46,3.88,4.39.2,8.61-.86,17.26.59,25.83l0,.3c-1,1.68-.65,3.54-.65,5.34,0,8.59,0,17.19,0,25.79,0,1.44.33,3.07-1.11,4.12-3.52,2.55-12.31-.29-14-4.77-1.9,1.92-3.4,4.12-5.8,5.27l-3,.93c-5.15.29-10.25.68-15.22-1.43-9.7-4.1-13.25-16-12.55-24.55a32.75,32.75,0,0,1,7.25-18.25l-.08-.22c9.51-6.33,19.19-8.51,29.5-1.09,1.61-4.82,1.1-9.84.8-14.69s1.09-7.52,6.37-7Zm-10.58,42.52a61.38,61.38,0,0,0-.68-6.4c-1.22-5.73-4.77-9.12-9.47-9.31-5.12-.2-9.38,2.7-11.15,8.15a21.73,21.73,0,0,0,1.47,17.78c2.11,3.87,5.52,5.05,9.59,4.77,3.9-.27,7-1.95,8.59-5.73A24,24,0,0,0,857.89,394.39Z"/><path class="cls-2" d="M792.77,190.38c0,1,0,2,0,3,0,3.69,0,7.38,0,11.76,8.16-9.24,17.15-8.15,26.53-4.24a.74.74,0,0,0,.41.49c3.85,4.1,5.23,9,5.09,14.57-.19,7.46,0,14.92,0,22.39.05,9.15.07,9-9.34,8.87-3.29,0-4.26-1.18-4.29-4.37-.08-8.8.51-17.6-.46-26.38-.67-6.07-3-8.68-8.05-8.77-4.73-.08-7.83,3.08-8.7,8.89a1.57,1.57,0,0,0,.11.88c-1.46,1.39-1.54,3.13-1.21,5l-.06,15.94,0,5c-.14,1.21-.27,2.41-.4,3.62a74.82,74.82,0,0,0-8.48.17c-4.58.59-5.56-1.34-5.5-5.63.21-17.65,0-35.3.09-53,0-9.09-1.37-8,8.23-8.34,4.42-.17,6.62.88,5.9,5.68A22.43,22.43,0,0,0,792.77,190.38Z"/><path class="cls-2" d="M715.48,352.39V389.6c6.19-5.05,10.29-10.47,14.45-15.68,2.87-3.6,5.84-4.9,10.17-4.5,2.89.28,5.83.06,8.74.06l.53,1.21c-3.6,3.78-7.18,7.58-10.8,11.33-9.12,9.48-9.16,9.5-1.11,19.77,4,5.06,8.11,10,13.23,16.28-6.16,0-11,0-15.83,0-1.46,0-2.36-1.07-3.18-2.16-3.12-4.1-6.2-8.22-9.41-12.25-1-1.29-1.57-3.89-3.95-2.9-2.13.88-3,2.88-2.9,5.33.08,4,.45,8-.38,11.92a.7.7,0,0,0-.53.19c-2.16,0-4.31-.05-6.47-.05-6.61,0-6.62,0-6.62-6.36q0-23.16,0-46.32c0-14.05,0-14.05,14.1-13.06Z"/><path class="cls-2" d="M1024.35,289.68c6.94-7,14.27-7.33,22-4.73s9.53,9.3,9.76,16.38c.31,9.15,0,18.31.12,27.46,0,3.1-.74,4.58-4.17,4.4-11.18-.59-10.38,2.74-10.36-10.17,0-6.16.06-12.32-.12-18.47-.08-2.95-.1-6.1-2.43-8.4-4.21-4.18-11.06-2.58-13.47,3.23-2.14,5.18-2.28,10.69-2.16,16.21.09,4.64.11,9.29.33,13.93.12,2.57-.86,3.72-3.43,3.63-13.31-.47-11.31,2.29-11.45-10.64-.11-11,.08-22-.12-32.95-.06-3.66,1.08-5.29,4.83-4.9a26.81,26.81,0,0,0,4.48,0C1021.38,284.48,1024.27,284.74,1024.35,289.68Z"/><path class="cls-2" d="M934.72,414c-6.27-8.08-8.64-17-6.14-27.12,3.13-12.65,14.76-19.75,28.86-17.51,11.1,1.76,18.77,12.28,18.13,24.5-.15,2.85-1.22,3.73-3.92,3.69-8.31-.1-16.63.11-24.95-.09-4-.09-5,1.49-4,5.12,1,3.47,3,6,6.63,6.72,4,.84,7.59.18,10.16-3.49,2-2.87,10.64-4.8,13.72-3.24,1.83.94.82,2.21.44,3.39C972,411,968,414,964.07,417.07c-9.5,4.12-18.7,3.58-27.6-1.77l-1.8-1.21Zm16.85-25.41a18.62,18.62,0,0,0,3,0c2-.31,5,1.25,5.61-1.51s-1.13-5.45-3.86-7a9.08,9.08,0,0,0-8.2-.49c-3.15,1.33-5.35,4.28-4.9,7.47s3.84,1,5.87,1.51A10.34,10.34,0,0,0,951.57,388.57Z"/><path class="cls-2" d="M878.28,378.35c.8-2.5-1.17-6.24,1.19-7.47,3.32-1.72,7.47-.79,11.23-.39,3.08.34.93,3.84,3.11,5.6,3.69-7.4,10.43-7.42,17.26-6.84,8.08.68,12.38,5.23,13.57,13.28,1.36,9.25.12,18.55.9,27.79,0,1.34,0,2.67,0,4,0,2.8-1.19,4.13-4.21,3.93-3.27-.23-6.56-.05-9.85,0-1.57-4-.62-8.19-.74-12.29-.19-6.3,0-12.61-.17-18.91-.12-4.28-2.14-7.3-6.67-8a8.41,8.41,0,0,0-9.47,6.23c-2.41,8-1.32,16.15-1.45,24.24-.13,8.66,0,8.67-8.72,8.7-1.82,0-3.64-.08-5.47-.12q-.25-17.89-.53-35.8Z"/><path class="cls-2" d="M938.72,293.68l1.11,2.73c.2.33.41.65.61,1h0c.49,2.76,1.07,5.52,1.46,8.3.87,6.06.27,6.77-5.64,6.78-8,0-15.94,0-23.92,0-1.5,0-3.45-.55-3.75,2.07-.5,4.33,3.34,8.95,8,9.42l1.19-.22,1.42,0,2.24.17a4.06,4.06,0,0,0,4-2.4c1.68-4.47,5.25-4.32,8.93-4.16l6.92.3c-3.39,14.8-17.79,18.91-30.92,15.86-1.27-.29-2.5-.8-3.75-1.21-6.38-3.53-10-9.19-12.12-15.94l-.39-2.94c.08-1.83.18-3.65.23-5.48.36-13.32,8.79-22.21,22-23.91,6.76-.86,12.36,1.57,17.93,4.66a2.94,2.94,0,0,0,1.91,1.82A5.19,5.19,0,0,0,938.72,293.68Zm-21.17,9.88v0c2,0,4-.1,6,0,3.26.21,4.17-1,3-4.09s-3.2-5.39-6.71-5.88a8.54,8.54,0,0,0-8.66,3.65c-1.18,1.64-2.44,3.62-1.58,5.48.77,1.66,3,.63,4.56.82A30.87,30.87,0,0,0,917.55,303.56Z"/><path class="cls-2" d="M849.55,248.57l-3.06-.2a11,11,0,0,0-1.76-.85c-11.39-3.37-17.33-11.85-17.08-24.42.24-12.19,6.85-21.46,17.77-24.2a27,27,0,0,1,22,3.55v0a27.69,27.69,0,0,1,8.24,19.17c.13,3.65-.91,5.06-4.73,5-8.15-.22-16.31-.06-24.46,0-1.9,0-4.38-.46-4.05,2.79.39,3.88,2,7.3,5.79,8.62s8.52,1.55,10.48-2.11c3.11-5.85,7.94-4.08,12.44-4.42,3.24-.25,3.62,1.21,2.57,3.95-2.18,5.68-6.8,8.83-11.68,11.77l-1.52.3Zm1.8-30.51a17.53,17.53,0,0,0,3,0c2.09-.36,5.26,1.39,6-1.69s-1-5.75-3.81-7.49A8.68,8.68,0,0,0,845,211c-1.25,1.73-2.9,3.8-2,5.88s3.55,1,5.42,1.21A22.94,22.94,0,0,0,851.35,218.06Z"/><path class="cls-2" d="M929.5,248.57l-2-.13a14.38,14.38,0,0,0-1.86-.69c-11.11-2.39-16.46-9.81-17.79-20.58-1.27-10.36,1.85-19.13,10.54-25.21,9.16-6.4,21-4.91,32,3.51l0,0c2.64,4.66,4.68,9.47,5.17,14.93.38,4.31-.57,6.45-5.55,6.22-8-.37-16-.13-24,0-1.62,0-4.22-.72-3.92,2.31.39,3.94,1.65,7.76,5.78,9.19s8.24,1,11.28-2.81c2.54-3.18,9.73-5.1,13.65-3.79,2,.67,1.48,1.89.91,3.13-1.45,3.18-3.07,6.17-5.9,8.49C942.39,247.49,936,248.26,929.5,248.57Zm2.1-30.49v0a14.77,14.77,0,0,0,2.49,0c2.11-.36,5.32,1.37,6.07-1.57s-1-5.78-3.79-7.52a8.72,8.72,0,0,0-11.31,1.56c-1.58,1.79-3.14,4-2.3,6.27s3.5,1,5.36,1.27A26.91,26.91,0,0,0,931.6,218.08Z"/><path class="cls-2" d="M818.86,412.63c-1.14,1.68.24,4.94-2.67,5.32-3.58.47-7.32.84-10.83-.3-1.65-.54-1.06-2.59-1.07-4,0-7.13,0-14.26-.07-21.39a49.86,49.86,0,0,0-.78-7.89c-.6-3.36-3.1-5.12-6.18-5.69s-6.34-.11-8,3.41l.06.11c-2,1.3-2.33,3.51-2.84,5.58-1.58,6.37-.84,12.87-.91,19.31-.11,10.33,0,10.33-10.3,11.24a4.07,4.07,0,0,0-.93.31l-1-.15c-2.2-.65-1.87-2.46-1.87-4.09,0-13.15.13-26.29-.06-39.43-.06-3.79,1.28-5.17,4.91-4.73a15.09,15.09,0,0,0,3.49,0c3.86-.43,6.67.31,5.57,6.77,5.32-7.26,11.53-8.48,18.46-7.8,8.45.84,13.3,5.62,13.8,14.18.55,9.28.89,18.56,1.33,27.85C819,411.69,818.9,412.16,818.86,412.63Z"/><path class="cls-2" d="M751.28,195.35c0-1.32,0-2.63,0-3.95,1.55-7.68,7.51-3,11.33-3.75,4-.83,3.23,3.06,3,5.24-.55,5.1,1.07,7.52,6.49,6.62,2.91-.47,3.56,1.23,3.71,3.86.21,3.8-.9,5.72-5,5.13-3.27-.47-5.35.2-5.15,4.39.33,6.48.1,13,.1,19.48,0,3.91,1.67,6.37,5.84,6.53,1.73.07,3.52,0,3.18,2.51-.31,2.27,1.29,5.12-2.06,6.48-11,4.45-20.87-2-21-13.8q-.15-10.74-.06-21.48c0-2.46-.24-4.47-3.39-4.07-3.31.42-3.91-1.61-4-4.19.15-1.59.29-3.18.44-4.77C747.11,198.6,752.31,201.87,751.28,195.35Z"/><path class="cls-2" d="M909.47,199.38a20.24,20.24,0,0,0-.14,3.47c.53,4.54-.52,6.83-6,6.82-5.68,0-9.32,4.87-9.73,11.9-.39,6.62-.45,13.29-.22,19.92.14,3.83-1.07,5.61-4.94,5.43a15.67,15.67,0,0,0-3,.2c-4.56.69-6.44-.75-6.29-5.83.42-14.27.28-28.56.37-42.84h0c2.14,0,4.29.06,6.43.06,7.06,0,7,0,7.51,7,0,.22.34.41.53.63,5.34-7.57,7.57-8.65,15.34-7.49A1.3,1.3,0,0,0,909.47,199.38Z"/><path class="cls-2" d="M975.65,294.36l-1.2,1c-9.8-.32-14.18,3.53-14.79,13.2-.23,3.65-.11,7.31-.13,11-.1,13.68-.1,13.68-14,12.84-.12-.68-.23-1.36-.35-2,0-2.67,0-5.35,0-8,0-.67,0-1.35,0-2a1,1,0,0,0,0-.92c0-1,0-2.07,0-3.1.08-9.12.14-18.24.24-27.36,0-1.44-.53-3.63,1.06-4a22.35,22.35,0,0,1,11.79,0c2.34.69.84,3.86,1.31,5.87l.38,1.71c1.33-1.87,2.24-3.42,3.42-4.76,2.75-3.14,6.55-4.48,10.34-3.35,3.33,1,1.24,4.6,1.73,7A19.5,19.5,0,0,1,975.65,294.36Z"/><path class="cls-2" d="M1003.26,308.62c0,6.8-.11,13.61,0,20.41.07,3-1,4-4,4.05-10.53.21-10.54.31-10.55-10.35,0-11.29.08-22.58-.09-33.86,0-3.44,1-4.65,4.55-4.57,12.43.3,9.85-1.18,10.1,9.88.11,4.81,0,9.62,0,14.44Z"/><path class="cls-2" d="M1003.87,273.64c-.09,4.13-3.88,7.29-8.49,7.09a7.77,7.77,0,0,1-7.22-8c.22-4.39,3.21-6.94,8-6.85S1004,268.89,1003.87,273.64Z"/><path class="cls-2" d="M1076.06,415.24a26.4,26.4,0,0,1-3.42,2.87,7.77,7.77,0,0,1-9.71-.86,7.86,7.86,0,0,1-2.09-9.16c1.28-3.33,4.09-5.08,7.92-4.84,4,.26,6.49,2.28,7.49,6.12a24.33,24.33,0,0,1,.36,3C1076.43,413.3,1076.24,414.27,1076.06,415.24Z"/><path class="cls-2" d="M978.2,180.3c4.83,0,7.6,2.64,7.68,7.19.07,4.21-3.11,7.21-7.7,7.25s-7.7-3-7.65-7.3C970.58,183,973.52,180.27,978.2,180.3Z"/><path class="cls-2" d="M765.46,355.34c.17,7-1.06,9.12-5.66,9.91s-8.24-1.55-8.95-5.73,2-7.54,6.7-8.18a29.57,29.57,0,0,1,3-.12c.89.32,1.75.78,2.73.31l.1.11Z"/><path class="cls-2" d="M766,416.39c-3.86,3-8.31,1.49-12.53,1.59-2.13,0-2.14-1.72-2.14-3.23,0-14,0-27.94,0-41.9,0-2.24.75-3.16,3.14-3.38,10.67-1,10.75-.92,10.94,9.73.21,12.11-.59,24.24.44,36.35A1,1,0,0,0,766,416.39Z"/></g></g></svg>