<svg xmlns="http://www.w3.org/2000/svg" viewBox="0 0 1778 600"><defs><style>.cls-1{fill:#c0bcb0;}.cls-2{fill:#241f23;}</style></defs><g id="Capa_2" data-name="Capa 2"><g id="Capa_1-2" data-name="Capa 1"><rect class="cls-1" width="1778" height="600" rx="17.09"/><path class="cls-2" d="M611.46,329.06c-9.54.53-15.06.84-21.8,3.81s-11,7.06-19.29,7.55c-2.77.16-4.66-.15-6.24-1.22-3.49-2.38-4-7.42-4.09-12.14-.19-10.52,1.77-18.34,3.34-25.26,3.73-16.46,1.86-12.93,5.51-28.06,3.85-16,6.62-22,3.33-25.25-2.5-2.47-7.62-2.39-11.22-.59-6.21,3.11-6,10.37-11.39,37.44-2.48,12.33-3.88,17.59-4.58,27.44a87.51,87.51,0,0,0,1,19.62c1.41,8.62,3.13,11,4.1,12.14,4.52,5.37,11.84,5.94,15,6.18,1.46.12,5.39.31,16.81-3.17,14-4.27,13.42-6.18,20.86-7.24,8.46-1.21,10.7,1.05,18.07-1.31,5.24-1.69,11.66-5.27,11.19-7.52C631.29,328,613.92,328.92,611.46,329.06Z"/><path class="cls-2" d="M708.21,281.66c-1.09,1-1.57,2.12-2.48,4.37-3.36,8.34-2.22,14.67-4.62,15.29a2.28,2.28,0,0,1-1.56-.31c-1.87-1-2.08-3.94-2.2-5.29-.55-6.09-.87-9.65-2.53-11.83-3.59-4.7-11.68-.7-16.54-6.49-1.39-1.65-.93-2.22-2.51-3.73a12.17,12.17,0,0,0-12.47-2.45c-2.76,1.19-3.16,3-6.21,6.88-5.28,6.66-7.78,5.8-11.8,10.64-.6.71-8,10-5.85,21.52.42,2.21,1.62,8.47,7.21,12.75,5.32,4.07,13.31,5.29,19,2.12,4-2.21,5.71-5.9,9-12.81s2.5-12.27,5.87-13.42a5,5,0,0,1,4.68.91c3.6,3.08-1.39,9.49,1.62,16.51A15.6,15.6,0,0,0,698.08,325c.73.14,6.95,1.24,11.83-2.53s3.35-8.42,7.1-19.66c4.25-12.75,9.23-15.94,7.09-19.66C721.69,279,712.42,277.92,708.21,281.66Zm-38.62,7a75.09,75.09,0,0,1-6.79,18.1,35.53,35.53,0,0,1-6.51,8.44c-1.26,1.2-1.61,1.35-1.87,1.25-1.71-.64-1.58-11.9,4-20.27,2.18-3.29,4.36-4.87,5-8.74.42-2.76-.25-4.79,1.23-6.24,1.29-1.26,3.73-1.63,5-.64C670.51,281.29,670.88,282.89,669.59,288.65Z"/><path class="cls-2" d="M808.33,307.79c-3.79-3.16-10.64-.18-21.8,3.82,0,0-8.6,2.94-25.84,7.88-10.43,3-14.41,3.8-16.51,1.62-3.37-3.52.62-12.21.89-12.78,1.13-2.4,2.91-6.17,6.21-6.88,4.59-1,7.5,4.9,10.61,3.7s3.51-7.81,2.45-12.47c-.23-1-2.4-9.92-9.08-11.5-5.55-1.3-10.5,3.33-14.31,6.91a34.82,34.82,0,0,0-9.6,15.92c-1.16,4.14-3.61,12.89,1,19.63a15.87,15.87,0,0,0,4.07,4c4.71,3.24,9.85,2.91,14,2.75,5.51-.2,8.83-1.47,15.26-3.48,11.08-3.47,8.39-2,20.54-5.68,9.16-2.8,23.68-7.43,23.33-11.61A2.92,2.92,0,0,0,808.33,307.79Z"/><path class="cls-2" d="M1030.42,281.76c-3.41-10.43-6.36-13.18-8.47-14.61-4.07-2.77-9.73-3.82-10.91-2.14-1,1.36,1.54,3.84.64,5-1.35,1.71-7.25-3.4-14-2.76-5.8.56-11,5.2-13.36,10.34-4.62,9.86,2,19.19,2.56,19.93.72,1,7.45,9.79,17.79,8.35,8.12-1.13,12.41-7.74,13.06-8.77a5.81,5.81,0,0,1,2.81,2.17c1.58,2.46-.14,4.83,0,8.1.33,6.47,7.71,10.75,9.08,11.5,1,.55,7.14,3.93,9.35,1.84,1.92-1.81-.77-6.14-3.48-15.26C1032.17,294.27,1034,292.7,1030.42,281.76Zm-25.22,4.77c-2.47,8.5-2.94,9-3.4,9.05-1.58,0-3.7-6.24-2.53-11.84a13.75,13.75,0,0,1,2.78-5.93c1.44-1.76,4.42-4.47,5.6-3.76C1008.2,274.4,1008.38,275.54,1005.2,286.53Z"/><path class="cls-2" d="M1053.11,265.17c-.87-13.11-4-17.07-6-19-3.5-3.31-8.95-5.32-10.61-3.7s1.82,5.86,3.79,13.7c1.54,6.13.31,7.21.09,24.3-.2,14.91.68,18.34,2.26,21.5,3,6,8.61,11.34,10.94,10.24,2.64-1.25-1.47-9.64-1.34-26.17C1052.32,276.43,1053.75,274.82,1053.11,265.17Z"/><path class="cls-2" d="M1123.77,243.42c-1.33.2-2.14,3.67-3.7,10.6-2.21,9.83-2.15,13.49-5.23,18.41-1.41,2.25-3.37,5.38-5.91,5.32-3.29-.08-3.92-5.48-8.43-6.52-3.19-.73-3.74,1.76-8.41,1.59-4.18-.15-5.2-2.19-9.36-1.84-1.3.12-4.53.39-5.29,2.2s2.08,3.65,4.71,9c2.28,4.66,1.1,5.39,3.15,8.72s6.46,7.7,10,6.82c3-.74,2.79-4.55,5.91-5.32,3.38-.83,4.93,3.35,9,3.4,1.56,0,3.4-.56,11.5-9.08,5-5.23,7.46-7.85,8.38-9.69,3.55-7.07,2.37-14.12,1.81-17.46C1130.63,251.84,1126.49,243,1123.77,243.42Z"/><path class="cls-2" d="M1187,309.26a51.36,51.36,0,0,1-8.77-13.06c-4-8.46-1.27-10.56-5-15.56-4.77-6.33-12.35-7.35-13.12-7.44-1.88-.22-7.14-.85-11.83,2.54-7.07,5.1-6.24,14.44-6.18,15,.19,1.81.84,7.83,6,10.88,4.28,2.55,10.63,2.39,13.09-.67,2.8-3.48,0-10.1,2.14-10.91a1.94,1.94,0,0,1,1.56.31c3.1,1.58,3.8,5.84,4.7,9,2,6.85,5.74,11.31,8.47,14.61s5.93,7.08,10,6.82c2.44-.15,5.26-1.73,5.59-3.76C1193.9,314.71,1190.8,313.17,1187,309.26Z"/><path class="cls-2" d="M1218.75,312.26c2.27-2,3-6.05,1.53-7.8-1.25-1.45-3.19-.3-6.24-1.22-4.14-1.25-6.41-5.13-8.13-8.07-3.92-6.71-2.16-10.25-5.65-12.45a7.63,7.63,0,0,0-8.11,0,7.09,7.09,0,0,0-2.47,4.37c-1.34,5.83,2.15,11.19,3.78,13.7A28.2,28.2,0,0,0,1206,311.37C1209.1,312.66,1215.3,315.23,1218.75,312.26Z"/><path class="cls-2" d="M1247,283.8c-2.19-2-5.47-1.38-6.23-1.22a250.81,250.81,0,0,1-12.67,31.52,163.67,163.67,0,0,1-9.26,16.19c-5.52,8.78-8.28,13.17-11.51,15.35-2.58,1.75-6.2,3.49-5.9,5.32.16.92,1.23,1.39,2.81,2.17,6.56,3.25,7,5,8.75,5,3.57-.18,6.76-2.61,19.54-25.31,2.68-4.76,2.2-4,14.22-31.21a28.83,28.83,0,0,0,2.15-10.92C1248.9,285.77,1247.61,284.35,1247,283.8Z"/><path class="cls-2" d="M1292.55,299.22c-4.82-6.35-12.87-8.39-12.19-12.11.41-2.28,3.64-2.46,4.34-5.62.59-2.68-.91-6.17-3.45-7.16-2-.77-3.88.27-6.85,1.9s-8.08,4.42-8.08,8.13c0,1.7,1.06,2.91,3.76,5.59,6.77,6.73,9.16,8.14,11,10.25,2.39,2.82,4.65,8,2.87,18.37a34.71,34.71,0,0,1-10.92-2.14c-2.54-1-4.86-2.2-7.79-1.53-.37.08-3.43.82-3.73,2.51-.41,2.23,4.23,4.76,6.87,6.2a41.11,41.11,0,0,0,15.29,4.62c4.44.5,6.66.75,8.1,0C1298.08,324.78,1299.6,308.5,1292.55,299.22Z"/><path class="cls-2" d="M1361.1,296.49c-1.3-2.32-10.63.34-14.95,1.92-8.3,3-8.53,5.84-14.31,6.9-9.21,1.7-15.72-4.14-17.46-1.8-1.3,1.75,1.23,6.54,4.71,9,3,2.17,6.28,2.18,10.91,2.14a36.69,36.69,0,0,0,13.39-2.23C1353.81,308.48,1362.58,299.12,1361.1,296.49Z"/><path class="cls-2" d="M470.28,322.39c-6.48-.34-12.47.55-19.94,2.56-13.21,3.57-12,5.53-19,6-4.7.31-8.81-.34-11.83,2.54a10.07,10.07,0,0,0-2.78,5.93,35,35,0,0,0,12.78.89c6.75-.82,8.08-3.11,17.43-6.3,5.44-1.85,12.76-4.28,21.8-3.81a45.29,45.29,0,0,1,12.47,2.44c.46-1.53,1-4.27-.34-6.54C480,324.57,477.91,322.79,470.28,322.39Z"/></g></g></svg>