<svg xmlns="http://www.w3.org/2000/svg" viewBox="0 0 1778 600"><defs><style>.cls-1{fill:#d9e8b1;}.cls-2{fill:#366ed1;}</style></defs><g id="Capa_2" data-name="Capa 2"><g id="Capa_1-2" data-name="Capa 1"><rect class="cls-1" width="1778" height="600" rx="17.09"/><path class="cls-2" d="M768.78,148.33l.28-.27-.11-.38c-.83-3.65-1.25-7.44-2.55-10.91-3.49-9.32-2.94-17.92,3.42-25.85l-.18-.25.16.26c5.88-3.24,11.79-3.12,17.71-.11l0,0a34.22,34.22,0,0,1,8,15.8c1.74,8.52,1.16,17.1.53,25.66-.44,6-1,12.06-1.61,18.9a12.47,12.47,0,0,0,6.88-9.34,56.68,56.68,0,0,1,4.58-14.9h0c9.55-5.87,13.76-4.74,18.62,5,.64,1.3.86,3.18,3,2.6a3.48,3.48,0,0,0,2.44-3.45c.33-5.61.48-11.24.94-16.85,1.71-20.6,3.29-41.24,14.56-59.51l1.09-1.1C860,61.4,878.69,71.52,879.47,88.07a64.91,64.91,0,0,1-3.16,22.69,631.78,631.78,0,0,0-17.19,69.93c-1.74,9-3,18.16-6.61,26.72-3,7.14-7.47,10.5-12.81,9.85-7-.84-11.84-6-12.75-13.63-.4-3.35-.52-6.74-1-10.08-.69-4.62-1.12-9.47-4.6-13-2.25-2.31-5-4.11-8.5-2.49-3.64,1.69-3.77,4.8-2.94,8.14,1,4,2.1,8,3.07,12,2.13,8.8,2.26,17.48-1.84,25.84-5.4,11-17,16.09-28.82,12.57-10.74-3.19-14.61-10.4-13-24,1.19-10.25,2.65-20.49,3.25-30.78C773.16,170.52,773.2,159.14,768.78,148.33Z"/><path class="cls-2" d="M1059.16,479.08l-1.24,1.25c-3.61,1.82-7.19,1.33-10.77-.14-5.45-8.45-6.22-17.87-5.82-27.56.14-3.56,0-7.13,0-10.7a15,15,0,0,0-2.28-8,6,6,0,0,0-6.76-2.88c-8,1.52-11,6.46-8.68,14.1.48,1.61,1,3.23,1.43,4.86,4.58,16.71,5.22,33.11-3.08,49.1-3.2,6.14-10.06,10.4-17.07,9.48-6.07-.79-11-6.12-12.11-13.1-.66-4.32,0-8.56.72-12.85,1-5.63,3.2-10.84,4.23-16.56,3.61-20,.19-38.79-7.17-57.23-2.6-6.51-4.45-13.15-4.19-20.24.33-8.92,4.73-15.32,12.63-19.14,11-5.34,20.67.29,21.57,12.5a61.31,61.31,0,0,1-.29,9c-.46,6-1.14,11.94-1.53,17.93-.14,2.24.11,4.74,2.47,5.87,2.65,1.28,5.1.2,7.35-1.39,2.71-1.91,3.54-4.69,3.77-7.81.39-5.33-.76-10.47-1.91-15.59-2.32-10.43-3-20.78,1-31l0,0a2.33,2.33,0,0,0,1.36-2.15l0,.1c9-5.57,14.28-4.18,19.64,5.11a48.92,48.92,0,0,1,4.46,10.89,111.53,111.53,0,0,1,4,23.8C1062.67,424.18,1067.28,451.78,1059.16,479.08Z"/><path class="cls-2" d="M714.47,344.18a.71.71,0,0,0,.17-.78c10.11-18.41,10.66-38.78,12.12-59,.81-11.16,1.91-22.24,5.58-32.94,4.48-13.09,18.21-17.92,28.61-9.86,1.76,1.36,3.28,3.05,4.91,4.59l0,.05c4.83,8.94,7.64,18.52,9.65,28.44,1.14,5.64.78,11.52,2.9,17l-.21.34c.73,12.37,1.57,24.73,2.16,37.1.62,12.95,1.38,25.92-3.84,38.32-1.45,3.43-3.69,5.68-7.37,6.11-4,.46-6.8-1.64-8.73-5-3-5.11-3.24-10.63-2.68-16.37.71-7.28,1.17-14.59,1.66-21.89.24-3.52-.81-6.38-5-5-3.36,1.1-9.9-1.47-8.41,6.28A85.3,85.3,0,0,1,747,355.74c-.65,7-2.4,13.74-6.58,19.53-7.76,10.73-21.55,9.41-27.31-2.49a22.88,22.88,0,0,1-1.69-14.31C712.27,353.67,713.44,348.94,714.47,344.18Zm37.12-48.64c1.64-1,6,.31,5.22-4.12-.5-2.93-1.09-7.91-4.22-7.53-3.89.48-4,5.5-4.51,9.11C747.76,295.25,749,296,751.59,295.54Z"/><path class="cls-2" d="M927.46,487l-1.14-1c-12.31-12.09-17.91-27.27-20.15-44-2.3-17.06-1.54-33.91,3.58-50.45l-.32-.17.3.2a11.46,11.46,0,0,0,3.17-5.71v-.05c1.07-1.28,2.15-2.56,3.22-3.85,9.65-11.78,22-12.53,33-2,12.49,12,9.58,26.2-6.91,31.44-7.84,2.48-11.9,7.38-13.35,15-1.59,8.32-.89,16.44,3.06,24.08,4.31,8.32,13.46,12.75,22,10.68,3.85-.93,6.55-3.13,6.2-7.44s-3.07-6.29-7.24-6.18c-3,.08-6,.44-9,.73C936,449.09,932,445,933,437c.41-3.48,2.38-6.26,3.73-9.32h-.1l1.18-1.25,0,.1c7.27-4.94,15.33-4.7,23.32-2.94,17.95,4,24.61,14.2,22.09,32.43-1,7.5-3.46,14.57-5.55,21.76,0,0,0,.09,0,.09a2.46,2.46,0,0,0-1.11,2.23h0c-1.44,1.92-2.86,3.87-4.35,5.75-8.38,10.55-18.35,13.22-30.8,8.26-3.11-1.24-6.19-2.54-9.28-3.81v.05a4.4,4.4,0,0,0-3.48-2.18l0,.08Z"/><path class="cls-2" d="M847.46,242.76c2-1.68,4.1-3.32,6.81-3.82,1,.78,1.9.42,3,.31,10.52-1,16.87,3.34,20,13.55a39.66,39.66,0,0,1,1.51,11.11c.19,10.55-1.42,20.94-2.72,31.36-1,8-2.11,16-1.78,24.1.15,3.41.48,7,4.2,8.57,4,1.68,5.74-1.77,7.85-3.93,4-4.15,7.47-9,12.66-11.88,6.14-3.42,10.82-1.73,13.73,4.62a17,17,0,0,1,1.23,8.82c-.66,7.09-1.69,14.15-2.31,21.24-.93,10.46-6.77,16.68-16.42,19.87-8.61,2.85-17.47,2.33-26.23,1.61-14-1.16-19.81-8-19.47-22.23.25-10.69.45-21.36-.55-32.05-1.24-13.2-5.32-25.66-9-38.26a34.86,34.86,0,0,1,.28-20.83C841.86,250,845.86,247.21,847.46,242.76Z"/><path class="cls-2" d="M824.56,236.06l1.2,1,1.24,1.18-.1,0,2.16,3.92a.33.33,0,0,0,.06.53c.32,3.91,1.19,7.75.84,11.74a100.9,100.9,0,0,1-9.5,35.05,111,111,0,0,0-11,45.55c-.05,1.87-.4,3.94,1.55,5.06s3.6-.22,5.23-1.07a19.87,19.87,0,0,0,6.54-6l4.46-2.72c4.46-2.18,8.84-2.49,13.08.58l.18-.3-.21.28c2.65,4.4,4.24,9.1,3.46,14.29-1.32,8.75-3.94,16.88-11.54,22.41a.59.59,0,0,0-.63.25c-10.48,4.67-21.18,3.82-31.88,1-8.61-2.25-13.25-8.2-13.36-17.13,0-3.34.52-6.7.77-10,.56-7.78,3.36-15.27,2.44-23.26-2.19-19.13-4.77-38.28-1.6-57.58l-.1,0c2.53-5.54,5.1-11.06,8.91-15.87h0a48.21,48.21,0,0,1,3.68-3.34C807.64,236.24,814.83,230.54,824.56,236.06Z"/><path class="cls-2" d="M657.93,138.81a3.1,3.1,0,0,0,.15-.84c6.18-7.2,14.13-11.35,23.24-13.54,7.29-1.76,14.5-4.09,21.89-5.18,8.24-1.21,16.4-3.35,24.85-3,10.68.5,14.41,5.71,11.17,15.77-1.74,5.39-5.57,8.82-10.54,11-3.59,1.6-7.36,2.79-11,4.21-10.79,4.19-14.56,11-13,22.51,1,7.31,3.6,14.14,5.61,21.15,4,14,3.64,27.43-3.7,40.25-3.95,6.9-9.08,9.9-14.32,8.84-6-1.2-9.78-6.2-10.58-14.26a73.43,73.43,0,0,1,.68-19.07c2-12.74,5.79-25.26,4.14-38.44-1.28-10.26-4.26-12.21-13.53-8.22-7.39,3.18-12.67.39-15-7.32C656.44,148,658.47,143.44,657.93,138.81Z"/><path class="cls-2" d="M762.58,469.57a.89.89,0,0,0,.27.8c2.34,9.57.14,18.67-2.87,27.68l.1.06-.9,1.35,0,0a4.83,4.83,0,0,0-2.25,3.41l0,0c-11.08,8.73-23.7,8-36.49,5.79-6.94-1.21-10.63-5.62-11.88-12.49-2.17-11.88.89-23.56,2-35.16,1.14-11.84,1.69-23.48.34-35.2-.94-8.17-1.6-16.34-.89-24.52.65-7.54,5.31-12.89,11.64-14.18,16.63-3.39,26.67,6.75,22.44,23.12-2,7.59-4.9,14.95-7.51,22.37-3.5,9.93-7,19.86-6.48,30.6.21,4.41-.69,10.69,3.88,11.95,4.16,1.14,7.27-4.22,9.89-7.85h0c3.69-2.26,7.14-5.16,11.93-4.51l0-.08,2.3,1.21-.09,0,3.36,3.33,0-.1C761.77,467.89,762.17,468.73,762.58,469.57Z"/><path class="cls-2" d="M688.1,355.17a.37.37,0,0,0-.16.55c-2.28,1.86-4.5,1.91-6.26-.59-6.15-8.73-15.59-11.72-25.14-14.6-10.19-3.07-20.61-5.47-30.11-10.53-14.1-7.49-19.69-18.55-16.61-33l-.06,0c7.19-10.11,15.89-12.84,27.76-8.43,3.83,1.43,7.44,3.4,11.16,5.13l0,0a2.25,2.25,0,0,0,2,1.42l0,.13c2.16,2.42,4.46,4.63,8.07,5.73-.17-13.86-.47-27.32,11.71-36.66l0,.06c13.35-2.81,22.13,2.26,26.22,15.37a53.7,53.7,0,0,1,1.78,9.36c1.63,13.14-2.85,25.15-7.08,37.2C688.16,335.59,684.93,345,688.1,355.17Zm-48.28-26.65c.86,1.5,2.13,1.1,3.39.72l7.9,2.61c8.9,4.24,18.93,5.73,27.32,11.27,1.24.82,2-.14,2.29-1.46,3-14.86,10.58-28.48,12-43.74.75-8.14,0-16.18-5.15-23.06-6.24-8.29-15-7.49-19.58,1.73-2.67,5.35-3.05,11.12-3.28,17-.18,4.73.68,9.32,1.3,13.95.25,1.91,0,3.64-2.19,4.67-2,.95-2.77-.48-4.21-1.17-3.33-1.6-5.17-4.75-8.14-6.62l-.09,0c-5.86-5.72-12.5-10-20.73-11.45-6.13-1.06-12.14,1.36-14.61,5.88-2.59,4.71-1.3,11.77,3,16.39l.1.07c.74,3.35,3.36,4.91,6.07,6.37l0,0c2.28,2.73,5.39,4,8.69,4.88l.18,0a7.85,7.85,0,0,0,5.54,2.22Z"/><path class="cls-2" d="M1157.21,176.06c-.31.36-.61.73-.92,1.1a2.27,2.27,0,0,0-1.5,2.05l-.06-.12a15.91,15.91,0,0,0-5.16,4.7L1148.3,185a9.75,9.75,0,0,0-4.65,3.29v0c-2.36,1.12-4.67,2.37-7.09,3.34-18.4,7.41-35.91,6.16-51-7.34-14.35-12.88-18.62-29.61-13.9-48.12,2.36-9.28,7.79-17.15,14-24.66,10-12.15,23.36-16.33,37.93-16.38,11,0,21.23,4.58,30.3,11.1l.08.08a20.58,20.58,0,0,0,5.56,5.64l0,0a3.11,3.11,0,0,0,1.84,2.57l0-.28v.28c3.71,8,7.25,16,7.53,25.11.23,7.45-1.46,14.5-3,21.64l0,0Zm-25.44,10.55a15.81,15.81,0,0,0,7.63-3.72c3.14-2.21,6.69-3.53,9.49-6.6,6.91-7.57,10.26-16.5,13.13-26.12,3.73-12.47-2.4-32.14-13.55-39.59-10.91-10.42-28.11-12.59-44.35-6-17.74,7.21-32.51,29.88-27.62,52.92,2.49,11.78,8.94,21.65,20.5,27.09C1108.25,191.32,1119.87,191.45,1131.77,186.61Z"/><path class="cls-2" d="M887,113.78l-1.32-2.15-.82-1.11,0-4.16c1-.44,1-1.37,1-2.26L887,103c1.13-.38,1.2-1.33,1.24-2.3l-.16.12,1.4-1.2.93-1.11c.92,0,1.79,0,2.13-1.13l.1-.09c1.45-.26,2.89-.65,4.35-.77,4.3-.34,8.49.11,10.55,4.55,1.91,4.12.15,7.64-2.92,10.58a15.93,15.93,0,0,1-14.33,4.47l.1,0c-.47-1-1.42-1-2.31-1.2l.1.14Z"/><path class="cls-2" d="M1022.62,121.18c-1.39,10.86-3,23-4.51,35.25-.68,5.41-1.2,10.87-.48,16.29.94,7.13,5.68,9.14,11.31,4.7,4.39-3.48,8.2-7.71,12.61-11.16,4.68-3.67,10.06-6.86,16-3.1,5.75,3.65,6.68,9.59,5.46,16-4,21.06-14.39,37.55-33.86,47.72s-40.2-2.81-40.82-25.46c-.27-10.12,1.5-20.15.4-30.36a140.43,140.43,0,0,0-8.06-35.55c-2.61-6.83-5.16-13.71-4.83-21.26.67-15.17,17.78-28.12,32.4-24,9,2.51,12,10.19,13.69,18.36C1022.64,112.19,1022.37,116,1022.62,121.18Z"/><path class="cls-2" d="M976.72,214.16c-9.8,13.49-23.62,18.43-39.65,18.29-13.34-.12-21.6-8.52-22.09-21.95-.21-5.83-.1-11.66,1.47-17.3,4.34-15.59,3.51-31,.28-46.79-3-14.61.6-27.6,12.91-37.26a20.3,20.3,0,0,1,9-4.48c6.67-1.18,13.36-1.39,18.46,3.87,5.31,5.48,5,12.23,2.73,19-2.25,6.6-5.63,12.67-9.13,18.67-5,8.49-9.09,17.31-10.24,27.21a46.18,46.18,0,0,0-.34,9.54c.91,9.94,4.09,11.46,12.39,6.13,3.63-2.34,7-5.08,10.78-7.17,9.31-5.2,18-.15,18.56,10.49.43,7.76-2.54,14.65-5.08,21.67Z"/><path class="cls-2" d="M904.17,226.11c-12.84,10.67-24.62,9.55-32-3.26-2.85-5-3.47-10.6-3.28-16.3.32-9.21,3.51-17.91,4.73-26.94s2.61-18.06,1-27.28c-.84-4.85.81-9.59,2.61-14.13,4.46-6.73,10.47-11.14,18.6-12.24,6.3-.85,10,2.31,10.32,8.73a25.78,25.78,0,0,1-1.21,8.85,57.94,57.94,0,0,0,.09,34.29,103.26,103.26,0,0,1,4.53,31.53A27.33,27.33,0,0,1,904.17,226.11Z"/><path class="cls-2" d="M990.19,366.29c-3.7,1-6.68,3.36-10,5.16-12.33,6.78-24.74,2.07-29.44-11.2a38.54,38.54,0,0,1-2.14-15.52c1.65-24.65.83-49.16-3.93-73.46a17.23,17.23,0,0,1-.29-3.93c.23-9.26-1.7-19.61,7.77-25.58,13.07-8.24,26.91-12.61,41.73-3.56,5.51,3.36,10.91,6.63,13.3,13.15,4.59,12.53,5.09,22.93-8.43,33.57,4,.63,7.61,1.05,11.12,1.76,24.81,5,34,29.91,18.67,50.17a83.1,83.1,0,0,1-33.12,26.33c-1.85.83-4,1.31-5.25,3.11ZM988,307.79a25,25,0,0,0-13.35,3.56c-2.51,1.42-3.84,3.44-3.15,6.46q1.29,5.67,2.51,11.37c.42,2,.88,3.53,3.63,2.81,7-1.85,13.91-3.88,19.55-8.7,2.56-2.19,5.58-4.63,4.21-8.44s-4.49-5.87-8.41-6.61A48.93,48.93,0,0,0,988,307.79Zm-6.4-45.53c-.71-2.71-2.52-3.72-4.71-3.39-3.49.52-6.53,2-6.88,6.12-.17,2.05,1.08,2.63,2.86,2.19C976.26,266.33,979.76,265.61,981.6,262.26Z"/><path class="cls-2" d="M670.47,222.05c0,6.53.87,13.14-1.4,19.52-3.61,10.13-10.85,16-21.35,17.72-9.4,1.51-17-3.88-20.26-13.78-3.64-11-1.32-21.93.42-32.85.64-4.07,1.5-8.12,2.45-12.13a97.1,97.1,0,0,0,.17-46.28,36.4,36.4,0,0,1-1.13-11.71,10.89,10.89,0,0,1,7.74-10.09c4.71-1.6,8.85,0,12.25,3.52s4.48,7.77,5,12.29a123.31,123.31,0,0,0,8.29,32.05C668.19,193.68,671.12,207.53,670.47,222.05Z"/><path class="cls-2" d="M810.23,426.15c7.85,3.89,14.77,7.15,20.7,12.18a37.27,37.27,0,0,1,10.51,14.38c3,7.11,6.17,14.11,10.74,20.36,5.46,7.45,10.12,9.06,19,6.71,10.91-2.89,15.21.08,15.73,11.26.41,9,0,18.4-8.7,23.58-8.23,4.93-16.51,1-23.92-3.27A47.32,47.32,0,0,1,835.71,493c-4.93-9.06-9.51-18.31-14.35-27.42-2.75-5.17-5.94-10.1-11-13.35-2.82-1.82-6.06-3.67-9.42-1.42s-2.86,6.12-1.7,9.24c5.15,13.81,6.7,28.46,10.17,42.66,3.88,15.87-2.93,26-19,28.79-8.76,1.54-16-2.7-19-11.1-3.17-8.9-1-17.88-.19-26.78,1.38-15.71,2.79-31.4,1.79-47.2-.88-13.85-4.28-27.32-6.26-41-1.13-7.82.29-15,6.53-20.51a10.19,10.19,0,0,1,3.75-2.37c14.49-3.93,29-6.4,43.46.17,15.1,6.84,17.86,22.26,5.86,33.66C822,420.52,816.53,423.09,810.23,426.15ZM799.49,394.7c-1.44.27-3.45.58-5.44,1-2.62.59-4.94,1.24-4.92,4.86,0,9,.62,9.44,8.88,5.4a41.14,41.14,0,0,0,4.88-2.68c2.11-1.43,3.73-3.34,2.86-6.09S802.24,395,799.49,394.7Z"/><path class="cls-2" d="M1158.08,390a22.59,22.59,0,0,1-14.73,2.14c-6.33-1-8.65.71-10.65,7-2.54,8.06-.33,16.05.36,24,1.64,18.78.06,37-8.24,54.27a45.24,45.24,0,0,1-9.51,13.06c-6.88,6.63-16.08,5.53-20.9-2.74-3.73-6.39-4.48-13.43-4-20.68,1.34-18.34,7.94-35.42,12.62-53,1.84-6.89,3.87-13.76,3.68-21-.23-9.5-5.31-12.4-13.7-7.78-3.94,2.17-7.68,4.79-11.79,6.55-7,3-13.09-.06-15.48-7.37-3.34-10.24,2.3-21.17,12.46-25.06,8.11-3.1,16.56-3.44,25-3.52,13.69-.14,27.42,0,41.06,1.57a33.25,33.25,0,0,1,4.45.71c7.63,1.95,14.16,5.48,16.66,13.55,2.41,7.8-1.87,13.27-7.2,18.17Z"/><path class="cls-2" d="M1113.21,327l-3.83,5.18c-9,10.47-20,17.43-34,19.18-16.17,2-26.52-6.47-27.5-22.74-1-17-1.17-34.18-6.75-50.59-2-5.86-4.21-11.65-6.08-17.54-4.43-14-.81-23.58,11.57-31.23a70.07,70.07,0,0,1,38.49-10.64c5.21.07,10.06,1,14.36,4.09,4.6,8.84,3.47,13.54-5.5,23-5.73,3.09-12.12,3.68-18.34,5-7,1.49-10.41,6.49-9.12,12.51,1.53,7.15,6.51,10,13.35,7.44,2.46-.91,4.8-2.13,7.21-3.16,4.24-1.79,8.46-2.15,12.16,1.08,3.88,3.38,5,7.84,3.89,12.79-1.47,6.8-7.26,11.51-14.59,11.82-3,.13-6,0-9-.15-4.19-.16-7.52,1.29-8.77,5.49-1.49,5-.51,9.74,3.41,13.42,3.3,3.09,6.94,2,10.41.12,5.09-2.79,10.05-5.82,15.24-8.42,4.87-2.45,10-3.76,14.71.41,3.59,3.15,4.36,9.84,1.92,15.79C1115.5,322.24,1114.31,324.58,1113.21,327Z"/><path class="cls-2" d="M688,372.61l1.1,1.11c9,11.62,12.51,25,12.77,39.44.47,25.89.53,51.79-2.3,77.57-.74,6.8-2.49,13.53-6.62,19.24-4,5.55-11.13,5.38-14.81-.4a27.26,27.26,0,0,1-3.81-19.44c1-6.67,2.33-13.3,3.44-19.95a57.18,57.18,0,0,0,.89-7.25c.16-3.94.58-8.58-3.69-10.42-4.86-2.09-9.54.17-13.67,3-2,1.36-1.82,3.46-1.52,5.62.6,4.27,1.13,8.55,1.47,12.85a37.32,37.32,0,0,1-5.92,24.12c-4.65,3.56-9.65,5.26-15.13,2.12s-7.09-8.43-7.33-14.33c-.4-9.83,2.83-18.89,6-27.91,5.1-14.32,10.88-28.45,12.78-43.68.9-7.25,1.1-14.59,1.72-21.88a63.39,63.39,0,0,1,1.2-8.91c3.74-16.29,17.64-21.43,32.29-12ZM679.92,416c-.56-5.23-.32-9.79-2-14.05-.6-1.52-1.09-3.49-3.19-3.41-1.72.06-2.29,1.8-2.92,3.1-3.12,6.49-2.66,13.48-2.61,20.39,0,2-1,5.21,2.73,4.8,3.22-.36,7.7.53,7.95-4.88C680,419.71,679.92,417.46,679.92,416Z"/><path class="cls-2" d="M895.86,435.34c6.95,12.57,1.46,28.54-11.33,33-11.6,4-22.28-2.62-23.86-14.77-1-8-1.37-16-2.7-23.94-.93-5.58-3.5-10.58-4.55-16.09-1.72-9,2.57-15.49,11.36-16.54,6.91-.82,10.76,2,13,10.22,3.13,11.28,8.2,21.21,18,28.15Z"/><path class="cls-2" d="M852.34,393.08l-1.1-1c-.57-5.67,2-9.51,7.28-10.74,2.9-.67,5.76-.57,7.23,2.6,1.35,2.91-.2,5.09-2.38,6.81C860.11,393.32,856.48,394.51,852.34,393.08Z"/><path class="cls-2" d="M644.31,112.72C644.4,118,639,122.83,632.92,123c-4.6.11-8.17-2.72-8.33-6.62-.19-4.48,6.39-10.82,11.27-10.86C640.57,105.46,644.23,108.59,644.31,112.72Z"/><path class="cls-2" d="M1144,158.86c-.14.87-.27,1.73-.41,2.6q-5.65,5.4-11.32,10.8c-11.06,6.51-22.16,9.56-33.37.28h0a8.48,8.48,0,0,0-3.43-3.34l0,0-5.68-9,0,.05c-.08-.92-.18-1.84-1.16-2.31l0,0c-.77-3.24-1.91-6.45-2.18-9.72-.16-2-1.79-5.38,2-5.93,3.13-.45,3.07,2.64,3.7,4.61.9,2.84,1.35,5.84,2.34,8.64,1.29,3.62,2.68,7.28,6.46,9.2v0c.38.9.91,1.58,2,1.41l0,.13c7.15,8.74,18,8.17,27.43-1.42l0,0c4.2-1.32,6.07-5.22,8.92-8l2.52-.25,1.59.63.08.13C1143.67,157.88,1143.83,158.37,1144,158.86Z"/><path class="cls-2" d="M1121.47,141.89c1.94-7.38,3.83-14.78,5.86-22.14.54-1.94,1.36-4.4,4.09-3.41,2.48.91,1.89,3,1.23,5.17-1.86,6.19-3.31,12.5-5,18.73-1,3.47-2.85,4.79-6,2Z"/><path class="cls-2" d="M1105.29,136.7c2-6.79,4.18-14.12,6.46-21.4.46-1.47,1.66-2.64,3.44-2s2.09,2.18,1.69,3.69c-1.91,7.2-3.91,14.38-6,21.54-.51,1.81-1.85,3-3.76,2.5S1105.46,138.81,1105.29,136.7Z"/></g></g></svg>