<svg xmlns="http://www.w3.org/2000/svg" viewBox="0 0 1778 600"><defs><style>.cls-1{fill:#1d1a21;}.cls-2{fill:#e9e9e9;}.cls-3{fill:#edc764;}.cls-4{fill:#e5e4e6;}</style></defs><g id="Capa_2" data-name="Capa 2"><g id="Capa_1-2" data-name="Capa 1"><rect class="cls-1" width="1778" height="600" rx="17.09"/><path class="cls-2" d="M1005,309l-3,.35-3,.54-10,.42-4,0-3-.11a191.44,191.44,0,0,1-22.82-3.88l-2.09-.4c-6.61-3.17-13.78-3.94-20.89-3.88-5.43.05-6.52-3.1-7-7.12a15.45,15.45,0,0,0-1-5.09c-2.26-4.82-.11-7.52,4.27-10.22,15.44-9.48,30.21-20,47.6-26,12.55-4.36,24.89-8.26,38.4-4.65,8.15,2.17,15.39,5.28,19.74,13a12.76,12.76,0,0,1,1.77,7.13,6.06,6.06,0,0,0,0,7c-.08,1.58-.16,3.15-.25,4.73h0a.93.93,0,0,0-.65,1.25c-.1.65-.19,1.31-.28,2-3.72,8.24-10,14.28-17,19.61a4.74,4.74,0,0,0-3.79,1.46Z"/><path class="cls-2" d="M899.85,195.15v.93c-.17,2.34-.34,4.69-.5,7a52.33,52.33,0,0,0-2.43,12.71c-1,14.3-6.83,27.35-10.64,40.91-.89,3.18-10,4.37-12.29,1.78-13.86-15.75-25.12-33.09-32.29-52.91-1-2.66-1.6-5.46-2.76-8-4.41-9.67-3.82-19.24-.47-29.11,3.71-11,10.26-18.62,22-20.63,12.12-2.07,21.42,2.8,28.51,12.42,5,6.84,7.55,14.74,9.36,22.91l.31,1c.16,1.65.33,3.31.49,5C898.64,191.21,899.25,193.18,899.85,195.15Z"/><path class="cls-2" d="M881.69,419l0-3c0-.67,0-1.34.08-2l0-4-.83-9-.15-2-.15-4v-3c0-8.31,1.91-16.54,1.15-24.88,3.08-7.5,3.7-15.4,3.27-23.35-.24-4.31,1.71-5.36,5.28-4.73a19.52,19.52,0,0,0,9.31-.48c2.26-.71,3.38.21,4.37,2,2.56,4.6,5.18,9.16,7.77,13.74a.68.68,0,0,0,.21.71c2.11,3.88,3.22,8.43,7.33,11l.05,0c.78,4,4,6.3,6.52,9.07a3,3,0,0,0,1.27,2.91,56.85,56.85,0,0,1,8.66,23l.27,4c-.14,4.47-.18,8.95-.44,13.42a31,31,0,0,1-3.88,13.79c-10.7,18.81-31.46,20.48-46.86,3.78-1-2.32-3-4.22-3-7l-.15-2C881.8,424.37,881.75,421.7,881.69,419Z"/><path class="cls-2" d="M976.43,194.26a28.18,28.18,0,0,1-6.1,17.53c-16.1,20.35-35.42,37.34-55.63,53.43-2.72,2.17-4.25.18-6.14-.79-6.79-3.51-7.14-3.63-5.26-11,2.33-9.14,2.52-18.34,2.81-27.68a69.24,69.24,0,0,1,22-49.18c9.49-9.09,21.81-9.8,34.23-8.12a10.8,10.8,0,0,1,8.7,6.72C973.81,181.41,976.18,187.77,976.43,194.26Z"/><path class="cls-2" d="M1008,392.1c-13.33,1.64-24.52-4-35.51-10.39-1.72-1-3.42-2-5.12-3l0,0-3.18-2.21-1-.77L958.25,372h0L936,352.05l-1-1c-5-5.64-10.14-11.23-15.09-16.95-1.08-1.26-4.07-2.37-2.82-3.92,1.88-2.34,3.25-5.95,7.54-5.51,9.26.94,18.69.86,27.78,2.63,16.12,3.14,32.23,6.59,47.8,12.06a42.74,42.74,0,0,1,11.35,6.1l0,0a107,107,0,0,1,8.61,12.74C1027,369.67,1022.69,387.8,1008,392.1Z"/><path class="cls-2" d="M777.26,220c18.78.44,34.61,7.66,48,20.43,7.48,7.09,15.92,13.15,22.7,21a60.9,60.9,0,0,1,4.55,5.93c4.3,6.48,3.58,10.76-2.45,15.72a3.06,3.06,0,0,1-3.24.57c-11.49-4.51-24-3.28-35.73-6.4a92.73,92.73,0,0,1-12.33-4c-9.26-3.91-19-5.87-28.79-7.84-15.48-3.1-23.38-17-18.37-32,2.5-7.49,8.54-10.73,15.72-12.23C770.61,220.5,774,220.35,777.26,220Z"/><path class="cls-2" d="M797.07,353.08,783,357.85l-4.92,1.46L767,361.86c-2,.11-4.09.1-6,1l-1.94.43-4,.75c-4.82-.2-9.16-1.09-10.07-7,3.75-1.87,3.75-1.87,2-5.87l-2.91,2.62-.15-1.36A15.65,15.65,0,0,0,744,340c.67-6.71,5.1-11.22,9.28-15.88,5.59-3.79,11.29-7.27,17.77-9.55,9.12-3.21,18.58-4.43,28.06-5.76l8-.82,1,0c11,0,22-.8,32.94,0,1.76.14,4.47-.91,4.64,2.24.18,3.39,4.35,6.21.32,10.31a144.29,144.29,0,0,1-45,30.94Z"/><path class="cls-2" d="M851.16,375.06l-.33.92a7.9,7.9,0,0,0-1.65,4.08c-3.45,6.61-7.39,13-10.23,19.88-4.28,10.35-12.26,16.85-21.52,21.93-13.61,7.45-22.47,4.21-28.63-9.79-2.13-7.17-1.2-14.13,1.49-21a7.58,7.58,0,0,0,2-3.95l0,.07,4.37-6.16,1.47-2,1-1.11,1.24-1.32,5.12-5.44c15.1-13.88,31.91-25.6,48-38.28,2.64-2.08,4.39-2.69,7.5-.44,6.79,4.9,7.09,4.7,3.08,12.33C858.8,354.53,854.23,364.47,851.16,375.06Z"/><path class="cls-3" d="M870.38,274.21a3.58,3.58,0,0,0,2.78-1.77l6.17-3.06-.13.12,2.17-.65h.2c8-2.21,15.06,1.06,22.3,3.49l-.08-.07A9.28,9.28,0,0,0,908,275.2l0,0,2,1.58c5.52,6,10.16,12.48,12,20.64.44,1.92.72,3.31-1.25,4.63-2.19,1.47-3,4.39-1.69,6.21,3.12,4.48-.08,6.81-2.36,9.64-.52.64-1,1.3-1.52,1.95L913.83,321l.12-.14L912.76,322l.16-.16-2,1.18.08,0-1.32,1-.36,0-.29.2-1.34.82-.36,0-.3.21-1.26.8.09-.13-1.05.41c-10.24,3.92-20.74,1.84-30.93.44-7.62-1.05-13.78-6.13-18.24-12.7-2.45-6.87-4.33-13.74-.36-20.72l0,.06c4-2,1.28-6.28,3.1-9l0,0a4.49,4.49,0,0,0,2.08-3l-.06.06a3.71,3.71,0,0,0,1.92-2.19l-.07.06,2-2.13,1.89-.35A6.09,6.09,0,0,0,870.38,274.21Z"/><path class="cls-4" d="M1021.31,103.76c-.9,2.69-3.12,4.07-4.75,5.91-4.13,4.67-3.8,6.3,1.25,9.67,3,2,4.83,1.48,6.36-1.5a48.48,48.48,0,0,0,2.16-4.48c1.53-4,3.91-4.92,7.74-2.73,6.43,3.69,6.49,4.74.89,9.87-6.6,6-11.08,13.62-15,21.55-.91,1.84-1.63,4-4.07,3.63-3.35-.57-6.4-2.22-8-5.36-1.13-2.26,1.09-3.56,2.44-4.95a24.31,24.31,0,0,1,1.89-1.61c5.39-4.58,5.22-5.41-.89-8.89-5.34-3.05-6.25,1.35-7.84,4.43-2.63,5.1-6.15,5.82-10,1.79-2.29-2.38-2.72-4.79-.18-7.4,6.87-7.06,13-14.68,16.4-24.1,1-2.71,2.84-3.22,5-1.47S1020,100.89,1021.31,103.76Z"/><path class="cls-4" d="M1056.1,192.07c-4.59-5-4.12-9.74-.1-15,2.78-3.65,3.85-8.29,5.44-13.44a28.8,28.8,0,0,0-10.65,8.62c-1.44,1.82-2.82,4.21-5.62,2.56s-5.57-3.83-6.11-7.43c-.26-1.77,1.49-1.83,2.72-2.28,8.48-3.16,15-9,21-15.51,1.44-1.57,2.3-4.08,4.91-3.38s4,2.8,4.59,5.42c1.17,5.15-.47,9.85-2.26,14.53-.92,2.42-1.89,4.81-3.2,8.1,4.55-2.07,6.56-5.64,9.55-8,2.71-2.14,5.36-4,8.08-.52,2.42,3.11,2,6.27-1.4,8.59-7.53,5.16-15,10.38-22,16.21-1.08.89-2.67,1.16-4,1.71A5.24,5.24,0,0,0,1056.1,192.07Z"/><path class="cls-4" d="M717.34,202.82c-.54,2.46-1.27,5.68-4,7.21-3,1.69-4.66-1.53-6.75-2.95-.27-.18-.46-.51-.75-.66-1.77-.93-3-4.16-5.29-2.51s-3.46,4.93-3.51,8c0,2.71,2.57,3.15,4.59,3.82,6.83,2.26,8.31,4.81,5.36,9.54-2,3.2-4.57,4.19-7.92,1.78-7.9-5.66-16.37-10.09-26-12.05-2.62-.53-3.73-2.08-2.41-4.74.22-.45.42-.9.62-1.36,3.35-7.28,3.35-7.28,10.13-2.68,5.56,3.77,7,3.23,9.69-2.56,1.55-3.35.54-5-2.57-6.05-1.57-.52-3.17-1-4.78-1.37-4.17-.9-5.5-3-3.82-7.2,2.82-7.08,3.5-7.29,9.53-2.47,7,5.59,15.24,8.75,23.71,11.27C715.7,198.53,717.63,199.28,717.34,202.82Z"/><path class="cls-4" d="M1067.17,211c-.92-3.18.62-6,1.33-8.94,4.11-6.4,9.54-10.91,17.24-12.39,8.83-1.69,22,9.19,21.89,18.21-.05,3.93-4.6,8.26-8.62,8.24a3,3,0,0,1-3.25-3,10.23,10.23,0,0,1,.25-3c.61-3.14,2.83-6.64-1-9-4.4-2.67-9.06-1.39-13.37.39-3.62,1.5-3.84,5.11-3.94,8.48a6.33,6.33,0,0,0,1.71,4.57c.77.83,2,1.64,3.09,1,1.54-.9.25-2-.3-2.92-1.67-2.77-2.32-5.14,1.56-6.72,4.12-1.68,4.31,1.72,5.32,3.95,1.86,4.07,3.39,8.3,6,12,1.1,1.54,3.11,3.15.45,5-2.31,1.56-4.66,1.87-6.52-.78a25,25,0,0,1-1.44-2.63c-3.12,3.66-6.45,2.79-9.94.91C1072.14,221.48,1069.85,216.12,1067.17,211Z"/><path class="cls-4" d="M717,151.74a10.42,10.42,0,0,1-3.51,5.32,57,57,0,0,0-5.28,5.26c-1.57,1.81-1.39,3.69.64,5.14s3.88.92,5.15-1c1.44-2.22,2.62-4.62,3.89-6.95,1.48-2.7,3.34-3.57,6-1.46,2.5,2,3.32,4.23,1,6.8-1.54,1.74-3.43,3.15-5,4.84s-2.69,3.47-.45,5.57,3.85,1.21,5.51-.62a22.36,22.36,0,0,0,4.83-8.06c1.22-3.78,4-4.18,7.15-2.52s4.25,4.34,1.72,7.31a155.65,155.65,0,0,0-11.37,15.77c-2.22,3.38-5.32,3.81-7.77.58-5-6.61-11.93-10.34-19-14.07-5.74-3-6.31-6.06-2.8-11.35,3.12-4.71,6.52-9.24,9.87-13.79,1.23-1.68,2.84-3.13,5.05-1.77C714.5,147.9,716.78,149,717,151.74Z"/><path class="cls-4" d="M911.9,70.14c.36-3.74,2.77-5.29,6.14-5q9.68.8,19.29,2.2c2.94.43,4,2.47,3.46,5.52s-2.06,5.07-5.36,4.39c-3.07-.62-6-1.87-9.06-2.66-2.65-.68-5.18-.56-5.55,3-.35,3.27,2,3.83,4.5,3.94,2.15.1,4.33-.17,6.47,0,2.62.19,5.07.76,4.48,4.41-.55,3.38-2.24,5.18-5.8,4.31-2.25-.55-4.4-1.48-6.64-2s-4.35-.44-4.87,2.58c-.47,2.82,1.06,3.88,3.51,4.34,2.95.54,5.85,1,8.87.28,2.07-.52,4-.06,5.09,2.08a6.11,6.11,0,0,1,0,6.17c-1.2,2.13-3.13,2.2-5.21,1.79A133.45,133.45,0,0,0,913,103.06c-4.69-.29-6.15-2.5-4.89-7,.93-3.35,2.23-6.59,3.36-9.87C914.34,80.89,913.45,75.52,911.9,70.14Z"/><path class="cls-4" d="M1116,261.15c-2.61-.2-2.88-3.2-4.9-4.1-1.28-3.36,1.39-6,1.58-9.14.14-2.26.08-4.75-2.75-5-3.2-.31-3.37,2.4-2.94,4.5.76,3.73-.34,7.17-.92,10.7l-.48,1.85q-1.51,2.49-3,5l-1.31.78c-6.06,2.78-10.69-.16-15.16-3.77l0,0a3,3,0,0,0-1.82-2c-1.07-4.9-2.45-9.77-1.35-14.86a5.54,5.54,0,0,0,1-5l2.19-2.74c1.85-.38,3.56.17,5.35.57,3.52.8,4.36,2.65,2.85,5.77a17.45,17.45,0,0,0-2,8.63c.1,1.79.07,4.19,2.26,4.47s3.2-1.89,3.84-3.87a21.84,21.84,0,0,0,.6-8.88c-.44-4.47.3-8.38,5-10.28s8.67-.56,12.17,3c5.27,5.31,6.6,16.67,2.43,23.06C1118.07,260.52,1116.84,260.71,1116,261.15Z"/><path class="cls-4" d="M709.57,445.45c-3.26,1.56-5.27.06-6.93-2.69A90.7,90.7,0,0,0,693.22,430c-3.73-4.26-3.09-6.69,2-9.09l4.92-2.32c5-2.32,8.35-6.55,11.94-10.49l5-2.6c3.85-.33,5.55,2.77,7.86,4.9.88,1.27,1.76,2.55,2.65,3.82a22.67,22.67,0,0,0,5.33,6.89c2.12,3.43,1.91,6.16-2.11,8.06-4.45,2.1-5.49-1.45-6.95-4.11-1.2-2.16-1.9-4.59-3.51-6.56-1.4-1.71-2.85-2.14-4.71-.77s-2.09,3-.72,4.72c1.56,1.92,3.41,3.61,5,5.5s3.14,4.09,0,6.2c-3,2-5.28,1.6-7-1.63-1.16-2.2-2.11-4.54-3.46-6.6-1-1.59-2.74-1.78-4.38-.61s-2.32,2.2-1.18,4.16a23.6,23.6,0,0,0,4.77,6.32c4.83,4.18,4.87,4.75.92,9.63Z"/><path class="cls-4" d="M709.74,383c.39,1.44.87,2.85,1.18,4.31,1.84,8.76-4.07,15-12.77,12.94-3.33-.77-4.3.28-5.88,2.87-1.83,3-1.43,7.74-6.12,8.73-6.94-4.77-6.81-4.68-1.57-11.66,1.9-2.54,5.39-4.85,2.84-9.06-.87-1.43-1.25-2.19-2.76-.76a20.69,20.69,0,0,1-3.56,2.67c-1.91,1.16-4.08,3.47-6.18,1.6s-4.84-3.88-3.57-7.52c4.29-2.71,10-3.15,12.71-8.42a2.35,2.35,0,0,1,3.39-.95c2,1.18,3.34-.34,4.8-1.31.64-.26,1.48-.4.86-1.43l-.18-2,1.18-2h0c2.07-1.63,3.91-.36,5.78.46l1,.64A39.39,39.39,0,0,1,709.74,383Zm-7.15,6.13c-.93-2.6-.16-6.76-4.07-6.71-1.93,0-5.73.25-6.1,3.63-.27,2.49,5,7.33,7.2,7.3C702.61,393.34,702.3,391.09,702.59,389.17Z"/><path class="cls-4" d="M697.61,350.07c-7.46,6-14.79,12.1-21.67,18.74-1.19,1.15-2.54,2.12-3.77,3.23a6,6,0,0,1-8.9-1.19c-2.32-3.17-.14-5.09,2.19-7,1.59-1.28,4.57-1.3,4.54-4,0-3.66-.63-7.28-2.77-10.43-1-1.46-2.47-1.43-4-1.31-2.41.2-4.82.13-5.75-2.68a7.1,7.1,0,0,1,.81-6.66c2-2.66,4.2-.36,6.32-.08,1,.13,1.92.34,2.88.51l.95-.28c1.5-.43,3-1.14,4.59-.64.67,2.57,2.81,2.36,4.78,2.59,4,.46,7.89,1.45,11.83,1.43C695.18,342.26,696.9,345.48,697.61,350.07Zm-19.36-1.82c-1.24.09-3.09-.6-2.65,1.18.56,2.29-.51,5.08,1.64,6.85.75.63,6.1-4.08,5.91-5.36C682.68,347.85,679.45,349.83,678.25,348.25Z"/><path class="cls-4" d="M815,74.32c2.57-.28,3.5,1.54,4.29,3.43s1.42,3.84-.69,5.39c-.4.29-.89.45-1.3.74-2.52,1.77-7.23,1.37-7.62,4.71-.33,2.74,2,5.79,3.21,8.71a61.38,61.38,0,0,0,5.6,11.13c1.11,1.67,2.15,3.66.41,5.47-2.11,2.19-4.68,4-7.86,3.71-2.71-.22-3.16-2.6-3.45-4.81A50,50,0,0,0,803,98.61c-3-6.53-3.1-6.6-9.51-3.44-4.59,2.26-7.29.94-8.36-4-.38-1.82-.1-3.46,1.73-4.22,9.2-3.81,18.68-7,27.17-12.41A2.65,2.65,0,0,1,815,74.32Z"/><path class="cls-4" d="M668.31,255.85c-1,4.23-3.68,5-7.55,3.82-4.19-1.3-3.58-4.16-2.59-7.19,2.54-7.76,4.7-15.57,5.17-23.8.18-3.16,1.7-5.34,5.52-4.7s5.08,2.41,4.38,6.22c-1.55,8.47-1.44,8.49,7.06,10.48,4.36,1,8.65,2.3,13.22,2.38s5.47,2.89,4.81,6.83-1.77,7-6.71,5.36h0l-1.33-.75c-5.1-3.38-11-4.29-16.83-5.52-2.41-.52-4.3.13-4.47,3.07a3.76,3.76,0,0,0-.56,3.23A.36.36,0,0,0,668.31,255.85Z"/><path class="cls-4" d="M1001.9,91.52c.24,4.58-3.15,7.12-7.09,5.79-8.47-2.86-8.44-2.85-11.84,5.49-1.63,4-3.51,7.87-4.35,12.18-.4,2-1.23,4.59-3.91,4.51-3.13-.1-6.51-.52-8.35-3.57-1.39-2.29.37-4.17,1.69-5.8,3.32-4.07,5.27-8.83,7.14-13.64,2.13-5.44,1.84-6-3.6-8-2.77-1-6.13-1.51-5-5.9,1.25-5,3.7-6.23,8.35-3.78,7.08,3.71,14.26,7.13,22.13,8.9C999.34,88.22,1001.52,89.14,1001.9,91.52Z"/><path class="cls-4" d="M845.08,98.48c.17-5.66-1.26-10.65-2.44-15.65-1.06-4.49-4.31-3.8-7.5-2.57-4,1.55-6.63.81-7.64-3.92-.72-3.4.43-5.36,3.58-5.8,9.07-1.26,18-2.86,26.61-6.18,2.75-1.06,4.85.41,5.47,3.45.57,2.79.66,5.12-3,6.2-9.12,2.72-9.07,2.84-7,12.14.87,3.88,1.53,7.81,3.08,11.52.92,2.19,1.79,4.66-.75,6.27s-5.47,3-8.47,1.75c-2.6-1.09-2.13-3.85-2.1-6.16A6.75,6.75,0,0,1,845.08,98.48Z"/><path class="cls-4" d="M895,101.35a93.15,93.15,0,0,0-14.68,1.51c-4.79,1-7.83-1.79-6.59-6.44,2.25-8.37,1-16.49-.37-24.73-.4-2.3-1.71-5.32,1.37-6.67,3.49-1.53,7.41-2.66,11.08-.79,2.67,1.36,2.15,4.17.77,6.11-3.66,5.14-3.69,10.93-3.55,16.77.14,5.46,2.41,7.2,7.68,6.11A16.77,16.77,0,0,0,894,92.11c7-3,8.25-2.12,8.2,5.46C902.21,103.28,898.45,101.74,895,101.35Z"/><path class="cls-4" d="M758.39,151.64a5.72,5.72,0,0,1-4.73-3.67c-3.1-8.49-9.69-14.16-15.93-20.13-1.68-1.59-3.9-3.29-2-5.87,2.33-3.12,4.45-7,9.13-6.79,2.39.1,3.18,2.36,3.26,4.41.27,6.26,3.84,10.87,7.5,15.41s6.48,4.31,10-.26a22,22,0,0,0,2.32-3.83c.87-1.84,1.69-4.13,4.07-3.66,3.18.64,4.7,3.6,6,6.19,1.18,2.29-.78,3.47-2.57,4.62a53.56,53.56,0,0,0-12,10.41C762.18,150,760.89,151.58,758.39,151.64Z"/><path class="cls-4" d="M766.23,101.27c.34-3.16,2.41-5,5.2-6,3.07-1.1,4.63,1,5.82,3.36a17.5,17.5,0,0,1,1.72,4.65,24.64,24.64,0,0,0,8.19,13.93,28.86,28.86,0,0,1,3,3.3c3.92,4.82,2,9.9-4.09,11.25-2.12.47-3.85-.23-4.37-2.27-2.08-8.2-8.35-13.87-12.39-20.88C768,106.3,766.56,104.08,766.23,101.27Z"/><path class="cls-4" d="M1031.94,160.42c-2.91-1.53-6-2.73-7-6.11-.9-2.95,1.43-4.11,3.45-5.29,4.78-2.78,7.2-7.77,10.88-11.57,2.43-2.5,4.64-5.26,7.28-7.51,3.4-2.91,6.86-2.41,9.51,1s.57,6.36-2.24,7.87c-7.65,4.1-13,10.14-17,17.67A7.08,7.08,0,0,1,1031.94,160.42Z"/><path class="cls-4" d="M1100.06,302.88c.62-2.17-1.72-3.78-.93-6.12,1.57-4.7,4.64-6.73,9.93-5.86a3.32,3.32,0,0,0,2.7-.71c.18,2.73,3.3,3.54,3.89,6a13.58,13.58,0,0,1-.25,5.71c-2.57,3.76-6,5.6-10.46,3.93A29.62,29.62,0,0,1,1100.06,302.88Z"/><path class="cls-4" d="M669.44,304.91c-2.74-3.11-4.06-6.54-1.8-10.44a7.45,7.45,0,0,1,8-3.93,7.81,7.81,0,0,1,6.81,8.43c-.24,4.66-3.35,7.16-9.31,7.47Z"/><path class="cls-4" d="M1068.67,421.43c-3-1.75-6.06-3.46-9.06-5.26-2.62-1.58-4-3.8-2-6.61,1.8-2.57,4.47-3.8,7.33-1.74,7.7,5.53,15.27,11.22,22.86,16.89,1.88,1.4,1.5,3.07.45,4.84-1.67,2.8-3.78,4.78-7.29,3.89a65.65,65.65,0,0,0-18.69-2.28,26.86,26.86,0,0,0,11.25,7.45c2.25.78,4.12,1.8,3.44,4.56-.78,3.14-2.25,6-5.33,7.46-1,.51-1.77-.56-2.34-1.38-5.12-7.37-12.55-11.71-20.4-15.45-1.78-.84-4.3-1-4.42-3.44-.13-2.67,1.55-4.71,3.9-5.95,4.3-2.25,9-2.24,13.64-2,1.82.12,3.64.2,5.46.29.75.38,1.7.78,2.22,0C1070.08,422.15,1069.25,421.71,1068.67,421.43Z"/><path class="cls-4" d="M782.21,494.78c-1.09-2.36-3.58-3-5.69-4.14s-3.89-1.1-5.1,1.18a38.66,38.66,0,0,0-2,4.57c-.74,2-1.65,3.73-4.11,3.68a7.73,7.73,0,0,1-6.53-4c-1.3-2.06-.34-3.76,1-5.4,5.89-7.06,11-14.55,13.62-23.53.82-2.86,2.53-3.79,5.21-2,.69.47,1.42.88,2.13,1.31,5.22,3.12,5.08,3.11,1.35,8.06-1.95,2.59-6.45,5.23-1.85,9.07,5,4.22,7.24,3.27,9.76-3.68,2-5.6,3.24-6.25,7.75-4.12,6.26,2.95,6.41,4.11,1.5,9.05-6,6-9.46,13.57-12.78,21.18-.88,2-1.37,4.53-4.1,4.2-3.16-.4-6.27-1.72-7.81-4.71-1.15-2.21,1.15-3.55,2.42-5C778.67,498.73,780.86,497.38,782.21,494.78Z"/><path class="cls-4" d="M1006.29,462a3.34,3.34,0,0,1,2.91,2.12c1,1.73,1.88,3.52,2.92,5.21,2.15,3.5,4.41,3.55,7.7,1s3.47-4.82.49-7.55c-.49-.45-.95-.93-1.44-1.39-5.12-4.73-4.3-8.92,2.18-11.84,2.17-1,3.35.16,4,1.69,3.91,9.62,10.39,17.31,17.83,24.31,1.25,1.18,1.73,2.61.83,4-1.63,2.55-3.78,4.71-6.83,5.42-2,.48-2.85-1.33-3.65-2.78a14.18,14.18,0,0,1-1.11-2.77c-2.1-6.87-3.5-7.36-9.21-1.34-3.43,3.61.52,5.55,2.52,7.66,3.62,3.81,3.3,7-1.18,9.5-3,1.66-5.46,1.24-7.09-1.92-4.37-8.5-9.67-16.26-17.24-22.28-.81-.65-1.58-1.5-1.11-2.54C1000.32,465.1,1003.86,464,1006.29,462Z"/><path class="cls-4" d="M879,518.58c5.49,1.89,5.83,6.08,5.07,10.65s-4,6.6-8.33,7.29c-6.52,1-12.41-1.84-18.56-3-2.15-.42-2.36-2.74-2-4.58,1.73-8,2.56-16.07,1.11-24.26-.48-2.68.94-4.24,3.7-4.95a44,44,0,0,1,16.31-1.39c8.11.95,11.27,9.09,6.45,16.21A38.63,38.63,0,0,1,879,518.58Zm-11-4.53c5,0,9.08-2.65,8.73-5.68-.32-2.81-2.42-3.29-4.75-3.13-3.64.26-7,.78-7,5.75C865.06,513.28,865.66,514.51,868,514.05Zm.43,14.93c3.33-.26,6.7-.56,6.76-4.57,0-3.46-3.08-3.2-5.53-3.5-4.09-.5-5.41,2.28-5.71,5.38C863.6,529.94,867,528.08,868.43,529Z"/><path class="cls-4" d="M917.12,512.63c-.1-9.93,11.68-20,20.9-18.57,4.14.63,7.58,5.6,6.59,9.7-.88,3.68-3.36,3-5.86,1.92-2.24-.94-4.07-3.11-6.86-2.38a5.82,5.82,0,0,0-4.38,5.5c-.4,4.15-2.22,8.74,2.4,11.9,2.57,1.77,5.32,2.81,8.43,1.45,1.28-.56,2.53-1.57,1.95-3s-2-.26-3,0c-2.41.51-4.56,1.09-5.3-2.42s1.14-4.27,4-4.73c4.42-.72,8.94-1,13.1-3,1.82-.83,3.93-2,4.88,1,.72,2.19.61,4.64-2,5.36-2.33.63-2.74,1.31-1.79,3.55.82,1.93-.09,3.86-1.35,5.56-8.05,10.82-23.18,9.56-29.16-2.46A24.31,24.31,0,0,1,917.12,512.63Z"/><path class="cls-4" d="M1072.56,399.67c-3.1-6-2.08-12.39-1.23-18.47.4-2.85,3.28-5.83,6.65-7.19a4,4,0,0,0,.5,0c3.61,0,7.77.46,8.83,4.12,1.19,4.1-3.48,4.44-6,5.95-3.49,2.09-4.27,5-1.71,8.3a26.9,26.9,0,0,0,5.36,5.19c3.82,2.75,9.77,1.14,12-3.1.84-1.61,1.91-3.9-.08-4.92-2.58-1.33-1.94,1.8-2.52,2.87-1.25,2.3-2.46,3.28-5.11,2s-2.78-2.79-1.48-5.17a67.49,67.49,0,0,0,5.62-12.75c.5-1.66.16-4.59,3.34-3.72,2.68.73,4.4,2.35,3.39,5.54-.28.88-1.72,2.14.54,2.56,5,.93,5.25,4.93,5.6,8.79.45,4.86-1.34,9.13-3.79,13.18C1092.91,410.87,1081.65,409.67,1072.56,399.67Z"/><path class="cls-4" d="M815.7,485.06c5.47,1.78,12,3.69,18.34,6.06,3.08,1.15,2.43,3.76,1.4,6.32-1.13,2.84-3.23,3.36-5.62,2.41-2.9-1.15-5.6-2.8-8.39-4.22-2.32-1.17-4.3-.91-5.22,1.75s.91,4,3.18,4.57,4.9.9,7.3,1.54,3.69,2.16,2.54,4.83c-1,2.31-2.35,4.3-5.23,3.16-2.45-1-4.71-2.41-7.07-3.61-1.91-1-3.64-.82-4.6,1.27s-.65,3.7,1.79,4.8a19.56,19.56,0,0,0,8.6,2.17c2.15-.05,3.92.62,4.64,2.93a5.85,5.85,0,0,1-.92,5.66c-1.51,1.92-3.53,1.7-5.44.87A112.42,112.42,0,0,0,804,520c-3.91-1-5.36-3.92-3-7.17,4.71-6.48,5.86-13.94,7.24-21.46C808.84,488,810.33,485,815.7,485.06Z"/><path class="cls-4" d="M998.29,476.93c-.1,1.87-2.31,2.57-4.18,3.56-6.36,3.33-6.38,3.33-2.72,9.51,2.63,4.42,4.59,9.23,7.94,13.23,1.3,1.54,1.68,3.44.23,5-1.93,2.09-4.2,3.94-7.28,3.81-2.3-.1-2.91-2.12-3.26-3.87-1-5.15-3.31-9.74-5.85-14.25-2.83-5-3.65-5.33-8.43-2.19-3.37,2.21-6,2.51-8.18-1.52-1.49-2.76-1.06-5,1.7-6.23a143.88,143.88,0,0,0,23.13-12.68C994.42,469.17,998.3,472.11,998.29,476.93Z"/><path class="cls-4" d="M740,480.46c-2.82-.78-5.49-2.3-6.77-5.14s1.26-4.25,3.11-5.51c4.34-3,7.39-7.14,10.78-11,2.62-3,2.23-5.15-1.06-7.27-2.17-1.39-4.87-2.76-4-6.13,1.09-4.48,5.26-5.8,8.71-2.58,6,5.56,11.92,11.05,19,15.26,2.56,1.52,3.66,3.75,1.34,6.63s-4.29,3.12-7.18.94c-6.47-4.9-6.53-4.82-11.72,1.34a67.65,67.65,0,0,0-7.74,10.38C743.46,479,742.32,480.46,740,480.46Z"/><path class="cls-4" d="M1061.94,460.75c-1.29,2.67-2.48,5.48-5.53,6.72s-4.18-1.05-5.34-3.09c-1.86-3.29-4.83-5.46-7.67-7.77a82.3,82.3,0,0,1-10.61-9.83c-3-3.44-1.84-6.51,1.2-9.09,3.33-2.83,6-.59,7.32,2.11,3.81,7.72,10.06,12.64,17.3,16.68A6.6,6.6,0,0,1,1061.94,460.75Z"/><path class="cls-4" d="M906.93,504.44a10.24,10.24,0,0,1-.22,2.54c-2.53,7-1.14,13.63,1,20.45,1.9,6.12.47,8.11-4.88,8.72-4.88.55-6.65-1.06-5.69-5.87s-.09-9.26-.66-13.84a66.34,66.34,0,0,1-.62-12.43c.26-4,3.08-5.16,6.57-5.22C906.38,498.73,906.91,501.42,906.93,504.44Z"/><path class="cls-4" d="M1090.19,335.5c2.09-.31,4.43-1.13,5.46,1.69,1,2.62,2.2,5.31-.89,7.58a10.72,10.72,0,0,0-3.75,4.56c-.66,1.65-.92,3.28,1,4.32s3.06-.11,3.92-1.72c1-1.9,2-3.83,3.1-5.67,2.52-4.2,5.24-8.42,10.89-8.23s8.12,4.45,10.07,9l.33,2c.57,4.11-2.18,7.74-1.72,11.84-3.93,2.12-6.43,6.22-10.75,7.78-1.4-.52-1.36-2.24-2.37-2.95-3.65-2.58-1.93-4.63.53-6.58a15.16,15.16,0,0,0,5.07-6.59c.58-1.54,1.63-3.22-.37-4.37-1.76-1-3.09.23-4.34,1.38a17.94,17.94,0,0,0-4.09,6.17c-1.83,4.05-3.35,8.56-9,8.22-5.82-.36-8.57-4.35-10.12-9.46-.14-.48-.25-1-.38-1.44l0-4c.44-1.55,1-3.11-.63-4.36l-.09-1.67.23-.24-.18-.28C1086.73,342.37,1088.09,338.52,1090.19,335.5Z"/></g></g></svg>