<svg xmlns="http://www.w3.org/2000/svg" viewBox="0 0 1778 600"><defs><style>.cls-1{fill:#f7f0e0;}.cls-2{fill:#307994;}.cls-3{fill:#0b75a5;}</style></defs><g id="Capa_2" data-name="Capa 2"><g id="Capa_1-2" data-name="Capa 1"><rect class="cls-1" width="1778" height="600" rx="17.09"/><path class="cls-2" d="M745.78,192.59c-1.18-6.57-.19-13.35-2.2-19.86-2.5-8.08-10.7-12.08-19-9a13.63,13.63,0,0,0-7.61,19c2.22,4.63,5.58,6.66,10.67,4.3a25.78,25.78,0,0,1,4-1.67c5.63-1.49,10,.89,12.51,6.53,2.35,5.35-.48,8.83-4.41,11.57-8.45,5.9-20,5.77-27.67,0-8.13-6.15-11.32-17.92-7.7-28.38,3.82-11,13.77-18.21,26.56-18.37,12.33-.15,24.66.29,37,.53,1.56,0,3.57-.56,4.36,1.5s-1.28,2.67-2.38,3.81c-3.12,3.27-3.35,7.49-3.5,11.7-.63,17.6-.63,17.6,16.57,17.57,8.45,0,8.46,0,8.37-8.72-.05-4-.09-7.95-.29-11.91a13.71,13.71,0,0,0-2.75-8.19c-1.08-1.36-3.89-1.72-3-4.15.92-2.61,3.52-1.74,5.47-1.76,8-.09,15.89-.07,23.84,0,1.58,0,3.54-.45,4.13,1.8.46,1.79-1,2.42-2.14,3.36-3.46,2.8-3.71,7-3.75,10.89-.17,16.31-.18,32.62.08,48.92.06,4.27.57,8.64,4.65,11.76,2.62,2,1.8,4.31-1.6,4.38-9.41.18-18.82.13-28.23,0-2.75,0-4.39-2.12-2-4,5.81-4.43,5.09-10.67,5.37-16.55.9-18.64.78-18.38-17.55-18.6-6.07-.08-8.2,1.58-7.47,7.67.6,5,.06,10,.5,15,.38,4.28.36,8.94,4.62,11.77,1.17.78,1.79,1.74,1.27,3.14s-1.81,1.58-3.09,1.58q-13.8,0-27.6,0c-1.28,0-2.57-.25-2.9-1.79a2.34,2.34,0,0,1,1.11-2.68c4.71-2.81,4.51-7.64,4.85-12.15.61-8.32-.45-16.71.93-25,5,11.2,2,22.55.08,33.69-.74,4.22-.31,5.28,3.7,5.16,4.17-.12,8.34-.05,12.51,0,3.86,0,4.43-1.55,3.32-5.15-3-9.59-2.68-19.62-2.54-29.47,0-3.17,1.46-6.26,1.25-10-.52-9-1.88-18.3,1-27.26.62-2,.77-3.41-1.71-3.43-8.75-.08-17.5,0-26.26,0C747.6,167.17,751.59,181.72,745.78,192.59Zm54.94,42.82c1,0,2.09,0,3.13,0,5,.2,6.79-1,6.59-7.09-.6-19.28-2.69-38.58-.29-57.89,1.18-9.5.39-10.24-9.31-10.39-2.09,0-4.17,0-6.26,0-1.86,0-2.25.39-1.78,2.58a61.69,61.69,0,0,1,1.41,17.7c-.38,5.37-1.72,11.34-.6,16.2,2.43,10.54-.36,20.67-.3,31C793.36,235.39,792.28,235.4,800.72,235.41Zm-94.78-50.2c.08,12.31,12.81,22.22,25.11,19,5.42-1.4,11-7.7,9.82-11.15s-8.33-5-13.94-2.75c-2.43.95-4.23,1.69-7.24-.23-4.6-2.92-5.28-7.8-8-11.58-2.06-2.86,2.22-4,2.59-6.34.21-1.41,1.06-3.05-.65-3.84-1.46-.67-2.13.85-2.76,1.89C708.17,174.68,705.65,179.21,705.94,185.21Z"/><path class="cls-2" d="M683.31,275c0,13.57-.12,27.15.08,40.72.06,3.9.51,8,4.5,10.45a2.52,2.52,0,0,1,1.3,3.18c-.53,1.4-1.87,1.49-3.15,1.5-4.39,0-8.78,0-13.16,0-1.27,0-2.62-.14-3.11-1.57a2.61,2.61,0,0,1,1.36-3.16c4.3-2.8,4.56-7.33,4.6-11.68q.21-24.15,0-48.3c0-4.56-.55-9-4.87-12.24-2.53-1.91-1.59-4.28,1.8-4.36q10-.23,20.07,0c3.34.09,4.08,3.34,5.38,5.56,10.34,17.6,20.54,35.27,30.81,52.91a14.38,14.38,0,0,0,4.85,5.36v-19q0-13.8,0-27.59c0-4-.48-8-3-11.28-1.07-1.38-3.74-1.84-2.88-4.25.95-2.66,3.54-1.64,5.47-1.71a81.63,81.63,0,0,1,11.28.11c3.09.32,4.21,2.47,1.47,4.52-4.76,3.56-4.74,8.55-4.77,13.51-.11,18.61-.25,37.22,0,55.82.09,5.64-1.39,7.65-7.35,7.58-12.54-.14-20.71-6.29-26.61-16.74-7.49-13.25-15.21-26.37-22.83-39.55Zm-.71-22c-2.94-.3-6.5.55-5.3,5.24,1,3.79,2.55,7.34,2.44,11.41,0,1.87,1.78,2.79,3,1.39,5.25-6,4.94.23,6.49,2.72,4.47,7.21,3.67,18,14.16,21.15.34.11.84.6.81.87-.68,7.42,5.76,11.79,7.67,18,2.74,8.9,13.69,13.45,20.16,13.33,2.05,0,5.08.1,4.62-2.68-.41-2.45,1-6.43-3.08-7.29-5-1-7.39-4.82-9.11-8.72a105.85,105.85,0,0,0-7.16-13.06A371.23,371.23,0,0,1,698.14,261C695,254.54,689.83,253,682.6,252.93Z"/><path class="cls-2" d="M934.7,330.91c-5.85,0-11.7,0-17.55,0-1.63,0-3.57.32-4.23-1.73-.52-1.62.5-2.67,1.9-3.51,2.66-1.6,3-4.3,3.1-7.09.69-18.8.81-37.59.12-56.39-.12-3.27-.67-6.24-3.82-8a2.61,2.61,0,0,1-1.31-3.2c.45-1.46,1.85-1.56,3.1-1.55,13.15.16,26.38-1.17,39.42.71,21.5,3.1,35.25,20.9,34.12,43.18-1,20.18-17.66,36.36-38.56,37.34-5.42.26-10.86,0-16.29,0Zm4.77-40.72h.06c0,7.3,0,14.61,0,21.91,0,4.69,1.41,9,6.17,10.59,5,1.71,9.5,0,13-3.9a22,22,0,0,0,4.74-8.71c3.25-11.05,3.21-22.2,1.33-33.44a30.44,30.44,0,0,0-5.87-14.31c-3.2-4-7.34-6.43-12.59-4.89s-6.67,6-6.81,10.85C939.33,275.58,939.47,282.89,939.47,290.19Zm-8.31-37.28h-6.89c-2.16,0-3.08.45-3,3.27.36,18.58,0,37.18.72,55.75.18,4.77-3.69,9.8.38,14.31,4.39,4.86,9.95,0,14.79,1.51a2.17,2.17,0,0,0,1.22.12c2.1-.69,4.19-1.3,2.14-4.26-1.78-2.56-3.35-5.27-3.6-8.54a348.23,348.23,0,0,1-1.16-41.23c.2-4.71.54-9.56,2.77-14,.89-1.76,3.86-2.82,2.64-5.19-1.42-2.75-4.46-1.54-6.85-1.76C933.26,252.83,932.21,252.91,931.16,252.91Zm55.91,37.34c.08-14.39-13.85-32.69-27.25-35.67-.68-.15-1.5.33-2.25.51.26.73.3,1.78.82,2.15a17.33,17.33,0,0,1,6.24,6.73c6.13,12.62,5.47,25.92,4,39.17-.74,6.69-2,13.67-8.18,18.22-1.14.84-3.85,1.15-2.23,3.46,1.06,1.51,3,.89,4.66.46,4.75-1.21,7.5-5.17,10.88-8.1C981.88,310.15,987,301.37,987.07,290.25Z"/><path class="cls-2" d="M1086.14,311.66c2.58-8.38,5.2-16.74,7.72-25.14.93-3.11,2.49-6.19-1.16-9-1.87-1.47-1.07-3.76,1.46-4,3.95-.33,7.94-.14,11.9-.11a2.4,2.4,0,0,1,2.38,1.7,2.35,2.35,0,0,1-1.54,3c-4.16,1.89-5,5.94-6.2,9.67q-7.34,22.79-14.5,45.6c-6,19-23.78,31.57-44.38,31-3.83-.1-7.74,1.36-11.59-.88-4.09-2.39-6.71-5.69-5.1-10.11s5.72-5.65,10.35-4.58c7,1.6,13.66,4.56,21.23,2.28,6.42-1.94,12.24-4.73,17.08-9.28,2.93-2.75,3.48-7.17-.17-8.86-11-5.09-10.66-16-13.37-25-2.58-8.58-5.35-17.1-8-25.68a9.36,9.36,0,0,0-1.5-2.71c-1.15-1.54-4.45-1.86-3.32-4.6s4-1.62,6.16-1.65c7.11-.11,14.22-.05,21.33,0,1.38,0,3-.46,4,1.14s0,2.68-1.23,3.72c-3.42,3-1.84,6.56-.79,9.86,2.53,7.95,5.3,15.83,8,23.75-3.92,1.12-4.07-2.33-4.75-4.37-3.17-9.41-6.12-18.9-9-28.42-.84-2.79-2.18-3.76-5-3a12.52,12.52,0,0,1-4.89.63c-6.4-.95-7.83.91-5.25,7.07,6.91,16.56,7,36,22,49.27,3.26,2.9,3.68,1.79,5.11-.3,1.16-1.69,2.62-3.67,2.64-5.54C1085.82,322,1092,316.93,1086.14,311.66Zm-46,50.62c7-.1,12.48-2.08,17.86-4.07,4-1.48,8.38-2.55,11.7-5.58,1-.88,1.67-2,.83-3.26-.61-.92-1.46-.46-2.18-.05-10.56,6-21.45,6.17-32.71,2.18-2.58-.91-4.29.94-5.34,3.18s0,3.91,2.09,5.07C1035.2,361.26,1038,362.62,1040.18,362.28Z"/><path class="cls-2" d="M888.78,355.79a43.79,43.79,0,1,1,.27,87.57c-23.73,0-43.65-19.73-43.78-43.4A43.81,43.81,0,0,1,888.78,355.79Zm-38.85,43.48a39.13,39.13,0,1,0,39.24-38.92A39.16,39.16,0,0,0,849.93,399.27Z"/><path class="cls-3" d="M745.78,192.59c5.81-10.87,1.82-25.42-8.64-32.49,8.76,0,17.51,0,26.26,0,2.48,0,2.33,1.47,1.71,3.43-2.87,9-1.51,18.21-1,27.26.21,3.71-1.2,6.8-1.25,10-.14,9.85-.42,19.88,2.54,29.47,1.11,3.6.54,5.17-3.32,5.15-4.17,0-8.34-.1-12.51,0-4,.12-4.44-.94-3.7-5.16,2-11.14,4.89-22.49-.08-33.69C745.79,195.25,745.79,193.92,745.78,192.59Z"/><path class="cls-2" d="M996.84,302.94c6-7.42,14.28-8.62,23-8.95,2-.07,5.53,1.68,5.6-1.72.07-4.06-.79-8.46-4.69-11.1-2.84-1.92-5.15-.57-7.17,1.6-1.78,1.9-2.41,4.29-3,6.75-1.1,4.29-4.2,6.44-8.44,5.55-4.75-1-6.1-4.74-5.3-9.2,1.15-6.39,5.88-9.59,11.49-11.18a39.77,39.77,0,0,1,24.11.46c9.28,3.22,13.68,10.75,14.58,20.12.66,6.85.42,13.79.48,20.68,0,3.43.1,6.58,3.7,8.63,2.87,1.65,1.43,3.37-.65,4.66-5.52,3.47-16.62,2.69-21.09-2.24-2.47-2.73-3.68-1.94-6-.31-7.27,5.17-15.12,5.83-23.11,1.88-9.89-4.88-11.56-17.8-3.49-25.65-.05,1.44.45,3.24-.23,4.27-3.55,5.4-2.64,10.32,1.35,14.81,4.41,4.95,10.23,5.94,16.48,4.8,1.6-.28,3.55-.75,4.17-2.41.77-2.08-1.37-2.68-2.62-3.63-7-5.38-7.36-13.27-.84-19.47a3.55,3.55,0,0,0,1.42-3.27c-.08-.38-1.14-1-1.41-.83-3.63,1.92-8.52-.12-11.53,3.75C1001.91,303.17,999.45,303.44,996.84,302.94Zm26-25.27c9.25,8.61,3.51,19.36,6.1,28.69,1.23,4.41,2.65,10.27-1.12,15-.16.2.38,1.43.71,1.48,4.44.68,7.19,5.09,11.81,5.32,3.65.18,6.28-.31,5.07-5.21a35.37,35.37,0,0,1-.76-12.92,45.69,45.69,0,0,0-2.46-20.32C1039.55,282,1032.1,277.08,1022.84,277.67Zm3.32,32.4c0-1.67-.1-3.35,0-5,.31-4.11-1.8-4.69-5-3.42a18.59,18.59,0,0,0-4.95,2.56c-3.68,2.95-3.8,6.82-1.81,10.71s5.62,5.52,9.46,4.48c4.16-1.12,1.55-5.32,2.28-8.07A4.75,4.75,0,0,0,1026.16,310.07Zm-15.35-29.22c0-1.75-.7-2.75-2.62-2.53-2.15.24-8.65,7.38-8.39,9.34s1.61,2.8,3.48,2.87C1005.45,290.61,1010.81,283.71,1010.81,280.85Z"/><path class="cls-2" d="M876.79,213.44v11a8.86,8.86,0,0,0,1.46,5.35c4.17,5.82,3.51,7.2-4,8.27-6,.85-11.93.53-16.09-4.54-2.23-2.72-3.38-.88-5,.19-7.32,4.78-15,6.24-23.1,2.14-10.07-5.12-12.14-17.67-4.36-25.89,6.32-6.68,14.43-8.68,23.32-8.76,2,0,5.58,1.54,5.8-1.54.3-4.31-.8-9-4.91-11.56-3-1.91-5.78-.15-7.5,2.45a25.42,25.42,0,0,0-2.51,6.33c-1.39,4.32-4.44,6.13-8.67,5.17-4.45-1-5.67-4.51-5.16-8.71a9.94,9.94,0,0,1,2.88-6.14c8.73-8.39,19.35-7.63,30-5.75,9,1.59,13.85,7.91,16.48,16.18C877.18,203.05,876.67,208.75,876.79,213.44Zm-2.72-.89c.83-11.86-2.76-21.69-14.42-27.45-1.8-.89-3.52-1.68-5.27-.9-1.52.68-.57,2.26-.12,3.29,5,11.47,4.69,23.51,3.64,35.56-.51,5.8,7.12,13.41,12.75,12.3,2.13-.41,3-1.47,3.31-3.76C874.72,225.33,874.14,219.1,874.07,212.55Zm-33,22.69c3,.31,4.92-.58,5.9-2.63,1.1-2.32-1-3.25-2.41-4.43a12.9,12.9,0,0,1-2.39-17.24c1.26-1.95,5-3.88,3.28-6-2.21-2.82-4.68,1.06-7.15,1.61a14,14,0,0,0-3.47,1.4c-14.55,7.73-13.18,15.16-3.6,24.25C834.33,235.06,838.44,233.86,841.12,235.24Zm14.37-17.89h0c0-2.09,0-4.17,0-6.26,0-1.57-.24-3.09-2.32-2.84-4.58.55-8.71,2.08-10.18,6.95a8.37,8.37,0,0,0,2.63,9.1c2.34,2.07,5.3,3.25,8.09,2.09,3.58-1.5,1.13-5.17,1.8-7.79A5.22,5.22,0,0,0,855.49,217.35Zm-14.58-31.19c.14-2.44-1.94-2.72-2.82-1.87-3.05,2.92-7.65,4.45-8.54,9.44-.32,1.81-.64,3.17,1.25,4.27s3.06.3,4.44-.89C838.63,194.18,839,189.72,840.91,186.16Z"/><path class="cls-2" d="M1041.74,180.29c18.49,0,27.73,9.05,28.07,27.59.09,5.22,0,10.45,0,15.67,0,3.21.14,6.17,3.55,8,2.8,1.54,1.7,3.35-.42,4.72-5.4,3.48-16.33,2.69-21.11-2.12-2.33-2.33-3.49-2.23-6-.47-7,4.85-14.55,6.12-22.46,2.19a16.34,16.34,0,0,1-3.72-27.13c6.59-6,14.59-7.68,23.22-7.6,1.75,0,5.06,1.39,5-1.83-.11-4.09-.88-8.45-4.69-11.15a4.53,4.53,0,0,0-6.26.57,15.93,15.93,0,0,0-4.08,7.62c-1.22,4.57-4.21,6.76-8.89,5.48-4.89-1.33-5.61-5.17-4.67-9.48,1-4.67,4.31-7.52,8.42-9.49C1032.12,180.79,1036.9,180.3,1041.74,180.29Zm-5.42,42.2c-4.65-1.06-4.13-4.4-3.13-7.65,1.14-3.69,2.75-7.2,7.25-10.15-9-2-13.54,3.5-18.9,6.79-4.12,2.53-4.71,6.61-4.23,10.92,1.16,10.23,12.79,13.5,21.1,11.4,2.83-.72,3.55-2.92.76-5-2.17-1.61-3.65-3.41-2.85-6.31l1.89,1.6c2.51,2.19,5.57,3.58,8.62,2.31,3.22-1.33,1.38-4.76,1.65-7.25s-.08-5,0-7.5c.17-3.37-1.53-3.77-4.33-3.22C1037.21,209.83,1034.63,214.34,1036.32,222.49Zm31.06-3.27c0-2.84-.15-5.15,0-7.43.92-12.13-5.17-20.37-14.67-26.76-1.87-1.26-4.11-1.95-5.73-.35-1.43,1.4.24,3.13,1.17,4.37,1.94,2.61,3.74,5.53,2.67,8.64-1.69,4.89-.53,9.51.57,14.07a34.07,34.07,0,0,1,.48,13.62c-.44,2.69-.31,5,2.19,5.64,4,1.11,6.91,6.19,11.92,3.57,1.49-.78,2.67-2.13,2-4.11C1066.83,226.59,1067.66,222.6,1067.38,219.22Zm-29.76-33.89c-5.62-1.66-14,2.06-15.14,6.07-.92,3.13-.08,6,3.15,7.15,3,1,3.75-1.57,4.43-3.82C1031.24,190.87,1032.18,186.84,1037.62,185.33Z"/><path class="cls-2" d="M790.78,322.32c-8.5-4.13-10.21-12.1-10.27-20.19-.15-19.57,17.55-34.73,40.63-26.7,5.33,1.86,9.16,5.95,9.37,12.19.12,3.77-1.58,6.55-5.45,7.33-4,.8-7.09-.87-8.29-4.83-1.49-4.92-2.66-10.82-9.27-9.5-6.11,1.22-5.89,7.43-6.22,12.35a36.8,36.8,0,0,0,4,20.07c4.3,8.14,11.75,9.31,18.46,3,1.57-1.48,3-4.49,5.52-2.52s.69,4.64-.63,6.74c-7.72,12.28-30.21,13.55-37.7,2.17a10.24,10.24,0,0,1,8.28,1.47c4.38,2.92,9.21,2.4,14.07,1.12a3.1,3.1,0,0,0-2.81-2.73c-6.27-1-9-5-10.22-10.84-1.72-8.56-5.46-16.93-1.51-25.87.55-1.23.92-3.57-1.13-4.35-1.49-.56-2.66.73-3.74,1.73-4.19,3.9-7.82,8.89-8.62,14-.84,5.35-3.13,12,3.26,17C789.89,315,792.13,318.93,790.78,322.32Z"/><path class="cls-2" d="M841.21,282.8a27,27,0,0,1,30.55-7.67C881.22,279,887.93,291,887,301.74c-.29,3.33-2.14,3.55-4.61,3.54-7.3,0-14.62.2-21.91-.1-5.2-.22-5.51,1.94-3.9,6,3.75,9.36,13.62,11.65,21.26,4.88,1.74-1.55,3.33-4.82,6.09-2.39,3.05,2.68.47,5.34-1.3,7.6-6.52,8.35-17.68,11.13-29.61,7.48-10.56-3.24-18.44-12.58-19.23-23.16-.64-8.55.38-16.68,7.45-22.77a11.66,11.66,0,0,1-1.69,8.3c-4.58,7.74-3.4,19.71,2.46,25.67,2.28,2.33,5.43,3.79,7.91,6,5,4.41,13,5.38,19.53,2-1-1.76-2.94-1.31-4.43-1.8-9.49-3.15-13.08-10.21-10.44-20.09.4-1.5-.1-3.23-.18-4.86a41.5,41.5,0,0,0,11.83-.07c.24,2.84,1.63,5.15,4.54,5a89.64,89.64,0,0,0,12.76-2c.31-.07.62-2,.31-2.89-2.48-6.83-4.41-14-10.48-18.84-1.46-1.17-2.7-2.88-4.87-1.81-2.45,1.21-1.23,3.17-.79,4.91A37.07,37.07,0,0,1,869.06,294c-.14,1.91.07,4-2.79,3.84-.38-4.36-.64-8.74-1.19-13.08-.26-2.08-1.07-4.27-3.6-4.51s-3.8,1.46-4.71,3.46c-2.06,4.47-2.12,9.31-2.52,14.08-2.94.13-2.87-2-2.6-3.85a73.76,73.76,0,0,1,2.09-9.63c.43-1.48,2.38-2.88.53-4.34a4.12,4.12,0,0,0-5.22.24C846.72,282.13,844.44,283.75,841.21,282.8Z"/><path class="cls-3" d="M1086.14,311.66c5.82,5.27-.32,10.36-.38,15.55,0,1.87-1.48,3.85-2.64,5.54-1.43,2.09-1.85,3.2-5.11.3-14.93-13.31-15.07-32.71-22-49.27-2.58-6.16-1.15-8,5.25-7.07a12.52,12.52,0,0,0,4.89-.63c2.82-.77,4.16.2,5,3,2.84,9.52,5.79,19,9,28.42.68,2,.83,5.49,4.75,4.37Z"/><path class="cls-2" d="M961.07,223.81c9.12,5.1,11.55,4.86,19.38-2,1.43-1.26,2.79-2.93,4.85-1.58,2.45,1.61,1.08,3.79.21,5.56C979.38,238.33,960,241.4,946.67,232c-10.82-7.65-14.73-22.2-9.3-34.68a27.59,27.59,0,0,1,31.81-16.24C981.33,183.8,990,196.57,988.51,209c-.41,3.37-2.45,3.39-4.83,3.38-6.89,0-13.79,0-20.68-.13-6.54-.11-7.27,1-4.35,7.08.71,1.49,1.55,2.93,2.33,4.4-4.63,1.08-4.68-2.78-5.1-5.31-1.91-11.5-5.57-23.19,4.1-34.95-12.38,1.8-17.66,10.19-21,17.84-3.65,8.33-.7,17.59,6,24.7,7.61,8,21.35,10.41,30.07,5.54-1.23-2.36-3.42-1.33-5.25-1.8C966.42,228.86,960.64,230.59,961.07,223.81ZM965.43,188c3.14-.3,3.8,1.66,4.07,4.23a74,74,0,0,1,0,16.84c2.84,0,5.4-.39,7.8.07,7.25,1.39,8.9-4.82,7.06-10.47-2-6.29-7.24-9.45-11.73-13.33-4.24-3.66-5.72-3-7.24,2.66-6.2-.54-7.87,1.75-9.21,10.82-.78,5.34.9,7.13,6.23,6.73,3.28-.25,5.07-.84,4.83-4.6C967,196.55,967.2,192.14,965.43,188Z"/><path class="cls-2" d="M915.35,218.26c2.86-9.29,5.78-18.57,8.55-27.89.58-2,.69-3.83-1.46-5.54-2.8-2.21-1.59-4.11,1.54-4.38,3.52-.31,7.1-.06,10.65-.06,1.34,0,2.5.34,2.89,1.81a2.25,2.25,0,0,1-1.18,2.65c-5,2.77-5.84,7.85-7.3,12.61-3.63,11.78-7.36,23.52-10.81,35.35-1.05,3.57-2.72,4.89-6.56,4.9-14.47.06-14.47.21-18.92-13.62-3.13-9.74-6.18-19.5-9.37-29.22-1.22-3.7-1.69-7.88-5.77-10a2.34,2.34,0,0,1-1.06-2.71c.31-1.59,1.56-1.8,2.85-1.8,8.56,0,17.13-.1,25.69.06,3.4.07,5.15,1.76,1.92,4.53a5.94,5.94,0,0,0-1.75,6.8c2.72,8.91,5.77,17.72,8.7,26.56Zm-7.89,15.82c3.33-.33,7.69,1.58,8.85-4.05,1-4.91,1.19-9.08-4.84-10.9a4.75,4.75,0,0,1-3.34-3.44c-2.08-9.08-4.84-18.06-6.13-27.25-.64-4.58-3.37-5-6.15-5.31-3.78-.38-7.9-.45-10.8,2.89-.92,1.06-.35,2.24.2,3.47,5.2,11.58,6.91,24.24,11,36.2C898.49,232,900.65,235.22,907.46,234.08Z"/><path class="cls-2" d="M776.11,296.38c0,6.26-.22,12.53.08,18.78.19,3.88.37,8.06,4.48,10.41a2.54,2.54,0,0,1,1.4,3.14,2.93,2.93,0,0,1-3,1.78c-8.56,0-17.12,0-25.68,0-1.31,0-2.65-.28-3.16-1.58-.79-2,1-2.79,2.14-4,6.25-6.35,5.83-35.76-.62-41.94-1.15-1.1-2.2-2-1.62-3.61.53-1.5,1.94-1.43,3.16-1.36,6.14.3,11.94-1.37,17.62-3.33,4.28-1.48,5.77-.23,5.64,4.14-.16,5.84,0,11.69,0,17.53ZM765.58,327a27.21,27.21,0,0,1,3.13,0c4.91.57,6.49-.75,5.28-6.2a61.81,61.81,0,0,1-1.37-21.06c.5-3.91,1.46-7.76,1-11.74-.86-8.57-.86-8.56-9.25-7.56a21.65,21.65,0,0,1-3.12,0c-2.67-.1-3.49.72-3,3.71,1,7,.5,14.05,1.34,21.11a36.75,36.75,0,0,1-2,17.07c-1.78,4.57-.26,4.52,3,4.59C762.25,327.06,763.92,327,765.58,327Z"/><path class="cls-3" d="M770.09,272.07l-1.19.73c-3.07-5-7.07.29-10.48-.94a1,1,0,0,1-.93-.59c0-2.64-1-4.38-3.9-4.5-2.18-4.23-2.23-8.08,1.41-11.72,4.41-4.39,9.46-4.93,14.67-2.36,4.52,2.23,7.45,5.85,6,11.48C772.91,266.18,770.47,268.4,770.09,272.07Z"/><path class="cls-2" d="M758.42,271.86c3.41,1.23,7.41-4.09,10.48.94C765.2,274.75,761.67,274.84,758.42,271.86Z"/><path class="cls-2" d="M770.09,272.07c.38-3.67,2.82-5.89,5.56-7.9A8,8,0,0,1,770.09,272.07Z"/><path class="cls-2" d="M753.59,266.77c2.89.12,3.91,1.86,3.9,4.5A5.32,5.32,0,0,1,753.59,266.77Z"/><path class="cls-3" d="M800.72,235.41c-8.44,0-7.36,0-7.41-7.92-.06-10.28,2.73-20.41.3-31-1.12-4.86.22-10.83.6-16.2a61.69,61.69,0,0,0-1.41-17.7c-.47-2.19-.08-2.58,1.78-2.58,2.09,0,4.17,0,6.26,0,9.7.15,10.49.89,9.31,10.39-2.4,19.31-.31,38.61.29,57.89.2,6.11-1.6,7.29-6.59,7.09C802.81,235.38,801.76,235.41,800.72,235.41Z"/><path class="cls-3" d="M705.94,185.21c-.29-6,2.23-10.53,4.95-15,.63-1,1.3-2.56,2.76-1.89,1.71.79.86,2.43.65,3.84-.37,2.38-4.65,3.48-2.59,6.34,2.7,3.78,3.38,8.66,8,11.58,3,1.92,4.81,1.18,7.24.23,5.61-2.21,12.76-.81,13.94,2.75s-4.4,9.75-9.82,11.15C718.75,207.43,706,197.52,705.94,185.21Z"/><path class="cls-3" d="M682.6,252.93c7.23,0,12.38,1.61,15.54,8.07a371.23,371.23,0,0,0,19.17,34.26,105.85,105.85,0,0,1,7.16,13.06c1.72,3.9,4.16,7.68,9.11,8.72,4.11.86,2.67,4.84,3.08,7.29.46,2.78-2.57,2.64-4.62,2.68-6.47.12-17.42-4.43-20.16-13.33-1.91-6.18-8.35-10.55-7.67-18,0-.27-.47-.76-.81-.87-10.49-3.19-9.69-13.94-14.16-21.15-1.55-2.49-1.24-8.75-6.49-2.72-1.23,1.4-3.06.48-3-1.39.11-4.07-1.48-7.62-2.44-11.41C676.1,253.48,679.66,252.63,682.6,252.93Z"/><path class="cls-3" d="M931.16,252.91c1.05,0,2.1-.08,3.14,0,2.39.22,5.43-1,6.85,1.76,1.22,2.37-1.75,3.43-2.64,5.19-2.23,4.4-2.57,9.25-2.77,14a348.23,348.23,0,0,0,1.16,41.23c.25,3.27,1.82,6,3.6,8.54,2,3,0,3.57-2.14,4.26a2.17,2.17,0,0,1-1.22-.12c-4.84-1.51-10.4,3.35-14.79-1.51-4.07-4.51-.2-9.54-.38-14.31-.69-18.57-.36-37.17-.72-55.75-.06-2.82.86-3.25,3-3.27Z"/><path class="cls-3" d="M987.07,290.26c-.08,11.11-5.19,19.89-13.29,26.92-3.38,2.93-6.13,6.89-10.88,8.1-1.68.43-3.6,1.05-4.66-.46-1.62-2.31,1.09-2.62,2.23-3.46,6.17-4.55,7.44-11.53,8.18-18.22,1.45-13.25,2.11-26.55-4-39.17a17.33,17.33,0,0,0-6.24-6.73c-.52-.37-.56-1.42-.82-2.15.75-.18,1.57-.66,2.25-.51C973.22,257.56,987.15,275.86,987.07,290.26Z"/><path class="cls-3" d="M1040.18,362.28c-2.19.34-5-1-7.75-2.53-2.1-1.16-3.21-2.68-2.09-5.07s2.76-4.09,5.34-3.18c11.26,4,22.15,3.79,32.71-2.18.72-.41,1.57-.87,2.18.05.84,1.3.13,2.38-.83,3.26-3.32,3-7.67,4.1-11.7,5.58C1052.66,360.2,1047.18,362.18,1040.18,362.28Z"/><path class="cls-3" d="M1022.84,277.67c9.26-.59,16.71,4.33,19.35,12.05a45.69,45.69,0,0,1,2.46,20.32,35.37,35.37,0,0,0,.76,12.92c1.21,4.9-1.42,5.39-5.07,5.21-4.62-.23-7.37-4.64-11.81-5.32-.33-.05-.87-1.28-.71-1.48,3.77-4.74,2.35-10.6,1.12-15C1026.35,297,1032.09,286.28,1022.84,277.67Z"/><path class="cls-3" d="M996.84,302.94c2.61.5,5.07.23,6.81-2,3-3.87,7.9-1.83,11.53-3.75.27-.15,1.33.45,1.41.83a3.55,3.55,0,0,1-1.42,3.27c-6.52,6.2-6.19,14.09.84,19.47,1.25.95,3.39,1.55,2.62,3.63-.62,1.66-2.57,2.13-4.17,2.41-6.25,1.14-12.07.15-16.48-4.8-4-4.49-4.9-9.41-1.35-14.81.68-1,.18-2.83.23-4.27l.21.23Z"/><path class="cls-3" d="M1010.81,280.85c0,2.86-5.36,9.76-7.53,9.68-1.87-.07-3.21-.9-3.48-2.87s6.24-9.1,8.39-9.34C1010.11,278.1,1010.81,279.1,1010.81,280.85Z"/><path class="cls-3" d="M874.07,212.55c.07,6.55.65,12.78-.11,19-.28,2.29-1.18,3.35-3.31,3.76-5.63,1.11-13.26-6.5-12.75-12.3C859,211,859.22,199,854.26,187.49c-.45-1-1.4-2.61.12-3.29,1.75-.78,3.47,0,5.27.9C871.31,190.86,874.9,200.69,874.07,212.55Z"/><path class="cls-3" d="M841.12,235.24c-2.68-1.38-6.79-.18-9.84-3.08-9.58-9.09-10.95-16.52,3.6-24.25a14,14,0,0,1,3.47-1.4c2.47-.55,4.94-4.43,7.15-1.61,1.68,2.16-2,4.09-3.28,6a12.9,12.9,0,0,0,2.39,17.24c1.39,1.18,3.51,2.11,2.41,4.43C846,234.66,844.14,235.55,841.12,235.24Z"/><path class="cls-3" d="M840.91,186.16c-2,3.56-2.28,8-5.67,11-1.38,1.19-2.6,2-4.44.89s-1.57-2.46-1.25-4.27c.89-5,5.49-6.52,8.54-9.44C839,183.44,841.05,183.72,840.91,186.16Z"/><path class="cls-3" d="M1067.38,219.22c.28,3.38-.55,7.37.67,11.26.62,2-.56,3.33-2,4.11-5,2.62-7.91-2.46-11.92-3.57-2.5-.68-2.63-3-2.19-5.64a34.07,34.07,0,0,0-.48-13.62c-1.1-4.56-2.26-9.18-.57-14.07,1.07-3.11-.73-6-2.67-8.64-.93-1.24-2.6-3-1.17-4.37,1.62-1.6,3.86-.91,5.73.35,9.5,6.39,15.59,14.63,14.67,26.76C1067.23,214.07,1067.38,216.38,1067.38,219.22Z"/><path class="cls-3" d="M1036.32,222.51c-.8,2.9.68,4.7,2.85,6.31,2.79,2.06,2.07,4.26-.76,5-8.31,2.1-19.94-1.17-21.1-11.4-.48-4.31.11-8.39,4.23-10.92,5.36-3.29,9.93-8.81,18.9-6.79-4.5,2.95-6.11,6.46-7.25,10.15-1,3.25-1.52,6.59,3.13,7.65Z"/><path class="cls-3" d="M1037.62,185.33c-5.44,1.51-6.38,5.54-7.56,9.4-.68,2.25-1.39,4.87-4.43,3.82-3.23-1.12-4.07-4-3.15-7.15C1023.66,187.39,1032,183.67,1037.62,185.33Z"/><path class="cls-3" d="M790.78,322.32c1.35-3.39-.89-7.28-2.32-8.39-6.39-4.94-4.1-11.61-3.26-17,.8-5.13,4.43-10.12,8.62-14,1.08-1,2.25-2.29,3.74-1.73,2.05.78,1.68,3.12,1.13,4.35-4,8.94-.21,17.31,1.51,25.87,1.17,5.83,3.95,9.86,10.22,10.84a3.1,3.1,0,0,1,2.81,2.73c-4.86,1.28-9.69,1.8-14.07-1.12a10.24,10.24,0,0,0-8.28-1.47Z"/><path class="cls-3" d="M854.38,298c.08,1.63.58,3.36.18,4.86-2.64,9.88,1,16.94,10.44,20.09,1.49.49,3.38,0,4.43,1.8-6.51,3.39-14.53,2.42-19.53-2-2.48-2.17-5.63-3.63-7.91-6-5.86-6-7-17.93-2.46-25.67a11.66,11.66,0,0,0,1.69-8.3c3.22.95,5.5-.67,7.83-2.61a4.12,4.12,0,0,1,5.22-.24c1.85,1.46-.1,2.86-.53,4.34a73.76,73.76,0,0,0-2.09,9.63c-.27,1.8-.34,4,2.6,3.85Z"/><path class="cls-3" d="M866.27,297.82c2.86.12,2.65-1.93,2.79-3.84a37.07,37.07,0,0,0-1.38-11.76c-.44-1.74-1.66-3.7.79-4.91,2.17-1.07,3.41.64,4.87,1.81,6.07,4.86,8,12,10.48,18.84.31.86,0,2.82-.31,2.89a89.64,89.64,0,0,1-12.76,2c-2.91.16-4.3-2.15-4.54-5Z"/><path class="cls-3" d="M961.07,223.81c-.43,6.78,5.35,5.05,8.76,5.93,1.83.47,4-.56,5.25,1.8-8.72,4.87-22.46,2.5-30.07-5.54-6.74-7.11-9.69-16.37-6-24.7,3.35-7.65,8.63-16,21-17.84-9.67,11.76-6,23.45-4.1,34.95.42,2.53.47,6.39,5.1,5.31Z"/><path class="cls-3" d="M965.43,188c1.52-5.69,3-6.32,7.24-2.66,4.49,3.88,9.69,7,11.73,13.33,1.84,5.65.19,11.86-7.06,10.47-2.4-.46-5-.07-7.8-.07a74,74,0,0,0,0-16.84C969.23,189.64,968.57,187.68,965.43,188Z"/><path class="cls-3" d="M907.46,234.08c-6.81,1.14-9-2.06-11.16-8.39-4.14-12-5.85-24.62-11-36.2-.55-1.23-1.12-2.41-.2-3.47,2.9-3.34,7-3.27,10.8-2.89,2.78.27,5.51.73,6.15,5.31,1.29,9.19,4,18.17,6.13,27.25a4.75,4.75,0,0,0,3.34,3.44c6,1.82,5.86,6,4.84,10.9C915.15,235.66,910.79,233.75,907.46,234.08Z"/><path class="cls-3" d="M765.58,327c-1.66,0-3.33,0-5,0-3.23-.07-4.75,0-3-4.59a36.75,36.75,0,0,0,2-17.07c-.84-7.06-.32-14.14-1.34-21.11-.44-3,.38-3.81,3-3.71a21.65,21.65,0,0,0,3.12,0c8.39-1,8.39-1,9.25,7.56.41,4-.55,7.83-1,11.74A61.81,61.81,0,0,0,774,320.86c1.21,5.45-.37,6.77-5.28,6.2A27.21,27.21,0,0,0,765.58,327Z"/><path class="cls-2" d="M889.18,426.16a27.61,27.61,0,0,1-22.44-12.09c-.94-1.32-2.07-3.07-.28-4.45s2.86.31,4,1.6c12.34,14.44,25.24,14.3,37.62-.41,1.1-1.3,2.14-3.09,4-1.68s.45,3.16-.39,4.49C906.39,421.88,898.57,425.59,889.18,426.16Z"/><path class="cls-2" d="M884,389.13c-.64,3.9-.77,8.87-6,8.77-4.73-.1-5.24-4.8-5.24-8.58,0-4,.45-8.95,5.63-8.82C882.93,380.61,883.39,385.34,884,389.13Z"/><path class="cls-2" d="M895.68,383.58c.44-2.39,1.92-3.7,4.29-3.55s3.5,2,4.35,3.93a9.81,9.81,0,0,1,.51,1.78c.91,4,.72,7.83-2.37,10.94a3.43,3.43,0,0,1-5,.28,9.22,9.22,0,0,1-2.59-10.67,32.23,32.23,0,0,0,1.32,3.52c.76,1.51.22,4.21,3,4a3.64,3.64,0,0,0,3.54-3.05c.32-2.2.93-4.61-1.56-6.21C899.42,383.47,897.56,383.54,895.68,383.58Z"/><path class="cls-3" d="M895.68,383.58c1.88,0,3.74-.11,5.45,1,2.49,1.6,1.88,4,1.56,6.21a3.64,3.64,0,0,1-3.54,3.05c-2.78.19-2.24-2.51-3-4a32.23,32.23,0,0,1-1.32-3.52C895.11,385.38,895.4,384.48,895.68,383.58Z"/></g></g></svg>