<svg xmlns="http://www.w3.org/2000/svg" viewBox="0 0 1778 600"><defs><style>.cls-1{fill:#f8eac7;}.cls-2{fill:#2d4980;}</style></defs><g id="Capa_2" data-name="Capa 2"><g id="Capa_1-2" data-name="Capa 1"><rect class="cls-1" width="1778" height="600" rx="17.09"/><path class="cls-2" d="M1064.5,261.17l-.82,1.62c-2,2.91-3.94,5.91-6.11,8.72-8.08,10.46-18.3,18.1-31.08,21.64-20,5.54-38.75,2.76-55.9-9.27l-.26-.21c-3.23-2.93-6.59-5.73-9.65-8.83-8.11-8.23-14.78-17.75-16.91-29.09-5.07-27,1.11-50.65,23.53-68.47a23.49,23.49,0,0,0,2.21-2.25l.19-.14c6.12-4.36,12.29-8.56,19.44-11.21,16.69-6.2,32.84-6.46,48.51,3.18,2.87,1.77,5.57,3.83,8.57,5.39l0,0c4.45,4,9,8,12.85,12.66l0,0a7.28,7.28,0,0,0,.51,1.05c11.09,15,14.73,31.7,11.59,50.08A128.36,128.36,0,0,1,1064.5,261.17ZM954.35,201.94a14.38,14.38,0,0,0-2.16,5c-6.06,15.38-6.77,30.69.62,45.88,4.15,8.31,9.08,16,16.94,21.34,6.76,7.41,15.23,11.52,25,13.66,17.64,3.88,33.7.78,47.89-10.44,11.7-9.25,17.86-21.47,20.85-36.24,2.89-14.3,2.68-27.82-2.86-41.17-2.74-6.59-6.58-12.55-12.49-16.89-1.51-3.1-4.52-4.55-7.1-6.48-14-12.22-34.87-15-51.23-6.57-7.63,3.92-15.15,8.06-21.62,13.82a1.81,1.81,0,0,0-1.83,1.42c-3.34,2.82-6.7,5.62-8.49,9.78C956.08,197,955.29,199.52,954.35,201.94Z"/><path class="cls-2" d="M855.34,210.28a.33.33,0,0,0-.17.43,6.67,6.67,0,0,0-2.33,2.72l-.75.78-4.4,3.84a.32.32,0,0,0-.39.24,22.35,22.35,0,0,0-2.81,1.41c-4.47,3.12-8.78,2.47-13.39.09-5.46-2.83-8.23-7.63-10.63-12.86h0c-.41-1.67-.92-3.32-1.23-5-2.65-14-.53-26.85,9.44-37.71,5.76-6.27,12.55-9,21-6.18s14.33,7.69,15.61,17c.86,6.28,0,12.38-1.31,18.47a.4.4,0,0,0-.16.5q-2,4.86-4,9.73l0,0a11.75,11.75,0,0,0-3.22,4.78l0,0A2.42,2.42,0,0,0,855.34,210.28Zm-9.47-28.14a10.61,10.61,0,0,0-.26-1.93c-.43-1.43-1.17-3-2.68-3.15s-2.06,1.48-2.56,2.71a17.88,17.88,0,0,0-1.56,8.91c.14,1.15.34,2.56,1.62,3s2.08-.86,2.81-1.74A12.24,12.24,0,0,0,845.87,182.14Z"/><path class="cls-2" d="M841,426.9a3.28,3.28,0,0,0-.77-.15c-1.89-1.24-2.53-2.86-2.55-5.24,0-2.56,1.4-4.82,1-7.36-.45-3.27,1.36-4.28,4.22-4,4.84.38,9.57,1.58,14.45,1.8,2,.08,3.56,1.43,3.52,4-.16,10.34-.21,20.68-5.67,30h0l-3.59,4.06a.32.32,0,0,0-.33.27l-2.51,2,0,0a24.37,24.37,0,0,1-17.59,2.29c-5.86-1.37-10.32-5.09-14.83-8.74l0,0A27.59,27.59,0,0,1,809.17,427c-.15-13.37,5.69-23.87,15.28-32.66l-.19,0,.18.07c10.69-7.26,21.71-7.69,33-1.62l.11-.18-.13.16a22.89,22.89,0,0,1-1.11,10.94c-.61,1.88-1.44,2.69-3.44,1.86-1.09-.45-2.29-.64-3.42-1-9.28-3-17.38.5-21.68,9.37l-.65,1.67a21.06,21.06,0,0,0,.81,13.81h-.11l.58,1.62a.24.24,0,0,0,.08.4c1,3.25,3,5,6.55,5.08s7-.53,9.19-4a5.44,5.44,0,0,0,.57-4.85C844.23,425.91,842.35,427,841,426.9Z"/><path class="cls-2" d="M780.76,220.81l0-.21c.1-7.82,1.2-15.57,1.74-23.36.7-10,1.47-20-4.07-29.21-2.51-4.18-4.27-8.82-6.34-13.26s-1.48-6.11,2.4-8.67c2-1.32,4.09-2.48,5.93-4,4.64-3.75,5.29-3.53,7.69,2.05,2.86,6.64,6,13.17,8.2,18.11,6.1-5.36,12.37-10.68,18.43-16.22,7.66-7,7.62-7,14.43,1.08,1.89,2.25,1.64,3.91,0,5.88s-3.38,4.05-5.07,6.08l.08.24-.06-.24-1.8,2-.14.19L804,181.89l-.15.16a3.48,3.48,0,0,0-2,3.16c-.2,11.31-3.54,22.16-5,33.3-.17,1.31-.56,3.1-2,3C790.15,221.31,785.37,222.52,780.76,220.81Z"/><path class="cls-2" d="M872.82,455.65c-1.36-.45-3-.26-3.9-1.76a43.42,43.42,0,0,1-.49-7.83c1-15.17,2.5-30.32,1.92-45.55-.07-1.86.62-3,2.51-3.42,3.88-.81,7.69-1.79,11.67-2.23,6.8-.74,13.06.95,19.24,3.4,1,1.06,2,2.13,3,3.19,4.29,6.27,3.88,12.56.08,18.86l.05,0c-.28.29-.56.59-.85.88l0-.06c-2.54,1.62-4.79,3.76-8,4.15-2.24.28-1.77,1.35-.76,2.62,2,2.58,3.89,5.3,6.51,7.37a.33.33,0,0,0,.32.34c.85,1.14,1.67,2.31,2.56,3.42,1.29,1.59,2.2,3.3,1.65,5.42-.94,3.66-1.94,7.32-2.91,11-1.22,2.09-2.65,2-4.59.78-4.06-2.57-6.81-6.33-9.63-10.06-1.49-2-3.09-3.84-4.7-5.83-1.83,1.92-1,3.87-.79,5.77.36,3.45,1.74,7-1.12,10.12l-4-.39-3.17,0Zm14.87-49.52c-3.06-.42-4.77.85-3.67,4.43.41,1.32-1,3.85,1.4,3.83a19.92,19.92,0,0,0,9.62-2,3,3,0,0,0,1.66-2.94c-.12-1.45-1.27-2-2.43-2.28A19.65,19.65,0,0,0,887.69,406.13Z"/><path class="cls-2" d="M1036,457.72l-.35-.19-.39.07c-2.88-1-5.87-.36-8.8-.55l-.29-.13-.32,0c-1.74-2.28-1.58-5-1.59-7.61-.07-12.72-.1-25.45.11-38.17,0-2.87-.72-3.8-3.49-3.49a49.38,49.38,0,0,1-6,.17c-3,0-4.7-1.25-4.36-4.64a43,43,0,0,0,.09-7.94c-.33-3.76,1.45-5.32,4.93-5.7,6.72-.73,13.4-1.82,20.13-2.28a117.21,117.21,0,0,1,22.24.13c2.67.32,4.51,1.38,4.35,4.52-.25,4.9-.41,9.8-.55,14.7-.08,2.92-1.44,4.39-4.43,4.35-4-.06-8,0-11.93-.12-2.16-.08-3,.42-3,2.83a366.78,366.78,0,0,1-2.66,42.41h0A5.79,5.79,0,0,1,1036,457.72Z"/><path class="cls-2" d="M975.18,324.79l-.73,1.66-6.31,9.41v0c-3.25.56-5.65-.91-7.61-3.28a15.94,15.94,0,0,0-9.4-5.5c-4.77-1-10.48,1.64-12.15,5.51-3.79,8.8.14,17,9.4,19.48,4.32,1.17,5.33.56,6.72-4.14-.68,0-1.32,0-2,0-5,.31-6.28-1.26-4.56-6,.62-1.74,1.56-3.36,2.27-5.07a2.83,2.83,0,0,1,3.77-1.89c4.74,1.23,9.47,2.46,13.64,5.2l.34.75c0,10.82-3.22,20.23-11.8,27.34l-.09,0c-2.42.33-4.64,1.72-7.29,1-7.18-1.87-14.16-4.1-19.45-9.74l-.25-.21-3.38-3.56h0A29.13,29.13,0,0,1,924,337.26c1.18-6.33,4.25-11.88,7.27-17.45l.09-.13c6-7.25,13.56-10.55,23-9.75,6.76.57,12.63,3.3,18.33,6.79C976.17,318.84,977.24,321.21,975.18,324.79Z"/><path class="cls-2" d="M912.53,452.27l.27-1.5a40.82,40.82,0,0,0,2.32-10.39l0,.06c.26-.28.71-.54.75-.84,1.14-10,3.84-19.6,5.59-29.42.73-4.06,2.89-5.84,6.7-6.23,9.11-.92,18.24-.75,27.37-.89a6.28,6.28,0,0,1,4,1.45l.62,1.62c-.25,1.7-.57,3.39-.73,5.09-.44,4.67-5,9.08-10,8.48-4.72-.56-9.53.13-14.29-.47-.95-.13-2.89-1.58-2.83,1.07,0,1.7.13,3.41,2.74,3.36a82.45,82.45,0,0,1,10.31.42c2.22.24,5.07-.08,5.55,3.28s-1.56,7.93-4.08,9.15c-4.1,2-8.32.81-12.51.61-1-.06-2.71-1-2.55,1.13.11,1.38-1.22,3.47,1.81,3.89A175,175,0,0,0,951,443.5c4.92.19,5.85,1.31,4.57,6.13-.58,2.16-1.85,4.2-2.1,6.38-.41,3.63-2.2,4.71-5.59,4.31-11.46-1.37-23,.24-34.46-.77l-.93-.95Z"/><path class="cls-2" d="M792.1,273.83c-.27.54-.53,1.09-.79,1.63q-2.77,5.43-5.53,10.87c-.68,1.33-1.67,3.07-3.18,2-3.35-2.32-7.27-2.1-10.88-3.17s-4.12-2.1-2.3-5.48c.69-1.26,1.17-2.63,1.75-3.94h0A125.53,125.53,0,0,0,779,261.25l.84-1.54c4.15-6.39,9.14-12.42,11.8-19.54,2.28-6.1,6.27-7.45,11.82-7,1.57.11,3.12.4,4.69.61l-.11,0c5.6,18.48,13.83,36.15,17,55.37l-.33,2.33c-2.78,2.61-6.24,1.63-9.44,1.67-5.43.08-7-1.22-8.11-6.57-1-5-1.86-10.12-2.86-15.16-.21-1.06,0-2.4-1.66-2.77A9,9,0,0,0,792.1,273.83ZM800,247.47c-1.72,3.42-3.58,6.19-4.24,9.61,6.44,0,6.45,0,5.29-5.77C800.86,250.19,800.48,249.09,800,247.47Z"/><path class="cls-2" d="M1015,452.1a.6.6,0,0,0-.56.28c-4.36-.17-8.7-.76-13.05.29-2.85.69-4.22-.79-4.22-3.66,0-4.7-1.52-9.1-2.73-13.57-.63-2.32-2-2.67-4.16-2.47-2.36.23-1.75,1.9-1.83,3.22A70,70,0,0,1,985.74,453c-.52,1.65-1.26,3.34-3.22,2.54-3.79-1.52-7.59-.54-11.39-.59-4.2-.06-5.43-1.5-4.2-5.41,5-16,9.36-32.31,16.88-47.46.81-1.63,1.17-3.78,3.44-3.95,3.91-.31,7.78-1.59,11.74-.83,1.08.21,1.35,1.53,1.68,2.54q7.64,23.4,15.29,46.79C1016.65,448.71,1016.64,450.51,1015,452.1Zm-22.37-39.46c-1.44,1-1.51,2.29-1.88,3.36-1.55,4.51-1.56,4.33,3.12,3.74,3.13-.4,2.14-1.64,1.11-3.21C994.21,415.34,993.51,414.09,992.63,412.64Z"/><path class="cls-2" d="M816,306.62c10.43-.74,17.08,7,17.84,15.85,1.2,14-4.87,25.26-15.36,34.06-5.56,4.66-17.27,1.88-21-4.38-8.7-14.6-2.73-36.15,12.18-44.35A10.28,10.28,0,0,1,816,306.62ZM819,329.53c.07-3.87-1.26-7.41-4.12-7.89s-3.81,3.32-4.88,5.83a2.34,2.34,0,0,0-.09.38c-.8,3.37-.54,6.58,1.68,9.36.87,1.08,2.13.9,3.24.22C818,335.49,818.79,332.36,819,329.53Z"/><path class="cls-2" d="M709,391.87l.76-1.61c5.33-9.3,14.1-14.26,23.38-18.61a18.92,18.92,0,0,1,12.26-1.47c7.2,1.48,13.74,4.64,20.35,7.65h.1l4.87,3v0l6.06,5,.12.1c4.45,5.3,8.35,10.87,9.19,18,1.54,13-1.22,24.88-8.88,35.56h0l-8.79,8.72h0l-1.85,1.2.11.24-.15-.22-1.46.95.25.07-.24-.1c-1.84.74-3.66,1.51-5.51,2.23-22.06,8.51-40.51-1.22-49.16-20.8C704.68,418.74,704.37,405.35,709,391.87Zm11.38-9.52a.28.28,0,0,0-.39.21,11,11,0,0,0-4.13,4.35L714.25,389c-3,3.52-4.35,7.85-5.08,12.25-2.6,15.56-.12,29.8,11.59,41.4l2,1c3.37,6.21,9.68,7.95,15.63,8.28,28.63,1.6,44.18-19.76,43.86-42.68-.12-9.11-4.06-16.25-10.85-22-7.26-6.18-15.92-9.73-24.83-12.53-4.36-1.37-9.12-2.39-13.37.87l.11-.07c-4.78.61-8.56,3.17-12.11,6.19l-.16.13Z"/><path class="cls-2" d="M875.83,190.54a152.44,152.44,0,0,1,3.07-27.28c.51-2.45,1.61-3.54,4-3.2q5.9.81,11.77,1.76c2.73.44,3.6,1.85,3,4.78-1.9,9.6-2.48,19.43-4.77,29a15.53,15.53,0,0,0,0,5.92c.57,3.59,2.67,4.31,5.56,2,2.17-1.72,3.15-4.18,3.9-6.76,2.86-9.86,2.51-20.2,4.54-30.2,1.18-5.84,1-6,7.06-5a18.53,18.53,0,0,0,2,.21c6.86.55,7.26.92,6.71,7.77-1.26,15.56-4.41,30.61-11.37,44.76-3,6-7.87,9.09-13.83,11-4,1.31-7.57.21-10.69-2.5a25.63,25.63,0,0,1-8.59-14C876.72,202.31,875.46,195.69,875.83,190.54Z"/><path class="cls-2" d="M874.62,378.87c-3.56-16.2-4.91-32.7-6.69-49.13-.43-3.94.1-6.76,4.53-8.8,7.2-3.31,6.84-3.7,10.62,3.56s8.56,14,11.89,21.55c.52,1.18,1,2.35,1.86,4.18.85-2.4.37-4.18.23-6-.64-8.27-2.75-16.35-2.93-24.67-.06-2.46,0-4.22,3.43-4.41a20.56,20.56,0,0,0,8-2.61c2.37-1.22,4.22-.45,4.67,2.64,2.22,15.14,3.62,30.38,5,45.62.38,4.08.73,8.17,1,12.26a4.25,4.25,0,0,1-3.13,4.45,38.89,38.89,0,0,1-13.65,1.58c-2-.1-3.44-1.6-4.34-3.53a85,85,0,0,0-6.84-12.4c-.31-.45-.1-1.57-1-1.26a1.37,1.37,0,0,0-.76,2c1.36,3.36,1.51,7,2.1,10.48.46,2.7-.65,4.57-3.5,4.57-3.5,0-7,2-10.5,0Z"/><path class="cls-2" d="M887.33,299.2c-1.19-1.82-1-3.79-.64-5.77,1.5-9.42,2.65-18.91,4.65-28.22.91-4.23,1.12-8.53,2.1-12.73a6,6,0,0,1,5.6-5.17,201,201,0,0,1,31.29-2c2.37,0,3.81.94,3.72,3.53-.13,3.84.15,7.67-.43,11.51-.45,2.93-1.56,4-4.78,3.46-7.14-1.28-14.37-1.1-21.57-.92l-.1,1c3.76.44,7.51.89,11.28,1.29,1.31.14,2.65.07,4,.21,2.68.28,3.86,1.4,3.33,4.45-1.66,9.53-1.62,9.61-11,8.34-2.23-.31-4.47-.58-6.67-1-2-.39-3.18-.4-3.46,2.2s.89,3,2.87,3l18.68.29c4.79.06,5.71,1,4.6,5.71-.79,3.34-1.53,6.85-3.19,9.77-2,3.46-6.1,2.55-9.3,2.47C908,300.42,897.65,299.72,887.33,299.2Z"/><path class="cls-2" d="M846.27,293.64c-4.31.82-8.32-1-12.48-1.48-2-.24-1.53-2.21-1.57-3.57-.32-9.33,1.75-18.43,2.7-27.64.57-5.39,1.7-10.72,2.31-16.11a7,7,0,0,1,5.87-6.59c9.4-2.24,18.86-2.92,28.23,0,7,2.21,11,6.73,11.06,12s-4.82,11.89-10.64,14.13c-2.3.89-6.08.8-6.51,2.88s3.27,3.14,5,4.79a35.94,35.94,0,0,0,3.33,2.82c2.13,1.58,2.66,3.44,1.45,5.87A37.67,37.67,0,0,0,872,291c-.75,4.16-2.16,4.78-5.47,2.27-6.74-5.13-12.71-11.11-19-17.54-.55,6.18.41,12.12-1.26,17.83l.16.22Zm17.11-45.49h0c-2.95-1.67-6.15-.91-9.27-.92a1.72,1.72,0,0,0-2,1.89c0,1.58-.11,3.16-.28,4.73s.45,1.95,1.82,1.66c3.34-.72,6.71-1.37,10-2.22,1.36-.34,3.16-.9,3.11-2.57C866.75,248.88,865.07,248.29,863.38,248.15Z"/><path class="cls-2" d="M782.25,337.87a30.34,30.34,0,0,1-6.63,7.66,107.51,107.51,0,0,1-12.07,4.93c-7.32,2.51-14.11.8-20.91-1.72a5.25,5.25,0,0,1-3.79-5.41c0-7.17,1-14.25,1.42-21.38.28-4.36.44-8.74.34-13.1-.09-3.68,1.47-5.94,5-6.5,7.49-1.2,15.06-1.93,22.55-.34,11.69,2.5,18.59,13.74,16.79,26.74A35.81,35.81,0,0,1,782.25,337.87Zm-27.16-1.77c3.34-1.58,6.25-2.8,9-4.31,2.27-1.25,3.41-3.23,2.65-6a10.5,10.5,0,0,0-8.67-7.62c-2.24-.35-3.11.09-3,2.55C755.21,325.61,755.09,330.49,755.09,336.1Z"/><path class="cls-2" d="M850.26,311.5c6.25-.05,7.48,1.63,7.13,7.44-.92,15.55-5,30.58-7.13,45.93-.38,2.78-1.68,4-4.65,3-2.61-.93-5.29-1.71-8-2.38s-3.55-2.5-3-5.09c3.49-15.23,7.05-30.45,10.45-45.7C845.86,311.28,848.48,312,850.26,311.5Z"/><path class="cls-2" d="M735.91,439.33h-.25l-7-4.29-.28-.2c-1.11-1.59-2.91-2.71-3.29-4.8l.63-.66,2.2,1.11a.42.42,0,0,0,.42.32c9.33,8,18.89,7.8,27.07-.58a20.38,20.38,0,0,0,5.09-8.84c.44-1.59,1.07-3.3,3.17-2.58,1.92.65,1.78,2.45,1.37,4s-1,3-1.54,4.5h0c-.33.49-.66,1-1,1.46h0c-.42.6-.84,1.19-1.27,1.78l0,0-8.67,7-2.33,1A29.8,29.8,0,0,1,735.91,439.33Z"/><path class="cls-2" d="M723.08,406.45c0-2.37.73-4.78,3.15-4.61,2.83.2,3.12,3,3.27,5.49s-.88,5-2.89,4.84C724,412,723.38,408.93,723.08,406.45Z"/><path class="cls-2" d="M753.23,406.08c-1.41,1.16-3,2.05-4.33.18a5.39,5.39,0,0,1,.11-6.88c1.39-1.79,3-1,4.27.39.15.53.29,1.06.44,1.6s.14,1,.22,1.52Z"/><path class="cls-2" d="M975.72,261l-.73-.84L970.23,253c-2.6-6.92-6.7-13.32-7.19-21,1.91-.61,2.89.31,3.64,2,.9,2,2,3.95,3,5.91,2.52,6.32,5.07,12.6,9.47,17.95,6.5,7.9,15.21,9.57,24.64,8.52,5.09-.56,10.06-2.11,15.1-3.19,2.05-.45,4.1-1.1,6.25-.61,2.27,2.61.81,4.31-1.66,5-12.79,3.78-25.63,7.25-38.68.94l-2-1.16Z"/><path class="cls-2" d="M1033.45,232.45c-1.81,1.35-3.81,3.1-6,1.4s-1.29-4.32-.48-6.57a11.88,11.88,0,0,1,4-5.74c1-.79,2.15-1.61,3.59-.93,1.61.76,1.65,2.24,1.66,3.71,0,3-1.63,5.5-2.81,8.12Z"/><path class="cls-2" d="M990.34,212.43c-.48.56-1,1.12-1.46,1.67-4.13,1.33-5.69.24-5.61-4a12.38,12.38,0,0,1,3.87-8.84c1.18-1.15,2.69-1.86,4.33-1.12s1.58,2.27,1.65,3.75C993.27,207.09,991.52,209.67,990.34,212.43Z"/></g></g></svg>