<svg xmlns="http://www.w3.org/2000/svg" viewBox="0 0 1778 600"><defs><style>.cls-1{fill:#f4f3f1;}.cls-2{fill:#141d4b;}</style></defs><g id="Capa_2" data-name="Capa 2"><g id="Capa_1-2" data-name="Capa 1"><rect class="cls-1" width="1778" height="600" rx="17.09"/><path class="cls-2" d="M1079.15,242.05c-.2,1.2-.39,2.4-.59,3.6-6.21,10.52-10.34,21.53-9.28,34.12.65,7.74,2.47,9.86,10.23,9.76-.06,1.13-.13,2.27-.2,3.4-13.74,14.67-29,27.26-48.22,34.06-12.4,4.38-23.84,2.39-33.68-6.57-12.64-11.5-17.81-26.5-19.15-43-2-23.91,6.69-44,23.08-61.05l-.36-.29.32.33c11.15-9.31,23.69-15.48,38.31-17l11.18-.44c4.11,1,8.39,1.65,12.28,3.22,6.31,2.54,9.82,7.53,9.14,14.46-1.4,14.2-7.86,25.65-20.24,33-8.49,5.05-13.06,1.93-13.28-8.18a93.33,93.33,0,0,0-.87-14.11c-1.08-6.16-3-12.61-10.5-13.37-7.28-.72-11.89,3.55-14.36,10.23l-.94,3c-4.92,14.66-4,29.51-1.41,44.41l.36,2.73.72,4.52.84,4a69.87,69.87,0,0,0,7.79,23.29l0,.05a60.6,60.6,0,0,0,3.51,6.14c2.41,3.3,5.21,6.53,9.8,6,4.8-.56,7.3-4.17,8.75-8.37a33,33,0,0,0,.29-21.56c-.32-1.37-.63-2.74-1-4.11-1-3.62-2.43-6.94-6-8.8a6.36,6.36,0,0,1-.26-4.79c8.94-4.6,18.12-8.78,26.13-15C1067.45,251.26,1073.29,246.64,1079.15,242.05Z"/><path class="cls-2" d="M807.05,384.48a19.27,19.27,0,0,0-8.51-.45c-9.6-3.66-19.77-2-29.63-3.16l.09.08c0-2.24-.48-4.59,1.23-6.51l0,0a1.33,1.33,0,0,0,1-1.7,2.16,2.16,0,0,0,.32-1.26c2.14-1.28,2.47-3.64,2.39-5.58-.44-10.91-1.9-21.7-6.9-31.58-2.33-4.6-6.53-5.94-11.49-4.27-1.58.53-3.33,1.2-3.17,3.28,1.06,14.15-1.73,28.91,6.33,42,2.57,4.18.69,5.91-3.22,6.7-4.14.85-8.33,1.52-12.5,2.26-1.55,0-3.11-.12-4.38,1a6.93,6.93,0,0,0-4.66,1l-.22,0A70.33,70.33,0,0,0,717,391.69c-4.71-.9-2.07-3.49-.81-5,6.92-8.11,8.24-17.63,8.16-27.85-.14-19.38.17-38.77.31-58.16,0-5.22.47-10.54-5.93-12.91-1.92-.71-1.41-2.71-1.22-4.34l9.95-7.19L733,273a129.06,129.06,0,0,1,34.29-11.2l5.53-.08a14.27,14.27,0,0,0,2,.8c15.06,3.79,25.07,15.69,26.26,31.27,1,13.22-6.52,24.41-20.64,30.65-1,.45-2.27.58-2.69,2.08,6.69,6.13,10,14.63,14.86,22.08l.72,1.79c4.4,9.64,9.66,18.72,17,26.45,1.68,1.76,3.64,3.59,2.52,6.1C811.71,385.31,808.86,383.49,807.05,384.48Zm-54.66-62c2.88.2,4.27-1.23,5.78-2.25,14.49-9.84,19-31.18,9-43.08-2.3-2.74-5.16-6.11-8.71-5.25-3.35.81-3.32,5.27-3.87,8.38C752.12,294.09,752.58,308.08,752.39,322.45Z"/><path class="cls-2" d="M902.76,193.73,918,194c14.48,2,25.78,9.84,35.87,19.83a.78.78,0,0,0,.67.79l7.76,10,0-.07q1.34,2.26,2.69,4.53l-.05,0q2.65,5.69,5.33,11.36l1.71,4.19c.6,2.51,1.22,5,1.8,7.55,4.06,17.57,3.75,34.6-6.29,50.42l-.9,1.35c-11.71,12.27-25.85,14.25-40.22,6.8-31.51-16.34-51.42-42.08-57.31-77.45-2.7-16.23,6.67-30.59,22.17-36.38C894.94,195.56,898.9,194.78,902.76,193.73ZM901.26,250c.69,13.34,3.8,29.14,13,43.11,3.15,4.77,7,9.57,13.49,9,6.9-.65,10-6.3,11.65-12,7.6-26.32,5.27-51.93-7-76.47-2.57-5.16-6.3-9.95-12.91-9.62-6.84.33-10.07,5.62-12.62,11.1C902.23,225.17,901.11,236,901.26,250Z"/><path class="cls-2" d="M832.37,172.82c7.22,3.11,14.67,5.52,21.13,10.42,8.65,6.56,13.94,20.86,10.78,31.48-2.45,8.23-7.43,10.81-21.49,10.43,9.26,10.5,13.66,23.07,21,33.93l0-.06c3.28,7.43,8.28,13.73,13.13,20.14,1.35,1.79,4.33,4.51-1.15,4.94l0,0a132.56,132.56,0,0,0-20.26-10.89.78.78,0,0,0-1-.43,11.92,11.92,0,0,0-6-2.93l.05,0c-3.55-1.8-7.12-3.58-10.64-5.42-2.93-1.52-5-3.22-1.18-6.13a6.91,6.91,0,0,0,2.79-6.88c-1.38-8.35-2.89-16.73-7.1-24.2A15.72,15.72,0,0,0,820.78,219c-1.44-.21-3.6-1-3.66,1.7-.13,6.92.32,13.76,3.71,20l.13.1c-2.19,5.75,1.11,9.75,4.39,13.75l.78,2.76c-.87,1.59-2.27,1.52-3.68,1-12.54-4.24-25.22-7.81-38.56-8.29-1.24,0-2.51-.37-2.95-1.56-.62-1.67.75-2.64,1.9-3.39,6.35-4.19,7.34-10.42,7.23-17.39-.17-11.35.1-22.71.1-34.06,0-9.11,2.82-19.21-10.55-24.37,9.14-2.16,16.18,0,23.16-.57l8.37.76,5.89.74,8.33,1.32,1.65.15Zm-14.37,25a25.68,25.68,0,0,0,0,4.53c.57,3.5-2.27,8.45,1.73,10.26,4.44,2,9.05-.94,13.1-3.32,2.36-1.39,3.2-4,4-6.41,2.69-8.2-3.08-20.32-10.93-24.38-3.39-1.75-4.53-.53-5.72,2.4C818,186.28,818.85,191.94,818,197.85Z"/><path class="cls-2" d="M824.38,290.08c1-8.39-5-13.8-8.87-20,1.91-2.51,3.66-.87,5.22-.33,20.41,7.17,39.42,17.28,58,28.17,6.14,3.59,11.64,8.23,15.29,14.53,3,5.16,4.52,10.5-.2,15.65l-5.47.24c-5-2.44-8.94-6.17-12.8-10l-1-1.39c-3.28-6.24-6.33-12.61-9.93-18.66-1.9-3.18-5-7.28-8.48-6.42-2.9.7-1.49,5.8-1.95,8.95a35.23,35.23,0,0,0-.05,4.93c-.16,2.81-.33,5.62-.49,8.43-1.1,4.75-.92,9.56-.66,14.37,0,.95,0,1.89,0,2.84-1.19,4.72,2.63,4.64,5.36,5.6a5.35,5.35,0,0,0,4.28,1.55c3.87,2.07,6.15-.36,8.44-2.93,1.2-1.34,2.2-3.51,4.51-2.48,2,.89,2.07,3,2.07,4.93,0,7.34,0,14.68-.07,22,0,1.46.78,3.73-1.53,4.06-1.94.27-2.59-1.77-3.33-3.2-1.07-2.11-2-4.26-3-6.43-3.22-7.26-9.16-11-17-13.27-.09,15.43,1,30.25,2.15,45.06.21,2.56,1.29,3.8,3.6,4.47,5,1.45,9.92,3,14.88,4.5l.66.25.69-.13c6.39,1,11-2.11,14.59-6.84,1.7-2.25,3.55-4.48,6.1-3.69,2.84.88,2.41,4.16,2.42,6.72,0,3.55.2,7.11,0,10.65-.38,6.2-2.57,7-8.67,4.86-22.28-7.76-44.61-15.42-67.85-19.92l-2.76-.46c-4.26-2.54-5-5.07-.17-7.9a7,7,0,0,0,3.31-4.25v0c4.6-7.32,2.58-15.36,2.56-23.18C824.69,330.93,825.39,310.51,824.38,290.08Z"/><path class="cls-2" d="M1025.15,431.7c-7.55,0-15-.33-22.3-2.79-4.55-1.54-8.89.38-13.15,1.74s-6.71.8-6.38-4.61c.35-5.67,0-11.37,0-17.06,0-1.69-1.15-4.22,1.59-4.69,2.09-.36,4,.77,5.44,2.53,5.75,7,12.77,12.54,20.18,17.77,6.34,4.49,12.62,3.83,19.1,1.62a8,8,0,0,0,5.69-7.49c.19-3.74-2.32-5.66-5.17-6.93a148.49,148.49,0,0,0-15.2-5.93c-10.66-3.36-19.26-9.72-26.55-17.9-5.59-6.26-8.27-21,.65-31.64l0,0c8.22-7.63,18.88-9.86,29.08-13.12l2.69-.48c1.57.12,3.13.21,4.42-1l2.71-.53c7.24-.85,14.3-3.23,21.68-2.78,10.07.61,14.36,7.56,9.71,16.24-3.66,6.84-8.9,12-16.81,14.44-6.47,2-10.91.76-14.16-5.05l-.56-2.7c.08-1.18.18-2.36.23-3.54.17-4.65-.65-8.86-6.38-9.13-5.53-.26-8.58,3-9.39,8.26-1.16,7.42,3,12.11,8.78,15.62,8.7,5.25,18.64,6.63,28.32,8.82,14,3.16,18.07,10.94,12.45,24-5.69,13.27-16.28,21.09-29.71,25.46l-2.74.43-1.4.15Z"/><path class="cls-2" d="M762.87,170.41l2.72.35c18.28,6.24,22.29,13.52,15.45,28l-2.52,2.9c-11.27,10.38-26.42,12.51-39.7,18.62-1.11.51-3-.28-2.94,2,.35,9.08-.88,18.38,3.89,26.81v0c5,4.37,4.72,7.7-1.89,9.85-.4.12-.68.58-1,.89l.27.33-.24-.35c-14.85,6.44-26.15,17.63-38.39,28l6.39-14.53-.07.07.83-1.83c.27-.88.55-1.77.83-2.65,3.32-22.63,1.58-45.4,1.87-68.11,0-2.77-2.05-4.65-4.73-5.69-1.38-.54-3.81.17-3.73-2.32,0-1.86,1.84-2.64,3.28-3.43C721.81,179.11,741.2,171.18,762.87,170.41ZM736,216.53a41.61,41.61,0,0,0,16.17-14.31c2.71-4,4.53-8.41,3.54-13.33-1.23-6.1-5.46-9.31-11.39-9.94-6.21-.65-5.5,5-6.31,8.37C735.82,196.54,735.79,206,736,216.53Z"/><path class="cls-2" d="M901.38,331.92c4.85-8,9.68-10.75,18.91-8.43,19.59,4.92,37.19,13.85,51.5,28.45A24.72,24.72,0,0,1,978,362.23c2.25,7.66-1.39,12.16-9.28,11.58a24.91,24.91,0,0,1-23.1-24.47c0-5.61-1.44-10.26-6.14-13.59-2.24-1.6-4.8-2.49-7.34-1.2-2.79,1.4-2.7,4.27-2.41,6.9.59,5.35,3.26,9.84,6.29,14.12,7.87,11.13,18.14,20,27.82,29.44,5.27,5.13,10.83,10,14.64,16.41,5.47,9.21,2.42,17.35-7.72,21.29-16.75,6.5-31.68.87-45.82-7.42-6.2-3.63-11.72-6.63-19.08-4.21-3.87,1.26-5.58-1-5.59-4.92,0-8.77-.22-17.54-.34-26.3a5.49,5.49,0,0,0-.3-4.28,8,8,0,0,1,.27-1.36c4.87-.81,5.82,3.26,7.48,6.2,6.46,11.38,13.38,22.4,23.27,31.2,3.57,3.18,7.37,6,12.07,7.31,3.42,1,6.69,1.17,9-2.09s.26-6.17-1.46-8.43a91.1,91.1,0,0,0-10.14-10.84c-10.19-9.6-20.68-18.88-28.95-30.33C903.45,356.65,899.14,345.2,901.38,331.92Z"/></g></g></svg>