<svg xmlns="http://www.w3.org/2000/svg" viewBox="0 0 1209 582.11"><defs><style>.cls-1{fill:#463f3a;}.cls-2{fill:none;}</style></defs><g id="Capa_2" data-name="Capa 2"><g id="Capa_1-2" data-name="Capa 1"><path class="cls-1" d="M480.32,325.77a5.26,5.26,0,0,0-3.64-1.35c-8.51-5-13.59-12.62-16-23.78-2.81,11.74-7,20.31-17.28,24.17-9.8,3.68-19.17,3.37-28-4.62,0,5.9.08,10.77,0,15.64-.24,12.81,1.9,10.46-10.95,11.13-5.33.28-6.4-1.84-6.34-6.69.23-19.12,0-38.25.16-57.38.05-5.39-2.42-12.07,1.26-15.85,3.24-3.32,9.73-.57,14.74-1.23,2.07,1.35.47,3.93,2,5.75,7.82-6.89,17-8.2,26.65-5.34s15.32,10.09,17.8,20.48c3.26-7.81,7.59-14.22,14.72-18.27A42.94,42.94,0,0,1,500,266.19c16.69,3.14,26,20.19,21.47,38.54-2.94,11.82-10.31,18.91-22.36,21.54C492.69,327.67,486.57,326.4,480.32,325.77Zm-37.25-29.64c-.56-3.2-.71-6.87-2.09-10.35-2.19-5.56-6.28-8.63-12.12-8.59-6.08,0-10.46,3.08-12.21,9.18a33.44,33.44,0,0,0,.08,19.88c1.81,5.55,5.86,8.63,11.95,8.65C437.35,314.93,443,307.8,443.07,296.13Zm61.57.54a22.76,22.76,0,0,0-1.5-10.82c-1.95-4.68-5-8.55-10.71-8.63s-9.87,2.43-11.86,7.85a31.8,31.8,0,0,0-.05,22.13c1.76,4.85,5.66,7.76,11.35,7.67s9.09-3.24,11.16-8A21.85,21.85,0,0,0,504.64,296.67Z"/><path class="cls-1" d="M805.37,374.36l2.48,3.06c1.06,2.2,2.19,4.36,3.15,6.6.81,1.87,1,4.29-1.74,3.9-5.79-.84-13.23,3.95-17-4.87-1.17-2.76-4.34-2.74-7.06-2.17a4.75,4.75,0,0,0-3.83,4.25c-.45,2.85,1.2,4.62,3.42,5.94,1.56.91,3.08,2.06,5.07,1.81l2.33.62,11,3.68,3.77,2.16c5.18,5.78,8.2,12.21,4.94,20-3.19,7.57-9.85,10.53-17.38,11.53-9.94,1.32-19.42-.08-27.71-6.35l-1-.95c-1.1-1.71-2.2-3.42-3.66-5.71-3.51,8.61-10.42,11.13-17.63,13.22l-4.93.36c-2.44-.14-4.9-.12-7.31-.45-8.89-1.24-16.27-4.58-20.45-13.38-2.34-4.92-1-6.17,3.88-6.06,5.74.13,11.61-1.23,15.28,5.55,1.92,3.54,6.07,3.71,9.88,2.39,2.32-.8,3.87-2.34,3.79-4.95-.14-4.38-3.63-5.57-6.88-6.75-5.16-1.87-10.53-3.2-15.56-5.36-6.46-2.77-9.58-8.2-9.3-15.14s3.73-11.85,9.93-15c4.12-2.07,8.58-2.63,13-3.08,10.6-1.09,21.06,5.26,24,14.21.63,2,1.55,4.71-1.69,4.48-5.72-.41-12.66,3.33-16.55-4.66-1.35-2.76-4.61-3.12-7.62-2.07a4.42,4.42,0,0,0-3.18,4.05c-.35,3.47,1.64,5.41,4.49,6.46,5,1.82,10,3.29,15,5s9.4,4.7,10.78,10c1.08,4.12,3.16,5.05,6.91,4.91,5.13-.19,10.18-1.07,13.4,5.32,1.87,3.72,6.81,4.06,11,2.41,2.31-.91,3.66-2.65,3.29-5.25-.64-4.43-4.34-5.58-7.78-6.81-2.48-.89-5.16-1.22-7.65-2.07a45.89,45.89,0,0,1-8.44-3.46c-11.27-6.59-11.16-22.17.33-28.41C783.34,367.3,794.5,368.31,805.37,374.36Z"/><path class="cls-1" d="M704.57,191c0-8.15.12-16.3-.06-24.45-.09-4,1.14-5.78,5.54-5.85,12.35-.2,12.37-.38,12.43,12,0,8.35,0,16.7-.08,25.05,0,3.59-.41,6.33,5.05,4.77,3.76-1.08,8.09-.08,12.16-.25,2.49-.11,3.59,1.33,4.71,3.14a9.4,9.4,0,0,0,9.85,4.68c2.29-.29,4.58-.59,5.15-3.38s-.19-5.49-3.06-6.58c-4.55-1.73-9.25-3.1-13.9-4.57-12.38-3.92-17.4-13.44-13.1-24.35,1.48-3.77,4.6-5.65,7.53-7.73,12.2-8.65,33.63-2.85,38.25,10.08,1.46,4.1.59,5.69-3.82,5.38-2.83-.2-5.7-.1-8.55,0-2.23.06-3.79-.5-4.76-2.84-1.51-3.62-4.39-5.31-8.35-4.37-2.16.51-3.77,2.05-3.72,4.3.09,4.13,3.08,5.88,6.56,7.07,5.76,2,11.83,3,17.16,6.24,10.72,6.41,11.33,22.3.57,28.4-11.66,6.61-23.84,5.88-35.65-.13-3.33-1.69-5.42-4.85-7-8.27-.69-1.51-1.68-3.15-3.54-2.7-1.62.39-1.41,2.18-1.51,3.63-.63,10.18-.66,9.88-11.21,10.21-5.4.17-7.16-1.46-6.83-6.89.46-7.51.12-15.07.12-22.6Z"/><path class="cls-1" d="M561.46,311.1l-.48,2.5c-1.59,3.5-1.65,7.33-2.4,11h0l-9.78.76-3.64.05-6.17-.36L535.44,316c-3.75-12.46-7.3-25-11.3-37.37-4.92-15.21-5.35-12.26,9.59-12.74,4.37-.14,5.94,1.66,6.7,5.85,2.18,12,4.85,23.83,7.45,36.31,1.71-1.82,1.79-3.45,2.09-5,1.94-10.19,4.24-20.32,5.76-30.57.72-4.87,3-5.89,7.31-5.85,3.81,0,7.72.86,11.46-.65l2.31.2c3.24,8.19,3.21,17.18,6.14,25.46.22,1.2.43,2.39.64,3.59l2.13,13.16c3.18-7.85,4.51-16,5.66-24.17.09-.8.17-1.6.26-2.41,1.73-2.86,2-6.18,2.4-9.33.63-4.86,2.54-7.29,7.87-6.59,3.81.49,7.72.17,11.58.21l0,0c-.5,2.15-.85,4.36-1.51,6.46q-8.13,26.14-16.35,52.24l-.17.22-3.8.6c-2.83-1-5.69-.7-8.54-.14l-7.39-.7-.06-.08c-1.39-7.4-2.31-14.9-4.77-22.07-.47-2.44-1-4.87-1.42-7.31a11.88,11.88,0,0,0-3.24-9Z"/><path class="cls-1" d="M579.37,348.53c3.58,0,4.66,1.8,4.74,5.38.26,10.54-1,21.12.73,31.62,0,0,0,.36,0,.36-1.18,2.07-.79,4.34-.8,6.54,0,10.52,0,21.05,0,31.57,0,1.77.41,3.77-1.35,5-4.31,3.13-15.08-.35-17.09-5.83-2.33,2.34-4.17,5.05-7.1,6.45l-3.66,1.14c-6.3.36-12.55.83-18.64-1.75C524.34,424,520,409.49,520.86,399a40,40,0,0,1,8.87-22.35l-.1-.27c11.64-7.75,23.49-10.41,36.12-1.33,2-5.9,1.34-12,1-18-.38-6.13,1.34-9.21,7.8-8.54Zm-13,52.05a70.18,70.18,0,0,0-.83-7.83c-1.49-7-5.84-11.16-11.59-11.39-6.27-.25-11.48,3.3-13.65,10a26.59,26.59,0,0,0,1.8,21.76c2.59,4.75,6.76,6.2,11.74,5.85,4.77-.33,8.55-2.39,10.52-7A29.38,29.38,0,0,0,566.41,400.58Z"/><path class="cls-1" d="M486.7,150.85c0,1.2,0,2.41,0,3.62v14.39c10-11.31,21-10,32.47-5.19a.89.89,0,0,0,.5.6c4.71,5,6.4,11,6.23,17.83-.23,9.14,0,18.28,0,27.41.07,11.21.1,11-11.43,10.87-4-.06-5.22-1.44-5.25-5.36-.1-10.76.63-21.54-.56-32.29-.83-7.42-3.67-10.62-9.86-10.73-5.79-.1-9.58,3.77-10.65,10.88a1.79,1.79,0,0,0,.14,1.07c-1.79,1.71-1.89,3.83-1.49,6.08l-.07,19.51,0,6.18c-.16,1.47-.33,2.95-.49,4.43-3.46,0-7-.24-10.38.2-5.61.73-6.8-1.64-6.74-6.89.27-21.6,0-43.22.12-64.83.05-11.12-1.68-9.76,10.08-10.21,5.41-.21,8.1,1.07,7.21,7A28.14,28.14,0,0,0,486.7,150.85Z"/><path class="cls-1" d="M392.08,349.17v45.55c7.58-6.18,12.6-12.81,17.69-19.19,3.51-4.41,7.15-6,12.45-5.5,3.54.33,7.13.06,10.71.06l.64,1.48c-4.4,4.63-8.79,9.28-13.22,13.88-11.16,11.6-11.22,11.63-1.36,24.19,4.86,6.2,9.93,12.24,16.19,19.94-7.54,0-13.46,0-19.38,0-1.78,0-2.88-1.31-3.89-2.64-3.81-5-7.59-10.07-11.51-15-1.27-1.58-1.93-4.76-4.85-3.55-2.6,1.08-3.6,3.52-3.54,6.52.1,4.87.55,9.76-.46,14.6a.82.82,0,0,0-.66.24c-2.64,0-5.28-.07-7.92-.07-8.09,0-8.1,0-8.1-7.79q0-28.35,0-56.7c0-17.2-.06-17.2,17.25-16Z"/><path class="cls-1" d="M770.19,272.41c8.5-8.58,17.47-9,26.9-5.79s11.67,11.38,12,20.05c.38,11.19,0,22.41.15,33.61,0,3.79-.91,5.61-5.12,5.39-13.67-.72-12.7,3.35-12.67-12.45,0-7.54.07-15.08-.14-22.61-.11-3.62-.14-7.47-3-10.29-5.16-5.11-13.53-3.16-16.48,4-2.62,6.33-2.79,13.09-2.65,19.84.12,5.69.14,11.38.41,17.06.14,3.14-1.06,4.55-4.21,4.44-16.29-.57-13.84,2.8-14-13-.14-13.44.1-26.89-.14-40.33-.08-4.48,1.32-6.48,5.9-6a33.54,33.54,0,0,0,5.49,0C766.55,266,770.09,266.36,770.19,272.41Z"/><path class="cls-1" d="M660.47,424.56c-7.68-9.89-10.57-20.83-7.51-33.19,3.83-15.49,18.06-24.17,35.32-21.44,13.59,2.15,23,15,22.19,30-.18,3.48-1.48,4.56-4.79,4.52-10.18-.12-20.37.12-30.54-.11-4.92-.11-6.18,1.81-4.88,6.26,1.24,4.25,3.74,7.3,8.12,8.22,4.87,1,9.28.23,12.44-4.26,2.47-3.52,13-5.89,16.79-4,2.25,1.15,1,2.71.54,4.15-2,6.19-6.9,9.88-11.75,13.61-11.63,5-22.9,4.39-33.79-2.17l-2.2-1.48Zm20.62-31.1a23.63,23.63,0,0,0,3.67,0c2.4-.39,6.13,1.53,6.87-1.86s-1.39-6.66-4.73-8.54a11.15,11.15,0,0,0-10-.6c-3.86,1.63-6.55,5.25-6,9.14s4.71,1.23,7.19,1.86A12.33,12.33,0,0,0,681.09,393.46Z"/><path class="cls-1" d="M591.37,381c1-3.06-1.43-7.63,1.46-9.14,4.06-2.11,9.15-1,13.75-.47,3.77.4,1.14,4.69,3.81,6.84,4.52-9.05,12.76-9.08,21.13-8.37,9.89.83,15.16,6.41,16.61,16.25,1.67,11.33.14,22.71,1.1,34,0,1.63,0,3.26,0,4.89,0,3.44-1.46,5.06-5.15,4.81-4-.27-8-.05-12.05-.05-1.93-4.91-.76-10-.91-15-.23-7.71,0-15.44-.21-23.15-.15-5.24-2.62-8.94-8.17-9.74-5.35-.78-10,2.28-11.59,7.63-2.95,9.74-1.62,19.76-1.77,29.67-.16,10.6,0,10.61-10.67,10.65-2.24,0-4.47-.09-6.7-.15l-.66-43.82Z"/><path class="cls-1" d="M665.36,277.31c.46,1.11.91,2.22,1.37,3.34l.74,1.19,0,0c.6,3.39,1.3,6.77,1.79,10.18,1.06,7.42.32,8.28-6.91,8.29-9.76,0-19.52-.05-29.28,0-1.84,0-4.23-.67-4.6,2.52-.61,5.32,4.1,11,9.79,11.55l1.46-.27,1.73-.06,2.75.21a5,5,0,0,0,4.92-2.93c2.06-5.47,6.42-5.29,10.93-5.1l8.47.36c-4.15,18.12-21.78,23.15-37.85,19.43-1.56-.36-3.06-1-4.59-1.49-7.81-4.32-12.19-11.25-14.84-19.51l-.48-3.6c.1-2.24.22-4.47.28-6.71.45-16.31,10.76-27.19,27-29.26,8.28-1.06,15.12,1.91,21.94,5.69a3.59,3.59,0,0,0,2.34,2.23A6.44,6.44,0,0,0,665.36,277.31ZM639.45,289.4v0c2.43,0,4.87-.13,7.29,0,4,.26,5.11-1.24,3.63-5s-3.92-6.6-8.22-7.2a10.47,10.47,0,0,0-10.6,4.47c-1.44,2-3,4.43-1.93,6.7.94,2,3.66.78,5.58,1A37.63,37.63,0,0,0,639.45,289.4Z"/><path class="cls-1" d="M556.2,222.07l-3.74-.24a15.18,15.18,0,0,0-2.15-1c-13.95-4.13-21.21-14.5-20.91-29.89.29-14.92,8.38-26.27,21.75-29.63a33.07,33.07,0,0,1,26.93,4.35v0a33.81,33.81,0,0,1,10.08,23.46c.17,4.47-1.11,6.19-5.79,6.06-10-.27-20-.08-29.94,0-2.33,0-5.36-.56-4.95,3.42.47,4.75,2.38,8.94,7.08,10.55S565,211,567.38,206.5c3.81-7.16,9.72-5,15.23-5.41,4-.3,4.44,1.49,3.15,4.84-2.67,6.95-8.33,10.81-14.3,14.41l-1.86.37Zm2.21-37.34a21.28,21.28,0,0,0,3.66,0c2.55-.45,6.44,1.69,7.33-2.08s-1.16-7-4.66-9.16A10.62,10.62,0,0,0,550.58,176c-1.54,2.12-3.56,4.65-2.47,7.21s4.35,1.18,6.64,1.48A27.93,27.93,0,0,0,558.41,184.73Z"/><path class="cls-1" d="M654.07,222.08l-2.47-.16a16.49,16.49,0,0,0-2.28-.84c-13.61-2.93-20.15-12-21.78-25.2C626,183.2,629.81,172.46,640.45,165c11.2-7.84,25.68-6,39.18,4.29l0,0c3.23,5.7,5.73,11.6,6.33,18.28.47,5.27-.7,7.89-6.8,7.61-9.77-.45-19.57-.16-29.36,0-2,0-5.16-.88-4.79,2.83.48,4.82,2,9.49,7.08,11.25s10.09,1.22,13.81-3.45c3.11-3.89,11.9-6.23,16.7-4.64,2.47.82,1.82,2.32,1.13,3.83-1.78,3.9-3.76,7.56-7.24,10.4C669.86,220.75,662.09,221.7,654.07,222.08Zm2.58-37.33v0a19.39,19.39,0,0,0,3.05,0c2.58-.45,6.51,1.67,7.43-1.93s-1.29-7.07-4.64-9.2a10.65,10.65,0,0,0-13.84,1.91c-1.95,2.19-3.85,4.87-2.82,7.67s4.28,1.27,6.56,1.56A33.62,33.62,0,0,0,656.65,184.75Z"/><path class="cls-1" d="M518.63,422.92c-1.39,2.06.3,6.05-3.26,6.51-4.38.57-9,1-13.26-.37-2-.66-1.3-3.16-1.31-4.92,0-8.73.05-17.45-.08-26.18a61.64,61.64,0,0,0-1-9.67c-.73-4.11-3.79-6.26-7.56-7-4-.73-7.77-.14-9.78,4.16l.08.13c-2.48,1.61-2.86,4.3-3.48,6.84-1.93,7.8-1,15.75-1.11,23.64-.13,12.65,0,12.65-12.6,13.76a4.85,4.85,0,0,0-1.15.38l-1.21-.18c-2.7-.79-2.29-3-2.29-5,0-16.08.16-32.17-.08-48.26-.06-4.64,1.57-6.33,6-5.79a18.48,18.48,0,0,0,4.27,0c4.73-.53,8.17.38,6.82,8.28,6.52-8.89,14.11-10.38,22.6-9.54,10.34,1,16.27,6.88,16.89,17.36.67,11.35,1.09,22.72,1.63,34.08Z"/><path class="cls-1" d="M435.91,156.93c0-1.62,0-3.23,0-4.84,1.89-9.4,9.19-3.62,13.87-4.59,4.89-1,3.94,3.74,3.66,6.42-.68,6.24,1.3,9.2,7.94,8.11,3.57-.59,4.35,1.5,4.54,4.71.26,4.66-1.1,7-6.14,6.29-4-.58-6.56.24-6.3,5.37.39,7.93.11,15.89.12,23.84,0,4.79,2,7.81,7.15,8,2.11.08,4.31-.06,3.88,3.07-.38,2.77,1.58,6.26-2.52,7.93-13.43,5.44-25.54-2.46-25.74-16.9q-.18-13.14-.07-26.29c0-3-.3-5.47-4.15-5-4.05.51-4.79-2-4.92-5.12l.54-5.84C430.81,160.9,437.17,164.91,435.91,156.93Z"/><path class="cls-1" d="M629.56,161.86a26.44,26.44,0,0,0-.18,4.25c.66,5.56-.63,8.36-7.32,8.35-6.95,0-11.4,6-11.91,14.56-.48,8.11-.55,16.27-.26,24.39.16,4.69-1.31,6.87-6.06,6.65a18.52,18.52,0,0,0-3.64.25c-5.58.83-7.88-.93-7.7-7.14.51-17.47.35-35,.45-52.45h0c2.62,0,5.25.08,7.87.08,8.64,0,8.64,0,9.2,8.52,0,.26.41.5.64.76,6.53-9.25,9.27-10.59,18.79-9.17A1.63,1.63,0,0,0,629.56,161.86Z"/><path class="cls-1" d="M710.58,278.13l-1.47,1.25c-12-.39-17.37,4.32-18.11,16.16-.28,4.46-.13,8.95-.16,13.43-.12,16.74-.12,16.74-17.11,15.71-.15-.83-.29-1.66-.43-2.49l-.06-9.83,0-2.47a1.25,1.25,0,0,0,0-1.13c0-1.26,0-2.53,0-3.79.09-11.17.16-22.33.29-33.5,0-1.76-.65-4.43,1.29-4.94a27.22,27.22,0,0,1,14.44,0c2.86.84,1,4.72,1.6,7.18l.47,2.1c1.62-2.29,2.74-4.2,4.17-5.83,3.38-3.84,8-5.49,12.66-4.1,4.08,1.21,1.53,5.63,2.13,8.57A24.46,24.46,0,0,1,710.58,278.13Z"/><path class="cls-1" d="M744.37,295.59c0,8.33-.13,16.66.06,25,.08,3.7-1.25,4.87-4.95,4.95-12.89.25-12.9.39-12.92-12.67,0-13.82.1-27.64-.1-41.45-.07-4.21,1.23-5.7,5.56-5.59,15.22.37,12.06-1.45,12.37,12.09.14,5.89,0,11.79,0,17.68Z"/><path class="cls-1" d="M745.12,252.77c-.11,5-4.75,8.93-10.39,8.68a9.5,9.5,0,0,1-8.84-9.76c.27-5.37,3.93-8.5,9.81-8.39S745.25,247,745.12,252.77Z"/><path class="cls-1" d="M833.5,426.11a34.72,34.72,0,0,1-4.19,3.52,9.52,9.52,0,0,1-11.89-1.06c-3.48-3-4.08-7.24-2.56-11.21s5-6.22,9.7-5.92c4.92.31,7.94,2.79,9.16,7.48a25.68,25.68,0,0,1,.45,3.64C833.94,423.74,833.72,424.92,833.5,426.11Z"/><path class="cls-1" d="M713.7,138.51c5.91.05,9.3,3.22,9.4,8.79.09,5.16-3.8,8.83-9.43,8.88-5.47.06-9.43-3.72-9.37-8.94C704.36,141.81,708,138.46,713.7,138.51Z"/><path class="cls-1" d="M453.27,352.79c.21,8.51-1.3,11.16-6.93,12.13s-10.1-1.91-11-7,2.45-9.22,8.2-10c1.2-.16,2.44-.1,3.65-.14,1.08.4,2.15,1,3.34.39l.13.13Z"/><path class="cls-1" d="M453.93,427.52c-4.73,3.64-10.18,1.82-15.34,1.94-2.61.06-2.62-2.09-2.62-3.95,0-17.1,0-34.2,0-51.29,0-2.74.93-3.87,3.85-4.14C452.87,368.86,453,369,453.2,382c.26,14.83-.72,29.68.54,44.5A1.31,1.31,0,0,0,453.93,427.52Z"/><rect class="cls-2" width="1209" height="582.11"/></g></g></svg>