<svg xmlns="http://www.w3.org/2000/svg" viewBox="0 0 1209 582.11"><defs><style>.cls-1{fill:#463f3a;}.cls-2{fill:none;}</style></defs><g id="Capa_2" data-name="Capa 2"><g id="Capa_1-2" data-name="Capa 1"><path class="cls-1" d="M833.18,220c-.24,1.47-.47,2.94-.71,4.41-7.47,12.9-12.43,26.39-11.16,41.83.78,9.49,3,12.09,12.31,12-.08,1.4-.17,2.79-.25,4.18-16.52,18-34.85,33.41-58,41.75-14.91,5.38-28.67,2.93-40.51-8-15.2-14.1-21.41-32.5-23-52.72-2.34-29.32,8.06-53.92,27.76-74.84l-.43-.36.39.41c13.4-11.42,28.48-19,46.06-20.82l13.46-.54c4.93,1.27,10.08,2,14.76,3.94,7.59,3.11,11.81,9.24,11,17.74-1.68,17.4-9.45,31.44-24.34,40.47-10.2,6.18-15.7,2.36-16-10-.12-5.77-.07-11.64-1-17.29-1.3-7.55-3.55-15.46-12.64-16.39-8.74-.89-14.3,4.35-17.26,12.53l-1.14,3.7c-5.91,18-4.81,36.18-1.69,54.44.15,1.12.29,2.23.43,3.35l.87,5.54,1,4.94a86.66,86.66,0,0,0,9.37,28.54l0,.07a74.5,74.5,0,0,0,4.21,7.53c2.91,4,6.27,8,11.79,7.35,5.77-.69,8.79-5.11,10.53-10.26a41.4,41.4,0,0,0,.35-26.44q-.59-2.51-1.15-5c-1.2-4.44-2.92-8.51-7.23-10.79a8,8,0,0,1-.31-5.87c10.75-5.64,21.79-10.77,31.43-18.38C819.11,231.29,826.13,225.63,833.18,220Z"/><path class="cls-1" d="M505.94,394.63a22.55,22.55,0,0,0-10.23-.55c-11.55-4.49-23.77-2.46-35.64-3.88l.11.11c0-2.76-.58-5.63,1.48-8l0,0a1.63,1.63,0,0,0,1.17-2.08,2.78,2.78,0,0,0,.38-1.54c2.58-1.57,3-4.47,2.87-6.85-.53-13.37-2.28-26.6-8.3-38.71-2.8-5.65-7.85-7.29-13.81-5.24-1.91.65-4,1.47-3.82,4,1.29,17.35-2.07,35.45,7.62,51.46,3.09,5.12.83,7.24-3.87,8.22-5,1-10,1.85-15,2.77-1.87-.06-3.75-.16-5.27,1.27-2-.1-3.91-.06-5.61,1.19l-.26,0a82.87,82.87,0,0,0-20.11,6.65c-5.67-1.1-2.49-4.28-1-6.08,8.33-9.94,9.91-21.62,9.82-34.14-.17-23.77.2-47.54.37-71.31,0-6.41.57-12.92-7.13-15.83-2.3-.87-1.69-3.32-1.46-5.32l12-8.81,6.65-4a152.84,152.84,0,0,1,41.23-13.73l6.66-.1a17.57,17.57,0,0,0,2.34,1c18.12,4.65,30.16,19.24,31.59,38.33,1.21,16.22-7.84,29.93-24.83,37.59-1.23.55-2.73.71-3.24,2.54,8.05,7.52,12,17.94,17.88,27.08l.87,2.19c5.28,11.82,11.62,22.95,20.46,32.43,2,2.16,4.37,4.4,3,7.47C511.55,395.65,508.12,393.42,505.94,394.63Zm-65.73-76.05c3.46.24,5.14-1.51,7-2.76C464.59,303.75,470,277.6,458,263c-2.76-3.37-6.19-7.5-10.46-6.44-4,1-4,6.45-4.67,10.28C439.88,283.81,440.44,301,440.21,318.58Z"/><path class="cls-1" d="M621.05,160.76l18.34.37c17.41,2.51,31,12.07,43.14,24.32a.93.93,0,0,0,.8,1l9.34,12.33-.06-.09,3.24,5.55-.06-.06q3.19,7,6.41,13.93,1,2.56,2.06,5.13c.72,3.09,1.47,6.17,2.17,9.26,4.87,21.55,4.5,42.43-7.57,61.82l-1.08,1.65c-14.09,15.05-31.1,17.47-48.37,8.34-37.89-20-61.84-51.59-68.92-94.95-3.25-19.9,8-37.5,26.66-44.6C611.64,163,616.41,162.06,621.05,160.76Zm-1.8,69c.83,16.36,4.56,35.72,15.67,52.85,3.78,5.85,8.38,11.74,16.22,11,8.3-.8,12-7.73,14-14.74,9.15-32.27,6.35-63.66-8.36-93.75-3.1-6.33-7.57-12.2-15.52-11.8-8.23.41-12.11,6.89-15.19,13.61C620.42,199.31,619.06,212.53,619.25,229.78Z"/><path class="cls-1" d="M536.39,135.13c8.68,3.81,17.65,6.77,25.42,12.78,10.4,8,16.76,25.57,13,38.59-2.94,10.09-8.93,13.25-25.84,12.79,11.13,12.87,16.43,28.29,25.27,41.6l-.05-.08c4,9.11,10,16.83,15.79,24.7,1.62,2.18,5.21,5.52-1.39,6.05l.05.05a157.55,157.55,0,0,0-24.37-13.35.92.92,0,0,0-1.19-.52,14.14,14.14,0,0,0-7.19-3.6l.06,0c-4.27-2.21-8.55-4.39-12.8-6.65-3.51-1.87-6-4-1.41-7.52a8.55,8.55,0,0,0,3.36-8.43c-1.67-10.24-3.48-20.51-8.54-29.67-3-5.46-7.7-9.27-14.06-10.2-1.73-.26-4.34-1.27-4.4,2.09-.16,8.48.38,16.87,4.46,24.57l.15.12C520,225.53,524,230.42,528,235.33l.93,3.39c-1,1.95-2.73,1.86-4.42,1.27-15.08-5.19-30.33-9.57-46.38-10.16-1.49-.05-3-.46-3.55-1.92-.74-2,.91-3.23,2.29-4.15,7.63-5.14,8.82-12.78,8.7-21.32-.22-13.92.11-27.84.12-41.77,0-11.16,3.38-23.54-12.7-29.87,11-2.64,19.47-.06,27.87-.7l10.05.93,7.08.91,10,1.62,2,.19Zm-17.28,30.69a32.53,32.53,0,0,0,.06,5.55c.68,4.3-2.73,10.36,2.08,12.58,5.34,2.45,10.88-1.15,15.76-4.07,2.84-1.7,3.85-5,4.79-7.86,3.22-10.05-3.7-24.92-13.15-29.89-4.07-2.14-5.45-.65-6.88,3C519.15,151.64,520.13,158.57,519.11,165.82Z"/><path class="cls-1" d="M526.79,278.9c1.24-10.29-6-16.92-10.68-24.48,2.31-3.08,4.41-1.07,6.28-.4,24.55,8.79,47.41,21.19,69.78,34.53,7.39,4.41,14,10.09,18.39,17.82,3.59,6.33,5.44,12.87-.24,19.19l-6.57.29c-6-3-10.76-7.56-15.4-12.3l-1.17-1.71c-3.95-7.64-7.62-15.46-12-22.87-2.27-3.89-6-8.92-10.19-7.87-3.49.86-1.79,7.12-2.34,11a43.4,43.4,0,0,0-.07,6c-.19,3.44-.39,6.89-.59,10.33-1.32,5.82-1.11,11.72-.79,17.62,0,1.16,0,2.32,0,3.48-1.44,5.79,3.16,5.7,6.45,6.87a6.28,6.28,0,0,0,5.14,1.89c4.66,2.55,7.4-.43,10.16-3.59,1.43-1.64,2.64-4.3,5.42-3,2.41,1.1,2.48,3.72,2.49,6.05,0,9,0,18-.09,27,0,1.79.94,4.58-1.84,5-2.34.33-3.12-2.17-4-3.93-1.3-2.58-2.47-5.23-3.62-7.88-3.88-8.9-11-13.43-20.41-16.27-.11,18.92,1.14,37.08,2.59,55.24.25,3.15,1.54,4.66,4.32,5.49,6,1.77,11.94,3.66,17.9,5.51l.79.31.83-.16c7.69,1.21,13.28-2.59,17.55-8.39,2-2.76,4.27-5.49,7.34-4.52,3.41,1.08,2.89,5.1,2.91,8.24,0,4.35.24,8.72,0,13-.46,7.61-3.09,8.57-10.43,6-26.79-9.51-53.64-18.9-81.6-24.42l-3.31-.56c-5.13-3.12-6-6.22-.2-9.69a8.55,8.55,0,0,0,4-5.21v0c5.52-9,3.1-18.84,3.06-28.43C527.16,329,528,303.94,526.79,278.9Z"/><path class="cls-1" d="M768.24,452.53c-9.08,0-18.07-.41-26.82-3.42-5.48-1.89-10.7.46-15.82,2.13-5.29,1.71-8.06,1-7.67-5.66.42-6.94,0-13.94,0-20.91,0-2.07-1.39-5.17,1.91-5.76,2.51-.44,4.81.95,6.53,3.11,6.92,8.61,15.37,15.37,24.27,21.79,7.63,5.5,15.19,4.69,23,2a9.83,9.83,0,0,0,6.85-9.18c.23-4.59-2.79-6.94-6.21-8.49A174,174,0,0,0,756,420.85c-12.82-4.13-23.16-11.93-31.93-22-6.71-7.67-9.94-25.79.79-38.79l0-.05c9.89-9.36,22.71-12.1,35-16.08l3.24-.59c1.89.14,3.77.25,5.31-1.19l3.26-.66c8.71-1,17.2-4,26.08-3.41,12.1.75,17.27,9.28,11.68,19.92-4.41,8.38-10.7,14.68-20.22,17.69-7.78,2.47-13.12.94-17-6.19l-.67-3.3c.09-1.45.22-2.89.27-4.34.21-5.71-.78-10.87-7.67-11.2-6.65-.32-10.32,3.71-11.3,10.13-1.38,9.1,3.58,14.85,10.57,19.15,10.46,6.44,22.41,8.13,34.06,10.81,16.78,3.88,21.73,13.41,15,29.46-6.85,16.26-19.58,25.85-35.73,31.21l-3.3.53-1.68.18Z"/><path class="cls-1" d="M452.81,132.17l3.27.43c22,7.65,26.81,16.57,18.58,34.33l-3,3.56c-13.55,12.72-31.77,15.33-47.74,22.83-1.33.62-3.64-.34-3.54,2.45.42,11.13-1.06,22.53,4.68,32.87v0c6.07,5.36,5.68,9.44-2.28,12.07-.47.16-.81.72-1.22,1.1l.32.41-.28-.43c-17.86,7.89-31.45,21.62-46.18,34.38l7.69-17.82-.08.08,1-2.24c.34-1.08.67-2.16,1-3.25,4-27.74,1.9-55.66,2.25-83.5,0-3.4-2.46-5.7-5.69-7-1.65-.66-4.58.21-4.49-2.84.07-2.28,2.22-3.23,4-4.21C403.43,142.85,426.75,133.12,452.81,132.17Zm-32.28,56.55A50.51,50.51,0,0,0,440,171.17c3.25-4.91,5.45-10.31,4.26-16.34-1.48-7.47-6.56-11.41-13.7-12.18-7.47-.8-6.62,6.12-7.59,10.25C420.29,164.21,420.24,175.84,420.53,188.72Z"/><path class="cls-1" d="M619.39,330.19c5.83-9.83,11.63-13.18,22.74-10.34,23.55,6,44.72,17,61.94,34.89a30.35,30.35,0,0,1,7.42,12.61c2.72,9.39-1.67,14.91-11.15,14.19a30.28,30.28,0,0,1-27.78-30c0-6.87-1.74-12.57-7.38-16.66-2.71-2-5.78-3-8.84-1.47-3.35,1.72-3.24,5.24-2.89,8.46.71,6.57,3.91,12.07,7.56,17.32,9.47,13.65,21.82,24.53,33.46,36.09,6.33,6.29,13,12.25,17.61,20.12,6.57,11.29,2.91,21.27-9.29,26.1-20.14,8-38.1,1.06-55.1-9.1-7.46-4.45-14.1-8.12-23-5.16-4.66,1.55-6.71-1.21-6.72-6,0-10.75-.27-21.5-.42-32.25a6.86,6.86,0,0,0-.35-5.24,9.49,9.49,0,0,1,.33-1.67c5.85-1,7,4,9,7.6,7.76,14,16.09,27.46,28,38.26,4.28,3.89,8.86,7.3,14.51,9,4.12,1.2,8,1.43,10.78-2.56s.31-7.57-1.76-10.34a112,112,0,0,0-12.2-13.3c-12.26-11.76-24.87-23.14-34.81-37.18C621.88,360.51,616.69,346.48,619.39,330.19Z"/><rect class="cls-2" width="1209" height="582.11"/></g></g></svg>