<svg xmlns="http://www.w3.org/2000/svg" viewBox="0 0 1209 582.11"><defs><style>.cls-1{fill:#463f3a;}.cls-2{fill:none;}</style></defs><g id="Capa_2" data-name="Capa 2"><g id="Capa_1-2" data-name="Capa 1"><path class="cls-1" d="M804.82,244.1c-.32.66-.63,1.31-1,2-2.31,3.52-4.49,7.15-7,10.54-9.23,12.65-20.89,21.89-35.48,26.18-22.8,6.7-44.23,3.33-63.81-11.21l-.3-.26c-3.67-3.55-7.52-6.92-11-10.67-9.27-10-16.88-21.48-19.31-35.18-5.79-32.67,1.27-61.25,26.86-82.79a29.61,29.61,0,0,0,2.52-2.72l.22-.18c7-5.27,14-10.35,22.19-13.56,19-7.49,37.48-7.8,55.37,3.86,3.28,2.13,6.35,4.63,9.77,6.51l0-.05c5.08,4.9,10.29,9.66,14.67,15.31l0,0a7.45,7.45,0,0,0,.58,1.28c12.65,18.17,16.81,38.33,13.22,60.56A162.56,162.56,0,0,1,804.82,244.1ZM679.09,172.48a17.76,17.76,0,0,0-2.46,6c-6.92,18.6-7.74,37.11.71,55.49,4.72,10,10.36,19.32,19.33,25.79,7.71,9,17.38,13.94,28.49,16.53,20.14,4.69,38.48.94,54.67-12.63,13.36-11.19,20.38-26,23.79-43.82,3.3-17.29,3.07-33.64-3.26-49.78-3.13-8-7.51-15.18-14.26-20.42-1.72-3.75-5.16-5.51-8.1-7.84-16-14.78-39.8-18.1-58.48-7.94-8.7,4.73-17.29,9.74-24.67,16.7a2.09,2.09,0,0,0-2.08,1.72c-3.82,3.41-7.65,6.8-9.7,11.83C681.06,166.55,680.16,169.56,679.09,172.48Z"/><path class="cls-1" d="M566.08,182.57a.42.42,0,0,0-.2.52,8,8,0,0,0-2.66,3.28l-.85.95q-2.52,2.31-5,4.64a.36.36,0,0,0-.45.3,23.29,23.29,0,0,0-3.2,1.7c-5.1,3.77-10,3-15.29.1-6.23-3.41-9.4-9.22-12.13-15.55h.05c-.47-2-1.05-4-1.41-6-3-17-.61-32.47,10.78-45.6,6.58-7.58,14.32-10.82,24-7.47s16.35,9.3,17.81,20.59c1,7.59,0,15-1.49,22.34a.5.5,0,0,0-.18.6q-2.29,5.88-4.61,11.76l0,0a14.22,14.22,0,0,0-3.66,5.79l0,0A2.89,2.89,0,0,0,566.08,182.57Zm-10.81-34a12.79,12.79,0,0,0-.29-2.33c-.49-1.73-1.35-3.66-3.06-3.81s-2.36,1.79-2.92,3.28a22.57,22.57,0,0,0-1.79,10.77c.16,1.39.4,3.1,1.86,3.62,1.62.58,2.36-1,3.21-2.11C554.3,155.4,555.13,152.35,555.27,148.54Z"/><path class="cls-1" d="M549.73,444.5a3.82,3.82,0,0,0-.88-.18c-2.16-1.51-2.9-3.46-2.92-6.33,0-3.11,1.61-5.83,1.2-8.91-.51-3.95,1.56-5.17,4.82-4.9,5.52.47,10.92,1.92,16.5,2.18,2.31.1,4,1.73,4,4.8-.18,12.51-.23,25-6.47,36.3v0c-1.37,1.63-2.73,3.27-4.1,4.91a.35.35,0,0,0-.37.33l-2.87,2.42,0,0a26.41,26.41,0,0,1-20.08,2.77c-6.68-1.66-11.77-6.16-16.91-10.57l0,0a34.52,34.52,0,0,1-8.34-22.65c-.16-16.17,6.5-28.87,17.45-39.49l-.23-.06.22.09c12.2-8.78,24.78-9.3,37.72-2l.12-.22-.15.2a29.2,29.2,0,0,1-1.26,13.22c-.7,2.27-1.65,3.26-3.93,2.25-1.25-.55-2.61-.77-3.9-1.21-10.6-3.63-19.85.59-24.75,11.33l-.74,2a26.81,26.81,0,0,0,.93,16.7h-.13l.66,1.95a.31.31,0,0,0,.09.5c1.11,3.92,3.39,6.1,7.47,6.14,4.25,0,8-.64,10.5-4.87a7,7,0,0,0,.65-5.87C553.4,443.3,551.26,444.61,549.73,444.5Z"/><path class="cls-1" d="M481,195.3l0-.25c.11-9.46,1.36-18.83,2-28.25.79-12.08,1.67-24.16-4.65-35.32-2.86-5.06-4.87-10.66-7.23-16-2.29-5.19-1.7-7.39,2.73-10.49,2.26-1.59,4.67-3,6.77-4.79,5.3-4.54,6.05-4.28,8.78,2.47,3.26,8,6.8,15.93,9.36,21.89,7-6.47,14.12-12.9,21-19.61,8.75-8.48,8.7-8.48,16.47,1.31,2.17,2.73,1.88,4.73,0,7.11s-3.86,4.9-5.79,7.36l.1.28-.08-.29-2.05,2.48-.16.23-20.68,24.83-.18.2a4.25,4.25,0,0,0-2.21,3.83c-.24,13.67-4,26.79-5.69,40.26-.19,1.58-.64,3.75-2.34,3.66C491.67,195.9,486.22,197.37,481,195.3Z"/><path class="cls-1" d="M586,479.27c-1.56-.55-3.45-.31-4.46-2.13a56.36,56.36,0,0,1-.56-9.47c1.15-18.34,2.86-36.66,2.19-55.08-.08-2.24.71-3.67,2.87-4.14a135.35,135.35,0,0,1,13.32-2.69c7.76-.89,14.9,1.14,22,4.11l3.47,3.85c4.9,7.58,4.43,15.19.1,22.81l.06,0-1,1.07,0-.07c-2.89,1.95-5.47,4.55-9.09,5-2.56.33-2,1.63-.88,3.16,2.33,3.12,4.45,6.41,7.43,8.91a.39.39,0,0,0,.37.41c1,1.38,1.91,2.8,2.93,4.14,1.47,1.93,2.5,4,1.88,6.55-1.07,4.44-2.21,8.86-3.32,13.28-1.39,2.52-3,2.43-5.24,1-4.64-3.12-7.77-7.66-11-12.17-1.7-2.38-3.53-4.65-5.37-7.05-2.08,2.33-1.12,4.68-.9,7,.41,4.16,2,8.49-1.27,12.23l-4.52-.47-3.61,0Zm17-59.88c-3.48-.51-5.44,1-4.19,5.35.47,1.6-1.12,4.66,1.61,4.64,3.71,0,7.56-.42,11-2.41a3.62,3.62,0,0,0,1.9-3.54c-.13-1.75-1.46-2.4-2.77-2.76C608.19,420,605.88,419.18,603,419.39Z"/><path class="cls-1" d="M772.29,481.77l-.39-.23-.45.08c-3.29-1.22-6.7-.43-10-.66l-.34-.16-.36,0c-2-2.75-1.8-6.06-1.82-9.2-.07-15.38-.11-30.77.13-46.15.05-3.48-.82-4.6-4-4.22a53.11,53.11,0,0,1-6.8.2c-3.46,0-5.36-1.5-5-5.61a54.86,54.86,0,0,0,.1-9.59c-.38-4.56,1.66-6.44,5.63-6.9,7.66-.89,15.29-2.2,23-2.76,8.44-.61,16.92-.94,25.38.16,3,.39,5.14,1.67,5,5.47-.29,5.92-.47,11.84-.62,17.77-.1,3.54-1.65,5.31-5.06,5.26-4.54-.08-9.08.05-13.61-.14-2.47-.11-3.4.5-3.39,3.41a469.77,469.77,0,0,1-3,51.28l0,0A6.48,6.48,0,0,1,772.29,481.77Z"/><path class="cls-1" d="M702.86,321l-.83,2-7.2,11.37v0c-3.7.69-6.44-1.1-8.68-4a18,18,0,0,0-10.72-6.66c-5.45-1.18-12,2-13.87,6.67-4.34,10.64.16,20.51,10.72,23.55,4.93,1.42,6.09.68,7.68-5-.78,0-1.52,0-2.24,0-5.77.37-7.17-1.52-5.21-7.3.71-2.1,1.78-4.06,2.59-6.13s2.16-2.87,4.3-2.29c5.42,1.49,10.82,3,15.57,6.3l.39.91c0,13.08-3.68,24.46-13.46,33l-.1,0c-2.77.4-5.3,2.08-8.32,1.25-8.21-2.27-16.17-5-22.21-11.79l-.29-.25c-1.28-1.43-2.57-2.86-3.85-4.3l0,0a37.18,37.18,0,0,1-2.67-22.39c1.36-7.65,4.85-14.37,8.31-21.09l.09-.17c6.8-8.77,15.49-12.75,26.22-11.79,7.72.69,14.41,4,20.92,8.21C704,313.84,705.21,316.7,702.86,321Z"/><path class="cls-1" d="M631.36,475.18l.3-1.82a52.14,52.14,0,0,0,2.66-12.57l-.06.08c.29-.33.81-.65.85-1,1.31-12,4.38-23.69,6.39-35.57.82-4.91,3.29-7.06,7.64-7.53,10.39-1.12,20.82-.91,31.24-1.08a6.87,6.87,0,0,1,4.57,1.76l.72,2c-.29,2.05-.66,4.09-.84,6.15-.5,5.65-5.69,11-11.47,10.25-5.38-.68-10.87.16-16.31-.57-1.08-.15-3.3-1.91-3.24,1.29,0,2.07.16,4.14,3.14,4.08a89,89,0,0,1,11.77.5c2.53.29,5.78-.09,6.33,4s-1.78,9.59-4.66,11.06c-4.68,2.4-9.5,1-14.28.73-1.18-.06-3.09-1.2-2.91,1.37.12,1.67-1.38,4.21,2.07,4.71a189.72,189.72,0,0,0,20,1.65c5.62.22,6.68,1.58,5.21,7.4-.65,2.62-2.11,5.08-2.39,7.71-.47,4.4-2.52,5.71-6.38,5.22-13.08-1.65-26.24.29-39.33-.93l-1.07-1.14C631.35,480.29,631.36,477.73,631.36,475.18Z"/><path class="cls-1" d="M493.9,259.41l-.9,2-6.32,13.14c-.77,1.61-1.9,3.72-3.63,2.45-3.82-2.81-8.29-2.54-12.41-3.84-4.28-1.34-4.71-2.54-2.62-6.62.78-1.52,1.33-3.18,2-4.77H470a155.81,155.81,0,0,0,9-17.55l1-1.86c4.74-7.73,10.43-15,13.47-23.63,2.6-7.38,7.15-9,13.49-8.52,1.79.13,3.56.48,5.34.73l-.12-.06c6.39,22.34,15.78,43.71,19.38,67-.13.94-.26,1.87-.38,2.81-3.17,3.16-7.12,2-10.79,2-6.19.09-8-1.49-9.24-8-1.19-6.09-2.13-12.23-3.27-18.32-.24-1.28,0-2.91-1.9-3.35A10.11,10.11,0,0,0,493.9,259.41ZM503,227.54c-2,4.14-4.09,7.48-4.84,11.62,7.35,0,7.36,0,6-7C503.89,230.82,503.47,229.5,503,227.54Z"/><path class="cls-1" d="M748.31,475a.66.66,0,0,0-.64.35c-5-.21-9.92-.93-14.9.35-3.25.83-4.81-1-4.81-4.43,0-5.69-1.73-11-3.12-16.42-.71-2.8-2.32-3.23-4.74-3-2.7.28-2,2.29-2.09,3.89a89.52,89.52,0,0,1-3.09,20.34c-.59,2-1.44,4-3.68,3.08-4.32-1.85-8.66-.66-13-.72-4.79-.08-6.19-1.81-4.79-6.54,5.74-19.39,10.68-39.08,19.26-57.39.93-2,1.34-4.57,3.93-4.78,4.47-.37,8.88-1.92,13.4-1,1.23.25,1.55,1.85,1.92,3.08q8.71,28.29,17.45,56.57C750.2,470.88,750.18,473.05,748.31,475Zm-25.52-47.71c-1.66,1.26-1.73,2.77-2.15,4.06-1.78,5.45-1.78,5.24,3.56,4.52,3.57-.48,2.44-2,1.27-3.88C724.58,430.52,723.78,429,722.79,427.26Z"/><path class="cls-1" d="M521.13,299.06c11.89-.9,19.49,8.41,20.36,19.16,1.36,16.93-5.57,30.55-17.54,41.19-6.35,5.64-19.71,2.28-24-5.3-9.93-17.65-3.11-43.7,13.9-53.62A11.19,11.19,0,0,1,521.13,299.06Zm3.48,27.7c.08-4.68-1.44-8.95-4.7-9.53s-4.34,4-5.56,7a3.45,3.45,0,0,0-.12.46c-.91,4.07-.61,7.95,1.93,11.32,1,1.3,2.43,1.09,3.69.27C523.46,334,524.37,330.19,524.61,326.76Z"/><path class="cls-1" d="M399.09,402.14l.86-1.94C406,389,416.05,383,426.64,377.7a20.51,20.51,0,0,1,14-1.79c8.22,1.79,15.68,5.62,23.23,9.25H464l5.56,3.66v0l6.92,6,.13.12c5.09,6.4,9.53,13.13,10.5,21.8,1.75,15.71-1.4,30.08-10.14,43h0l-10,10.55h0l-2.11,1.45.12.29-.17-.26-1.67,1.14.29.09-.28-.13c-2.09.9-4.18,1.83-6.29,2.7-25.17,10.3-46.23-1.47-56.1-25.15C394.12,434.63,393.76,418.45,399.09,402.14Zm13-11.51a.32.32,0,0,0-.45.25,12.93,12.93,0,0,0-4.71,5.27c-.63.83-1.25,1.67-1.88,2.51-3.48,4.25-5,9.49-5.8,14.81-3,18.82-.14,36,13.23,50.06l2.33,1.26c3.84,7.51,11,9.62,17.84,10,32.66,1.92,50.41-23.9,50.06-51.62-.15-11-4.64-19.64-12.39-26.64-8.29-7.48-18.17-11.76-28.34-15.16-5-1.66-10.41-2.89-15.26,1.05l.12-.08c-5.46.73-9.77,3.83-13.82,7.48l-.19.16Z"/><path class="cls-1" d="M589.46,158.69a195.26,195.26,0,0,1,3.52-33c.58-3,1.83-4.27,4.57-3.87,4.48.65,9,1.35,13.43,2.13,3.12.54,4.12,2.24,3.46,5.78-2.16,11.61-2.83,23.5-5.44,35.06a19.76,19.76,0,0,0,0,7.15c.65,4.35,3.05,5.22,6.35,2.44,2.48-2.08,3.59-5.06,4.45-8.19,3.27-11.92,2.87-24.42,5.18-36.51,1.35-7.06,1.16-7.26,8.06-6,.74.13,1.5.19,2.25.25,7.84.66,8.29,1.11,7.66,9.4-1.44,18.8-5,37-13,54.12-3.38,7.26-9,11-15.79,13.33-4.57,1.58-8.63.25-12.2-3a31.47,31.47,0,0,1-9.8-16.87C590.48,172.93,589,164.93,589.46,158.69Z"/><path class="cls-1" d="M588.08,386.42c-4.06-19.58-5.59-39.53-7.63-59.41-.49-4.76.11-8.17,5.17-10.63,8.23-4,7.81-4.48,12.12,4.3s9.78,16.94,13.58,26.05c.59,1.43,1.19,2.85,2.12,5.06,1-2.9.42-5.06.26-7.28-.73-10-3.14-19.77-3.35-29.83-.06-3,0-5.1,3.92-5.33,3.1-.18,6.21-1.55,9.16-3.16,2.7-1.48,4.81-.53,5.33,3.19,2.52,18.32,4.13,36.74,5.74,55.16.43,4.94.83,9.89,1.11,14.84a5.12,5.12,0,0,1-3.57,5.38,42.43,42.43,0,0,1-15.58,1.91c-2.32-.12-3.92-1.94-5-4.27a105.59,105.59,0,0,0-7.81-15c-.35-.54-.12-1.89-1.17-1.52a1.69,1.69,0,0,0-.86,2.37c1.55,4.06,1.72,8.42,2.4,12.67.53,3.27-.74,5.53-4,5.52-4,0-8,2.4-12,0Z"/><path class="cls-1" d="M602.6,290.08c-1.37-2.19-1.09-4.58-.73-7,1.7-11.39,3-22.86,5.3-34.12,1-5.12,1.27-10.31,2.39-15.39.85-3.86,2.8-5.68,6.4-6.25A214.74,214.74,0,0,1,651.68,225c2.7,0,4.34,1.13,4.24,4.26-.15,4.64.17,9.28-.49,13.91-.51,3.55-1.79,4.88-5.46,4.19-8.14-1.54-16.39-1.33-24.61-1.12l-.12,1.27c4.29.52,8.58,1.07,12.87,1.55,1.5.17,3,.08,4.53.25,3.05.35,4.4,1.7,3.79,5.39-1.89,11.52-1.85,11.62-12.54,10.08-2.55-.37-5.1-.7-7.62-1.24-2.22-.47-3.63-.48-3.94,2.65s1,3.63,3.28,3.66c7.1.12,14.21.25,21.32.34,5.46.08,6.52,1.27,5.25,6.92-.91,4-1.75,8.28-3.65,11.8-2.26,4.19-7,3.1-10.61,3C626.14,291.56,614.37,290.72,602.6,290.08Z"/><path class="cls-1" d="M555.73,283.36c-4.92,1-9.5-1.17-14.25-1.78-2.3-.3-1.74-2.68-1.79-4.33-.36-11.27,2-22.28,3.09-33.41.64-6.52,1.94-13,2.63-19.49.48-4.51,2.85-7,6.7-8,10.73-2.7,21.53-3.54,32.23,0,8,2.67,12.52,8.13,12.61,14.54s-5.5,14.38-12.14,17.09c-2.62,1.08-6.94,1-7.43,3.48s3.73,3.79,5.74,5.8a43.7,43.7,0,0,0,3.8,3.4c2.44,1.91,3,4.16,1.66,7.1a47.4,47.4,0,0,0-3.49,12.38c-.84,5-2.46,5.78-6.23,2.74-7.7-6.19-14.52-13.43-21.64-21.2-.64,7.47.46,14.66-1.44,21.56l.18.26Zm19.53-55h0c-3.37-2-7-1.1-10.58-1.11-1.41,0-2.23.64-2.26,2.28,0,1.91-.13,3.82-.32,5.72s.52,2.36,2.07,2c3.82-.87,7.66-1.65,11.44-2.68,1.55-.42,3.61-1.09,3.55-3.12C579.11,229.24,577.19,228.53,575.26,228.36Z"/><path class="cls-1" d="M482.66,336.84a36.37,36.37,0,0,1-7.56,9.27,121,121,0,0,1-13.79,6c-8.35,3-16.1,1-23.86-2.08-2.85-1.12-4.31-3.14-4.33-6.54-.05-8.67,1.1-17.23,1.62-25.85.32-5.27.51-10.57.39-15.85-.1-4.45,1.68-7.18,5.69-7.85,8.54-1.45,17.19-2.34,25.73-.41,13.35,3,21.22,16.61,19.17,32.33A44.84,44.84,0,0,1,482.66,336.84Zm-31-2.13c3.81-1.92,7.13-3.39,10.27-5.21a6,6,0,0,0,3-7.22,12.21,12.21,0,0,0-9.91-9.21c-2.55-.44-3.55.1-3.45,3.08C451.8,322,451.66,327.92,451.66,334.71Z"/><path class="cls-1" d="M560.28,305c7.14-.06,8.54,2,8.14,9-1,18.81-5.73,37-8.14,55.55-.43,3.35-1.91,4.88-5.3,3.61a92.67,92.67,0,0,0-9.12-2.88c-3.22-.85-4.06-3-3.38-6.15,4-18.42,8-36.82,11.92-55.26C555.27,304.7,558.26,305.53,560.28,305Z"/><path class="cls-1" d="M429.77,459.53h-.29l-8-5.18-.32-.25c-1.26-1.92-3.32-3.27-3.76-5.8l.72-.8,2.51,1.34a.51.51,0,0,0,.49.4c10.64,9.68,21.55,9.42,30.89-.71a25,25,0,0,0,5.8-10.69c.52-1.92,1.23-4,3.63-3.12,2.18.79,2,3,1.56,4.89s-1.16,3.62-1.76,5.43l0,0-1.14,1.77h0L458.67,449l0,.05-9.91,8.53-2.66,1.23A32.19,32.19,0,0,1,429.77,459.53Z"/><path class="cls-1" d="M415.12,419.77c-.05-2.86.83-5.77,3.59-5.57,3.24.24,3.57,3.66,3.74,6.64s-1,6.05-3.3,5.85C416.14,426.42,415.47,422.77,415.12,419.77Z"/><path class="cls-1" d="M449.53,419.33c-1.6,1.4-3.37,2.47-4.94.21a6.81,6.81,0,0,1,.13-8.32c1.59-2.16,3.37-1.17,4.87.47.17.65.34,1.29.5,1.94s.17,1.22.25,1.83Z"/><path class="cls-1" d="M703.48,243.91l-.83-1-5.44-8.65c-3-8.37-7.64-16.11-8.2-25.35,2.18-.75,3.3.36,4.15,2.38,1,2.44,2.28,4.77,3.43,7.15,2.87,7.64,5.78,15.23,10.81,21.7,7.41,9.56,17.35,11.58,28.12,10.31,5.81-.68,11.49-2.56,17.23-3.87,2.35-.53,4.68-1.32,7.13-.73,2.6,3.15.93,5.22-1.89,6.1-14.59,4.57-29.25,8.77-44.14,1.13l-2.27-1.4Z"/><path class="cls-1" d="M769.37,209.37c-2.06,1.64-4.34,3.76-6.82,1.7s-1.48-5.23-.56-7.95a14.53,14.53,0,0,1,4.59-6.94c1.21-1,2.46-1.94,4.11-1.12,1.83.92,1.87,2.71,1.89,4.49,0,3.66-1.86,6.64-3.2,9.81Z"/><path class="cls-1" d="M720.17,185.17l-1.66,2c-4.72,1.61-6.51.29-6.41-4.85a15.32,15.32,0,0,1,4.41-10.69c1.35-1.39,3.07-2.25,4.94-1.36s1.81,2.75,1.89,4.54C723.52,178.71,721.52,181.83,720.17,185.17Z"/><rect class="cls-2" width="1209" height="582.11"/></g></g></svg>