<svg xmlns="http://www.w3.org/2000/svg" viewBox="0 0 1209 582.11"><defs><style>.cls-1{fill:#463f3a;}.cls-2{fill:none;}</style></defs><g id="Capa_2" data-name="Capa 2"><g id="Capa_1-2" data-name="Capa 1"><path class="cls-1" d="M431.66,189.31c.32-1.17.65-2.35,1-3.53.65-1.33,1.3-2.66,1.94-4l.3-.15,0-.33q1.46-1.84,2.89-3.7l-.14.12c6.48-.69,12.63-2.76,18.83-4.56,7.57-2.19,14.93-2.89,22.37,2-.48-5,1.38-8.91,2.66-13l-.16.15,1.38-1.23,0,0c2.36-3.25,4.78-6.47,4.46-10.82l3.78-9.34c5.8-12.25,8.55-25.52,12.63-38.34,1.29-4.05,3.17-8.08,2.7-12.55l-.1.13c2.4-2.09,2-5.26,3-7.87l-.07-.16c1.84-6,3.43-12,5.61-17.89,1.71-4.58,4.9-8.19,10.14-8.8,5.52-.65,9.23,2.35,12.05,6.8a34,34,0,0,1,4.35,11.48c6.62,32.26,11.24,64.93,20.93,96.55,3,9.69-.73,15.11-10.52,17.21-5.79,1.25-10.71-1-14.16-6l0,0-1.74-3a1.18,1.18,0,0,0-.31-1.09c-.47-1.56-.95-3.11-1.42-4.67s-.63-3.2-1-4.8c-.62-3.62-1.13-7.27-1.9-10.87-.38-1.8-.41-4.29-2.78-4.62s-3.32,1.83-4.19,3.5a143.71,143.71,0,0,0-9,20.15l.07-.11-1.56,3.53.07-.12-3.7,5.93c4.76-2.45,9-2.94,13.46-.48l-.11-.12,1.49,1.24-.19-.19,1.23,1.48-.14-.12,1.2,1.53-.2-.09q3,6.73,6,13.46l0,.06c.1,2.47,1.43,4.48,2.84,6.27,3,3.82,6.15,7.83,12,4.7l-.12.06,1.2-1.44-.13.17c.45-.44.89-.89,1.34-1.34l-.16.16,1.4-1.33-.23.18,1.54-1.26-.12.19,1.62-2.25-.18.18c.34-.57.68-1.14,1-1.7l-.11.2a15.11,15.11,0,0,0,3.65-7.25l-.15.16c5.35-6,11.57-6.91,18.59-3.18l2.54,1.79c1.08,2.47,2.64,4.85,3.17,7.44,2.87,14.1,8.51,27.28,13.4,40.7,1.77,4.83,3.42,9.79,6.65,14.76.23-1.36.52-2,.39-2.44-4.91-17.95-9-36.15-15.63-53.57-3-8.05-5.2-16-4.64-24.56-1.07-4.64-4.52-2.05-7-2.32a15.37,15.37,0,0,1-7.71-4.21l-.25.35.26-.35c-.36-.43-.71-.87-1.07-1.31l-.08-.07a40.3,40.3,0,0,1-5.21-18c-.56-13.59-2.88-27-4.29-40.44-1-9.35-3.21-18.64-1.71-28.17,1.74-11.07,6.73-13.82,16.45-8.89C577.47,79.17,581,85,586.2,89c2.07,5.12,6.28,8.71,9.42,13.08l-.06-.08a33,33,0,0,0,8.51,11c3.26,2.67,6.88,4.74,11.12,1.65.32.05.49-.09.5-.41,3-4.57.92-9.15-.32-13.51-2.43-8.51-4.75-17-4.94-25.92-.12-6,.77-11.79,5.17-16.36,3.81-4,8.77-5.72,13.93-4.55s6.6,6.21,7.54,10.88a40,40,0,0,1,.68,12.3c-2.14,20-.53,40,1.92,59.84a20.93,20.93,0,0,1-1.6,12l0,0-1.65,1.75-.18.15c-7.72,4.8-14.58,2.57-21.08-2.59l.05,0-2.83-2.82-2-2.3-5.76-7.57-.3.15.32-.09-1.76-2.06.1.19-1.29-1.53.23.15-2.19-2.66.07.12-1.29-1.43.08,0c-2.16-2.87-5.11-4.82-8.12-6.61-6.85-4.06-8.85-2.84-9.07,5.05-.4,14.27,3.16,28.14,4,43.39,1.9-2.76,3.29-4.78,4.67-6.8l-.18.11,1.39-1.43-.11.23,3.94-3.1.06,0,4.55-2.45,0,0c8.33-3.3,16.66-4.2,25.18-.47,6.19,2.71,11.48,6.72,16.69,10.89l-.2-.22,1.44,1.4-.25-.23,1.41,1.43-.2-.14,3,3.87.15.2c1.69,2.87,3.58,5.64,5,8.63q6.93,14.43-2.48,23.91a81,81,0,0,1-6.77,5.56l.08-.06c-2.07,1.11-4.12,2.26-6.21,3.32-15.7,8-18.29,18-8.52,32.81l4.76,8.3,7,14.2c.59,2.07,1.32,4.11,1.73,6.21,1.84,9.45-1.78,14.7-11.19,16.25-7.66,1.27-13-2.9-18-7.88l-5.76-10.26c-.86,13.26-4.17,18-12.39,18.71-4.12.34-8.25.2-12-1.84l-2.84-1.94c-2.79-4.15-4.13-8.77-5.08-13.67-2.46-12.7-3.4-25.79-8.93-37.76-1-2.12-2.06-4.66-4.79-4.65s-4.5,2.2-5.61,4.62a24.21,24.21,0,0,0-1.79,5c-2,9.55-5.57,11.92-15.26,10l.1.09a3.52,3.52,0,0,0-2.48-2.55c0-.88,0-1.79-1-2.22-.17-1.94-.19-3.9-.54-5.8-.75-4-1.2-8.73-6.46-9.09-5.08-.36-7.42,3.47-8.78,7.79-.37,1.16-1.91,2.11-.86,3.61a1.14,1.14,0,0,0-.23,1,1.12,1.12,0,0,0-.9,1.41,2.54,2.54,0,0,0-.35,1.1c-2.2.91-2.16,3.09-2.65,4.9-2.33,8.46-4.66,16.92-6.82,25.42-1.75,6.84-4.87,12.69-10.86,16.73-5.37,2.5-10.82-1.06-13.42-8.78a16,16,0,0,1-.36-1.67c.21-4.26-.53-8.85.8-12.73,5.68-16.52,9.19-33.59,13.55-50.44,2.7-10.45,4.32-21.2,10-31.44a12.26,12.26,0,0,0-7.9,2.5l-1.17.34L491.08,191l-.17.3.22-.26L486,188l0,0-1.64-1.77-.08-.29-.3,0C483,185,483,183,480.61,183c-.16,3.16-1.52,5.89-3,8.6h0l-1.7,2.15h0c-5.84,3.43-12.39,4.67-18.91,5.92-4,.76-6.85,2.78-8.35,6.59a53.27,53.27,0,0,0-3.77,14.8c-.59,6.79,2.62,10.76,9.32,12a33.9,33.9,0,0,1,4.61.93c4.16,1.41,7.09,4.15,7.74,8.62.62,4.29-1.21,7.68-4.78,10.05-5,3.3-10.32,4.66-16.23,2.85-3.73-1.15-7.58-1.76-10.07,2.12-2.63,4.09-4.05,8.79-2,13.43,1.85,4.27,6.31,4.44,10.23,4.22A60.32,60.32,0,0,0,463.15,271c7.21-2.93,12.66,0,14.57,7.62,1.26,5-.06,9.72-1.48,14.44l.06-.09-2.85,3.47c-1.23,1.16-2.22,2.68-4.15,2.82-10.86-.92-20.95-5.35-31.58-7.1A40.82,40.82,0,0,1,422.34,286h0c-8.31-8.89-9-19.38-5.4-30.2,2.9-8.77,5-17.73,7.12-26.67C427.15,216,431.18,203,431.66,189.31Zm76.64-3c.58.49.29,1-.13,1.31a.93.93,0,0,1-.84-.25c-.18-.59,0-1.09.75-1ZM525.51,126c.29,1.72,1.14,3,3,2.7s2.51-1.79,2.67-3.36c.32-3.22.43-6.46-1.48-9.35.09-1,.5-2,.21-2.89-.58-1.74,1.25-5.07-2.19-4.94-2.54.09-3,2.75-2.88,5C525.12,117.45,524.22,121.77,525.51,126Zm84.28,51.38c-3.4,3.83-4.38,8.47-4.91,13.4-.46,4.29,1.51,6.51,5.19,7.91,7,2.68,13.25.28,19.41-2.81,4.08-4.78,2-10,1-15.06-1-4.53-3.16-8.31-8.18-8.85S612.33,171.86,609.79,177.37Z"/><path class="cls-1" d="M531,526.44l-3.52-3c.18-.85-.32-1.25-1-1.52l-.21.26.24-.24c-3.15-4.1-6-8.5-5.9-13.79.23-10.18-1.09-20.3-1.2-30.39-.22-21.6-2.25-43.09-3.07-64.64a82.57,82.57,0,0,1,1.9-22.18c1.76-7.53,6.36-12.58,12.88-16.28,4.94-2.79,9.78-5.77,14.66-8.67l0,0c3.56-2.05,7.23-3.94,10.66-6.19,4.5-2.94,9.09-4.55,14.38-2.51l-.1-.08c9.49,7.53,13,18.06,9.32,28l-1,1.08c-6.82,5.31-15.46,6.15-23.16,9.32-6.84,2.8-10.69,8.56-9.44,15.8,1,6.08,5.19,8.8,13.25,8.47a29.48,29.48,0,0,0,6.88-1,8.84,8.84,0,0,1,7.78,1.09l1,1c5.81,12.42,3.69,18.39-8,22.38-2,.7-4.1,1.25-6.16,1.86-2.84.83-5.56,1.86-7.37,4.41l-.17.17a14.22,14.22,0,0,0-4.08,11.68c1.37,15.81,2.47,31.66,4.4,47.4.93,7.62-.54,13.52-6.94,17.91l0,0c-3.37.54-6.62,2.08-10.15,1.19l.05.06C535.53,525.23,532.71,527.91,531,526.44Z"/><path class="cls-1" d="M632.38,511.63c-1.09,3.61-3.65,5.72-7,7.12-4.36,1.81-8.66,3.75-13,5.64-.44-.31-.92-.92-1.32-.87-11.19,1.26-20.62-2.45-28.73-10l-.1-.15c-.5-.63-1-1.27-1.51-1.9l-.08-.1A29.19,29.19,0,0,1,577,494.62c1.55-16,1.84-32,2.65-48.06.5-9.71-.19-19.54,2.1-29.13l-.11.06L583,416l-.12.21c6.78-4,13.06-3.92,18.59,2.3a38.54,38.54,0,0,1,2,15.58c-1,15-1.31,30.06-3.74,44.94a22.86,22.86,0,0,0,1.09,12.71c1.49,3.57,4.17,5.72,8.16,5.55s6-3.15,6.53-6.51a53.53,53.53,0,0,0-4.34-31.28l.06.08c.39-3.47-1.2-6.49-2.22-9.64-1.87-5.8-3.68-11.62-2.78-17.86,1.11-7.73,7.2-13.13,15.41-13.62,6.52-.39,11.16,3.76,13.26,11.68a42.6,42.6,0,0,1,.95,9.93c.36,13.73-.22,27.58,1.38,41.17C638.58,492.2,637.78,502.11,632.38,511.63Z"/><path class="cls-1" d="M750.44,188.43l5.78-.26c3,2,6.18,3.67,8.57,6.43l0,.3.29.08c4.62,8,5.3,16.18,1.67,24.71-1.7,4-1.87,8.23-2.32,12.53-1.86,17.9-1.35,36.72-16.56,50.26l.09-.06c-10.62,5.79-21.34,6.51-32.22.73l-.22-.15-2.6-1.89-.21.21.19-.23c-5.46-6.59-4.47-13.56-1.2-20.65.39-.42.78-.83,1.16-1.25,5.36-3.72,10.58-2.88,15.79.4,1.21.77,2.06,2.58,4,1.67l2.57,0c.32.5.7.65,1.17.17l-.11,0c10.23-3.31,12.38-11.58,5-19.46l0,.05c-4-4.09-8.36-7.35-14.53-6.67a1.94,1.94,0,0,0-1-.31L714.13,228l-1.74-1.61c-9.22-10.81-12.55-23-9-37l-.09.12c1.13-.48,1.18-1.56,1.41-2.53l-.3.28,1.4-1.32a1.56,1.56,0,0,0,1-.24c2.07-.49,4.12-1.17,6.22-1.45,11.67-1.55,17.9,4.31,17.22,16.1a27.41,27.41,0,0,1-2.32,9.63c-2.17,4.87.15,7.43,4.63,8.73,8,2.32,9.7,1,9.77-7.42a50,50,0,0,0-.2-7C741.15,196.94,743.84,191.69,750.44,188.43Z"/><path class="cls-1" d="M459.2,312.29l2.15-2.15c9-7.75,18.85-10.37,30-4.63l.09.07,2.1,1.31.1.05,5.07,5.31.05.1c-.57,9.13-5.78,12.73-15.32,10-3.94-1.11-7.22-1.41-9.92,2.15h0c-4.13,4-7.14,8.51-5.42,14.48s7.1,7.27,12.26,8.63c2.63.69,5.27,1.34,7.91,2l1.43.11c3.12,3.43,4.81,1.75,5.9-1.71,2.77-8.78,5.56-17.56,8.24-26.37,1.88-6.18,3.53-12.43,5.45-18.6.85-2.75,2.62-4.92,5.72-5.25,3.42-.35,5.42,1.75,6.92,4.5,1.71,3.16,2.26,6.66,2.92,10.12,2.93,15.4,5.41,30.89,9.9,46,2.82,9.49-.82,13.28-10.76,11.34l-1.19-1.12c-2.52-3.89-3.15-8.34-3.93-12.78-.28-1.58,0-4.12-2.06-4.36s-2.48,2.07-3,3.72l0,.11-5.5,12.18.06-.09c-3.48,4.44-7.45,7.35-13.33,4.21l-.16-.09c-1.62-1.82-3.25-3.63-5.06-5.65l-4,3.84.07-.06c-8,2.09-14.92-.76-21.48-5l-.22-.22c-1.45-1.59-3-3.1-4.32-4.8C446.22,341.87,446,329,459.2,312.29ZM516.11,327c-2,3.2-1.05,6.73-.53,10.16a1.08,1.08,0,0,0,1.84.47c2.47-2.82.2-5.92.37-8.9C517.83,328,517.63,327.12,516.11,327Z"/><path class="cls-1" d="M698.12,504.3l-1,.9c-1.93.23-3.88.44-5.81.71-13.71,1.88-19.81-2-22.66-15.59-3.43-16.37-3.1-33.13-3.82-49.74-.4-9.25-2.59-18.71.81-27.91h0c3.41-3.07,7.13-4.69,11.67-2.54l.32.14,1.9,1.53-.06.07c4.2,7.57,4.86,15.94,5.41,24.32l.09,1.22a.53.53,0,0,0,.19.84l.3,3.07c.16,8.82.3,17.64.5,26.46.26,11.82,4,14,14.5,8.29,3.09-1.69,6-3.7,9-5.58a33.13,33.13,0,0,1,7.88-3.86c3.46-1.06,6.82-.76,9.4,1.61,2.79,2.55,1.21,5.79.32,8.78-2.22,7.37-8.3,11.69-13.27,16.88l0,0Z"/><path class="cls-1" d="M649,529.46a1.58,1.58,0,0,0-1-.24c-7.79-4.4-9.39-11.4-8.25-19.58.18-1.35,0-2.75.07-4.12,1.16-32.19.14-64.42,2-96.59l2.47-2.2,1.31-1.34-.12.2c2.93-.3,5.86-.7,8.69.51h0c3.8,3.47,6.67,7.89,7.31,12.73.92,6.92.61,14,.47,21.05-.49,24.69-.77,49.38.67,74.05C663.16,523.93,659,528.91,649,529.46Z"/><path class="cls-1" d="M543.65,300.21c2.84,1.86,4.77,4.55,6.63,7.3.44.53.9,1.06,1.35,1.59l-.17-.19,1.75,2.17,1,1.08L556,314l.28.25c2,2,4.27,3,6.82,1.45,3-1.85,1.33-4.55.69-6.88a69.93,69.93,0,0,0-2.43-6.61c-1.88-4.78-3.28-9.7-2.89-14.86.42-5.66,4.39-9.81,9.2-9.71,5.5.13,6.42,4.59,7,8.62.79,5.8.94,11.68,1.37,17.52l.81,5c.05,6.09,1.48,12,2.86,17.85.81,3.45.88,6.5-1.16,9.46l-.1.1c-4.59,3.2-8.91,1.86-13.16-.75l.08.06-2.94-2.76h0c-3.86-4.44-7.56-9-13.07-11.64-3.83-1.8-6.12-1.39-5.49,3.57.17,1.37.46,2.72.54,4.09.37,6.31,2.81,12.16,3.9,18.31.54,3,.22,6.22-3.25,7.34-3.22,1.05-6,.09-8-3.08a29.16,29.16,0,0,1-3.76-9.82q-3.36-16.42-6.76-32.85a25.88,25.88,0,0,1-.32-11.11c1.07-4.66,4-6,8.26-3.9,1.4.69,2.69,1.6,4,2.41l.11.11,2.56,2.06-.07-.06,1.38,1.19-.1-.1Z"/><path class="cls-1" d="M710.6,450.26c-.38,5.84-3.69,9.46-8.47,9.27s-9-5-8.64-10,3.94-8.13,9-7.87C707.94,441.93,710.94,445.13,710.6,450.26Z"/><path class="cls-1" d="M653.7,363l-2.56-.05-6.72-2.77.07.07c-3.69-4.62-3.62-9.15.33-13.58l4.18-.42,1.69.76-.07-.06c2.26,2.61,4.85,5.43,8.28,2.44,2.25-2,.79-4.23-1.65-5.54l0,0-6.52-4-.09-.09L649,338.06l-.05-.06-1.53-3.39-.15-2.44c1.37-8.11,6.63-11.41,14.86-10.4l-5.81-6.47-.27.14.29-.08c-3.39-7.45-3.18-15.08-1.89-23,1.2-7.37,5-14.06,5.36-21.58l-.15.19c3.75-5,6.45-10.48,4-16.68-2.28-5.86-8.11-5.28-13.12-5.64-5.48-.4-11-.57-15.61-4.13l0,0a8.46,8.46,0,0,0-3.64-3.68.78.78,0,0,0-.21-.77c0-1.37,1.37-3.08-1-3.85a1.76,1.76,0,0,0-.23-1l.2-5.57c2.14-.94.71-3.69,2.45-4.84,8-5.44,16.47-4.23,25-2,5,1.34,8.68.24,10.43-5,4.75-5.84,5-13,5.61-20,.41-4.64.62-9.58,5.42-11.55a11.32,11.32,0,0,1,12.07,2.19c4.23,3.71,4.4,8.29,3.28,13.4-1.32,6-4.14,11.39-5.92,17.17-2.52,8.24-.3,10.76,8.13,9.17a48.25,48.25,0,0,1,14.62-.9l2,1.59c1.92,2,3.39,4.33,2.93,7.25-1.17,7.42-1.6,15-4.35,22.09l-.88,1.19c-6.09,3.59-11.75.92-17.23-1.54-1.88-.84-3.26-1-4.85,0-7.63,4.84-10.53,24.48-4.73,31.91,3.32,6.11,10.56,4.95,15.38,8.28l1.8,1.79c5.1,10.3,1.79,18.93-9.06,22.95a34.49,34.49,0,0,1-23.29.29,49.17,49.17,0,0,0-5.6-.94c3.16,2.49,3.79,4.68,3.16,7.06-.72,2.7-2,4.55-5.41,3.78-1.44-.32-1.91,1-1.13,2.34.88,1.47,1.92,2.86,2.82,4.32C669.83,351.3,666.72,359.28,653.7,363Z"/><path class="cls-1" d="M728.92,388.63c-.73,1.23-1.46,2.46-2.2,3.69l-4.81,5.79a130.49,130.49,0,0,1-12.9,8.11c-7.27,4.34-8.6,9.69-4.59,16.87,2.27,4.05,4.92,8.15-.54,11.7-4,2.62-10.34.77-13.25-4.09-4.12-6.87-4-14.17-1.26-21.53.4-1.1,1-2.13,1.48-3.2l0-.08,1.75-2.85,0,0,4-4.29-.29-.49.28.49,1.25-1.23,0,0,1.34-1.08-.5-.19.48.23,3.15-2.86-.16.11c.46-.47.92-.93,1.39-1.39l-.11.22,2.46-2.46-.08.08a6.14,6.14,0,0,0,2.76-3.16l.07-.12c6.24-8,6.06-15.57-.53-21.93l.05,0c-6.33-8.56-17.78-7.3-23.65,2.53-2.41,4-2.64,8.59-3.34,13-.73,4.69-2.71,8.77-7.92,8.67-5.44-.11-7.71-4.36-8-9.3-.52-10.19,1.06-20,6.91-28.66a22.09,22.09,0,0,1,14.21-9.76c13.84-2.79,26.57-.57,37.42,9.09.9.8,1.68,1.63,3,1.68,2.3,6.35,6.19,12,6.12,19.33C732.78,377.79,730.54,383.07,728.92,388.63Z"/><path class="cls-1" d="M580,307.38c-.85-5.09.81-9.05,5.29-11.74,4.39-.85,6.53,1,7.26,5.38,1,6,2.33,12,3.77,17.88.91,3.74,2.69,6.05,6.33,2.08l.07-.15.7-.93.13-.18,4.26-7.38,2.79-4.17.16-.22,2.91-4-.09.1a4,4,0,0,0,2.39-2.53l-.11.09h6.86l.07,0c4.47,4.57,4.7,7.78.46,14.59-2.59,4.16-5.62,8-8.45,12.06l1.36,1.15a157.19,157.19,0,0,0,13.94-17.28l0,.05,3.64-4.73,0,.05c2.5-3.33,5.21-6.82,10-5s4,6.19,3.79,10.13a35.29,35.29,0,0,1-.74,4.06q-2.26,11.84-4.52,23.67c-.07.43-.14.87-.2,1.31-2.22,7-2.12,14.29-3.42,21.39-.64,3.5-2.76,5.61-6.6,5.11-3.61-.48-6.29-2.08-6.69-6.15-.3-3,.61-5.81,1-8.71.26-1.83,1.81-4.41-.06-5.41-2.2-1.19-3.53,1.52-5,3l-.87.84-7.44,6.78-.31.22c-3.53,2.25-7.15,1.84-10.81.37l.12.15-1.33-1.32c-.39-.72-.79-1.44-1.19-2.16-.46-4.15-1-8.3,2.37-11.68.75-.33,1.46-.72.77-1.64-.06-.09-.92.41-1.4.64-3.85,2.51-7.73,3.39-11.72.28l-.13-.12c-.32-.35-.63-.7-.94-1.06l-.08-.11C584,330.87,582.69,319,580,307.38Zm55.52,18.9c-4.4,2.22-4.19,5.36-5.37,7.68a1.74,1.74,0,0,0,.72,2.5c1.15.49,1.93-.5,2.22-1.36C633.92,332.59,634.53,330,635.53,326.28Z"/><path class="cls-1" d="M589.93,378c-1.31-3.67.9-6.36,2.57-9.19,2.15-.42,2.54,2.11,4.21,2.5l0,0a7.27,7.27,0,0,1-2.28,7.92A5.13,5.13,0,0,1,589.93,378Z"/><path class="cls-1" d="M603,372.54l4-1.87c3.87-1.41,7.92-1.66,12-2.12s7.24.49,9.63,3.84l.1.19c.66,8.48-1.17,10.42-7.67,8.26-2.62-.87-6.42-3.81-7.72-.52s3.65,4.18,6.08,5.84c.52.36,1.46.11,2.21.14l4.56,5.15c2.18,4.05,3.12,8.22,1.35,12.69l0-.05L625,407.61l.21-.12-1.49,1.25.16-.16-2.19,1.52h0C616,412.83,610,412.42,604,411l.22.25-1.33-1.44.2.11-1.83-1.7v-.08a12.93,12.93,0,0,1-1.7-3c-.71-2.66-1.23-5.52.85-7.76,2.93-3.15,6.15-.66,9.25-.06h0l2.59,1.28-.25-.1c2.27,2.07,4.77,3.81,7.54,1.09,1.85-1.81,1.72-4.18.34-6.41a11.65,11.65,0,0,0-5.94-4.45c-3.23-1.3-6.49-2.51-9.73-3.76l.1.08-3.72-3.49,0,.05C599.24,378,601,375.23,603,372.54Z"/><path class="cls-1" d="M590.57,384.77c1.4-.65,1.8-2.69,3.7-2.65,3,3.34,2.19,7.61,2.79,11.53-.06,3.5.05,7-.26,10.51S595,410.49,591,410s-4.75-3.5-4.08-7C588.12,397,589.36,390.87,590.57,384.77Z"/><rect class="cls-2" width="1209" height="582.11"/></g></g></svg>