<svg xmlns="http://www.w3.org/2000/svg" viewBox="0 0 1209 582.11"><defs><style>.cls-1{fill:#463f3a;}.cls-2{fill:none;}</style></defs><g id="Capa_2" data-name="Capa 2"><g id="Capa_1-2" data-name="Capa 1"><path class="cls-1" d="M296.59,307c-10.06.56-15.88.89-23,4s-11.63,7.44-20.34,8c-2.93.17-4.91-.16-6.58-1.29-3.69-2.5-4.23-7.83-4.32-12.8-.2-11.09,1.87-19.34,3.52-26.63,3.94-17.37,2-13.64,5.81-29.6,4.06-16.83,7-23.22,3.52-26.62-2.64-2.6-8-2.52-11.83-.62-6.55,3.28-6.3,10.93-12,39.47-2.61,13-4.09,18.55-4.82,28.94a92,92,0,0,0,1.05,20.7c1.48,9.08,3.3,11.58,4.32,12.8,4.77,5.65,12.49,6.25,15.8,6.51,1.54.12,5.68.33,17.73-3.35,14.74-4.5,14.15-6.51,22-7.63,8.93-1.28,11.28,1.11,19.05-1.38,5.53-1.78,12.31-5.55,11.8-7.93C317.5,305.81,299.18,306.84,296.59,307Z"/><path class="cls-1" d="M398.6,257c-1.15,1-1.65,2.23-2.61,4.61-3.55,8.79-2.34,15.46-4.87,16.11a2.37,2.37,0,0,1-1.65-.32c-2-1-2.19-4.15-2.32-5.58-.58-6.41-.92-10.18-2.67-12.47-3.78-5-12.32-.74-17.44-6.84-1.47-1.75-1-2.35-2.64-3.94-3.3-3.15-9-4.38-13.15-2.58-2.91,1.25-3.34,3.2-6.55,7.25-5.56,7-8.2,6.12-12.45,11.22-.63.76-8.48,10.5-6.16,22.7.44,2.33,1.7,8.93,7.61,13.44,5.61,4.29,14,5.57,20.05,2.23,4.18-2.32,6-6.21,9.48-13.51s2.64-12.93,6.19-14.15a5.34,5.34,0,0,1,4.93,1c3.8,3.24-1.46,10,1.71,17.41a16.48,16.48,0,0,0,11.86,9.16c.77.15,7.34,1.31,12.48-2.67s3.53-8.88,7.48-20.73c4.49-13.44,9.74-16.81,7.49-20.73C412.82,254.16,403,253.07,398.6,257Zm-40.72,7.37a78.87,78.87,0,0,1-7.16,19.08,37.19,37.19,0,0,1-6.87,8.9c-1.33,1.27-1.69,1.43-2,1.32-1.8-.67-1.67-12.55,4.19-21.37,2.3-3.47,4.6-5.13,5.23-9.22.44-2.91-.27-5,1.29-6.58,1.35-1.33,3.93-1.72,5.25-.67C358.85,256.62,359.24,258.3,357.88,264.38Z"/><path class="cls-1" d="M504.18,284.56c-4-3.33-11.22-.19-23,4,0,0-9.07,3.1-27.24,8.31-11,3.15-15.2,4-17.41,1.7-3.56-3.7.65-12.87.94-13.47,1.19-2.53,3.06-6.5,6.54-7.25,4.84-1.05,7.91,5.17,11.19,3.9s3.7-8.24,2.58-13.15c-.24-1-2.52-10.47-9.57-12.13-5.85-1.37-11.07,3.52-15.09,7.28A36.72,36.72,0,0,0,423,280.58c-1.22,4.37-3.8,13.58,1.06,20.7a16.75,16.75,0,0,0,4.29,4.25c5,3.42,10.39,3.07,14.79,2.91,5.81-.22,9.32-1.55,16.09-3.67,11.69-3.66,8.86-2.08,21.67-6,9.66-2.95,25-7.83,24.6-12.24A3.07,3.07,0,0,0,504.18,284.56Z"/><path class="cls-1" d="M738.37,257.12c-3.6-11-6.71-13.91-8.93-15.42-4.3-2.91-10.26-4-11.51-2.25-1,1.44,1.63,4,.68,5.25-1.42,1.8-7.65-3.59-14.8-2.9-6.12.58-11.56,5.48-14.09,10.89-4.87,10.4,2.12,20.23,2.7,21,.76,1,7.86,10.32,18.76,8.81,8.57-1.2,13.09-8.17,13.77-9.25a6.1,6.1,0,0,1,3,2.29c1.66,2.58-.15,5.08,0,8.54.35,6.81,8.13,11.33,9.57,12.12,1.06.58,7.53,4.14,9.86,1.94,2-1.91-.81-6.47-3.67-16.09C740.21,270.3,742.13,268.65,738.37,257.12Zm-26.6,5c-2.6,9-3.09,9.54-3.58,9.54-1.67,0-3.9-6.57-2.68-12.47a14.56,14.56,0,0,1,2.94-6.26c1.52-1.85,4.67-4.72,5.9-4C714.94,249.35,715.13,250.56,711.77,262.14Z"/><path class="cls-1" d="M762.29,239.62c-.91-13.82-4.17-18-6.31-20-3.7-3.49-9.44-5.61-11.19-3.91s1.92,6.18,4,14.45c1.62,6.46.32,7.6.09,25.63-.21,15.72.72,19.33,2.38,22.66,3.13,6.28,9.08,12,11.54,10.8,2.78-1.31-1.55-10.17-1.42-27.59C761.46,251.49,763,249.79,762.29,239.62Z"/><path class="cls-1" d="M836.8,216.68c-1.4.22-2.26,3.88-3.9,11.19-2.34,10.35-2.27,14.21-5.52,19.4-1.49,2.38-3.55,5.67-6.22,5.61-3.48-.08-4.14-5.77-8.9-6.87-3.36-.77-3.94,1.85-8.87,1.68-4.4-.16-5.48-2.32-9.86-1.94-1.38.12-4.78.41-5.58,2.32-.86,2.06,2.19,3.85,5,9.51,2.41,4.91,1.16,5.68,3.32,9.19s6.82,8.12,10.54,7.19c3.16-.78,3-4.8,6.23-5.61,3.56-.88,5.2,3.53,9.54,3.58,1.63,0,3.58-.58,12.12-9.57,5.24-5.51,7.86-8.27,8.84-10.22,3.74-7.45,2.49-14.88,1.9-18.4C844,225.56,839.67,216.24,836.8,216.68Z"/><path class="cls-1" d="M903.42,286.11a54.39,54.39,0,0,1-9.25-13.77c-4.16-8.92-1.33-11.14-5.31-16.41-5-6.67-13-7.74-13.83-7.84-2-.24-7.54-.9-12.48,2.67C855.1,256.15,856,266,856,266.56c.2,1.91.88,8.26,6.28,11.48,4.52,2.68,11.21,2.51,13.8-.71,3-3.68,0-10.65,2.26-11.51a2.09,2.09,0,0,1,1.64.32c3.28,1.67,4,6.17,5,9.52,2.07,7.22,6.06,11.93,8.93,15.41s6.25,7.46,10.54,7.19c2.58-.16,5.56-1.82,5.9-4C910.75,291.85,907.49,290.23,903.42,286.11Z"/><path class="cls-1" d="M937,289.27c2.4-2.06,3.2-6.37,1.61-8.22-1.31-1.53-3.36-.32-6.57-1.29-4.37-1.32-6.76-5.41-8.58-8.51-4.13-7.07-2.27-10.81-6-13.12-2.44-1.54-6.17-1.72-8.54,0a7.44,7.44,0,0,0-2.61,4.61c-1.42,6.14,2.27,11.79,4,14.44a29.77,29.77,0,0,0,13.18,11.12C926.78,289.7,933.31,292.4,937,289.27Z"/><path class="cls-1" d="M966.75,259.27c-2.32-2.07-5.78-1.46-6.58-1.3a262.06,262.06,0,0,1-13.36,33.24,171.14,171.14,0,0,1-9.76,17.08c-5.82,9.25-8.74,13.88-12.13,16.18-2.72,1.85-6.55,3.69-6.23,5.61.17,1,1.3,1.47,3,2.29,6.91,3.42,7.4,5.32,9.22,5.23,3.77-.19,7.13-2.75,20.6-26.69,2.83-5,2.32-4.26,15-32.91a30.39,30.39,0,0,0,2.26-11.51C968.75,261.34,967.39,259.84,966.75,259.27Z"/><path class="cls-1" d="M1014.78,275.52c-5.09-6.69-13.58-8.85-12.86-12.76.44-2.42,3.84-2.6,4.58-5.94.62-2.82-1-6.5-3.64-7.54-2.1-.81-4.09.28-7.23,2s-8.51,4.67-8.51,8.57c0,1.8,1.12,3.07,4,5.9,7.14,7.1,9.66,8.58,11.54,10.8,2.53,3,4.92,8.45,3,19.38a36.83,36.83,0,0,1-11.51-2.26c-2.68-1-5.13-2.32-8.22-1.61-.39.09-3.61.86-3.93,2.64-.44,2.36,4.46,5,7.25,6.55a43.36,43.36,0,0,0,16.12,4.87c4.68.52,7,.78,8.54,0C1020.6,302.47,1022.21,285.31,1014.78,275.52Z"/><path class="cls-1" d="M1087.06,272.64c-1.37-2.44-11.21.37-15.77,2-8.74,3.19-9,6.16-15.09,7.28-9.71,1.79-16.57-4.37-18.4-1.91-1.38,1.85,1.29,6.9,5,9.52,3.21,2.28,6.62,2.3,11.51,2.25a38.59,38.59,0,0,0,14.12-2.35C1079.37,285.29,1088.62,275.42,1087.06,272.64Z"/><path class="cls-1" d="M147.71,300c-6.83-.35-13.15.58-21,2.71-13.93,3.76-12.63,5.83-20,6.31-5,.33-9.3-.36-12.48,2.68a10.59,10.59,0,0,0-2.93,6.25,36.93,36.93,0,0,0,13.47.94c7.12-.86,8.52-3.28,18.38-6.64,5.74-2,13.46-4.51,23-4a47.26,47.26,0,0,1,13.15,2.58c.49-1.62,1.07-4.51-.35-6.9C157.93,302.25,155.76,300.38,147.71,300Z"/><rect class="cls-2" width="1209" height="582.11"/></g></g></svg>