<svg xmlns="http://www.w3.org/2000/svg" viewBox="0 0 79.95 81.23"><defs><style>.cls-1{fill:#fff;}.cls-2{fill:#463f3a;}</style></defs><g id="Capa_2" data-name="Capa 2"><g id="Capa_1-2" data-name="Capa 1"><path class="cls-1" d="M42.39,2.2a37.34,37.34,0,0,0-25,6C6.07,15.94.74,29.38,1.39,41.2c1,18.91,17.69,39.4,41,38,22.39-1.35,38.4-22.25,36.05-43C76.15,16.54,58.24,4,42.39,2.2Z"/><path class="cls-2" d="M53,49.59a.68.68,0,0,0-.47.14.77.77,0,0,1,0-.41c-.18.3-.38.58-.58.86a15,15,0,0,0-1.31,1.61,22.63,22.63,0,0,1-6.81,4.57A9.59,9.59,0,0,0,41.26,58a37.56,37.56,0,0,1-6.76-3.52c-.75-.54-4.91-4.7-6.54-5a1.44,1.44,0,0,0,.22-.47c-.33.27-.47.33-.46.24l-.13.26a.41.41,0,0,0-.27.34,1.85,1.85,0,0,0,0,.23l0,.06c0-.27-.13-.37-.39-.31a3.49,3.49,0,0,1-.08,1.08,5.47,5.47,0,0,0,.44.74,6.88,6.88,0,0,0,3.54,4.91c.92,1.14,1.71,2,2,1.87s-1.25-1.56.6-.38c-.79.12.84,1,2.07,1.52,3.27-.07,4.2.57,7.49.33H43c1.78-.25-.56-.39-.51-.32a.79.79,0,0,1,.25-.22c.37,0,.78,0,1.26-.05a1.42,1.42,0,0,0,1,.7c1.31.11,1.91-1.29,2.31-1.32a1.61,1.61,0,0,0,.29-.15l.16-.07c.13-.13.33-.28.55-.46s.72-.41,1.06-.63c0,0,.14,0,.24-.17a11.64,11.64,0,0,0,2.07-1.81c.16,0,.27.12.24.19a.31.31,0,0,0-.1-.35,4.07,4.07,0,0,0,.8-1.76c.32,0,.54-.91.67-1.71C53.9,50.73,54,49.82,53,49.59ZM35,59c-.24-.07.33-.43,0,0Zm.43,0a.22.22,0,0,1,.13-.25C35.63,59,35.59,59.06,35.46,59Zm3.63.22q-.14,0-.12-.36S39.2,59.27,39.09,59.25Zm-.3-.63a8.62,8.62,0,0,0,2.29-.41,1.08,1.08,0,0,0-.16.26,6.14,6.14,0,0,0-1.24.56A3.58,3.58,0,0,1,38.79,58.62Zm2.28,1.14h0S41,59,41.07,59.76Zm.94,0c.06-.27.13-.28.22,0Zm3.76-.39c-.61.37-1,.18,0,0Zm.49-.3a.19.19,0,0,1,0-.12l.08,0C46.35,58.9,46.39,59,46.26,59ZM53,52.47a.75.75,0,0,1-.24.15,3.46,3.46,0,0,0,.22-.31C53,52.44,53,52.51,53,52.47Z"/><path class="cls-2" d="M68.71,12.19A42.48,42.48,0,0,0,55,3.53C50.42,1.7,44.83,1.32,40.81,0c1,.34,2.07.69,3.09,1.06A5.83,5.83,0,0,0,42.06.7s0,.1.09.16H42A3,3,0,0,0,40.84.62a3.09,3.09,0,0,1,.52.26l-.54,0A33.62,33.62,0,0,0,36.7.05c-.11,0-4.82-.21-4.31.28-1.26.18-2.32,1.24-3.47,1.84l-1.59.35c0-.22-.67-.26-.33-.83C26,2,20.82,3.85,21,4a17.47,17.47,0,0,0,2-.62c-1.94.78-8.43,2.89-9,5l.3.22-.19.16A1.83,1.83,0,0,1,14,8.47a4.79,4.79,0,0,1-.66.95c-.3.26-.59.53-.88.8-1.09.81-2.24,1.28-3,3.23A41.69,41.69,0,0,0,2.1,27.24a26.41,26.41,0,0,0-1.06,4,43.47,43.47,0,0,0-.88,6.52c-.39.95,0,7.34.34,8.38a41.93,41.93,0,0,0,4.29,13c.57,2,2.56,4.55,4,6.24a41.69,41.69,0,0,0,3.77,4.2,18.83,18.83,0,0,1,1.73,2.57c.44.76,1.76.91,2.7,1.18a40.65,40.65,0,0,0,24.06,7.94c22.3,0,39.26-18.8,38.85-40.75C79.75,30.2,76.21,19.45,68.71,12.19Zm3.41,8.87a.83.83,0,0,0,.08.12l-.17,0ZM42.15.86a1,1,0,0,0,.19.13L42,.87ZM35,.52c-.8.49-1.32.54-1.57.15a.81.81,0,0,1-.15-.35Zm-5.1,2.6c-.27.1,0,.57-.19.42,0-.09-.1-.13,0,0a2.68,2.68,0,0,1-.22-.23ZM24,3.45l-.51.18-.3-.22ZM77.7,41.2c-.19-.11-.39-.23-.64-.36a16.62,16.62,0,0,0,.33,4.45c-.14,1.11-.32,2.21-.55,3.29-.8.26-1.45.7-.83,2a1.21,1.21,0,0,1,.45-.37c-.27,1.08-.6,2.13-1,3.17a22.86,22.86,0,0,0-2,3.55l.44.21-.24.49c-.56,1.14-1.14,2.21-1.77,3.24-.09.06-.16.12-.25.17h.13c-.3.49-.61,1-.93,1.45a2.64,2.64,0,0,0-.23-.36,40.6,40.6,0,0,1-3.21,4.7c-.54.61-1.11,1.17-1.69,1.73a.36.36,0,0,1,0-.09,47.91,47.91,0,0,1-8,5.8l.06.09a35.49,35.49,0,0,1-7.17,3l0-.15c-.82.2-2.69.63-2.94.76l.06.09c-.62.12-1.24.23-1.87.32a18.3,18.3,0,0,0-1.94,0,.9.9,0,0,1,.45.22,35,35,0,0,1-5.23.13c-.24-.26-.71-.4-1.81-.5a.84.84,0,0,1,.19.39c-.61,0-1.23-.12-1.84-.21-.92-.14-1.82-.31-2.71-.51a13.89,13.89,0,0,0-4.59-1.32c-.49-.17-1-.37-1.47-.56a2.21,2.21,0,0,0-.82-.57A2.68,2.68,0,0,0,25,75c-.57-.28-1.13-.56-1.68-.86-1-.84-2.21-2.34-3.37-2-.62-.42-1.23-.85-1.82-1.3-.82-.76-1.66-1.59-1.89-1.8A3.92,3.92,0,0,0,15,68.17a39.06,39.06,0,0,1-5-5.75c.34-.28.08-.46-.41-.59-.28-.4-.55-.82-.82-1.23l.06,0c-.08-.11-.15-.21-.23-.3A39,39,0,0,1,4.13,50.26c-.24-2.76-.48-5.6-1.24-7.07a36.23,36.23,0,0,1,.47-9.38c.15-.85.33-1.67.53-2.49a.09.09,0,0,1,.07,0c.16-.69.29-1.33.45-1.95A37.4,37.4,0,0,1,20.62,7.56,2.37,2.37,0,0,0,21.45,7c.74-.46,1.5-.88,2.28-1.29A10.56,10.56,0,0,0,25.31,5c.52-.25,1-.48,1.56-.7a.48.48,0,0,1,0,.15L28,4l-.15-.19.49-.19a1.37,1.37,0,0,1,0,.28C33,2.58,37.78,3.51,42.17,1.87c.66-.26-.12-.61-1.28-.94l.5,0c1.77,1,7.37,4.63,8,3.38,2.31.55,3,2.38,6.3,2.14,1.08.61,2.14,1.24,3.17,1.91,0,.4.6.7,1.41.95a47.44,47.44,0,0,1,8.26,7.15,4.17,4.17,0,0,0,.74.84q1.11,1.29,2.1,2.67c.83,2.34,2,6.15,3.48,6.11.2.45.38.91.57,1.38a6.61,6.61,0,0,0,0,2.78c.32-.77.61-.51.9-.21,0,.17.09.35.14.52-1.18.6.15,2.4,0,3.59l.64-.66c.07.36.12.72.18,1.09a1.67,1.67,0,0,0-.79-.16c.16,1,.29,1.93.39,2.9a1,1,0,0,1,.7-.19c0,.21,0,.41.05.63a1.47,1.47,0,0,1-.72,0c-.7,2.45-.43,3.25.8,2.42C77.73,40.48,77.71,40.84,77.7,41.2Z"/><path class="cls-2" d="M24.07,38c.6-.73,1.06-1.37.74-1.38a2.56,2.56,0,0,1-.77.86c-.15,0,1.07-1.61.07-2.39l-.08,0c.06,0,.06,0-.15,0-.73-.12,0-.13.21-.08a1.86,1.86,0,0,0-.6-.28.86.86,0,0,0-.13.14,3.44,3.44,0,0,0-.44-.75,2.81,2.81,0,0,1,.64.13c0-.08-.09-.25,0-.16a.22.22,0,0,0,.07.06c-.31-.35-.76-.76-.73-.74,1.06.17-2.36-1.29-4.14-.21L19,33s-.16.08-.33.24a2,2,0,0,0-.32.26l.25-.19c-.65.65-1.88,2-2.23,1.47a10.66,10.66,0,0,0-.45,1.2.16.16,0,0,0-.16,0c-.06,0,0,.15.12.18a7.06,7.06,0,0,0-.26,1.31,1.8,1.8,0,0,0-.1,1.38c-.16.42.76,1.14,1.73,1.69.06,0,.2.09.2.09.87.49,1.76.82,1.78.6a.92.92,0,0,0-.11-.58,7.21,7.21,0,0,0,1,0,7.44,7.44,0,0,0-.38.71c-4.39,2.33.85-.31,1.32-.83,0,0,0,0,0,.06s.2-.12.13-.09a.24.24,0,0,0-.13,0l.08,0,.49-.14a3.3,3.3,0,0,0-1,.79c.27.23,2.66-1.21,2.39-1.31a.73.73,0,0,0-.67.21.33.33,0,0,1,0-.06,1.88,1.88,0,0,0,.23-.16c.38-.07.68-.54.87-1.2.11-.13.23-.26.33-.39S24,38,24.07,38Zm.27-2h0Zm-4.17,1.74a.86.86,0,0,0,.07.1c-.11.38-.21.73-.28,1A2.64,2.64,0,0,1,20.17,37.69Zm-1.5-.36c.08-.19.17-.39.27-.59a3.06,3.06,0,0,1,.21-.29l0,.06A5.87,5.87,0,0,0,18.62,38,1.5,1.5,0,0,1,18.67,37.33Zm4.26-.66a.81.81,0,0,1,0,.17l0-.1S22.93,36.69,22.93,36.67Zm-.84-3.16-.08,0C22.1,33.41,22.32,33.38,22.09,33.51Zm-1.74-.41c-.08,0-.17,0-.27-.1C20.15,33,20.49,33.08,20.35,33.1Zm.37.31a4.54,4.54,0,0,0-1.25.47c.19-.27.33-.49.28-.48A2,2,0,0,1,20.72,33.41Zm-2,7.29-.18-.1.26,0Zm5.3-5.53c.37.1.31.16-.17.18C23.69,35.36,24,35.18,24.06,35.17Z"/><path class="cls-2" d="M64.93,37.94s-.14.1-.14.17a4.44,4.44,0,0,0-.16-.6c.17-.46.25-.79.09-.79a1.63,1.63,0,0,1-.2.47c0-.13-.1-.27-.16-.41a1.94,1.94,0,0,0-.31-1.33s-.14.06-.35.08a.09.09,0,0,1,0-.05.5.5,0,0,1,.16-.14l.19.06a.8.8,0,0,0-.17-.15s0,0-.19,0l-.13,0a.41.41,0,0,0-.05-.09h.3a1.71,1.71,0,0,0-.43-.2l-.4-.59.27.07a.79.79,0,0,1-.1-.16c-.35-.32-.79-.68-.73-.63,1,.13-2.35-1.23-3.87-.26.1-.08.19-.17.3-.25-.05,0-.17.09-.33.27a1.94,1.94,0,0,0-.31.26c.08-.08.19-.15.28-.23-.59.66-1.67,2.13-2,1.53a3.78,3.78,0,0,0-.06,1.59,1.5,1.5,0,0,0-.09.18,2.72,2.72,0,0,0,.82,3l.18.12c.51,1,1.21,1.67,2.06,1.25-1,.68.42-.13,0,.39l.28-.37a4.5,4.5,0,0,0,2.35.2c0,.2,0,.41.07.66,0,0,.23-.44.35-.75l.39-.11a1.12,1.12,0,0,0-.11.47c.19.08.68-.43,1-.9a2.11,2.11,0,0,0,1.13-1.44,4.05,4.05,0,0,0-.07-1.15s0,0,.07,0C65.47,38.22,65.09,37.84,64.93,37.94Zm-.72-1.83c-.3-.64.3-.11,0,0ZM60.09,33.3a.24.24,0,0,1-.23-.13C59.93,33.16,60.22,33.29,60.09,33.3Zm.48.38a6.16,6.16,0,0,0-1.46.62,4.56,4.56,0,0,0,.37-.75A2,2,0,0,1,60.57,33.68Zm-1.72,0c.14-.33-.14.64,0,0Zm-.7,1.15h.13l-.07.06A.17.17,0,0,1,58.15,34.82Zm0,5.81.09.1C58.13,40.73,57.67,40.66,58.11,40.63Zm3.14-.9a1,1,0,0,1-.16-.28,1.92,1.92,0,0,0,.48.32C61.48,39.85,61.38,39.86,61.25,39.73Z"/><path class="cls-2" d="M52.67,53.9l-.09,0c.33-.09-.12.72.11.63C52.75,54.54,52.85,53.85,52.67,53.9Z"/><path class="cls-2" d="M50.75,57.05c.2-.12.41-.73.49-.76C51,56.39,50.89,57,50.75,57.05Z"/><path class="cls-2" d="M48.24,58.86c.24.34.43-.51.3-.54S48.06,58.57,48.24,58.86Z"/><path class="cls-2" d="M46.14,60.36c.18.53.79-.73.73-.69S46,60,46.14,60.36Z"/><path class="cls-2" d="M41.48,60.78c0,1,1.21-.42,1.13-.4S41.47,60.43,41.48,60.78Z"/><path class="cls-2" d="M32.45,58.88c0,.2.54.27.47,0C32.92,58.86,32.44,58.66,32.45,58.88Z"/></g></g></svg>