<svg xmlns="http://www.w3.org/2000/svg" viewBox="0 0 80.92 81.54"><defs><style>.cls-1{fill:#fff;}.cls-2{fill:#463f3a;}</style></defs><g id="Capa_2" data-name="Capa 2"><g id="Capa_1-2" data-name="Capa 1"><path class="cls-1" d="M43.28,1.71A37.73,37.73,0,0,0,18.05,7.76C6.63,15.58,1.24,29.13,1.9,41.06c1,19.08,17.86,39.76,41.33,38.34C65.83,78,82,57,79.61,36,77.36,16.18,59.27,3.52,43.28,1.71Z"/><path class="cls-2" d="M22.53,43.25c.06,0,.09-.08.09-.21a2.09,2.09,0,0,0,1.68-.2c.55,0,.64.25,1.08-.21a3.94,3.94,0,0,0,.41-.87A4,4,0,0,0,27,37.58c.16-.95.18-1.73-.12-2-.1-.06-.13,1.44-.41-.13.35.35-.05-.89-.37-1.81-1.73-2-2.7-2.9-4.46-.35,0,0,0,0,0,.05-.66,1.17.37-.19.37-.19s0,0,0,.05l-.39,1a.39.39,0,0,0,0-.13c-.84.27-1,1.3-.91,2.44,0,.08,0,.14-.07.14a.08.08,0,0,0,.08-.06c0,.16,0,.31.05.47a11.29,11.29,0,0,0-.3,3,3.3,3.3,0,0,0,.84,2A7.12,7.12,0,0,0,22.47,44s-.32-.89-.5-1.23a2.14,2.14,0,0,0,.4.2A2.19,2.19,0,0,0,22.53,43.25Zm.38-2.37a2,2,0,0,0,.54-.7,1.66,1.66,0,0,1-.18.57C23.11,41,23,41,22.91,40.88Zm3.62-4.51,0-.06S26.54,36.32,26.53,36.37ZM26,34.13c.08.16-.33,0,0,0Zm-.2-.22c0,.06-.09.07-.17,0S25.79,33.83,25.83,33.91ZM24.06,32c.06,0,.08.09,0,.23S24,32,24.06,32Zm-.37.16c.27-.37.71.83.8.94a1.06,1.06,0,0,0-.37-.36s.46.78.79,1.42A5.26,5.26,0,0,0,23.18,33C23.34,32.71,23.53,32.37,23.69,32.17Zm-1.06.17c.07,0,.31.3,0,0Zm-.49.53,0,.07a.27.27,0,0,0-.08.07H22Zm-.69,1.64c0,.05,0,.09,0,.13C21.25,34.44,21.34,34.44,21.45,34.51Zm-.13.37,0,.08S21.28,34.91,21.32,34.88Zm-.49.5c0-.47.26-.8,0,0Zm0,.43c.19,0,0,.22,0,0C20.83,35.84,20.87,35.81,20.84,35.81Z"/><path class="cls-2" d="M37.39,52.35c3.11-.14,6.21-2.08,9.39-1.55,2.14.35-1.86,2.75-4.64,4.81-.49-.14-.66.33-.86.66-1.24,1-2,1.84-1.18,2.21,6,2.85,3.53,4.46-1.6,4.93-1.75.16-1.13.79,0,1.34h0c.34.15.72.3,1.1.43a4.07,4.07,0,0,0,1.06.29,6,6,0,0,0,.82.12c1.09.13,2.24.17,2.27,0a1,1,0,0,0-.26-.21,6.51,6.51,0,0,0,1.38-.48c.55-.09,1.1-.17,1.58-.3-.2.15-.68.47-.6.46a2.74,2.74,0,0,0,.7-.48,2,2,0,0,0,1.2-.69,3.88,3.88,0,0,0-.08-2.25c.17-.1.06-.39-.22-.79-.29-.88-.65-1.54-.84-1.32.06-.08.25.35.45.84a15.37,15.37,0,0,0-3.21-2.7c.22-.12.45-.26.68-.41a15.35,15.35,0,0,0,4-1.16c1-1.24,3.16-4.63,3.42-3.58,1.41-5.34-3.57-5.48-7.73-4.36l.1.05,0,.06-.27.05a.2.2,0,0,1,0-.11,23.38,23.38,0,0,0-2.42.86l-.26.1a2.11,2.11,0,0,0-.28.15,6.27,6.27,0,0,0-1.6,1c-.24.16-.48.32-.71.49a1.05,1.05,0,0,0-.24-.06l.1.16-.2.14-.06,0,.06,0C37.46,51.73,36.75,52.38,37.39,52.35ZM47.25,64c-.11-.59.18-.67.41-1.24a2,2,0,0,1-.35,1.15S47.31,63.93,47.25,64Zm-1.13-.12a2.64,2.64,0,0,0,.19-2.38c.12,0,.23,0,.24,0s-.18-.31-.36-.32a6.78,6.78,0,0,0-.36-.71.19.19,0,0,0-.08-.12c-.07-.12-.15-.24-.23-.36C47.74,60.79,47.48,62.65,46.12,63.87Zm-1.68-5.64.78.62C45.32,58.91,44.23,58.43,44.44,58.23Zm-.5,0-.19-.17s0,0,.06,0C44.4,58,44.39,58.1,43.94,58.24ZM46.71,56c.11,0,.2,0,.26.21C46.91,56.26,46.56,56.06,46.71,56Zm.55-.4c0-.05,0-.08-.06-.11A8.93,8.93,0,0,0,48.8,54s.05,0,.19-.25l.19-.26C48.62,54.44,47.55,55.74,47.26,55.63Zm1.18-.11c-.56.71.81-1.24,0,0ZM50,53.05c.1,0,.16,0,.16.16C49.93,53.25,49.88,53.19,50,53.05Zm.08-.47c.11-.27.31.33,0,0ZM50.2,49a1.05,1.05,0,0,1,0,.19C50,49.2,50,49.16,50.2,49Zm-.05.27c0,.12,0,.15-.21.14C49.88,49.19,49.94,49.12,50.15,49.22Zm.31,1.26a6.4,6.4,0,0,0-.51,1,2.88,2.88,0,0,0-.17-1.15l.12.06C49.83,50.32,50.24,48.68,50.46,50.48Zm-.7-2.08c.06.19,0,.31-.24.38C49.43,48.62,49.49,48.48,49.76,48.4Zm-.55,0a1.2,1.2,0,0,0-.23.11C48.71,48.56,49.05,48.24,49.21,48.38ZM48.46,48c-.12.11-.18-.13,0,0Z"/><path class="cls-2" d="M67.12,51.64a1.32,1.32,0,0,0-1.24-.2,2.71,2.71,0,0,0-1.43.53c-.67.34-1,.62-.26.19a8.42,8.42,0,0,0-1.6,1.75l-.21-.25.21.25-.12.17c-.13-.14-.31-.31-.61-.6a1.71,1.71,0,0,0-.75-.4,7.19,7.19,0,0,1,.88.83l-.38-.2c-.24-.21-.49-.41-.74-.59a1.38,1.38,0,0,0-2.06-.81,1.66,1.66,0,0,0-.72.09,4.68,4.68,0,0,1,.56-.53c-.1-.35-.45.16-.71.58-1.46.66-1.48,3.31-.81,4.89.51,1.23,4.61,6.36,6.34,5.19a.49.49,0,0,0,.2-.33l.23.09-.22-.13a.74.74,0,0,0-.06-.28c.81,0,.36.21.55.36s1.38-1,2.46-2.58c-.13.15-.24.24-.32.19a11.88,11.88,0,0,0,.87-1.12c-.05.1-.12.24-.2.38,1.63-2.59,3-5.94,1.17-6.67a.59.59,0,0,0,.16.49C67.36,52.32,68.13,52.75,67.12,51.64Zm-4.88,2.52.09.15c-.06,0-.08.06-.1,0A.21.21,0,0,1,62.24,54.16Zm.64,2.46a5.17,5.17,0,0,1,1.18-2,.39.39,0,0,0,.07.31,6,6,0,0,1,.23-.59c1.46-1.31,3.2-1.28,2.17,1.83-.24.71-2.33,3.91-3.14,5.31a7.16,7.16,0,0,0-1.08-1,8.22,8.22,0,0,0-1.42-1.28.56.56,0,0,0,0,.29l-.57-.38a5.93,5.93,0,0,1-.58-1.06s.05,0,.05,0L59.73,58a15.07,15.07,0,0,1-.56-1.64c.31-.12,0-.42-.1-.38-.17-.64-.29-1.19-.39-1.52.15-.17.31-.33.48-.49C60.36,54.64,62.38,58.15,62.88,56.62Zm-4.19.51a.36.36,0,0,0,.16.12l-.27-.57a.85.85,0,0,0,.06.35,7.43,7.43,0,0,1-.73-1.93l.2.5a1.12,1.12,0,0,1,.29-.74,6.54,6.54,0,0,0-.09.89.2.2,0,0,1-.18-.09c.13.33.29.68.45,1a.75.75,0,0,1,0-.15l.46.65s0,0,.06.08a.51.51,0,0,1-.25,0l.51,1A12,12,0,0,1,58.69,57.13Zm1.75-4.29-.09-.06C60.44,52.75,60.46,52.78,60.44,52.84Zm4.16,8.49c0,.17-.1.21-.27.1C64.36,61.42,64.74,61,64.6,61.33Zm1.65-2a.12.12,0,0,0,0-.05S66.3,59.35,66.25,59.35Zm.93-.94c0,.1-.09-.09,0-.17Zm.08.13Zm1-5c0,.16-.07.16-.16,0S68.14,53.43,68.24,53.5Z"/><path class="cls-2" d="M80.24,47.63a41.65,41.65,0,0,0,.47-5.11c.23-.26.31-.52,0-.73A44.56,44.56,0,0,0,80,33.4a11,11,0,0,0-1-4.27A41.84,41.84,0,0,0,75.18,20a40.25,40.25,0,0,0-6-7.93c-.16-.18-.33-.36-.5-.53s-.5-.45-.75-.69a8.07,8.07,0,0,0-2-2c-1.35-1.14-2.06-2.16-2.62-1.77l-.62-.4,0-.06a13.78,13.78,0,0,0-2.79-1.55c-.59-.3-1.19-.58-1.78-.83-.35-.19-.73-.36-1.1-.54v.11l-.4-.14a.76.76,0,0,1,.09-.09C52.54,1.93,47.83-.56,43.27.11c-.51.09-.19.44.46.87l-1-.18c.34.06.68.14,1,.22a36.57,36.57,0,0,0,4.11,2.1c.08,0,3.87,2,3.68,1.32a7,7,0,0,0,2.54.18c.84.41,1.66.83,2.46,1.28a.42.42,0,0,1-.28.23c.6.31,2.74,1.41,4,2.12a33.49,33.49,0,0,1,2.8,2.1l.47.41a30.35,30.35,0,0,0,2.9,2.64,40.37,40.37,0,0,1,9.42,14.72c.52,2.4,1.07,5.7,1.82,7.06a40,40,0,0,1-4.46,25.47A45.09,45.09,0,0,0,70,65.59a33.57,33.57,0,0,1-3.58,3.87,8.31,8.31,0,0,1-2.48,1.12c-.75.21-1.28,1.61-1.85,2.29a32.88,32.88,0,0,1-5.63,3C40.84,82.32,21.69,78.39,11,65.1,0,51.6,1.07,32.38,10.41,18.28,15.53,10.55,23.29,6.63,32,4c2.78-.85,7.19-3.57,2.56-2.84-2.54,0-8.35,0-8,1.48-2.1,1-4.22.35-6.14,3.19-.24.35.7,0,1.33-.34l-.09.08a38.56,38.56,0,0,0-3.35,2c-.33.21-.64.44-.95.66-.36-2-2,.79-3,2.36-.32.28-.63.58-.93.87a2.23,2.23,0,0,1-.34-.81c-1.21.52-2,2.68-2.8,4.27-.45.57-.9,1.15-1.32,1.74a.68.68,0,0,1-.27.07c-1.16,0-1.75,2.12-1.84,2.64-.16,1-5.1,7.31-3.65,9-.22.7-.42,1.39-.6,2.1a4.3,4.3,0,0,0-1.11,1.86c.4,0,.54.08.61.18s-.09.41-.13.62c-1.09.2-.87,2.41-1.28,3.37l.78-.39c-.05.4-.1.79-.14,1.19a1.54,1.54,0,0,0-.71-.51c-.17,1-.3,2-.4,3.08.42-.16.71-.13.9.09,0,.15,0,.3,0,.45a1.31,1.31,0,0,1-.91-.09c-.18,1.79-.45,2.28.6,2.56a.48.48,0,0,0,.29,0c0,.49,0,1,.06,1.48a5.5,5.5,0,0,0-1-.68,8,8,0,0,0,1.6,5.54c.12.68.26,1.37.41,2-.8.68-1.73,1.49-.2,2.59a1.16,1.16,0,0,1,.55-.94h.09c.14.52.3,1,.47,1.53.07.22.16.44.23.66-.53,1.72.17,3.52,1.24,5.45.36-.19.67-.34.91-.48.1.19.19.38.29.56a4.81,4.81,0,0,0-.53.21c1.41.67,1.59,2.26,2.07,3.54a2.17,2.17,0,0,0,.32-.67c.49.74,1,1.45,1.53,2.14a1.49,1.49,0,0,0-1.17,0c1.51,1.91,3.31,3.3,4.94,5.07a4.21,4.21,0,0,1,.73-.19q.94.85,1.95,1.65a5,5,0,0,1-1.78-.55,36.25,36.25,0,0,0,8.61,6,3.35,3.35,0,0,0,.27-1c.44.21.89.42,1.34.61a3.56,3.56,0,0,0-.72.39,1.55,1.55,0,0,1,1.17-.19l.68.28c1.56.88,3,3.17,4.41,1.5l.84.23a6.92,6.92,0,0,0-.28.88A26.69,26.69,0,0,0,33.2,81a1.42,1.42,0,0,0-.64-.92c.45.09.9.18,1.36.25l-.16.06c1.22.49,1.94,1.15,3.35,1.18-.55-.19-.65-.46-.31-.81a2.52,2.52,0,0,0,.58,0q2.15.18,4.29.15a2.94,2.94,0,0,1-.1.48c.81,0,1.63.09,2.44.18a1.27,1.27,0,0,1-.41-.73c1.39-.09,2.78-.23,4.15-.45.17.8,6.19-.61,5.67-1.21,0,0,0,0-.07-.06.31-.09.61-.19.92-.3a1.59,1.59,0,0,0,1.47.06c1.48-.46.68-.65,2.29-1.23,1.13-.42,4-.57,4.26-2.05,0-.22,3.68-2.28,4.22-2.65a3.41,3.41,0,0,0,1.53-2l1.1-1c.07.32.3,0,.6-.6a37.09,37.09,0,0,0,3.53-4.21c.14.2.06.45-.43.76.43.43.59-.14.54-.91.3-.42.6-.86.89-1.3,0,.15,0,.34.07.56a5.29,5.29,0,0,0,.64-1.7,39.13,39.13,0,0,0,3.29-7c.3-.82.56-1.65.8-2.49a14.52,14.52,0,0,0,1.25-4.73A2.7,2.7,0,0,0,80.24,47.63ZM50.91,4.09l-1.35-.81c.86-.12,1.32,0,1.38.44A1,1,0,0,1,50.91,4.09ZM4.93,23l.36,0-.23.51A.87.87,0,0,0,4.93,23ZM9.66,66.55c.31.38.63.75.95,1.12,0,.18,0,.37,0,.58A7.44,7.44,0,0,1,9.66,66.55ZM20.52,76c-.09-.21-.18-.4-.26-.57l.39.22A2.84,2.84,0,0,0,20.52,76Z"/><path class="cls-2" d="M50.44,37.1c-1.49,1.22-2.3,2.45.84,2.88a1.59,1.59,0,0,0,.88-.08,4.28,4.28,0,0,0,.54.12c1,.84,3,.6,4.76.49l.75.09.21,0a5.28,5.28,0,0,1,1,.22c.14.06.58.29,1.15.6-.11.24-.28.55-.08.53-.05,0,.24-.23.4-.35l.48.26a.18.18,0,0,0-.1.16.47.47,0,0,0,.16-.13l.31.27a.25.25,0,0,1,.13,0,.1.1,0,0,1,0,.13,2.45,2.45,0,0,1,.43.43c-.6.34,1.22,1.13,2.06,1.46-.57-.37-1.08-.7-1.31-.83,0-.12-.12-.31-.19-.5,0,0-.05.13-.2.25l0-.33q.12,0,.15.06a1.89,1.89,0,0,1-.06-.18l.55.28c.27.39.52.83.89.56,0,0,0-.06,0-.11.93.43,1.51.6,1.12.1-1.81-2.31-3.93-4.54-6.73-5.61a16.78,16.78,0,0,0-3-.51c2-1,3.82-2.13,4.27-2.37s4-2.32,5.71-3.6c.54.61.15,0,.21-.15l0,0s.07,0,.13,0l-.1-.07c.64-.5.89-.82.36-.76-.17,0-.43.07-.75.14a.28.28,0,0,0,0-.13,6.16,6.16,0,0,1-1-.15c-.15,0-6.07,2.2-8.1,3.07a31.69,31.69,0,0,0-3.86,1.87c-.47.22-.65.32-.18.11A5.77,5.77,0,0,0,50.44,37.1Zm-1,2c-.23-.23.73-.33,0,0Zm1.11.5-.23-.06C50.62,39.44,50.68,39.45,50.58,39.65Zm.34,0,.35,0a4.18,4.18,0,0,0,.66.24Zm2.74.53.46.06h.07C53.75,40.27,53.58,40.2,53.66,40.17Zm8.71-8.83-.17.05Z"/></g></g></svg>