<svg xmlns="http://www.w3.org/2000/svg" viewBox="0 0 80.67 87.54"><defs><style>.cls-1{fill:#fff;}.cls-2{fill:#463f3a;}</style></defs><g id="Capa_2" data-name="Capa 2"><g id="Capa_1-2" data-name="Capa 1"><path class="cls-1" d="M17.33,1.36a16.45,16.45,0,0,0-6.76,9.9c-.32,1.35-1.62,6.82.74,9.93s7.34,2.36,9.45-.56C23.38,17,22.74,8.48,17.33,1.36Z"/><path class="cls-1" d="M43.09,6.54a35.25,35.25,0,0,0-24.58,6.21C7.38,20.76,2.14,34.67,2.78,46.9c1,19.57,17.4,40.78,40.27,39.32,22-1.4,37.77-23,35.45-44.5C76.3,21.38,58.68,8.4,43.09,6.54Z"/><path class="cls-2" d="M64.28,39.66c-.7,2.56-1.79,5.37-4.07,6.93a5.07,5.07,0,0,1-7-.8c-.36-.42-3.76-5.93-4.35-4.73-1.21,2.47.4,5.35,2.67,7.29.6.79,1.1,1.35,1.28,1.31s-.05-.26-.12-.44l.42.27c0,.23.94.82,1.66,1.23,2.2.2,3.46.69,5.52-.48,1.16-.66-.5-.16-.44-.12.35-.16.67-.31,1-.48,1.3.52,1.61-.55,1.83-1.29l.27-.27c.07.07.2,0,.22-.08a.18.18,0,0,0-.12,0,12,12,0,0,0,1-1.12c-.07.09,0,0,.13-.13a.76.76,0,0,0-.13.13,15.76,15.76,0,0,0,1.19-1.78c.13,0,.22,0,.19,0s0,0-.13-.06c.17-.3.33-.6.48-.91,0,.1.07.23.09.29s0-.26,0-.39a20.6,20.6,0,0,0,1.3-3.5A1.5,1.5,0,0,0,64.28,39.66ZM54.46,50.13l.07,0-.06.08C54.41,50.22,54.43,50.17,54.46,50.13Zm4.41.27.05.15Zm.86-.14-.15.07a.55.55,0,0,1,0-.13l.07,0A.36.36,0,0,1,59.73,50.26Zm2.33-1.18c-.45.55-.49.23,0,0Zm.26-.34c0-.06,0-.08,0-.09S62.35,48.7,62.32,48.74Z"/><path class="cls-2" d="M27.45,50.4c.53-.09,1.06-.77,1.43-1.4.35-.3.69-.61,1-.94.14,0,.24,0,.21,0s0,0-.12-.06c.19-.2.37-.4.54-.61,0,0,0,0,0,0,1.4-1.7,2.09-3.61,1-5.16-1.57-2.14-4.9,6.45-8.21,6.66a5.54,5.54,0,0,1-5.41-3.37c-.18-.37-2.2-6.8-3.17-4.42s-.16,4.72,1.38,6.68c.54,1.29,1.07,2.4,1.27,2.36s-.56-1.33.53-.2c-.76,0,.44.9,1.27,1.48,2.2.41,2.84,1.46,5.21.89,1.2-.22-.24-.33-.37-.25a2.08,2.08,0,0,1,.18-.39l.45-.12.05,0a3,3,0,0,1,.55-.25s0,0,0,0,0,0,.1.16c0,.46-.13.09-.14-.11a1.61,1.61,0,0,0-.31.42C26.63,53.23,27.05,50.48,27.45,50.4Zm-10-1.25.06.05-.1,0S17.45,49.17,17.46,49.15Zm1.41,1.69c-.15-.09.32-.28,0,0Zm.3,0a.19.19,0,0,1,.15-.17C19.31,50.87,19.26,50.93,19.17,50.89Zm2.47.67s-.05,0-.05-.1h.08C21.68,51.53,21.67,51.57,21.64,51.56Zm1.35.55s0-.66,0,0Zm.68,0c0-.22.08-.23.15,0Zm1.73-.87a.07.07,0,0,0,0,0l.17-.07a1.54,1.54,0,0,1,.09.24C25.74,51.52,25.43,51.28,25.4,51.23Zm.4-.22.24-.12S26,51,26,51.05,25.82,51.13,25.8,51Zm.52.55c-.39.36-.69.24,0,0Zm.31-.28s0,0,0,0C26.44,51.09,26.79,51.14,26.63,51.28Z"/><path class="cls-2" d="M49.24,66.23a2.82,2.82,0,0,0-.41-2,3,3,0,0,1,.49.83A11.81,11.81,0,0,0,46,60.62c-.31-.12-.81-.29-1.38-.47a10.28,10.28,0,0,0-1.07-.35,6.6,6.6,0,0,1-2.15-.92c0-.06,0-.11.15-.14a17.93,17.93,0,0,0-3,.18c.16,0,.33-.14.23-.16s-.54.14-.39.18a9.91,9.91,0,0,0-2.77.74c-.86.17-2.42,1.66-3.47,2.55.17.18-.1.14-.11.11l-.4.31c0-.15-.12,0-.19.13a.52.52,0,0,1-.3.11,13,13,0,0,0-.73,2l-.13.26a6.64,6.64,0,0,0-.47,1.43c-.3,1.53.65,1.16,1.35.61A20.93,20.93,0,0,0,35,65.62c.55-.12.95-.25,1-.41h-.08l.21-.09.5,0a4,4,0,0,0-.59.35c.1,0,.42-.21.71-.36a32.88,32.88,0,0,1,3.53-.12c0,.22.65.19.47.08l-.13-.07h.21c1.29.46,2.52,1.2,4,1.74,2.86,1,3.94.18,3.92-1.23a1,1,0,0,1,0,.75,4.5,4.5,0,0,0-.21.49c-.24.13-.46.21-.44.3a1.32,1.32,0,0,0,1.12-.64C49.45,66.15,49.39,66.15,49.24,66.23Zm-3.53-5.54-.05,0C45.75,60.69,45.75,60.7,45.71,60.69Zm-7.4-1.28c-.1.12-.15.11-.17,0Zm0,.07c.1,0,.09.06,0,.13S38.09,59.54,38.31,59.48Zm-.8-.09c.15,0,.15.11,0,.22S37.35,59.52,37.51,59.39Zm-.44.21-.16.12C36.69,59.84,36.89,59.61,37.07,59.6Zm-.78.14c-.07.09-.19,0,0,0Zm-1.45.7c.1,0,.11,0,0,.1S34.72,60.56,34.84,60.44Zm-.5.42c-.39.08-.28-.08,0,0Zm-.06,0Zm-.57.38c0,.12-.11.13-.2.15C33.62,61.16,33.7,61.12,33.71,61.23Zm-.94.67a1.51,1.51,0,0,0-.21.23C32.33,62.17,32.67,61.88,32.77,61.9Zm-1.28,1s.15-.06,0,0Zm17.39,2.55-.08-.26C48.93,65.22,49,65.32,48.88,65.43Zm.08.32c.23.46-.08.73-.39.91A4.23,4.23,0,0,0,49,65.75Zm-.07.85c.06,0,.22-.06,0,0Z"/><path class="cls-2" d="M79.54,46.24c0-.35,0-.7,0-1.05a5.16,5.16,0,0,0,.92.51,9.58,9.58,0,0,0-1-2.88,41.86,41.86,0,0,0-1.71-9.24,19.74,19.74,0,0,0-1.65-4.72,5,5,0,0,0-.47-.8c-.48-1-1-2-1.57-3,.2-.46.18-.84-.46-.8-.12-.19-.24-.37-.35-.56,0-.44-.14-.58-.41-.64-.07-.12-.14-.24-.22-.35-.38-.57-.77-1.13-1.18-1.69-.53-1.9-2.58-3.89-3.83-4.86-.71-.57-1.46-1.16-2.2-1.78a52.87,52.87,0,0,0-5.16-3.9A42.73,42.73,0,0,0,55.8,7.82a.59.59,0,0,1,0,.23l-.59-.28.25-.12a35.25,35.25,0,0,0-6.3-2.48A3.08,3.08,0,0,0,48.71,5a2.53,2.53,0,0,1,.21.64l-.44-.1c-.06-.65-.5-.86-2.29-1.11C44,4.17,42,3.3,42,4.8H41.2c0-.14,0-.3,0-.46-1.6.15-3,.13-3.88.66l-1,.11-.12,0L36.27,5l-1.16.27a.86.86,0,0,1-.32.1l-.71.12-.5.1c-3.67.74-7.84,1.63-10.83,3.73-.45-1.22-2.28-4.46-3-6.2-.09-.3-.2-.6-.3-.88a.52.52,0,0,1,0-.17.34.34,0,0,1,0,.1C19.2,1.58,19,1.08,19,1a10.74,10.74,0,0,0,.4,1.84,13.36,13.36,0,0,0,0,1.9c-.38-.65.15-2.17-.61-2.38-.41-.09.38,4.78.81,4.7a1.34,1.34,0,0,0,.12-.24c.08.42.18.83.28,1.25a3.5,3.5,0,0,0-.78-.89,3.27,3.27,0,0,0,.79.92c.29,1.14.62,2.28.88,3.42a23,23,0,0,1,.33,3.28l.14-.55c0,.16,0,.31,0,.48-.34,1.31-.86,3-1.2,4.14h.11a.65.65,0,0,1,.15.08,1.42,1.42,0,0,1,0,.3,1.4,1.4,0,0,1-.1.16.8.8,0,0,1-.26-.4c-.14.46-.23.79-.26.89a.8.8,0,0,0,.15,0,4.22,4.22,0,0,1-1.27,1c.35-.45.76-1.09.65-1.17A4.82,4.82,0,0,1,16.67,21a8.9,8.9,0,0,1,.76-.49,5.59,5.59,0,0,1-2.18.45,4.87,4.87,0,0,1-1.64-1l-.45-.55a.3.3,0,0,1-.1-.07c-.09-.11-.17-.23-.25-.35l-.19-.26a6.41,6.41,0,0,1-.87-3.51c.06-2.55,1.34-5.16,2.55-7.23.75-1.28,3.83-6.72,4.19-7A15.75,15.75,0,0,0,16,3.1,8.2,8.2,0,0,1,17.38.86a1.42,1.42,0,0,0,.79,0C17.9.67,17.82.57,17.9.53a7.17,7.17,0,0,0-1,.08A.55.55,0,0,0,17.24,0C17-.2,15.61,1.31,14.11,3.37c.07,0,.13-.07.18,0a17.67,17.67,0,0,0-1.17,1.56c0-.1.1-.22.16-.34-2.22,3.26-4.42,7.26-3.73,8.34a.74.74,0,0,0,.29-.59s.06.39.14.95a9.12,9.12,0,0,0,.88,7,6.64,6.64,0,0,0-1.18,1.42c-2,1.69-5.78,5.09-4.57,6-.82,2.13-2.79,3-2.34,6.25,0,.28.73-1.14.76-1.2,0,.29-.09.66-.17,1.07-.45,1.28-.83,2.59-1.16,3.9-2.41-2.24-.56,4.34-1,4.61a.78.78,0,0,1-.8-.37c-1.35,2.55,1.2,5.21-.24,7.58-.48.78.38,2.6.66,3.2.31.08.15,9.4,2.8,8.61l.42,1a7.11,7.11,0,0,0,.49,3c.15-.8.46-.6.78-.37l.25.47c-1,.83.81,2.37,1.18,3.38L7.06,68c.21.33.44.66.66,1a1.53,1.53,0,0,0-.83.1c.58.82,1.17,1.63,1.76,2.44A.79.79,0,0,1,9.19,71l.33.43a1.21,1.21,0,0,1-.59.42c1.15,1.32,1.13,2,2.09,1.42.3.27.56.55.83.83a6,6,0,0,0-.78.16A11,11,0,0,0,14.88,77c.79.68,1.6,1.33,2.44,2-.07.86.08,1.67,1.54,1.49a1.08,1.08,0,0,1-.23-.57c.85.57,1.71,1.11,2.59,1.61a9.59,9.59,0,0,0,3.61,2.4c.09-.17.15-.32.22-.46l.5.21a.16.16,0,0,1,0,.07,2.66,2.66,0,0,1,.28,0c.92.38,1.85.73,2.81,1,.18.15.37.29.55.47a2.72,2.72,0,0,0,0-.3l.5.16c.45.14.89.26,1.34.38a1.85,1.85,0,0,0-.45.44c2.26.58,4.47.65,6.74,1.11a2.91,2.91,0,0,1,.26-.33c.72.08,1.44.14,2.16.17a5.33,5.33,0,0,1-1.19.38,28.33,28.33,0,0,0,10.1-.29,3.49,3.49,0,0,0-.24-.71L49.45,86a3.38,3.38,0,0,0-.18.44,1.4,1.4,0,0,1,.3-.47c.66-.15,1.33-.33,2-.52,1.56,0,3.33.44,3.52-1.24l.82-.35c.08.26.17.52.27.77a22.3,22.3,0,0,0,2.76-1.44,1.37,1.37,0,0,0-1-.32l.78-.41c.65.33,3.1-.93,3.5-1.2-.52.18-.76,0-.71-.43a4.23,4.23,0,0,0,.62-.52,37.65,37.65,0,0,0,3.08-2.42,2.22,2.22,0,0,1,.3.55c.62-.49,1.27-1,1.93-1.4a1.42,1.42,0,0,1-.88-.39,40,40,0,0,0,2.82-3,1.22,1.22,0,0,0,.07.17c.42.83,4.28-4.25,3.5-4.38l-.48.08c.21-.32.41-.64.61-1,1.31,0,3.19-.63,1.66-2.17.85-.73,3.37-3.75,2.74-4.94-.11-.2,1.64-3.85,1.85-4.42.69-1.89-.43-2.6-.17-4.63,1.16,2,.71-.11.14-2.11.11-1.07.19-2.15.22-3.23.57-.18,1.08-.1.71.8C81.17,48,80.42,46.94,79.54,46.24Zm-62.91-45q0-.36.36-.15S16.43,1.77,16.63,1.27ZM68.49,20.43a.59.59,0,0,1-.14-.18ZM41.38,6.8h0ZM30.29,8.69a1,1,0,0,1,.18.3l-1.55.08.25-.2,1-.27A.34.34,0,0,1,30.29,8.69Zm-9.12,8.09s0,1.16-.57,1.21A3,3,0,0,1,21.17,16.78Zm-.77,1.9c0-.43,0-.52.39-.26C21,18.55,20.46,18.71,20.4,18.68Zm-2,1.8c.12,0,.2-.27.46-.2C18.72,20.38,18.15,20.58,18.37,20.48ZM14.44,4l-.13.2C14.34,4.1,14.2,4,14.44,4ZM14,4.62c-.3,0-.16-.19,0,0Zm-.46.92c.36,0,0,.32-.15.31Zm-.42-.22c0-.14.12.12,0,.23ZM13,5.14Zm-.26,1.48c.07.32,0,.4-.13.25S12.59,6.65,12.73,6.62Zm-.32.91h-.23A.78.78,0,0,1,12.41,7.53Zm-.19,0Zm-.16.58L12,8.28a.12.12,0,0,1-.05-.11C12,8.09,12,8.08,12.06,8.12Zm-1.72,3.64.09-.08-.06.16ZM1.25,52l.12.89A2.31,2.31,0,0,0,1,52.74,1.58,1.58,0,0,0,1.25,52Zm0,4.15c.19-.2.39-.39.59-.59.14.62.29,1.23.46,1.84C1.86,56.67,1.48,56.19,1.28,56.18ZM34,86.26a3.62,3.62,0,0,1-.68-.23l.59.11Zm12.16.38-.09,0h.08S46.2,86.62,46.2,86.64ZM65.48,75.3C53,87.38,33.58,87.07,19.63,77.76S.1,51.42,5.15,35.44a44.82,44.82,0,0,1,5-10.6,28,28,0,0,0,2.17-2.92,7,7,0,0,0,.79.62c4.49,3.13,9.45-.45,10.51-5.2a13.85,13.85,0,0,0-.43-6.67l1.61-.5c1.29-.1,2.57-.27,2.71-.3s4.25-.59,3.71-1A5.29,5.29,0,0,0,32.76,8c1.07-.25,2.14-.47,3.21-.65a.47.47,0,0,1-.1.22c.84-.16,4.39-.68,5.29-.74,2.48.38,6.08,1.31,7.19.81,0-.13,0-.25,0-.37l.23,0c-.06.1-.1.2-.16.3a4.78,4.78,0,0,1,1.08-.08,27,27,0,0,1,3,.89,29.47,29.47,0,0,1,3.36,1.47,51.28,51.28,0,0,1,5.34,3.93c1.56,1.11,5.85,6.49,7.27,6.65,1,1.24,1.88,2.51,2.72,3.83,1.6,3,3.08,6.16,3.37,6.81a1.13,1.13,0,0,0,.1-.13,40.22,40.22,0,0,1,3,13.55c0,.13,0,.26,0,.4A40.72,40.72,0,0,1,76.6,55.78q-.27.39-.6.81c-.36.41-.26,1.27-.2,2A40.24,40.24,0,0,1,65.48,75.3Zm8.17-7.38-.22.07.27-.48A.42.42,0,0,1,73.65,67.92ZM78.2,56.46c.07-.28.14-.55.2-.82C78.63,55.83,78.5,56.25,78.2,56.46Z"/></g></g></svg>