<svg xmlns="http://www.w3.org/2000/svg" viewBox="0 0 77.66 83.88"><defs><style>.cls-1{fill:#fff;}.cls-2{fill:#463f3a;}</style></defs><g id="Capa_2" data-name="Capa 2"><g id="Capa_1-2" data-name="Capa 1"><path class="cls-1" d="M42.06,2.52C30.78,1.29,21.93,6.33,18.44,8.65A40,40,0,0,0,1.28,45.28c2.24,21.55,24.54,42.32,47,37,19.09-4.51,30.47-26,27.78-45C73.58,19.78,59.17,4.39,42.06,2.52Z"/><path class="cls-2" d="M57.32,41.77c.4,1.42.94,2.32,1.6,1.75-.75.95.33-.19,0,.53.1-.21.17-.37.22-.5a2.11,2.11,0,0,0,1.84.28c0,.27,0,.56.05.91,0,0,.18-.62.27-1l.3-.16a3.5,3.5,0,0,0-.09.66c.16.11.53-.61.8-1.25a3.32,3.32,0,0,0,.88-2,9.52,9.52,0,0,0-.06-1.6.07.07,0,0,0,.06.06c.48.09.18-.44.06-.3a.57.57,0,0,0-.12.24c0-.28-.07-.56-.12-.83.14-.64.2-1.1.07-1.1a3.71,3.71,0,0,1-.15.66c0-.19-.08-.39-.13-.58a3.6,3.6,0,0,0-.4-2.13s0,0-.15.07l-.1,0s0-.08,0-.12h.24A1.2,1.2,0,0,0,62,35c-.1-.28-.2-.55-.31-.81a.63.63,0,0,1,.22.09,1.59,1.59,0,0,1-.08-.22c-.27-.45-.62-1-.57-.89.77.19-1.83-1.7-3-.35.08-.11.15-.24.24-.35s-.13.12-.26.38a1.61,1.61,0,0,0-.24.36l.21-.31c-.46.93-1.3,2.94-1.52,2.11a9.17,9.17,0,0,0,0,2.23,1.53,1.53,0,0,0-.07.24,5.94,5.94,0,0,0,.63,4.13Zm.6,1.08L58,43C57.94,43,57.58,42.89,57.92,42.85Zm2.45-1.26a1.53,1.53,0,0,1-.12-.38,1.63,1.63,0,0,0,.37.44C60.55,41.77,60.47,41.77,60.37,41.59Zm2-6.1c.27.12.24.21-.09.26l0-.06A.76.76,0,0,1,62.37,35.49Zm-2.9-2.85c-.07,0-.13,0-.18-.17S59.57,32.63,59.47,32.64Zm.37.54A3.93,3.93,0,0,0,58.7,34,8.63,8.63,0,0,0,59,33C59.17,32.88,59.48,33,59.84,33.18Zm-1.34,0c.11-.47-.1.89,0,0ZM58,34.76s.08,0,.1,0l-.06.07A.15.15,0,0,1,58,34.76Z"/><path class="cls-2" d="M15.84,34.84c-.05.2-.19.85-.31,1.63,0,0-.07-.08-.11,0s0,.2.08.25a15.79,15.79,0,0,0-.18,1.78,4.6,4.6,0,0,0-.07,1.88c-.11.57.52,1.54,1.2,2.29,0,0,.14.13.14.13.6.67,1.21,1.11,1.23.82a2,2,0,0,0-.08-.79,3,3,0,0,0,.73,0c-.09.27-.18.58-.27,1-3.07,3.19.59-.41.92-1.12,0,0,0,0,0,.08.11-.13.14-.17.09-.13a.12.12,0,0,0-.09,0l.06,0,.34-.19a3.42,3.42,0,0,0-.68,1.07c.18.31,1.84-1.65,1.66-1.79a.42.42,0,0,0-.47.3.24.24,0,0,1,0-.08,1.88,1.88,0,0,0,.16-.23c.26-.09.47-.72.6-1.62l.24-.54c0-.25.09-.35.14-.33.41-1,.74-1.87.51-1.88a3.92,3.92,0,0,1-.53,1.18c-.09,0,.73-2.19,0-3.26,0,0,0,0,0,0s0,0-.1,0c-.51-.15,0-.17.14-.11a1.36,1.36,0,0,0-.41-.38,1.74,1.74,0,0,0-.1.19,6.18,6.18,0,0,0-.3-1,1.08,1.08,0,0,1,.44.18c0-.11-.06-.33,0-.22a.25.25,0,0,0,0,.07c-.21-.46-.52-1-.5-1,.73.22-1.64-1.76-2.87-.28l.18-.27s-.12.1-.24.33a3.37,3.37,0,0,0-.21.34l.17-.25C16.93,33.73,16.08,35.61,15.84,34.84Zm1.81,2.62a2,2,0,0,1,.14-.39l0,.08a13.3,13.3,0,0,0-.4,2,3.87,3.87,0,0,1,0-.83A7.25,7.25,0,0,1,17.65,37.46Zm.84,1.3a1.21,1.21,0,0,1,.05.14c-.08.52-.14,1-.19,1.35A6.78,6.78,0,0,1,18.49,38.76Zm1.92-1.39a.86.86,0,0,1,0,.23.51.51,0,0,0,0-.13A.36.36,0,0,1,20.41,37.37Zm-2.9,5.48-.12-.13.18,0A.24.24,0,0,1,17.51,42.85Zm3.88-6.45.05,0Zm-.2-1.07c.25.13.22.22-.12.25C20.94,35.59,21.15,35.35,21.19,35.33Zm-1.36-2.26-.06,0C19.83,32.93,20,32.89,19.83,33.07Zm-1.21-.56c-.06,0-.12,0-.19-.13S18.71,32.48,18.62,32.51Zm.25.42a2.65,2.65,0,0,0-.86.65,6.39,6.39,0,0,0,.2-.65A.69.69,0,0,1,18.87,32.93Z"/><path class="cls-2" d="M24.39,53.11a19.69,19.69,0,0,0,8.67,4.58,1,1,0,0,0-.32.33s.88,8,1.49,7.93c.32,0-.37-1.71.78-.22-.92-.06.2,1.14,1.08,2l.83.11a4.35,4.35,0,0,0,3.73,1.14,1.32,1.32,0,0,0,.52-.09,8.47,8.47,0,0,0,1.66-.55,6.71,6.71,0,0,0,3.26-3.08.31.31,0,0,0,.1,0c.3.13.21-.16.07-.37A8.76,8.76,0,0,0,47,62.47a1.08,1.08,0,0,1,.07.18.78.78,0,0,0-.05-.32,10.16,10.16,0,0,0,.11-1.91c0-1-.15-1.9-.29-2.84,4.4-.83,9.49-2.32,9.94-4.64s-1.87-1.7-3.34-1.06a6.9,6.9,0,0,0-1.85.63.58.58,0,0,0,.13.14L50.8,53l-.51.2s0,0-.09,0c-.32.12-.63.24-1,.35a3.67,3.67,0,0,0-1.65.52l-1,.25h-.09a11.45,11.45,0,0,1-1.22.31h-.77c-.57,0-.86.15-1,.3-.65.09-1.3.17-2,.22.11-.3-.33-.18-.82.05-.83,0-1.66.06-2.48,0a1.71,1.71,0,0,0-.54-.12c.11,0,1.47-.25.6-.37s-2.83-.57-2.86-.58c-.18.49-.59.5-.06,0-2.62.16-9.12-3.31-9.67-2.35a1.66,1.66,0,0,0,.14-.76c-.22.38-.33.51-.35.42,0,.22-.06.45-.08.67C24.07,51.89,23.12,51.92,24.39,53.11Zm19,12.74a2.45,2.45,0,0,1,0-.27c-.09,0-.09.17-.05.3a3.74,3.74,0,0,1-1.25.9,3.12,3.12,0,0,0-.77.22,3,3,0,0,1-.43.06c.24-.64-.22-.39-.69,0a6.93,6.93,0,0,1-1.36-.29,1.63,1.63,0,0,0-.5-.4c-.1,0,1.25.15.54-.27a5.23,5.23,0,0,1-1.38-1.34,5.66,5.66,0,0,0-1,.1,7.46,7.46,0,0,1-.79-2.08,12.29,12.29,0,0,1-.22-1.38c.89-.52.34-2.12.5-2.42s-.11-.5-.42-.78a25.61,25.61,0,0,0,3.5.23c0,.14,0,.28,0,.42a7.75,7.75,0,0,0,.41,1.77,1.09,1.09,0,0,0-.1.47l.21.28a.17.17,0,0,0-.12,0s.08,0,.14,0c.19.27.35.53.48.72.28.43.4.59.33,0A7.76,7.76,0,0,0,41,58.37c.86-.06,2.36-.22,4.13-.5a1.49,1.49,0,0,0,0,.21l-.19,0c-.71,0-.61,2.53-.54,2.53.38,0,.54-.2.51-.51a2,2,0,0,1,.24.73,12.27,12.27,0,0,1-.26,1.82l0,0s0,.06,0,.09l0,0c0,.06,0,.12,0,.18a.26.26,0,0,1,0-.15,3,3,0,0,0-.77,1.2,2.46,2.46,0,0,0-.63,1.7.23.23,0,0,1,.2,0Zm-8-5.37s0-.07,0-.1S35.52,60.49,35.46,60.48Zm.11-1.79c.08,0,.63.32,0,.16ZM34.07,58q-.09-.06,0-.09Zm0,2a.34.34,0,0,0,0,.1C34,60.08,33.92,60.06,34.12,60Zm.08,2.3.15,0Zm.57,1.54,0,.06C34.65,63.89,34.69,63.87,34.77,63.86Zm.11.37,0,0-.13,0A.3.3,0,0,1,34.88,64.23ZM45.2,58.86c0,.18,0,.36,0,.55C45.05,59.29,45.11,59.08,45.2,58.86ZM33.34,61c0-.11,0,0,0,0Zm-.06-.15c-.13-.34-.37-1.09.1-1.09A6.31,6.31,0,0,0,33.28,60.83Zm.33.2c-.08-.07.26,0,.18.11Zm.51-.59Zm.08,1.28.11.05s0,.07,0,.1h-.1C33.94,61.86,34.05,61.79,34.2,61.72Zm.13,1a.12.12,0,0,1,.13-.08.3.3,0,0,1,0,.1A.39.39,0,0,1,34.33,62.68Zm.28,2.19c.1-.17.21-.21.34-.13C34.91,64.83,34.79,64.88,34.61,64.87Zm.4-.25s0,0,0,.06S34.91,64.68,35,64.62ZM36,67c-.08-.06,0-.14.1-.18l0,0A.6.6,0,0,1,36,67Zm-6.39-13.7-.11.1-.18-.07C29.4,53.15,29.64,52.88,29.61,53.32Zm-.47-.21-.08.15-.1,0,0,0C29.06,53.09,29.11,53.07,29.14,53.11Zm-.56,0-.2-.06.28-.23C29.08,52.72,29,52.78,28.58,53.1Zm-2.61-1s.26.15.23.23l-.31-.07Z"/><path class="cls-2" d="M68.6,70.32a44.71,44.71,0,0,0,9.05-28.21C77.42,31.16,73.71,20.26,66.4,12a33.25,33.25,0,0,0-15-10,71.34,71.34,0,0,0-10.23-1L41,.89c.57,0,1.12,0,1.65,0-.62,0-1.23-.06-1.83-.07A34.28,34.28,0,0,0,36.49,0a8.15,8.15,0,0,0-3.37.62h1.56c-.78.6-1.32.71-1.63.34A1,1,0,0,1,32.9.73,15.23,15.23,0,0,0,30.79,2.1,38.48,38.48,0,0,0,26.7,3.47c-.16-.09-.28-.24-.14-.57-1,.43-6,3.05-5.81,3.19l2-.85c-2,.87-8.33,3.82-8.83,5.81.15.1.29.21.42.31l-.23.21a2.37,2.37,0,0,1-.22-.42,11.38,11.38,0,0,1-1.37,2c-.63.66-1.25,1.33-1.85,2C8.5,17.43,6,19.92,4.86,23.27,4.1,25.56-.65,33.4.7,35.94a40.85,40.85,0,0,0-.64,5.29,40.06,40.06,0,0,0,.29,7.46,11.33,11.33,0,0,0,0,1.71,1,1,0,0,0,.2-.14,38,38,0,0,0,1.14,4.79,5.31,5.31,0,0,0,.21,1.19,5.33,5.33,0,0,0-.07-.72c.06.2.13.39.2.58a.47.47,0,0,1-.09.1C2.37,58.46,3,60.47,4.1,61c.2.41.42.81.63,1.21-.56,2.36,4.07,6.82,5.1,7.93,1.84,2,4.08,2.94,5.22,5.46,1,2.13,3,1.34,4.49,2.36A15.53,15.53,0,0,1,18,76.84a.68.68,0,0,0,.3.11c.7.46,1.42.9,2.16,1.31a26.5,26.5,0,0,0,3.67,2.1s2.77,2,2.82,1a.72.72,0,0,0,.42,0,43.24,43.24,0,0,0,4.55,1.32c.41.4.81.59,1.09.24a43.36,43.36,0,0,0,6.41.83A33.63,33.63,0,0,0,63,76.08a1.42,1.42,0,0,0,.87-.75l1.09-1a.64.64,0,0,0,0,.07,4,4,0,0,0,1.12-1.22c.47-.49.92-1,1.36-1.5A1.85,1.85,0,0,0,68.6,70.32Zm2-6.66c.39-.66,1-1.19,1.32-1.72-.25.52-.52,1-.8,1.53ZM65,14.09l.16.19-.23,0A.71.71,0,0,0,65,14.09Zm2.1,2.58c.15.2.29.4.43.61a2.06,2.06,0,0,0-.76.11C66.87,17.06,67,16.83,67.05,16.67ZM29.18,4.19l.56-.26C29.47,4,29.53,4.54,29.18,4.19Zm-11,7.23c1.77-1.36,4-1.78,3.33-3L22.1,8a3.91,3.91,0,0,0,.18.35c1.45-1.1,3-1.52,3.63-2.57l.88-.46a.6.6,0,0,1,0,.38l1.14-.56-.27-.27.56-.26a1.56,1.56,0,0,1,0,.38c.44-.23.88-.42,1.32-.6a20.84,20.84,0,0,1,4.67-1.15c2.37.25,6.08.87,7.25.68,2.24-.38,4,1,7,0,.4-.13-.37-.39-1-.56a31.42,31.42,0,0,1,4.67,1.41C51.08,6,53.71,6.15,55.47,6.35c.43.23.86.46,1.27.71a2.94,2.94,0,0,1-.64.48c.62.79,3.25,1.66,4.85,2.59.41.35.8.7,1.2,1.07a.76.76,0,0,1,.06.39C62,12.81,64,14,64.68,14.38c.48-.18,3.52,8.37,5.8,7.61.21.37.41.75.61,1.14a8.87,8.87,0,0,0,.39,3.06c.24-.85.59-.58.93-.3.07.15.13.31.2.46-1.21.76.39,2.48.42,3.74l.69-.9c.16.44.3.89.44,1.33a1.79,1.79,0,0,0-1.06-.15c.28,1,.53,2,.76,3,.43-.36.78-.37,1.07-.09,0,.1,0,.19.07.29a1.44,1.44,0,0,1-1,.23c.33,1.85,0,2.27,1.2,2.36a.52.52,0,0,0,.36-.11c.06.32.12.64.17,1s0,.4.08.6A5.89,5.89,0,0,0,74.52,37a12.38,12.38,0,0,0,1.63,5.71c0,.67,0,1.35,0,2-1,.44-2.26,1-1.17,2.49a1.24,1.24,0,0,1,.92-.68l.15.07Q76,47.82,75.8,49c-1.28,1.33-1.65,3.08-2.24,5.25.46.13.82.23,1.13.29-.06.22-.11.44-.18.66-.18-.09-.38-.18-.64-.28a4,4,0,0,1-1.43,3.88,2.11,2.11,0,0,0,.91-.17c-.37,1-.77,1.89-1.21,2.8a1.22,1.22,0,0,0-.52-1.29c-.69,1.56-1.24,3.35-2,4.87a4.2,4.2,0,0,0-.19,1.2c-.51.77-1.06,1.51-1.63,2.24a3.08,3.08,0,0,0,.09-.85,30.36,30.36,0,0,1-7.15,7.2c.09.12.19.21.28.32-.23.17-.47.35-.71.51v-.06s0,0,0,.07c-.81.57-1.64,1.1-2.49,1.6a3.85,3.85,0,0,0-2.55,1.35c-.44.21-.88.4-1.33.59-.06-.18-.12-.36-.19-.53-.89.46-2.67.92-3,1.13a1.7,1.7,0,0,0,.5.4l-.89.27a14.82,14.82,0,0,0-3.44.13c.49.06.67.26.59.59a37.38,37.38,0,0,1-5.06.67,4,4,0,0,1,.08-.46,9.1,9.1,0,0,1-2.44-.22,1.46,1.46,0,0,1,.34.75,34.06,34.06,0,0,1-4.29-.23c-.38-.67-5.66-1.69-5.82-1.13l-1.08-.32a2,2,0,0,0-1-.82c-1.49-.64-.93.18-2.53-.65-.3-.17-4.54-2.72-4.46-2.46-.6-1.85-3.09-2.51-5.34-3.42-.64-.54-1.26-1.1-1.87-1.68.21-.13-.16-.42-.79-.77a42,42,0,0,1-2.94-3.32c.3-.36-.65-1.14-.84-1.42,0-.06-.14-.07-.27-.06-.12-.18-.24-.35-.37-.52a2,2,0,0,1,.3.14,3.59,3.59,0,0,0-.61-.62,36.53,36.53,0,0,1-6.3-20.18c0-.12,0-.25,0-.37.47-.34.8-.78,0-1.15A45.38,45.38,0,0,1,2.86,37c.31-1.28.62-2.24.84-2.16.18-1.42.35-2.66.54-3.8a41,41,0,0,1,6-12.21l.1-.13a3.69,3.69,0,0,1,.25-.34A28.74,28.74,0,0,1,16,13c-.16,0-.29-.1-.44-.15l.37-.32C16.38,12.68,16.88,12.38,18.13,11.42ZM10.07,66.71a.84.84,0,0,1,.13.17ZM8.65,68.18l.19.23-.15,0A.32.32,0,0,1,8.65,68.18Z"/></g></g></svg>