<svg xmlns="http://www.w3.org/2000/svg" viewBox="0 0 79.7 82.84"><defs><style>.cls-1{fill:#fff;}.cls-2{fill:#463f3a;}</style></defs><g id="Capa_2" data-name="Capa 2"><g id="Capa_1-2" data-name="Capa 1"><path class="cls-1" d="M43.39,1.74C31.69.51,22.52,5.54,18.9,7.87A39.49,39.49,0,0,0,1.1,44.5c2.32,21.55,25.46,42.31,48.75,37,19.79-4.52,31.6-26,28.81-45C76.1,19,61.14,3.61,43.39,1.74Z"/><path class="cls-2" d="M30.53,19.36c-.66-.19-.65.37-1,.39-.53,0-.56.54,0,.53l-.33.31c-.22.39-.34.45-.36.16.12,0-.29.47-.21.4-.22-.16-.42-.15-.42.15,0,.6-1.22.49-.8.9.05-.1.13-.12.26-.08-.34.34-.29.36-.7.33s-.11.23-.31.34-.13.44-.39.67a7.29,7.29,0,0,1-.63.54.75.75,0,0,1,0-.2c-.13.12-.32,0-.22.28-.42-.26-.51,0-.35.37l-.37.31c-.07,0-.74.24-.77.29.09-.17.43-.33.12-.49s-.28.28-.3.39c0,.31.14.38-.24.5a1.53,1.53,0,0,1-.64,0s-.17-.48-.27-.43l.15.39c-.06-.08-.09-.08-.09,0,0-.13-.06-.26-.08-.39-.15.23,0,.73,0,1,0-.14-.08-.22-.19-.24s-.12.26-.16.35-.55-.06-.73.13c.06-.43-.2-.07-.31,0a1,1,0,0,1-.64.36c0-.09-.13-.77-.39-.66s-.26.59-.26-.07c-.08.14-.32.68-.59.58a2.33,2.33,0,0,0,.1-.44s-.22.33-.25.39c-.65-.17-.23.31-.62.56,0,0,.09-.46,0-.48s-.22.61-.2.53,0-.25,0-.37c.06.44-.17.73-.07,1.2-.1-.12-.64.42.08.37,0,0-.22.46,0,.48s.21-.57.12-.45c.06-.11,1.32.77,1.72.64a8.47,8.47,0,0,0,3-.34,14.21,14.21,0,0,0,5.1-2.72,21.5,21.5,0,0,0,4.48-4.35A1.61,1.61,0,0,0,30.53,19.36ZM20.35,26.49l0,.19C20.27,26.69,20.23,26.46,20.35,26.49Zm-1.09,0-.07,0C19.23,26.42,19.41,26,19.26,26.51Zm.77.07c0,.1,0,.14-.11.12S20,26.35,20,26.58Z"/><path class="cls-2" d="M63.31,26.37l-.15-.44c.13.09.44-.54-.15-.34,0,0,.09-.5-.07-.47s-.06.59,0,.46c-.15.61-.71.14-.9-.16-.6-1-1.21.46-2-.1a.26.26,0,0,0,.11-.27,7.17,7.17,0,0,1-1,0,.93.93,0,0,0,.21-.42c0,.12-.47-.23-.57-.1-.32.41.53,0-.14.5-.08,0-.07-.06,0-.13-.4-.14-.31-.3-.57-.62s-.8-.16-1.18-.14a1.51,1.51,0,0,1,.7.05c-.67.19-1.21-.22-1.78-.53-.24-.13-.28-.55-.47-.5a.2.2,0,0,0,.12-.25c-.09,0-.2.05-.29.08-.55.16-.92-.25-1.39-.61.08-.22,0-.42-.21-.49a1.73,1.73,0,0,1-1-.59.41.41,0,0,0,.21-.27.55.55,0,0,0-.32.14c-.11-.12-.21-.23-.31-.36.21-.11.15-.5-.14-.17-.1-.12-.21-.46-.19-.35A3.49,3.49,0,0,0,50.74,19a1.63,1.63,0,0,0-.79-.16c-.37,0-.44-.11-.8-.23.42.48-.81,1.05-.88,1.76-.11,1.08,1.06,2.28,1.74,3A15.12,15.12,0,0,0,55.66,27a17.56,17.56,0,0,0,5,1.09,6.61,6.61,0,0,0,2.62-.23C64.2,27.51,64.49,26.76,63.31,26.37Zm-.26-.07-.09,0C63,26.17,63,26.17,63.05,26.3Zm-1-.63a5.4,5.4,0,0,0-.59-.15C61.61,25.45,62,25.29,62,25.67Zm-.68-.12Zm-.07.21c0-.06,0,.21-.09.14Zm.32.24c0,.09,0,0,0,0S61.56,26,61.57,26Z"/><path class="cls-2" d="M72.47,17.53c-5-7.9-12.89-14.27-22-16.58a28.31,28.31,0,0,0-6.79-.9,26.06,26.06,0,0,0-3.64.22C39.49.34,39,0,38.42,0s-1.07.19-1.61.23c-.17.25-2.09.12-2.32.12-.71,0-1.43,0-2.14,0-.16,0-.72.52-.51.67a4.1,4.1,0,0,0-1.36.85c-.49.35-1.06.56-1.53,1-.32.26-3,1.56-2.47.33a4,4,0,0,0-1.73,1.19c-.53.77-1.95.23-2.78.52-.34.12-1.86,1-1.24,1.46.21.15,1.54-.81,2-.86a16,16,0,0,0-3.56,2.46.46.46,0,0,1-.72,0c-.23-.25-.62.11-.79.25-.5.42-1.11.66-1.08,1.41-.4-.56-.92.19-1.3.5s-.51.34-.75.52c-.61.46-.58.64,0,1-.42.38-.36.13-.6-.26a7.23,7.23,0,0,1-1.11,1.88l-.56.56a.53.53,0,0,1-.38-.56,18.68,18.68,0,0,0-2.24,2.55c-.58.94-.83,2-1.49,2.86S6.87,20.21,6.2,21a9.87,9.87,0,0,0-1,1.35,9.27,9.27,0,0,1-.45,1.07c-.22.26-.52.28-.7.63s-.32.69-.49,1a12.41,12.41,0,0,0-.86,3A9.14,9.14,0,0,1,1.54,31c-.29.48-1,1.41-.26,1.75-.38-.08-.87,1.36-1,1.64s.62,3.09-.13,2.88C.08,38.11,0,39,0,39.9a2,2,0,0,0,.17.78c0,.37-.18.67-.17,1a40.52,40.52,0,0,0,.74,6.69A44,44,0,0,0,5.79,61.61c0,.56.72,1.29,1,1.74s.55.71.78,1.05c-.11.58,1.51,2.2,1.89,2.69a30,30,0,0,0,2.87,3.19c.81.78,1.67,1.51,2.49,2.28S16,74.42,16.76,75.2c.33.33.9,1.69,1.42.92.14.08,2.87,1.53,2.76,1-.05-.24-1.47-.91-1.7-1.12.67.45,1.36.88,2.06,1.29s.83.92,1.45,1.22a5.88,5.88,0,0,0,1.93.56c.93.43,1.87.82,2.81,1.23a32.23,32.23,0,0,0,7.94,2.06,39.91,39.91,0,0,0,16.39-.77,36.52,36.52,0,0,0,24.59-21.8C82,46.08,80.28,30,72.47,17.53Zm4.22,29.7c.22-.23.43-.55.74-.65a12.71,12.71,0,0,1-1.32,5c-.28.44-.34-.12-.49.59-.06.33-.15.66-.24,1-.24.87-.48,1,.5,1.22-.12.44,0,.64-.47.46A3.77,3.77,0,0,1,75,57.25c-.88-1.89-3.5-2-5.09-3-2.49-1.52-.64-4.86-1.65-7.16-.65-1.45-2.13-1.87-3.15-3A4.46,4.46,0,0,1,64,40.62a1.7,1.7,0,0,0,1.48-2.53c-.09-.21-1-1.17-1.17-.79-.21,0-.26-.19-.44-.29s-.23.25-.47.25c0-.09.17-.52.27-.55a.74.74,0,0,0-.34.36c-.15.33-.53.18-.86.18a3.18,3.18,0,0,0-1.47,0c-1.39,0-2.75,0-4.12.07.14-.06-.18-.44-.53,0-.38,0-.68.14-1-.05,0,0,.07-.51-.07-.51s0,.28,0,.42c0-.09-.05-.1-.08,0a2.36,2.36,0,0,1,.1-.38c-.24.12-.25.7-.47.73a4.57,4.57,0,0,0-1.2,0c.2-.43-.25-.07-.36,0s-.25.3-.41.22-.33-.09-.36.21c0-.18-.13-.79-.44-.79s-.35.73-.48,0c-.11.2-.31.75-.64.71a1.71,1.71,0,0,0,0-.45s-.16.41-.16.47c-.64.1-.47.41-.35,1,0-.14-.12-.58-.27-.65s.12.71.08.55L50,38.45c.13.39.29.44.07.79a.81.81,0,0,0,0,.93c.58.79,2.52.69,3.38.68,0,0-.49.46-.17.45,0,.05.26,1.24-.18.83-.07.24.17.34,0,.48s-.6.47-.15.48c.06,0,.13-.27.15-.29-.1.25-.35,1-.23,1.09-.2,0-.35.5.28.43,0,.39-.72-.23-.28.28.09.1.29.46-.09.28.11.48.49.66.61,1.1a2.48,2.48,0,0,0,.44.89c.19.18.92.85,1,.76-.23.29.46.42.37.27s-.28-.33-.33-.3c.22-.2.65.72.7.76s.86.53.85.51a.77.77,0,0,0,.26.44.45.45,0,0,0,.11-.35c.35.37.3.61.45,1.07a2.91,2.91,0,0,1,0,1.9c0,.18-.1.78-.3.84,0,0-.29.17-.28.19s.15.51.14.53a.27.27,0,0,1,.06-.17c-.09.34-.38.32-.35.71,0,.22,0,.24-.15.41s.08.26.19.31a1.82,1.82,0,0,0,0,.58c-.24-.15-.28.29-.18.3.18-.31.44.72.62,1a.28.28,0,0,1-.24.09,3.69,3.69,0,0,0,.29.4c.3-.57.5.31.64.39s1.13.27.89.63c.17,0,.94.27.88.36s.73.25.79.27a.38.38,0,0,0-.09.09s.09,0,.1-.06c-.08.33.41-.06.41.28a2.73,2.73,0,0,1,1.16.63c1,1,1.16,2.53,1.18,3.89A8.87,8.87,0,0,0,64,68s.41,1.15.64,1.21.81.63.7.37c.17.14.56.28.55.55,0-.29.46.1.56.15-.73.6-1.24,1.39-1.92,2a19.26,19.26,0,0,1-2.57,1.73c.12.14.24.28.35.43-.3.21-.56.53-.78.34,0,.85-2.89,1.22-3.51,1.46a18.89,18.89,0,0,0-1.86.92c-.25.12-.65.21-.61.57s0,.32-.44.47c-.17-.5-.08-.58-.6-.45s-.48.26-.7.69a.93.93,0,0,1-1.17.4c-.27-.09-.31-.37-.65-.15a4.91,4.91,0,0,1,.51.39,6,6,0,0,1-1.65.4c-.14-.52-.58-.32-.92-.16a1.38,1.38,0,0,1-.39.18c-.27,0-.21-.3-.42-.27l-.94.15.59.34c-.39.17.26.2-.45.32a1.13,1.13,0,0,0-1.33,0c-.84.51-2.28.41-3.26.46,0-.15.06-.29.09-.43a18.18,18.18,0,0,1-2.42-.3,1.17,1.17,0,0,1,.3.76,38.59,38.59,0,0,1-4.16-.29c.08-.21,0-.36-.24-.41-.48-.09-.26.48-.79.11s-.66-.65-1.29-.79c-.31-.07-1.12-.39-1.31-.08-.43.7-1.8,0-2.22-.36-.15.51-.53.27-.41-.27a10.55,10.55,0,0,0-1.66-.49c-.31-.11-.67-.64-1-.5a.92.92,0,0,0-.35.38l-1-.4c-.39-.2-.8-.36-1.21-.55-.6-.28-.67-.79-1.16-1.16a7.67,7.67,0,0,0-1.31-.58c-.18-.08-1.52.18-.8-.38-.63-.33-1.29-.62-1.91-1a5.44,5.44,0,0,1-1.62-1.22c-1-1-2.14-1.39-3.11-2.25.1-.08.27-.11.16-.25s.24-.26.26-.27c.2.31.31-.64.34-.65s-.11.09-.16.15l.42-.74c.36.47.13.08.49-.24s-.14-.2-.07-.34.26.19.27.2c.38-.17.08-1.14.43-1.08s.3-.31.28-.5l.14.1c.14-.3.47-.83.3-1,.09.11.26-.22.24-.32s-.3-.06-.33-.26a1.22,1.22,0,0,0,.52-.42c-.17,0-.25-.14-.37-.18.58.15.26-.21.49-.49a1.11,1.11,0,0,0-.41.08.39.39,0,0,1,0-.21c.11.06.28,0,.39.08a4.26,4.26,0,0,0,.06-.5.3.3,0,0,1-.35-.08.73.73,0,0,1,.36,0,4,4,0,0,0,0-.49c-.22.1-.38.15-.4-.13q.09.19.39.06c0-.29,0-.63-.34-.48a.27.27,0,0,0-.09-.48c-.37-.08.51-.5,0-.62a.49.49,0,0,1-.18.17c-.06-.28.07-.76,0-1a1.14,1.14,0,0,1-.09-.26c-.28.09-.2-.79-.21-1,0-1,.29-3.28,1.4-3.56l-.1-.06c.12-.11.23-.21.36-.31.29-.21.25.08.61-.09-.42-.27.5-.43.53-.49.6.28.33-.36.77-.3,0-.1-.1-.13-.2-.08.07,0,.92.08.6-.39.59-.06,1-1.24.73-1.32.66-.39-.17-.68-.19-1a1.18,1.18,0,0,0,.37.09c0-.33-1-.77-.2-1a.61.61,0,0,0-.05.12c.45-.08-1-.53,0-.36-.47-.21-.58-.66-.67-1.24a12.75,12.75,0,0,1-.27-1.43c-.19,0,.29-.57.25-.53s-.1-.26.18-.34.29-.28.35-.41c.06.1.65-.43.5-.73.21.12.29-.12.28-.28a4.31,4.31,0,0,0,1.21-.67s-.25-.08-.14-.19.18,0,.18.14a7,7,0,0,0,.81-.91,1.53,1.53,0,0,1-.64-.28c.06-.1.6.21.67.25a2.2,2.2,0,0,0,.33-1.17l-.61,0c0-.25.47-.14.61-.1,0-.29.08-.88-.32-.77a.17.17,0,0,1,.23-.07,1.42,1.42,0,0,1,0-.2,1.57,1.57,0,0,0-.4.14c0-.39.46.09.32-.41l-.19.1c-.15-.06.17-.1.19-.1-.07-.27-.14-.55-.2-.82a31.67,31.67,0,0,0,4.35-.28C31.73,40,31,38.43,31.7,38c-.85,0-.07-1.11-1.07-1.26-.37-.06-.18.2-.55-.13-.07-.06-.27-.26-.38-.13-.3.34.37.5-.44.31.11-.12.26-.6.42-.64a.9.9,0,0,0-.45.39c-.23.38-1,0-1.47,0,.06-.09.06-.43-.06-.5s-.15.39,0,.49a36.77,36.77,0,0,0-6.14.49c.26-.09-.17-.45-.57.06a2.21,2.21,0,0,1-1.17,0s.07-.52-.07-.51,0,.28,0,.42c0-.09-.06-.1-.1,0a3.64,3.64,0,0,1,.11-.39,1.12,1.12,0,0,0-.3.41c-.37.69,0,.09-.35.2s-.92.06-1.25.21c.26-.46-.54,0-.63.1s-.15.1-.42,0c-.47-.13.24.25-.27.25,0-.23-.11-.86-.49-.79s-.4.6-.47,0c-.16.21-.43.71-.78.63a1.36,1.36,0,0,0,0-.45s-.22.4-.24.45c-.67,0-.58.31-.54.93,0-.14-.06-.6-.19-.68s0,.72,0,.56-.07-.25-.11-.37c.45.48,0,1.11.12,1.58.21.8,2,1.13,2.62,1.23-.46,2.06-3.15,2.09-4,3.87s.85,3.78,0,5.52c-1,2-4.61,1.45-4.81,4.1-.16,2.14,1.69,4.73.62,6.77a25.56,25.56,0,0,1-3.41-7.27c-.65-2.75-1.89-5.65-2.27-8.27-.08-.54-.37-1.41,0-1.78.2-.2.16-.8.11-1-.11-.48-.73-.18-.2-.86S2.19,41,2.2,40.42s-.13-1.48.24-1.85.36-1.09.41-1.53a15.9,15.9,0,0,0,.21-2.66,1.5,1.5,0,0,0,.34.16c.09-.48-.26-.48-.18-.84s.1-.26.34-.28a2.56,2.56,0,0,0,.06-.62,15.61,15.61,0,0,1,1-4.37,39.05,39.05,0,0,1,5.78-9.68c-.48-.05,0-.36.2-.58.13.56.64-.41.87-.68.46-.53.93-1,1.43-1.54A40.77,40.77,0,0,1,16,13.2a4.34,4.34,0,0,1-.69-.24l.49-.43a2.83,2.83,0,0,1,.39.52c1.95-1.4,3.77-3,5.78-4.28-.18-.14-.37-.27-.56-.4l.52-.3.28.53a32.32,32.32,0,0,1,4.23-2.52l-.12-.23.46-.21a.24.24,0,0,1-.1.33c.27-.13,1.24-.43,1-.69.15-.06.5-.34.44,0a32,32,0,0,1,5.36-1.83,3.8,3.8,0,0,1,2-.11,9.24,9.24,0,0,0,2.29.09c1.4,0,2.8,0,4.19.08.64,0,2.53.48,2.66-.21.19,0,.18.2.6.13a6.44,6.44,0,0,1,1.64,0,2.65,2.65,0,0,0-.23.39c.25,0,.5.06.74.11a.65.65,0,0,1,0-.39,8.8,8.8,0,0,0,3.48.49,3.46,3.46,0,0,1,1.78.2c.69.21,1.38.45,2,.71a3,3,0,0,1-.64.22A11.94,11.94,0,0,1,57,6.33a9.31,9.31,0,0,1,1.31,1c.51-.23.64-.32,1.11,0-.11.26-.45.35-.67.48a5.45,5.45,0,0,0,1.46,1.1,8,8,0,0,0,1.21.48c1,.46,1.87,1.21,2.91,1.64.6.55.4.6.39,1.34,0,.51.48.56.86.66,0,0,0,.52.17.71l.67.78c.27-.48.54-.07.83.11l-.55.21a42.87,42.87,0,0,1,4,5.49c.32-.29.56-.2.34.2s.42,1.09.63,1.48.23.55.38.77c.31.46.71-.42.84-.54.19.36.37.73.55,1.09a.69.69,0,0,0-.07.74c.25.76.12,1.58.41,2.32.11-.92,1.35-.48.81.46-.35.6-.4,1,.15,1.43a2.38,2.38,0,0,1,.52,2,4.5,4.5,0,0,0,.68-.7c.08.29.17.57.25.85l-.87.14c.31,1,.47,2,.69,2.94a4.16,4.16,0,0,1,.9-.25c.11.5-.23.94-.8.67.18.92.29,1.86.44,2.79.18-.14.4-.46.67-.43s.3.79.33,1.12a2.6,2.6,0,0,1-.94-.27,26.17,26.17,0,0,0,.36,3.31,2.45,2.45,0,0,0,.76-.21c-.17.23-.09.51-.22.74s-.4.17-.38.51a3.74,3.74,0,0,0,.54,1.94c.1.11,0,.65,0,.8,0,.67-.15.2-.55.53A3,3,0,0,0,76.69,47.23ZM72,63.38a9.25,9.25,0,0,1,1-1.33C72.69,62.59,72.54,63.18,72,63.38Zm1.75-2.93c-.19-.2-.43-.37-.63-.56-.35.78-.79,1.52-1.13,2.3s-.44,1.56-.84,2.29c-.23.42-1.24,1.51-.95,1.84s-.91,1.65-1.23,2a4.79,4.79,0,0,0,.29-1.23,15,15,0,0,0-.95,1.31c-.15.23-.31.45-.47.66a6.11,6.11,0,0,1-.91-.58,4.57,4.57,0,0,1-1.55-2c-.6-1.61-.39-3.43-.61-5.11a3.67,3.67,0,0,0-2-3.15,20.3,20.3,0,0,1-3.58-2.09c-1.21-1.1-.65-2.23-.17-3.55a4.67,4.67,0,0,0,.27-3.12c-.44-1.24-1.73-2.13-2.71-2.94a3.8,3.8,0,0,1-1.64-2.27,6.62,6.62,0,0,1,.16-2.9c.19-.68.34-.59,1-.63s1.47-.07,2.21-.09c1.49,0,3,0,4.48,0a3.94,3.94,0,0,0-.28,1.65c0,.22-.32.35-.09.68a1.84,1.84,0,0,1,.12.88c-.11.1.42,1,.52.92-.11.09.09.33.21.29s-.11-.33-.18-.3,1.14.93,1.13.91.11.12.26.26a.25.25,0,0,0,0-.25,5.39,5.39,0,0,1,.92.8s.42.17.39.3c.62.46.68.58.74,1.23,0-.08.36.19.34.13a2,2,0,0,1-.09-.26c.18.32.79,2.5.53,2.53,0,.51-.24,1.13-.2,1.46.26,0-.16.31-.16.37s.18.2.18.28c-.21,0-.21,0-.23.15.19,0,.27,0,.26.13-.26.14-.11.06-.28,0,0,.09,0,.23.21.31q-.33,0-.21.27c.47-.2.65.73.9,1a4.57,4.57,0,0,0,1.84,1.25c1.42.61,3.15,1,4,2.44-.33-.36-.14,0-.15.08L73,57.72c.39-.2,0-.08-.14-.37s-.14.1-.26,0c.07.05.14-.24-.09-.37,0,.08-.56-.11-.55-.06,0-.29-.06-.33-.35-.29l.07-.1s-.89-.43-.75-.21c-.16-.24-.23-.21-.32,0-.23,0-.07-.28-.36-.37,0,.11-.11.17-.14.26.12-.37-.14-.2-.3-.38,0,.81.28,0,.52.5.15.32.78.39.93.05a3.07,3.07,0,0,0-.17.31c.21.14.38.13.49-.07-.16.35.27.47.57.47.09,0,1.06,1.25,1.11,1.22a.19.19,0,0,0,0-.15c.19.1.28.48.06.62a.46.46,0,0,0,.2-.05s0,1-.13,1a.54.54,0,0,0,.19-.23s-.21.33-.19.37c.09.24.51-.88.52-1,0,.19.1.4.32.46C74,59.68,73.87,60.07,73.7,60.45Zm-17-11.53-.27-.05.12-.12Zm-.46-.32.07-.18C56.58,48.63,56.44,48.64,56.27,48.6ZM50.74,37.92c0-.07.09-.56.09,0Zm.93,0a.83.83,0,0,1,.08-.22s.07.52,0,.56S51.69,38.06,51.67,38Zm.26.15q.06-.32.06.09Q51.9,38.25,51.93,38.1Zm.13-.3.13-.1c-.1.1.2.36,0,.43C52.15,38,52.23,37.79,52.06,37.8Zm1.43,3.42c-.2,0-.17-.09.1-.23A2.29,2.29,0,0,0,53.49,41.22Zm-.32,1.56c-.09-.06,0-.05,0,0Zm-.06.52c0-.15,0,0,0,0Zm1.13,3.18c.12.07.12.12,0,.13S54.16,46.54,54.24,46.48Zm.31.35s0,.05,0,0Zm2.69,2.75c.1.12.11.21,0,.29C57.12,49.75,57.12,49.66,57.24,49.58ZM64.89,46c.11,0,.14.09.09.19S64.82,46,64.89,46Zm-.63-.41.13.09C64.15,45.68,64.28,45.61,64.26,45.54Zm-.21-.15c.13,0,.14.08,0,.13S64,45.45,64.05,45.39Zm9.71,13.27-.06-.16c.16,0,.27.29.07.3A.37.37,0,0,0,73.76,58.66Zm-.08-.24a.83.83,0,0,0,0-.15C73.74,58.36,73.76,58.41,73.68,58.42ZM14.12,38.62c.15.08.25,0,0,.18C14.13,38.74,14.12,38.68,14.12,38.62Zm.46-1c0-.07.17-.55.1,0Zm1,.13a1,1,0,0,1,.1-.21s0,.51-.08.54S15.62,37.81,15.61,37.7Zm.28.17c0-.42,0,.25,0,0Zm.18-.3.15-.1c-.13.1.17.31-.06.39C16.14,37.73,16.24,37.56,16.07,37.57Zm9.76,4.54a.53.53,0,0,1,.17,0c-.11,0-.12.08-.2.12A.15.15,0,0,1,25.83,42.11ZM25.3,44c0-.1-.29.22,0-.17A1.36,1.36,0,0,0,25.3,44Zm-2,8.32c-.08,0-.07,0,0,0Zm-.91,1.84s0,0,0,0S22.36,54.12,22.37,54.11ZM17.13,41.66c.17.14,0,.1-.14.08A.11.11,0,0,1,17.13,41.66Zm-2.86,6.42c.07,0,0,.09,0,0S14.27,48.09,14.27,48.08Zm-2.83,4.78c.46,0,.79-.41,1.24-.42l-.08-.06c.31-.13.6-.15.87-.28-.44-.23.47-.42.41-.38a1.36,1.36,0,0,0,.34-.21c.14-.14-.17-.24.17-.38,0-.05-.08-.05-.11,0A1.73,1.73,0,0,0,14.74,50c0-.18-.11-1.33-.3-1.37-.18-.57-.23-.65-.39-1.18A3.28,3.28,0,0,1,14,45.5c0-.06.29-.79.44-.62,0,0,.36-.44.34-.58a8.09,8.09,0,0,1,1.13-.78s-.18-.08-.08-.15.13,0,.12.13c.24-.19.49-.36.74-.54-.1,0-.38-.16-.27-.29.47.36.59.09.88-.4l-.44-.2c.11-.19.35.1.46.17.16-.29.37-.48.09-.65.18-.08.18.18.23-.12-.37,0-.47,0-.4-.36.1.2.36.57.43.13h-.17c-.08-.09.15,0,.17,0,.1-.55.92-.32,1.43-.35l1.77-.15c1.21-.13,2.42-.18,3.64-.2.07,1.89-1.28,3.34-2.45,4.66-.52.58-1.29,1.24-1.32,2.08a9.39,9.39,0,0,0,.67,2.8c1,3.63-3.31,3.6-4.43,6.3-.75,1.82.09,3.5.39,5.32A7.44,7.44,0,0,1,16,67.44c-.45.6-1.1,1.88-1.8,1.18S12.62,67,11.89,66.13c.46-.36-1.43-1.79-1.54-1.94.7.14.11-.4-.17-.61a.44.44,0,0,0-.24.07l-.6-.86c.09,0,.29-.1.2-.23l.24-.22c.1.17.37-.38.31-.58s-.22.2-.17.13a4.76,4.76,0,0,0,.2-.68c.39.25.13,0,.27-.36s-.18-.1-.16-.23c.58-.22,0-.33,0-.86.25-.19.18-.31,0-.5h.14s-.24-1.07-.34-.8c0-.05.08-.53-.16-.3,0-.15,0-.38,0-.51s-.06.07-.09.08C9.31,55.88,9.26,53.8,11.44,52.86Zm7.1,13.21.26.16c-.25-.08-.18-.08-.34-.19C18.48,65.93,18.51,65.94,18.54,66.07ZM16.48,69.4s-.1.15-.12.13Zm1.78-2.89.2.16C18.35,66.67,18.21,66.63,18.26,66.51Zm-6.52-.57c-.31-.16-.36-.3-.14-.41C11.65,65.67,11.69,65.81,11.74,65.94ZM9.37,62.28c-.09,0,0,0,0,0Zm.41-.5a.62.62,0,0,1-.09.26.06.06,0,0,0-.1,0C9.65,62,9.71,61.86,9.78,61.78Zm.35-2.5s.07-.05,0,0ZM10,58.9s.17-.18,0,0Zm-.82,3.49s-.11.1,0,0ZM29.41,4.64c.1.16,0,0,.1,0C29.46,4.78,29.44,4.63,29.41,4.64Zm38.26,9.84-.22.06C67.5,14.3,67.58,14.29,67.67,14.48Zm2.23,2.88-.65.22c.11-.23.21-.46.31-.69ZM34.52,1a10,10,0,0,0-1.63.3.28.28,0,0,0-.18-.34C33.31.89,33.92,1,34.52,1ZM22.88,5.46l.44,0C22.86,5.67,23.19,5.49,22.88,5.46Z"/><path class="cls-2" d="M49.51,58.53c0-.16-.07-1-.43-.59a9.59,9.59,0,0,0-.87-1.53.3.3,0,0,0,.16.08c0-.11-.51-.57-.6-.68.32-.35-.31-.75-.57-.85s-1.42-2-1.71-1.6c.06-.09.5.66.5.66a14.89,14.89,0,0,1-1.38-.9c.65-.44-.71-.79-.78-.83-.24-.14-.42-.29-.72-.23s-1,.64-.84,0c0,0-1-.29-1-.26s.16-.09.13-.22a2.68,2.68,0,0,1-1.32,0,1.1,1.1,0,0,1,.68-.21,2.78,2.78,0,0,0-.5-.11c-.38,0-.34-.17-.74-.2s-.83.51-1.09.72c.18-.17-.53-.27-.66-.16-.43.37-1.08-.21-1.65.08a6.27,6.27,0,0,0,.87-.35c-.11-.51-1.18.31-1.34.45a5,5,0,0,1-2,.83c0-.12-.06-.43-.27-.32.16.36-.16.33-.21.54a2,2,0,0,1,.15-.49,1.92,1.92,0,0,0-.57,1.44c-.26-.41-.48.38-.53.54-.2.62-.84,1-1,1.59,0-.11,0-.17-.09-.19-.43.32-.31,1.58-.54,2-.13.27,0,.44-.1.71a.7.7,0,0,0-.59.56,1.68,1.68,0,0,0,0,.74c.1.47.42.56,0,.75a8.3,8.3,0,0,0,1.57,1.67c-.47.19-.21.37.13.36.52,0,1,.26,1.51.22a10.53,10.53,0,0,0,3.12.58c2,.11,4.08-.05,6.13.08a10,10,0,0,0,5-.56c.8-.39,1-1.06,1.51-1.63C49.67,60.54,49.45,59.53,49.51,58.53ZM44.31,53a4.83,4.83,0,0,1-.72-.34A1.09,1.09,0,0,1,44.31,53Zm-.93-.4-.17-.05C43.33,52.49,43.38,52.51,43.38,52.59ZM42,52.16s-.2.06,0,0C42,52.18,42,52.17,42,52.16Zm-.64-.23c.09,0,.25-.07.32.16C41.58,52.07,41.21,51.86,41.36,51.93ZM38,52c-.13.06-.19,0-.19-.17A.52.52,0,0,1,38,52Zm-1.21.2c-.21,0-.09-.1,0,0S36.71,52.2,36.75,52.24ZM30.27,59a.78.78,0,0,1,0,.34C30.3,59.2,30.28,59.09,30.27,59Zm0,1a.27.27,0,0,1,.17.32C30.41,60.35,30.12,60,30.3,60Zm1.25,2.38c.08.06.16.09.23.14C31.7,62.54,31.12,62.58,31.55,62.36Z"/></g></g></svg>