<svg xmlns="http://www.w3.org/2000/svg" viewBox="0 0 79.34 81.1"><defs><style>.cls-1{fill:#fff;}.cls-2{fill:#463f3a;}</style></defs><g id="Capa_2" data-name="Capa 2"><g id="Capa_1-2" data-name="Capa 1"><path class="cls-1" d="M42,.81a37.49,37.49,0,0,0-24.71,6C1.34,17.65,1.08,37.32,1.1,40.58c0,3.76.22,13.68,7,23,8.41,11.57,24.08,18.21,39,15,19-4.1,33.18-23.46,30.43-43.81C74.91,15.35,57.94,2.6,42,.81Z"/><path class="cls-2" d="M15,45.93c2.69.08,5.23-2.48,7.27-4.5l.57.41c.49.35,9.24,5.21,8.24,1.91a2,2,0,0,0-.19-.42l.13,0-.22-.11a4.1,4.1,0,0,0-.34-.41.75.75,0,0,0,.21,0c.21-.46-1.41-1.14-1.44-1.07a.15.15,0,0,0,0,.09l-.2-.13c.29,0,.11,0-.08,0a42.49,42.49,0,0,0-4.37-2.2c2.45-1.84,7.93-6,4.49-7.1-1.14-.36-2.88.82-4.61,2.33-.17-.15-.2,0-.15.13-.88.79-1.76,1.65-2.54,2.44A5.3,5.3,0,0,1,20.87,36L20,35.34l0-.05s-.06,0-.13,0a34.46,34.46,0,0,0-3.39-2.53c-.48-.23-.86-.29-1.08,0,.86-1.33-.4.43,0-.49-.2.43-.44.71-.57,1-1.33-.49-2.64-.72-1.27.85a40.22,40.22,0,0,0,5.87,5.35,4.57,4.57,0,0,1-1,.33c-.22.21-.45.46-.71.72,0,0,0,0,0,0s0,.05,0,.12a27.22,27.22,0,0,0-2.81,2.65s0,0,0,0c-.26.37-.34.71-.12,1-1.14-1.1.36.48-.45-.12a3.29,3.29,0,0,1,.43.37C14.19,45.29,14.11,45.91,15,45.93Zm2.2-11.53-.1-.08C17.17,34.16,17.2,34.3,17.16,34.4Zm1.76,1.44-.08-.06a.64.64,0,0,1,.2-.14A.67.67,0,0,1,18.92,35.84Zm-.16-.17c-.05,0-.06,0-.07,0S18.75,35.64,18.76,35.67Zm-.16-.32c-.11.07,0-.11,0,0ZM17.6,34c-.75.46.25-.56,0,0Zm-.26-.19c-.47.5-.15.06-.12,0S17.33,33.76,17.34,33.8Zm-.24-.27c.24,0-.49,1,0,0Zm-1.65-.62s.26.19,0,.2S15.28,33.1,15.45,32.91Zm.76,9.48.06.14-.07.08C16.08,42.47,15.93,42.18,16.21,42.39Zm-.21.2.1.13s0,0,0,0l0,0C16,42.63,16,42.59,16,42.59Zm-.29.16c0-.1.15,0,.27.1l-.05.06-.16-.12Z"/><path class="cls-2" d="M51.4,46.15a45.69,45.69,0,0,0,5.77-5.7c.71.61,1.44,1.2,2.2,1.76s8.24,2.77,5.92.29l-.41-.38c.14-.42-1.09-1-1.13-.93a.09.09,0,0,1-.07,0c.15,0,0-.07-.13-.09-.34-.23-.69-.45-1-.67.33-.54-.13-.26-.13-.1-1-.56-2.06-1.11-3.06-1.69.17-.12.28-.33-.08-.49.21-.25.43-.49.65-.74.5-.55,6.27-5.39,2.53-5.74-1-.09-2.46,1.14-3.83,2.66-.45-.45-.33.09-.16.12-.39.49-.82,1-1.23,1.5a6.29,6.29,0,0,1-.62-.37s0,0,0-.07-.06,0-.13,0a17.11,17.11,0,0,0-3-2s-.12,0-.12,0a.65.65,0,0,0-.88.28c.64-1.44-.3.51,0-.46,0,.14-.09.27-.13.4l-.26-.17c-1.17-.71-1.93,1-1,1.72,1.36,1,2.64,2.18,3.92,3.31-.14,0-.23,0-.18,0,.3.28-1.13,1-1.49,1.06-.2.23-.38.5-.61.78l0,0s0,0,0,.12a25.78,25.78,0,0,0-2.42,2.85s-.05.1-.05.1a.94.94,0,0,0-.1.68l-.08.09c-.39-.28-.2-.11-.06,0a.81.81,0,0,1-.09.1l0,0,0,0-.12.13C48.55,45.61,50.29,47,51.4,46.15ZM55.64,36l0,0a.53.53,0,0,1,.14-.11Zm-.27-.38c-.11.07,0-.11,0,0Zm-.86-1.15c-.72.56.24-.57,0,0Zm-.23-.15c-.42.55-.13.08-.1.05S54.27,34.3,54.28,34.33Zm-.21-.22c.26-.07-.47,1.13,0,0Zm0,.78L54,34.83C54.11,34.73,54.14,34.8,54.12,34.89ZM51.38,42.4l.1.19-.06.06C51.29,42.54,51.06,42.21,51.38,42.4Zm-.19.21.13.14a.16.16,0,0,1-.1,0C51.17,42.65,51.16,42.62,51.19,42.61Zm-.25.19c0-.09.14,0,.27.07l-.05.06L51,42.84Z"/><path class="cls-2" d="M36.75,56.43l-1.18.13a.11.11,0,0,0,0-.1s-.1,0-.15.11a20.55,20.55,0,0,0-4.72.72s-.12.05-.12.05c-.48.22-.71.52-.51.92-.8-1.33.21.49-.48-.22a3.56,3.56,0,0,1,.38.47,1.86,1.86,0,0,0-.61.64c-.5.92-.09,2.4,1.22,2.23,5-.65,10,.46,15,.27,1.4-.06,5.13.07,5.94-1.54a1.79,1.79,0,0,0-2-2.43l-.59.06a1.29,1.29,0,0,0,.45-.26c0-.47-1.86-.3-1.86-.22,0,.25.18.35.4.3-.3.32-1.13.28-1.93.16-.46.36-.42.06-.18,0a7.16,7.16,0,0,0-1.68-.24l.36.17a4.09,4.09,0,0,0-1.72.13s0,0,0,.05h-.11l-.66,0c0-.28-1.27-.24-1.31-.25.62-.67-.53-.3-1,.11h-.06a6.44,6.44,0,0,0-1.1-.56A5.34,5.34,0,0,1,36.75,56.43Zm-4.13,1.31-.14,0C32.43,57.56,32.58,57.64,32.62,57.74Zm2.68-.16s0,0,0,0Zm-.3-.25a.58.58,0,0,1,0,.26h-.1A.56.56,0,0,1,35,57.33Zm-.21.2,0,.07H34.7C34.72,57.55,34.76,57.51,34.79,57.53Zm-.35-.15c0,.13-.09-.08,0,0Zm-.68.27s0,0,0-.07A.64.64,0,0,1,33.76,57.65Zm-1.14-.52c-.19.83-.28-.55,0,0Zm-.36.07c.08.68-.06.15-.06.1S32.22,57.18,32.26,57.2Zm-.4,0c.12-.2.5,1,0,0Zm-1.6,1.1a.7.7,0,0,1,.17,0A.43.43,0,0,1,30.26,58.3Zm18.29-.52h0Zm-5.06.07h-.25C43.31,57.81,43.45,57.8,43.49,57.85Zm-1.6-.09h-.13A.15.15,0,0,1,41.89,57.76Zm-.37-.06s.13-.07.19,0h-.12C41.52,57.71,41.46,57.67,41.52,57.7Z"/><path class="cls-2" d="M75,22.53a36.35,36.35,0,0,0-17.66-18A47.83,47.83,0,0,0,44.69.77C43.58.59,43,2.25,44.19,2.6l1.3.36c2.08,1.22,6.62,4,7.16,2.94,2.26.55,2.77,2.36,6,2.28h.08c1,.58,1.89,1.19,2.79,1.85-.43.58.73,1.09,1.95,1.53.56.46,1.1.94,1.64,1.44a2.43,2.43,0,0,1-.28.11,8.63,8.63,0,0,0,2.62,2.31c.69.76,1.34,1.56,2,2.37a2.81,2.81,0,0,1,0,.66c0,.79,1.45,2.06,1.91,2.47.81-.12,1.48,8.75,3.91,8,.64,1.41-.4,2.3.11,4.08.95-.44.56.09,1.22.19,0,0,0,0,0,.06-1.62.41-.11,2.34-.34,3.57l.86-.82c.08.47.15.94.2,1.42a1.67,1.67,0,0,0-1-.33,20.76,20.76,0,0,1,.31,2.83c.41-.25.73-.25,1,0,0,.12,0,.24,0,.36a1.35,1.35,0,0,1-1,.05c-.72,2.41-.46,3.18.78,2.33a.74.74,0,0,0,.21,0c0,.41,0,.82,0,1.24a6.79,6.79,0,0,0-.85-.51c0,.82-.83,3.45.65,3-.91,1.1-.75,1.87-.34,2.45-.11.64-.24,1.27-.38,1.89-.88.21-1.73.55-1.14,2a1.19,1.19,0,0,1,.75-.42c-.24.85-.49,1.68-.79,2.49a13.38,13.38,0,0,0-2.63,3.89l.73.41-.27.5L73,59.35a3.77,3.77,0,0,1-2.19,3.13,2.56,2.56,0,0,0,.66.09c-.45.64-.92,1.25-1.41,1.85a1.46,1.46,0,0,0-.29-.94,31.89,31.89,0,0,1-4.21,5,1.49,1.49,0,0,1,.09.43c-.46.39-.93.77-1.42,1.14.12-.27.24-.55.38-.82a47.6,47.6,0,0,1-8,5.2,1.34,1.34,0,0,1,.06.12A37.46,37.46,0,0,1,49.56,77c-.36.08-1,.22-1.65.37A41.55,41.55,0,0,1,26,75.9a.91.91,0,0,0-1.09-.41,36.06,36.06,0,0,1-9.12-5.18,3.93,3.93,0,0,0-.56-.45,34.39,34.39,0,0,1-5.59-5.77c.53-.34.14-.56-.51-.68-.32-.43-.63-.88-.93-1.33l.4.22a4.33,4.33,0,0,0-.81-.85c-.36-.57-.71-1.15-1-1.76A37.89,37.89,0,0,1,2,42.3c.18-.22.24-.45,0-.65,0-1.14,0-2.27.09-3.4.45-2.29.94-5.14,1-5.93,0-.17,0-.33,0-.49A38.17,38.17,0,0,1,7.39,21.36a46.85,46.85,0,0,1,7.92-9.65l.32-.26c1.41-1.16,3-1.66,2.83-2.51L19,8.47l.09.15c1.3-1,2.69-1.57,3.25-2.57l.77-.5a.48.48,0,0,1,0,.39l1-.6-.29-.26.51-.31a1.32,1.32,0,0,1,.07.42C28.7,3,33.14,3.09,37.26,1.28c.57-.27,0-.52-.9-.73.42,0,.84-.06,1.26-.07L36.26.53A31,31,0,0,0,31.81,0a7.24,7.24,0,0,0-3,.81L30.18.74c-.68.59-1.17.71-1.49.39A.52.52,0,0,1,28.57,1a13.45,13.45,0,0,0-1.68,1.27,35.57,35.57,0,0,0-4,1.54c-.1-.08-.16-.21-.07-.46A49.06,49.06,0,0,0,17.6,6.57l1.07-.52-.48.31c-2.36,1.29-6.36,3.52-6.7,5.09l.31.21-.17.18a2.75,2.75,0,0,1-.17-.29A15.47,15.47,0,0,1,10.54,13a37.91,37.91,0,0,0-2.81,3.61,28.09,28.09,0,0,0-5.05,8.06C2.11,26.27-.79,33.9.25,35.21a8.08,8.08,0,0,1,.36-.84,44,44,0,0,0-.4,11.52A20.44,20.44,0,0,0,.27,48.5l.25-.19A39.53,39.53,0,0,0,4.69,60.88a16.51,16.51,0,0,0,3.21,5,37.73,37.73,0,0,0,4.48,4.94,17.37,17.37,0,0,1,1.68,2.51c.54,1,2.64.91,3.37,1.47l-.31-.24C31.87,84.33,53.38,83.15,66.46,71,80.13,58.33,82.85,39.19,75,22.53ZM9.37,63.75l-.07-.09A.31.31,0,0,1,9.37,63.75ZM25.83,4.1c-.32.13.08.57-.13.47,0-.08-.11-.11,0,0l-.27-.18-.09-.08.39-.22Zm46.81,20c.17-.25.3-.42.4-.55.11.21.22.41.32.62A1.59,1.59,0,0,0,72.64,24.05ZM69.17,65.5l-.81.88-.39,0A8.08,8.08,0,0,1,69.17,65.5Z"/></g></g></svg>