<svg xmlns="http://www.w3.org/2000/svg" viewBox="0 0 80.21 80.67"><defs><style>.cls-1{fill:#fff;}.cls-2{fill:#463f3a;}</style></defs><g id="Capa_2" data-name="Capa 2"><g id="Capa_1-2" data-name="Capa 1"><path class="cls-1" d="M42.06,1.53a37.53,37.53,0,0,0-24.71,6C1.44,18.36,1.18,38,1.2,41.29c0,3.76.22,13.68,7,23,8.42,11.57,24.08,18.21,39,15,19-4.1,33.18-23.46,30.43-43.81C75,16.07,58,3.31,42.06,1.53Z"/><path class="cls-2" d="M64.09,38.42c-2.21,3.66-7,8-11.49,4.84C50.83,42,49.85,40,48.45,38.33c-2.35-2.7-2.59,3.32-1.49,4.8a9.2,9.2,0,0,0,.69.83,1.55,1.55,0,0,0-.31,0,.64.64,0,0,0,.48.22A11.37,11.37,0,0,0,50.28,46c.37.37.64.59.72.45a1.47,1.47,0,0,1-.1-.13,9.57,9.57,0,0,0,1.1.47,11,11,0,0,0,1.62.47,6.12,6.12,0,0,0,1.44.38c-.22.19,1.37.47,2.48.28a10.73,10.73,0,0,1,2.68-.41c0-.37.19-.5.06,0a12.6,12.6,0,0,0,1.21-1.06c0,.08,0,.16.08.18s.12-.21,0-.3A17.62,17.62,0,0,0,65.13,42L65,41.92l.07-.13a.91.91,0,0,1,.06.11,1.08,1.08,0,0,0,0-.87l.12-.24c.16,0,.12,0,0,0,.24-.49.47-1,.67-1.5C66.49,38,64.66,37.48,64.09,38.42Zm-7.31,9.06s0,0,0,.05S56.8,47.51,56.78,47.48Zm6.95-3.77a1.88,1.88,0,0,1-.1-.19.27.27,0,0,0,.07-.08C63.85,43.51,64.11,43.8,63.73,43.71Zm.23-.36-.12-.09,0-.06,0,0Q64,43.32,64,43.35ZM64,43l.06-.07.12,0h.08C64.27,43.08,64.13,43.07,64,43Z"/><path class="cls-2" d="M48,61.51a.65.65,0,0,0,.12-.54,6,6,0,0,0-.73-.78A7.62,7.62,0,0,0,42,56.55l-.11,0c1.86-.42.91-.31-.24-.09-.6-.22-.94-.29-.06,0l-.14,0a13.91,13.91,0,0,0-5.51.46,1.35,1.35,0,0,0-1.08.34c-.33.11-.65.23-1,.37a.24.24,0,0,0,0-.14c-.13-.22-.21.07-.21.24-.5.22-1,.46-1.47.73a.19.19,0,0,1,.07-.08.4.4,0,0,0-.12.11,13.46,13.46,0,0,0-3.92,3.22c-1,1.29-.08,3.78,1.76,3.48,2.27-.36,4.26-4,6.9-4.8a7.85,7.85,0,0,1,6.95,1.23c.28.21,5.29,4.75,4.6,1.35A8.62,8.62,0,0,0,48,61.51Z"/><path class="cls-2" d="M45,31.84a1.77,1.77,0,0,0,.74.29c1.72.39,16.61-2,13.43-5.74-.53-.63-1.47-.5-2.37-.15-.25-.47-1.37.2-1.34.26s.25.25.41.15l-.87.51c0-.09.06-.2,0-.21a.75.75,0,0,0-.09.24l-.32.2-.22.12c-.48.12-.9.19-.85.28s.2,0,.3,0l-.68.37a.92.92,0,0,0-.33.16c-.4.2-.82.4-1.23.57,0-.19-.13-.51-.44-.26-.07.05-.08.27-.09.47l-.38.15c-.19-.13-.38-.28-.37-.26.14.42-1.12.19-1.43,0,0,0-.06,0-.06-.06a2.22,2.22,0,0,1-.63.33.24.24,0,0,0,0-.09s-.06,0-.07.12c-.92.3-2.09.25-2.77.54a.34.34,0,0,1,0,.09h-.07s0,0,0-.06a.76.76,0,0,0-.49.78c-.2-1.57,0,.62-.22-.37C44.76,31.05,44.66,31.65,45,31.84Zm1.48-1.23-.07,0C46.44,30.53,46.49,30.55,46.52,30.61Zm0-.54c-.11.94-.18-.59,0,0Zm-.21,0c0,.69,0,.14,0,.1S46.29,30.09,46.32,30.11Zm-.25,0c.15-.26.33,1.26,0,0ZM45,31c-.05.15-.08.09-.08-.15C45,30.81,45.18,30.76,45,31Z"/><path class="cls-2" d="M78.84,46.51a41.21,41.21,0,0,0,.38-5.79.18.18,0,0,0,.13.06,14.14,14.14,0,0,0,.06,1.84c0-.47.9-2.17.79-3.27,0,.54-.21.66-.49.36.05-.75-.56-2.78-.49-3.16,0,.27-.1.6-.14,1,0-.38-.06-.76-.1-1.14s-.09-.7-.14-1c1-.76,1.24,1.2.7-2.49a.92.92,0,0,1-1,.46,42.51,42.51,0,0,0-1.79-6.74c.83.38.51,2.51,1.53,2.82.46.14-1.36-5.77-1.71-5.26,0,.09-.16.62-.26,1.21-.29-.73-.6-1.44-.92-2.14.34.5.54.81.54.81,3.08-2.57-8.35-12.89-10-14.3,1.89.43-.9-.84-2.71-1.65-.49-.36-1-.71-1.5-1.05,0-.53.24-1.22.92-.45.56-.53-1.38-.77-2.24-.39L60.09,6c-.1-.24-.19-.48-.28-.73l1.17,0c-1.3-.76-3.11-.83-4.73-1.65a1.54,1.54,0,0,0,.17.48c-.3-.14-.61-.27-.91-.39a.73.73,0,0,0,.5-.2A31.23,31.23,0,0,0,44,.91a2.39,2.39,0,0,1,.37.17L43.19,1a.27.27,0,0,1,.07-.08c-.28,0-.55,0-.83.06-.51,0-1,0-1.53,0-1-.34-4.67-1.13-4.3-.21-1.35-3.37-18.39,5.6-19.82,6.6.85.1-.72,1.42-.3.23a42.83,42.83,0,0,0-4.62,3.89c-.08.06-.3.27-.75.72a1.13,1.13,0,0,1,.8.13c-.24.23-.48.46-.71.7C9.07,13.4,7,16.59,7.66,17.54c-.17.27-.33.55-.49.83a3.39,3.39,0,0,1-.42-.28C5.27,20.64,5.19,22,4.18,23.58l.54-.09c-.08.22-.17.45-.25.68a.69.69,0,0,1-.41-.29c-1.51,4-3.25,8.57-2.86,12.93,0,.34.36-.31.73-1.21-.27,1.44-.56,2.74-.84,4a14.48,14.48,0,0,0-.8,3.68c.06-.51.1-1,.14-1.54-.24-.07-.22.73-.13,1.8a17.24,17.24,0,0,0-.12,4.66A1,1,0,0,1,0,48l.22.51a18.29,18.29,0,0,0,1.41,4.75,18.07,18.07,0,0,0,2,3.5l.15.33C4.4,59.7,5.37,63.43,6.41,63c1.34,1.85,1.74,3.58,4.36,5,0,0-.74-1-.83-1.1l.58.44a41.61,41.61,0,0,0,3,3c-1.39.28.66,1.17,2.27,1.91q.74.57,1.5,1.11a.47.47,0,0,1-.4.12c.95.92,3.55,2.23,6.5,3.43a39.73,39.73,0,0,0,23.57,3.25,1.65,1.65,0,0,0,1.28-.23c.8-.16,1.58-.35,2.35-.56A9,9,0,0,0,51.72,79a43.31,43.31,0,0,0,5.54-2.16c.48.15,1,.09,1.62-.7a1.08,1.08,0,0,1-.3,0c.78-.42,1.53-.87,2.27-1.33a10.87,10.87,0,0,0,3.87-2.12,3,3,0,0,0-.31-.4l.47-.39a1.42,1.42,0,0,0,.12.25,7.49,7.49,0,0,1,3-2.44l-.77.06a36.83,36.83,0,0,0,3.23-3.61,1.43,1.43,0,0,0,.78-.16c-.79.88-2.42,1.51-2.09,2.79,1.58-1.67,2.72-3.5,4.12-5.3-.1-.19-.12-.71-.21-1,.42-.67.82-1.36,1.2-2.06.54,0-.17,1.18-.28,2.08a33.9,33.9,0,0,0,4.21-8.92,1.69,1.69,0,0,0-1,.11,41.3,41.3,0,0,0,1.41-5.65,2.06,2.06,0,0,1,0,.74,41.24,41.24,0,0,0-1,4.39l.36-.43a.37.37,0,0,0,.28,0,2.72,2.72,0,0,1-.11-.25c.83-1,.27-.7-.06-.27C77.79,50.33,81.26,48,78.84,46.51Zm-9.6-32.9-.07-.08S69.21,13.54,69.24,13.61ZM68.08,12.2c.23-.35.74.32.73.59l-.66-.45c-.05,0-.06,0-.07,0a.13.13,0,0,1,0-.06A.14.14,0,0,1,68.08,12.2ZM49.52,1.62a1,1,0,0,1,1.15.49c-.42-.11-.84-.21-1.27-.3A.32.32,0,0,1,49.52,1.62ZM35.87,1.3c-1.3.16-2.59.38-3.88.65a1.35,1.35,0,0,0-1,.23C31.16,1.49,33.29,1.29,35.87,1.3Zm-27,24.4c-.58.21-1-.12-1.58-.07a2,2,0,0,1,1.48,0S8.73,25.59,8.84,25.7Zm3.4,8.41,0,0Zm8.58-10.28.22-.1C21.05,24,21,24,20.82,23.83Zm1.25-.34c.07.12.06.55,0,0Zm1.89,1c.06,0,.05.09,0,.17l-.08,0C23.9,24.48,23.92,24.4,24,24.45Zm1.7,3.61.12.06c0,.1-.08.09-.12.05Zm.69,2.24a.08.08,0,0,1,0,.09A.16.16,0,0,1,26.35,30.3Zm.34-.49c.52-.66.77-.53,0,0Zm-3.15,5.56c0,.05,0,.08,0,.07a1.17,1.17,0,0,0,.07-.15L24.94,34c.46.4.5-.28.3-.29,2.29-2.19,4.35-4.12,5-4.19,1.58-.18,2,1,1.89,2.41a8.36,8.36,0,0,1-.44.92c.25.22.26.62,0,0a17.18,17.18,0,0,1-.68,1.76c-.07,0-.09.08-.08.17-.56,1.28-1.35,3-2,4.53a1.33,1.33,0,0,1,.06.12l-.1.15-.06,0-.15.34c-.06,0-.06,0,0,.07l-.23.38c-.07,0-.13.06-.12.14a12.55,12.55,0,0,0-.95,2.26,5.55,5.55,0,0,0,.05,1.59c-.25.63-.34,1.09-.18,1.25s.23.11.42,0c.08.31.16.43.19.19l.06-.33c2-1.31,7.32-8.88,8.71-9.05,3.29-.38-1.32,9.28-1.49,9.58l-.45.8c-1,1.66-2,2.8-3.09,4.33a5.16,5.16,0,0,1-.61.9c-.09.13-.18.26-.27.41l.26-.39c-1.34,1.73-4.3,5.07-3.77,3.48-2,2.53-4.71,4.74-8.09,5.12a56.62,56.62,0,0,1-7-.9A70.06,70.06,0,0,1,6,55.71c-1.7-1.55-1.69-5-3.05-6a.69.69,0,0,0,.06.65,24.8,24.8,0,0,1-1-4.49c.06-3.41,1.16-6.71,1.66-10.24.08-.28.14-.51.17-.64a2.33,2.33,0,0,0,0-.87,29.09,29.09,0,0,1,1-3.81,1.78,1.78,0,0,0,.13.49,1.25,1.25,0,0,0,0-.95c.79-2,1.87-3.5,3-1.57.42.7,0,10.84,3.32,9a.7.7,0,0,0,.3-.65,12.5,12.5,0,0,0,2.91-3s0,.09,0,.15a1.22,1.22,0,0,0,.15-.35c.64-.86,1.28-1.78,1.91-2.7.41.29.42-.32.24-.34,2.52-3.59,5-6.7,6.64-3.57A3.4,3.4,0,0,1,24,28.2a.45.45,0,0,1-.09-.1c-.28,2.22-2.16,4-3.73,5.64.19.39-.06.3-.17.17a8.3,8.3,0,0,0-1.86,2.6l.07.07-.09.24a.87.87,0,0,1-.05-.12,2.63,2.63,0,0,0,.19,2,5,5,0,0,0-.88,1.06c.1.38.56.27,1.26-.17a1,1,0,0,1,0,.32c.06-.15.14-.3.22-.47q.44-.3,1-.72c.89-.22,3.11-1.48,2.78-1.87a.64.64,0,0,0-.75.28,3.82,3.82,0,0,1,.38-.53Zm6.27-7.65.22-.09C30,27.87,30,27.89,29.81,27.72Zm1.26-.31c.33,0,.05.61,0,0ZM7.17,57.1Zm.23.17a4.08,4.08,0,0,1,1.52,1.24A13.17,13.17,0,0,1,7.56,57.4S7.51,57.38,7.4,57.27Zm5,2.8c.09,0,.69-.16.29.13ZM7,57.2l-.05-.05S7,57.16,7,57.2Zm4,4a2,2,0,0,0,.9.2,3.51,3.51,0,0,1,1.06.38l-.67-.45c.33.16.65.35.94.52a8.92,8.92,0,0,1-3.73-1C10,61,10.49,61.11,11,61.21Zm4.16.6c-.12,0-.18.2-.27,0Zm.32-.73c.35,0,.9-.46.05.29C14.82,61.72,14.8,61.62,15.44,61.08Zm.85.18c.05-.09.11-.12.19-.09C16.49,61.85,16.27,61.3,16.29,61.26Zm1.06.45-.24,0-.11,0C16.74,61.51,17.26,61.6,17.35,61.71Zm6.37-2.42.14.06-.19.13A.59.59,0,0,1,23.72,59.29Zm-1.4.77c-.05.17-.24,0,0,0Zm-1.88,1L20.5,61s0,0,.05,0Zm-3,0c-.43.58-.64-.56,0,0ZM32.63,28.92l-.08-.09s.07-.08.09,0S32.66,28.87,32.63,28.92Zm-.52-.49a.17.17,0,0,1,.14.1ZM19.36,34.79c0-.28.68,0,.08,0Zm.59-.31a.58.58,0,0,1-.14-.07c0-.08,0-.13,0-.16l.2.17Zm2.58-2.91c0,.14-.15.05,0,0Zm-2-7.39-.42.23c.23-.2.46-.39.52-.37ZM3.75,25.51h0C4,24.85,4.4,24.93,3.75,25.51ZM49.33,77.37c-15.5,3.9-34-3.47-43.16-16.65C5.8,60,5.38,59.13,5,58.35a13.62,13.62,0,0,0,1,1A8.17,8.17,0,0,0,9.18,60.8c5.58,5.6,12.2,3,17.64-1.71-.14.21-.27.47.06-.05l.18-.16a44.46,44.46,0,0,0,8.36-10c.23-.36.49-.78.76-1.24,0,0,0,.06,0,.07.49.29.67-.77.72-1.38a25.78,25.78,0,0,0,1.88-4.2,3.69,3.69,0,0,0,.46-1.1c-.08.37.59-4.36.14-2.28a6.14,6.14,0,0,0-.12-1.15c-.12-1.27-.42-2.64-2.23-2.8A4.35,4.35,0,0,0,34,36a13.51,13.51,0,0,0-1.55,1.27s0-.07,0-.14a1.72,1.72,0,0,0-.12.22c-.11.1-.22.21-.32.32a15.28,15.28,0,0,0,1.3-2.63s-.15.48,0,.43.2-.54,0-.43a7.57,7.57,0,0,0,.51-2.67l.08-.24c-.33-2.94-1.21-6.51-4.91-4.22a1.53,1.53,0,0,0-.57.64,8.33,8.33,0,0,1,1.16-.65,3.92,3.92,0,0,0-.35.42,5.63,5.63,0,0,0-.88.45c-1.06-.11-2.11.94-3,2.25-.29.42-.56.85-.82,1.28-.42.45-1.31,1.35-2.31,2.36l.24-.34c0,.06,0,.1-.06.11a.61.61,0,0,0,.2-.3c.54-.74,1.06-1.5,1.52-2.25A15.79,15.79,0,0,0,25,30.52a.4.4,0,0,0-.19,0,8.47,8.47,0,0,0,.43-1A2.87,2.87,0,0,0,26,26.44a3.11,3.11,0,0,1,.15,1.22c-.4-2.87-3.14-6.09-6.17-3.52a1.43,1.43,0,0,0-.38.57,8.58,8.58,0,0,0-.7.56,5.51,5.51,0,0,0-1.91,2c-.23.28-.45.57-.68.87a.17.17,0,0,0-.09-.14c-.22-.14-.22.29-.16.47-.83,1.11-1.62,2.29-2.36,3.41-.16-.08-.3-.12-.29,0,0,0,.07.07.16.18-.38.57-.74,1.13-1.07,1.64a6.68,6.68,0,0,0-1.2,1.1c-.18-.52-.39-1.06-.57-1.56-.07-1.37-.1-3.41,0-3.4a1,1,0,0,0-.41.82,8.58,8.58,0,0,0-.55-3,7.48,7.48,0,0,0-.6-2.07c-.7-1.31-2.3-.5-3.55.49a3.9,3.9,0,0,0-1,.52,38.73,38.73,0,0,1,31.07-23C58.41.92,75.48,16.42,77,38.9A37.06,37.06,0,0,1,49.33,77.37ZM77.09,55.61c-.45.43-.75.74-1,1,.16-.39.3-.78.45-1.17A2,2,0,0,0,77.09,55.61Z"/><path class="cls-2" d="M36.8,34.33a4,4,0,0,0,.83-.32C36.84,33.55,36,34.48,36.8,34.33Z"/><path class="cls-2" d="M29.24,27.38a5.19,5.19,0,0,0,1.25-.73C30.32,25.68,29.17,27.45,29.24,27.38Z"/><path class="cls-2" d="M20.19,23.56c.17-.15,1.34-.64,1.3-.82C21.34,21.78,20.24,23.51,20.19,23.56Z"/></g></g></svg>