<svg xmlns="http://www.w3.org/2000/svg" viewBox="0 0 78.07 82.04"><defs><style>.cls-1{fill:#fff;}.cls-2{fill:#463f3a;}</style></defs><g id="Capa_2" data-name="Capa 2"><g id="Capa_1-2" data-name="Capa 1"><path class="cls-1" d="M41.38,1.14A34.39,34.39,0,0,0,17.11,7.37c-11,8-16.15,22-15.52,34.25,1,19.63,17.17,40.9,39.74,39.44,21.73-1.4,37.27-23.09,35-44.63C74.15,16,56.76,3,41.38,1.14Z"/><path class="cls-2" d="M74.87,24.6c-3.1-8.06-8-15-15.65-19.21A44.52,44.52,0,0,0,47.84,1.13c-2-.47-4.05-.84-6.1-1.11-1.8-.24-4.66,1.61-2.06,1.89.44,0,.87.1,1.31.16,2.27,1,7,3.2,7.39,2.12,2.32.36,2.94,1.87,6.06,1.66,1.14.53,2.23,1.1,3.29,1.72,0,.41.7.72,1.57,1,.75.48,1.48,1,2.18,1.53l-.12.06a7.27,7.27,0,0,0,1.83,1.35,34.1,34.1,0,0,1,3.4,3.4c0,1,1.38,2,2,2.47.19.26.38.52.56.79.8,2,2,7.46,3.81,7.08.15.36.29.73.43,1.1a8.72,8.72,0,0,0,.07,3c.66-.38.66-.1.95.05l.06.21c-1.17.61.18,2.35.11,3.52l.63-.69c.09.37.16.75.24,1.13a1.67,1.67,0,0,0-.84-.17,22.91,22.91,0,0,1,.48,2.83.84.84,0,0,1,.8-.16c0,.18,0,.35.07.53a1.36,1.36,0,0,1-.8,0q-.87,3.72.92,2.3a.53.53,0,0,0,.13,0c0,.41,0,.81.07,1.22a7.71,7.71,0,0,0-.83-.44c0,.83-.6,3.52.84,3v.06a1.71,1.71,0,0,0-.15,2.43c-.07.66-.16,1.32-.26,2-.86.3-1.65.75-.91,2.06a1.22,1.22,0,0,1,.63-.47c-.2,1-.43,1.91-.69,2.84a14.21,14.21,0,0,0-2,4l.49.21c-.07.16-.13.33-.21.49l-.07,0a1.61,1.61,0,0,1,0,.22c-.46,1-1,2-1.5,3l-.28.22h.15c-.27.49-.55,1-.85,1.44a2.58,2.58,0,0,0-.22-.31c-.69,1.11-1.29,2.35-2,3.5A40.67,40.67,0,0,1,50.61,77.53l-1,.36c-.85.31-1.72.56-2.59.79-.65,0-1.23.11-1.43.14a1.12,1.12,0,0,1,.39.12,36,36,0,0,1-4.95.82c-.25-.26-.71-.36-1.86-.33a1,1,0,0,1,.27.44,35.92,35.92,0,0,1-4.15-.06c-.92-.59-4.7-1.18-5.26-.84-.37-.09-.75-.19-1.12-.3-.42-1-1.25-2-2.24-.72l-.55-.21c-1.15-.93-3.62-2.63-4.54-2.22a.26.26,0,0,1-.12,0l-.68-.4c-1-.72-2.57-2.14-2.88-2.42a3.16,3.16,0,0,0-1.62-.85c-.9-.77-1.78-1.58-2.64-2.47s-1.61-1.76-2.36-2.68c.81-.51.22-.72-.63-.79-.33-.42-.64-.86-.94-1.29a3.45,3.45,0,0,1,.52.25,4.79,4.79,0,0,0-1-1,41.12,41.12,0,0,1-3.81-7.1c-.65-3.53-1.31-7.86-2.61-9.09-.18-1.05-.33-2.12-.43-3.18a.25.25,0,0,0,0-.17,41.75,41.75,0,0,1,0-7.5c.14-.8.34-1.35.63-1.4C3.64,29,4.09,26.68,7.33,20.56c0,0-.07,0-.1,0l.25-.47a.44.44,0,0,1,0,.1,26.56,26.56,0,0,1,4.21-5.68c-.14,0-.26,0-.39-.07l.54-.63c.59-.06,1.06-.56,2.12-1.54,1.35-1.24,2.94-1.74,2.22-2.66.18-.14.37-.29.57-.43l.23.36c1-.83,3.37-1.82,3.46-2.9L21,6.38a.54.54,0,0,1,0,.35l1-.61-.26-.22.49-.28a1.14,1.14,0,0,1,.05.33c4.19-2.2,8.8-2.27,12.82-4.34C35.7,1.28,35,1,33.89.88a12.46,12.46,0,0,1,1.52-.2c-.61,0-1.21.09-1.8.16A30.81,30.81,0,0,0,29.55.59a8.3,8.3,0,0,0-3,.89l1.38-.1c-.67.61-1.17.75-1.49.43a1.33,1.33,0,0,1-.14-.19,18,18,0,0,0-2,1.5A34.4,34.4,0,0,0,20.89,4.7c-.2-.08-.48-.15-.34-.6-.9.48-5.42,3.35-5.19,3.48s1.51-.93,1.8-1C15.43,7.75,9.79,10.87,9.5,13l.8.41-.3.37a3.38,3.38,0,0,1-.52-.68c-1.21,3.81-5.63,8.2-7.18,13.49-.54,1.85-3.2,9.92-2,11.39-.08-.1.17-.67.41-1.29,0,.6,0,1.33,0,2.15a46.68,46.68,0,0,0,.19,7.57c.11,2.5.23,4.53.31,5a1.49,1.49,0,0,0,.42-.41,42.2,42.2,0,0,0,1.31,4.81,5.45,5.45,0,0,0,.25.89,2.23,2.23,0,0,0-.09-.39,3.59,3.59,0,0,1,.12.35,10.06,10.06,0,0,0,1.58,3.78c.4.86.84,1.71,1.31,2.53.41,2.71,4.82,6.87,5.95,8a24.24,24.24,0,0,1,4.22,4.92c.61,1,2.71.77,3.48,1.3-.7-.48-1.17-.78-1.48-1l.12.06c1,.63,2,1.19,2.95,1.73.74.41,1.56.8,2.22,1.08l.14.06c.46.2.81.35,1,.43a3.75,3.75,0,0,0,1.18.42,38.75,38.75,0,0,0,36.61-5.92C77.73,62.19,81.65,42.13,74.87,24.6ZM23.48,5.31l-.32-.21.4-.22C23.35,5,23.68,5.41,23.48,5.31ZM18,6.44l-.35.25a2.44,2.44,0,0,1-.28-.14ZM11.28,66.66l-.43-.55C11,66.14,11.16,66.3,11.28,66.66ZM1.1,48.21l0,.06Zm69-27.77.25-.38.21.36A1.79,1.79,0,0,0,70.09,20.44Z"/><path class="cls-2" d="M23.78,35.76l.55.45c.09.17.18.34.26.52-.17,0-.07.05,0,.09.59,1.36.91,2.91,2.1,3.41l.24.09a3.4,3.4,0,0,1,.29.26.61.61,0,0,0-.05-.19c2,.51,1.29-2.4.9-3.4-1.62-4.2-6.81-7.72-11.31-5.38a9.61,9.61,0,0,0-4.65,5.17,7.42,7.42,0,0,0,.11,2.54,2.1,2.1,0,0,0-.06.24l.05,0,0,.14-.05,0c-.12.61,0,1,.6,1-1.41.1.41,0-.39.39.8-.36,1.27-.12,1.6-.54-.31.39.8-2.2,1.62-3.66.21-.31.42-.61.64-.9.08,0,.14,0,.15,0s-.07-.08-.14,0l.23-.28a8.85,8.85,0,0,0,1.58-1c-1.87,1.1,1.08-.69.69-.68.1,0,2.18.53,2.68.68.72,0,.71-.1,0-.38-.05.23-.11.23-.18,0l.21-.17c.18.06.37.13.58.22-.07.29.22.61.59.88a3.86,3.86,0,0,0,1,.53c0,.06.07.11,0,.14a.1.1,0,0,0,0-.14C23.77,35.8,23.8,35.79,23.78,35.76ZM12.89,40.49l0-.13a.23.23,0,0,0,.14,0C13.2,40.47,13.14,40.51,12.89,40.49ZM14,39.29c0-.07.09-.14.14-.21A.34.34,0,0,1,14,39.29Zm6.43-5Zm.56.09c.08-.2.13-.2.12,0Zm1.45.21,0,0C22.43,34.64,22.42,34.62,22.44,34.56Zm.53.72c-.59-.1-.28-.26,0,0Zm.34.06s0-.05,0,0C23.39,35.09,23.48,35.38,23.31,35.34Z"/><path class="cls-2" d="M23.14,36s-.42-.16-.54.08S23.16,36,23.14,36Z"/><path class="cls-2" d="M20.52,35.11c-.14.79.65-.18.64-.15S20.57,34.82,20.52,35.11Z"/><path class="cls-2" d="M16.67,36.3c.12.06.16-.23,0-.28C16.65,36,16.52,36.24,16.67,36.3Z"/><path class="cls-2" d="M50.46,39.72c-1.49.34.51,0-.36.42.81-.42,1.28-.23,1.54-.75a22.88,22.88,0,0,1,1.77-4.73,2.3,2.3,0,0,1-.26,0,2.55,2.55,0,0,1,.29-.38c.11.12.71,0,1.24-.07-1.39,1.4,2.38-1.11,1.71-1.15.3,0,2.22.59,2.84.78.28.09,1.17,0,0-.4-.05.23-.11.24-.18,0a.8.8,0,0,1,.18-.15c.24.09.48.19.71.3.13,1.18,1.11,1.21,1.69,1.25,0,.06.09.1.12.15s0,.16.07.18a.09.09,0,0,0,0,0,5,5,0,0,1,.48.95c-.21,0,0,.19.1.25a5.26,5.26,0,0,1,.18.6s-.09-.07-.09-.1a.26.26,0,0,0,.11.16c.2.78.32,1.59.44,2.33.33,2.09,3.72,1.13,3.17-.87C64.83,33.5,61.54,29.67,56,30a7.19,7.19,0,0,0-5.33,3,10.77,10.77,0,0,0-.8,4.48,5,5,0,0,0-.31,1.13s.07,0,.19.05v.14a.72.72,0,0,1-.18-.17C49.51,39.37,49.73,39.81,50.46,39.72Zm.1-.21s0-.38.16-.15S50.81,39.5,50.56,39.51Zm3.92-5.72c-.14.06,0-.42,0,0Zm.14-.42c.1.11.11.18,0,.22A.2.2,0,0,1,54.62,33.37Zm3.52,0Zm.58.11c.09-.21.14-.19.13,0Zm-1.83-.56s0,0,0,0S56.89,32.85,56.89,32.89Zm3.83,1.52.05.05C60.18,34.29,60.49,34.23,60.72,34.41Zm.38.15s0-.06,0,0C61.2,34.31,61.27,34.62,61.1,34.56Z"/><path class="cls-2" d="M62,35.62a.22.22,0,0,0-.37,0C61.37,35.86,61.94,35.69,62,35.62Z"/><path class="cls-2" d="M53.82,35c.11.06.17-.18,0-.28C53.83,34.76,53.69,35,53.82,35Z"/><path class="cls-2" d="M55.61,50.91a.41.41,0,0,0,0-.65c-.39-.48-2.15-.64-4.37-.65l.11-.12a.94.94,0,0,0-.3.12c-.86,0-1.78,0-2.71,0-.07-.18-.2-.12-.27,0-3.57.12-7.29.4-8.46.33l-1.29-.07c.06,0,.1,0,.11-.09a3.54,3.54,0,0,1-.45.08l-.5,0a11.14,11.14,0,0,1-2.24-.68c-.14.44-.45.44-.06,0-.42,0-1,.08-1.72.11,0,0,0-.06,0-.08s-.12,0-.19.09a39.52,39.52,0,0,0-6.84.49s-.17,0-.17,0c-.71.21-1.12.52-1,1a1.51,1.51,0,0,0-.41-.66c.13.56.11.7-.06.4a2.33,2.33,0,0,1,.22.51l-.16.06c-.4-.63-.7-.93-.56-.21,0,.15.06.29.09.43a.44.44,0,0,1-.17,0A9.9,9.9,0,0,1,24,52.71c0,1.07,5.6,10.68,7.4,10.53.18,0-.18-.39-.4-.66a18.13,18.13,0,0,0,3.9,2.47l-.3,0c2.3,1,1.91.85.83.28a17.3,17.3,0,0,0,4.73,1.27,10.79,10.79,0,0,0,3.76-.21,3,3,0,0,0-1,.56c.15,1,1.36-.57,1.5-.66l-.2,0A14.8,14.8,0,0,0,51,62.18a.17.17,0,0,0,.06.1c.23.2.33-.23.33-.5.32-.36.63-.74.93-1.12,0,.15.19.21.5-.08.13-.31.09-.46-.1-.46A17,17,0,0,0,54.49,57c.2,0,.34.08.25.16.24-.23.09-.37-.12-.49a14.72,14.72,0,0,0,.75-2.48c.22-.19.26-.9.23-1.68A11.9,11.9,0,0,0,55.61,50.91ZM25.52,55.24a7.94,7.94,0,0,0,.74,1.66A1.84,1.84,0,0,1,25.52,55.24Zm.87,1.82,0,0Zm1.79-6.88-.2,0c0-.09.07-.2.13-.34C28.45,49.56,28.34,49.76,28.18,50.18Zm.4-.1c0-.14.05-.18.1-.16v.14Zm.59-.13L29,50c0-.22.09-.48.25-.11Zm19.37,2.79a1.15,1.15,0,0,1-.29.15A5.74,5.74,0,0,1,45,55.65a4.84,4.84,0,0,1-.46.33c-.93.13-2.68.45-3.24.51a.46.46,0,0,1,.24.12c-.69.79-3.21-.09-5.43-1.22-2-1-3.78-2.28-3.65-2.7a2.7,2.7,0,0,0,.41-.27,2.35,2.35,0,0,1-.19-.25h.45l0,0,0,0,1.39,0c.06-.07.11-.06.18,0h.29l.09,0L35,52a.27.27,0,0,0,0,.22,6.58,6.58,0,0,0-1.81-.09h-.48l.44-.08,0-.07c.08,0,.12,0,.13.05.87-.15,2.49-.38,2.28,0a1.44,1.44,0,0,1,.59,0,.14.14,0,0,0,0,.15c.09,0,.13-.1.13-.14l.39.05s0,0,0,0l.49,0a1.87,1.87,0,0,0,.16-.47c.32-.21.12.47.31.54,1.27.49,6.52-1.29,8.21.31l-.13.05.94,0,.45-.11c-.43-.07-1.93-.34-.3-.2.57-.07,1.72,0,2.17,0a3.15,3.15,0,0,0-.64.38.75.75,0,0,0-.09.15Z"/></g></g></svg>