<svg xmlns="http://www.w3.org/2000/svg" viewBox="0 0 77.24 79.22"><defs><style>.cls-1{fill:#fff;}.cls-2{fill:#463f3a;}</style></defs><g id="Capa_2" data-name="Capa 2"><g id="Capa_1-2" data-name="Capa 1"><path class="cls-1" d="M41.63,2a35.89,35.89,0,0,0-24.26,5.9C6.39,15.55,1.22,28.76,1.85,40.38,2.85,59,19,79.12,41.59,77.74c21.73-1.33,37.27-21.87,35-42.27C74.4,16.14,57,3.81,41.63,2Z"/><path class="cls-2" d="M57,39.27a.8.8,0,0,0,.14.17c.4,1.42.95,2.32,1.61,1.74-.75,1,.32-.19,0,.54.1-.21.16-.37.22-.51a2.06,2.06,0,0,0,1.83.28c0,.27,0,.57,0,.92,0,0,.18-.62.28-1l.3-.16a2.84,2.84,0,0,0-.09.66c.15.11.53-.61.79-1.25a3.33,3.33,0,0,0,.89-2,10.7,10.7,0,0,0-.06-1.6.07.07,0,0,0,.06.06c.47.09.18-.44.05-.3a.59.59,0,0,0-.11.24q0-.42-.12-.84c.13-.64.2-1.1.07-1.09a5.23,5.23,0,0,1-.15.66c-.05-.2-.09-.39-.13-.58a3.72,3.72,0,0,0-.4-2.14s0,0-.15.08l-.1,0a.61.61,0,0,0,0-.12.49.49,0,0,1,.24,0,.93.93,0,0,0-.34-.28c-.1-.28-.21-.55-.31-.82l.21.09a2.11,2.11,0,0,1-.08-.22c-.27-.45-.61-.94-.56-.88.77.19-1.83-1.7-3-.35.08-.12.15-.24.24-.35s-.13.12-.26.37a2,2,0,0,0-.24.37,3.37,3.37,0,0,1,.21-.31c-.46.92-1.31,2.94-1.53,2.11a9.81,9.81,0,0,0,0,2.22,1.61,1.61,0,0,0-.07.25A5.91,5.91,0,0,0,57,39.27Zm.75,1.25.07.14C57.73,40.65,57.37,40.56,57.71,40.52Zm2.45-1.26a1.53,1.53,0,0,1-.12-.38,1.63,1.63,0,0,0,.37.44C60.34,39.43,60.26,39.44,60.16,39.26Zm2-6.1c.27.11.24.21-.09.26,0,0,0-.05,0-.06A.49.49,0,0,1,62.16,33.16Zm-2.91-2.85c-.06,0-.12,0-.17-.17S59.36,30.3,59.25,30.31Zm.37.53a4.24,4.24,0,0,0-1.13.86,8.78,8.78,0,0,0,.29-1C59,30.54,59.27,30.64,59.62,30.84Zm-1.33,0c.11-.48-.11.88,0,0Zm-.55,1.59h.11l-.06.08A.16.16,0,0,1,57.74,32.43Z"/><path class="cls-2" d="M21.45,34.77A4,4,0,0,1,21,36c-.07,0,.6-2.21-.13-3.25l-.05,0s0,0-.1.05c-.51-.14,0-.18.13-.13a1.25,1.25,0,0,0-.43-.35,2,2,0,0,0-.09.22,7.85,7.85,0,0,0-.37-1,1.16,1.16,0,0,1,.48.17c0-.11-.08-.34-.05-.22l.05.07c-.23-.45-.58-1-.55-1,.74.19-1.73-1.67-2.89-.13l.17-.28s-.11.11-.22.35a2.29,2.29,0,0,0-.19.35l.15-.26c-.41.91-1.15,2.83-1.43,2.07,0,.2-.15.86-.23,1.64,0,0-.07-.07-.11,0s0,.21.09.25c-.13,1.38-.17,3,.3,3.23-.71.28-.3,1.18.37,2,.21.74.6,1.22,1.28,1.27.42.32.73.47.73.26a3.49,3.49,0,0,0,0-.35,3.92,3.92,0,0,0,.56-.21c-.05.21-.1.45-.15.71-2.76,3.18.28-.13.8-1.07l.07,0,.16-.1.11-.08a3.62,3.62,0,0,0-.51.95c.2.3,1.76-1.75,1.57-1.87h-.06a1,1,0,0,0,.23-.43,2,2,0,0,0,.09.55.71.71,0,0,0-.06-.65,3.74,3.74,0,0,0,.13-.68s.05-.28,0-.38,0-.32,0-.5a.61.61,0,0,0,.05-.12c0-.25.07-.36.12-.34C21.4,35.66,21.67,34.77,21.45,34.77Zm-.37-.85c-.2-.88.22-.14,0,0Zm-.25-1.05c.26.12.22.2-.11.25C20.59,33.14,20.79,32.89,20.83,32.87Zm-.19,1.22V34C20.72,34,20.69,34.1,20.64,34.09Zm-4.86,3s0,.07,0,.11S15.6,37.17,15.78,37.07Zm1.47,0a2.79,2.79,0,0,1,.13-1.18C17.31,36.33,17.27,36.75,17.25,37Zm-1.43-.33a.25.25,0,0,1-.08-.05.09.09,0,0,1,.09,0Zm0-1.36.12.1C16,35.59,15.73,35.43,15.78,35.34Zm3.6-4.7-.06,0C19.38,30.54,19.46,30.52,19.38,30.64Zm-1.27-.45c-.05,0-.12,0-.19-.12S18.2,30.15,18.11,30.19Zm.08.35a2.43,2.43,0,0,0-.58.58,1.7,1.7,0,0,0,.11-.49A.56.56,0,0,1,18.19,30.54ZM16,34.66c.14.09.1.11-.1.08Zm0,.45q-.15.12-.33-.06A.29.29,0,0,1,16,35.11Zm-.36.65c.09.06-.07.1,0,0Zm-.11,2.31c.52.17-.37.36,0,0Zm.13.46.07,0v.08S15.65,38.56,15.65,38.53Zm4.4.86.06-.12.07,0a.43.43,0,0,0-.16.24Z"/><path class="cls-2" d="M50.1,57.11a.3.3,0,0,0,.13.12c.84.72,1.7.12,1.29-2.43-.94-5.83-6.47-9-12.09-8.13a13.82,13.82,0,0,0-7.66,3.86,9.11,9.11,0,0,0-2.49,4.36,7.15,7.15,0,0,0-.54,1s.09,0,.2.11l-.07.19a1.46,1.46,0,0,1-.15-.24c-.34.86-.21,1.47.72,1.56a1.29,1.29,0,0,0-.74.22c.66,0,.72.1.18.22,1.12-.32,1.56.1,2.1-.54a7.66,7.66,0,0,1,.36-1.55,17.28,17.28,0,0,1,2.41-3.38c.6-.19,1.35-.36,1.37-.61s-.46,0-.64-.11c.17-.16.34-.32.52-.46.07.29,1,.05,1.8-.23-2.08,2.26,3-1.63,2.11-1.62,1.31,0,2.1,1.12,3.88.51,1.47.11-.36-.49-.33-.42.38-.48.83-.3,1-.38l.33.07a1.62,1.62,0,0,0,.28,1.53c.68.67,1.73.05,1.94.37.12.14,1.62,1.46,2.42,2.08l.15.36a1,1,0,0,0,.12.3,1.29,1.29,0,0,1,.06.21,3.85,3.85,0,0,0-.6.35c.09.09.43,0,.68-.08,0,.15.09.29.12.45a7.94,7.94,0,0,0,.29,1c-.29.33.53,2.09.64,2.32V56.93Zm-20.44,0c0,.07.05.13.07.19h-.11S29.64,57.17,29.66,57.09Zm6.79-6.44c-.19.08-.08-.53,0,0Zm.24-.27a.22.22,0,0,1-.06-.23C36.75,50.25,36.77,50.34,36.69,50.38Zm2.86-1.18s-.08-.05-.12-.13l.1,0C39.57,49.12,39.6,49.2,39.55,49.2Zm1.73.35s0-.85,0,0Zm.78,0c.08-.26.14-.26.17,0Zm2.17-.22.1,0c0,.06-.08.24,0,.2a1.43,1.43,0,0,0,0-.2.73.73,0,0,1,0,.2C43.88,50.05,44.09,49.56,44.23,49.37Zm.23.08.24.08a1.91,1.91,0,0,1-.1.27C44.52,50,44.43,49.53,44.46,49.45Zm.38,1s0,0,.08.06C44.09,50.36,44.56,50.34,44.84,50.49Zm.19-.81.32.16A.61.61,0,0,1,45,49.68Zm.34,1s0-.07,0,0C45.45,50.3,45.6,50.68,45.37,50.63Zm4.15,6s0-.09.08-.17l.15.26C49.7,57.1,49.62,57.21,49.52,56.59Z"/><path class="cls-2" d="M46.19,51.9c-.24.34.47.07.48,0A.29.29,0,0,0,46.19,51.9Z"/><path class="cls-2" d="M44.52,51.57c-.22.51.73-.14.71-.13S44.66,51.26,44.52,51.57Z"/><path class="cls-2" d="M41.54,50.58c-.06,1,.88-.27.86-.25S41.55,50.22,41.54,50.58Z"/><path class="cls-2" d="M75.82,29.66A43.76,43.76,0,0,0,63.83,9a34,34,0,0,0-11-7.13A26.9,26.9,0,0,0,46.44.22,25.43,25.43,0,0,0,41.91.06c-1,.49-1,1,0,1.53l.35,0c1.19.41,7.64,3.76,8.13,2.49C52.71,4.4,53,6,56.05,6.1c.07,0,.1,0,.12,0q1.53.86,2.94,1.83c-1.41.93,1.26,1.64,2.84,2.19l.89.81a3.17,3.17,0,0,1-.75.38c.44.92,2.66,2,4,3.05.36.43.7.87,1,1.32a.69.69,0,0,1,0,.25c-.43,1.11,1.23,2.38,1.86,2.86.39-.09,1.79,7.51,3.81,7.73.15.47.3.94.44,1.41A5.08,5.08,0,0,0,73,30.47c.61-.25.7-.07.93.09,0,.09,0,.18.07.28-1.22.51,0,2.27-.24,3.45.26-.22.52-.44.77-.67.07.4.12.8.17,1.2a1.78,1.78,0,0,0-.94-.26c.12.95.21,1.89.26,2.84.4-.24.72-.25,1,0l0,.42a1.5,1.5,0,0,1-1,0c-.69,2.44-.4,3.22.86,2.32a.5.5,0,0,0,.21,0c0,.42,0,.83,0,1.24a8.29,8.29,0,0,0-.91-.47c0,.87-.6,3.38.8,3a.34.34,0,0,1,0,.1,1.59,1.59,0,0,0-.24,2.19c-.1.7-.22,1.38-.36,2.07-.82.26-1.5.71-.79,1.93a1.22,1.22,0,0,1,.43-.36c-.25,1-.55,2-.89,3a18.94,18.94,0,0,0-1.89,3.35l.43.21-.22.46c-.51,1-1.05,2-1.64,3-.12.07-.23.15-.36.21a1.17,1.17,0,0,0,.2,0c-.3.48-.63,1-1,1.43a2.31,2.31,0,0,0-.28-.49,19.79,19.79,0,0,1-4,5,2.2,2.2,0,0,1,.1.41c-.42.42-.85.82-1.29,1.21a3.24,3.24,0,0,0,.27-.88A36.05,36.05,0,0,1,55.53,72a3.5,3.5,0,0,0,.43.63l-.94.49a3.11,3.11,0,0,0,0-.43,1.09,1.09,0,0,1-.16.5q-.7.34-1.41.66c-1.25.2-2.88.17-3.49,1.37-.37.13-.74.26-1.11.37-.05-.22-.11-.45-.18-.67-.73.2-2.6.74-2.78.85a1.3,1.3,0,0,0,.5.49l-.75.19a10.49,10.49,0,0,0-3.32-.17c.49.1.64.34.49.69a34,34,0,0,1-4.77.39c-.17-.56-.45-.82-2-.84a1.5,1.5,0,0,1,.31.82,33.91,33.91,0,0,1-3.94-.41c-.14-.7-4.78-1.73-5.29-1.32l-.92-.33a1.75,1.75,0,0,0-1-.77c-1-.43-1-.14-1.46-.26l-1.06-.52a37.94,37.94,0,0,0-3.66-2.17l-.22-.16c-.41-1.35-1.9-2-3.46-2.73a38.17,38.17,0,0,1-6.1-7c.23,0,.44.1.55.64.92-.47.24-.72-.67-.83-.32-.47-.63-1-.92-1.44a2.94,2.94,0,0,1,.75.38A4.13,4.13,0,0,0,7.73,59.2,41.65,41.65,0,0,1,2.26,40.65c.33-.29.5-.63,0-.88a32.89,32.89,0,0,1,.12-4.55c.13-1.21.28-2.39.4-3.12a32.58,32.58,0,0,1,7.9-16.9,22.27,22.27,0,0,1,3.3-3,2.83,2.83,0,0,1-.31-.11l.34-.32c.4,0,.89-.27,1.91-1,1.67-1.25,3.56-1.6,3.1-2.64l.59-.37L19.7,8a18,18,0,0,0,2.92-1.86c1-.48,2-.94,3.09-1.35.73-.29,1.48-.56,2.23-.82,3.39-.9,6.85-1,10.05-2.37.45-.21.28-.42-.18-.61.78-.3,1.19-.55.55-.56-.82,0-1.62,0-2.42,0A27.11,27.11,0,0,0,32.63,0a8,8,0,0,0-2.94.66H31a2.6,2.6,0,0,1-.82.48l-.16,0A.56.56,0,0,1,29.5,1a.78.78,0,0,1-.11-.18,9,9,0,0,0-1.23.8,34.12,34.12,0,0,0-4.61,1.53.51.51,0,0,1,0-.34c-.93.41-5.55,2.78-5.35,2.92.22-.07.44-.16.67-.25l-.27.16c-2.46,1.17-6.4,3.23-6.72,4.62l.42.33-.21.21a3.21,3.21,0,0,1-.24-.45C10,13.83,5.12,17.44,3,22.45,2.28,24-.92,32.18.26,33.55a3.31,3.31,0,0,1,.39-1.06C.53,34.25.49,37.06.5,39.73c0,.3,0,.6,0,.9,0,2.95.1,5.54.19,6.09A1.92,1.92,0,0,0,1,46.49,40.6,40.6,0,0,0,5,58.82c.59,2.7,4.08,6.61,5,7.73a23.55,23.55,0,0,1,3.74,5.19c.51,1,2.65.91,3.35,1.47A15.61,15.61,0,0,1,15.73,72a.74.74,0,0,0,.61.13c.31.24.64.47,1,.69.86,1.27,4,2.61,4.51,3a2.26,2.26,0,0,0,1.76.5,36.39,36.39,0,0,0,5,1.72c.27.26.54.37.75.19A40.18,40.18,0,0,0,60,72.74C74.62,63.44,80.1,46.14,75.82,29.66ZM45.26,2.14h0ZM70.33,21.75l.3-.39.18.36A2,2,0,0,0,70.33,21.75ZM67,63.69l-.19.23h0Zm-9.2,7.83h.1l0,0Zm-42.24.27a1.09,1.09,0,0,1-.19-.41A4.32,4.32,0,0,0,15.53,71.79Z"/></g></g></svg>