<svg xmlns="http://www.w3.org/2000/svg" viewBox="0 0 78.88 81.98"><defs><style>.cls-1{fill:#fff;}.cls-2{fill:#463f3a;}</style></defs><g id="Capa_2" data-name="Capa 2"><g id="Capa_1-2" data-name="Capa 1"><path class="cls-1" d="M42.15,1.43A35.28,35.28,0,0,0,17.56,7.64C6.44,15.65,1.19,29.56,1.83,41.79c1,19.57,17.4,40.78,40.28,39.32,22-1.4,37.76-23,35.44-44.5C75.36,16.27,57.74,3.29,42.15,1.43Z"/><path class="cls-2" d="M23,37.66a3.66,3.66,0,0,1-.54,1.17c-.08,0,.73-2.18.05-3.25,0,0,0,0-.05,0s0,0-.11,0c-.5-.16,0-.18.14-.11a1.08,1.08,0,0,0-.41-.38l-.09.18a6.48,6.48,0,0,0-.3-1,1.07,1.07,0,0,1,.44.19c0-.12-.06-.34,0-.22s0,0,0,.07c-.21-.47-.52-1-.5-1,.73.23-1.64-1.75-2.87-.28l.18-.27s-.12.11-.24.34a2.19,2.19,0,0,0-.21.34,2.2,2.2,0,0,1,.17-.25c-.46.88-1.3,2.76-1.54,2-.05.19-.19.85-.31,1.63,0,0-.07-.08-.12-.06s0,.21.09.25a16.27,16.27,0,0,0-.18,1.78,4.43,4.43,0,0,0-.07,1.88c-.12.58.52,1.55,1.19,2.3,0,0,.15.12.15.12.6.67,1.21,1.12,1.23.83a2,2,0,0,0-.08-.79,2.88,2.88,0,0,0,.72,0c-.08.28-.17.59-.26,1-3.07,3.19.58-.41.91-1.13a.15.15,0,0,0,0,.08c.11-.12.14-.17.09-.13a.17.17,0,0,0-.09,0l.06,0a2.17,2.17,0,0,0,.33-.19,3.76,3.76,0,0,0-.67,1.08c.18.3,1.84-1.66,1.65-1.79a.42.42,0,0,0-.47.29l0-.08c.05-.07.11-.14.16-.22.26-.1.47-.73.6-1.63.08-.17.16-.35.23-.53s.09-.36.14-.33C22.94,38.54,23.26,37.67,23,37.66ZM20,32.91c-.06,0-.12,0-.19-.13S20,32.88,20,32.91ZM18.84,43.25l-.12-.13.18,0Zm-.09-3.72a2.9,2.9,0,0,1,0-.83,6.34,6.34,0,0,1,.19-.84c0-.13.09-.26.14-.39l0,.07A14.6,14.6,0,0,0,18.75,39.53Zm.93,1.12a6.78,6.78,0,0,1,.14-1.49l.05.14C19.79,39.81,19.73,40.29,19.68,40.65ZM19.34,34a3.75,3.75,0,0,0,.19-.65.71.71,0,0,1,.67,0A2.52,2.52,0,0,0,19.34,34Zm1.81-.52,0,0C21.16,33.33,21.31,33.29,21.15,33.46Zm.57,4.4a.44.44,0,0,1,0-.1V38A.51.51,0,0,1,21.72,37.86Zm1-1.07c-.15-.89.23-.12,0,0ZM22.4,36c-.14,0,.08-.22.12-.24Q22.9,35.92,22.4,36Z"/><path class="cls-2" d="M63.36,38.64a.57.57,0,0,0-.12.24c0-.28-.07-.55-.12-.83.14-.64.2-1.1.07-1.09a3.61,3.61,0,0,1-.15.65c0-.19-.09-.38-.13-.57a4.18,4.18,0,0,0-.25-1.84s-.11.07-.26.09l0-.06a1,1,0,0,1,.13-.2l.12.07c0-.07-.06-.14-.1-.2s0,0-.15.08l-.1,0s0-.08,0-.12a.65.65,0,0,1,.24,0,1.39,1.39,0,0,0-.35-.28c-.1-.27-.2-.54-.31-.81a.51.51,0,0,1,.21.09c0-.08-.06-.18-.07-.22-.28-.45-.62-1-.57-.88.77.18-1.83-1.71-3-.35.08-.12.15-.24.24-.35s-.13.11-.26.37a1.48,1.48,0,0,0-.23.36c.06-.11.13-.2.2-.31-.46.93-1.31,3-1.53,2.12a9.81,9.81,0,0,0,0,2.22,1.61,1.61,0,0,0-.07.25,5.91,5.91,0,0,0,.63,4.12l.15.17c.39,1.41.94,2.32,1.6,1.74-.75.95.32-.19,0,.54.1-.21.17-.37.22-.51a2.08,2.08,0,0,0,1.84.28c0,.27,0,.57,0,.92,0,0,.18-.62.27-1a2.19,2.19,0,0,0,.3-.16,3.74,3.74,0,0,0-.09.66c.16.12.53-.6.8-1.25a3.29,3.29,0,0,0,.88-2,9.44,9.44,0,0,0-.06-1.59.07.07,0,0,0,.06.06C63.78,39,63.48,38.51,63.36,38.64ZM58,42.4l.08.14C58.06,42.52,57.7,42.44,58,42.4Zm.08-8a.19.19,0,0,1,0-.09.15.15,0,0,1,.1,0Zm1.47-2.2c-.07,0-.13,0-.18-.17S59.69,32.17,59.59,32.19Zm-1,.52c.11-.47-.11.89,0,0Zm.2.87a8.78,8.78,0,0,0,.29-1c.17-.13.49,0,.84.17A4,4,0,0,0,58.82,33.58Zm1.67,7.55a1.46,1.46,0,0,1-.12-.37,1.63,1.63,0,0,0,.37.44C60.67,41.31,60.59,41.32,60.49,41.13Zm2.3-5c-.23-.9.24-.17,0,0Z"/><path class="cls-2" d="M28.23,22.17a1.15,1.15,0,0,0-.79-.44l.09-.3a3,3,0,0,0-.47.3l-.41.06c.05-.18.59-.12.39-.46s-.8.09-1.11.09c-.51,0,.31.37.27.36a.32.32,0,0,1,0,.14c-.23.08-.47.18-.73.3,0-.06,0-.12,0-.12a.46.46,0,0,0-.05.15,18.92,18.92,0,0,0-3,1.88c-.08-.15-.22-.27-.39-.05a.72.72,0,0,0,0,.35l-.35.28-.36-.18c.22.41-1,.38-1.33.28-.05,0-.06,0-.06,0a2.75,2.75,0,0,1-.52.44.22.22,0,0,0-.05-.08s0,0,0,.12c-.79.48-1.84.71-2.37,1.16a.28.28,0,0,0,0,.08h-.07v-.05a.8.8,0,0,0-.24.88c-.57-1.47.15.6-.28-.3.3.63.37,1.25.75,1.38-.1,0,.21-.22.67-.45a15.36,15.36,0,0,1-1.65,1.4C18.54,30.9,30.44,25.14,28.23,22.17ZM16.85,27.52c0,.15-.05.11-.12-.13C16.73,27.39,16.93,27.29,16.85,27.52ZM18,26.3c.14.95-.32-.52,0,0Zm-.08.87Zm-.11-.78c.23.66,0,.16,0,.11S17.75,26.38,17.77,26.39Zm-.22,0c.09-.26.59,1.06,0,.07Zm.19.75c0,.05,0,.22,0,0Zm.1.69s-.08-.05-.11-.13l.31,0Zm.23-.91c-.14-.27,0-.18.07-.07Zm.17.44c0,.06,0-.16,0-.13Zm.18-.47c0-.23,0-.24.06,0S18.47,27,18.42,26.93Zm.33-.37a.26.26,0,0,1,.07.2C18.77,26.74,18.74,26.67,18.75,26.56Zm.33-.32c0,.13-.08-.06,0,0Zm.25.05,0,.19C19.35,26.61,19.27,26.26,19.33,26.29Zm.19.12a.63.63,0,0,1-.15-.35A.73.73,0,0,1,19.52,26.41Zm.14-.12a1.3,1.3,0,0,1-.06-.12S19.69,26.26,19.66,26.29Z"/><path class="cls-2" d="M76.37,26.58c-2.78-8.14-7.37-15.31-14.72-20a44.64,44.64,0,0,0-11.16-5c-2-.59-4-1.07-6.09-1.46-1.33-.26-5,1.2-2.61,1.59.67.11,1.34.24,2,.37,2.09.93,5.45,2.61,6.53,2.78,2.11.33,3.41,1.67,6.29,1.7,1.1.58,2.16,1.2,3.19,1.87-.19.5.7.87,1.73,1.19q1,.75,2,1.56l-.16.06a8.1,8.1,0,0,0,2.26,1.83,37.54,37.54,0,0,1,2.78,3c-.27,1.14,1.34,2.31,1.89,2.86.85-.15,1.8,8.87,4.28,8,.68,1.35-.15,2.41.28,4.16.73-.38.67-.05,1,.09a.94.94,0,0,1,0,.16c-1.29.55,0,2.36-.1,3.55l.68-.67c.07.38.13.77.19,1.16a1.6,1.6,0,0,0-.85-.21,22.76,22.76,0,0,1,.33,2.86A.79.79,0,0,1,77,38c0,.18,0,.35.05.53a1.4,1.4,0,0,1-.81,0q-1.08,3.68.79,2.36a.57.57,0,0,0,.13,0c0,.41,0,.82,0,1.23a6.15,6.15,0,0,0-.81-.49c0,.84-.82,3.53.68,3.08a1.78,1.78,0,0,0-.3,2.55c-.09.64-.2,1.27-.32,1.9-.91.25-1.81.64-1.12,2.06a1.19,1.19,0,0,1,.76-.47c-.21.89-.46,1.77-.73,2.64a13,13,0,0,0-2.37,4.13l.69.31-.24.52-.25-.15a4.74,4.74,0,0,1-.12.94c-.28.56-.57,1.12-.87,1.67a4.47,4.47,0,0,1-.93.78,2.49,2.49,0,0,0,.47,0c-.35.59-.7,1.18-1.08,1.76a1.88,1.88,0,0,0-.35-.67c-1.24,1.8-2.13,4-3.76,5.5a1.43,1.43,0,0,1,.11.32c-.41.45-.83.88-1.26,1.31a2.6,2.6,0,0,0,.29-.77A29.65,29.65,0,0,1,58,75a2.57,2.57,0,0,0,.22.32c-.23.14-.47.27-.71.4-.9.49-1.81.94-2.76,1.35a3.5,3.5,0,0,0-2.17.85c-.47.17-.95.32-1.44.47,0-.13-.06-.27-.1-.41-.86.36-2.6.64-2.88.81a2,2,0,0,0,.27.3l-1.09.21a14.32,14.32,0,0,0-2.85-.11c.36.08.53.23.53.44a34.94,34.94,0,0,1-4.79.18,1.41,1.41,0,0,1,.06-.22A10.52,10.52,0,0,1,38,79.15a1,1,0,0,1,.24.54,37.23,37.23,0,0,1-4.36-.64,14.83,14.83,0,0,0-4.67-1.29c-.51-.18-1-.36-1.51-.56-.33-1-1-1.79-2-.85-.35-.15-.69-.32-1-.48-1.17-1.06-3.14-2.58-4-2.28-.31-.19-.61-.4-.91-.6-1-.83-2.35-2.23-2.63-2.5a3.11,3.11,0,0,0-1.82-1c-.44-.4-.87-.82-1.3-1.24.13-.12-.22-.42-.79-.79a41.43,41.43,0,0,1-3.26-3.85c.25-.11.49,0,.67.57.9-.53.12-.75-.86-.82-.33-.47-.67-.93-1-1.41a2.62,2.62,0,0,1,.83.37,5,5,0,0,0-1.41-1.26c-.72-1.14-1.39-2.31-2-3.52-.48-1-.9-1.95-1.29-2.94-.57-3.44-1.05-7.81-2.22-9.41a37.66,37.66,0,0,1,.58-10.64c.19-.44.36-.7.5-.64a30.12,30.12,0,0,1,.72-4.1,40,40,0,0,1,2.61-6.42c.8-1.53,1.83-3.12,3-5a.62.62,0,0,1-.18,0l.4-.58a1.77,1.77,0,0,1,0,.24,27.06,27.06,0,0,1,4.77-5.31,2.67,2.67,0,0,1-.57-.16l.6-.6c1.07.17,1.65-.64,3.42-2.12C19.87,8.75,20.85,8.76,20,8l.53-.38.31.56c1.41-1.09,2.92-1.53,3.46-2.63L25,5.2a.47.47,0,0,1,0,.4l1.07-.54-.23-.23.5-.21a1.37,1.37,0,0,1,0,.29c4.36-1.91,9-1.69,13.2-3.59.51-.25.1-.48-.68-.68.64-.21,1.06-.35,1-.35-.66,0-1.31.09-2,.15A32.07,32.07,0,0,0,34,0a8.33,8.33,0,0,0-3,.7h1.34c-.71.57-1.22.68-1.52.34a.94.94,0,0,1-.12-.18c-1.23.63-2.07,1.48-3.56,2.2L26,3.54l-.36.12a3.41,3.41,0,0,1-.54.28c.47-.55-.62-.24-.32-1-.93.42-5.68,3-5.46,3.11l1.87-.85C19.37,6.09,13.42,9,13,11c.33.21.62.38.89.53l-.39.36a3.37,3.37,0,0,1-.53-.8c-1.4,2.73-3.17,2.42-4.31,5.84-.09.26-.29.74-.56,1.31a44.72,44.72,0,0,0-3,4.94.76.76,0,0,1-.26.18C3.77,23.71.28,33.88.91,34.93a1.8,1.8,0,0,1,.28-.66,38.64,38.64,0,0,0-.56,4.25c-.17.7-.29,1.23-.34,1.4-.62,2.65-.13,6,.37,8.6a1.72,1.72,0,0,0,.47-.46,38.63,38.63,0,0,0,1.09,4.52l0,.13a.07.07,0,0,1,0-.05c.12.38.24.76.37,1.14l-.09.11a9.24,9.24,0,0,0,1.76,4c.35.75.72,1.49,1.12,2.22C5.66,62.46,8.91,65.88,10,67a14.56,14.56,0,0,0,1.1,1.21c.75.85,1.54,1.67,2.36,2.46a8.22,8.22,0,0,1,1.1,1.79c.89,2.14,2.72,1.42,4.1,2.54l-.19-.16a38.16,38.16,0,0,0,44.73-.27C78,63.54,82.17,43.58,76.37,26.58ZM71.7,22.13c.18-.28.31-.47.41-.6.12.21.23.43.35.65A1.62,1.62,0,0,0,71.7,22.13Zm-44.06-18c0,.15.1.29,0,.22l-.19-.14ZM22.85,5v.06c-.28.14-.55.29-.82.44a4.07,4.07,0,0,1-.7-.34Zm-3,1.85-.74.49-.25-.16C19.26,6.83,19.56,6.76,19.81,6.84ZM.7,45.36c.05,0,.05.07.06.11ZM68.88,65.81l-.16,0a6.47,6.47,0,0,1,.53-.52C69.13,65.48,69,65.65,68.88,65.81Z"/><path class="cls-2" d="M50.38,22.13s.06,0,.16.06c-.06.14,0,.37.18.74a14.11,14.11,0,0,0,6.4,5.94c1.48.71,9.85,1.85,5.45-1.25l-.24-.15s0,0,0-.07c.18-.46-1.06-.87-1.08-.81a.31.31,0,0,0,0,.3l-.39-.2s0,0,0-.05a.46.46,0,0,1-.23-.05c-.46-.19-.88-.36-1.31-.51-.14-.1-.25-.15-.27-.1-.7-.25-1.4-.5-2.09-.78.13-.15.24-.4-.12-.47-.08,0-.25.12-.41.24l-.36-.18c0-.23,0-.48,0-.47-.23.39-.88-.72-1-1.05,0-.06,0-.08,0-.08a2.36,2.36,0,0,1-.66-.27l0-.07s-.06,0-.13,0c-.83-.5-1.55-1.42-2.21-1.75l-.08.05,0-.06.05,0a.78.78,0,0,0-.92.13c1.07-1.17-.47.39.14-.4C50.84,21.39,50.32,21.71,50.38,22.13Zm1.91.39-.09,0C52.37,22.23,52.36,22.42,52.29,22.52Zm.45-.42c-.79.54.33-.53,0,0ZM52.57,22c-.49.48-.14.06-.1,0S52.57,21.93,52.57,22Zm-.14-.21c.28,0-.73,1.06,0,0Zm-.65.46,0,0-.09,0S51.75,22.25,51.78,22.21Zm-.63-.84s.18.15-.06.17S51,21.54,51.15,21.37Z"/><path class="cls-2" d="M52,60.28a.76.76,0,0,0-.13.8c-.11-.25-.63-2.1-1.21-3.89-.24-.12-.34-.39-.3-.82l.06.08c-.56-1.63-1.14-3-1.45-2.7a5.58,5.58,0,0,1,.9,1.81c-.29.06-1.14-1.46-2.27-2.56-.24-.09-.69-.34-.73-.61l-.26-.16a.4.4,0,0,1-.11.22c-.09.11-.24-.26-.23-.3a.56.56,0,0,1,.17,0L46.13,52s0,.06,0,.16a1.41,1.41,0,0,1-.29.07l-.11-.07a.6.6,0,0,1,.25-.21,1.83,1.83,0,0,0-.7,0c-.23-.09-.49-.22-.76-.32a4.88,4.88,0,0,0,.77-.09,7.33,7.33,0,0,0-2.68-.72,3,3,0,0,1,.85-.07,19.24,19.24,0,0,0-5.4.06l.74-.21c-.06-.4-5.36,2.43-4.47,1.15a9.21,9.21,0,0,0-2,1.65c0-.09,0-.16,0-.16s-.26.33-.17.37a24.44,24.44,0,0,0-2.54,3.73,8.24,8.24,0,0,0-.45,1.14l.05,0c.13.24,0,.3-.13.26l-.29.94s.08.13,0,.21,0,0,0-.05A19.09,19.09,0,0,0,28.1,62s0,.27,0,.27l0-.06c-.14,1-.06,1.7.49,1.53-1.05.63.29.09-.27.72a9.52,9.52,0,0,0,.68-.86.42.42,0,0,0,.12.53,8.12,8.12,0,0,1,.23-1.26c.05.33.11.69.17,1,0,.11,0,.23-.05.35-.68.11-1,.29-.09.6.13.27,0,.38-.33.34,0,0,.61.55.51.5.2.12,5.84.41,6.05.13.07-.1-.91-.27-.17-.37l.31,0c-.26.47,4.11.07,1.51.19l.37-.15c1.19,0,2.42,0,3.63,0-.15,0-.29.07-.29.17,0,.53.58,0,.69-.18,1.21,0,2.39,0,3.49-.09,0,.16.13.09.21,0,1,0,1.85-.1,2.63-.17a.31.31,0,0,1,.06.12.53.53,0,0,1,0-.13l1.15-.13c-.44.52.16.55,1.84.09l-.25,0a3.81,3.81,0,0,0,.66-1.4c.15.69.31,1.33.33,1.41,0-.47-.18-1.23-.23-1.91a1.31,1.31,0,0,0,0-.34.77.77,0,0,0,0-.15,1.69,1.69,0,0,1,0-.33h-.07a.5.5,0,0,1,0-.12l.09-.11a.36.36,0,0,1,0,.07.67.67,0,0,1,.16-.29,8.74,8.74,0,0,0,.25,2.1C52.2,64.16,52.4,60.28,52,60.28ZM28.65,63.42s0-.69.13-.28C28.88,63.29,28.84,63.38,28.65,63.42Zm.26-4.15a.12.12,0,0,1,0-.16C29.38,59.27,28.94,59.29,28.91,59.27Zm.21,1.08,0-.18C29.16,60.26,29.29,60.3,29.12,60.35Zm.24-.56-.08,0c0-.11.08-.13.11-.12Zm.07-.84c-.25.08-.05-.26.07-.27A2.68,2.68,0,0,0,29.43,59Zm2.2-4v.21C31.55,55.34,31.49,55,31.63,54.91Zm-.09,10.35c0,.07-.07.27,0,0Zm-.23-.05s-.07.16-.1,0Zm-.22-9.84c0,.13-.15.1,0,0ZM29.69,65c-.1.07-.13,0-.13-.09l.05,0,.14,0A.09.09,0,0,1,29.69,65ZM30,58l-.06,0c-.08-.25,0-.32.08-.21s0,0,0,.06A.61.61,0,0,1,30,58Zm.33-.73c-.12,0-.59,0,0,0Zm.11-.59c.09,0,.14,0,.13.1S30.4,56.79,30.4,56.63ZM31,65.57a6.79,6.79,0,0,0,.85.13C31.55,65.76,31,65.8,31,65.57Zm.84-11.08c.16,0,.22.08.22.23C31.86,54.76,31.78,54.69,31.8,54.49ZM32,65.54c-.06,0,0-.12.09-.08ZM47.5,53.47c0-.2.26.2,0,0C47.52,53.51,47.51,53.44,47.5,53.47Zm-3.37-2.29c.1,0,.3,0,.4.18C44.41,51.34,43.93,51.1,44.13,51.18Zm-4.4-.24h-.07s0,0,0-.06A.2.2,0,0,1,39.73,50.94Zm-7.32,3.37-.11-.1.17,0v.08Zm.17,11h.09C32.64,65.38,32.61,65.36,32.58,65.31ZM47.2,58.2c.4,0,.43-.07.15-.28a10.68,10.68,0,0,1-1.11.11l-.43,0A.48.48,0,0,0,46,58c-.28,0-.56,0-.79,0a3.79,3.79,0,0,0,.65-.21H45a1.66,1.66,0,0,1-.31,0s0,0,0,0h-.18s0,0,0,.08h-.13a.56.56,0,0,0-.14-.09h-.09a.17.17,0,0,0,0,.1l-.65,0a.73.73,0,0,0-.29,0c-.72,0-1.46,0-1.9,0,.32.07.63.14,1,.18l-2-.09c.1,0-.31-.11-.68,0h.06a18.6,18.6,0,0,0-2.79,0,.53.53,0,0,1,.54.17c-.05.24-2.67-.22-2.65-.25A5.31,5.31,0,0,1,36.18,58a.32.32,0,0,0-.17-.11h-.45c-.54,0-1.07,0-1.59,0,.09-.14.18-.25.27-.37a1.77,1.77,0,0,0-.38.2,8.26,8.26,0,0,1,.72-1.39s.05,0,0-.07c.7-1.13,1.73-2.41,2.41-1.81.45-1.46,4.67-1,5.57-.62-1,.06,2.74,1.73,2.62,1.87l-.68-.43a16.34,16.34,0,0,1,3.31,3Zm2.35,7,0-.09h.06S49.56,65.11,49.55,65.15Zm.25,0-.12-.1c.23,0,.44-.08.63-.13a.8.8,0,0,0,0,.18C50,65,49.66,65,49.8,65.13Zm0-8.45c.08.07-.15-.33-.16-.3A11.24,11.24,0,0,0,47.92,54c1.58.62,3.16,4.63,3.15,5.33,0,.1-.08.15-.17.18A16.56,16.56,0,0,0,49.81,56.68Zm1.52,4.64a1.06,1.06,0,0,0,0-.19,1.08,1.08,0,0,0,0-.18,2.22,2.22,0,0,1-.12-.46h.06v-.08a.08.08,0,0,0-.07,0c0-.21-.11-.41-.16-.61.08,0,.15,0,.15,0s0,.28.08.57c.05,0,.06.07,0,.08s0,.3.06.45c0,0,.09,0,.15.13a.13.13,0,0,1-.13.06C51.32,61.2,51.32,61.26,51.33,61.32Z"/></g></g></svg>