<svg xmlns="http://www.w3.org/2000/svg" viewBox="0 0 76.62 78.47"><defs><style>.cls-1{fill:#fff;}.cls-2{fill:#463f3a;}</style></defs><g id="Capa_2" data-name="Capa 2"><g id="Capa_1-2" data-name="Capa 1"><path class="cls-1" d="M40,1.88A35.07,35.07,0,0,0,16,7.77C5.2,15.39.09,28.6.71,40.22c1,18.59,17,38.74,39.22,37.36C61.37,76.25,76.7,55.7,74.44,35.3,72.31,16,55.15,3.64,40,1.88Z"/><path class="cls-2" d="M68.43,14.72A32.11,32.11,0,0,0,55.54,4.33c-1.26-.57-14.27-4.69-14.48-3.1a10,10,0,0,0,1.83.71c-.22,0-.36,0-.37,0s.13.19.36.28A3.88,3.88,0,0,0,41.38,2c.66-.23,6.26,3,7.88,3.2,2.08.24,3.28,1.91,6.2,1.78.21,0-.24-.34-.61-.59a41,41,0,0,1,3.66,2.18c-.69.68.93,1.21,2.32,1.7.46.36.91.74,1.35,1.12a3.81,3.81,0,0,1-.56.27c1,1.48,2.8,2.07,3.88,3.11l.42.49a2.43,2.43,0,0,1,.44,1.48c0,.78,1.53,1.95,2,2.33.54-.11,1.89,7.3,3.84,7.65.2.59.38,1.18.56,1.78a4.41,4.41,0,0,0,0,2.12,1.41,1.41,0,0,1,.53-.16c0,.23.11.45.15.67-.67.66.28,2.2.11,3.21l.4-.36c0,.23.07.47.1.7a2.49,2.49,0,0,0-.5-.08,26.18,26.18,0,0,0,.39,3.21l-.17,0q-1.14,3.39.59,2.35c0,.33,0,.66,0,1-.17-.11-.35-.22-.57-.34a8.31,8.31,0,0,0,.19,4.48c-.15.95-.32,1.89-.54,2.81-.8.22-1.5.61-.91,1.89a1.12,1.12,0,0,1,.54-.38c-.26.93-.56,1.83-.88,2.72A16.55,16.55,0,0,0,70,55.91l.46.23-.24.47-.06,0c0,.06,0,.13,0,.19-.51,1-1,1.9-1.64,2.81a2.9,2.9,0,0,1-.29.19l.15,0q-.45.69-.93,1.35a2.7,2.7,0,0,0-.21-.35c-.9,1.29-1.73,2.69-2.75,3.9a1.29,1.29,0,0,1-.16.17,3.68,3.68,0,0,1-.33.35c-.49.51-1,1-1.53,1.46a43,43,0,0,1-7.71,5.18l.07.11a35.19,35.19,0,0,1-4.17,1.84,3,3,0,0,0-.81.27c-.63.21-1.26.4-1.9.58,0-.07,0-.15-.05-.22a25.83,25.83,0,0,0-2.8.7,1.09,1.09,0,0,0,.13.17c-.8.15-1.62.27-2.44.37a7.12,7.12,0,0,0-1.25-.18.69.69,0,0,1,.49.27,36.22,36.22,0,0,1-4.56.18.13.13,0,0,0,0-.06,10.45,10.45,0,0,1-2.21-.39.73.73,0,0,1,.19.35,35.79,35.79,0,0,1-4.8-.69,17.17,17.17,0,0,0-3.07-.82c-.9-.28-1.79-.59-2.66-.94a2.17,2.17,0,0,0-.34-.19A3.93,3.93,0,0,0,24,73a34.15,34.15,0,0,1-5.79-3.25c-.48-1.08-1.7-1.73-3-2.34a36.53,36.53,0,0,1-5.83-6.46c.17-.19,0-.33-.31-.43A37.36,37.36,0,0,1,3.85,49.34c-.22-2.54-.5-5.14-1.2-6.52a37.44,37.44,0,0,1,0-6.7c0-.44.08-.87.13-1.31s.16-.64.18-.79c.28-2.42.62-2.71.83-4.75l.06-.44A33.6,33.6,0,0,1,10.59,15a19.72,19.72,0,0,1,3.76-3.37,2.92,2.92,0,0,1-.38-.14c.18-.16.34-.32.51-.46.68.07,1.17-.47,2.74-1.42s2.89-1.16,2.23-2.05L20,7.18c.06.13.13.27.19.42,1.1-.69,3.7-1.38,3.72-2.5l.44-.22c.1.09.12.24,0,.46l1.05-.51-.31-.32.55-.25a1.19,1.19,0,0,1,0,.43c4.19-1.62,8.84-1.6,12.73-3.55.59-.31-.19-.57-1.32-.76.57-.11,1.12-.21,1.62-.27-.59.07-1.17.16-1.76.24A28.57,28.57,0,0,0,33.11,0c-.11,0-4.51.43-4,.81-1.53.42-2.54,2.28-4.07,2.67l.05,0-.57.23c.46-.52-.59-.26-.28-1a48.62,48.62,0,0,0-5.35,2.71,17.05,17.05,0,0,0,1.84-.71c-1.77.79-7.67,3.1-8.23,5,.34.26.62.47.87.64l-.39.33a2.91,2.91,0,0,1-.51-.88c-1.94,2.88-6.87,6.24-8.15,11.1C3.76,23.05-.22,29.71.67,32.25.45,33.45.28,34.69.16,36a39.31,39.31,0,0,0,.2,8.82,7.66,7.66,0,0,0,0,.83l.08-.06a38.58,38.58,0,0,0,1.63,6.6,8.75,8.75,0,0,0,.83,2.22q.6,1.49,1.32,2.91c.3,2.33,3.37,5.85,4.83,7.4.8,1,1.65,1.9,2.54,2.79a17.25,17.25,0,0,1,1.81,2.67c.42.78,1.83.9,2.72,1.21a36.78,36.78,0,0,0,20.11,7.08,38.41,38.41,0,0,0,40.21-35A43.13,43.13,0,0,0,68.43,14.72ZM31.53.7c-.68.54-1.16.65-1.45.32a.86.86,0,0,1-.19-.31Zm-4.4,3.05c-.33.1,0,.56-.17.44A3.56,3.56,0,0,1,26.67,4l-.1-.1.4-.17Zm-4.77.92c-.38,0-.22.09-.1.07l-.71.34a3.23,3.23,0,0,1-.66-.35Zm-4,1.82a1.11,1.11,0,0,1,1-.23l-.73.43Zm25.9-3.83a2.48,2.48,0,0,1,.38.12ZM68.57,19l0,.05h0S68.56,19,68.57,19Zm1.2,3.08c.12-.19.2-.33.28-.44l.21.41A2.05,2.05,0,0,0,69.77,22.06Z"/><path class="cls-2" d="M37.79,54a3.44,3.44,0,0,1-.29-.47.62.62,0,0,1,0,.15l.14.19A7.16,7.16,0,0,0,36.3,53c.29-.07.5,0,.57.3a1,1,0,0,1,.53.32.18.18,0,0,1,.05-.16c-.35-.65-.75-1.41-1.77-1.31l-.56.12.49-.12.07,0a2.15,2.15,0,0,1,1.3.25c.35-.46-2.42-.58-1.35-.44A3.43,3.43,0,0,0,34.19,53a4.64,4.64,0,0,0-1,.72c-1,.9-1.46,1.32-1.83,1.32-.74-1.58-3.2-4.34-4.52-3.92a2.48,2.48,0,0,0-1.05.78c0,.18-.13.25-.21.25a7.9,7.9,0,0,0-.73,1.18.16.16,0,0,1-.05.1c-1,2-1.53,4.55-1,4.49-1.11.48.05.22-.34.63.22-.18.43-.37.64-.57-.13.94-.14,1.57,0,1.48.44-.31,3.53-5.05,3.74-4.77,1,1.33,1.33,3.2,3.18,3.71,2.4.66,2.51-2,4.06-2.77,2.25-1.18,4.11,5.06,7.09,1.6.49-.57,1.61-3.28,2.58-3.18a2,2,0,0,1,1.19.6c.68.64,1.18,1.53,2.41,1.49,1.81,0,1.83-1.85,3.38-2.16s2.41,4,3.75,3.18c.62-.4.54-1.26.19-2.13a2.73,2.73,0,0,0-.28-.63,9.1,9.1,0,0,0-.6-1c-.81-1.23-1.92-2.55-2.26-1.85a2.44,2.44,0,0,0,.29.27c-1.22-.34-2,.59-2.81,1.28.12-.19.23-.4.19-.37a4.63,4.63,0,0,0-.32.49,2.78,2.78,0,0,1-.83.5l-.57,0-.17,0c-1.66-.48-2.44-3.25-4.4-2.39-.77-.26-1.47.09-1.89,1.8l.11,0a14.13,14.13,0,0,1-.86,1.27,7.13,7.13,0,0,0,.35-1.33c-.48.63-1.11,2-1.93,2,.87-.54-.64-.32-1.52-.76ZM26.05,52.25l-.17.27C25.57,52.55,26,52.24,26.05,52.25Zm-.79.35c.44.27,0,.21,0,.18A.14.14,0,0,1,25.26,52.6Zm-1.05,4.62c.06.19,0,.28-.2.29C24,57.48,24.18,56.72,24.21,57.22Zm18.93-5.33L43,52l-.13.14h-.09C42.9,51.86,43.05,51.79,43.14,51.89Zm-.55.36s0,0,.1.09l-.26.37C42.37,52.53,42.39,52.14,42.59,52.25Zm-1.66,1.94c.08-.09.11-.31.33-.37C41.19,54,40.78,54.37,40.93,54.19Z"/><path class="cls-2" d="M16.08,43.32a1.33,1.33,0,0,0,.61.46,7.33,7.33,0,0,0,2.87,1.06,8,8,0,0,0,8.09-3.55,5.85,5.85,0,0,0,.76-.93c0-.13,0-.28,0-.44a10.88,10.88,0,0,0,1.07-5.72l0,0s0,0,0-.09A8.38,8.38,0,0,0,26,27.94a7,7,0,0,0-2.24-1,2.2,2.2,0,0,0-2.55-.24q-.36,0-.72.06c-1-1.11-3.94.69-5.64,2.46a.4.4,0,0,1,.06.13l-.25.27c0-.06,0-.16.05-.25-.9,1-1.4,1.94-1,2.34a.29.29,0,0,0,0,.09c-.58,0-.69.51-.75.63l.65-.15c-.11.74,0,1.22.5.63l.21-.21s0,0,0,0a8.6,8.6,0,0,1,1.28-.71,30.45,30.45,0,0,1,3-2.52,7.17,7.17,0,0,1,3.74-.82,3.91,3.91,0,0,1,1.12.46c1.39-.36,1.63,2.88,2.51,3.32.09,0-.11-1.06,0-1.14a8.89,8.89,0,0,1,.59,1.41A23.91,23.91,0,0,0,27,37.68a5.92,5.92,0,0,1-1.13,2.73c-1.36,1.68-5.23,2.88-7.54,1.89-.59-.73-1.27-1.56-1.66-1.93a3.66,3.66,0,0,1-.11-.77,4.74,4.74,0,0,1,2.66-4.54c0,.07,0,.15.13.23.29.17.39-.12.47-.39a3.64,3.64,0,0,1,.87,0,.26.26,0,0,0,0,.18L20.8,35l-.07,0h.09a3,3,0,0,0,.5.36.07.07,0,0,1,.05-.06l.19.16-.06,0,.23.16a2.91,2.91,0,0,1,.51,2.5,2.07,2.07,0,0,1-.5.69.7.7,0,0,1-.62,0c-.2-.08-.94-2.49-1.64-.76a1.79,1.79,0,0,0,1.24,2.65c3.66.84,5.09-3.36,3-5.89a4.82,4.82,0,0,0-3.05-1.85.65.65,0,0,0-.3,0,4.53,4.53,0,0,0-3,1l-.92,0c-1.29-.1-1.74,2.88-1.82,4.65A5,5,0,0,0,16.08,43.32Zm11-7.13a1.66,1.66,0,0,1,.06.21c0,.14,0,.28,0,.42C27.1,36.63,27.1,36.43,27.08,36.19ZM16.34,34.36s0,0,.09-.09c0,.73-.39.8-.81,1.4A2.65,2.65,0,0,1,16.34,34.36Z"/><path class="cls-2" d="M18,40.9a1,1,0,0,0-.86-.63A1,1,0,0,0,18,40.9Z"/><path class="cls-2" d="M21.16,42.44h.07a2,2,0,0,0,1.4-.63C22.36,40.91,21.4,42.29,21.16,42.44Z"/><path class="cls-2" d="M53.78,27.49c-2.81.36-3.1,1.14-5,3.29,0-.06-.09-.07-.16,0a.75.75,0,0,1,.08.14l-.18.26a1.24,1.24,0,0,1,0-.31c-.5.45-1.28,2.21.06,2.33-.78,0-.65.55-.63.75a11.82,11.82,0,0,1,1.27-.67.17.17,0,0,0,0,.07.3.3,0,0,0,0,.36c0,.52.08.73.28.26a5.6,5.6,0,0,1,.27-.55c.27-.23.56-.45.48-.35.15-.17.49-.8,1-1.52a6.61,6.61,0,0,1,6.24-1.72c.46.48.89,1,1.18,1,.07,0,0-.25-.11-.5a4.69,4.69,0,0,1,.74.57c.05,1.21,1.84,6.39.86,2.51a9.61,9.61,0,0,1,.65,2.34,7.23,7.23,0,0,1-.49,2c-.58.69-1.46,1.84-2.2,2.61a4.29,4.29,0,0,1-1.58.54,3.6,3.6,0,0,1-2.29-.49.39.39,0,0,0,.14-.08.68.68,0,0,0-.48-.13,4.34,4.34,0,0,1-1.17-1.21c-1.72-2.67,2.86-3.48,2.47-2.07-.21.79.25,3,1.64,1.54,2-2.11-.47-5.15-2.92-5-.41-.28-.74-.31-.86.13a4.07,4.07,0,0,0-1.29.53c.4-.32.74-.8,1.27-.88-1,.11-1.12.7-1.72,1.14l.18-.08a.08.08,0,0,0,0,0l-.14,0,.1,0A3.93,3.93,0,0,0,50,36.48c-1.23-.4.57,5.79,1.34,5a5.63,5.63,0,0,0,.92.84,6.58,6.58,0,0,0,1.23.64,1.38,1.38,0,0,0,1,.3c3.71.77,7.46-2.33,8.43-6a7.73,7.73,0,0,0-3.16-8.66c.16,0,.33,0,.32-.1s-.66-.3-.59-.06a7.61,7.61,0,0,0-1.94-.72A10.35,10.35,0,0,0,53.78,27.49Zm-1.36.6c0,.11,0,.2,0,.27a.75.75,0,0,0-.13.06c0-.07-.1-.15-.16-.27C52.1,28.44,51.87,27.76,52.42,28.09Zm-.78.42a1.73,1.73,0,0,1,.12.26l-.1.06c-.06,0-.11-.1-.11-.12S51.56,28.53,51.64,28.51Zm-.59.73s0,.05,0,.07-.15.11-.21.17a4.59,4.59,0,0,1,0-.48C50.94,28.33,51,28.71,51.05,29.24ZM48.79,32.8s.28-.76.31-.22C49.2,32.8,49.11,32.87,48.79,32.8Zm11.6-.19a.56.56,0,0,0,0,.12h-.1C60.3,32.65,60.34,32.62,60.39,32.61Zm-10.47,4.1,0,0c0,.1,0,.2,0,.3,0-.07,0-.13,0-.19S49.81,37,49.92,36.71Zm1.31,4.63.12.14S51.28,41.43,51.23,41.34Z"/><path class="cls-2" d="M57.34,40.41a1.07,1.07,0,0,0,.75-1C57.43,38.76,57.52,40.23,57.34,40.41Z"/></g></g></svg>