<svg xmlns="http://www.w3.org/2000/svg" viewBox="0 0 560 463.54"><defs><style>.cls-1{fill:#463f3a;}</style></defs><g id="Capa_2" data-name="Capa 2"><g id="Capa_1-2" data-name="Capa 1"><path class="cls-1" d="M159.78,80.11l.28-.28-.11-.38c-.83-3.64-1.25-7.44-2.55-10.91-3.49-9.31-2.94-17.92,3.42-25.85l-.18-.25.16.26c5.88-3.24,11.79-3.12,17.71-.11l0,0a34.26,34.26,0,0,1,8,15.8c1.74,8.52,1.16,17.1.53,25.66-.44,6-1,12.06-1.61,18.91a12.47,12.47,0,0,0,6.88-9.35,56.68,56.68,0,0,1,4.58-14.9h0c9.55-5.87,13.76-4.74,18.62,5,.64,1.3.86,3.18,3,2.6a3.46,3.46,0,0,0,2.44-3.44c.33-5.62.48-11.25.94-16.86,1.71-20.59,3.29-41.24,14.56-59.51l1.09-1.1C251-6.83,269.69,3.29,270.47,19.84a64.91,64.91,0,0,1-3.16,22.69,631.78,631.78,0,0,0-17.19,69.93c-1.74,9-3,18.17-6.61,26.72-3,7.14-7.47,10.5-12.81,9.85-7-.83-11.84-6-12.75-13.63-.4-3.35-.52-6.74-1-10.07-.69-4.63-1.12-9.47-4.6-13-2.25-2.32-5-4.11-8.5-2.5-3.64,1.69-3.77,4.8-2.94,8.14,1,4,2.1,8,3.07,12,2.13,8.8,2.26,17.48-1.84,25.84-5.4,11-17,16.09-28.82,12.58-10.74-3.2-14.61-10.41-13-24,1.19-10.25,2.65-20.49,3.25-30.78C164.16,102.29,164.2,90.91,159.78,80.11Z"/><path class="cls-1" d="M450.16,410.85l-1.24,1.25c-3.61,1.82-7.19,1.33-10.77-.14-5.45-8.45-6.22-17.87-5.82-27.56.14-3.56,0-7.13,0-10.7a15,15,0,0,0-2.28-8,6,6,0,0,0-6.76-2.88c-8,1.52-11,6.46-8.68,14.1.48,1.62,1,3.23,1.43,4.86,4.58,16.72,5.22,33.11-3.08,49.1-3.2,6.15-10.06,10.4-17.07,9.48-6.07-.79-11-6.12-12.11-13.1-.66-4.32,0-8.56.72-12.85,1-5.63,3.2-10.84,4.23-16.55,3.61-20,.19-38.8-7.17-57.23-2.6-6.52-4.45-13.16-4.19-20.24.33-8.93,4.73-15.33,12.63-19.15,11-5.34,20.67.29,21.57,12.5a61.31,61.31,0,0,1-.29,9c-.46,6-1.14,12-1.53,17.93-.14,2.24.11,4.74,2.47,5.88,2.65,1.27,5.1.19,7.35-1.4,2.71-1.91,3.54-4.69,3.77-7.81.39-5.33-.76-10.46-1.91-15.59-2.32-10.43-3-20.78,1-31l0,0a2.33,2.33,0,0,0,1.36-2.14l0,.1c9-5.58,14.28-4.18,19.64,5.1a48.81,48.81,0,0,1,4.46,10.9,111.34,111.34,0,0,1,4,23.79C453.67,356,458.28,383.55,450.16,410.85Z"/><path class="cls-1" d="M105.47,276a.71.71,0,0,0,.17-.78c10.11-18.41,10.66-38.78,12.12-59,.81-11.16,1.91-22.24,5.58-32.94,4.48-13.09,18.21-17.92,28.61-9.86,1.76,1.36,3.28,3.05,4.91,4.59l0,.05c4.83,8.94,7.64,18.52,9.65,28.44,1.14,5.64.78,11.52,2.9,17l-.21.35c.73,12.36,1.57,24.72,2.16,37.1.62,12.94,1.38,25.91-3.84,38.31-1.45,3.44-3.69,5.68-7.37,6.11-4,.46-6.8-1.64-8.73-5-3-5.11-3.24-10.63-2.68-16.37.71-7.28,1.17-14.59,1.66-21.89.24-3.52-.81-6.38-5-5-3.36,1.1-9.9-1.47-8.41,6.29A85.21,85.21,0,0,1,138,287.51c-.65,7-2.4,13.74-6.58,19.53-7.76,10.73-21.55,9.41-27.31-2.49a22.88,22.88,0,0,1-1.69-14.31C103.27,285.45,104.44,280.71,105.47,276Zm37.12-48.64c1.64-1,6,.31,5.22-4.12-.5-2.93-1.09-7.91-4.22-7.53-3.89.48-4,5.5-4.51,9.11C138.76,227,140,227.8,142.59,227.31Z"/><path class="cls-1" d="M318.46,418.76l-1.14-1c-12.31-12.09-17.91-27.27-20.15-44-2.3-17.07-1.54-33.92,3.58-50.46l-.32-.17.3.2a11.46,11.46,0,0,0,3.17-5.71v0l3.22-3.86c9.65-11.78,22.05-12.53,33-2,12.49,12,9.58,26.21-6.91,31.44-7.84,2.49-11.9,7.38-13.35,15-1.59,8.32-.89,16.44,3.06,24.08,4.31,8.32,13.46,12.75,22,10.68,3.85-.93,6.55-3.13,6.2-7.44s-3.07-6.29-7.24-6.18c-3,.08-6,.44-9,.73-8.06.79-12-3.29-11.06-11.28.41-3.48,2.38-6.26,3.73-9.32h-.1l1.18-1.25,0,.1c7.27-4.94,15.33-4.7,23.32-2.94,17.95,4,24.61,14.21,22.09,32.43-1,7.5-3.46,14.57-5.55,21.76a.33.33,0,0,0,0,.1,2.43,2.43,0,0,0-1.11,2.22l0,0c-1.44,1.92-2.86,3.86-4.35,5.75-8.38,10.54-18.35,13.21-30.8,8.25-3.11-1.23-6.19-2.54-9.28-3.81v.06a4.41,4.41,0,0,0-3.48-2.19l0,.08C319.23,419.62,318.84,419.19,318.46,418.76Z"/><path class="cls-1" d="M238.46,174.53c2-1.68,4.1-3.32,6.81-3.81,1,.77,1.9.41,3,.3,10.52-1,16.87,3.34,20,13.55a39.71,39.71,0,0,1,1.51,11.11c.19,10.55-1.42,20.94-2.72,31.36-1,8-2.11,16-1.78,24.1.15,3.41.48,7,4.2,8.57,4,1.68,5.74-1.77,7.85-3.93,4.05-4.15,7.47-9,12.66-11.88,6.14-3.42,10.82-1.73,13.73,4.63a17,17,0,0,1,1.23,8.81c-.66,7.1-1.69,14.15-2.31,21.25-.93,10.45-6.77,16.67-16.42,19.86-8.61,2.85-17.47,2.33-26.23,1.61-14.05-1.16-19.81-8-19.47-22.23.25-10.69.45-21.35-.55-32-1.24-13.2-5.32-25.66-9-38.26a34.86,34.86,0,0,1,.28-20.83C232.86,181.75,236.86,179,238.46,174.53Z"/><path class="cls-1" d="M215.56,167.84l1.2,1L218,170l-.1,0,2.16,3.92a.32.32,0,0,0,.06.53c.32,3.91,1.19,7.76.84,11.74a100.84,100.84,0,0,1-9.5,35.05,111,111,0,0,0-11,45.55c0,1.87-.4,3.95,1.55,5.07s3.6-.23,5.23-1.08a19.87,19.87,0,0,0,6.54-6l4.46-2.72c4.46-2.18,8.84-2.49,13.08.58l.18-.3-.21.28c2.65,4.41,4.24,9.1,3.46,14.29-1.32,8.75-3.94,16.88-11.54,22.42a.57.57,0,0,0-.63.24c-10.48,4.67-21.18,3.82-31.88,1-8.61-2.25-13.25-8.2-13.36-17.13,0-3.34.52-6.7.77-10.05.56-7.77,3.36-15.27,2.44-23.25-2.19-19.14-4.77-38.29-1.6-57.58l-.1,0c2.53-5.54,5.1-11,8.91-15.87h0a48.21,48.21,0,0,1,3.68-3.34C198.64,168,205.83,162.31,215.56,167.84Z"/><path class="cls-1" d="M48.93,70.58a3,3,0,0,0,.15-.84c6.18-7.2,14.13-11.35,23.24-13.54,7.29-1.76,14.5-4.09,21.89-5.17,8.24-1.21,16.4-3.36,24.85-3,10.68.49,14.41,5.7,11.17,15.76-1.74,5.39-5.57,8.82-10.54,11-3.59,1.59-7.36,2.78-11,4.21-10.79,4.18-14.56,11-13,22.5,1,7.31,3.6,14.15,5.61,21.15,4,13.95,3.64,27.44-3.7,40.25-4,6.9-9.08,9.9-14.32,8.85-6-1.21-9.78-6.21-10.58-14.27a73.43,73.43,0,0,1,.68-19.07c2-12.73,5.79-25.26,4.14-38.43-1.28-10.27-4.26-12.22-13.53-8.23-7.39,3.18-12.67.39-15-7.32C47.44,79.73,49.47,75.21,48.93,70.58Z"/><path class="cls-1" d="M153.58,401.34a.92.92,0,0,0,.27.81c2.34,9.56.14,18.66-2.87,27.67l.1.06-.9,1.35,0-.05a4.87,4.87,0,0,0-2.25,3.41h0c-11.08,8.72-23.7,8-36.49,5.78-6.94-1.21-10.63-5.62-11.88-12.49-2.17-11.88.89-23.56,2-35.16,1.14-11.84,1.69-23.47.34-35.19-.94-8.18-1.6-16.35-.89-24.53.65-7.54,5.31-12.89,11.64-14.18,16.63-3.39,26.67,6.76,22.44,23.12-2,7.59-4.9,14.95-7.51,22.37-3.5,9.93-7,19.86-6.48,30.6.21,4.41-.69,10.69,3.88,12,4.16,1.14,7.27-4.22,9.89-7.85h0c3.69-2.25,7.14-5.15,11.93-4.51l0-.08,2.3,1.21-.09,0,3.36,3.33,0-.1Z"/><path class="cls-1" d="M79.1,286.94a.37.37,0,0,0-.16.55c-2.28,1.86-4.5,1.91-6.26-.58-6.15-8.74-15.59-11.73-25.14-14.61-10.19-3.07-20.61-5.47-30.11-10.52-14.1-7.5-19.69-18.56-16.61-33l-.06,0c7.19-10.11,15.89-12.84,27.76-8.42,3.83,1.42,7.44,3.4,11.16,5.12l0,0a2.24,2.24,0,0,0,2,1.42l0,.13c2.16,2.42,4.46,4.63,8.07,5.73-.17-13.85-.47-27.32,11.71-36.66l0,.07c13.35-2.82,22.13,2.25,26.22,15.37a53.41,53.41,0,0,1,1.78,9.35c1.63,13.14-2.85,25.15-7.08,37.2C79.16,267.36,75.93,276.78,79.1,286.94ZM30.82,260.29c.86,1.5,2.13,1.1,3.39.73l7.9,2.6c8.9,4.25,18.93,5.74,27.32,11.27,1.24.82,2-.14,2.29-1.46,3-14.85,10.58-28.48,12-43.74.75-8.14,0-16.18-5.15-23.06-6.24-8.29-15-7.48-19.58,1.74-2.67,5.34-3,11.11-3.28,16.95-.18,4.73.68,9.32,1.3,14,.25,1.92,0,3.64-2.19,4.67-2,1-2.77-.48-4.21-1.17-3.33-1.6-5.17-4.75-8.14-6.61l-.09,0c-5.86-5.72-12.5-10-20.73-11.45C15.5,223.6,9.49,226,7,230.54c-2.59,4.71-1.3,11.77,3,16.39l.1.08c.74,3.35,3.36,4.9,6.07,6.37l0,0c2.28,2.73,5.39,4,8.69,4.88l.18-.05a7.85,7.85,0,0,0,5.54,2.22Z"/><path class="cls-1" d="M548.21,107.83l-.92,1.1a2.27,2.27,0,0,0-1.5,2l-.06-.11a15.77,15.77,0,0,0-5.16,4.69l-1.27,1.17a9.76,9.76,0,0,0-4.65,3.3v0c-2.36,1.12-4.67,2.37-7.09,3.34-18.4,7.42-35.91,6.16-51-7.34-14.35-12.88-18.62-29.6-13.9-48.12,2.36-9.28,7.79-17.14,14-24.66,10-12.15,23.36-16.33,37.93-16.38,11,0,21.23,4.58,30.3,11.11L545,38a20.44,20.44,0,0,0,5.56,5.64h0a3.13,3.13,0,0,0,1.84,2.57l0-.29v.28c3.71,8,7.25,16,7.53,25.11.23,7.45-1.46,14.51-3,21.65h0Zm-25.44,10.55a15.72,15.72,0,0,0,7.63-3.72c3.14-2.21,6.69-3.52,9.49-6.6,6.91-7.57,10.26-16.5,13.13-26.12,3.73-12.47-2.4-32.14-13.55-39.59-10.91-10.42-28.11-12.59-44.35-6-17.74,7.22-32.51,29.88-27.62,52.92,2.49,11.78,8.94,21.65,20.5,27.09C499.25,123.09,510.87,123.22,522.77,118.38Z"/><path class="cls-1" d="M278,45.55,276.7,43.4l-.82-1.11,0-4.16c1-.44,1-1.37,1-2.26L278,34.72c1.13-.38,1.2-1.33,1.24-2.29l-.16.11,1.4-1.19.93-1.11c.92,0,1.79-.06,2.13-1.14l.1-.09c1.45-.26,2.89-.65,4.35-.77,4.3-.34,8.49.12,10.55,4.55,1.91,4.13.15,7.64-2.92,10.58a15.91,15.91,0,0,1-14.33,4.47l.1,0c-.47-1-1.42-1-2.31-1.2l.1.14Z"/><path class="cls-1" d="M413.62,53c-1.39,10.86-3,23-4.51,35.25-.68,5.42-1.2,10.87-.48,16.29.94,7.13,5.68,9.14,11.31,4.7,4.39-3.47,8.2-7.7,12.61-11.16,4.68-3.67,10.06-6.85,16-3.1,5.75,3.65,6.68,9.59,5.46,16-4,21.06-14.39,37.55-33.86,47.72s-40.2-2.81-40.82-25.46c-.27-10.12,1.5-20.15.4-30.35a140.51,140.51,0,0,0-8.06-35.56C369,60.42,366.48,53.54,366.81,46c.67-15.16,17.78-28.11,32.4-24,9,2.51,12,10.19,13.69,18.36C413.64,44,413.37,47.81,413.62,53Z"/><path class="cls-1" d="M367.72,145.93c-9.8,13.5-23.62,18.43-39.65,18.29-13.34-.12-21.6-8.51-22.09-21.95-.21-5.83-.1-11.66,1.47-17.29,4.34-15.6,3.51-31.06.28-46.8-3-14.61.6-27.6,12.91-37.25a20.31,20.31,0,0,1,9-4.49c6.67-1.18,13.36-1.39,18.46,3.87,5.31,5.49,5,12.23,2.73,19C348.55,65.92,345.17,72,341.67,78c-5,8.49-9.09,17.31-10.24,27.21a46.18,46.18,0,0,0-.34,9.54c.91,9.94,4.09,11.46,12.39,6.13,3.63-2.33,7-5.07,10.78-7.17,9.31-5.19,18-.15,18.56,10.5.43,7.75-2.54,14.64-5.08,21.67Z"/><path class="cls-1" d="M295.17,157.88c-12.84,10.67-24.62,9.55-32-3.26-2.85-5-3.47-10.6-3.28-16.3.32-9.2,3.51-17.91,4.73-26.94s2.61-18.06,1-27.28c-.84-4.85.81-9.59,2.61-14.13,4.46-6.72,10.47-11.14,18.6-12.24,6.3-.85,10,2.32,10.32,8.73A25.87,25.87,0,0,1,296,75.32a57.9,57.9,0,0,0,.09,34.28,103.26,103.26,0,0,1,4.53,31.53A27.3,27.3,0,0,1,295.17,157.88Z"/><path class="cls-1" d="M381.19,298.06c-3.7,1-6.68,3.36-9.95,5.16C358.91,310,346.5,305.29,341.8,292a38.54,38.54,0,0,1-2.14-15.52c1.65-24.65.83-49.15-3.93-73.46a17.19,17.19,0,0,1-.29-3.92c.23-9.27-1.7-19.62,7.77-25.59,13.07-8.23,26.91-12.61,41.73-3.56,5.51,3.36,10.91,6.64,13.3,13.16,4.59,12.52,5.09,22.92-8.43,33.57,4,.63,7.61,1,11.12,1.75,24.81,5,34,29.91,18.67,50.17A83.12,83.12,0,0,1,386.48,295c-1.85.82-4,1.31-5.25,3.11ZM379,239.57a25,25,0,0,0-13.35,3.55c-2.51,1.42-3.84,3.44-3.15,6.46q1.29,5.68,2.51,11.37c.42,2,.88,3.53,3.63,2.81,7-1.85,13.91-3.87,19.55-8.7,2.56-2.19,5.58-4.63,4.21-8.43s-4.49-5.88-8.41-6.62A48.92,48.92,0,0,0,379,239.57ZM372.6,194c-.71-2.7-2.52-3.71-4.71-3.39-3.49.52-6.53,2-6.88,6.12-.17,2.05,1.08,2.63,2.86,2.19C367.26,198.1,370.76,197.38,372.6,194Z"/><path class="cls-1" d="M61.47,153.82c0,6.53.87,13.14-1.4,19.52-3.61,10.13-10.85,16-21.35,17.72-9.4,1.52-17-3.88-20.26-13.78-3.64-11-1.32-21.93.42-32.85.64-4.07,1.5-8.12,2.45-12.13A97.1,97.1,0,0,0,21.5,86a36.4,36.4,0,0,1-1.13-11.71,10.9,10.9,0,0,1,7.74-10.09c4.71-1.59,8.85,0,12.25,3.53s4.48,7.76,5,12.28a123.38,123.38,0,0,0,8.29,32.06C59.19,125.45,62.12,139.3,61.47,153.82Z"/><path class="cls-1" d="M201.23,357.92c7.85,3.89,14.77,7.15,20.7,12.18a37.27,37.27,0,0,1,10.51,14.38c3,7.11,6.17,14.11,10.74,20.36,5.46,7.45,10.12,9.06,19,6.71,10.91-2.89,15.21.08,15.73,11.26.41,9-.05,18.4-8.7,23.58-8.23,4.93-16.51,1-23.92-3.26a47.35,47.35,0,0,1-18.6-18.4c-4.93-9.06-9.51-18.31-14.35-27.42-2.75-5.17-5.94-10.1-11-13.35-2.82-1.81-6.06-3.67-9.42-1.42s-2.86,6.12-1.7,9.24c5.15,13.81,6.7,28.46,10.17,42.66,3.88,15.88-2.93,26-19,28.79-8.76,1.54-16-2.69-19-11.1-3.17-8.89-1-17.88-.19-26.77,1.38-15.72,2.79-31.41,1.79-47.21-.88-13.85-4.28-27.32-6.26-41-1.13-7.81.29-15,6.53-20.51a10.19,10.19,0,0,1,3.75-2.37c14.49-3.93,29-6.4,43.46.17,15.1,6.84,17.86,22.27,5.86,33.67C213,352.29,207.53,354.86,201.23,357.92Zm-10.74-31.45c-1.44.27-3.45.58-5.44,1-2.62.58-4.94,1.23-4.92,4.86,0,9,.62,9.43,8.88,5.39a39.75,39.75,0,0,0,4.88-2.68c2.11-1.42,3.73-3.33,2.86-6.08S193.24,326.8,190.49,326.47Z"/><path class="cls-1" d="M549.08,321.75a22.59,22.59,0,0,1-14.73,2.13c-6.33-1-8.65.71-10.65,7.05-2.54,8.05-.33,16,.36,24,1.64,18.78.06,37-8.24,54.28a45.19,45.19,0,0,1-9.51,13c-6.88,6.63-16.08,5.53-20.9-2.73-3.73-6.4-4.48-13.44-4-20.69,1.34-18.34,7.94-35.42,12.62-53,1.84-6.89,3.87-13.76,3.68-21-.23-9.5-5.31-12.4-13.7-7.78-3.94,2.17-7.68,4.79-11.79,6.55-7,3-13.09-.06-15.48-7.37-3.34-10.24,2.3-21.17,12.46-25.05,8.11-3.11,16.56-3.45,24.95-3.53,13.69-.14,27.42,0,41.06,1.57a34.94,34.94,0,0,1,4.45.71c7.63,1.95,14.16,5.48,16.66,13.55,2.41,7.8-1.87,13.27-7.2,18.17Z"/><path class="cls-1" d="M504.21,258.73l-3.83,5.18c-9,10.47-20,17.43-34,19.19-16.17,2-26.52-6.48-27.5-22.75-1-17-1.17-34.17-6.75-50.59-2-5.86-4.21-11.65-6.08-17.54-4.43-14-.81-23.58,11.57-31.23a70.06,70.06,0,0,1,38.49-10.63c5.21.06,10.06,1,14.36,4.08,4.6,8.84,3.47,13.54-5.5,23-5.73,3.09-12.12,3.69-18.34,5-7,1.49-10.41,6.49-9.12,12.52,1.53,7.14,6.51,10,13.35,7.43,2.46-.9,4.8-2.13,7.21-3.16,4.24-1.79,8.46-2.15,12.16,1.08,3.88,3.39,5,7.84,3.89,12.79-1.47,6.8-7.26,11.51-14.59,11.82-3,.13-6,0-9-.15-4.19-.16-7.52,1.3-8.77,5.49-1.49,5-.51,9.75,3.41,13.42,3.3,3.1,6.94,2,10.41.12,5.09-2.79,10.05-5.82,15.24-8.42,4.87-2.44,10-3.75,14.71.41,3.59,3.15,4.36,9.84,1.92,15.79C506.5,254,505.31,256.35,504.21,258.73Z"/><path class="cls-1" d="M79,304.39l1.1,1.1c9,11.62,12.51,25,12.77,39.44.47,25.89.53,51.79-2.3,77.57-.74,6.8-2.49,13.53-6.62,19.24-4,5.55-11.13,5.38-14.81-.4a27.26,27.26,0,0,1-3.81-19.44c1-6.67,2.33-13.3,3.44-19.95a57.18,57.18,0,0,0,.89-7.25c.16-3.94.58-8.58-3.69-10.42-4.86-2.09-9.54.17-13.67,3-2,1.35-1.82,3.45-1.52,5.61.6,4.27,1.13,8.56,1.47,12.85a37.36,37.36,0,0,1-5.92,24.13c-4.65,3.55-9.65,5.25-15.13,2.12s-7.09-8.44-7.33-14.34c-.4-9.82,2.83-18.89,6-27.91,5.1-14.32,10.88-28.45,12.78-43.68.9-7.25,1.1-14.59,1.72-21.88a63,63,0,0,1,1.2-8.9c3.74-16.3,17.64-21.44,32.29-12Zm-8.09,43.39c-.56-5.24-.32-9.8-2-14.06-.6-1.52-1.09-3.49-3.19-3.41-1.72.06-2.29,1.8-2.92,3.1-3.12,6.49-2.66,13.49-2.61,20.39,0,2-1,5.21,2.73,4.8,3.22-.36,7.7.53,8-4.88C71,351.48,70.92,349.23,70.92,347.78Z"/><path class="cls-1" d="M286.86,367.11c6.95,12.58,1.46,28.54-11.33,33-11.6,4-22.28-2.63-23.86-14.77-1-8-1.37-16-2.7-23.95-.93-5.58-3.5-10.58-4.55-16.09-1.72-9,2.57-15.49,11.36-16.54,6.91-.82,10.76,2,13,10.23,3.13,11.27,8.2,21.2,18,28.15Z"/><path class="cls-1" d="M243.34,324.86l-1.1-1c-.57-5.67,2-9.51,7.28-10.74,2.9-.67,5.76-.57,7.23,2.61,1.35,2.91-.2,5.09-2.38,6.8C251.11,325.09,247.48,326.28,243.34,324.86Z"/><path class="cls-1" d="M35.31,44.5C35.4,49.72,30,54.6,23.92,54.75c-4.6.11-8.17-2.72-8.33-6.62C15.4,43.65,22,37.32,26.86,37.27,31.57,37.23,35.23,40.36,35.31,44.5Z"/><path class="cls-1" d="M535,90.63c-.14.87-.27,1.74-.41,2.6L523.25,104c-11.06,6.51-22.16,9.56-33.37.28v0a8.36,8.36,0,0,0-3.43-3.34l0,0q-2.85-4.52-5.68-9l0,0c-.08-.92-.18-1.84-1.16-2.31l0,0c-.77-3.24-1.91-6.44-2.18-9.72-.16-2-1.79-5.38,2-5.93,3.13-.45,3.07,2.64,3.7,4.61.9,2.84,1.35,5.84,2.34,8.64,1.29,3.62,2.68,7.28,6.46,9.2v0c.38.9.91,1.58,2,1.41l-.05.13c7.15,8.74,18,8.18,27.43-1.42l0,0c4.2-1.32,6.07-5.21,8.92-8l2.52-.25,1.59.63.08.13C534.67,89.65,534.83,90.14,535,90.63Z"/><path class="cls-1" d="M512.47,73.66c1.94-7.38,3.83-14.78,5.86-22.14.54-1.94,1.36-4.4,4.09-3.41,2.48.91,1.89,3,1.23,5.17-1.86,6.19-3.31,12.5-5,18.73-1,3.47-2.85,4.8-6,2Z"/><path class="cls-1" d="M496.29,68.47c2-6.79,4.18-14.12,6.46-21.4.46-1.46,1.66-2.64,3.44-2s2.09,2.18,1.69,3.7C506,55.93,504,63.11,501.93,70.27c-.51,1.81-1.85,3-3.76,2.5S496.46,70.58,496.29,68.47Z"/></g></g></svg>