<svg xmlns="http://www.w3.org/2000/svg" viewBox="0 0 514.54 539.05"><defs><style>.cls-1{fill:#463f3a;}</style></defs><g id="Capa_2" data-name="Capa 2"><g id="Capa_1-2" data-name="Capa 1"><path class="cls-1" d="M141.05,441.27c13.67,1,23.06-7.21,32.8-14.85,6.21-4.86,10.46-11.61,16.49-16.59,6.85-5.64,14.39-10.57,23.26-11.62,12.66-1.5,20.55,6.77,27.85,15.58,10,12.11,10.56,26.46,9.63,41.08a292.92,292.92,0,0,0,.06,41.37c.05.66.27,1.31.3,2,.28,5.55.25,11.57,6.74,13.67a18.39,18.39,0,0,0,21.19-7c5-7.44,7.56-15.88,9.31-24.57,3.17-15.71,6.22-31.53,17-44.2,6-7.06,10.89-15.14,18.71-20.6,13.3-9.29,27.2-9.79,42.07-4,15.39,6,26.81,17.05,38.21,28.26a35.91,35.91,0,0,0,20,10.23c9.16,1.51,16-2.27,22.91-7.25,11.21-8,14.91-19.51,17.16-32.41,2-11.42,5.15-22.8,14.79-30.84,5.61-4.67,11.77-8.06,19-9.28,1.18-.2,2.37-.43,3.28.55,1.14,1.23.52,2.49-.12,3.68a17.43,17.43,0,0,1-1.55,2.56c-5.38,6.91-6.18,15-6.82,23.4-1.19,15.72,1.32,31.79-2.91,47.14-4.74,17.21-12,33.77-28,43.34-15.1,9-31.87,9.59-48.58,3.77-11-3.83-19-11.33-25-21.16-2.87-4.72-6.54-8.78-10.19-12.9-10-11.25-32.43-9-39.25,6.8-2.11,4.89-4.62,9.6-6.74,14.48-9.43,21.8-25.18,38.1-44.67,51.05-5.26,3.49-11.6,3.75-17.66,4.76-6.76,1.13-13.44,1.87-20.32,1.09-20.15-2.28-28.72-16.49-34.69-33.38-1.3-3.68-.78-7.6-.15-11.38a211.08,211.08,0,0,1,9.67-37.1,47.66,47.66,0,0,0,2.47-11.67c.48-4.86-1-9.23-5.71-11.82-5.12-2.8-10.17-2.85-15.09.35-3.27,2.13-5.49,5.17-7.51,8.51a82.63,82.63,0,0,1-35.64,32.43c-12.31,5.82-25.79,5.57-39.17,3.21-10.12-1.79-20.46-2.51-29.36-8.66-13.56-9.37-21.47-21.83-22.18-38.55a82.57,82.57,0,0,0-1-10.89c-2.18-12.16,5.32-20.63,10.81-30,5.83-10,9.68-20.82,3.75-32.16-5.12-9.82-14.42-14.57-24.64-17.19-12.82-3.3-22.11-10.31-27.14-22.75a17.71,17.71,0,0,1-1.62-7.21c.28-12.79,0-25.55,6.87-37.26,9.68-16.52,22.88-28.07,42.28-30.89,9.81-1.42,19,1.93,27.85,5.86,3.07,1.37,4.71,4.7,5.82,7.89q2.78,8,5.2,16.11c2.2,7.34,5.75,10.38,13.47,9.75s15.52-2.2,22-7.1c4.05-3.06,6.84-6.87,6.19-12.3-.57-4.74-3.18-7.37-7.66-6.08-14.28,4.11-22-7.42-22.23-20,0-2.5,0-5,0-7.49,0-4.42.31-8.95-5.86-9.6a1.46,1.46,0,0,1-1.48-1.65,2.34,2.34,0,0,1,2-2c6.26-.65,12.52-1.92,18.85-1.16,3,.36,2.72,3.09,2.66,5.16a17.12,17.12,0,0,0,2.38,9.53c1.22,2.05,2.92,3.34,5.34,2.77,2.24-.53,2.23-2.52,2.4-4.41,1.21-13.26,1.24-13.22,14.44-15.61,4.57-.82,9.08-2,13.67-2.74,1.84-.29,4.22-.67,5.2,1.78s-.66,3.66-2.25,5c-8.62,7.36-9.77,12.71-5.28,23.24a162.16,162.16,0,0,1,9.24,27.33c4.29,18.58-10.3,37.18-27.19,40.26-8.81,1.6-17.53,3.79-26.53,4.39-13.73.91-36-6.47-42.77-22.91-3.09-7.48-9-9.29-16.12-9-8.91.39-16,10-14.09,18.75,2.45,11.43,10.48,17.08,20.65,21,9.23,3.51,19.51,5.06,26.77,12.61,6.59,6.85,10.46,15,9.35,24.79-.54,4.81.91,9.59,0,14.4-1.26,6.52-4.61,12.15-7.93,17.67-6.89,11.45-6.61,33.74,3.45,45.76a18.25,18.25,0,0,0,11.19,6.09C134.05,440.88,137.57,441,141.05,441.27Z"/><path class="cls-1" d="M400.83,158c7.61-.25,15.42.17,23.24,2.67,9.19,2.93,13.05,9.64,14.11,18.06,1,8-3.48,14-9.85,18.41-2.85,2-6.05,3.51-8.84,5.59a8.55,8.55,0,0,0-3.48,9.62c1.1,4.38,3.94,6.48,8.2,6.69a74.91,74.91,0,0,0,13,0c6.6-.83,11.88-4.61,13.63-11,3.68-13.37,6.44-26.92-.14-40.42a38.42,38.42,0,0,0-5-7.38,120.38,120.38,0,0,0-19.57-19.18c-4.35-3.4-9.24-4.66-14.8-5-11.14-.62-21.63,1.17-32.37,4.3-13,3.79-26.66,3.13-39.93.18-9.16-2-15.17-7.77-17.59-17.15-1.53-6-3.21-11.82-4-18-.59-4.69-3-8.55-7.88-10a38.46,38.46,0,0,0-15.11-1.81c-6.55.63-13.25-.12-19.87-.56-3.31-.21-6.39,1.27-9.87.37-6.43-1.68-11-6-16-9.87-13.67-10.59-23.83-24.52-35-37.49-4.28-5-9.38-7.93-15.66-6.65C190.71,41,184,44.27,181.9,52.57c-1.34,5.31-2.51,10.62-2.43,16.22C179.62,80.31,167.71,98.11,157,102c-13.3,4.8-25.78,3.85-36.18-7-6.56-6.85-13.21-13.61-19.58-20.63-10.91-12-24.52-15-39.95-12.6a105.24,105.24,0,0,0-11.27,2.05c-3.19.86-5.17-1.24-6.43-3.6s1.22-3.58,2.69-4.61C57,48.08,67.86,41.29,81.54,40.45a45.8,45.8,0,0,1,27.48,7c6.25,3.84,11.73,8.75,17.08,13.74a17.69,17.69,0,0,0,9.09,4.87c5.47,1,10.05-1.14,12.21-6.19,3.6-8.41,7-16.92,10.32-25.44,4-10.19,13-16.22,19.71-24.21a4.4,4.4,0,0,1,2.71-1.05c9.58-1.16,19.06-2.38,28.29,2.28,10.82,5.45,20,12.13,27.26,22.44a156.81,156.81,0,0,0,20.39,23.76c9.26,8.73,21.46,10,33.75,8a119.06,119.06,0,0,0,22-6.19c19.14-7.17,39.61,7.33,39.82,27.56.13,12.8,4.47,16.8,17.07,17.3,9.54.37,18.23-3,27.29-4.75,15.44-3,30.38-1.64,44.74,5.11,5.74,2.7,9.72,7.44,14.43,11.37,16.7,14,25.74,32.2,28.64,53.25,2.46,17.78.33,35.38-5.46,52.6-3.31,9.84-8.58,18.26-14.7,26.4-8.94,11.9-21.44,12.39-34.63,11.41s-20.35-8.11-24-20.27c-1.71-5.67-3.75-11.44-8.25-15.77-3.55-3.4-6-3.16-9,.84a13.39,13.39,0,0,0-2.95,8.33c.17,7.3-.65,14.61.69,21.91,1,5.55-1.43,8-7,8.88-8.88,1.42-17.82,2.06-26.77,2.76-5,.39-6.26-1-4-5.47,3.73-7.24,8.52-14,11.76-21.41,7.71-17.65,8.51-35.68.9-53.68-1.49-3.54-4.11-5.46-8.26-4.91s-5.92-1.68-6.14-5.8.7-7,5.13-7.66a51.25,51.25,0,0,1,5.93-.68,47.3,47.3,0,0,0,19.36-5.48C383.86,157.56,392.24,157.83,400.83,158ZM379.61,187.1c0,2.82-.08,5.65,0,8.46.14,3.94,2.33,5.28,6,4.27,9.47-2.59,18.54-6,26.46-12.06,3.14-2.38,5.73-5,4.16-9.14s-4.54-6.72-9.49-6.42-9.88.17-14.86.87C379.79,174.8,379.44,174.94,379.61,187.1Z"/><path class="cls-1" d="M225.54,375.13c.5-5.29.59-10.52-.8-15.78-.84-3.18-2.28-3.66-5-2.61a11.87,11.87,0,0,0-6.77,6.92,51.7,51.7,0,0,0-2.43,7.6c-.92,3.76-3.27,5-7,4.85s-5.94-1.93-6.29-5.67c-.27-3-.41-6-.48-8.95-.06-2.6-.08-5.27-3.29-5.89s-4.46,1.9-5.48,4.13a84.43,84.43,0,0,0-6.44,22.47c-1,6.89-4.9,11.06-12.09,11.54-7.95.52-15.95.36-23.93.24-3,0-4.71-1.69-4.94-5.07-.26-3.92.63-7.64,1.4-11.35,4.8-23,16.17-41.95,35.1-56.23a73.36,73.36,0,0,0,15.11-15.16c3.17-4.33,4.67-8.95,2-14.44-2.16-4.45-.92-6.34,3.77-7.6,5.93-1.58,11.86-3.36,18.09-2.12,5.28,1,6.64,2.86,5.31,8a123.56,123.56,0,0,1-4.89,14.13,22,22,0,0,0-1.86,9.71c.33,4.27,3.12,5.76,6.92,3.79,5.23-2.71,7.63-7.26,8-12.94.53-7.57,4.75-13.44,9.16-19,3.5-4.42,9.34-2.62,14.11-3.37,3.16-.5,7.39-1.81,9.75,1.75s-1,6.53-2.46,9.53c-3.11,6.33-4.49,12.95-2.87,19.84.88,3.71-.17,7.25,0,10.89.41,8,1.32,15.86,2.16,23.79,1,9.79-.07,19.66-2.05,29.24-2.24,10.88-18.38,17.89-28,9.6C225.84,383.91,225.2,379.64,225.54,375.13Z"/><path class="cls-1" d="M514.51,122.88c.33,21.35-2.54,37.06-9.35,52-.75,1.63-1.39,4-3.48,3.74-2.34-.24-2-2.79-2.15-4.48-1.41-18.22-7.41-35.3-15.21-51.41-7.94-16.39-19.29-30.6-38.47-35.21-11.75-2.82-15-16.63-11.58-25.73.82-2.18,1.48-4.43,2.45-6.54,3.37-7.31,1.62-13.87-2.56-20.24-3.29-5-6.39-10.12-9.53-15.21a14,14,0,0,1-1.72-11Q424.76.91,432.66.29c6.43-.52,12.74-.47,19.13,1.3,16.15,4.47,28.8,13.61,37.72,27.62C502,48.74,511.14,69.55,512.62,93.09,513.35,104.69,514.09,116.29,514.51,122.88Z"/><path class="cls-1" d="M334.28,386.07c-4.21.65-8.58-.77-13-1.13-4.3-.36-6.71-2.47-6.66-7.49.1-10.24,2.88-20,4.41-30a294.9,294.9,0,0,0,3.61-33.12c.27-6.88-2-12.78-8.27-16.49-3.74-2.21-4.33-5.64-3.78-9.51s3.9-4.39,6.7-4.93q11.72-2.23,23.57-3.79c4.66-.63,7.57,2.74,6.74,7.46a64.59,64.59,0,0,1-1.76,6.76c-2.69,9.36,8.31,18.42,15.82,18.43,2.77,0,3.78-1.44,3.94-4A32.46,32.46,0,0,0,364,296.94a27.5,27.5,0,0,1-1.29-5.81c-.69-10.75,2.24-14,13-13.8,6.67.11,13.26-.89,19.9-.95S403,278,401,284.21c-5,15.45-7.33,31.1-4.88,47.51,2,13.39,4,26.95,1.55,40.6-1.66,9.33-3.58,10.87-12.79,10-3-.26-6-.18-9-.21-5.27,0-8.9-2.74-10.88-7.38-2.8-6.55-6-13-6.65-20.27A6.09,6.09,0,0,0,358,353c-1-2.95-1.43-6.89-5.39-6.82-3.39.05-3.94,3.69-4.62,6.34a59.89,59.89,0,0,0-2,19.74,44.5,44.5,0,0,1-.76,9.88c-.38,2.4-2.28,3.65-4.63,3.86C338.62,386.2,336.61,386.07,334.28,386.07Z"/><path class="cls-1" d="M428.85,274c9.81-.43,21.16.91,32.44,3.25,14.43,3,21.27,9.69,22.83,24.23A89.58,89.58,0,0,1,482,333.12c-2.9,11.44-10.65,19.59-18.35,27.94-11.36,12.32-27,15.17-41.88,19.43-4.91,1.4-11.25,2.39-14.85-2.65-3.14-4.4-1.64-10.18,1.24-14.14,5.5-7.57,5.8-16.15,6.23-24.69.69-13.73.61-27.5,1.14-41.25.19-5-1.42-8.61-5.4-11.57-2.27-1.7-5.31-3.42-3.84-7.24s4.67-4.94,8.41-5C418.81,273.92,423,274,428.85,274Zm17.5,26.33c-11.57-.78-11.57-.78-11.79,10.69,0,.83-.11,1.67-.07,2.49.49,10.31-.9,20.57-.89,30.86,0,2.49-.07,5.82,3.94,4.12,6.11-2.59,12.32-5.36,16.06-11.27a97.49,97.49,0,0,0,10.22-22.11c2.36-7.31-2.85-14.19-10.49-14.75C451,300.15,448.68,300.29,446.35,300.29Z"/><path class="cls-1" d="M91.78,126.93c14.67.49,24.69,1.1,34.11-3.25a7.5,7.5,0,0,1,1.93-.49c7.59-1.25,9-.06,8.66,7.54-.19,4.15-.58,8.29-2.28,12.17-3.78,8.61-6.24,10.2-15.41,7.93-6.6-1.64-13.18-1.41-19.81-1.6-4.44-.12-6.8,2.18-7.87,6.15-1,3.71,1.62,10.68,4.45,12.05,2.61,1.25,4.45-.42,6.26-1.87,2.19-1.75,3.9-4.07,6.67-5.14,5.66-2.18,11.63.22,13.07,6.12,2.69,11.09,1.16,14.41-9.26,17.58a43.73,43.73,0,0,1-16.26,2c-4.69-.37-7,1.81-8,6.25-2.1,9,.08,12.56,9.06,14.1,4.23.73,8.68,1.69,9.71,6.44S105.72,222,102,225.33c-5.48,4.78-12.59,4.91-19.09,6.75-7.35,2.07-14.74,4-22.08,6.1-3.8,1.09-6.71,3.64-9.29,6.51-1.85,2.07-4,3.21-6.62,2.05-2.37-1.06-2.16-3.51-2.15-5.68.08-14.59,8.3-25.49,16.22-36.69,9.73-13.78,16.84-28.25,10.19-45.94a35.37,35.37,0,0,0-12.51-16.34c-4.82-3.59-4.62-3,.69-6.28C69.45,128.34,82.41,125.48,91.78,126.93Z"/><path class="cls-1" d="M84.71,495c-19.61,1.69-34.83-8.1-49.46-19.12-15.87-11.94-22.82-29.35-28.47-47.52C3.31,417.21.56,405.84.06,394.26c-.56-13.07,2.75-25.58,8.28-37.58,2.64-5.72,7.07-9.05,11.88-12.32a4.64,4.64,0,0,1,6,.14c2.16,1.87.45,3.78-.48,5.35-2.27,3.86-5.24,7.35-6.75,11.62-4.52,12.81-3.7,25.12,3.69,36.77,4.25,6.69,10.85,7.67,17.92,7.31,6.85-.36,12.22,3.81,14.43,10.39,2.57,7.61,1.2,15.52,2.62,23.22,2.1,11.34,5.75,22.15,13.59,30.53,6.17,6.6,13.57,12.19,21.2,17.28,2.37,1.58,6.32,3.13,5.35,6.34s-5,1.33-7.61,1.65A47.85,47.85,0,0,1,84.71,495Z"/><path class="cls-1" d="M156,120.11c4.49.65,9.83-.31,15.17-1.84,6.84-2,13.9-1.31,20.84-.82,5.31.38,8.08,3.54,8.43,8.82.38,5.63.79,11.3-2.54,16.45-2.92,4.52-6,8-12.26,7.7s-8.75,2.76-9.08,8.76c-.27,5,2.91,7.13,7.37,4.83,2.37-1.22,4.57-2.76,7-3.82,4.8-2.1,8.94,0,10.49,5.05,4.46,14.47-5.57,24.07-17.54,26.61-7.85,1.67-12-.8-15.92-8.18-1.62-3.06-2.72-6.85-7.59-5-4.64,1.77-4.69,5.31-3.92,9.41.85,4.49,3,8.77,1.32,13.66-1.28,3.66-3.25,5.87-7.17,5.48-7.56-.74-14.75-.24-21.7,3.45-3.15,1.67-5.64-.7-5.33-4.75.37-4.68,2.08-9.06,4.1-13.27,6-12.44,12.8-24.55,17.69-37.39,3.8-10,6-20.86-1.8-30.74-1.91-2.43-.31-4.15,2.4-4.36C149,119.94,152,120.11,156,120.11Zm20.11,9c-3.08,1.31-7,.32-10.21,2.4-3.44,2.19-1.9,4.87-.64,7.35,1.39,2.74,3.71,2.76,5.73.89,2.64-2.44,5.83-3.66,9-5,1.31-.55,3.13-1,2.89-2.9s-2.17-1.77-3.52-2.21A23.29,23.29,0,0,0,176.14,129.16Z"/><path class="cls-1" d="M301.72,201.45a108.22,108.22,0,0,0,2,26.76c.7,3.7,3.23,5.63,6.56,6.77a4.55,4.55,0,0,0,1,.11c10.62,1.23,13-1.24,13.58-12,.37-6.77-2-12.35-5.23-17.83a29.53,29.53,0,0,1-4-16.72c.13-3.53,1.55-5.41,5.11-5.15,5.28.38,10.52,1.11,15.83,0a3.79,3.79,0,0,1,4.72,2.77c4.55,19.09,9.4,38.13,3.48,57.91-3.13,10.45-15,20.4-25.83,20.92-3.61.17-7.14.7-10.88.2-17.41-2.33-26.76-14.9-23.67-32.24,1.17-6.53,2.39-13.07,3-19.67.79-8-1.69-11.49-9.28-14.38a14,14,0,0,0-1.9-.6c-3.8-.85-8.3-1.56-7.32-6.81.83-4.47,4.8-6.29,9.1-6.19,6.44.16,12.08-3.57,18.59-3.21,3.64.2,5.21,1.25,5.12,4.91C301.63,191.81,301.72,196.63,301.72,201.45Z"/><path class="cls-1" d="M200.67,239.47c-1.11-26.61,18-41.49,36.61-44.36,8.88-1.38,14.93,4.56,21.17,9.35s7.92,12.13,9.52,19.28c2.68,12,2.37,23.37-5.12,34.26-8.8,12.8-29,18.17-41.27,15.36C211,271,206.22,262.29,202.92,252.93,201.34,248.44,200,243.72,200.67,239.47Zm47.92-8.29c-1.17-3.93-.41-8.89-2.31-13.43-2.54-6.08-9.39-7.84-13.6-2.91-6.16,7.22-10.18,15.59-8.92,25.5.93,7.26,9.37,11.41,15.56,7.51A18.75,18.75,0,0,0,248.59,231.18Z"/><path class="cls-1" d="M272.51,307.42c.63-6.35-.93-13.53-3.3-20.74-1.92-5.85-.28-11,7.46-12,6.28-.82,12.22.16,18.31.4,3.53.14,4.81,2.64,4.76,5.84-.12,8.31.63,16.6.86,24.88.38,13.49,2.71,26.69,4.37,40,1.26,10.1.63,20.23.34,30.35-.13,4.34-2.62,6.28-6.85,6.94-8.61,1.33-17.26.88-25.89,1-3.49.07-4.8-2.07-4.9-5.51-.24-8,1.08-15.89,2.22-23.74a159.13,159.13,0,0,0,1.41-17.32C271.65,327.9,272.72,318.3,272.51,307.42Z"/><path class="cls-1" d="M230.19,182c-5.09.08-10.1-.49-14.78,3-3.59,2.63-6.53.11-5.59-5,1.36-7.46.49-14.92.88-22.37.5-9.82-1-19.57-1-29.37,0-6.53,1-8,7.29-7.93a209.08,209.08,0,0,0,32.68-2.65c.63-.09,1.6-.26,1.89.06,2.89,3.24,2.69,7,1.28,10.71-1.11,2.93-2.88,5.88-6.61,4-4.83-2.5-10-1.93-15.08-2.81a3.66,3.66,0,0,0-4.16,2,3.39,3.39,0,0,0,0,3.8c1.27,1.56,3,1.09,4.53.22a6.78,6.78,0,0,1,5.25-1c2.47.64,4.91,1.54,5.34,4.51s-1.29,4.59-3.84,5.68c-1.82.77-3.67,1.5-5,3.13-2.22,2.65-2.53,5.92-.61,8.25,2.24,2.72,5,.45,6.84-1.35,2.35-2.26,4.79-4,8.08-4.53,7.15-1.1,11,2.32,9.89,9.53-2.2,13.77-7.56,23.58-24.82,22.19C231.86,181.91,231,182,230.19,182Z"/><path class="cls-1" d="M307.37,164.33c.14,9.4-1.5,12.4-7.67,12.24-4.41-.11-8.83-1.37-13.16-2.45-6.4-1.61-12.52-.81-18.56,1.43-3.84,1.43-5.53,0-5.94-3.92-.58-5.52,1-10.57,3.29-15.39a21.17,21.17,0,0,0,1.09-15.94c-2-6.5-1-13.19.63-19.69a5,5,0,0,1,6.15-3.83c9.53,1.84,19.11,1.59,28.72,1.5,4,0,6.18,1.75,5.66,6.18-.43,3.6.41,7.28-.9,10.87-.83,2.29-2.06,3.74-4.59,3.83-2.8.11-3.57-1.83-4.26-4-1.9-6.08-6.35-9-11.9-8-2.09.37-3.34,1.33-3.46,3.52s.74,3.51,3,3.84a27.16,27.16,0,0,0,4.91.75c4-.16,5.47,1.82,5.11,5.5-.4,4.12-3.12,3.53-5.88,2.73-2.19-.64-4.55-1-5.61,1.55-1.26,3,.41,5.44,2.29,7.69,1.67,2,3.53,1.38,5.4.45a9.71,9.71,0,0,0,1.6-1.18c7.28-5.83,12.41-3.93,14,5.37C307.71,159.62,307.37,162,307.37,164.33Z"/><path class="cls-1" d="M371.71,48.55a24.35,24.35,0,0,1,24.4-24.37,25.1,25.1,0,0,1,25.5,25.64A24.61,24.61,0,0,1,396.92,74,25.63,25.63,0,0,1,371.71,48.55Z"/><path class="cls-1" d="M22.74,373.9c0-12.55,11.08-23.78,23.44-23.7S69.73,361.48,69.76,374c0,13.08-10.79,24.05-23.69,24C33,398,22.77,387.44,22.74,373.9Z"/></g></g></svg>