<svg xmlns="http://www.w3.org/2000/svg" viewBox="0 0 366.4 320.79"><defs><style>.cls-1{fill:#463f3a;}</style></defs><g id="Capa_2" data-name="Capa 2"><g id="Capa_1-2" data-name="Capa 1"><path class="cls-1" d="M358.7,121.57l-.82,1.61c-2,2.92-3.94,5.92-6.11,8.72-8.08,10.46-18.3,18.11-31.08,21.65-20,5.54-38.75,2.76-55.9-9.27l-.27-.22c-3.22-2.93-6.58-5.72-9.64-8.82C246.77,127,240.1,117.48,238,106.15c-5.07-27,1.11-50.65,23.53-68.47a27.65,27.65,0,0,0,2.21-2.25l.19-.15c6.12-4.36,12.29-8.55,19.44-11.21,16.69-6.19,32.83-6.45,48.51,3.19,2.87,1.77,5.56,3.83,8.56,5.39l0,0c4.46,4,9,8,12.86,12.66l0,0a6.1,6.1,0,0,0,.51,1.06c11.08,15,14.72,31.7,11.58,50.08A127.64,127.64,0,0,1,358.7,121.57ZM248.55,62.33a14.27,14.27,0,0,0-2.16,5c-6.06,15.38-6.78,30.69.62,45.89,4.14,8.31,9.08,16,16.94,21.34,6.76,7.41,15.23,11.52,25,13.66,17.65,3.88,33.71.78,47.9-10.45,11.7-9.25,17.86-21.46,20.85-36.24,2.88-14.29,2.68-27.81-2.86-41.16-2.74-6.59-6.58-12.56-12.49-16.89-1.51-3.1-4.52-4.55-7.1-6.48-14-12.23-34.87-15-51.24-6.57-7.62,3.91-15.14,8.05-21.61,13.81a1.83,1.83,0,0,0-1.83,1.43c-3.34,2.81-6.7,5.62-8.49,9.78C250.28,57.43,249.49,59.92,248.55,62.33Z"/><path class="cls-1" d="M149.54,70.68a.35.35,0,0,0-.18.43A6.69,6.69,0,0,0,147,73.82l-.76.78-4.39,3.85a.3.3,0,0,0-.39.24,21.07,21.07,0,0,0-2.81,1.41c-4.47,3.12-8.78,2.47-13.39.08-5.46-2.82-8.24-7.63-10.63-12.86h0c-.41-1.66-.92-3.31-1.23-5-2.65-14-.54-26.85,9.44-37.7,5.76-6.28,12.55-8.95,21-6.19s14.32,7.7,15.6,17c.86,6.27,0,12.37-1.3,18.47a.39.39,0,0,0-.16.49q-2,4.88-4,9.73l0,0a11.76,11.76,0,0,0-3.21,4.79l0,0A2.38,2.38,0,0,0,149.54,70.68Zm-9.47-28.14a10.51,10.51,0,0,0-.26-1.93c-.43-1.43-1.18-3-2.68-3.15s-2.07,1.48-2.56,2.71A17.87,17.87,0,0,0,133,49.08c.15,1.14.35,2.56,1.63,3s2.08-.87,2.81-1.74A12.24,12.24,0,0,0,140.07,42.54Z"/><path class="cls-1" d="M135.21,287.3a3.39,3.39,0,0,0-.77-.15c-1.89-1.25-2.54-2.86-2.55-5.24,0-2.57,1.4-4.82,1.05-7.37-.45-3.26,1.36-4.28,4.21-4.05,4.84.39,9.58,1.59,14.46,1.8,2,.09,3.55,1.43,3.52,4-.16,10.34-.21,20.68-5.67,30h0q-1.8,2-3.59,4.06a.31.31,0,0,0-.33.27l-2.51,2,0,0a24.36,24.36,0,0,1-17.59,2.29c-5.85-1.37-10.31-5.1-14.82-8.74l0,0a27.61,27.61,0,0,1-7.32-18.73c-.14-13.37,5.7-23.88,15.29-32.66l-.19,0,.18.07c10.69-7.26,21.71-7.69,33.05-1.62l.11-.19-.13.17a22.89,22.89,0,0,1-1.11,10.94c-.61,1.87-1.44,2.69-3.44,1.86-1.09-.46-2.29-.65-3.42-1-9.28-3-17.39.49-21.68,9.37-.22.55-.44,1.11-.65,1.66a21.09,21.09,0,0,0,.81,13.82h-.11c.19.53.38,1.07.58,1.61a.25.25,0,0,0,.08.41c1,3.25,3,5.05,6.55,5.08s7-.53,9.19-4A5.44,5.44,0,0,0,139,288C138.43,286.31,136.55,287.39,135.21,287.3Z"/><path class="cls-1" d="M75,81.21l0-.21c.1-7.83,1.2-15.57,1.74-23.36.7-10,1.47-20-4.07-29.22-2.51-4.18-4.27-8.81-6.34-13.25-2-4.29-1.48-6.11,2.39-8.68,2-1.31,4.09-2.47,5.94-4,4.64-3.75,5.29-3.54,7.69,2,2.86,6.64,6,13.18,8.2,18.11C96.57,17.33,102.84,12,108.9,6.46c7.66-7,7.62-7,14.42,1.08,1.9,2.26,1.65,3.91,0,5.89s-3.38,4.05-5.07,6.08l.08.23-.07-.23-1.79,2-.14.2L98.17,42.28l-.16.17a3.48,3.48,0,0,0-1.94,3.16c-.2,11.31-3.54,22.16-5,33.29-.17,1.31-.56,3.11-2,3C84.35,81.71,79.57,82.92,75,81.21Z"/><path class="cls-1" d="M167,316.05c-1.36-.46-3-.26-3.91-1.76a44.47,44.47,0,0,1-.48-7.83c1-15.17,2.5-30.32,1.92-45.55-.07-1.86.62-3,2.51-3.43,3.88-.8,7.69-1.79,11.67-2.22,6.8-.74,13.06.94,19.23,3.4l3,3.18c4.3,6.27,3.89,12.56.09,18.87l0,0-.85.89.05-.06c-2.54,1.61-4.79,3.76-8,4.15-2.24.28-1.77,1.35-.77,2.62,2,2.57,3.9,5.3,6.51,7.36a.32.32,0,0,0,.32.34c.86,1.14,1.68,2.31,2.57,3.42,1.29,1.6,2.2,3.31,1.65,5.42-.94,3.67-1.94,7.33-2.91,11-1.22,2.08-2.65,2-4.59.78-4.07-2.58-6.81-6.33-9.63-10.07-1.49-2-3.09-3.84-4.7-5.82-1.83,1.92-1,3.86-.79,5.77.36,3.44,1.73,7-1.12,10.11l-3.95-.39-3.17,0Zm14.86-49.52c-3-.42-4.76.85-3.66,4.42.4,1.33-1,3.86,1.4,3.84,3.25,0,6.63-.34,9.62-2a3,3,0,0,0,1.66-2.93c-.12-1.45-1.28-2-2.43-2.28A19.42,19.42,0,0,0,181.88,266.53Z"/><path class="cls-1" d="M330.21,318.12l-.35-.19-.39.06c-2.88-1-5.87-.35-8.8-.54l-.29-.14-.32,0c-1.74-2.27-1.58-5-1.59-7.6-.07-12.73-.1-25.45.11-38.17.05-2.88-.72-3.81-3.5-3.49a49.16,49.16,0,0,1-5.95.16c-3,0-4.7-1.24-4.36-4.63a43,43,0,0,0,.08-7.94c-.33-3.77,1.46-5.32,4.94-5.7,6.71-.74,13.4-1.83,20.13-2.28a116.38,116.38,0,0,1,22.24.12c2.67.33,4.51,1.39,4.34,4.53-.25,4.89-.4,9.79-.54,14.69-.08,2.93-1.44,4.4-4.43,4.35-4-.06-8,.05-11.93-.11-2.16-.09-3,.42-3,2.82A366.64,366.64,0,0,1,334,316.49h0A5.85,5.85,0,0,1,330.21,318.12Z"/><path class="cls-1" d="M269.38,185.19c-.25.55-.49,1.11-.74,1.66l-6.3,9.4h0c-3.24.56-5.64-.91-7.6-3.28a16,16,0,0,0-9.4-5.51c-4.77-1-10.48,1.65-12.15,5.51-3.8,8.8.14,17,9.39,19.48,4.32,1.18,5.34.57,6.73-4.14-.68,0-1.33,0-2,0-5.06.31-6.28-1.26-4.56-6,.62-1.73,1.55-3.36,2.27-5.07a2.83,2.83,0,0,1,3.76-1.89c4.75,1.23,9.48,2.47,13.65,5.21l.34.75c0,10.82-3.23,20.23-11.8,27.33l-.09,0c-2.42.32-4.64,1.72-7.29,1-7.19-1.88-14.17-4.1-19.45-9.75l-.25-.21-3.38-3.55h0a29.22,29.22,0,0,1-2.33-18.52c1.18-6.32,4.25-11.87,7.27-17.44l.08-.13c6-7.26,13.57-10.55,23-9.76,6.76.57,12.62,3.31,18.33,6.8C270.37,179.24,271.44,181.61,269.38,185.19Z"/><path class="cls-1" d="M206.73,312.67c.09-.5.18-1,.26-1.51a40.23,40.23,0,0,0,2.33-10.39l0,.07c.26-.28.71-.54.74-.85,1.15-9.94,3.85-19.59,5.6-29.42.73-4.05,2.89-5.83,6.7-6.22,9.1-.93,18.24-.76,27.37-.89a6.17,6.17,0,0,1,4,1.45c.2.54.41,1.08.62,1.62-.25,1.69-.57,3.38-.73,5.09-.44,4.67-5,9.08-10.05,8.47-4.72-.56-9.53.14-14.29-.47-1-.12-2.89-1.57-2.84,1.07,0,1.71.14,3.42,2.75,3.37a82.45,82.45,0,0,1,10.31.42c2.22.23,5.07-.08,5.55,3.28s-1.56,7.93-4.08,9.15c-4.1,2-8.32.81-12.51.6-1-.05-2.71-1-2.55,1.13.1,1.38-1.22,3.48,1.81,3.9,5.83.8,11.69,1.14,17.56,1.36,4.92.18,5.85,1.31,4.57,6.12-.58,2.17-1.85,4.21-2.1,6.38-.41,3.64-2.21,4.72-5.59,4.31-11.46-1.36-23,.24-34.46-.76l-.94-.95Q206.74,315.83,206.73,312.67Z"/><path class="cls-1" d="M86.3,134.23c-.27.54-.53,1.08-.79,1.63q-2.78,5.43-5.53,10.86c-.68,1.33-1.67,3.08-3.18,2-3.35-2.32-7.27-2.11-10.88-3.18s-4.13-2.1-2.3-5.47c.69-1.26,1.17-2.63,1.75-3.95h0a126.09,126.09,0,0,0,7.86-14.51l.84-1.54c4.15-6.39,9.14-12.42,11.8-19.55,2.28-6.1,6.27-7.44,11.82-7,1.57.11,3.12.4,4.68.6l-.1,0c5.59,18.47,13.82,36.14,17,55.37l-.33,2.32c-2.78,2.62-6.24,1.64-9.45,1.68-5.42.08-7-1.23-8.1-6.58-1-5-1.86-10.11-2.86-15.15-.21-1.06,0-2.4-1.66-2.77A9,9,0,0,0,86.3,134.23Zm7.93-26.36c-1.72,3.42-3.59,6.19-4.24,9.61,6.43,0,6.45,0,5.29-5.77C95.06,110.58,94.68,109.49,94.23,107.87Z"/><path class="cls-1" d="M309.2,312.5a.59.59,0,0,0-.57.28c-4.35-.17-8.69-.77-13.05.29-2.84.69-4.21-.79-4.22-3.66,0-4.71-1.51-9.11-2.72-13.58-.63-2.32-2-2.67-4.16-2.46-2.36.22-1.75,1.89-1.83,3.22a70.41,70.41,0,0,1-2.71,16.81c-.52,1.65-1.26,3.34-3.22,2.55-3.79-1.53-7.59-.54-11.39-.6-4.2-.06-5.43-1.49-4.2-5.4,5-16,9.36-32.32,16.88-47.46.81-1.64,1.17-3.78,3.44-4,3.91-.3,7.78-1.59,11.73-.82,1.09.21,1.36,1.53,1.69,2.54q7.63,23.4,15.29,46.78C310.85,309.11,310.84,310.91,309.2,312.5ZM286.83,273c-1.44,1-1.51,2.29-1.88,3.36-1.56,4.5-1.56,4.33,3.12,3.73,3.13-.39,2.14-1.63,1.11-3.2C288.41,275.73,287.71,274.49,286.83,273Z"/><path class="cls-1" d="M110.15,167c10.43-.75,17.08,6.95,17.84,15.85,1.19,14-4.87,25.26-15.37,34.06-5.56,4.66-17.26,1.88-21-4.39C82.93,198,88.9,176.4,103.8,168.2A10.31,10.31,0,0,1,110.15,167Zm3.06,22.91c.06-3.87-1.26-7.41-4.12-7.89s-3.81,3.32-4.88,5.82a2.48,2.48,0,0,0-.1.39c-.8,3.36-.53,6.57,1.69,9.35.87,1.09,2.13.91,3.24.23C112.19,195.89,113,192.76,113.21,189.93Z"/><path class="cls-1" d="M3.23,252.27,4,250.66c5.32-9.3,14.1-14.26,23.38-18.61a19,19,0,0,1,12.26-1.48c7.2,1.48,13.73,4.65,20.34,7.65h.11l4.87,3,0,0,6.07,5,.11.1c4.46,5.3,8.35,10.86,9.2,18,1.53,13-1.22,24.88-8.88,35.56h0l-8.79,8.73h0l-1.85,1.2.11.24-.15-.21-1.46.94.25.08-.24-.1c-1.84.74-3.67,1.51-5.51,2.22-22.06,8.52-40.51-1.21-49.16-20.8C-1.12,279.13-1.43,265.75,3.23,252.27Zm11.38-9.52a.28.28,0,0,0-.39.21,10.88,10.88,0,0,0-4.13,4.35l-1.65,2.07c-3,3.52-4.34,7.85-5.07,12.26C.77,277.2,3.25,291.44,15,303l2,1c3.37,6.21,9.68,7.95,15.63,8.28C61.24,314,76.79,292.6,76.48,269.68c-.12-9.11-4.06-16.25-10.85-22-7.27-6.19-15.92-9.73-24.83-12.54-4.36-1.37-9.12-2.39-13.37.87l.1-.06c-4.77.6-8.56,3.16-12.1,6.18l-.17.13Z"/><path class="cls-1" d="M170,50.93a153.54,153.54,0,0,1,3.08-27.28c.51-2.44,1.61-3.53,4-3.2q5.89.81,11.76,1.76c2.74.45,3.61,1.86,3,4.78-1.9,9.61-2.48,19.44-4.77,29a15.47,15.47,0,0,0,.05,5.91c.57,3.6,2.67,4.32,5.56,2,2.17-1.72,3.14-4.19,3.89-6.77,2.87-9.86,2.52-20.19,4.55-30.19,1.18-5.84,1-6,7.05-5,.66.11,1.32.16,2,.21,6.86.55,7.26.92,6.71,7.77-1.26,15.55-4.41,30.61-11.38,44.76-3,6-7.87,9.08-13.82,11-4,1.31-7.57.2-10.7-2.5a25.77,25.77,0,0,1-8.59-14C170.91,62.7,169.66,56.09,170,50.93Z"/><path class="cls-1" d="M168.82,239.26c-3.56-16.19-4.91-32.69-6.69-49.13-.43-3.94.1-6.76,4.52-8.79,7.21-3.31,6.85-3.7,10.63,3.56s8.56,14,11.89,21.54c.52,1.18,1.05,2.36,1.86,4.18.85-2.4.37-4.18.23-6-.64-8.26-2.76-16.35-2.94-24.66,0-2.47,0-4.22,3.43-4.41a20.6,20.6,0,0,0,8-2.61c2.37-1.23,4.22-.45,4.67,2.63,2.21,15.15,3.62,30.39,5,45.62.38,4.09.73,8.18,1,12.27a4.24,4.24,0,0,1-3.12,4.45,39.13,39.13,0,0,1-13.65,1.58c-2-.1-3.44-1.6-4.34-3.53a84.24,84.24,0,0,0-6.85-12.41c-.3-.44-.1-1.56-1-1.25a1.36,1.36,0,0,0-.75,1.95c1.36,3.36,1.51,7,2.1,10.48.46,2.71-.65,4.57-3.5,4.57-3.5,0-7,2-10.5,0Z"/><path class="cls-1" d="M181.53,159.59c-1.19-1.81-.95-3.78-.64-5.76,1.5-9.42,2.65-18.91,4.65-28.22.9-4.23,1.11-8.53,2.09-12.73.75-3.19,2.46-4.7,5.61-5.17a199.73,199.73,0,0,1,31.29-2c2.37,0,3.81.94,3.72,3.53-.13,3.83.15,7.67-.43,11.5-.45,2.94-1.57,4-4.78,3.46-7.14-1.27-14.37-1.1-21.57-.92l-.1,1c3.76.43,7.51.89,11.27,1.29,1.32.13,2.66.06,4,.2,2.67.29,3.86,1.4,3.33,4.46-1.66,9.53-1.62,9.61-11,8.33-2.23-.3-4.47-.57-6.68-1-2-.39-3.18-.4-3.45,2.19s.89,3,2.87,3c6.23.09,12.45.2,18.68.28,4.79.06,5.71,1,4.6,5.72-.79,3.33-1.53,6.85-3.2,9.76-2,3.46-6.09,2.56-9.29,2.48C202.16,160.81,191.85,160.12,181.53,159.59Z"/><path class="cls-1" d="M140.47,154c-4.31.83-8.32-1-12.48-1.47-2-.25-1.53-2.21-1.57-3.58-.32-9.32,1.74-18.43,2.7-27.64.56-5.39,1.7-10.72,2.31-16.11a7,7,0,0,1,5.87-6.58c9.4-2.24,18.86-2.93,28.23,0,7,2.2,11,6.72,11.06,12S171.76,122.6,166,124.84c-2.3.89-6.09.8-6.51,2.88s3.27,3.13,5,4.79a35.72,35.72,0,0,0,3.34,2.81c2.13,1.58,2.66,3.44,1.45,5.87a37.63,37.63,0,0,0-3.05,10.25c-.75,4.15-2.16,4.78-5.47,2.26-6.75-5.12-12.71-11.1-19-17.53-.56,6.17.41,12.12-1.26,17.83l.16.21Zm17.11-45.48h0c-3-1.68-6.15-.91-9.27-.92-1.24,0-1.95.53-2,1.88,0,1.58-.11,3.17-.28,4.74s.45,2,1.81,1.66c3.35-.72,6.71-1.37,10-2.22,1.35-.35,3.16-.9,3.11-2.58S159.27,108.69,157.58,108.55Z"/><path class="cls-1" d="M76.45,198.26a30.19,30.19,0,0,1-6.63,7.66,107.51,107.51,0,0,1-12.07,4.93c-7.32,2.51-14.11.81-20.91-1.71a5.26,5.26,0,0,1-3.79-5.41c0-7.17,1-14.25,1.42-21.38.28-4.36.44-8.74.34-13.11-.09-3.68,1.47-5.93,5-6.49,7.49-1.2,15.06-1.94,22.54-.34,11.7,2.5,18.6,13.74,16.8,26.73A35.57,35.57,0,0,1,76.45,198.26ZM49.29,196.5c3.34-1.59,6.25-2.8,9-4.31,2.27-1.25,3.41-3.23,2.65-6a10.5,10.5,0,0,0-8.68-7.62c-2.23-.36-3.11.09-3,2.55C49.41,186,49.29,190.88,49.29,196.5Z"/><path class="cls-1" d="M144.46,171.9c6.25-.05,7.48,1.62,7.13,7.43-.92,15.55-5,30.59-7.13,45.94-.38,2.77-1.68,4-4.65,3-2.62-.93-5.29-1.7-8-2.38s-3.55-2.5-3-5.08c3.48-15.23,7-30.45,10.44-45.71C140.06,171.68,142.68,172.36,144.46,171.9Z"/><path class="cls-1" d="M30.11,299.72l-.26,0-7-4.29-.28-.2c-1.11-1.59-2.91-2.71-3.29-4.8l.63-.66,2.2,1.11a.42.42,0,0,0,.42.32c9.33,8,18.88,7.79,27.07-.58a20.27,20.27,0,0,0,5.08-8.84c.45-1.59,1.08-3.3,3.18-2.59,1.91.66,1.78,2.46,1.36,4.05s-1,3-1.53,4.49l0,0-1,1.46h0L55.43,291l0,0-8.67,7.05-2.34,1A29.63,29.63,0,0,1,30.11,299.72Z"/><path class="cls-1" d="M17.27,266.84c0-2.36.74-4.77,3.15-4.6,2.84.2,3.13,3,3.28,5.49s-.89,5-2.89,4.84C18.17,272.35,17.58,269.32,17.27,266.84Z"/><path class="cls-1" d="M47.43,266.48c-1.41,1.16-3,2-4.33.18a5.4,5.4,0,0,1,.11-6.89c1.39-1.78,2.95-1,4.27.39.15.54.29,1.07.44,1.6l.21,1.52Z"/><path class="cls-1" d="M269.92,121.41l-.73-.84c-1.59-2.39-3.18-4.77-4.76-7.16-2.6-6.92-6.7-13.32-7.19-21,1.91-.62,2.89.31,3.64,2,.9,2,2,4,3,5.92,2.52,6.32,5.07,12.59,9.47,17.94,6.5,7.91,15.2,9.58,24.64,8.53,5.08-.56,10.06-2.12,15.09-3.2,2.06-.44,4.1-1.09,6.25-.61,2.28,2.61.82,4.32-1.65,5-12.79,3.78-25.63,7.25-38.68.94l-2-1.17Z"/><path class="cls-1" d="M327.64,92.85c-1.8,1.35-3.8,3.1-6,1.4s-1.29-4.33-.49-6.57a12,12,0,0,1,4-5.74c1.06-.79,2.16-1.61,3.6-.93,1.61.76,1.64,2.24,1.66,3.71,0,3-1.63,5.49-2.81,8.11Z"/><path class="cls-1" d="M284.54,72.83l-1.46,1.67c-4.13,1.33-5.69.24-5.61-4a12.34,12.34,0,0,1,3.87-8.84c1.18-1.15,2.68-1.87,4.33-1.13s1.58,2.28,1.65,3.76C287.47,67.49,285.72,70.06,284.54,72.83Z"/></g></g></svg>