<svg xmlns="http://www.w3.org/2000/svg" viewBox="0 0 439.16 286.72"><defs><style>.cls-1{fill:#463f3a;}</style></defs><g id="Capa_2" data-name="Capa 2"><g id="Capa_1-2" data-name="Capa 1"><path class="cls-1" d="M76.36,36c-1.19-6.57-.19-13.35-2.2-19.86C71.65,8,63.46,4,55.12,7A13.64,13.64,0,0,0,47.5,26.09c2.22,4.63,5.58,6.66,10.68,4.3a25.78,25.78,0,0,1,4-1.67c5.63-1.5,10,.89,12.51,6.53,2.35,5.34-.49,8.83-4.41,11.57-8.46,5.9-20,5.77-27.67,0C34.53,40.63,31.34,28.86,35,18.4,38.78,7.37,48.73.19,61.51,0c12.33-.15,24.67.29,37,.53,1.57,0,3.58-.57,4.37,1.5s-1.28,2.67-2.38,3.81c-3.13,3.27-3.35,7.49-3.5,11.69-.63,17.61-.63,17.61,16.56,17.58,8.46,0,8.47,0,8.38-8.72,0-4-.09-8-.29-11.91a13.84,13.84,0,0,0-2.75-8.19c-1.08-1.36-3.89-1.72-3-4.15.91-2.61,3.52-1.74,5.47-1.77,7.94-.09,15.89-.06,23.84,0,1.58,0,3.54-.45,4.13,1.8.46,1.79-1,2.42-2.14,3.36-3.46,2.8-3.71,7-3.75,10.89-.17,16.31-.18,32.62.08,48.92.06,4.27.56,8.64,4.64,11.76,2.63,2,1.81,4.31-1.59,4.38-9.41.18-18.82.13-28.23,0-2.75,0-4.39-2.12-2-4,5.81-4.43,5.09-10.67,5.37-16.55.9-18.64.78-18.38-17.55-18.6-6.07-.08-8.2,1.58-7.47,7.67.6,5,.06,10,.5,15,.38,4.28.36,8.94,4.61,11.77,1.18.78,1.8,1.74,1.28,3.13s-1.81,1.59-3.09,1.59q-13.8,0-27.6,0c-1.28,0-2.57-.25-2.9-1.79a2.33,2.33,0,0,1,1.11-2.68c4.71-2.81,4.51-7.64,4.84-12.16.62-8.31-.44-16.7.94-25,5,11.19,2,22.55.08,33.69-.74,4.22-.31,5.28,3.7,5.16,4.16-.12,8.34-.05,12.51,0,3.86,0,4.43-1.55,3.32-5.15C93,64,93.31,54,93.45,44.15c0-3.17,1.46-6.27,1.25-10-.53-9-1.88-18.3,1-27.26.62-2,.77-3.41-1.71-3.43-8.75-.08-17.51,0-26.26,0C78.18,10.53,82.17,25.08,76.36,36ZM131.3,78.77c1,0,2.08,0,3.12,0,5,.2,6.8-1,6.6-7.09-.61-19.28-2.69-38.58-.29-57.89,1.18-9.5.38-10.24-9.31-10.39-2.09,0-4.17,0-6.26,0-1.86,0-2.25.39-1.78,2.58a61.69,61.69,0,0,1,1.41,17.7c-.39,5.37-1.72,11.34-.6,16.2,2.42,10.54-.37,20.67-.3,30.95C123.94,78.75,122.86,78.76,131.3,78.77ZM36.52,28.57c.08,12.31,12.81,22.22,25.11,19,5.41-1.4,11-7.7,9.82-11.15s-8.33-5-13.94-2.75c-2.43.95-4.23,1.69-7.24-.23-4.6-2.92-5.28-7.8-8-11.58-2.06-2.86,2.22-4,2.58-6.34.22-1.41,1.07-3.05-.65-3.84-1.45-.67-2.12.85-2.75,1.89C38.74,18,36.23,22.57,36.52,28.57Z"/><path class="cls-1" d="M13.89,118.31c0,13.57-.13,27.15.08,40.72.06,3.9.51,8,4.5,10.45a2.52,2.52,0,0,1,1.3,3.18c-.53,1.4-1.87,1.49-3.15,1.5-4.39,0-8.78,0-13.16,0-1.27,0-2.63-.14-3.11-1.57a2.59,2.59,0,0,1,1.36-3.16c4.3-2.8,4.56-7.33,4.59-11.68q.21-24.15,0-48.3c0-4.56-.55-9-4.87-12.24-2.53-1.91-1.59-4.28,1.8-4.36q10-.24,20.06,0c3.35.09,4.09,3.34,5.39,5.56C39,116,49.23,133.71,59.49,151.35a14.41,14.41,0,0,0,4.86,5.36v-19q0-13.8,0-27.59c0-4-.48-8-3-11.28-1.07-1.38-3.74-1.84-2.88-4.25,1-2.66,3.54-1.64,5.47-1.71A81.63,81.63,0,0,1,75.15,93c3.09.32,4.21,2.47,1.47,4.52C71.86,101,71.87,106,71.85,111c-.11,18.61-.26,37.22,0,55.82.09,5.64-1.39,7.65-7.35,7.58-12.54-.14-20.71-6.29-26.61-16.74-7.49-13.25-15.21-26.37-22.83-39.55Zm-.71-22c-2.94-.3-6.5.55-5.3,5.24,1,3.79,2.55,7.34,2.44,11.41-.05,1.87,1.78,2.79,3,1.39,5.25-6,4.94.23,6.49,2.72,4.47,7.21,3.67,18,14.15,21.15.35.11.85.6.82.87-.68,7.42,5.76,11.79,7.67,18,2.74,8.9,13.68,13.45,20.16,13.33,2,0,5.08.1,4.62-2.68-.41-2.45,1-6.43-3.09-7.29-4.94-1-7.38-4.82-9.1-8.72a105.85,105.85,0,0,0-7.16-13.06,371.23,371.23,0,0,1-19.17-34.26C25.56,97.9,20.41,96.32,13.18,96.29Z"/><path class="cls-1" d="M265.28,174.27c-5.85,0-11.7,0-17.55,0-1.63,0-3.57.32-4.23-1.73-.52-1.62.5-2.67,1.9-3.51,2.66-1.6,3-4.31,3.1-7.09.69-18.8.81-37.59.12-56.39-.12-3.27-.67-6.24-3.82-8a2.61,2.61,0,0,1-1.31-3.2c.45-1.46,1.84-1.56,3.1-1.55,13.15.16,26.38-1.17,39.42.71,21.5,3.1,35.25,20.9,34.12,43.18-1,20.18-17.66,36.36-38.56,37.34-5.42.26-10.86,0-16.29,0Zm4.77-40.72h.06c0,7.3,0,14.61,0,21.91,0,4.69,1.41,9,6.17,10.59,5,1.71,9.5,0,13-3.9a21.88,21.88,0,0,0,4.75-8.71c3.25-11.05,3.21-22.2,1.33-33.44a30.44,30.44,0,0,0-5.87-14.31c-3.21-4-7.35-6.43-12.59-4.89s-6.68,6-6.81,10.85C269.9,118.94,270.05,126.25,270.05,133.55Zm-8.31-37.28h-6.89c-2.16,0-3.08.45-3,3.27.36,18.58,0,37.18.72,55.75.17,4.77-3.69,9.8.38,14.31,4.39,4.86,9.95,0,14.79,1.51a2.17,2.17,0,0,0,1.22.12c2.1-.69,4.19-1.3,2.14-4.26-1.78-2.56-3.36-5.27-3.61-8.54a348.33,348.33,0,0,1-1.15-41.24c.2-4.7.54-9.55,2.77-14,.89-1.76,3.85-2.83,2.63-5.19-1.41-2.75-4.45-1.54-6.84-1.76C263.84,96.19,262.79,96.27,261.74,96.27Zm55.9,37.34c.09-14.39-13.84-32.69-27.24-35.67-.68-.15-1.5.32-2.25.51.26.73.3,1.78.81,2.15a17.28,17.28,0,0,1,6.25,6.73c6.13,12.62,5.47,25.92,4,39.17-.74,6.69-2,13.67-8.18,18.22-1.14.84-3.85,1.15-2.23,3.45,1.06,1.52,3,.9,4.66.47,4.75-1.21,7.5-5.17,10.88-8.1C312.45,153.51,317.57,144.73,317.64,133.61Z"/><path class="cls-1" d="M416.72,155c2.58-8.38,5.2-16.74,7.71-25.14.93-3.11,2.5-6.19-1.15-9-1.87-1.47-1.07-3.76,1.46-4,3.95-.33,7.93-.14,11.9-.11a2.4,2.4,0,0,1,2.38,1.7,2.35,2.35,0,0,1-1.54,3c-4.17,1.89-5,5.94-6.21,9.67q-7.32,22.77-14.49,45.6c-6,19-23.78,31.57-44.38,31-3.83-.1-7.74,1.36-11.59-.88-4.09-2.39-6.71-5.69-5.1-10.11s5.71-5.65,10.35-4.58c7,1.6,13.66,4.56,21.22,2.28,6.43-1.94,12.25-4.73,17.09-9.28,2.93-2.75,3.47-7.17-.17-8.86-11-5.09-10.67-16-13.37-25-2.58-8.58-5.35-17.1-8-25.68a8.92,8.92,0,0,0-1.5-2.71c-1.14-1.54-4.44-1.86-3.31-4.6s4-1.62,6.16-1.65c7.11-.11,14.22,0,21.33,0,1.37,0,3-.46,4,1.14s-.05,2.68-1.23,3.72c-3.42,3-1.84,6.56-.79,9.86,2.53,7.95,5.3,15.83,8,23.74-3.92,1.13-4.07-2.32-4.76-4.36-3.16-9.41-6.11-18.91-8.95-28.42-.84-2.79-2.18-3.77-5-3a12.55,12.55,0,0,1-4.9.63c-6.39-.95-7.82.91-5.24,7.07,6.91,16.56,7.05,36,22,49.26,3.26,2.91,3.69,1.8,5.12-.29,1.16-1.69,2.61-3.67,2.64-5.54C416.4,165.38,422.54,160.29,416.72,155Zm-46,50.62c7-.1,12.48-2.08,17.86-4.07,4-1.48,8.37-2.55,11.7-5.58,1-.88,1.67-2,.82-3.26-.6-.92-1.45-.46-2.18,0-10.55,6-21.44,6.17-32.7,2.18-2.58-.91-4.29.94-5.34,3.18-1.12,2.39,0,3.91,2.09,5.07C365.78,204.62,368.57,206,370.76,205.64Z"/><path class="cls-1" d="M219.36,199.15a43.79,43.79,0,1,1,.27,87.57c-23.73,0-43.66-19.73-43.78-43.4A43.81,43.81,0,0,1,219.36,199.15Zm-38.85,43.48a39.13,39.13,0,1,0,39.24-38.92A39.16,39.16,0,0,0,180.51,242.63Z"/><path class="cls-1" d="M76.36,36c5.81-10.87,1.82-25.42-8.64-32.49,8.75,0,17.51,0,26.26,0,2.48,0,2.33,1.47,1.71,3.43-2.87,9-1.52,18.21-1,27.26.21,3.7-1.21,6.8-1.25,10C93.31,54,93,64,96,73.62c1.11,3.6.54,5.17-3.32,5.15-4.17,0-8.35-.1-12.51,0-4,.12-4.44-.94-3.7-5.16,2-11.14,4.89-22.5-.08-33.69C76.37,38.61,76.37,37.28,76.36,36Z"/><path class="cls-1" d="M327.42,146.3c5.95-7.42,14.27-8.62,23-9,2-.07,5.53,1.68,5.59-1.72.08-4.06-.78-8.46-4.68-11.1-2.84-1.92-5.15-.57-7.17,1.59-1.78,1.91-2.41,4.3-3.05,6.76-1.09,4.29-4.19,6.44-8.43,5.55-4.75-1-6.1-4.74-5.3-9.2,1.15-6.39,5.88-9.59,11.49-11.18a39.77,39.77,0,0,1,24.11.46c9.28,3.22,13.68,10.75,14.58,20.12.66,6.85.42,13.79.48,20.68,0,3.43.1,6.58,3.69,8.63,2.88,1.65,1.43,3.36-.64,4.66-5.53,3.46-16.62,2.69-21.09-2.24-2.47-2.73-3.68-1.94-6-.31-7.27,5.17-15.12,5.83-23.11,1.88-9.89-4.88-11.56-17.8-3.49-25.65-.05,1.44.44,3.24-.23,4.27-3.56,5.4-2.64,10.32,1.35,14.8,4.41,5,10.22,6,16.48,4.81,1.6-.29,3.55-.75,4.17-2.41.77-2.08-1.37-2.68-2.62-3.63-7-5.38-7.36-13.27-.84-19.47a3.55,3.55,0,0,0,1.42-3.27c-.08-.38-1.14-1-1.41-.83-3.63,1.92-8.52-.12-11.53,3.75C332.49,146.53,330,146.8,327.42,146.3Zm26-25.27c9.25,8.61,3.51,19.36,6.1,28.69,1.22,4.41,2.65,10.27-1.13,15-.15.2.39,1.43.72,1.48,4.44.68,7.19,5.09,11.81,5.32,3.65.18,6.28-.31,5.07-5.21a35.37,35.37,0,0,1-.76-12.92,45.69,45.69,0,0,0-2.46-20.32C370.13,125.36,362.68,120.44,353.42,121Zm3.32,32.4c0-1.67-.1-3.35,0-5,.31-4.11-1.8-4.69-5-3.42a18.59,18.59,0,0,0-4.95,2.56c-3.68,2.95-3.8,6.82-1.81,10.71s5.62,5.52,9.46,4.48c4.16-1.12,1.55-5.32,2.28-8.08A5.14,5.14,0,0,0,356.74,153.43Zm-15.35-29.22c0-1.75-.7-2.75-2.62-2.53-2.15.24-8.65,7.38-8.39,9.34s1.61,2.8,3.47,2.87C336,134,341.39,127.07,341.39,124.21Z"/><path class="cls-1" d="M207.37,56.8v11a8.86,8.86,0,0,0,1.46,5.35c4.16,5.82,3.51,7.2-4,8.26-6,.86-11.92.54-16.08-4.53-2.23-2.72-3.38-.88-5,.18-7.32,4.79-15.05,6.25-23.1,2.15-10.07-5.12-12.14-17.67-4.36-25.89,6.32-6.68,14.43-8.68,23.32-8.76,2,0,5.58,1.54,5.8-1.54.3-4.31-.8-9-4.91-11.56-3-1.91-5.78-.15-7.5,2.44a25.65,25.65,0,0,0-2.51,6.34c-1.39,4.32-4.45,6.13-8.67,5.17-4.45-1-5.67-4.51-5.16-8.71a10,10,0,0,1,2.87-6.14c8.74-8.39,19.36-7.63,30-5.75C198.59,26.36,203.39,32.68,206,41,207.76,46.41,207.25,52.11,207.37,56.8Zm-2.72-.89c.83-11.86-2.77-21.69-14.42-27.45-1.8-.89-3.52-1.68-5.28-.9-1.51.68-.56,2.26-.12,3.29,5,11.47,4.7,23.51,3.65,35.56-.51,5.79,7.12,13.41,12.74,12.3,2.13-.41,3-1.47,3.31-3.76C205.3,68.69,204.71,62.46,204.65,55.91Zm-33,22.69c3,.31,4.92-.58,5.89-2.63,1.11-2.32-1-3.25-2.4-4.43A12.9,12.9,0,0,1,172.8,54.3c1.26-1.95,5-3.88,3.27-6-2.2-2.82-4.67,1.06-7.14,1.61a14,14,0,0,0-3.47,1.4c-14.55,7.73-13.18,15.16-3.6,24.25C164.9,78.42,169,77.22,171.7,78.6Zm14.36-17.89h0V54.45c0-1.57-.24-3.09-2.32-2.84-4.58.55-8.72,2.08-10.18,7a8.35,8.35,0,0,0,2.62,9.1c2.34,2.07,5.31,3.25,8.1,2.09,3.58-1.5,1.13-5.17,1.8-7.79A5.22,5.22,0,0,0,186.06,60.71ZM171.49,29.52c.14-2.44-1.94-2.72-2.82-1.87-3,2.92-7.65,4.45-8.54,9.44-.33,1.81-.65,3.17,1.24,4.27s3.07.3,4.45-.89C169.21,37.54,169.53,33.08,171.49,29.52Z"/><path class="cls-1" d="M372.32,23.65c18.48,0,27.73,9.05,28.07,27.59.09,5.22.05,10.45.05,15.67,0,3.21.14,6.17,3.55,8,2.8,1.54,1.7,3.35-.42,4.72-5.4,3.48-16.33,2.69-21.12-2.12-2.32-2.33-3.48-2.23-6-.47-7,4.85-14.55,6.12-22.46,2.19a16.34,16.34,0,0,1-3.72-27.13c6.59-6,14.58-7.68,23.22-7.6,1.75,0,5.06,1.39,5-1.83-.11-4.09-.88-8.45-4.7-11.15a4.51,4.51,0,0,0-6.25.57,15.84,15.84,0,0,0-4.08,7.62c-1.23,4.57-4.21,6.76-8.89,5.48-4.89-1.33-5.61-5.18-4.67-9.48,1-4.67,4.31-7.52,8.42-9.49C362.7,24.15,367.47,23.66,372.32,23.65Zm-5.42,42.2c-4.65-1.06-4.13-4.4-3.13-7.65C364.91,54.51,366.52,51,371,48c-9-2-13.54,3.51-18.9,6.8-4.12,2.53-4.71,6.61-4.23,10.92C349.05,76,360.68,79.26,369,77.15c2.83-.71,3.54-2.91.76-5-2.17-1.61-3.65-3.41-2.85-6.31l1.89,1.6c2.51,2.18,5.57,3.58,8.62,2.31,3.22-1.33,1.38-4.76,1.65-7.25s-.08-5,.05-7.5c.17-3.38-1.53-3.77-4.33-3.22C367.79,53.19,365.2,57.7,366.9,65.85ZM398,62.58c0-2.85-.14-5.15,0-7.43.92-12.13-5.17-20.37-14.67-26.76-1.87-1.26-4.11-1.95-5.74-.35-1.42,1.4.25,3.13,1.18,4.37,1.94,2.61,3.74,5.53,2.67,8.64-1.69,4.89-.53,9.51.57,14.07a33.89,33.89,0,0,1,.47,13.62c-.43,2.68-.3,5,2.19,5.64,4,1.11,6.92,6.19,11.92,3.57,1.5-.78,2.68-2.13,2.06-4.11C397.41,70,398.24,66,398,62.58ZM368.2,28.68c-5.62-1.65-14,2.07-15.14,6.08-.92,3.13-.09,6,3.15,7.15,3,1.05,3.75-1.57,4.43-3.82C361.81,34.23,362.76,30.2,368.2,28.68Z"/><path class="cls-1" d="M121.36,165.68c-8.5-4.13-10.21-12.11-10.27-20.19-.15-19.57,17.55-34.73,40.63-26.7,5.33,1.86,9.16,5.95,9.37,12.19.12,3.77-1.58,6.55-5.45,7.33-4,.8-7.09-.87-8.29-4.83-1.49-4.92-2.66-10.82-9.27-9.5-6.11,1.22-5.89,7.43-6.22,12.35a36.8,36.8,0,0,0,3.95,20.07c4.3,8.14,11.75,9.31,18.46,3,1.57-1.48,3-4.49,5.52-2.53s.69,4.65-.63,6.75c-7.72,12.28-30.21,13.55-37.7,2.17a10.25,10.25,0,0,1,8.28,1.47c4.38,2.92,9.21,2.4,14.07,1.12a3.1,3.1,0,0,0-2.82-2.73c-6.26-1-9-5-10.21-10.84-1.72-8.56-5.46-16.93-1.51-25.87.55-1.23.92-3.57-1.13-4.35-1.49-.56-2.66.73-3.74,1.73-4.19,3.9-7.82,8.89-8.63,14-.83,5.35-3.12,12,3.26,17C120.47,158.4,122.71,162.29,121.36,165.68Z"/><path class="cls-1" d="M171.79,126.16a27,27,0,0,1,30.55-7.67c9.46,3.87,16.17,15.86,15.22,26.61-.29,3.33-2.14,3.55-4.61,3.54-7.31,0-14.62.2-21.91-.1-5.21-.22-5.51,1.94-3.9,6,3.75,9.37,13.62,11.66,21.26,4.89,1.74-1.55,3.33-4.82,6.09-2.39,3,2.68.47,5.34-1.3,7.6-6.52,8.35-17.68,11.13-29.61,7.47-10.56-3.23-18.44-12.57-19.23-23.15-.64-8.55.38-16.68,7.45-22.77a11.71,11.71,0,0,1-1.69,8.3c-4.58,7.74-3.4,19.71,2.45,25.66,2.29,2.33,5.44,3.8,7.92,6,5,4.41,13,5.38,19.52,2-1-1.76-2.93-1.31-4.42-1.8-9.49-3.15-13.08-10.21-10.44-20.09.4-1.5-.1-3.23-.18-4.86a41.5,41.5,0,0,0,11.83-.07c.23,2.84,1.63,5.15,4.54,5a89.51,89.51,0,0,0,12.75-2c.31-.07.63-2,.32-2.89-2.48-6.83-4.41-14-10.48-18.84-1.46-1.17-2.7-2.88-4.87-1.81-2.46,1.21-1.23,3.17-.79,4.91a37,37,0,0,1,1.38,11.76c-.15,1.91.07,4-2.8,3.84-.37-4.36-.63-8.74-1.18-13.08-.26-2.08-1.07-4.27-3.6-4.51s-3.8,1.46-4.72,3.46c-2.05,4.47-2.11,9.31-2.51,14.08-2.94.13-2.87-2-2.6-3.85a73.76,73.76,0,0,1,2.09-9.63c.43-1.48,2.37-2.88.53-4.34a4.12,4.12,0,0,0-5.22.24C177.3,125.49,175,127.11,171.79,126.16Z"/><path class="cls-1" d="M416.72,155c5.82,5.27-.32,10.36-.38,15.55,0,1.87-1.48,3.85-2.64,5.54-1.43,2.09-1.86,3.2-5.12.29-14.92-13.3-15.06-32.7-22-49.26-2.58-6.16-1.15-8,5.24-7.07a12.55,12.55,0,0,0,4.9-.63c2.82-.78,4.16.2,5,3,2.84,9.51,5.79,19,8.95,28.42.69,2,.84,5.49,4.76,4.36Z"/><path class="cls-1" d="M291.65,67.17c9.12,5.1,11.55,4.86,19.38-2,1.42-1.25,2.78-2.92,4.84-1.57,2.46,1.61,1.09,3.79.22,5.56-6.13,12.56-25.51,15.63-38.84,6.21-10.82-7.65-14.73-22.2-9.3-34.68a27.58,27.58,0,0,1,31.81-16.24c12.15,2.74,20.86,15.51,19.33,27.93-.41,3.37-2.45,3.39-4.83,3.38-6.9,0-13.79,0-20.69-.13-6.53-.11-7.26,1-4.35,7.08.72,1.49,1.56,2.93,2.34,4.4-4.63,1.08-4.68-2.78-5.1-5.31-1.91-11.5-5.57-23.19,4.1-34.95-12.38,1.8-17.67,10.19-21,17.84-3.65,8.33-.7,17.59,6,24.7,7.61,8,21.35,10.41,30.07,5.54-1.23-2.36-3.42-1.33-5.25-1.8C297,72.22,291.22,74,291.65,67.17ZM296,31.34c3.14-.3,3.8,1.66,4.07,4.23a74,74,0,0,1,0,16.84c2.84,0,5.4-.39,7.79.07,7.26,1.39,8.91-4.82,7.07-10.47-2-6.29-7.24-9.45-11.73-13.33-4.25-3.66-5.72-3-7.24,2.65-6.2-.53-7.87,1.76-9.21,10.83-.78,5.33.89,7.13,6.23,6.73,3.28-.25,5.07-.84,4.83-4.6C297.57,39.91,297.77,35.5,296,31.34Z"/><path class="cls-1" d="M245.92,61.62c2.87-9.29,5.79-18.57,8.56-27.89.58-2,.69-3.83-1.46-5.54-2.8-2.21-1.59-4.11,1.54-4.38,3.52-.31,7.09-.06,10.64-.06,1.34,0,2.51.34,2.9,1.81a2.25,2.25,0,0,1-1.18,2.65c-5,2.77-5.84,7.85-7.31,12.61C256,52.6,252.25,64.34,248.8,76.17c-1,3.57-2.71,4.89-6.56,4.9-14.46.05-14.47.21-18.91-13.62C220.2,57.71,217.15,48,214,38.23c-1.21-3.7-1.68-7.88-5.76-10a2.34,2.34,0,0,1-1.06-2.71c.31-1.59,1.56-1.8,2.85-1.8,8.56,0,17.13-.11,25.69.06,3.4.07,5.14,1.76,1.92,4.53a6,6,0,0,0-1.76,6.8c2.73,8.91,5.78,17.72,8.71,26.56ZM238,77.44c3.32-.33,7.69,1.58,8.85-4,1-4.91,1.19-9.08-4.84-10.9a4.71,4.71,0,0,1-3.34-3.44C236.63,50,233.87,41,232.58,31.8c-.65-4.58-3.37-5-6.15-5.32-3.78-.37-7.9-.44-10.8,2.9-.92,1.06-.35,2.24.2,3.47,5.2,11.58,6.91,24.24,11,36.2C229.07,75.38,231.22,78.58,238,77.44Z"/><path class="cls-1" d="M106.69,139.74c0,6.26-.23,12.53.08,18.78.19,3.88.37,8.06,4.47,10.41a2.53,2.53,0,0,1,1.4,3.14,2.9,2.9,0,0,1-3,1.78c-8.56,0-17.12,0-25.68,0-1.31,0-2.65-.28-3.16-1.58-.79-2,1-2.79,2.14-4,6.25-6.35,5.82-35.76-.62-41.94-1.15-1.1-2.2-2-1.62-3.61s1.94-1.43,3.16-1.37c6.14.31,11.94-1.36,17.62-3.32,4.28-1.48,5.77-.23,5.64,4.14-.17,5.84,0,11.69,0,17.53ZM96.16,170.4a27.22,27.22,0,0,1,3.13,0c4.91.57,6.48-.75,5.28-6.2a61.59,61.59,0,0,1-1.37-21.06c.5-3.91,1.45-7.76,1-11.74-.86-8.57-.87-8.56-9.25-7.56a20.3,20.3,0,0,1-3.12,0c-2.67-.09-3.49.73-3,3.72,1,7,.5,14,1.34,21.11a36.77,36.77,0,0,1-2,17.07c-1.78,4.57-.26,4.52,3,4.59C92.83,170.42,94.5,170.39,96.16,170.4Z"/><path class="cls-1" d="M100.67,115.43l-1.19.73c-3.07-5-7.07.29-10.48-.94a1,1,0,0,1-.93-.59c0-2.64-1-4.38-3.91-4.5-2.17-4.23-2.23-8.08,1.42-11.72C90,94,95,93.48,100.25,96.05c4.52,2.23,7.45,5.85,6,11.48C103.49,109.54,101.05,111.76,100.67,115.43Z"/><path class="cls-1" d="M89,115.22c3.41,1.23,7.41-4.09,10.48.94C95.78,118.11,92.25,118.2,89,115.22Z"/><path class="cls-1" d="M100.67,115.43c.38-3.67,2.82-5.89,5.56-7.9A8,8,0,0,1,100.67,115.43Z"/><path class="cls-1" d="M84.16,110.13c2.9.12,3.92,1.86,3.91,4.5A5.33,5.33,0,0,1,84.16,110.13Z"/><path class="cls-1" d="M131.3,78.77c-8.44,0-7.36,0-7.41-7.92-.07-10.28,2.72-20.41.3-30.95-1.12-4.86.21-10.83.6-16.2A61.69,61.69,0,0,0,123.38,6c-.47-2.19-.08-2.58,1.78-2.58,2.09,0,4.17,0,6.26,0,9.69.15,10.49.89,9.31,10.39-2.4,19.31-.32,38.61.29,57.89.2,6.11-1.61,7.29-6.6,7.09C133.38,78.74,132.34,78.77,131.3,78.77Z"/><path class="cls-1" d="M36.52,28.57c-.29-6,2.22-10.53,4.95-15,.63-1,1.3-2.56,2.75-1.89,1.72.79.87,2.43.65,3.84-.36,2.37-4.64,3.48-2.58,6.34,2.7,3.78,3.38,8.66,8,11.58,3,1.92,4.81,1.18,7.24.23,5.61-2.21,12.76-.81,13.94,2.75S67,46.2,61.63,47.6C49.33,50.79,36.6,40.88,36.52,28.57Z"/><path class="cls-1" d="M13.18,96.29c7.23,0,12.38,1.61,15.54,8.07a371.23,371.23,0,0,0,19.17,34.26,105.85,105.85,0,0,1,7.16,13.06c1.72,3.9,4.16,7.68,9.1,8.72,4.12.86,2.68,4.84,3.09,7.29.46,2.78-2.58,2.64-4.62,2.68-6.48.12-17.42-4.43-20.16-13.33-1.91-6.18-8.35-10.55-7.67-18,0-.27-.47-.76-.82-.87-10.48-3.19-9.68-13.94-14.15-21.15-1.55-2.49-1.24-8.75-6.49-2.72-1.23,1.4-3.06.48-3-1.39.11-4.07-1.48-7.62-2.44-11.41C6.68,96.84,10.24,96,13.18,96.29Z"/><path class="cls-1" d="M261.74,96.27c1.05,0,2.1-.08,3.14,0,2.39.22,5.43-1,6.84,1.76,1.22,2.36-1.74,3.43-2.63,5.19-2.23,4.4-2.57,9.25-2.77,14a348.33,348.33,0,0,0,1.15,41.24c.25,3.27,1.83,6,3.61,8.54,2.05,3,0,3.57-2.14,4.26a2.17,2.17,0,0,1-1.22-.12c-4.84-1.51-10.4,3.35-14.79-1.51-4.07-4.51-.21-9.54-.38-14.31-.69-18.57-.36-37.17-.72-55.75-.06-2.82.86-3.26,3-3.27Z"/><path class="cls-1" d="M317.65,133.62c-.08,11.11-5.2,19.89-13.29,26.92-3.38,2.93-6.13,6.89-10.88,8.1-1.69.43-3.6,1.05-4.66-.47-1.62-2.3,1.09-2.61,2.23-3.45,6.16-4.55,7.44-11.53,8.18-18.22,1.45-13.25,2.11-26.55-4-39.17A17.28,17.28,0,0,0,289,100.6c-.51-.37-.55-1.42-.81-2.15.75-.19,1.57-.66,2.25-.51C303.8,100.92,317.73,119.22,317.65,133.62Z"/><path class="cls-1" d="M370.76,205.64c-2.19.34-5-1-7.75-2.53-2.11-1.16-3.21-2.68-2.09-5.07,1.05-2.24,2.76-4.09,5.34-3.18,11.26,4,22.15,3.79,32.7-2.18.73-.41,1.58-.87,2.18,0,.85,1.3.14,2.38-.82,3.26-3.33,3-7.67,4.1-11.7,5.58C383.24,203.56,377.76,205.54,370.76,205.64Z"/><path class="cls-1" d="M353.42,121c9.26-.59,16.71,4.33,19.35,12.05a45.69,45.69,0,0,1,2.46,20.32,35.37,35.37,0,0,0,.76,12.92c1.21,4.9-1.42,5.39-5.07,5.21-4.62-.23-7.37-4.64-11.81-5.32-.33-.05-.87-1.28-.72-1.48,3.78-4.74,2.35-10.6,1.13-15C356.93,140.39,362.67,129.64,353.42,121Z"/><path class="cls-1" d="M327.42,146.3c2.61.5,5.07.23,6.81-2,3-3.87,7.9-1.83,11.53-3.75.27-.15,1.33.45,1.41.83a3.55,3.55,0,0,1-1.42,3.27c-6.52,6.2-6.19,14.09.84,19.47,1.25.95,3.39,1.55,2.62,3.63-.62,1.66-2.57,2.12-4.17,2.41-6.26,1.14-12.07.15-16.48-4.81-4-4.48-4.91-9.4-1.35-14.8.67-1,.18-2.83.23-4.27l.21.23Z"/><path class="cls-1" d="M341.39,124.21c0,2.86-5.36,9.76-7.54,9.68-1.86-.07-3.21-.9-3.47-2.87s6.24-9.1,8.39-9.34C340.69,121.46,341.39,122.46,341.39,124.21Z"/><path class="cls-1" d="M204.65,55.91c.06,6.55.65,12.78-.12,19-.28,2.29-1.18,3.35-3.31,3.76-5.62,1.11-13.25-6.51-12.74-12.3,1.05-12,1.32-24.09-3.65-35.56-.44-1-1.39-2.61.12-3.29,1.76-.78,3.48,0,5.28.9C201.88,34.22,205.48,44.05,204.65,55.91Z"/><path class="cls-1" d="M171.7,78.6c-2.68-1.38-6.8-.18-9.84-3.08-9.58-9.09-11-16.52,3.6-24.25a14,14,0,0,1,3.47-1.4c2.47-.55,4.94-4.43,7.14-1.61,1.69,2.16-2,4.09-3.27,6a12.9,12.9,0,0,0,2.39,17.24c1.38,1.18,3.51,2.11,2.4,4.43C176.62,78,174.72,78.91,171.7,78.6Z"/><path class="cls-1" d="M171.49,29.52c-2,3.56-2.28,8-5.67,11-1.38,1.19-2.6,2-4.45.89s-1.57-2.46-1.24-4.27c.89-5,5.49-6.52,8.54-9.44C169.55,26.8,171.63,27.08,171.49,29.52Z"/><path class="cls-1" d="M398,62.58c.29,3.38-.54,7.37.68,11.26.62,2-.56,3.33-2.06,4.11-5,2.62-7.9-2.46-11.92-3.57-2.49-.68-2.62-3-2.19-5.64A33.89,33.89,0,0,0,382,55.12c-1.1-4.56-2.26-9.18-.57-14.07,1.07-3.11-.73-6-2.67-8.64-.93-1.24-2.6-3-1.18-4.37,1.63-1.6,3.87-.91,5.74.35C392.81,34.78,398.9,43,398,55.15,397.81,57.43,398,59.73,398,62.58Z"/><path class="cls-1" d="M366.9,65.87c-.8,2.9.68,4.7,2.85,6.31,2.78,2.06,2.07,4.26-.76,5-8.31,2.11-19.94-1.16-21.1-11.39-.48-4.31.11-8.39,4.23-10.92,5.36-3.29,9.93-8.81,18.9-6.8-4.5,3-6.11,6.47-7.25,10.16-1,3.25-1.52,6.59,3.13,7.65Z"/><path class="cls-1" d="M368.2,28.68c-5.44,1.52-6.39,5.55-7.56,9.41-.68,2.25-1.39,4.87-4.43,3.82-3.24-1.12-4.07-4-3.15-7.15C354.24,30.75,362.58,27,368.2,28.68Z"/><path class="cls-1" d="M121.36,165.68c1.35-3.39-.89-7.28-2.33-8.39-6.38-4.94-4.09-11.61-3.26-17,.81-5.13,4.44-10.12,8.63-14,1.08-1,2.25-2.29,3.74-1.73,2.05.78,1.68,3.12,1.13,4.35-4,8.94-.21,17.31,1.51,25.87,1.17,5.82,3.95,9.86,10.21,10.84a3.1,3.1,0,0,1,2.82,2.73c-4.86,1.28-9.69,1.8-14.07-1.12a10.25,10.25,0,0,0-8.28-1.47Z"/><path class="cls-1" d="M185,141.33c.08,1.63.58,3.36.18,4.86-2.64,9.88,1,16.94,10.44,20.09,1.49.49,3.38,0,4.42,1.8-6.5,3.39-14.52,2.42-19.52-2-2.48-2.17-5.63-3.64-7.92-6-5.85-6-7-17.92-2.45-25.66a11.71,11.71,0,0,0,1.69-8.3c3.22,1,5.5-.67,7.83-2.61a4.12,4.12,0,0,1,5.22-.24c1.84,1.46-.1,2.86-.53,4.34a73.76,73.76,0,0,0-2.09,9.63c-.27,1.8-.34,4,2.6,3.85Z"/><path class="cls-1" d="M196.84,141.18c2.87.12,2.65-1.93,2.8-3.84a37,37,0,0,0-1.38-11.76c-.44-1.74-1.67-3.7.79-4.91,2.17-1.07,3.41.64,4.87,1.81,6.07,4.86,8,12,10.48,18.84.31.85,0,2.82-.32,2.89a89.51,89.51,0,0,1-12.75,2c-2.91.16-4.31-2.15-4.54-5Z"/><path class="cls-1" d="M291.65,67.17c-.43,6.78,5.35,5,8.76,5.93,1.83.47,4-.56,5.25,1.8-8.72,4.87-22.46,2.5-30.07-5.54-6.74-7.11-9.69-16.37-6-24.7,3.34-7.65,8.63-16,21-17.84-9.67,11.76-6,23.45-4.1,35,.42,2.53.47,6.39,5.1,5.31Z"/><path class="cls-1" d="M296,31.34c1.52-5.69,3-6.32,7.24-2.66,4.49,3.88,9.69,7,11.73,13.33,1.84,5.65.19,11.86-7.07,10.47-2.39-.46-5-.07-7.79-.07a74,74,0,0,0,0-16.84C299.81,33,299.15,31,296,31.34Z"/><path class="cls-1" d="M238,77.44c-6.82,1.14-9-2.06-11.16-8.39-4.14-12-5.85-24.62-11-36.2-.55-1.23-1.12-2.41-.2-3.47,2.9-3.34,7-3.27,10.8-2.9,2.78.28,5.5.74,6.15,5.32,1.29,9.19,4,18.17,6.13,27.25a4.71,4.71,0,0,0,3.34,3.44c6,1.82,5.86,6,4.84,10.9C245.73,79,241.36,77.11,238,77.44Z"/><path class="cls-1" d="M96.16,170.39c-1.66,0-3.33,0-5,0-3.23-.07-4.75,0-3-4.59a36.77,36.77,0,0,0,2-17.07c-.84-7.06-.32-14.14-1.34-21.11-.44-3,.38-3.81,3-3.72a20.3,20.3,0,0,0,3.12,0c8.38-1,8.39-1,9.25,7.56.4,4-.55,7.83-1,11.74a61.59,61.59,0,0,0,1.37,21.06c1.2,5.45-.37,6.77-5.28,6.2A29.69,29.69,0,0,0,96.16,170.39Z"/><path class="cls-1" d="M219.76,269.52a27.59,27.59,0,0,1-22.44-12.09c-.94-1.32-2.07-3.07-.28-4.45s2.86.31,4,1.6c12.35,14.44,25.25,14.3,37.63-.41,1.09-1.3,2.13-3.09,4-1.68s.45,3.16-.39,4.49C237,265.24,229.15,269,219.76,269.52Z"/><path class="cls-1" d="M214.57,232.49c-.65,3.9-.77,8.87-6,8.77-4.74-.1-5.25-4.8-5.24-8.58,0-4,.45-9,5.63-8.82C213.51,224,214,228.7,214.57,232.49Z"/><path class="cls-1" d="M226.26,226.94c.44-2.39,1.92-3.7,4.29-3.55s3.5,2,4.35,3.93a9,9,0,0,1,.5,1.78c.92,4,.73,7.83-2.36,10.94a3.45,3.45,0,0,1-5,.28,9.22,9.22,0,0,1-2.59-10.67,32.23,32.23,0,0,0,1.32,3.52c.76,1.51.22,4.21,3,4a3.64,3.64,0,0,0,3.55-3.05c.32-2.2.93-4.61-1.56-6.21C230,226.83,228.14,226.9,226.26,226.94Z"/><path class="cls-1" d="M226.26,226.94c1.88,0,3.74-.11,5.45,1,2.49,1.6,1.88,4,1.56,6.21a3.64,3.64,0,0,1-3.55,3.05c-2.77.19-2.23-2.51-3-4a32.23,32.23,0,0,1-1.32-3.52C225.69,228.74,226,227.84,226.26,226.94Z"/></g></g></svg>