<svg xmlns="http://www.w3.org/2000/svg" viewBox="0 0 944.53 116.18"><defs><style>.cls-1{fill:#463f3a;}</style></defs><g id="Capa_2" data-name="Capa 2"><g id="Capa_1-2" data-name="Capa 1"><path class="cls-1" d="M194.72,87.15c-9.54.53-15.05.84-21.8,3.81s-11,7.06-19.29,7.55c-2.77.16-4.65-.15-6.24-1.22-3.49-2.38-4-7.42-4.09-12.14-.19-10.52,1.77-18.34,3.34-25.26,3.73-16.46,1.86-12.93,5.51-28.06,3.85-16,6.62-22,3.34-25.25C153,4.11,147.87,4.19,144.27,6c-6.22,3.11-6,10.37-11.4,37.44C130.4,55.77,129,61,128.29,70.87a87.14,87.14,0,0,0,1,19.62c1.4,8.62,3.12,11,4.09,12.14,4.53,5.37,11.85,5.94,15,6.18,1.47.12,5.39.31,16.82-3.17,14-4.27,13.41-6.18,20.85-7.24,8.47-1.21,10.7,1,18.07-1.31,5.24-1.69,11.67-5.27,11.19-7.52C214.55,86,197.18,87,194.72,87.15Z"/><path class="cls-1" d="M291.47,39.75c-1.09,1-1.57,2.12-2.48,4.37-3.36,8.34-2.21,14.67-4.62,15.29a2.31,2.31,0,0,1-1.56-.31c-1.87-1-2.08-3.94-2.2-5.29-.55-6.09-.87-9.65-2.53-11.83-3.58-4.7-11.68-.7-16.54-6.49-1.39-1.65-.93-2.22-2.51-3.73a12.16,12.16,0,0,0-12.47-2.45c-2.76,1.19-3.16,3-6.21,6.88-5.27,6.66-7.78,5.8-11.8,10.64-.6.71-8,10-5.85,21.52.42,2.21,1.62,8.47,7.22,12.75,5.32,4.07,13.3,5.29,19,2.12,4-2.21,5.72-5.9,9-12.81S260.43,58.14,263.8,57a5,5,0,0,1,4.67.92c3.61,3.07-1.39,9.48,1.62,16.51a15.64,15.64,0,0,0,11.25,8.68c.73.14,7,1.24,11.83-2.53s3.35-8.42,7.1-19.66c4.25-12.75,9.23-15.94,7.1-19.66C305,37.05,295.68,36,291.47,39.75Zm-38.62,7a75.09,75.09,0,0,1-6.79,18.1,35.53,35.53,0,0,1-6.51,8.44c-1.26,1.21-1.6,1.35-1.87,1.25-1.7-.64-1.58-11.9,4-20.27,2.18-3.29,4.37-4.87,5-8.74.42-2.76-.26-4.78,1.22-6.24,1.29-1.26,3.73-1.63,5-.64C253.77,39.38,254.15,41,252.85,46.74Z"/><path class="cls-1" d="M391.59,65.88c-3.78-3.16-10.64-.18-21.8,3.82,0,0-8.6,2.94-25.83,7.88-10.44,3-14.42,3.8-16.51,1.62-3.38-3.52.62-12.21.88-12.78,1.13-2.4,2.91-6.17,6.21-6.88,4.59-1,7.5,4.9,10.61,3.7s3.51-7.81,2.45-12.47c-.22-1-2.39-9.92-9.08-11.5C333,38,328,42.6,324.21,46.18a34.82,34.82,0,0,0-9.6,15.92c-1.16,4.15-3.61,12.89,1,19.63a16,16,0,0,0,4.07,4c4.71,3.24,9.85,2.91,14,2.75,5.51-.2,8.83-1.47,15.26-3.48,11.08-3.47,8.4-2,20.54-5.68,9.16-2.8,23.68-7.43,23.33-11.61A2.92,2.92,0,0,0,391.59,65.88Z"/><path class="cls-1" d="M613.68,39.85c-3.4-10.43-6.35-13.18-8.46-14.61-4.08-2.77-9.73-3.82-10.92-2.14-1,1.36,1.55,3.84.64,5-1.34,1.71-7.25-3.4-14-2.76-5.8.56-11,5.2-13.36,10.34-4.62,9.86,2,19.19,2.56,19.93.72,1,7.45,9.79,17.79,8.35C596,62.81,600.32,56.2,601,55.17a5.81,5.81,0,0,1,2.81,2.17c1.58,2.46-.14,4.83,0,8.1.33,6.47,7.72,10.75,9.08,11.5,1,.55,7.14,3.93,9.35,1.84,1.92-1.81-.76-6.14-3.48-15.26C615.43,52.36,617.25,50.79,613.68,39.85Zm-25.22,4.77c-2.47,8.5-2.93,9-3.4,9.05-1.58,0-3.69-6.24-2.53-11.83a13.74,13.74,0,0,1,2.78-5.94c1.44-1.76,4.43-4.47,5.6-3.75C591.47,32.49,591.65,33.63,588.46,44.62Z"/><path class="cls-1" d="M636.37,23.26c-.87-13.11-4-17.07-6-19C626.88,1,621.44-1,619.78.57s1.81,5.86,3.78,13.7c1.55,6.13.31,7.21.09,24.3-.2,14.91.69,18.34,2.26,21.5,3,6,8.61,11.34,10.94,10.24,2.64-1.25-1.47-9.64-1.34-26.17C635.59,34.52,637,32.91,636.37,23.26Z"/><path class="cls-1" d="M707,1.51c-1.33.2-2.14,3.67-3.7,10.6-2.21,9.83-2.15,13.49-5.23,18.41-1.41,2.25-3.37,5.38-5.9,5.32-3.3-.08-3.93-5.47-8.44-6.52-3.19-.73-3.74,1.76-8.41,1.59-4.18-.15-5.2-2.19-9.35-1.84-1.31.12-4.53.39-5.29,2.2s2.07,3.65,4.7,9c2.28,4.66,1.1,5.39,3.15,8.72s6.46,7.7,10,6.82c3-.74,2.79-4.55,5.9-5.32,3.38-.83,4.93,3.35,9,3.4,1.55,0,3.4-.56,11.49-9.08,5-5.23,7.46-7.85,8.38-9.69,3.55-7.07,2.37-14.12,1.81-17.46C713.9,9.93,709.75,1.09,707,1.51Z"/><path class="cls-1" d="M770.21,67.35a51.66,51.66,0,0,1-8.77-13.06c-3.94-8.46-1.27-10.56-5-15.56-4.77-6.33-12.35-7.35-13.11-7.44-1.88-.22-7.15-.85-11.84,2.54-7.06,5.1-6.23,14.44-6.18,15,.2,1.81.84,7.83,6,10.88,4.29,2.55,10.63,2.39,13.09-.67,2.8-3.48,0-10.1,2.14-10.91a1.94,1.94,0,0,1,1.56.31c3.11,1.58,3.8,5.84,4.71,9,2,6.85,5.74,11.31,8.46,14.61s5.93,7.08,10,6.82c2.44-.15,5.27-1.73,5.59-3.76C777.16,72.8,774.07,71.26,770.21,67.35Z"/><path class="cls-1" d="M802,70.35c2.27-2,3-6,1.53-7.8-1.25-1.44-3.19-.3-6.24-1.22-4.14-1.25-6.41-5.13-8.13-8.07C785.25,46.55,787,43,783.52,40.81a7.61,7.61,0,0,0-8.1,0,7.06,7.06,0,0,0-2.48,4.37c-1.34,5.83,2.15,11.19,3.79,13.7a28.15,28.15,0,0,0,12.5,10.55C792.36,70.75,798.56,73.32,802,70.35Z"/><path class="cls-1" d="M830.26,41.89c-2.19-2-5.47-1.38-6.23-1.22a249.26,249.26,0,0,1-12.67,31.52,163.2,163.2,0,0,1-9.26,16.2c-5.52,8.77-8.28,13.16-11.5,15.34-2.58,1.75-6.21,3.49-5.91,5.32.16.92,1.23,1.39,2.82,2.17,6.55,3.25,7,5,8.74,5,3.57-.18,6.76-2.61,19.54-25.31,2.68-4.76,2.2-4,14.23-31.21a29.16,29.16,0,0,0,2.14-10.92C832.16,43.86,830.87,42.44,830.26,41.89Z"/><path class="cls-1" d="M875.82,57.31C871,51,862.94,48.92,863.62,45.2c.42-2.28,3.64-2.46,4.34-5.62.59-2.68-.91-6.17-3.45-7.16-2-.77-3.88.27-6.85,1.9s-8.07,4.42-8.07,8.13c0,1.7,1.06,2.91,3.76,5.59,6.76,6.73,9.15,8.14,10.94,10.25,2.4,2.82,4.66,8,2.87,18.37a34.78,34.78,0,0,1-10.92-2.14c-2.54-1-4.86-2.2-7.79-1.53-.37.08-3.42.82-3.73,2.51-.41,2.23,4.23,4.76,6.88,6.2a41,41,0,0,0,15.28,4.62c4.44.5,6.66.75,8.1,0C881.34,82.87,882.86,66.59,875.82,57.31Z"/><path class="cls-1" d="M944.36,54.58c-1.3-2.32-10.63.34-15,1.92-8.29,3-8.53,5.84-14.31,6.9-9.21,1.7-15.71-4.14-17.46-1.8-1.3,1.75,1.23,6.54,4.71,9,3,2.17,6.28,2.18,10.91,2.14a36.71,36.71,0,0,0,13.4-2.23C937.08,66.57,945.84,57.21,944.36,54.58Z"/><path class="cls-1" d="M53.54,80.48C47.06,80.14,41.07,81,33.6,83c-13.21,3.57-12,5.53-19,6-4.71.31-8.82-.34-11.84,2.54A10.13,10.13,0,0,0,0,97.5a35,35,0,0,0,12.78.89c6.75-.82,8.08-3.11,17.43-6.3C35.65,90.24,43,87.81,52,88.28a45.29,45.29,0,0,1,12.47,2.44c.47-1.53,1-4.27-.33-6.54C63.23,82.66,61.17,80.88,53.54,80.48Z"/></g></g></svg>