<svg xmlns="http://www.w3.org/2000/svg" viewBox="0 0 463.99 473.49"><defs><style>.cls-1{fill:#463f3a;}</style></defs><g id="Capa_2" data-name="Capa 2"><g id="Capa_1-2" data-name="Capa 1"><path class="cls-1" d="M348,245.73l-3,.35-3,.55L332,247l-4,0-3-.12A193.8,193.8,0,0,1,302.18,243l-2.09-.41c-6.61-3.17-13.77-3.94-20.89-3.88-5.42,0-6.51-3.09-7-7.12-.22-1.74-.17-3.37-1-5.09-2.26-4.82-.11-7.52,4.27-10.21,15.43-9.49,30.21-20,47.6-26,12.55-4.35,24.88-8.25,38.4-4.65,8.15,2.17,15.38,5.28,19.74,13.06a12.7,12.7,0,0,1,1.77,7.12,6.09,6.09,0,0,0,0,7l-.24,4.72h0a.93.93,0,0,0-.66,1.25c-.09.65-.18,1.3-.28,2-3.71,8.24-10,14.29-17,19.62a4.69,4.69,0,0,0-3.79,1.45Z"/><path class="cls-1" d="M242.85,131.89v.94l-.51,7a53,53,0,0,0-2.43,12.71c-1,14.3-6.82,27.35-10.63,40.92-.9,3.17-10,4.37-12.3,1.77-13.85-15.74-25.11-33.08-32.29-52.91-1-2.66-1.59-5.46-2.76-8-4.4-9.67-3.81-19.24-.47-29.11,3.72-11,10.26-18.61,22-20.63C215.61,82.51,224.92,87.39,232,97c5,6.83,7.55,14.73,9.36,22.9l.3,1c.17,1.66.33,3.31.5,5C241.64,128,242.25,129.92,242.85,131.89Z"/><path class="cls-1" d="M224.69,355.78l0-3c0-.67.06-1.34.08-2l0-4-.82-9-.15-2c0-1.33-.1-2.66-.16-4,0-1,0-2,0-3,0-8.31,1.9-16.53,1.15-24.88,3.07-7.5,3.7-15.4,3.26-23.34-.23-4.32,1.72-5.36,5.28-4.74a19.51,19.51,0,0,0,9.31-.48c2.27-.71,3.38.21,4.38,2,2.55,4.6,5.17,9.17,7.77,13.75a.68.68,0,0,0,.2.7c2.12,3.88,3.22,8.44,7.33,11l0,0c.79,4,4,6.3,6.53,9.07a3,3,0,0,0,1.27,2.91,57.09,57.09,0,0,1,8.65,23l.28,4c-.14,4.48-.18,9-.44,13.43A31.31,31.31,0,0,1,274.87,369c-10.71,18.8-31.46,20.48-46.86,3.78-1-2.32-3-4.22-3-7l-.15-2C224.8,361.12,224.74,358.45,224.69,355.78Z"/><path class="cls-1" d="M319.42,131a28.1,28.1,0,0,1-6.09,17.52c-16.1,20.36-35.43,37.34-55.63,53.44-2.73,2.17-4.25.18-6.14-.8-6.8-3.5-7.14-3.63-5.26-11,2.33-9.14,2.51-18.34,2.8-27.68a69.32,69.32,0,0,1,22-49.18c9.49-9.09,21.82-9.8,34.23-8.12a10.83,10.83,0,0,1,8.7,6.72C316.8,118.15,319.18,124.51,319.42,131Z"/><path class="cls-1" d="M351,328.84c-13.33,1.65-24.52-4-35.52-10.39-1.71-1-3.41-2-5.12-3h0l-3.17-2.21-1-.77-4.89-3.74h0L279,288.79l-1-1c-5-5.64-10.14-11.24-15.09-17-1.08-1.25-4.06-2.36-2.81-3.92,1.87-2.34,3.24-5.94,7.53-5.51,9.26.94,18.7.87,27.78,2.63,16.13,3.14,32.24,6.6,47.81,12.07a42.58,42.58,0,0,1,11.35,6.09l0,0A105.72,105.72,0,0,1,363.21,295C370,306.41,365.69,324.54,351,328.84Z"/><path class="cls-1" d="M120.26,156.71c18.77.44,34.6,7.65,48.05,20.42,7.47,7.1,15.91,13.15,22.69,21a57.78,57.78,0,0,1,4.55,5.92c4.31,6.49,3.58,10.77-2.44,15.72a3.07,3.07,0,0,1-3.24.58c-11.49-4.52-24-3.29-35.73-6.41a93.69,93.69,0,0,1-12.33-4c-9.27-3.92-19-5.88-28.79-7.84-15.49-3.1-23.39-17-18.38-32,2.5-7.48,8.55-10.73,15.73-12.23C113.61,157.24,117,157.09,120.26,156.71Z"/><path class="cls-1" d="M140.06,289.82,126,294.59l-4.93,1.46L110,298.61a15.37,15.37,0,0,0-6,1l-1.93.43-4,.76c-4.82-.21-9.17-1.1-10.07-7C91.74,292,91.74,292,90,288l-2.92,2.62L87,289.22a15.56,15.56,0,0,0,0-12.46c.67-6.71,5.1-11.22,9.29-15.87,5.59-3.8,11.29-7.28,17.76-9.56,9.13-3.21,18.59-4.43,28.06-5.75l8-.83,1,0c11,0,22-.79,32.95,0,1.76.13,4.46-.92,4.63,2.23.19,3.4,4.36,6.21.32,10.31A144.44,144.44,0,0,1,144,288.25Z"/><path class="cls-1" d="M194.16,311.8l-.33.93a7.78,7.78,0,0,0-1.65,4.07c-3.45,6.61-7.4,13-10.23,19.89-4.28,10.35-12.27,16.85-21.53,21.92-13.61,7.46-22.46,4.21-28.62-9.78-2.14-7.18-1.2-14.13,1.48-21a7.63,7.63,0,0,0,2-4l0,.07,4.36-6.16,1.47-2,1-1.1c.41-.44.82-.89,1.24-1.33l5.12-5.44c15.09-13.88,31.91-25.6,48-38.28,2.63-2.08,4.38-2.69,7.5-.44,6.78,4.9,7.09,4.7,3.07,12.34C201.8,291.27,197.23,301.22,194.16,311.8Z"/><path class="cls-1" d="M213.38,211a3.57,3.57,0,0,0,2.78-1.77l6.17-3.05-.14.11,2.18-.65h.2c8-2.21,15.06,1.06,22.29,3.5l-.07-.08A9.26,9.26,0,0,0,251,212l0,0,2,1.57c5.51,6,10.16,12.49,12,20.64.44,1.92.73,3.32-1.25,4.64-2.19,1.46-3,4.38-1.69,6.2,3.13,4.48-.07,6.82-2.36,9.64-.52.64-1,1.3-1.51,2l-1.32,1.2.12-.14-1.18,1.09.15-.17-2,1.18.08,0-1.32,1-.36,0-.29.21-1.35.81h-.36l-.3.2-1.25.8.08-.12-1,.4c-10.24,3.92-20.75,1.84-30.93.44-7.63-1-13.78-6.12-18.25-12.7-2.45-6.86-4.32-13.74-.35-20.71l-.06.06c4-2,1.28-6.28,3.11-9l0,0a4.48,4.48,0,0,0,2.09-3l-.07,0a3.59,3.59,0,0,0,1.92-2.19l-.06.06,2-2.13,1.9-.34A6.18,6.18,0,0,0,213.38,211Z"/><path class="cls-1" d="M364.3,40.5c-.9,2.69-3.12,4.07-4.75,5.91-4.13,4.67-3.79,6.31,1.26,9.67,3,2,4.83,1.49,6.35-1.5a47.36,47.36,0,0,0,2.17-4.48c1.53-4,3.91-4.92,7.74-2.73,6.43,3.69,6.49,4.75.88,9.87-6.59,6-11.08,13.62-15,21.55-.91,1.85-1.63,4-4.07,3.63-3.35-.57-6.39-2.21-8-5.36-1.13-2.26,1.08-3.55,2.43-4.94a24.58,24.58,0,0,1,1.9-1.62c5.39-4.58,5.21-5.41-.9-8.89-5.33-3-6.25,1.36-7.83,4.43-2.63,5.11-6.16,5.82-10,1.79-2.29-2.37-2.72-4.79-.19-7.39,6.87-7.07,13-14.69,16.4-24.11,1-2.71,2.84-3.22,5-1.47S363,37.63,364.3,40.5Z"/><path class="cls-1" d="M399.1,128.81c-4.59-5-4.13-9.73-.11-15,2.78-3.65,3.86-8.3,5.44-13.44A28.79,28.79,0,0,0,393.78,109c-1.43,1.82-2.82,4.2-5.62,2.55s-5.56-3.83-6.1-7.43c-.27-1.76,1.49-1.82,2.71-2.28,8.48-3.16,15-9,21-15.51,1.44-1.56,2.3-4.08,4.92-3.37s4,2.79,4.58,5.41c1.18,5.15-.47,9.85-2.25,14.53-.92,2.42-1.9,4.81-3.2,8.1,4.55-2.07,6.55-5.64,9.54-8,2.71-2.13,5.37-4,8.09-.52,2.42,3.12,2,6.28-1.4,8.59-7.53,5.16-15,10.38-22.06,16.22-1.07.89-2.67,1.15-4,1.7A6.49,6.49,0,0,0,399.1,128.81Z"/><path class="cls-1" d="M60.34,139.57c-.55,2.45-1.28,5.67-4,7.2-3,1.7-4.66-1.53-6.75-3-.28-.18-.47-.5-.75-.65-1.77-.94-3.05-4.17-5.29-2.52s-3.47,4.93-3.51,7.95c0,2.72,2.57,3.16,4.59,3.83C51.5,154.68,53,157.24,50,162c-2,3.21-4.56,4.19-7.92,1.79-7.9-5.66-16.37-10.09-26-12.06-2.62-.53-3.73-2.07-2.42-4.73.22-.45.42-.91.63-1.36,3.34-7.29,3.34-7.29,10.12-2.69,5.56,3.77,7,3.24,9.7-2.55,1.55-3.36.53-5-2.57-6.05a45,45,0,0,0-4.79-1.37c-4.16-.91-5.49-3-3.81-7.21,2.82-7.08,3.5-7.29,9.53-2.47,7,5.59,15.24,8.76,23.71,11.27C58.69,135.27,60.62,136,60.34,139.57Z"/><path class="cls-1" d="M410.16,147.78c-.91-3.18.62-6,1.34-8.93,4.11-6.41,9.53-10.92,17.24-12.39,8.83-1.69,22,9.18,21.88,18.2-.05,3.94-4.6,8.26-8.61,8.25a3,3,0,0,1-3.26-3,10.24,10.24,0,0,1,.26-3c.6-3.13,2.83-6.64-1.06-9-4.39-2.67-9.06-1.38-13.37.4-3.62,1.49-3.84,5.11-3.94,8.47a6.46,6.46,0,0,0,1.71,4.58c.77.83,2,1.64,3.09,1,1.55-.9.26-2-.29-2.92-1.68-2.76-2.33-5.13,1.55-6.71,4.13-1.68,4.31,1.71,5.33,3.94,1.85,4.08,3.38,8.3,6,12,1.09,1.54,3.11,3.15.44,4.95-2.3,1.56-4.66,1.88-6.52-.77a27.19,27.19,0,0,1-1.44-2.63c-3.12,3.66-6.45,2.79-9.93.91C415.14,158.22,412.84,152.86,410.16,147.78Z"/><path class="cls-1" d="M60,88.48a10.42,10.42,0,0,1-3.51,5.32,59.57,59.57,0,0,0-5.28,5.26c-1.57,1.81-1.38,3.69.65,5.14s3.88.92,5.14-1c1.45-2.22,2.62-4.62,3.9-7,1.47-2.7,3.34-3.57,6-1.45,2.49,2,3.31,4.23,1,6.79-1.53,1.74-3.42,3.16-5,4.84s-2.68,3.47-.45,5.57,3.86,1.21,5.51-.62a22,22,0,0,0,4.83-8.06c1.23-3.78,4-4.18,7.15-2.52s4.26,4.35,1.73,7.32a158.34,158.34,0,0,0-11.38,15.76c-2.21,3.38-5.32,3.81-7.77.58-5-6.61-11.92-10.33-19-14.07-5.75-3-6.31-6.06-2.81-11.34,3.12-4.71,6.52-9.24,9.87-13.8,1.24-1.68,2.84-3.13,5.06-1.77C57.49,84.64,59.77,85.7,60,88.48Z"/><path class="cls-1" d="M254.89,6.88c.37-3.73,2.78-5.28,6.15-5,6.44.54,12.88,1.28,19.28,2.21,2.94.42,4.05,2.46,3.47,5.51s-2.06,5.07-5.36,4.4c-3.08-.63-6-1.88-9.06-2.66-2.65-.68-5.18-.57-5.56,3-.34,3.27,2,3.83,4.51,3.94,2.15.1,4.32-.17,6.46,0,2.63.2,5.08.77,4.49,4.42-.55,3.38-2.24,5.18-5.81,4.3-2.24-.55-4.39-1.47-6.64-2s-4.35-.44-4.86,2.57c-.48,2.83,1.06,3.89,3.51,4.34,2.95.54,5.85,1,8.87.28,2.06-.51,4-.06,5.08,2.08a6.08,6.08,0,0,1,0,6.18c-1.19,2.12-3.13,2.19-5.21,1.78A136.49,136.49,0,0,0,256,39.8c-4.69-.28-6.15-2.49-4.89-7,.93-3.34,2.22-6.58,3.36-9.87C257.33,17.63,256.45,12.27,254.89,6.88Z"/><path class="cls-1" d="M459,197.89c-2.61-.2-2.87-3.2-4.89-4.09-1.29-3.37,1.39-6,1.58-9.14.14-2.27.07-4.75-2.75-5-3.21-.31-3.37,2.41-2.95,4.51.76,3.72-.33,7.16-.92,10.7l-.48,1.84-3,5-1.31.78c-6.05,2.78-10.69-.16-15.16-3.76l0,0a3,3,0,0,0-1.82-2c-1.07-4.9-2.46-9.77-1.35-14.87a5.54,5.54,0,0,0,.94-5l2.19-2.74c1.85-.37,3.56.17,5.36.58,3.51.79,4.35,2.64,2.85,5.76a17.6,17.6,0,0,0-2,8.63c.1,1.8.07,4.2,2.27,4.48s3.2-1.89,3.83-3.87a21.52,21.52,0,0,0,.6-8.88c-.44-4.48.3-8.39,4.95-10.28s8.67-.56,12.18,3c5.27,5.32,6.6,16.67,2.42,23.07C461.06,197.26,459.83,197.46,459,197.89Z"/><path class="cls-1" d="M52.56,382.19c-3.26,1.56-5.26.07-6.92-2.68a90.22,90.22,0,0,0-9.42-12.77c-3.73-4.26-3.1-6.68,2-9.09l4.92-2.32c5-2.32,8.36-6.55,12-10.49l5-2.59c3.84-.33,5.55,2.76,7.85,4.89L70.57,351a22.87,22.87,0,0,0,5.34,6.9c2.11,3.42,1.91,6.16-2.12,8.05-4.44,2.1-5.49-1.45-7-4.1-1.2-2.17-1.89-4.6-3.51-6.57-1.39-1.7-2.85-2.14-4.71-.77s-2.08,3-.71,4.72c1.55,1.93,3.4,3.62,5,5.5s3.13,4.1,0,6.2c-3,2-5.28,1.6-7-1.62a74,74,0,0,0-3.46-6.61c-1-1.58-2.74-1.78-4.37-.61s-2.33,2.2-1.19,4.16a23.27,23.27,0,0,0,4.78,6.32c4.83,4.18,4.86,4.75.92,9.63Z"/><path class="cls-1" d="M52.73,319.79c.4,1.43.88,2.85,1.18,4.3,1.85,8.76-4.07,15-12.77,13-3.32-.78-4.29.28-5.87,2.86-1.83,3-1.43,7.74-6.13,8.73-6.93-4.77-6.81-4.68-1.56-11.66,1.9-2.54,5.38-4.84,2.83-9.05-.87-1.44-1.25-2.2-2.75-.77a21.14,21.14,0,0,1-3.56,2.68c-1.92,1.15-4.09,3.46-6.19,1.59s-4.84-3.88-3.56-7.52c4.29-2.7,10-3.14,12.7-8.42a2.34,2.34,0,0,1,3.39-.94c2,1.17,3.35-.35,4.8-1.32.64-.26,1.48-.4.87-1.42l-.19-2,1.18-2h0c2.07-1.64,3.91-.37,5.78.46l.95.63A39.08,39.08,0,0,1,52.73,319.79Zm-7.15,6.12c-.93-2.6-.15-6.75-4.07-6.71-1.92,0-5.72.25-6.09,3.63-.27,2.5,5,7.33,7.19,7.3C45.61,330.09,45.29,327.83,45.58,325.91Z"/><path class="cls-1" d="M40.6,286.81c-7.45,6-14.79,12.1-21.67,18.75-1.19,1.14-2.54,2.11-3.76,3.22a6.06,6.06,0,0,1-8.91-1.18c-2.31-3.18-.13-5.1,2.2-7,1.58-1.28,4.56-1.29,4.53-4,0-3.65-.63-7.28-2.77-10.42-1-1.46-2.46-1.44-4-1.31-2.41.19-4.83.13-5.75-2.68a7.06,7.06,0,0,1,.81-6.67c2-2.66,4.2-.35,6.31-.08,1,.13,1.92.34,2.88.52l1-.29c1.5-.42,3-1.13,4.59-.64.67,2.57,2.8,2.36,4.78,2.59,3.95.46,7.88,1.46,11.82,1.44C38.17,279,39.9,282.22,40.6,286.81ZM21.25,285c-1.24.08-3.09-.61-2.66,1.17.56,2.3-.5,5.08,1.64,6.86.76.62,6.11-4.08,5.91-5.37C25.67,284.59,22.45,286.57,21.25,285Z"/><path class="cls-1" d="M158,11.06c2.56-.27,3.5,1.54,4.29,3.43s1.42,3.85-.69,5.39c-.4.29-.9.46-1.3.74-2.52,1.77-7.23,1.37-7.63,4.71-.32,2.74,2.05,5.79,3.22,8.71a60.74,60.74,0,0,0,5.6,11.13c1.1,1.67,2.14,3.67.41,5.47-2.11,2.19-4.68,4-7.87,3.71-2.7-.21-3.15-2.59-3.45-4.8A49.31,49.31,0,0,0,146,35.36c-3-6.54-3.09-6.61-9.5-3.45-4.59,2.26-7.3.95-8.36-4-.39-1.82-.1-3.46,1.72-4.21,9.2-3.82,18.69-7,27.17-12.41A2.75,2.75,0,0,1,158,11.06Z"/><path class="cls-1" d="M11.31,192.59c-1,4.24-3.68,5-7.56,3.83-4.19-1.31-3.58-4.17-2.58-7.2,2.54-7.75,4.7-15.57,5.17-23.79.17-3.16,1.69-5.35,5.52-4.71,3.68.61,5.08,2.41,4.38,6.22-1.55,8.48-1.45,8.5,7.05,10.48,4.37,1,8.66,2.31,13.22,2.38s5.47,2.89,4.82,6.84-1.77,7-6.71,5.35h0l-1.33-.75c-5.1-3.39-11-4.29-16.83-5.53-2.42-.51-4.3.13-4.48,3.07a3.81,3.81,0,0,0-.56,3.24A.35.35,0,0,0,11.31,192.59Z"/><path class="cls-1" d="M344.9,28.26c.23,4.58-3.15,7.13-7.1,5.8-8.46-2.87-8.44-2.85-11.84,5.48-1.63,4-3.5,7.87-4.35,12.18-.4,2.05-1.22,4.6-3.91,4.51-3.13-.09-6.5-.51-8.35-3.57-1.38-2.28.37-4.17,1.7-5.79,3.32-4.08,5.26-8.83,7.14-13.64,2.12-5.45,1.84-6-3.61-8-2.76-1-6.12-1.52-5-5.91,1.26-5,3.7-6.22,8.36-3.78,7.08,3.72,14.26,7.13,22.13,8.9C342.34,25,344.52,25.88,344.9,28.26Z"/><path class="cls-1" d="M188.08,35.22c.16-5.66-1.27-10.65-2.45-15.65-1.06-4.49-4.31-3.79-7.49-2.57-4,1.56-6.63.82-7.64-3.92-.73-3.4.42-5.36,3.57-5.8,9.07-1.26,18-2.86,26.62-6.18,2.75-1.06,4.84.42,5.46,3.45.57,2.8.66,5.12-3,6.2-9.12,2.72-9.08,2.84-7,12.14.88,3.88,1.53,7.82,3.09,11.53.91,2.19,1.79,4.66-.76,6.26s-5.46,3-8.46,1.75c-2.6-1.09-2.14-3.84-2.1-6.16A6.94,6.94,0,0,1,188.08,35.22Z"/><path class="cls-1" d="M238,38.09a93.06,93.06,0,0,0-14.68,1.52c-4.79,1-7.84-1.79-6.59-6.45,2.24-8.36,1-16.49-.38-24.72-.39-2.31-1.71-5.32,1.37-6.67,3.5-1.53,7.41-2.67,11.08-.8,2.67,1.36,2.16,4.18.78,6.11C226,12.22,225.93,18,226.07,23.85c.13,5.46,2.4,7.2,7.67,6.12a16.89,16.89,0,0,0,3.3-1.12c7-3,8.24-2.12,8.2,5.47C245.21,40,241.44,38.48,238,38.09Z"/><path class="cls-1" d="M101.39,88.38a5.7,5.7,0,0,1-4.73-3.67C93.55,76.22,87,70.55,80.72,64.59c-1.67-1.6-3.9-3.3-2-5.88,2.33-3.12,4.44-7,9.12-6.79,2.39.1,3.18,2.37,3.27,4.41.27,6.26,3.84,10.88,7.5,15.41s6.47,4.31,10-.26a21,21,0,0,0,2.31-3.83c.88-1.84,1.7-4.13,4.08-3.65,3.17.63,4.7,3.6,6,6.19,1.18,2.29-.77,3.46-2.56,4.62a53.3,53.3,0,0,0-12,10.4C105.18,86.74,103.88,88.32,101.39,88.38Z"/><path class="cls-1" d="M109.23,38c.34-3.16,2.41-5,5.2-6,3.07-1.1,4.63,1.06,5.82,3.36A17.79,17.79,0,0,1,122,40,24.6,24.6,0,0,0,130.16,54a28.7,28.7,0,0,1,3,3.3c3.92,4.82,2.06,9.9-4.09,11.25-2.11.47-3.85-.23-4.36-2.26-2.09-8.2-8.36-13.88-12.4-20.89C111,43.05,109.55,40.82,109.23,38Z"/><path class="cls-1" d="M374.94,97.16c-2.92-1.53-6-2.73-7-6.1-.9-3,1.43-4.12,3.46-5.29C376.16,83,378.57,78,382.26,74.2c2.43-2.51,4.63-5.26,7.27-7.52,3.4-2.91,6.87-2.41,9.51,1s.57,6.36-2.24,7.87c-7.65,4.1-13,10.14-17,17.68A7.09,7.09,0,0,1,374.94,97.16Z"/><path class="cls-1" d="M443.05,239.62c.63-2.16-1.71-3.77-.93-6.12,1.57-4.7,4.64-6.73,9.94-5.86a3.3,3.3,0,0,0,2.69-.71c.18,2.73,3.31,3.55,3.89,6a13.7,13.7,0,0,1-.24,5.7c-2.57,3.76-6,5.61-10.47,3.93A29.62,29.62,0,0,1,443.05,239.62Z"/><path class="cls-1" d="M12.44,241.66c-2.75-3.12-4.06-6.55-1.8-10.45a7.43,7.43,0,0,1,8-3.92,7.8,7.8,0,0,1,6.81,8.43q-.34,7-9.31,7.46Z"/><path class="cls-1" d="M411.66,358.17c-3-1.75-6.06-3.46-9.05-5.26-2.62-1.57-4-3.79-2-6.61,1.8-2.56,4.47-3.8,7.34-1.74,7.69,5.53,15.26,11.23,22.86,16.89,1.88,1.4,1.49,3.07.44,4.85-1.66,2.79-3.77,4.78-7.29,3.88a65.94,65.94,0,0,0-18.68-2.28,26.73,26.73,0,0,0,11.24,7.45c2.25.78,4.13,1.81,3.44,4.56-.78,3.14-2.24,6-5.32,7.47-1.05.5-1.78-.57-2.35-1.39-5.12-7.37-12.54-11.71-20.4-15.45-1.78-.84-4.3-1-4.41-3.44-.13-2.66,1.54-4.7,3.9-5.94,4.3-2.26,8.95-2.25,13.64-2,1.82.11,3.64.19,5.46.29.75.37,1.69.78,2.21,0C413.08,358.9,412.25,358.46,411.66,358.17Z"/><path class="cls-1" d="M125.2,431.52c-1.08-2.35-3.58-3-5.69-4.14s-3.89-1.1-5.09,1.18a40.15,40.15,0,0,0-2,4.57c-.75,2-1.66,3.73-4.12,3.68a7.69,7.69,0,0,1-6.52-4c-1.3-2.06-.34-3.75,1-5.4,5.89-7.06,11-14.54,13.61-23.53.82-2.86,2.53-3.79,5.22-2,.68.46,1.41.87,2.13,1.3,5.22,3.12,5.08,3.11,1.34,8.07-1.94,2.58-6.44,5.22-1.85,9.06,5,4.22,7.25,3.28,9.77-3.68,2-5.6,3.24-6.24,7.75-4.12,6.25,2.95,6.41,4.11,1.5,9.06-6,6-9.46,13.57-12.78,21.18-.89,2-1.38,4.53-4.1,4.19-3.17-.39-6.27-1.72-7.82-4.71-1.14-2.2,1.16-3.55,2.43-5C121.67,435.48,123.86,434.13,125.2,431.52Z"/><path class="cls-1" d="M349.29,398.76a3.36,3.36,0,0,1,2.91,2.11c1,1.73,1.88,3.52,2.92,5.22,2.14,3.5,4.41,3.54,7.7,1s3.47-4.83.49-7.56c-.49-.45-.95-.93-1.44-1.38-5.13-4.74-4.3-8.93,2.18-11.84,2.16-1,3.35.15,4,1.69,3.9,9.62,10.39,17.3,17.83,24.3,1.25,1.18,1.73,2.61.83,4-1.64,2.56-3.79,4.71-6.84,5.43-2,.48-2.85-1.34-3.65-2.78a14.49,14.49,0,0,1-1.1-2.78c-2.1-6.87-3.5-7.36-9.22-1.34-3.43,3.62.52,5.55,2.53,7.66,3.61,3.81,3.29,7-1.18,9.51-3,1.66-5.47,1.23-7.09-1.93-4.37-8.5-9.68-16.26-17.24-22.27-.82-.65-1.59-1.5-1.12-2.55C343.31,401.84,346.86,400.77,349.29,398.76Z"/><path class="cls-1" d="M222,455.32c5.48,1.89,5.83,6.08,5.06,10.66s-4,6.6-8.33,7.28c-6.51,1-12.4-1.83-18.55-3-2.16-.42-2.36-2.75-2-4.59,1.72-8,2.56-16.06,1.1-24.26-.47-2.67.95-4.23,3.71-4.95A44.37,44.37,0,0,1,219.36,435c8.1.95,11.26,9.1,6.45,16.22A38.65,38.65,0,0,1,222,455.32Zm-11-4.53c5.05,0,9.08-2.65,8.73-5.68-.32-2.8-2.43-3.29-4.76-3.12-3.64.26-7,.78-6.95,5.74C208.05,450,208.66,451.25,211,450.79Zm.43,14.93c3.33-.26,6.69-.55,6.75-4.56,0-3.47-3.08-3.21-5.53-3.51-4.09-.49-5.41,2.28-5.71,5.38C206.59,466.68,210,464.83,211.43,465.72Z"/><path class="cls-1" d="M260.12,449.37c-.11-9.93,11.68-20,20.89-18.57,4.15.64,7.59,5.6,6.6,9.71-.89,3.67-3.37,3-5.86,1.91-2.24-.93-4.07-3.1-6.87-2.38a5.82,5.82,0,0,0-4.37,5.5c-.4,4.15-2.23,8.74,2.39,11.91,2.58,1.76,5.33,2.8,8.44,1.44,1.28-.56,2.53-1.57,2-3s-2-.27-3-.06c-2.42.52-4.57,1.1-5.31-2.42s1.14-4.26,4-4.73c4.42-.72,8.94-1,13.1-2.95,1.82-.84,3.92-2,4.88,1,.71,2.19.61,4.64-2.06,5.36-2.33.63-2.74,1.31-1.79,3.55.82,1.93-.08,3.86-1.35,5.57-8,10.81-23.17,9.55-29.15-2.47A24.27,24.27,0,0,1,260.12,449.37Z"/><path class="cls-1" d="M415.56,336.41c-3.11-6-2.08-12.39-1.24-18.46.4-2.86,3.29-5.83,6.65-7.2l.5.05c3.61,0,7.78.45,8.84,4.12,1.19,4.09-3.48,4.43-6,5.94-3.5,2.1-4.27,5-1.72,8.31a26.9,26.9,0,0,0,5.37,5.18c3.81,2.76,9.77,1.15,12-3.09.85-1.62,1.91-3.91-.08-4.93-2.57-1.33-1.93,1.8-2.52,2.87-1.25,2.3-2.45,3.28-5.11,2s-2.78-2.78-1.48-5.17a67.53,67.53,0,0,0,5.63-12.75c.5-1.65.15-4.58,3.34-3.72,2.68.73,4.4,2.35,3.38,5.55-.28.87-1.72,2.14.54,2.55,5,.93,5.25,4.94,5.61,8.79.45,4.86-1.34,9.13-3.8,13.18C435.91,347.61,424.64,346.41,415.56,336.41Z"/><path class="cls-1" d="M158.69,421.81c5.47,1.78,12,3.69,18.35,6.06,3.08,1.14,2.42,3.76,1.4,6.32-1.14,2.83-3.24,3.35-5.62,2.41-2.9-1.16-5.6-2.81-8.4-4.23-2.32-1.17-4.3-.9-5.22,1.75-1,2.81.91,4,3.19,4.57s4.89.91,7.29,1.55,3.69,2.15,2.54,4.82c-1,2.31-2.34,4.3-5.22,3.16-2.45-1-4.72-2.41-7.08-3.61-1.9-1-3.64-.81-4.6,1.27s-.64,3.7,1.79,4.8a19.46,19.46,0,0,0,8.6,2.17c2.16-.05,3.93.63,4.65,2.94a5.85,5.85,0,0,1-.92,5.66c-1.51,1.92-3.53,1.7-5.44.87a110.58,110.58,0,0,0-17-5.55c-3.91-1-5.37-3.93-3-7.17,4.71-6.48,5.86-14,7.24-21.47C151.83,424.74,153.32,421.73,158.69,421.81Z"/><path class="cls-1" d="M341.29,413.67c-.11,1.88-2.31,2.57-4.19,3.56-6.35,3.34-6.37,3.34-2.71,9.51C337,431.16,339,436,342.33,440c1.29,1.54,1.68,3.44.23,5-1.93,2.09-4.21,3.93-7.28,3.8-2.3-.09-2.91-2.11-3.26-3.87-1-5.15-3.31-9.74-5.86-14.24-2.83-5-3.65-5.33-8.42-2.2-3.37,2.22-6,2.51-8.19-1.52-1.49-2.76-1.05-5,1.71-6.23A142.67,142.67,0,0,0,334.38,408C337.41,405.92,341.3,408.85,341.29,413.67Z"/><path class="cls-1" d="M82.94,417.2c-2.81-.77-5.48-2.3-6.77-5.14s1.26-4.24,3.12-5.51c4.34-3,7.38-7.13,10.77-11,2.62-3,2.24-5.15-1-7.26-2.18-1.4-4.87-2.77-4.05-6.14,1.09-4.48,5.26-5.79,8.7-2.58,6,5.56,11.93,11.05,19,15.26,2.55,1.52,3.66,3.75,1.34,6.64-2.19,2.72-4.29,3.11-7.18.93-6.48-4.9-6.54-4.82-11.72,1.35a68.29,68.29,0,0,0-7.75,10.37C86.45,415.72,85.31,417.2,82.94,417.2Z"/><path class="cls-1" d="M404.94,397.5c-1.3,2.66-2.49,5.47-5.53,6.72s-4.19-1.05-5.34-3.09c-1.87-3.29-4.84-5.47-7.67-7.77a81.72,81.72,0,0,1-10.61-9.84c-3-3.44-1.84-6.51,1.19-9.08,3.33-2.84,6-.6,7.32,2.11,3.81,7.72,10.07,12.63,17.3,16.68A6.59,6.59,0,0,1,404.94,397.5Z"/><path class="cls-1" d="M249.92,441.19a9.4,9.4,0,0,1-.22,2.54c-2.53,7-1.13,13.63,1,20.45,1.91,6.12.48,8.1-4.87,8.71-4.88.56-6.65-1.06-5.69-5.87s-.09-9.25-.66-13.84a66.23,66.23,0,0,1-.62-12.42c.26-4.05,3.07-5.16,6.57-5.22C249.37,435.47,249.91,438.17,249.92,441.19Z"/><path class="cls-1" d="M433.18,272.24c2.1-.31,4.43-1.13,5.47,1.69,1,2.62,2.19,5.31-.9,7.59a10.64,10.64,0,0,0-3.74,4.56c-.66,1.64-.93,3.27,1,4.31s3.06-.11,3.93-1.72c1-1.9,2-3.82,3.1-5.67,2.52-4.2,5.23-8.41,10.88-8.23s8.12,4.45,10.08,9l.33,2c.57,4.12-2.19,7.75-1.73,11.85-3.93,2.11-6.42,6.21-10.75,7.78-1.39-.52-1.36-2.25-2.36-3-3.65-2.57-1.93-4.62.53-6.58a15.18,15.18,0,0,0,5.07-6.59c.57-1.54,1.62-3.22-.37-4.37-1.77-1-3.09.23-4.35,1.38a18.33,18.33,0,0,0-4.09,6.17c-1.83,4-3.34,8.57-9,8.22-5.83-.35-8.57-4.35-10.12-9.46-.14-.47-.25-1-.38-1.44l0-4c.44-1.55,1-3.11-.64-4.36,0-.56-.05-1.11-.08-1.67l.23-.24-.18-.27C429.72,279.11,431.09,275.26,433.18,272.24Z"/></g></g></svg>