<svg xmlns="http://www.w3.org/2000/svg" viewBox="0 0 687 164.79"><defs><style>.cls-1{fill:#463f3a;}</style></defs><g id="Capa_2" data-name="Capa 2"><g id="Capa_1-2" data-name="Capa 1"><path class="cls-1" d="M172.21,49.3a.79.79,0,0,0-.39-1l-1.48-3.46-.1-.44c-.44-2.08-1.06-3.59-3.85-3-3.08.68-4,2.68-3.68,5.29.91,7.78-2.44,11-10.12,10a24.46,24.46,0,0,0-3.62.11L149,57q-.14-19.05-.25-38.1l0-3-.05-1.44c0-1,0-2,0-3l1.4-3.87,1.54-.15c2.88-.12,5.87.39,8.43-1.53,4.75,1.1,9.55-.4,14.41.62C186.35,9,192,19.5,185,29.32c-3.59,5-2.34,8.55-1.24,13.18s4.06,9,3.14,14.08C178.94,60.28,174.18,57.61,172.21,49.3ZM161.81,25c1.58,1.56-2.31,7,2.63,6.51,4.34-.47,10.65-2.13,10.58-8.06s-5.8-4.07-9.64-4.5C160.53,18.36,161.05,21.25,161.81,25Z"/><path class="cls-1" d="M439.34,151.2c-.21-.45-.41-.91-.62-1.36-3.37-3.29-6-3.31-7,1.86-.45,2.38-.16,4.9-.49,7.31-1,7-6.57,2.84-9.95,3.87-4.2,1.27-3.28-2.4-3.28-4.54,0-8.81.23-17.62.2-26.43,0-19,1.86-20.82,21.39-19.37,1,.07,1.95.2,2.92.33,12.43,1.55,18.5,12.65,11.35,22.77-3.36,4.76-2.81,8.16-1.36,12.56.84,2.55,1.27,5.3,2.45,7.68,2.63,5.27.54,7.23-4.62,8.33-3.67.78-6.16.95-6.91-3.55a12.43,12.43,0,0,0-3-6.56l0,.07C440.08,153.18,439.71,152.19,439.34,151.2Zm-8.72-21c2.49,1.28-2.29,7.59,2.94,7.43,4.32-.13,10.54-2.16,10.54-8,0-5.14-5.24-4.45-9.06-4.48C432.31,125.08,429.31,124.73,430.62,130.16Z"/><path class="cls-1" d="M122.3,137.79c-9.51,8.7-9.51,8.7-21.37-2.24-.71,7.56-1.81,14.38-1.83,21.21,0,5.4-3.53,5.13-6.78,5.31-5,.29-2.74-3.68-2.66-5.7.44-10.77,1.17-21.52,2-32.27.14-1.95-.79-5,2.46-5.25,2.7-.21,5.81-2.06,8.14,1.12a15.07,15.07,0,0,0,2.08,2.07c7.4,6.77,7.63,6.94,13.61-.82,2.66-3.45,5.63-4.59,9.47-3.67,4.15,1,2.54,4.81,2.83,7.36,1.14,10.22,1.88,20.48,2.8,30.73.28,3.05.73,5.64-3.95,5.89-4.36.22-3.88-2.29-4.26-5C123.9,150.4,124.51,144,122.3,137.79Z"/><path class="cls-1" d="M302.93,54a1.26,1.26,0,0,0-1.08.3l-2.87.2-5,.74-.88-1.19c0-4.13.24-8.29-.1-12.39-.21-2.53,2.14-7.09-3.75-6.41-4.08.46-9.36-.69-8.56,6.45a39,39,0,0,1-.31,6.55c-.56,9.38-.56,9.38-10.36,6l-.72-31c.05-1.44.17-2.88.14-4.32-.2-11.33,1-12,12.22-7.47-.16,2.67-.14,5.37-.53,8-.76,5.15.61,7.17,6.47,7.13,6.9,0,4.09-4.28,4.19-7.31a50.21,50.21,0,0,0-.42-8c-.87-6.71,4.39-4.89,7.74-5.65,4.79-1.09,4.33,2.36,4.39,5.25C303.83,25.29,303.81,39.68,302.93,54Z"/><path class="cls-1" d="M506.33,39.22c.63,14.74,0,15.41-13.4,16.33-2.69.18-5.37.5-8.06.69-7.5.53-12.09-3.27-12.66-10.71-.5-6.6-.93-13.21-1.07-19.83C471,18.22,474,15.54,481.31,14.06c18.35-3.72,23.45,2.1,24.68,19.83C506.14,36.09,506.27,38.29,506.33,39.22Zm-11.63.25c-.31-3.65-.33-6.36-.82-9-.47-2.45,1.22-6.88-3.87-6-4,.7-9.41.42-8.39,7.29.4,2.66.24,5.4.71,8,.52,2.88-1.12,7.47,5.1,6.27C492,45.21,496.66,45.3,494.7,39.47Z"/><path class="cls-1" d="M39.25,6.86c2.93.14,5.87.25,8.79.46,2.35.16,5.45-.38,4.71,3.6-.5,2.68-.21,6.28-4.79,5.76a32.57,32.57,0,0,0-3.66.2c-2.73.05-3,1.8-3,4s.35,4.16,3.12,3.77c4.06-.57,5.36,1.34,6.25,5.06,1,4,0,5.63-4,5.28-4.33-.37-5.27,1.66-5.08,5.68.24,4.71,3.26,3.51,6.07,4,3.72.7,9.88-3.81,10.52,4.57.24,3.16-.52,4.36-3.74,4.67-7.54.72-15.07,1.61-22.55,2.8-3.19.5-3.75-.67-3.84-3.41Q27.37,32,26.41,10.74c-.15-3.17.64-4.48,4-4.11a80.65,80.65,0,0,0,8.8.07Z"/><path class="cls-1" d="M677.33,15.94c8.3-2.87,9.63-2,9.62,6.07,0,8.82-.54,17.66,0,26.44.38,6.22-1.62,8.47-7.65,7.46a43.46,43.46,0,0,0-5.12-.26c-2.18-7.18-6.69-12.95-11.11-18.91,1.34,5-2.89,9.35-.82,14.33,1,2.42.24,5.11-3.89,5.23-3.7.12-5.27-.48-5.15-4.6.29-10,0-20,.22-30.06.15-8.18,3-9.93,10.69-7.52,3.5,1.1,3,4.81,5.13,6.69l0,.16a82.74,82.74,0,0,0,8.11,17.17Z"/><path class="cls-1" d="M262.46,160.78l.08-.38-.3-.25c-1.72-6.52-6-11.5-10.46-18.48v18.48c-.12.63-.23,1.26-.34,1.9-9.15,1.28-9.25,1.28-9.29-7.93,0-8.8-.07-17.61.37-26.39.12-2.55-1.64-7,2.06-7.49,4.12-.51,9.48-1.86,12.25,3.62l0,.24c.9,2.46,1,5.3,3.36,7.05l-.11-.08c.65,4.63,3.08,8.34,6.17,12.9V132.65l-.92-1.06c1.83-1.17,1.11-3.05,1.21-4.65.17-2.83-.7-5.85,4.22-5.64,4.3.18,5.25,1.83,5.12,5.76-.28,8.53-.15,17.07-.17,25.6,0,10.22-.43,10.58-10.64,9.3A9.73,9.73,0,0,1,262.46,160.78Z"/><path class="cls-1" d="M351.41,21.81l.69-7c7.39-1.06,9.61,2,9,9.4-.7,8.94,0,18,.05,27-.16,1.49-.31,3-.47,4.48-8.6,2.25-13.87-1.68-17.2-9.24l.08.1-1.08-1.84-.13-.32L338.31,37a36.45,36.45,0,0,0-1.63,13.9c.19,4.2-1.79,5.45-5.71,5.49-4.41,0-3.72-2.91-3.72-5.49,0-9.79-.15-19.58.17-29.36.1-2.75-1.61-7.5,2.86-7.8S340,12.31,342.34,19a73.13,73.13,0,0,0,9.07,18.74Z"/><path class="cls-1" d="M493.67,152.86c1.44,5.8-1.1,7.43-6.7,7.58a129,129,0,0,0-18.91,2.4c-3.31.59-4.25-.26-4.34-3.57q-.56-20.94-1.59-41.87c-.18-3.65,1.06-4.69,4.56-4.45,7.09.47,14.19.63,21.29.91l.12,0c1.24,3.26-.47,6.15-1.13,9.18l.2-.12c-2.2.06-4.4.24-6.6.15-3-.12-3.59,1.44-3.65,4.08-.07,3.56,1.58,4.23,4.56,3.43,5.78,0,4.71,4.89,5,8,.44,4.06-3.41,2.44-5.39,2.56-4,.23-3.79,2.73-3.77,5.55s.91,4.2,4.19,4.42C485.59,151.36,490.18,148.75,493.67,152.86Z"/><path class="cls-1" d="M634.49,17.57a1.25,1.25,0,0,0,.42,1.28c3.74,9.18,7.24,18.48,11.34,27.5,2.18,4.81,1.31,7.54-3.66,9-4.75-.27-5.33-4.49-6.83-7.58-1.43-2.92-2.78-4.79-6.53-4-3.55.74-7.16.39-8.33,5.34-.55,2.34.77,6.2-3.62,7-6.81,1.16-8.67-.52-7.53-7.41,1.82-11,3.64-22.11,6.59-32.94,1.88-6.9,9.22-9,15.36-4.24A11.48,11.48,0,0,0,634.49,17.57Zm-8.34,8.07c-.54,2.76-1.07,5.32-1.55,7.88-.21,1.15-.66,2.67.66,3.19a5.81,5.81,0,0,0,3.55-.22c2-.68,1.27-2.32.7-3.54C628.41,30.61,628.63,27.67,626.15,25.64Z"/><path class="cls-1" d="M176.68,160.12c-6.1,2.8-9.54.1-11.39-5.62-1.11-3.42-2.78-5.3-6.88-4.44-3.95.82-7.74,1.1-8.17,6.37-.28,3.55-1,6.51-6.08,6-4.6-.44-6.39-1.46-5.24-6.51,2.46-10.69,4.44-21.49,6.44-32.28.87-4.65,2-7.67,8-8.23s7.81,1.94,9.29,6.47a19.6,19.6,0,0,0,1.72,3.18c1.52,3.54,3.28,7,4.51,10.63C171.6,143.81,177,151.07,176.68,160.12Zm-20-27.87-1.31.06c-.42,2.58-.79,5.16-1.26,7.73-.22,1.18-.8,2.61.68,3.07a6.34,6.34,0,0,0,3.49-.46c1.6-.54,1.13-1.91.79-3C158.36,137.15,157.51,134.71,156.71,132.25Z"/><path class="cls-1" d="M359.07,152.89c3.24-2.56,7.09-.84,10.6-1.5,1.35-.25,3.1.46,3.84-1.31.67-1.61-.32-2.78-1.42-3.83a4.16,4.16,0,0,0-.52-.51c-12.83-7.14-10-18.24-7.6-29.37.61-2.78,1.74-4.31,4.61-4.79,4.09-.68,8.13-1.71,12.22-2.47,2.31-.43,4.81-1.4,5.89,2.19.89,2.94.83,5-2.2,6.74-3.49,2-7.53,3.49-8.84,8.21-.9,3.23-1,5.64,2.31,7.37a31.62,31.62,0,0,1,3.59,2.55c8.47,6.12,9.48,9.85,5.4,20-1.7,4.22-10.5,7-17.46,5.55-3.11-.65-6.23-1.23-9.34-1.83Z"/><path class="cls-1" d="M137,7.18l1.71,2.87c-.64,4.63-2.43,7.77-8,6.82-2.52-.43-4,.59-4,3.67S127.78,25,131,24.73a24.86,24.86,0,0,1,4.36.38l.51,2.57c.4,2,.79,3.93,1.18,5.89l-3,1.62c-3.1.09-7-1.94-7.08,4.18-.08,5.71,2.91,5.7,7,5.28,2.92-.3,5.88-.25,8.82-.36l-.21-.09c2,9.31,2,9.19-6.94,10a159.14,159.14,0,0,0-17.44,2.33c-3.83.79-4.65-.39-4.66-3.9,0-5.86-.4-11.72-.64-17.59l-.15-4.38q-.48-11.81-.95-23.61L115,6.36Z"/><path class="cls-1" d="M280.33,116.05l.57-3.1.28-.13,4.55-.09c4.63.22,9.32.06,13.86.79,2.57.42,7.13-2,7.35,3.32.2,4.73-2.2,7-7.18,6.28-1.91-.28-4.12-.08-4.06,2.82,0,1.66-.63,4,1.1,4.65,2,.69,4.34.18,6.53.2l0,0c.74,2.44,1.48,4.89,2.23,7.33-.24,1-.48,2.07-.71,3.1-3.16,1.1-8.73-3.27-9,4.5-.26,8.06,5.33,4.75,9,5.21,2.41.3,4.85.33,7.27.49l0,0c-.05,2.88-.09,5.76-.14,8.64l.07,0c-7.77.76-15.66.89-23.25,2.5-5.74,1.21-6.38-.64-6.52-5.56C281.92,143.31,281,129.68,280.33,116.05Z"/><path class="cls-1" d="M526.24,155.19c-.93-3.14-1.72-6-6.3-5.23-4.32.7-8.24,1-8.93,6.55-.31,2.43.06,5.77-4.08,5.69-4.31-.09-9.43.93-6.87-6.58.77-2.22.47-4.81.66-7.23v-2.88c3-7.92,4.45-16.28,5.89-24.55.6-3.47,1.84-4.59,4.83-4.93,5.18-.59,10.16-1.13,11.89,5.77.56,2.25,2.29,4.21,3.48,6.31l-.07-.05c.25,3.54,2.35,6.23,4.15,9.06l0,.11q3.18,8.06,6.37,16.11a.73.73,0,0,0,.26.95c-.27,2,2.33,4.93-1.61,5.85-2,.46-4,2.45-6,.4a40.64,40.64,0,0,1-3.68-5.24Zm-8.72-23.67c-2.46,3.45-1.86,6.54-2.57,9.32-.46,1.81.18,3,2.23,2.22,1.22-.44,4,.71,2.94-2.55C519.23,137.75,518.5,134.94,517.52,131.52Z"/><path class="cls-1" d="M511.36,28.92c0-2-.08-3.92,0-5.88.18-3.83-.6-7.79,6-7.13,5.37.53,8,1.46,7.14,7.59s-.93,12.2-1.3,18.31c-.21,3.42.29,6.53,4.57,6.95s6.44-1.51,6.61-5.82c.29-7.1.7-14.21-.87-21.23-.72-3.22.76-4.6,3.83-4.61,2.43,0,5.74-1.87,6.27,2.56,1,8.73,2.61,17.48.14,26.24S537.14,57,524.83,56.36C516.26,55.93,514,54,512.57,45c-.86-5.31-1.19-10.7-1.76-16Z"/><path class="cls-1" d="M104.62,24.74c-3.42,8.56-7.16,17-10.16,25.71-2.6,7.52-8.69,5.36-13.9,6S76,52.52,75,49.68c-2.53-6.81-4.88-13.7-7.3-20.55q-2.18-6.6-4.36-13.19l1.61-1.49c4.16.85,8.45-.89,12.59.61l.3-.67-.33.65C78.39,19.34,79,23.73,81,27.7l.69,3.17c1,3.27,1.91,6.53,3.31,11.33C88.36,35.47,90.6,30.42,91.78,25l-.1.11c.94-2.17,2-4.29,2.77-6.52.9-2.62,2.17-3.22,5.21-3.3C108.69,15,106,20.05,104.62,24.74Z"/><path class="cls-1" d="M210.74,123.38a.44.44,0,0,0-.29.69l-4.35,2.2.05,0a14.47,14.47,0,0,0-8.1,6.17.52.52,0,0,0-.49.64l-.93,1.17-.25.29c-5.08,7.92-4.62,11.62,2.16,17.23v-.06c1.54,1.72,3.6,1.25,5.47,1.12,1.62-.11,3.77-.18,3.52-2.65s-2.67-1.44-4.07-2.09c.55-3.3-1.58-6.95,1.3-9.94,5.61.35,12.3-1.49,13.72,7.09,1.82,10.92-4.73,18.35-15.78,17.66a26.42,26.42,0,0,1-15.61-5.69l-1.22-1.56c-5.09-9.7-3.74-19.38.06-29.05l-.13.09c.4-.61.79-1.22,1.18-1.84l0-.06c1.86-1.86,3.6-3.87,5.61-5.54C200.9,112.33,206.54,113.67,210.74,123.38Z"/><path class="cls-1" d="M436.49,10.06c6.07-1.84,6.08,4,8.19,7.47,1.34,2.19,1.56,5.95,4.45,6.07,2.43.09,2.95-3.48,4.39-5.36,1.19-1.55,2.09-3.32,3.19-4.93,2.08-3.05,5.06-1.63,7.34-.86,3.48,1.18.94,3.63.27,5.38a29.56,29.56,0,0,1-3.56,7.24C455,32.7,454.9,41.49,455.51,50.3s-5.91,5.5-9.94,6.41c-5.25,1.19-5.64-2.26-5.36-6,.91-12-2.78-22.51-9-32.58C426.44,10.47,426.85,10.22,436.49,10.06Z"/><path class="cls-1" d="M212.8,24.18c2.11-3.17,4.52-6.21,6.26-9.59,2.08-4,5.34-3.28,8.14-2.08,3.68,1.57.88,4.25-.08,6-5.77,10.37-9.94,20.9-8.69,33.3.75,7.55-6.21,3.87-9.74,4.85-4.2,1.17-5.67-1.29-5.31-5.28,1.1-12.46-2.66-23.55-9.35-33.92-1.23-1.9-4.22-4.24-1.35-6.82,2.37-2.12,11.73-.23,13.09,2.28,1.85,3.43,3.58,6.93,5.42,10.36C211.38,23.61,212,23.73,212.8,24.18Z"/><path class="cls-1" d="M603.58,16.31c1.22,4.14-.89,5.73-4.67,6.39a14.35,14.35,0,0,0-5.43,2.13c-4.36,2.94-8.52,6.51-7.54,12.38.94,5.63,6.33,5.89,10.5,6,7,.16,5.82,4.62,5.85,9,0,6.27-4.13,3.88-7.1,3.54-4.55-.52-9.12-.43-13.38-3.15-10.72-6.87-9.26-17-7.22-26.85,1.71-8.23,8.16-12.36,16.07-14.23,1.9-.46,3.87-.68,5.73-1.27C602.06,8.43,604.94,9.84,603.58,16.31Z"/><path class="cls-1" d="M397.53,31.88a1.09,1.09,0,0,0,1.05.47c5.53,7.56,4.09,14.76-1.13,21.76l0,0c-9,3.93-18,3.92-25.51-2.47-7.9-6.71-7.21-16.24-4.77-25.19S375.06,11,384.94,8.94c4.48-.93,5.85,1,7.62,4.42,2.24,4.36-.88,4.92-3.35,6.23-5.8,3.09-10.24,7.4-12.47,13.74-1.61,4.58.64,8.2,3.32,11.36,2,2.41,5.27,2.39,8.23,1.79,2.32-.48,4.1-2.67,1.49-3.77-4.9-2.05-3.27-6.06-2.74-8.62.78-3.79,4.95-1.43,7.57-2.1A13.46,13.46,0,0,1,397.53,31.88Z"/><path class="cls-1" d="M572.56,163.12l-2.8,1.67c-7-1.22-14-2.18-21-1.71-4.35.28-5.22-1.34-5.18-5.39.14-13.38-.17-26.76-.3-40.14a11.45,11.45,0,0,1,2.68-1c11.56-1.09,11.53-1.08,11.06,10.31-.13,3.15-.1,6.31,0,9.46.31,15.29.32,15.29,15.67,15.08Q572.6,157.29,572.56,163.12Z"/><path class="cls-1" d="M253.91,55.37c-6.71,2-9.49-.06-9.16-7.49.35-8-.61-16.09-.85-24.14-.09-3.15-.8-5.22-4.6-4.62-3.41.53-5.43-.09-4.92-4.55.47-4.18,2.08-5.2,6-4.81a83.13,83.13,0,0,0,16.07.45c7.53-.72,9,2.52,7.07,8.86-6.2-1.28-8.5.55-8,7.47C256.36,36.12,257.44,45.94,253.91,55.37Z"/><path class="cls-1" d="M71.47,142.72c0-4.39,0-8.78,0-13.17,0-3-1.07-6.81,4.37-6,3.79.57,8.62-1.13,8.31,5.87-.42,9.25-.28,18.54,0,27.81.17,6.2-4.23,5.29-7.94,5.74-4.68.58-4.24-2.65-4.22-5.61,0-4.88,0-9.76,0-14.64Z"/><path class="cls-1" d="M309.34,55.63c0-9.91.05-19.82,0-29.73-.06-9.3-.1-9.32,9-8.28a22.92,22.92,0,0,1,3.47.95l.5,1.73c-.1,8.69-.79,17.43-.11,26.05.63,8-2.41,11-10,10.61Z"/><path class="cls-1" d="M70.63,113.06c.31-6.82,6-5.57,9.65-6.13,5.38-.84,3.77,4.31,3.76,6.7,0,6.91-6.81,5.19-10.36,6S72.09,115.17,70.63,113.06Z"/><path class="cls-1" d="M340.44,109.2c2.11-.6,4.21-1.6,6.35-1.69,2.37-.09,6-3.3,6.84,2.06.6,3.79,1.78,6.59-3.84,8.92-10.58,4.4-7.76-4.06-9.52-8.34A.79.79,0,0,0,340.44,109.2Z"/><path class="cls-1" d="M578.38,151.39c10.61-1.49,11.76-.45,9.08,8.19-1.74,5.64-6.49,2.26-9.76,3.28Q578,157.13,578.38,151.39Z"/><path class="cls-1" d="M322.08,10.79c-1.65.39-3.32,1.19-4.94,1.09-2.63-.16-6.3,5.36-7.83-1.13C308.17,5.92,308,1.42,315,1.13A36.8,36.8,0,0,0,320.67,0h0l1.92,8.54C322.43,9.29,322.25,10,322.08,10.79Z"/><path class="cls-1" d="M20.84,10.18c-2.75,3-1.34,9.23-7.09,10.26-1.74.31-4.35-1.17-3-3.66,1.93-3.63,1-9,5.9-10.65A3.57,3.57,0,0,1,20.84,10.18Z"/><path class="cls-1" d="M10.5,5.66C7.59,8.56,9,14.81,3.4,16c-1.58.32-4.4-1.24-3-3.71,2-3.61.91-9.16,5.93-10.66A3.58,3.58,0,0,1,10.5,5.66Z"/><path class="cls-1" d="M600.61,107.34c.91,1.88,5.56,1.23,3.49,5.09-1.82,3.39-2,8-5.52,9.95-1.36.74-5.78-.35-3.92-4.66q2.3-5.32,4.58-10.67A2.61,2.61,0,0,0,600.61,107.34Z"/><path class="cls-1" d="M610.89,126.17c-5.41,1.46-7.93-.21-5.07-5.62,1.48-2.8.21-9.28,5.91-7.54,7.41,2.27.07,6.45.25,9.79a6.61,6.61,0,0,1-.61,2.06A1.33,1.33,0,0,0,610.89,126.17Z"/><path class="cls-1" d="M225.46,163c-1.51-11.68-.8-23.45-1.3-35.18-.12-3,.58-5,4-4.2,3.12.72,8.34-2,8.54,4,.36,10.28.76,20.63-.09,30.85-.57,6.77-7.18,3.55-11.2,4.53Z"/><path class="cls-1" d="M222.57,108.89a52.13,52.13,0,0,0,7.08-1.54c4.06-1.5,5.95-.24,7,3.89,1.18,4.41-.67,5.56-4.49,7.15-11.69,4.87-7.26-5.57-9.6-9.55Z"/><path class="cls-1" d="M341.55,142.63c0-4.15-.25-8.33.1-12.46.21-2.53-2.32-7,3.64-6.58,4.15.32,9.15-1.16,8.82,6.14-.41,9-.27,18.08-.17,27.12.06,5.61-3.57,5.86-7.74,6.12-5.4.32-4.19-3.45-4.25-6.41-.09-4.64,0-9.28,0-13.93Z"/></g></g></svg>