<svg xmlns="http://www.w3.org/2000/svg" viewBox="0 0 597.95 170.21"><defs><style>.cls-1{fill:#463f3a;}</style></defs><g id="Capa_2" data-name="Capa 2"><g id="Capa_1-2" data-name="Capa 1"><path class="cls-1" d="M252.67.58C257.56-1,259.13.76,259,5.81c-.25,13.57-.11,27.15,0,40.72,0,5.89-.28,12,8.4,14.46l-21.6,11.69c-4.39-5.14-7.75-1.7-11.66,1A18.64,18.64,0,0,1,213.93,75c-6.21-3.28-7.58-9.48-7.78-16-.61-20.35,11.94-34.52,31.41-34.5,5.23,0,4.65-2.13,4.32-5.53-.4-4.12-3.72-6.07-6.56-9.09ZM242.38,48.09c0-3.69-.13-7.39,0-11.08.18-3.87-1-6.73-5-7.68-3.87-.91-7.29-.24-9.94,3.06-4.53,5.66-5.57,21.68-1.73,27.81,2.77,4.43,6.81,5.63,11.77,4.74,5.61-1,5-5.2,4.92-9.19C242.34,53.2,242.37,50.64,242.38,48.09Z"/><path class="cls-1" d="M92.2,99.24l-5.11.6-24.2.16-.74-.24-.74.2a1.13,1.13,0,0,0-1.07-.23C67.22,91,68.5,80.76,67.92,70c-.39-7.16-.67-14.28-8.31-19.31,6.44-2.59,12-4.61,17.37-7,4.83-2.2,8.28-2.37,8.07,5.27,4.94-3.86,9.26-6.48,14.34-7.44,10.08-1.9,15.44,1.64,16.43,11.87.75,7.88.12,15.9.59,23.82.38,6.44.39,13.33,10.41,17.17-11.86,3.76-21.76,3.17-31.21,5ZM84.31,70.41a58.3,58.3,0,0,0,1.51,18.72c.9,3.41,2.7,6.9,6.65,6.77,3.47-.12,5.12-3.57,5.86-6.56a77.25,77.25,0,0,0,.84-32.11c-.62-3.57-2.22-7.75-6.91-7.29s-7.51,3.87-7.89,8.65C84.07,62.26,84.31,66,84.31,70.41Z"/><path class="cls-1" d="M58.07,70.08C58.17,82.6,53,92.27,43.53,95.79,31.65,100.21,20.87,97,12.16,88.51,1.14,77.77-2.14,64.27,1.3,49.35,3.23,41,8.87,35.88,17.39,35.16,34.36,33.73,58,44.14,58.07,70.08ZM40.62,67.87c-.4-7.27-.71-15.27-4.87-22.34-4-6.86-10.2-7.47-14.1-1.66C15.7,52.73,16.7,80.56,23.27,89c4.69,6,10.67,5.54,13.94-1.37C40.05,81.61,40.52,75.08,40.62,67.87Z"/><path class="cls-1" d="M202,152.22c-4.93,9.38-15.57,14.36-23.09,10.68-3.53-1.72-5.38-1.06-8.19.71a49.1,49.1,0,0,1-10,4.63c-5.35,1.87-10.35.86-13.61-4s-2.13-9.86,1.08-14.35c4.84-6.8,12.15-10,19.63-12.84,5.38-2.07,7.4-13.61,3.23-17.65a3.1,3.1,0,0,0-3.82-.68,7.61,7.61,0,0,0-4.71,7.54c.83,9.35-6,9.45-12,10.55-4.25.77-4.74-1.52-4.15-5,2.16-12.49,25.66-23.92,36.79-17.78,4.65,2.56,6.74,6.86,7.12,11.94.43,6,.62,11.92.81,17.89C191.23,150.63,191.23,157.48,202,152.22ZM173.81,148c-1.71-2,2.93-8.57-2.94-8.39-5.39.17-9.34,5.17-9.48,11.26-.11,4.48,2.2,7.69,7.2,7.33C174.58,157.8,174.61,153.47,173.81,148Z"/><path class="cls-1" d="M322.46,149.91c-7,9.65-17.29,12.13-24.56,6.77-3.42-2.53-5.66-2.48-9-.91a20.43,20.43,0,0,1-11.68,1.5c-6.9-.94-11.55-4.74-12.8-11.72s2.51-11.5,8.62-13.89c3.9-1.52,8.2-2,12.29-3.11,2.45-.65,6.59,1.15,6.76-3.1.2-5,1.52-11.21-3.05-14.38-4.86-3.37-6.78,1.21-7.63,5.4-1.4,6.88-8.26,9.85-14.61,6.49-2.39-1.27-2.28-3.16-1.84-5a12.29,12.29,0,0,1,5-7.7c8.91-5.94,18.69-6.84,28.46-3.16,8.94,3.37,11.17,11.3,11.29,20.1.07,4.82.52,9.64.64,14.46C310.5,148.32,311.2,154.31,322.46,149.91Zm-29.3-9.15c-2.14-2.41,3.23-9.13-4.39-9-5.57.1-8.7,4-8.46,9.59.22,5.37,3.77,8.31,8.9,8.2C295.2,149.43,292.88,144.58,293.16,140.76Z"/><path class="cls-1" d="M174.4,73.12c-6,15.46-25.58,23.67-38.48,17.47A17.94,17.94,0,0,1,127,80.75c-8.91-21.61,10.41-47.27,33.58-44.64,9.61,1.09,17.37,10.64,17.06,20.34-.12,3.73-2.42,4-4.88,4.52-8.08,1.55-16.15,3.2-24.29,4.38-4.73.69-5.46,2.55-3.86,6.83,3.3,8.82,13.89,12.12,22.65,6.64C169.39,77.48,171.24,75.67,174.4,73.12ZM147.66,61.73c10.85-.35,16.62-4.32,15.93-11.25-.53-5.25-3.1-9.23-9.09-9.15C148.29,41.4,143,49.67,143.22,58,143.3,61.6,144.76,62.4,147.66,61.73Z"/><path class="cls-1" d="M315.9,44.74c-.09,2-.16,4-.28,5.94-.44,6.91,1.1,11.74,10.32,8.21-4.92,7.48-15.21,10.8-22.5,6.77-4.22-2.33-7.15-1.59-10.87,0-4.46,1.92-9.11,3.23-14.07,2-4.11-1-7.35-3.16-8.56-7.43a10.7,10.7,0,0,1,3.41-11.58c5.06-4.52,11.16-6.5,17.77-7.45,6.94-1,10-9.05,6-15a4,4,0,0,0-4.26-2c-3.4.49-4.53,3.22-5.34,5.95s.54,6.63-4.11,7.1c-4.08.42-9.42,2.74-11.68-1.46s1.79-7.79,5.21-10.51c6.41-5.08,14.23-5.14,21.81-6l1.72.12c7.93,2.22,14,6.33,15.38,15.19Q315.88,39.63,315.9,44.74ZM298.33,51c-1.45-2,3.08-7.89-3.52-7.49-5,.31-9,3.6-9.25,9.25-.21,4.87,3.09,7.07,7.52,7.17C299,60,298.64,55.68,298.33,51Z"/><path class="cls-1" d="M517.91,138.56c3.49-15.17,13.28-23.23,28.47-25,6.52-.77,12.46.85,17.19,5.6,4.21,4.23,7,10,5.91,15.35-1.05,4.91-7.5,3.53-11.68,4.38-5.84,1.2-11.75,2.15-17.67,2.8-4.26.47-4.25,2.35-3,5.69,4,10.87,17.21,13.46,26.6,5.09,2.93-2.62,2.93-2.62,4.41-.28-7.6,10.15-17.35,16.1-30.41,15.57-16.22-5.14-19.92-10.59-19.77-29Zm21.93-.52c11.32-.16,16.24-3.21,15.73-10-.45-5.87-3.77-9.52-9.85-9.53-5.57,0-10,6.78-10.06,14.68C535.62,136.25,535.5,139.15,539.84,138Z"/><path class="cls-1" d="M336.65,21.89c2.5.48,5,1,7.5,1.44,3.46.6,4.64.86,4.46,6-.34,9.48,7.57,16.6,12.17,26.73,4.22-9.43,13.46-15,8.12-27.4l19.31,6.65c-9.46,1.76-14.56,8-19.21,14.76-6.43,9.34-12.88,18.67-19.06,28.17C344,87.33,336.24,92.38,325.05,91c-3.61-.46-7.29-1.74-7-5.88.28-4.39,4-5.8,8.11-5.72a20.08,20.08,0,0,1,4.16.79c9.48,2.3,15.06-.65,19-9.8.85-2,1.18-3.63,0-5.56C341.93,53,335.86,40.45,327.2,29.46c-2.83-3.58-8.2-3.95-9.72-8.72l17.06.76,1.71.29Z"/><path class="cls-1" d="M219.65,92.34a19.93,19.93,0,0,1,.39,4.11c-.73,7.3,1.36,11.29,9.72,9.35,2-.47,5.46-1.76,5.87,2.5s-3.1,3.57-5.26,3.41c-8.6-.64-10.61,3.42-9.33,11.21.86,5.28.52,10.76.71,16.15.46,12.85.66,13,13.14,10.11-4.19,8-15.46,12.49-23.25,9.3-5.14-2.1-5.79-6.84-6.13-11.3-.63-8.49-.62-17-1-25.54-.18-4,1.4-9.45-8.16-6.93,10.4-7,15.88-15.27,21.47-23.39Z"/><path class="cls-1" d="M391.48,88.61c3.64-1,7.24-1.49,10.6.85,4.34,3,5.25,7.34,3.8,12-1.17,3.76-4.35,5-8.14,4.58-4.72-.59-7.83-3.12-8.67-8a13.5,13.5,0,0,1,1.7-9A.61.61,0,0,0,391.48,88.61Z"/><path class="cls-1" d="M583.44,142.82c4.14-1.41,8.57-5,12.39-.13,4.07,5.16,1.63,10.13-1.83,14.68h0l-1.91,1.14a2.14,2.14,0,0,0-1.48.75l-6.83-.06-3.33-3.52a19.48,19.48,0,0,1,2-11.9A1,1,0,0,0,583.44,142.82Z"/><path class="cls-1" d="M467.35,170.1l-47.56-2.93c11.72-10.74,7.76-22.89,6.35-34.54a7.53,7.53,0,0,0-5.95-6.53c-.14-1-.28-1.94-.41-2.91l15.37-4.88c4.41-1.39,9.72-4.68,8.34,4.89,16.1-9.28,23.93-8.41,31.72,3,4.94-3.72,10-7.1,16.28-8.35,10.23-2.06,16,1.72,17.18,12,.85,7.6.91,15.28,1.56,22.91.49,5.78,1.7,11.34,9,14.15-6.58,4.08-13.06,1.33-18.72,3.22Zm26.11-22.51c-.51-5.59.68-11.43-2-16.7-1.55-3.08-3.78-6-7.81-5.28-3.5.61-7.09,2.76-7.32,6.2-.68,10.11-1.25,20.35,2.5,30.13A7.38,7.38,0,0,0,486,167c3.22-.16,5.32-2.71,6.38-6C493.77,156.61,493.35,152.1,493.46,147.59Zm-33.64-2.35c-.76-5.27.54-10.82-2.09-15.84-1.52-2.9-3.61-5.29-7.21-4.94-3,.29-6,2.16-6.23,5-.69,11-1.37,22.09,3.13,32.59,1.08,2.51,3.28,4.3,5.94,4.11,3.13-.22,4.87-2.77,5.58-5.68A44.87,44.87,0,0,0,459.82,145.24Z"/><path class="cls-1" d="M343.21,113.89c9-4.17,14.17-11.42,19.54-17.77,2.95,1.18,2.63,3.15,2.43,4.68-1,7.76,1.75,11.63,10.06,10.94,2.21-.19,5.74-.5,5.6,3.39-.19,5-4.26,3-6.41,2.59-7.34-1.33-9.48,1.17-8.26,8.45.92,5.54.51,11.3.66,17,.36,13.35.35,13.35,14.1,12.7-5.26,7.44-12.19,7.82-19.59,6.72-7.12-1.05-10-5.89-10.43-12.46-.57-9-1-18.09-1.18-27.15C349.63,118.48,349.73,114.29,343.21,113.89Z"/><path class="cls-1" d="M388.22,126.31,384,121.39c.64-.62.94-1.16,1.37-1.3,21.93-7,21.89-7,22.66,16.18.18,5.35-.39,10.81,1.57,16,0,1.87-.17,3.78,1.37,5.24-.08,4,4.34,4.82,6.31,9-11.34-.42-21.89-.59-33.71-3.29,8.23-5.27,8.95-12.17,7.8-19.68C391.15,137.67,392.55,131.46,388.22,126.31Z"/></g></g></svg>