<svg xmlns="http://www.w3.org/2000/svg" viewBox="0 0 367.16 364.94"><defs><style>.cls-1{fill:#f4f3ee;}.cls-2{fill:#463f3a;}</style></defs><g id="Capa_2" data-name="Capa 2"><g id="Capa_1-2" data-name="Capa 1"><path class="cls-1" d="M176.16,179c-1.26,2.44-2.22,4.36-3.25,6.24-.66,1.19-1.46,2.36-3.06,2.09s-2.1-1.53-2.52-2.82a12,12,0,0,1-.13-7.36c.28-.94,1.31-2.51,1.64-2.1,2.71,3.38,5-.29,7.44-.22s2.39,2.46,3.63,3.57c1.47,1.32,3,7,5.61.63.27-.65.89-2.05,2.11-1.5s1.51,1.49.69,2.84c-1.17,1.92.43,5.42-3.24,5.93-3.12.44-4.83-1.7-6.46-3.87C177.93,181.51,177.28,180.57,176.16,179Z"/><path class="cls-1" d="M133.35,183.48a6,6,0,0,1,2.7-4.24c1.9-1.32,4.25-1.86,4-5.25-.1-1.72,2.2-1.27,2.78.09,2.07,4.84,2.28,10.25,4.47,15.13.58,1.3-1.2,2.16-2.15,1-2.1-2.6-3.91-1.5-6.3-.46C135.92,191,133.31,188.47,133.35,183.48Z"/><path class="cls-1" d="M164.3,135c-1.29,2.55-2.26,4.65-3.4,6.65-1,1.71-2.36,2.32-4.05.81s-2.27-9-.75-10.92c.41-.51.89-1.14,1.6-.72a2.37,2.37,0,0,1,1.16,1.41,34.67,34.67,0,0,1,0,4.12c.5-.37,1-.56,1.2-.92,3.83-6.62,4.69-6.65,8.81-.5.86,1.29,1.29,3.5,3.37,3.11,1.68-.31,1.6-2.31,2.11-3.66.39-1.05.41-2.29,1.75-3.19,2.16,3.88,2.09,8.09-1.32,10.11C169.15,144.65,167.69,138.21,164.3,135Z"/><path class="cls-1" d="M233.79,179.13c-1.06,2.21-1.84,4-2.79,5.73-.71,1.28-1.47,2.84-3.3,2.48-1.65-.33-2.28-1.83-2.69-3.29a12.05,12.05,0,0,1,0-6.39c.32-1.22.53-2.92,2.34-2.61,2,.34,1.18,1.95,1,3.19-.1.8-.17,1.61-.25,2.35,1.13.54,1.18-.28,1.45-.78,3.58-6.72,5.07-6.77,9.12-.4.77,1.2,1.18,3.14,2.91,3.05,1.9-.11,1.67-2.15,2.15-3.48s.9-2.42,1.64-4.39c2.14,4.42,2.38,8.84-.89,10.83C238.82,188.83,237.3,182.29,233.79,179.13Z"/><path class="cls-1" d="M103.46,139.86a16.05,16.05,0,0,0,3.86-7.44c.35-1.25.42-2.92,2.16-2.88s2,1.59,2.13,2.93a28,28,0,0,0,2.55,9.09c.5,1,1.16,2.35-.27,3s-2.13-.65-2.77-1.57a36.8,36.8,0,0,1-2-3.51c-2,.48-1.93,2.55-3,3.68s-2.05,2.38-3.76,2-2.23-1.91-2.52-3.41a29.72,29.72,0,0,1-.17-9.46c.13-1,.49-2.07,1.75-2s1.56,1.11,1.61,2.17C103.12,134.73,102.22,137,103.46,139.86Z"/><path class="cls-1" d="M205.73,231.84c-.11,4.7,0,8.46-3.2,11.11-1.58,1.3-3.28,2.45-5.4,1.05-.82-.54-1.8-1.08-1.5-2.31.26-1.08,1.25-.83,2-.87,4.6-.26,4.13-4,4.72-7,.71-3.54-2.06-2.79-4.06-3.22a3.39,3.39,0,0,1-2.86-4c.44-2.62,2.38-4,4.85-4.37,1.89-.32,3.85-.13,4.32,2.24C205.17,227.22,205.47,230,205.73,231.84Z"/><path class="cls-1" d="M172.9,225.46c.18-3.19,1.23-5.58,4.37-6.06s5.53.35,6.5,3.81c.69,2.49,1.11,5.32,4.47,5.86a1.08,1.08,0,0,1,1,1.43c-.33.65-1.36,1.63-1.71,1.49-3.68-1.46-7.19.37-10.67.31S173.56,228,172.9,225.46Zm6.61,0c-.1-1.09.54-2.89-1.31-3.07s-1.89,1.59-2,2.9-.25,3.08,1.39,3.25C179.43,228.73,179.18,226.83,179.51,225.45Z"/><path class="cls-1" d="M216.5,219.19c2.36.37,4.4.84,5.2,3.34.88,2.77,1.2,6,5,6.67.7.13.9.92.59,1.6a2.43,2.43,0,0,1-3.35,1.27c-2.44-1.28-4.57-2.09-6.76.37a2.18,2.18,0,0,1-1.88.16c-4.22-1.54-4-5.19-3.87-8.67C211.55,220.72,213.66,219.39,216.5,219.19Zm1.19,6.35c-.11-1.21.44-3-1.41-3.06-1.6,0-1.76,1.7-1.75,3s-.29,3.07,1.44,3.11S217.36,226.73,217.69,225.54Z"/><path class="cls-1" d="M90,181.09c.17-2.72,1-5.46,4.44-5.93,3-.4,5.46.55,6.51,3.93.75,2.39.91,5.39,4.42,5.87,1,.13,1.21,1,.7,1.92a2.47,2.47,0,0,1-3.45,1c-2.27-1.34-3.88-1.65-6.46,0C93.15,189.86,90.06,186.38,90,181.09Zm6.59.25c-.05-1.2.59-3-1.37-3s-1.75,1.74-1.83,2.94-.3,3.06,1.45,3.12S96.3,182.6,96.54,181.34Z"/><path class="cls-1" d="M112.4,187.61c.65-1.77-.62-5.3,2-5.35,3.65-.06,7-4.41,10.73-.93,2.66,2.49,3,5.85,2.33,9.27-.24,1.31-.79,2.86-2.47,2.52-1.46-.31-1.09-1.82-1-3a2.85,2.85,0,0,0,0-.5c-.27-2,.93-5-1.89-5.48s-4.2,2.11-5.14,4.55c-.63,1.61-.66,4.25-3.11,3.73S112.55,189.47,112.4,187.61Z"/><path class="cls-1" d="M257.54,233.3c-.32-1.83.65-4.5-1.92-5.05s-3.84,1.59-4.89,3.53c-.63,1.15-.87,2.52-1.45,3.7s-1.78,1.78-2.86.81c-1.77-1.59-.76-3.76-.64-5.66.1-1.57-.13-4.26,1.69-4.16,2.62.15,4.31-1.46,6.49-2,3.15-.72,5.19.81,6.15,3.65,1,3,1.66,6.15-.54,9a1.41,1.41,0,0,1-1.36.26C256.67,236.31,257.69,234.7,257.54,233.3Z"/><path class="cls-1" d="M132.49,144.34c-.26-1.12,1-4.14-1.89-4.58-2.43-.38-4.13,1.76-5,4.09a27.18,27.18,0,0,1-1.15,3.29c-.72,1.35-1.84,2-3.16.63s-.32-9.51,1.37-9.55c2.52-.06,4.28-1.71,6.52-2.12a5,5,0,0,1,6,3.38c1.15,3,1.84,6.1-.18,9a1.78,1.78,0,0,1-1.73.32C131.78,147.91,132.71,146.43,132.49,144.34Z"/><path class="cls-1" d="M147.27,228.58c2.64-.54,2.74-5.46,5.54-3.23,2.35,1.88-.68,4.08-1.65,6A51.19,51.19,0,0,1,143.89,242c-.71.81-1.5,2.1-2.84,1.11A2,2,0,0,1,141,240c3.68-3.64,4.39-7.71,2.5-12.5-.46-1.17-1.09-3.4.9-3.73,1.68-.27,2.16,1.66,2.42,3.18A14.28,14.28,0,0,0,147.27,228.58Z"/><path class="cls-1" d="M108.48,221.52a17.43,17.43,0,0,1,0-3c.3-1.82-.6-4.86,1.95-4.95,3.07-.12,1.74,2.8,1.74,4.59,0,.71.11,1.49.81,1.6,6,.92,4,2,.44,4.31-2.72,1.73-1.32,4.81.81,5.84,1.77.87,2.68,1.34,1.64,3-1.18,1.86-2.92,1.22-4.33.15-2.84-2.16-2.9-5.41-3.1-8.56-.06-1,0-2,0-3Z"/><path class="cls-1" d="M267.43,130.73c-7.06,3.39.64,5,1.12,7.65.57,3-4.08,8.11-7.1,7.39a2.82,2.82,0,0,1-2.34-2.32c-.15-1.15.89-1,1.68-1.25,4.63-1.26,4.77-3.37,1.19-6.28-1.62-1.33-2.71-3-1.36-5.19a4.2,4.2,0,0,1,4.68-2C266.28,128.87,267.27,129.18,267.43,130.73Z"/><path class="cls-1" d="M89.4,133.36c5.51,5.68,5.61,8.57.41,11.61-1.7,1-3.64,1.67-4.79-.37-1.62-2.88,1.44-2.06,2.55-2.69,2.93-1.67,2.64-3.41.29-5.33-1.75-1.43-3.18-3-2.14-5.52a3.89,3.89,0,0,1,4-2.44c1.14,0,2.47.15,2.78,1.56C93,132.65,89.74,131.62,89.4,133.36Z"/><path class="cls-1" d="M274.44,137.53c.4-2,.59-4.36,3-5.07a4,4,0,0,1,4.62,2.08c1.22,2,.69,3.63-1.23,5.1-2.94,2.26-.8,3.14,1.28,3.89,1,.36,2.63.28,2.05,2-.41,1.23-1.75,1.38-2.94,1.35C278,146.8,274.44,142,274.44,137.53Z"/><path class="cls-1" d="M194.62,181.63c.61-1.78.55-4.29,3.07-5a4,4,0,0,1,4.58,2.13c1.18,2,.61,3.68-1.27,5.13-2.94,2.27-.71,3.16,1.25,3.94,1,.38,2.66,0,2.08,1.85-.4,1.26-1.77,1.37-2.93,1.37C198.21,191,194.54,186,194.62,181.63Z"/><path class="cls-1" d="M277,191.19A92.27,92.27,0,0,1,274.61,170c0-.86.37-1.75,1.4-1.64a2,2,0,0,1,1.4,1.13c1.57,6.48,2.6,13,1.42,19.69C278.74,189.65,278,190.05,277,191.19Z"/><path class="cls-1" d="M199.74,138c-.42,3.05,1.13,7.35-1.59,7.56s-1.86-4.28-2.26-6.69a107.07,107.07,0,0,1-1-11.89c-.06-1.08-.28-2.64,1.31-2.77s1.79,1.38,2,2.47C198.8,130.56,199.27,134.51,199.74,138Z"/><path class="cls-1" d="M209.87,138.29c-.58,2.72,1.18,7.05-1.67,7.24-2.68.19-1.7-4.34-2.16-6.75a86.75,86.75,0,0,1-1-10.94c-.07-1.35-.67-3.49,1.41-3.64,1.93-.13,1.92,2,2.13,3.41C209.07,131.23,209.45,134.87,209.87,138.29Z"/><path class="cls-1" d="M264.56,173.38c0-.84,0-1.5,0-2.16.06-1.11-.36-2.6,1.18-2.9s1.79,1.14,2,2.26a69.71,69.71,0,0,1,1.54,16.79c0,1.06-.21,2.57-1.8,2.48-1.23-.07-1.3-1.38-1.41-2.3C265.53,182.78,265.05,178,264.56,173.38Z"/><path class="cls-1" d="M124.16,223.55c1.13,3.29,3.33,2.8,5.75,2,1.5-.5,3.26-.26,3.7,1.46.64,2.49-1.52,1.9-2.85,2.06-2.45.29-3.66,2-4.67,4-.53,1-1,2.19-2.51,1.89s-1.67-1.5-1.7-2.67C121.82,229.32,121.49,226.3,124.16,223.55Z"/><path class="cls-1" d="M228.72,140.8a36.6,36.6,0,0,1,.83-3.57c.18-.55.81-1,1.24-1.44,2.28,3.66,5.94.45,8.69,1.74a1.82,1.82,0,0,1,1.17,2c-.19.93-1,1.23-1.91,1.25-2.07,0-3.88.48-5.07,2.49-.84,1.44-1.18,4.14-3.57,3.26C228.11,145.79,228.77,143.39,228.72,140.8Z"/><path class="cls-1" d="M247.82,134c3.17,3.49,2,7.15,1.88,10.61a1.1,1.1,0,0,1-1.38,1.05,2.14,2.14,0,0,1-1.34-1.27C246.54,141.13,245.74,137.87,247.82,134Z"/><path class="cls-1" d="M236.78,229a16.49,16.49,0,0,1-.4,3.85c-.59,1.58-1.82,1.44-2.5.11a5.86,5.86,0,0,1-.52-3.38c.33-2.08-1.55-5.79,1.38-5.91C238,223.53,235.74,227.47,236.78,229Z"/><path class="cls-1" d="M255.57,184.59c0,1.66.05,2.65,0,3.64-.05.65-.23,1.34-1.06,1.44a1.56,1.56,0,0,1-1.8-1.3,7.53,7.53,0,0,1-.28-2.93c.34-2.08-1.59-5.75,1.31-5.89S255.14,183.21,255.57,184.59Z"/><path class="cls-1" d="M186.16,140.74c-.07,1.25-.06,2.25-.19,3.24s-.5,1.74-1.5,1.58c-.48-.09-1-.82-1.22-1.38a6.62,6.62,0,0,1-.51-2.91c.31-2.1-1.5-5.79,1.4-5.94C187.39,135.17,185.37,139,186.16,140.74Z"/><path class="cls-2" d="M40.17,187.58c-.05-16,0-29.8,3.44-43.32.59-2.28,1.23-4.46,3-6.22.79-.82,1.9-2,1.84-2.89-.7-10.71,7.59-17.64,11.47-26.32,4.62-10.32,12.34-19.2,21-26.85,6.75-6,13.73-11.7,20.65-17.48a30.24,30.24,0,0,1,11.82-6.1c6.13-1.65,11-6.06,16.65-8.92.88-.45,1.72-1.49,2.56-1.47,10.07.2,18.79-6.26,29.08-5.54,6.92.49,14-.13,20.91-.81,15.91-1.56,31.41,1.26,46.19,6.11,11.34,3.73,22.39,9.25,31.7,17.36,3.07,2.68,5.85,6.05,10.64,5.63a2.32,2.32,0,0,1,2.42,1.5c1.63,6,6.82,8.8,11.15,12.25,4.79,3.8,6.7,9.67,10.46,13.95,8.77,10,13,22.5,19.88,33.51,2.82,4.5,2.79,10.83,3.89,16.36q2.53,12.67,4.81,25.39c.68,3.8.17,7.62-.34,11.43-1.48,11-2.05,22.14-4,33.11-.74,4.15-2.83,7.75-4.27,11.55-2.76,7.33-4.65,15-9.54,21.67-2.74,3.75-4.51,8.5-7.14,12.66a44.64,44.64,0,0,1-6.94,8.2c-8.74,8.36-16.44,18-26.44,24.85-7.89,5.44-16,11.17-24.83,14.48-12,4.46-23.94,9.15-36.9,11.25a184,184,0,0,1-22.4,2.58c-12.39.49-24-3.94-36-5.48a17.88,17.88,0,0,1-10-4.11c-1.26-1.11-2.8-2.33-4.41-2.12-8.43,1.07-13.35-4.91-19-9.33-3.25-2.56-7.54-2-10.8-4.68-12.27-10-25.83-18.49-33.86-33A183.74,183.74,0,0,0,53,246.13c-3.65-4.87-5-10.38-6.32-16C43.21,215.37,38.27,200.88,40.17,187.58Zm136-8.58c1.12,1.57,1.77,2.51,2.46,3.43,1.63,2.17,3.34,4.31,6.46,3.87,3.67-.51,2.07-4,3.24-5.93.82-1.35.52-2.3-.69-2.84s-1.84.85-2.11,1.5c-2.59,6.34-4.14.69-5.61-.63-1.24-1.11-1.3-3.5-3.63-3.57s-4.73,3.6-7.44.22c-.33-.41-1.36,1.16-1.64,2.1a12,12,0,0,0,.13,7.36c.42,1.29,1,2.57,2.52,2.82s2.4-.9,3.06-2.09C173.94,183.36,174.9,181.44,176.16,179Zm-42.81,4.48c0,5,2.57,7.54,5.54,6.25,2.39-1,4.2-2.14,6.3.46.95,1.18,2.73.32,2.15-1-2.19-4.88-2.4-10.29-4.47-15.13-.58-1.36-2.88-1.81-2.78-.09.21,3.39-2.14,3.93-4,5.25A6,6,0,0,0,133.35,183.48Zm31-48.5c3.39,3.23,4.85,9.67,10.53,6.3,3.41-2,3.48-6.23,1.32-10.11-1.34.9-1.36,2.14-1.75,3.19-.51,1.35-.43,3.35-2.11,3.66-2.08.39-2.51-1.82-3.37-3.11-4.12-6.15-5-6.12-8.81.5-.2.36-.7.55-1.2.92a34.67,34.67,0,0,0,0-4.12,2.37,2.37,0,0,0-1.16-1.41c-.71-.42-1.19.21-1.6.72-1.52,1.91-1,9.33.75,10.92s3.07.9,4.05-.81C162,139.63,163,137.53,164.3,135Zm69.49,44.15c3.51,3.16,5,9.7,10.66,6.29,3.27-2,3-6.41.89-10.83-.74,2-1.2,3.17-1.64,4.39s-.25,3.37-2.15,3.48c-1.73.09-2.14-1.85-2.91-3.05-4-6.37-5.54-6.32-9.12.4-.27.5-.32,1.32-1.45.78.08-.74.15-1.55.25-2.35.17-1.24,1-2.85-1-3.19-1.81-.31-2,1.39-2.34,2.61a12.05,12.05,0,0,0,0,6.39c.41,1.46,1,3,2.69,3.29,1.83.36,2.59-1.2,3.3-2.48C232,183.15,232.73,181.34,233.79,179.13ZM103.46,139.86c-1.24-2.83-.34-5.13-.43-7.39,0-1.06-.41-2.08-1.61-2.17s-1.62.95-1.75,2a29.72,29.72,0,0,0,.17,9.46c.29,1.5.86,3,2.52,3.41s2.71-.86,3.76-2,1-3.2,3-3.68a36.8,36.8,0,0,0,2,3.51c.64.92,1.44,2.2,2.77,1.57s.77-2,.27-3a28,28,0,0,1-2.55-9.09c-.16-1.34-.46-2.89-2.13-2.93s-1.81,1.63-2.16,2.88A16.05,16.05,0,0,1,103.46,139.86Zm102.27,92c-.26-1.8-.56-4.62-1.1-7.38-.47-2.37-2.43-2.56-4.32-2.24-2.47.42-4.41,1.75-4.85,4.37a3.39,3.39,0,0,0,2.86,4c2,.43,4.77-.32,4.06,3.22-.59,2.92-.12,6.7-4.72,7-.78,0-1.77-.21-2,.87-.3,1.23.68,1.77,1.5,2.31,2.12,1.4,3.82.25,5.4-1.05C205.75,240.3,205.62,236.54,205.73,231.84Zm-32.83-6.38c.66,2.53.34,6.77,3.92,6.84s7-1.77,10.67-.31c.35.14,1.38-.84,1.71-1.49a1.08,1.08,0,0,0-1-1.43c-3.36-.54-3.78-3.37-4.47-5.86-1-3.46-3.47-4.27-6.5-3.81S173.08,222.27,172.9,225.46Zm43.6-6.27c-2.84.2-4.95,1.53-5.1,4.74-.16,3.48-.35,7.13,3.87,8.67a2.18,2.18,0,0,0,1.88-.16c2.19-2.46,4.32-1.65,6.76-.37a2.43,2.43,0,0,0,3.35-1.27c.31-.68.11-1.47-.59-1.6-3.77-.69-4.09-3.9-5-6.67C220.9,220,218.86,219.56,216.5,219.19ZM90,181.09c.11,5.29,3.2,8.77,6.16,6.85,2.58-1.69,4.19-1.38,6.46,0a2.47,2.47,0,0,0,3.45-1c.51-.87.27-1.79-.7-1.92-3.51-.48-3.67-3.48-4.42-5.87-1.05-3.38-3.52-4.33-6.51-3.93C91,175.63,90.12,178.37,90,181.09Zm22.45,6.52c.15,1.86-1,4.34,1.44,4.85s2.48-2.12,3.11-3.73c.94-2.44,2.29-5,5.14-4.55s1.62,3.49,1.89,5.48a2.85,2.85,0,0,1,0,.5c-.06,1.14-.43,2.65,1,3,1.68.34,2.23-1.21,2.47-2.52.63-3.42.33-6.78-2.33-9.27-3.7-3.48-7.08.87-10.73.93C111.78,182.31,113.05,185.84,112.4,187.61ZM257.54,233.3c.15,1.4-.87,3,.67,4.12a1.41,1.41,0,0,0,1.36-.26c2.2-2.85,1.57-6,.54-9-1-2.84-3-4.37-6.15-3.65-2.18.5-3.87,2.11-6.49,2-1.82-.1-1.59,2.59-1.69,4.16-.12,1.9-1.13,4.07.64,5.66,1.08,1,2.26.41,2.86-.81s.82-2.55,1.45-3.7c1.05-1.94,2.47-4.05,4.89-3.53S257.22,231.47,257.54,233.3Zm-125-89c.22,2.09-.71,3.57.71,4.49a1.78,1.78,0,0,0,1.73-.32c2-2.93,1.33-6,.18-9a5,5,0,0,0-6-3.38c-2.24.41-4,2.06-6.52,2.12-1.69,0-2.75,8.11-1.37,9.55s2.44.72,3.16-.63a27.18,27.18,0,0,0,1.15-3.29c.89-2.33,2.59-4.47,5-4.09C133.48,140.2,132.23,143.22,132.49,144.34Zm14.78,84.24a14.28,14.28,0,0,1-.47-1.6c-.26-1.52-.74-3.45-2.42-3.18-2,.33-1.36,2.56-.9,3.73,1.89,4.79,1.18,8.86-2.5,12.5a2,2,0,0,0,.07,3.09c1.34,1,2.13-.3,2.84-1.11a51.19,51.19,0,0,0,7.27-10.67c1-1.91,4-4.11,1.65-6C150,223.12,149.91,228,147.27,228.58Zm-38.79-7.06h0c0,1,0,2,0,3,.2,3.15.26,6.4,3.1,8.56,1.41,1.07,3.15,1.71,4.33-.15,1-1.65.13-2.12-1.64-3-2.13-1-3.53-4.11-.81-5.84,3.55-2.27,5.52-3.39-.44-4.31-.7-.11-.8-.89-.81-1.6,0-1.79,1.33-4.71-1.74-4.59-2.55.09-1.65,3.13-1.95,4.95A17.43,17.43,0,0,0,108.48,221.52Zm159-90.79c-.16-1.55-1.15-1.86-2.13-2a4.2,4.2,0,0,0-4.68,2c-1.35,2.21-.26,3.86,1.36,5.19,3.58,2.91,3.44,5-1.19,6.28-.79.21-1.83.1-1.68,1.25a2.82,2.82,0,0,0,2.34,2.32c3,.72,7.67-4.35,7.1-7.39C268.07,135.76,260.37,134.12,267.43,130.73Zm-178,2.62c.35-1.73,3.61-.7,3.08-3.17-.31-1.41-1.64-1.54-2.78-1.56a3.89,3.89,0,0,0-4,2.44c-1,2.48.39,4.09,2.14,5.52,2.35,1.92,2.64,3.66-.29,5.33-1.11.63-4.17-.19-2.55,2.69,1.15,2,3.09,1.36,4.79.37C95,141.93,94.91,139,89.39,133.35Zm185.05,4.18c0,4.51,3.52,9.27,6.82,9.35,1.19,0,2.53-.12,2.94-1.35.58-1.72-1-1.64-2.05-2-2.08-.75-4.22-1.63-1.28-3.89,1.92-1.47,2.45-3.06,1.23-5.1a4,4,0,0,0-4.62-2.08C275,133.17,274.84,135.57,274.44,137.53Zm-79.82,44.1c-.08,4.39,3.59,9.41,6.78,9.42,1.16,0,2.53-.11,2.93-1.37.58-1.84-1.12-1.47-2.08-1.85-2-.78-4.19-1.67-1.25-3.94,1.88-1.45,2.45-3.12,1.27-5.13a4,4,0,0,0-4.58-2.13C195.17,177.34,195.23,179.85,194.62,181.63ZM277,191.19c1-1.14,1.74-1.54,1.83-2.05,1.18-6.67.15-13.21-1.42-19.69a2,2,0,0,0-1.4-1.13c-1-.11-1.4.78-1.4,1.64A92.27,92.27,0,0,0,277,191.19ZM199.74,138c-.47-3.44-.94-7.39-1.56-11.32-.17-1.09-.49-2.59-2-2.47s-1.37,1.69-1.31,2.77a107.07,107.07,0,0,0,1,11.89c.4,2.41-.43,6.91,2.26,6.69S199.32,141,199.74,138Zm10.13.34c-.42-3.42-.8-7.06-1.34-10.68-.21-1.4-.2-3.54-2.13-3.41-2.08.15-1.48,2.29-1.41,3.64a86.75,86.75,0,0,0,1,10.94c.46,2.41-.52,6.94,2.16,6.75C211.05,145.34,209.29,141,209.87,138.29Zm54.69,35.09c.49,4.62,1,9.4,1.54,14.17.11.92.18,2.23,1.41,2.3,1.59.09,1.76-1.42,1.8-2.48a69.71,69.71,0,0,0-1.54-16.79c-.23-1.12-.45-2.56-2-2.26s-1.12,1.79-1.18,2.9C264.53,171.88,264.56,172.54,264.56,173.38Zm-140.4,50.17c-2.67,2.75-2.34,5.77-2.28,8.7,0,1.17.28,2.39,1.7,2.67s2-.87,2.51-1.89c1-2,2.22-3.68,4.67-4,1.33-.16,3.49.43,2.85-2.06-.44-1.72-2.2-2-3.7-1.46C127.49,226.35,125.29,226.84,124.16,223.55ZM228.72,140.8c.05,2.59-.61,5,1.38,5.72,2.39.88,2.73-1.82,3.57-3.26,1.19-2,3-2.44,5.07-2.49.89,0,1.72-.32,1.91-1.25a1.82,1.82,0,0,0-1.17-2c-2.75-1.29-6.41,1.92-8.69-1.74-.43.47-1.06.89-1.24,1.44A36.6,36.6,0,0,0,228.72,140.8Zm19.1-6.85c-2.08,3.92-1.28,7.18-.84,10.39a2.14,2.14,0,0,0,1.34,1.27,1.1,1.1,0,0,0,1.38-1.05C249.79,141.1,251,137.44,247.82,134Zm-11,95c-1-1.52,1.18-5.46-2-5.33-2.93.12-1.05,3.83-1.38,5.91a5.86,5.86,0,0,0,.52,3.38c.68,1.33,1.91,1.47,2.5-.11A16.49,16.49,0,0,0,236.78,229Zm18.79-44.4c-.43-1.38,1.14-5.19-1.85-5s-1,3.81-1.31,5.89a7.53,7.53,0,0,0,.28,2.93,1.56,1.56,0,0,0,1.8,1.3c.83-.1,1-.79,1.06-1.44C255.62,187.24,255.57,186.25,255.57,184.59Zm-69.41-43.85c-.79-1.7,1.23-5.57-2-5.41-2.9.15-1.09,3.84-1.4,5.94a6.62,6.62,0,0,0,.51,2.91c.19.56.74,1.29,1.22,1.38,1,.16,1.39-.73,1.5-1.58S186.09,142,186.16,140.74Z"/><path class="cls-2" d="M103.58,344.67c1.14-3.86,2.59-8.95,4.17-14,.93-3,2-6,3.13-8.91,1.4-3.66,4.1-5.17,7.9-4.09,4,1.13,5.25,4.23,4.27,7.8-2.11,7.67-4.62,15.24-7.07,22.82-1.17,3.64-3.7,5.42-7.61,4.7S103.52,349.42,103.58,344.67Z"/><path class="cls-2" d="M80.32,298.64a7.27,7.27,0,0,1-2.42,6c-4,4-7.89,8-12,11.87-3.48,3.25-7.65,3.36-10.16.59-2.67-3-2.4-6.63,1.09-10.07,4.12-4.06,8.37-8,12.68-11.85a6.76,6.76,0,0,1,7.41-1.4A5.76,5.76,0,0,1,80.32,298.64Z"/><path class="cls-2" d="M249.09,48.28c-3.66-.32-6.3-2.38-5.22-6.12a237.77,237.77,0,0,1,8.07-23c1-2.36,3.95-3.27,6.53-2.41a5.22,5.22,0,0,1,3.71,6.31,111,111,0,0,1-8.18,23C253.06,48.05,251,47.78,249.09,48.28Z"/><path class="cls-2" d="M315.07,61.61c.12,2.25-1.24,3.55-2.57,4.8A128,128,0,0,0,299.86,80.5c-2.12,2.67-4.75,4.42-8.13,1.87s-3.7-5.44-1.14-8.63C295.28,67.91,299.91,62,306,57.53a5.53,5.53,0,0,1,6.09-.69C314.07,57.81,314.75,59.73,315.07,61.61Z"/><path class="cls-2" d="M348,106.53c3.42-.29,4.9.59,5.95,2.29,1.16,1.87,1.49,4.07-.13,5.52-6.79,6.13-14.36,11.08-23.32,13.41a4.41,4.41,0,0,1-5.06-2.37c-.89-1.85-1.14-4.39.52-5.59A138.36,138.36,0,0,1,348,106.53Z"/><path class="cls-2" d="M350.31,179.62c3.65,0,7.31-.07,11,0,3.12.07,5.61,1.18,5.87,4.75.26,3.79-1.91,5.09-5.43,5.61-7.84,1.18-15.57-.3-23.35-.42-3.42-.06-5.13-2.16-4.93-5.5s2.37-4.58,5.42-4.62c3.82,0,7.64,0,11.46,0Z"/><path class="cls-2" d="M176,16.75c0-3.49,0-7,0-10.48,0-3.76,2-6.28,5.62-6.27s5,2.7,4.94,6.21c-.1,7.3-.15,14.59-.1,21.89,0,3.54-1.93,5.44-5.09,5.44s-5.33-1.79-5.35-5.32c0-3.83,0-7.65,0-11.47Z"/><path class="cls-2" d="M54.89,54c-.19-2.32,1.12-3.75,2.88-4.9a4.14,4.14,0,0,1,5.11.49c6.42,5.09,11.34,11.63,16.55,17.86,1.81,2.17,1,4.86-1.06,6.74-1.88,1.72-4.62,2.49-6.37.66-5.81-6.1-11.24-12.55-16.76-18.92C54.87,55.52,55,54.67,54.89,54Z"/><path class="cls-2" d="M120.91,42.76a5.1,5.1,0,0,1-5.08-3.94q-2.6-9.33-5.2-18.66c-1-3.59,0-6.6,3.73-7.41s5.88,1.48,6.81,5c1.56,5.94,3.33,11.82,4.7,17.8C126.89,40,125.07,42.67,120.91,42.76Z"/><path class="cls-2" d="M21,257.68c-2.91.07-4.63-1.43-5.44-4.12a4.41,4.41,0,0,1,2.79-5.69,99.23,99.23,0,0,0,18.51-8.19c2.18-1.3,4.91-.36,6.46,2.12s.52,4.74-1.26,6.71C38.92,252,25.63,257.77,21,257.68Z"/><path class="cls-2" d="M257.42,344.12c.05,3.3-1.14,5.17-3.26,6s-4.19,0-5.72-1.85a16.9,16.9,0,0,1-2.71-5.29c-1.63-4.7-2.88-9.54-5.12-14a7.87,7.87,0,0,1-.37-6.31c1.26-3.43,6.21-4.69,8-1.7C252.59,328.39,254.22,337,257.42,344.12Z"/><path class="cls-2" d="M15.28,180.2c3.48,0,7-.06,10.43,0,3.32.07,4.71,2.15,4.71,5.19s-1.68,5-4.86,5.1c-6.95.12-13.91.24-20.85,0-3-.09-4.67-2.22-4.71-5.33s1.68-4.94,4.86-5c3.47-.09,7,0,10.42,0Z"/><path class="cls-2" d="M176.74,349.51c0-3.33,0-6.66,0-10,0-3,1.48-4.73,4.48-4.93,2.81-.18,5.25,1,5.55,3.88a100.37,100.37,0,0,1-.06,22.39c-.36,3-2.78,4.47-5.91,4s-4.11-2.5-4.1-5.35c0-3.33,0-6.66,0-10Z"/><path class="cls-2" d="M317.12,305.16a4.81,4.81,0,0,1-7.48,3.89c-6.7-4.44-11.9-10.55-16.69-16.94-1.24-1.66-.72-3.62.71-5s3.89-2.56,5.42-1.13c6.07,5.66,11.82,11.66,17.63,17.59C317.1,304,317,304.8,317.12,305.16Z"/><path class="cls-2" d="M35.74,128a23.36,23.36,0,0,1-2.54-.57C26.6,125.17,20,123,13.44,120.55c-2.85-1-5-2.9-3.36-6.44,1.45-3.08,3.94-3.24,6.72-2,6.86,3,14.42,4,21,7.84a4.68,4.68,0,0,1,2.53,5.41C39.85,127.65,38,127.91,35.74,128Z"/><path class="cls-2" d="M348.43,252.89c0,3.38-2.69,5.43-5.81,4.16-6.13-2.49-12.16-5.25-18.2-8-2.72-1.23-4.49-3.29-3.06-6.32,1.54-3.26,4.22-2.56,6.76-1.11,5.08,2.88,10.76,4.31,16.05,6.66C346.32,249.25,348.58,250.12,348.43,252.89Z"/><path class="cls-2" d="M179.51,225.45c-.33,1.38-.08,3.28-1.9,3.08-1.64-.17-1.48-2-1.39-3.25s.27-3.05,2-2.9S179.41,224.36,179.51,225.45Z"/><path class="cls-2" d="M217.69,225.54c-.33,1.19,0,3.08-1.72,3.05s-1.44-1.88-1.44-3.11.15-3,1.75-3C218.13,222.5,217.58,224.33,217.69,225.54Z"/><path class="cls-2" d="M96.54,181.34c-.24,1.26,0,3.08-1.75,3s-1.53-1.91-1.45-3.12,0-3,1.83-2.94S96.49,180.14,96.54,181.34Z"/></g></g></svg>