<svg xmlns="http://www.w3.org/2000/svg" viewBox="0 0 381.03 263.41"><defs><style>.cls-1{fill:#463f3a;}</style></defs><g id="Capa_2" data-name="Capa 2"><g id="Capa_1-2" data-name="Capa 1"><path class="cls-1" d="M380.66,73.75c-.19,1.2-.39,2.4-.58,3.6-6.22,10.52-10.34,21.53-9.29,34.12.65,7.74,2.48,9.87,10.24,9.76l-.21,3.41c-13.73,14.66-29,27.25-48.22,34.05-12.39,4.39-23.84,2.39-33.68-6.56-12.64-11.5-17.8-26.51-19.15-43-1.95-23.91,6.7-44,23.08-61l-.35-.3.32.34c11.14-9.32,23.68-15.49,38.3-17l11.19-.45c4.1,1,8.38,1.65,12.27,3.22,6.32,2.54,9.82,7.54,9.14,14.47-1.39,14.19-7.85,25.64-20.24,33-8.48,5-13.05,1.92-13.28-8.19a94.72,94.72,0,0,0-.86-14.11c-1.08-6.15-2.95-12.61-10.51-13.36C321.56,45,316.94,49.29,314.48,56c-.32,1-.63,2-1,3-4.92,14.67-4,29.51-1.41,44.41l.36,2.73.72,4.52.85,4a69.58,69.58,0,0,0,7.78,23.28V138a59.57,59.57,0,0,0,3.5,6.13c2.42,3.3,5.21,6.54,9.8,6,4.8-.56,7.31-4.16,8.76-8.37a33.18,33.18,0,0,0,.29-21.56l-1-4.1c-1-3.62-2.43-6.95-6-8.81a6.34,6.34,0,0,1-.27-4.78c8.94-4.6,18.13-8.78,26.14-15C369,83,374.8,78.34,380.66,73.75Z"/><path class="cls-1" d="M108.56,216.19a19.13,19.13,0,0,0-8.51-.46c-9.6-3.66-19.76-2-29.63-3.16l.09.09c0-2.25-.48-4.59,1.24-6.52l0,0a1.33,1.33,0,0,0,1-1.7A2.23,2.23,0,0,0,73,203.2c2.15-1.27,2.47-3.64,2.39-5.58-.44-10.91-1.9-21.7-6.9-31.58-2.33-4.6-6.52-5.94-11.49-4.27-1.58.53-3.33,1.2-3.17,3.28,1.07,14.15-1.72,28.91,6.33,42,2.58,4.18.69,5.91-3.21,6.71-4.15.84-8.33,1.51-12.5,2.26-1.56-.05-3.12-.13-4.38,1a6.9,6.9,0,0,0-4.67,1l-.21,0a69.71,69.71,0,0,0-16.72,5.42c-4.72-.89-2.07-3.49-.82-5,6.93-8.11,8.24-17.63,8.16-27.84-.14-19.39.18-38.78.31-58.16,0-5.23.47-10.55-5.92-12.92-1.92-.71-1.41-2.71-1.22-4.33L28.93,108l5.53-3.25a128.35,128.35,0,0,1,34.29-11.2l5.53-.08a14.75,14.75,0,0,0,2,.79C91.3,98,101.31,110,102.5,125.52c1,13.23-6.52,24.41-20.65,30.66-1,.45-2.27.58-2.69,2.07,6.69,6.13,10,14.63,14.87,22.09l.72,1.78c4.39,9.64,9.66,18.72,17,26.45,1.67,1.76,3.64,3.59,2.52,6.1C113.23,217,110.38,215.2,108.56,216.19Zm-54.65-62c2.87.19,4.27-1.23,5.78-2.26,14.49-9.84,19-31.17,9-43.07-2.29-2.75-5.15-6.12-8.7-5.26-3.35.82-3.32,5.27-3.88,8.39C53.63,125.79,54.09,139.79,53.91,154.16Z"/><path class="cls-1" d="M204.28,25.43l15.24.3c14.49,2.05,25.79,9.85,35.88,19.83a.76.76,0,0,0,.67.79l7.76,10.06-.05-.07,2.69,4.52-.05,0q2.67,5.68,5.33,11.36l1.71,4.19c.6,2.52,1.23,5,1.81,7.55,4.05,17.57,3.75,34.61-6.29,50.42l-.9,1.35c-11.72,12.28-25.86,14.25-40.22,6.8C196.35,126.14,176.43,100.4,170.55,65c-2.7-16.24,6.66-30.59,22.17-36.38C196.45,27.26,200.42,26.49,204.28,25.43Zm-1.5,56.29c.69,13.35,3.8,29.14,13,43.11,3.15,4.77,7,9.58,13.48,9,6.91-.65,10-6.3,11.65-12,7.61-26.33,5.27-51.93-7-76.48-2.57-5.15-6.29-9.94-12.9-9.62-6.84.34-10.07,5.62-12.63,11.1C203.75,56.87,202.62,67.65,202.78,81.72Z"/><path class="cls-1" d="M133.88,4.53C141.1,7.63,148.56,10.05,155,15c8.65,6.56,13.94,20.86,10.79,31.47-2.45,8.24-7.44,10.81-21.49,10.44,9.26,10.49,13.66,23.07,21,33.92l0-.06c3.28,7.43,8.27,13.73,13.13,20.14,1.35,1.79,4.33,4.51-1.16,4.94l.05,0A133.06,133.06,0,0,0,157,105a.76.76,0,0,0-1-.42,11.93,11.93,0,0,0-6-2.94l.05,0c-3.55-1.81-7.11-3.58-10.64-5.43-2.92-1.52-5-3.22-1.17-6.13a6.94,6.94,0,0,0,2.79-6.88C139.7,74.84,138.2,66.45,134,59a15.76,15.76,0,0,0-11.69-8.32c-1.44-.2-3.61-1-3.66,1.71-.14,6.92.32,13.76,3.71,20l.13.1c-2.2,5.75,1.11,9.74,4.39,13.74.26.92.51,1.84.77,2.76-.87,1.6-2.26,1.52-3.67,1-12.54-4.24-25.22-7.81-38.57-8.29-1.23,0-2.51-.38-3-1.57-.62-1.67.76-2.63,1.9-3.39,6.35-4.19,7.34-10.42,7.24-17.39-.18-11.35.09-22.71.1-34.06,0-9.1,2.81-19.2-10.56-24.36C90.28-1.16,97.32.94,104.3.42l8.36.76,5.89.74,8.33,1.32,1.65.16Zm-14.36,25a26.71,26.71,0,0,0,0,4.54c.57,3.5-2.27,8.45,1.73,10.25,4.44,2,9-.93,13.1-3.32,2.36-1.38,3.21-4,4-6.41,2.68-8.19-3.08-20.32-10.94-24.37-3.38-1.75-4.53-.54-5.72,2.4C119.55,18,120.36,23.64,119.52,29.55Z"/><path class="cls-1" d="M125.9,121.79c1-8.39-5-13.8-8.88-20,1.92-2.51,3.67-.87,5.22-.32,20.41,7.17,39.43,17.28,58,28.16,6.14,3.59,11.63,8.23,15.28,14.53,3,5.17,4.53,10.5-.2,15.66l-5.46.23c-5-2.44-8.95-6.16-12.81-10l-1-1.39c-3.28-6.24-6.34-12.61-9.94-18.66-1.89-3.17-5-7.28-8.48-6.42-2.9.71-1.48,5.81-1.94,9a35.08,35.08,0,0,0-.06,4.92q-.24,4.22-.49,8.43c-1.09,4.75-.92,9.56-.65,14.37,0,1,0,1.9,0,2.84-1.2,4.72,2.62,4.65,5.36,5.61a5.3,5.3,0,0,0,4.27,1.54c3.88,2.07,6.16-.36,8.45-2.93,1.19-1.34,2.2-3.51,4.51-2.48,2,.9,2.06,3,2.07,4.93,0,7.34,0,14.69-.08,22,0,1.46.78,3.73-1.53,4-1.94.28-2.59-1.76-3.32-3.2-1.08-2.1-2.06-4.26-3-6.42-3.21-7.27-9.15-11-17-13.28-.09,15.44.94,30.25,2.15,45.06.21,2.57,1.29,3.81,3.59,4.48,5,1.44,9.93,3,14.89,4.49l.65.26.7-.14c6.39,1,11-2.11,14.59-6.84,1.69-2.25,3.55-4.48,6.1-3.69,2.84.88,2.41,4.16,2.42,6.73,0,3.55.2,7.11,0,10.64-.38,6.21-2.58,7-8.67,4.86-22.28-7.76-44.61-15.42-67.86-19.92l-2.75-.45c-4.27-2.55-5-5.08-.17-7.91a7,7,0,0,0,3.31-4.25v0c4.59-7.32,2.58-15.37,2.55-23.19C126.2,162.64,126.91,142.21,125.9,121.79Z"/><path class="cls-1" d="M326.67,263.41c-7.55,0-15-.33-22.31-2.79-4.55-1.54-8.89.38-13.15,1.73s-6.7.8-6.37-4.61c.34-5.66,0-11.37,0-17.06,0-1.69-1.15-4.21,1.59-4.69,2.08-.36,4,.77,5.43,2.53,5.75,7,12.77,12.54,20.18,17.78,6.34,4.48,12.63,3.82,19.1,1.61a8,8,0,0,0,5.69-7.48c.19-3.75-2.31-5.67-5.16-6.93a146.38,146.38,0,0,0-15.21-5.93c-10.66-3.37-19.26-9.73-26.55-17.9-5.58-6.26-8.26-21,.66-31.64l0-.05c8.22-7.63,18.88-9.86,29.08-13.11l2.7-.48c1.57.12,3.13.2,4.41-1l2.71-.54c7.24-.85,14.3-3.23,21.69-2.78,10.06.61,14.36,7.57,9.71,16.24-3.67,6.85-8.9,12-16.81,14.44-6.48,2-10.91.76-14.17-5.05l-.55-2.69c.07-1.18.18-2.36.22-3.54.18-4.66-.65-8.87-6.38-9.14-5.53-.26-8.58,3-9.39,8.27-1.15,7.42,3,12.11,8.79,15.62,8.69,5.25,18.63,6.62,28.31,8.81,14,3.16,18.08,10.94,12.46,24-5.7,13.26-16.29,21.08-29.72,25.46l-2.74.43-1.39.14Z"/><path class="cls-1" d="M64.38,2.11l2.72.35C85.38,8.7,89.4,16,82.55,30.46L80,33.36C68.76,43.74,53.61,45.87,40.34,52c-1.11.51-3-.28-3,2,.35,9.08-.88,18.38,3.89,26.82h0c5,4.38,4.72,7.7-1.9,9.85-.39.13-.68.59-1,.89l.26.34-.23-.36C23.55,98,12.24,109.17,0,119.58l6.39-14.53-.07.06c.28-.61.56-1.22.83-1.83.28-.88.55-1.76.83-2.64C11.31,78,9.56,55.24,9.85,32.52c0-2.77-2-4.64-4.73-5.69-1.37-.53-3.8.18-3.73-2.31.05-1.86,1.84-2.64,3.29-3.44C23.32,10.82,42.72,2.89,64.38,2.11ZM37.54,48.24A41.72,41.72,0,0,0,53.71,33.92c2.71-4,4.54-8.41,3.54-13.33C56,14.5,51.8,11.28,45.87,10.66c-6.22-.66-5.51,5-6.32,8.36C37.34,28.24,37.3,37.73,37.54,48.24Z"/><path class="cls-1" d="M202.89,163.63c4.85-8,9.68-10.76,18.91-8.44,19.59,4.92,37.19,13.85,51.51,28.46a24.6,24.6,0,0,1,6.17,10.28c2.26,7.66-1.39,12.16-9.27,11.58A24.89,24.89,0,0,1,247.11,181c0-5.61-1.45-10.26-6.14-13.59-2.25-1.6-4.8-2.48-7.35-1.2-2.78,1.4-2.7,4.27-2.41,6.9.6,5.36,3.26,9.84,6.29,14.13,7.88,11.13,18.14,20,27.83,29.43,5.26,5.13,10.83,10,14.63,16.41,5.47,9.22,2.43,17.35-7.72,21.29-16.75,6.51-31.68.87-45.81-7.42-6.2-3.63-11.72-6.63-19.09-4.21-3.87,1.27-5.57-1-5.59-4.92,0-8.77-.22-17.53-.34-26.3a5.5,5.5,0,0,0-.29-4.28,8,8,0,0,1,.27-1.36c4.87-.81,5.81,3.27,7.48,6.2,6.45,11.39,13.38,22.4,23.27,31.21,3.56,3.17,7.36,6,12.06,7.3,3.43,1,6.69,1.17,9-2.09s.26-6.17-1.47-8.43a91.87,91.87,0,0,0-10.14-10.84c-10.19-9.6-20.68-18.88-28.94-30.33C205,188.35,200.65,176.91,202.89,163.63Z"/></g></g></svg>