<svg xmlns="http://www.w3.org/2000/svg" viewBox="0 0 691.74 127.31"><defs><style>.cls-1{fill:#f4f3ee;}</style></defs><g id="Capa_2" data-name="Capa 2"><g id="Capa_1-2" data-name="Capa 1"><path class="cls-1" d="M70.11,125l-6.8-92.78A230.76,230.76,0,0,1,55,75.93q-6,20.28-13.7,31.35T25.67,122.83a32.37,32.37,0,0,1-15.85,4.48q-4.74,0-7.28-1.94A5.76,5.76,0,0,1,0,120.67a5.36,5.36,0,0,1,1.85-4,6.63,6.63,0,0,1,4.7-1.73,28.69,28.69,0,0,1,5.94.91,24.63,24.63,0,0,0,5.86.9,15,15,0,0,0,8.44-3q6.63-4.47,13.13-16T51.55,65.38A230.42,230.42,0,0,0,58,25q-19.56,0-31.79,9.73Q16.46,42.47,16.45,52q0,4.22,4.6,10.16c1.64,2.12,2.46,3.85,2.46,5.17a5.13,5.13,0,0,1-1.41,3.7,4.52,4.52,0,0,1-3.38,1.47c-2.23,0-4.2-1.27-5.91-3.79A20.7,20.7,0,0,1,9.3,56.68q0-9.82,6.59-18.82a40.89,40.89,0,0,1,18.26-13.7q11.67-4.69,27.35-4.78A47.88,47.88,0,0,0,75,17.83q-.27,7.76-.23,8.35A32.82,32.82,0,0,0,75,29.72l5,65.59Q100.85,59,120.73,35.49,134.84,18.87,145.33,13q-6,16.37-12.82,43.15L121.94,97.5q-.87,3.45-2.34,10.08l-2.08,9.22a52.59,52.59,0,0,0,12,1.55,47.19,47.19,0,0,0,9.4-1l-1.12,5a41.85,41.85,0,0,1-6.81.78,93.87,93.87,0,0,1-10.17-.78,77.54,77.54,0,0,0-9.65-.69A35.8,35.8,0,0,0,101,123.34,297.47,297.47,0,0,0,110.91,90l6.65-26.36q4.23-17.05,7.33-23.43Q118,48.08,103.55,69,92,85.92,77.63,111.8Z"/><path class="cls-1" d="M154.78,68.82,151,65.89q8.61-9.47,15.7-13.48c4.74-2.67,8.76-4,12.09-4a6.51,6.51,0,0,1,4.22,1.2,4.05,4.05,0,0,1,1.46,3.28q0,2.49-5.58,21.19-9.1,30.57-9.11,36.86a3.34,3.34,0,0,0,.6,2,1.68,1.68,0,0,0,1.3.81q2.75,0,14.12-10.68l3.36,3.28q-11.81,11.1-17.23,14.21t-8.87,3.1a6.2,6.2,0,0,1-4.78-1.9,7.38,7.38,0,0,1-1.76-5.25q0-10.77,12.92-52.63a12.36,12.36,0,0,0,.6-3.53c0-1.15-.52-1.72-1.55-1.72A7.59,7.59,0,0,0,164.56,60Q162.37,61.42,154.78,68.82Zm33.85-57a5.88,5.88,0,0,1,4.4,1.77,6.18,6.18,0,0,1,1.72,4.52,9.6,9.6,0,0,1-2.63,6.67,7.83,7.83,0,0,1-5.9,2.89,5.66,5.66,0,0,1-4.3-1.81,6.58,6.58,0,0,1-1.73-4.74,9.41,9.41,0,0,1,2.5-6.59A7.85,7.85,0,0,1,188.63,11.8Z"/><path class="cls-1" d="M196.9,69.08l-2.93-3q11-10.56,17.59-14t11.21-3.46a4.63,4.63,0,0,1,2.84.78,2.22,2.22,0,0,1,1,1.8,15.45,15.45,0,0,1-.44,2.76l-3.88,17.33a107,107,0,0,1,22-18.19q7.07-4.39,11.61-4.39a6.6,6.6,0,0,1,5.25,2.15,9.12,9.12,0,0,1,1.89,6.2,27.49,27.49,0,0,1-.77,6q-1.38,5.6-7.21,24.38-5.49,17.56-5.49,23.34a5.43,5.43,0,0,0,.51,2.65,1.62,1.62,0,0,0,1.47.88q2.49,0,7.84-4.82,3.78-3.45,7.58-6.38l2.15,3.1a78.27,78.27,0,0,1-16.45,14.06q-5.43,3.43-9,3.43a6,6,0,0,1-5.08-2.37q-1.81-2.37-1.81-7.71,0-7.67,9.56-38.16,2.92-10.85,2.93-12.66c0-1.78-1.07-2.67-3.19-2.67q-3.45,0-8.87,3.63a53.32,53.32,0,0,0-13.52,12.59Q220.33,81,218,91.17l-7,30.11H198.19q3.63-12.94,6.29-24.76l7.67-32.77a16.25,16.25,0,0,0,.43-2.85c0-1.55-.58-2.33-1.72-2.33-.92,0-2.24.61-4,1.83A53.53,53.53,0,0,0,196.9,69.08Z"/><path class="cls-1" d="M341.78,103.45l2.41,3.27q-11.54,9.73-17.14,12.92Q319.29,124,314.82,124a4.8,4.8,0,0,1-3.36-1.16,3.46,3.46,0,0,1-1.29-2.63,20.2,20.2,0,0,1,.95-4.82l3-10.52Q303.8,116,296.9,120t-12.4,4a9.39,9.39,0,0,1-7.67-4q-3.09-4-3.1-11.77,0-12.26,8.4-28.16t18.69-23.54q10.29-7.63,18.82-7.63a39.94,39.94,0,0,1,5.69.6q4.05-16.77,7.75-24.46a45.52,45.52,0,0,1,9.56-13.29A42.35,42.35,0,0,1,356,3.05a37.7,37.7,0,0,1,14.08-3,8,8,0,0,1,5.51,1.81,5.79,5.79,0,0,1,2.07,4.56,5.56,5.56,0,0,1-1.9,4.35,7.56,7.56,0,0,1-5.18,1.68,65.58,65.58,0,0,1-8-.86,67.94,67.94,0,0,0-8-.86,8.2,8.2,0,0,0-5.31,1.85q-2.29,1.85-4.36,8-1.38,3.89-6.26,24.73l-12.19,52q-2.15,9.23-2.15,12.23c0,2.19.84,3.28,2.5,3.28a7.8,7.8,0,0,0,3.62-1.12A120.63,120.63,0,0,0,341.78,103.45ZM323.52,58.92a51.47,51.47,0,0,0-9.73-1.55q-5.78,0-11.29,4.53T291.87,79.45q-5.13,13-5.13,22.69a10.77,10.77,0,0,0,2.37,7.2,6.94,6.94,0,0,0,5.38,2.81c2.41,0,5.17-1.07,8.27-3.19A36.06,36.06,0,0,0,313.27,97.4q2.33-4.32,6.29-21.14Z"/><path class="cls-1" d="M390.88,48.84q7.67,0,11.84,3t4.18,6.85a5.48,5.48,0,0,1-1.77,4.05,5.86,5.86,0,0,1-4.26,1.72A5.34,5.34,0,0,1,398,63.7,15.89,15.89,0,0,1,394.58,60q-4.21-5.61-8.35-5.6A8.58,8.58,0,0,0,380,57.15a9.14,9.14,0,0,0-2.71,6.75A14.64,14.64,0,0,0,379,70.74q1.72,3.32,8.7,10.71,9.56,10.15,9.56,19.27t-7.75,16q-7.75,6.84-20,6.84-10.26,0-15.25-4.18a12.94,12.94,0,0,1-5-10.29,7,7,0,0,1,1.9-5,6.18,6.18,0,0,1,4.65-2,5.89,5.89,0,0,1,4.14,1.59,5,5,0,0,1,1.72,3.75c0,.57,0,1.32-.12,2.24,0,.75-.05,1.38-.05,1.89a6,6,0,0,0,2.4,4.83,9.45,9.45,0,0,0,6.35,2,19.59,19.59,0,0,0,8.15-1.59,12.84,12.84,0,0,0,7.47-11.23A12,12,0,0,0,384,99.34q-1.86-3.11-8.31-10.24-9-10-9-19.18,0-8.43,6.8-14.76T390.88,48.84Z"/><path class="cls-1" d="M456.77,102.59l1.81,5q-20.5,16.11-34.63,16.11-7.49,0-10.89-5.34t-3.41-13.52q0-13.62,7.24-28t17.57-22a30.12,30.12,0,0,1,18.26-5.94q6.38,0,9.65,2.41a7.11,7.11,0,0,1,3.27,5.86,5.8,5.8,0,0,1-1.72,4.35,6.62,6.62,0,0,1-4.82,1.68c-2,0-4.6-.92-7.76-2.76s-6-2.93-8.18-2.93q-4.21,0-8.4,3.83t-8,14.83A67.5,67.5,0,0,0,423,98.22q0,8.18,3.18,12.64a7.46,7.46,0,0,0,6.55,3.44Q442.82,114.3,456.77,102.59Z"/><path class="cls-1" d="M485.37,121.28H472.53l6-23.17q4.4-17.06,7.67-32.39A33.23,33.23,0,0,0,487,61c0-1.37-.63-2.06-1.89-2.06-.86,0-2.19.59-4,1.76s-5,4.09-9.65,8.74l-2.67-3A65.71,65.71,0,0,1,485.32,53.1q8.22-4.43,12.61-4.43a3.77,3.77,0,0,1,2.45.73,2.26,2.26,0,0,1,.91,1.85,40.19,40.19,0,0,1-1.13,6l-3.75,15.5A110.18,110.18,0,0,1,516.09,49.2q5.26-4.66,8.8-4.67a6,6,0,0,1,4.32,1.68,5.42,5.42,0,0,1,0,7.88q-1.68,1.63-8.39,3.88a37,37,0,0,0-10.37,5.17,49.06,49.06,0,0,0-8.78,9.22A49.49,49.49,0,0,0,495,83.17q-1.91,4.6-5.79,21.4Z"/><path class="cls-1" d="M525.08,68.82l-3.79-2.93q8.6-9.47,15.7-13.48t12.08-4a6.51,6.51,0,0,1,4.22,1.2,4.05,4.05,0,0,1,1.46,3.28q0,2.49-5.58,21.19-9.1,30.57-9.11,36.86a3.28,3.28,0,0,0,.61,2,1.65,1.65,0,0,0,1.29.81q2.74,0,14.12-10.68l3.36,3.28q-11.81,11.1-17.22,14.21t-8.88,3.1a6.2,6.2,0,0,1-4.78-1.9,7.42,7.42,0,0,1-1.76-5.25q0-10.77,12.92-52.63a12.36,12.36,0,0,0,.6-3.53c0-1.15-.52-1.72-1.55-1.72A7.62,7.62,0,0,0,534.85,60Q532.66,61.42,525.08,68.82Zm33.85-57a5.86,5.86,0,0,1,4.39,1.77A6.18,6.18,0,0,1,565,18.09a9.56,9.56,0,0,1-2.63,6.67,7.81,7.81,0,0,1-5.9,2.89,5.68,5.68,0,0,1-4.3-1.81,6.58,6.58,0,0,1-1.73-4.74,9.41,9.41,0,0,1,2.5-6.59A7.86,7.86,0,0,1,558.93,11.8Z"/><path class="cls-1" d="M590.79,63.91a52.28,52.28,0,0,1,13.74-11.24q6.76-3.57,11.93-3.57a11.47,11.47,0,0,1,9.65,4.82q3.61,4.83,3.62,14.56a62.17,62.17,0,0,1-6.63,27.65q-6.65,13.52-16.41,20.58t-19.08,7.07q-7.93,0-12.66-4.66a16.14,16.14,0,0,1-4.74-12.05,81.91,81.91,0,0,1,2.33-16.54L582.7,45q3.7-16.71,9.3-25.45a41.75,41.75,0,0,1,14.73-14Q615.87.34,624,.34c3.28,0,5.67.56,7.2,1.68a5.34,5.34,0,0,1,2.28,4.53,5.36,5.36,0,0,1-2.07,4.3,8.9,8.9,0,0,1-5.86,1.73,62.3,62.3,0,0,1-9.82-1.3,29.47,29.47,0,0,0-5.52-.6q-4.31,0-7,4.65-2,3.61-5.43,18.35Zm17-5.25q-4.21,0-10,5.08t-11,18A67.46,67.46,0,0,0,581.58,107a10.89,10.89,0,0,0,3,7.79,9.24,9.24,0,0,0,6.93,3.15q9.57,0,17.06-15.12A67.24,67.24,0,0,0,616,72.7q0-6.81-2.84-11.11A6.2,6.2,0,0,0,607.76,58.66Z"/><path class="cls-1" d="M683.82,99.66l2.84,3.79q-21.1,20.07-36.17,20.07-6.12,0-9.35-4.14t-3.23-13.26q0-18.44,11.2-36.7,12.57-20.74,30.06-20.75,6.12,0,9.34,3a11,11,0,0,1,3.23,8.4,18.83,18.83,0,0,1-3.87,11Q684,76.57,674,82.43q-5,2.85-21.36,10.25a53.7,53.7,0,0,0-.78,8.87q0,6.12,1.94,8.53a6.8,6.8,0,0,0,5.64,2.41,18.47,18.47,0,0,0,7.76-2Q672.89,107.84,683.82,99.66ZM653.67,87.17Q667.55,81,674.52,73.82q4.72-5,4.73-9.91a8.61,8.61,0,0,0-1.93-5.9,6.44,6.44,0,0,0-5-2.19,9.82,9.82,0,0,0-6.2,2.41,23.9,23.9,0,0,0-6.81,9.64A87,87,0,0,0,653.67,87.17Z"/></g></g></svg>