<svg xmlns="http://www.w3.org/2000/svg" viewBox="0 0 236.12 169.93"><defs><style>.cls-1{fill:#fcfcfc;}.cls-2{fill:#353434;}.cls-3{fill:#898c8c;}.cls-4{fill:#464343;}.cls-5{fill:#5b5757;}.cls-6{fill:#b3b3b3;}.cls-7{fill:#404242;}.cls-8{fill:#252727;}.cls-9{fill:#a4a6a6;}.cls-10{fill:#0a0a0a;}.cls-11{fill:#070707;}.cls-12{fill:#121212;}.cls-13{fill:#fff;}.cls-14{fill:#fefefe;}.cls-15{fill:#0c0d0d;}.cls-16{fill:#fdfdfd;}.cls-17{fill:#f7f7f7;}.cls-18{fill:#f9f9f9;}.cls-19{fill:#181111;}.cls-20{fill:#edeeee;}.cls-21{fill:#171010;}.cls-22{fill:#1a1b1b;}.cls-23{fill:#121414;}.cls-24{fill:#cecccc;}.cls-25{fill:#151515;}.cls-26{fill:#e7e8e8;}.cls-27{fill:#dedfdf;}.cls-28{fill:#dcdddd;}.cls-29{fill:#1a1c1c;}.cls-30{fill:#1c1c1c;}.cls-31{fill:#c9c9c9;}.cls-32{fill:#0f1313;}.cls-33{fill:#161919;}.cls-34{fill:#cecece;}.cls-35{fill:#a3a4a4;}.cls-36{fill:#434444;}.cls-37{fill:#686969;}.cls-38{fill:#cdcece;}.cls-39{fill:#aeb2b2;}.cls-40{fill:#cacbcb;}.cls-41{fill:#292a2a;}.cls-42{fill:#424444;}.cls-43{fill:#353737;}.cls-44{fill:#b9b9b9;}.cls-45{fill:#2a2828;}.cls-46{fill:#f4f7f7;}.cls-47{fill:#302f2f;}.cls-48{fill:#d4d2d2;}.cls-49{fill:#1b1818;}.cls-50{fill:#d1d1d1;}.cls-51{fill:#4f4f4f;}.cls-52{fill:#111515;}.cls-53{fill:#4e4c4c;}.cls-54{fill:#626363;}.cls-55{fill:#565656;}.cls-56{fill:#4d4f4f;}.cls-57{fill:#9c9f9f;}.cls-58{fill:#363838;}.cls-59{fill:#d9dada;}.cls-60{fill:#0d0d0d;}.cls-61{fill:#4b4e4e;}.cls-62{fill:#777;}.cls-63{fill:#d7d5d5;}.cls-64{fill:#090a0a;}.cls-65{fill:#dddede;}.cls-66{fill:#383737;}.cls-67{fill:#585858;}.cls-68{fill:#636464;}.cls-69{fill:#888;}.cls-70{fill:#7a7c7c;}.cls-71{fill:#b9b7b7;}.cls-72{fill:#0b0f0f;}.cls-73{fill:#636161;}.cls-74{fill:#bbbfbf;}.cls-75{fill:#4a4d4d;}.cls-76{fill:#3e3d3d;}.cls-77{fill:#565454;}.cls-78{fill:#6a6b6b;}.cls-79{fill:#a9abab;}.cls-80{fill:#111616;}.cls-81{fill:#1c2020;}.cls-82{fill:#222323;}.cls-83{fill:#989898;}.cls-84{fill:#313232;}.cls-85{fill:#9d9e9e;}.cls-86{fill:#a1a0a0;}.cls-87{fill:#bebebe;}.cls-88{fill:#141515;}.cls-89{fill:#1e1f1f;}.cls-90{fill:#525252;}.cls-91{fill:#898888;}.cls-92{fill:#8e8f8f;}.cls-93{fill:#aeb0b0;}.cls-94{fill:#8c8b8b;}.cls-95{fill:#f3f5f5;}.cls-96{fill:#979e9e;}.cls-97{fill:#f9fbfb;}.cls-98{fill:#b1b5b5;}.cls-99{fill:#dee0e0;}.cls-100{fill:#cbcece;}.cls-101{fill:#eaecec;}.cls-102{fill:#cbcccc;}.cls-103{fill:#7b7b7b;}.cls-104{fill:#e3e5e5;}.cls-105{fill:#4e5050;}.cls-106{fill:#6c6f6f;}.cls-107{fill:#959494;}.cls-108{fill:#babcbc;}.cls-109{fill:#373838;}.cls-110{fill:#6a6e6e;}.cls-111{fill:#898989;}.cls-112{fill:#1e2121;}.cls-113{fill:#131515;}.cls-114{fill:#616060;}.cls-115{fill:#b3b0b0;}.cls-116{fill:#8f8e8e;}.cls-117{fill:#aeb6b6;}.cls-118{fill:#908f8f;}.cls-119{fill:#aaabab;}.cls-120{fill:#3b3c3c;}.cls-121{fill:#7f7f7f;}.cls-122{fill:#8b8b8b;}.cls-123{fill:#1c1a1a;}.cls-124{fill:#4e4f4f;}.cls-125{fill:#313131;}.cls-126{fill:#949595;}.cls-127{fill:#b8b8b8;}.cls-128{fill:#6c6e6e;}.cls-129{fill:#171919;}.cls-130{fill:#2c2b2b;}.cls-131{fill:#423f3f;}.cls-132{fill:#2e2f2f;}.cls-133{fill:#373939;}.cls-134{fill:#565858;}.cls-135{fill:#565757;}.cls-136{fill:#fcffff;}.cls-137{fill:#9fa0a0;}.cls-138{fill:#e1e1e1;}.cls-139{fill:#525555;}.cls-140{fill:#303131;}.cls-141{fill:#8b8d8d;}.cls-142{fill:#7e8080;}.cls-143{fill:#9fa5a5;}.cls-144{fill:#b1b7b7;}.cls-145{fill:#d7d9d9;}.cls-146{fill:#838484;}.cls-147{fill:#858787;}.cls-148{fill:#424343;}.cls-149{fill:#848787;}.cls-150{fill:#323232;}.cls-151{fill:#494b4b;}.cls-152{fill:#b6b5b5;}.cls-153{fill:#686868;}.cls-154{fill:#a8abab;}.cls-155{fill:#b9bdbd;}.cls-156{fill:#c9cfcf;}.cls-157{fill:#a7a6a6;}.cls-158{fill:#a5a9a9;}.cls-159{fill:#8f9191;}.cls-160{fill:#1b1f1f;}.cls-161{fill:#cdd0d0;}.cls-162{fill:#626565;}.cls-163{fill:#616464;}.cls-164{fill:#f3f3f3;}.cls-165{fill:#515252;}.cls-166{fill:#565959;}.cls-167{fill:#c1c7c7;}.cls-168{fill:#939292;}.cls-169{fill:#2e2d2d;}.cls-170{fill:#f1f1f1;}.cls-171{fill:#060606;}.cls-172{fill:#0b0a0a;}.cls-173{fill:#141111;}.cls-174{fill:#120f0f;}.cls-175{fill:#505252;}.cls-176{fill:#fbfafa;}</style></defs><g id="Capa_2" data-name="Capa 2"><g id="Capa_1-2" data-name="Capa 1"><path d="M236.12,151.19c0-.41,0-.82-.05-1.23-.26-.36-.09-.79-.19-1.19-.41-1.63-.86-3.25-1.42-4.84s-1.26-3.46-1.74-5.24a30.72,30.72,0,0,0-2.79-6.95,29.73,29.73,0,0,1-2.11-4.54c-.11-.31-.19-.62-.32-.93-.9-2.19-1.83-4.38-2.69-6.59-.26-.65-.7-1.2-1-1.84-.36-.86-.78-1.69-1.18-2.53a20.91,20.91,0,0,1-1.33-2.88c-.19-.62-.5-1.21-.73-1.83-.63-1.69-1.62-3.22-2.13-4.95a5.77,5.77,0,0,0-.27-.56l-.49-1.12a37.41,37.41,0,0,0-1.88-4.54c-.72-1.23-1.18-2.63-2.33-3.59a2,2,0,0,1-.39-.48,11.58,11.58,0,0,0-2.4-2.64,3.56,3.56,0,0,0-2-1.12,1,1,0,0,1-.35-.12,9.19,9.19,0,0,0-2.76-1,20.4,20.4,0,0,0-3.48-.68,12.8,12.8,0,0,1-4.63-1.09,23,23,0,0,0-2.47-.81c-1.26-.38-2.52-.74-3.78-1.11-1-.3-2-.67-3.08-.89a34.47,34.47,0,0,1-6.43-2.08c-1.18-.49-2.35-1-3.54-1.43a4.23,4.23,0,0,0-2.53-.34,1.56,1.56,0,0,1-.61,0c-1.31-.15-2.62-.12-3.93-.36a3.3,3.3,0,0,1-2.57-1.83c-.19-.41-.41-.81-.62-1.21-2-3.66-3.58-7.49-5.57-11.14a49.4,49.4,0,0,0-3.73-6.09,42.27,42.27,0,0,0-2.87-3.68c-1.27-1.35-2.53-2.69-3.85-4-1.85-1.82-3.87-3.42-5.82-5.11-1.54-1.35-3.16-2.61-4.76-3.89s-3-2.43-4.52-3.6c-.4-.3-.83-.7-1.45-.45-.18.08-.32-.08-.32-.26q0-1,0-2.07c0-2,0-3.92,0-5.89a1.92,1.92,0,0,0-.11-.46,2.82,2.82,0,0,0-1.5-1.72A6.25,6.25,0,0,1,131.79,29a2,2,0,0,0-.64-.56c-.92-.44-1.84-.91-2.75-1.36-.22-.37-.7,0-1-.32.35-.65.17-1.82.84-1.95,1.67-.31,1.61-1.63,2-2.73a1,1,0,0,0-.23-1.24c-.49-.37-.93-.14-1.33.2a1.13,1.13,0,0,0-.33.71c0-.42.23-.7.29-1a6.52,6.52,0,0,1,.19-1,1.36,1.36,0,0,1,1.3-.95c.57,0,.8.49,1,1a10.55,10.55,0,0,1,.28,1.94,2.29,2.29,0,0,1-1.23,2.56,4.57,4.57,0,0,0-1.45,1.1l-.13.21c-.18.34-.14.45.11.57a2,2,0,0,0,1.22.11c1.57-.29,3.49-2,3.22-3.77-.09-.57,0-1.15-.07-1.72a6.83,6.83,0,0,0-.63-2.37,2.32,2.32,0,0,0-2.5-1.56.38.38,0,0,0-.31-.05,1.75,1.75,0,0,1-.57.07c.32-.14.91-.06.65-.73,0-.41.3-.67.45-1,.23-.52.52-1,.7-1.56A9.91,9.91,0,0,0,131,11.8c.09-.6.44-1.13.51-1.76A2.31,2.31,0,0,0,131,8.1c-.31-.33-.55-.72-.84-1.07-.49-.6-1-1.23-1.51-1.78a2.37,2.37,0,0,1-.6-.9,2.47,2.47,0,0,0-1.82-1.65A27.86,27.86,0,0,1,123.33,2a6.7,6.7,0,0,0-3-.25,3.61,3.61,0,0,1-1.7-.19,11.23,11.23,0,0,0-3.4-.53,3.35,3.35,0,0,0-2.84,1.2,1.11,1.11,0,0,1-1.18.45,4,4,0,0,0-.49,0,5.51,5.51,0,0,0-4.07,1.08,2.12,2.12,0,0,1-.88.42,4.14,4.14,0,0,0-1.42.72A17.72,17.72,0,0,0,101.75,7a5,5,0,0,0-1.3,2.33,15.68,15.68,0,0,0-.39,2.65,1.8,1.8,0,0,0,.91,1.84c.47.28.45.28.26.87A5,5,0,0,0,101,17c.1.56.3.79.86.87s1.22.1,1.9.15a40.34,40.34,0,0,0,.36,5.13,39.55,39.55,0,0,0,1.09,5,1.3,1.3,0,0,1-.42.13,4.74,4.74,0,0,0-2.29.32,2.59,2.59,0,0,1-1,.09c-.5,0-1,.06-1.48.12a2.15,2.15,0,0,0-1.3.64A7.84,7.84,0,0,0,97,31.93a12.73,12.73,0,0,0-.77,3.84c0,.7-.11,1.39-.18,2.09a7,7,0,0,0,0,1.59,12.56,12.56,0,0,1,0,1.84.54.54,0,0,1-.3.48c-1.06.69-2.06,1.47-3.15,2.09-.93.53-1.8,1.13-2.73,1.63-1.22.67-2.37,1.44-3.55,2.17-.59.37-1.21.7-1.77,1.11a15.25,15.25,0,0,0-1.85,1.13.7.7,0,0,1-.69.25,3.33,3.33,0,0,1,0-.46,8.25,8.25,0,0,1,.13-1.1,72.56,72.56,0,0,0,.8-9c.16-2.36.13-4.74.3-7.12a39,39,0,0,0,.06-5.41,27,27,0,0,1,.09-6.41,2.3,2.3,0,0,0,0-.74c-.25-1.29-.53-2.58-.8-3.87a.54.54,0,0,0-.38-.44c-.91-.25-1.81-.53-2.73-.72a3.52,3.52,0,0,0-1.7-.07,10.85,10.85,0,0,1-3.3.27c-1.69,0-3.38,0-5.07,0-.91,0-1.81,0-2.72,0A14.17,14.17,0,0,0,64.77,15,7.83,7.83,0,0,0,63,15a10,10,0,0,1-1.81,0c-.88,0-1.78.08-2.67.08A14,14,0,0,0,56.15,15c-.94.14-1.88.14-2.82.19-1.26.06-2.53.09-3.79.07a23.41,23.41,0,0,0-4.5.5c-1,.19-2,.53-3.08.68a36.24,36.24,0,0,1-4.89.24,35.81,35.81,0,0,0-4.14.15,21.33,21.33,0,0,1-2.26.21,15.21,15.21,0,0,0-2.33.24,8.54,8.54,0,0,0-1.3.33.45.45,0,0,0-.26.23c-.21.48-.62.89-.56,1.47-.1.16,0,.41-.27.49h0a2.38,2.38,0,0,1-.77,1.73,2.47,2.47,0,0,0-.51,1.36A31.2,31.2,0,0,1,23,29a53.85,53.85,0,0,0-1.73,5.11c-.27,1-.58,1.95-.93,2.91a34.64,34.64,0,0,0-1,3.65c-.39,1.59-.78,3.18-1.1,4.78-.46,2.29-.86,4.6-1.28,6.9-.26,1.45-.54,2.89-.77,4.35a16.34,16.34,0,0,0-.35,3.42c0,.38-.14.51-.58.59a22.64,22.64,0,0,0-3.34.83,4,4,0,0,1-1,.2,5.06,5.06,0,0,0-2.7,1.11,5.62,5.62,0,0,1-.79.46.84.84,0,0,0-.5.65,24.44,24.44,0,0,1-.67,2.84c-.7,3.54-1.35,7.1-2,10.65-.56,2.9-1.08,5.81-1.76,8.69A43,43,0,0,0,1.1,93.78c-.05.85-.16,1.7-.29,2.54A5.47,5.47,0,0,0,.6,97.87a1.53,1.53,0,0,1-.07.82,2,2,0,0,0-.17,1,10.66,10.66,0,0,1-.15,2,10.45,10.45,0,0,1-.19,2c.21.35,0,.7,0,1.06,0,.88,0,1.76,0,2.64a10.09,10.09,0,0,1,.17,1.08c.14,1.71.25,3.42.38,5.14a3.26,3.26,0,0,0,.16,1.2c.38,1.31,0,2.67.23,4a.12.12,0,0,1,.07.07S1,119,1,119a.56.56,0,0,0,0,.49c.27.37.08.8.13,1.2s-.05.63.39.62.41-.27.43-.52a18.13,18.13,0,0,0,.17-4.74,8.54,8.54,0,0,1,.2-3.44A1.74,1.74,0,0,0,2.09,111c0-2.22.06-4.45.21-6.67a34,34,0,0,1,.47-4.6c.12-.62.47-1.38.25-2a6.42,6.42,0,0,1,.21-3.55c.63-3.29.87-6.6,1.27-9.9.18-1.4.47-2.79.57-4.21.07-1,.57-2.1.56-3.23a9.34,9.34,0,0,1,.76-3.69,9.29,9.29,0,0,0,.76-1.33,11.76,11.76,0,0,0,.68-2.08c.33-1.15.7-2.27,2.12-2.5.48-.24.87-.34.89.42a5.75,5.75,0,0,1-.25,1.94c-.28,1.67-.59,3.33-1,5a8.59,8.59,0,0,0-.24,2.81,1.76,1.76,0,0,0,.58,1.32,3.88,3.88,0,0,0,3.83.74,2.86,2.86,0,0,0,2-2.58,8.54,8.54,0,0,0,.2-1.59,52,52,0,0,1,.5-8c.1-.82.36-1.34,1.19-1.46a84.7,84.7,0,0,1,12-1.43c1.95,0,3.82.58,5.77.53.65,0,1.34-.34,1.95.16a2.83,2.83,0,0,0,1.31.33,53.41,53.41,0,0,0,9.12,0c4.18-.31,8.39-.39,12.58-.55a12.26,12.26,0,0,1,4.86.55c-1.25,1.73-2.71,3.19-3.91,4.87A273.94,273.94,0,0,0,43.94,98.08a94.38,94.38,0,0,0-8.17,21.16c-.07.7-.58.16-.85.3A60.74,60.74,0,0,0,27,122.61c-4,2-7.07,5.19-10,8.46a11.37,11.37,0,0,0-2.88,4.69A17,17,0,0,0,15.23,148c.68,1.33,1.47,2.57,2.24,3.84a1.08,1.08,0,0,1,.13.29.27.27,0,0,1-.28.2c-3.61,0-7.22,0-10.83,0a1.3,1.3,0,0,1-1.28-1.14,12.59,12.59,0,0,1-.67-4,1.44,1.44,0,0,0-.16-.33,1.1,1.1,0,0,1-.46-1.29.85.85,0,0,0-.23-.71c-1.19-.44-.83.36-.74.93.34.46,0,1,.24,1.5h0c.36.45,0,1,.25,1.5v0c.2.25.24.49,0,.71a.94.94,0,0,0-.43.95c.08.82.13,1.64.25,2.44.08.58.15,1.08-.64,1.13a6.32,6.32,0,0,0-1.43,1.49.43.43,0,0,0-.1.23,11.47,11.47,0,0,0-.17,1.94,1.67,1.67,0,0,1,.05.73,1.43,1.43,0,0,0,.3,1.35A6.54,6.54,0,0,0,4,161.94a2.44,2.44,0,0,0,1.18.26,19.71,19.71,0,0,1,2.55.13,2.88,2.88,0,0,0,2.23-.82,4.57,4.57,0,0,0,1.72-3.39,11.43,11.43,0,0,0-.18-3.68c.22,0,.38-.05.54-.05,1.23,0,2.46,0,3.7,0a17.38,17.38,0,0,0,3.06-.06.87.87,0,0,1,.95.41c.23.34.47.67.69,1a11.27,11.27,0,0,0,5,4.08,35.51,35.51,0,0,0,4.26,1.55l3.15,1a.56.56,0,0,1,.31.17c.28.43.76.48,1.18.62a13.87,13.87,0,0,0,4.53,1.06,1,1,0,0,1,.24.05,2.21,2.21,0,0,1,1.92,1.45,3.13,3.13,0,0,0,3.17,1.89c.46,0,.77,0,1,.47A2.81,2.81,0,0,0,47,169.24a1.29,1.29,0,0,0,1.37-.29,9.79,9.79,0,0,1,.89-.72c.16.86.78,1.12,1.39,1.39.22.09.5,0,.64.31a8.65,8.65,0,0,0,2.41-.47,6.21,6.21,0,0,0,1-2.21c.07-.24.08-.55.24-.68s.41.13.62.23a.81.81,0,0,0,.35,0c.28,0,.57,0,.86,0,2,0,4.08.19,6.13.11s3.83-.13,5.75-.07a15.17,15.17,0,0,0,2.33-.13c1.46-.17,2.92-.4,4.38-.6a1.08,1.08,0,0,1,.36,0,4.91,4.91,0,0,0,1.83.07l3.55-.13c1.18,0,2.37,0,3.56-.08,1.39-.06,2.77-.14,4.16-.23.7,0,1.39-.07,2.09-.15,1.78-.21,3.56-.42,5.35-.5a72.71,72.71,0,0,1,8.22.18c.74.05,1.45.23,2.18.29,2.19.2,4.4.08,6.59.18,1.64.08,3.27-.21,4.9,0a2,2,0,0,0,.48,0c1.14-.15,2.29,0,3.43-.14s2.35,0,3.52,0c1.39,0,2.77.15,4.16.18,1.17,0,2.36,0,3.53.08,1.66,0,3.32.23,5,.16a28.24,28.24,0,0,0,4.41-.16c.52.21,1,0,1.57,0,1.29.07,2.6.08,3.9.11a5,5,0,0,0,1.93-.06c1.53.14,3.06,0,4.59.2a13.48,13.48,0,0,0,2.2,0,8.21,8.21,0,0,1,.84-.08c1.23.12,2.45-.08,3.67,0,.69,0,1.39-.09,2.08-.1s1.14.09,1.71.07c1.47,0,2.94-.12,4.41-.18.39-.36.33.12.47.24s0,.5,0,.74a1.6,1.6,0,0,0,.65,1.27c.4.22.71.73,1.29.46a2.21,2.21,0,0,0,1.7-.83c.15-.2.25-.29.45-.08a.76.76,0,0,0,.58.18,2.85,2.85,0,0,0,1.8-.66,4.05,4.05,0,0,0,1.18-1.82c.12-1,.78-.53,1.29-.46a3.21,3.21,0,0,0,1.93-.7,3.06,3.06,0,0,1,2.17-.65,9.93,9.93,0,0,0,3.5-.62,44.15,44.15,0,0,0,9-4,1.29,1.29,0,0,1,1.05-.16,6.79,6.79,0,0,0,1.35.13c1.35,0,2.71.07,4.06.08a10.07,10.07,0,0,0,5.64-1.44l.11,0a4,4,0,0,0,1.89-1.21,1.83,1.83,0,0,1,.75-.51c1.21,1,2.39,2,3.56,3.08a1.9,1.9,0,0,0,1,.51,22.77,22.77,0,0,1,3.1.8,2,2,0,0,0,1.19,0,11.15,11.15,0,0,1,3.31-.32l1.73,0c1.07,0,2.15.09,3.2,0a28.67,28.67,0,0,0,5.79-1.21,2.47,2.47,0,0,0,1.59-1.24c.25-.41.24-1,.72-1.25,0-.13-.05-.3,0-.36a3,3,0,0,0,.47-1.38l0-1A10.48,10.48,0,0,1,236.12,151.19ZM77.82,30.69c0,.38,0,.76,0,1.14s0,.65,0,1a5.94,5.94,0,0,1-.16,1.46,23.33,23.33,0,0,1,.05,3.13c-.05,1.29-.15,2.58-.15,3.87v8.45c0,.47,0,.94,0,1.4a.24.24,0,0,1,0,.17,8.55,8.55,0,0,1-.2,1.76.26.26,0,0,1,.06.29,7.42,7.42,0,0,1-1.94,2.88,10.45,10.45,0,0,1-3,2.22,9.66,9.66,0,0,1-3.49.66c-1.43.07-2.86,0-4.29,0-.65,0-1.31,0-2,0a2.72,2.72,0,0,1-1.41-.3c-1.22-.76-.64-2.39-.83-3.54a1.07,1.07,0,0,0-.66-.9,2.5,2.5,0,0,0-.25-.09c-2.19-.05-4.37-.31-6.55-.57-1.41,0-2.82,0-4.23-.06-1.64-.06-3.28-.15-4.92-.19a.27.27,0,0,1-.25-.16,3,3,0,0,0-.78.25,1.15,1.15,0,0,0-.62.74,13.33,13.33,0,0,1-.29,3.21l0,.19a.33.33,0,0,1-.31.4h-.26a1.35,1.35,0,0,1-.49.21,13.79,13.79,0,0,1-1.81.14c-1.78.11-3.55.3-5.32.48a102.09,102.09,0,0,1-10.76.81.27.27,0,0,1-.24-.12,2.36,2.36,0,0,1-1,0,.33.33,0,0,1-.23-.3A2.48,2.48,0,0,1,22,57.46v-.27a.28.28,0,0,1,.19-.28c0-.09,0-.18.07-.26.22-.89.41-1.78.6-2.67.13-.63.26-1.26.38-1.9.21-1.14.29-2.31.46-3.46A74.52,74.52,0,0,1,25.46,40q.57-2.13,1.29-4.2c.25-.7.51-1.4.79-2.1s.51-1.09.76-1.65a15.47,15.47,0,0,1,.38-1.74,7,7,0,0,1,.51-1.43,8.33,8.33,0,0,1,.25-1.1c.2-.62.49-1.22.71-1.84A11.66,11.66,0,0,0,30.61,24a.42.42,0,0,1,.12-.48,1.87,1.87,0,0,1,.85-.2,13.46,13.46,0,0,1,2-.07c1.62,0,3.24,0,4.86,0,3.21-.13,6.42-.3,9.62-.43,1.59-.06,3.18-.21,4.77-.28s3.17-.09,4.76,0,3.17.15,4.76.2,3.18,0,4.78-.07,3.14,0,4.72,0l2.43.08,1.21,0,.61,0,.29,0a.28.28,0,0,1,.41-.1l.14.07a.2.2,0,0,1,.09.09.29.29,0,0,1,.23.21,22,22,0,0,1,.35,3.53c0,.4,0,.8,0,1.21a2.73,2.73,0,0,1,0,.5s0,0,0,.07A8.35,8.35,0,0,1,77.82,30.69Zm151,118a2.92,2.92,0,0,1-1.67,2,10.17,10.17,0,0,1-5.56,1.39,14.11,14.11,0,0,1-4.24-1.05,8.18,8.18,0,0,1-3.25-2.25,1.14,1.14,0,0,1-.89-1.31,4.56,4.56,0,0,1-.1-2,0,0,0,0,1,0,0c-.37-1.28,0-2.59.09-3.89,0-.3,0-.61-.05-.91-.11-4.78-.06-9.57-.06-14.36s-.18-9.44-.19-14.16a.25.25,0,0,1,.07-.18,5.93,5.93,0,0,1,0-1.19,3.83,3.83,0,0,1,0-1.12.31.31,0,0,1,.57-.08,22.43,22.43,0,0,1,1.56,5.12.38.38,0,0,1,0,.19c.16.44.32.89.5,1.32.49,1.17,1,2.32,1.44,3.51a33.51,33.51,0,0,0,1.42,3.46,15.62,15.62,0,0,0,2,3,12.94,12.94,0,0,1,1.87,2.65,26,26,0,0,1,1.28,3.08c.4,1.14.78,2.27,1.07,3.45s.54,2.51.91,3.75c.72,2.45,2.19,4.61,2.95,7A5.85,5.85,0,0,1,228.82,148.7Z"/><path class="cls-1" d="M128.4,27h-1.13c-.16-.14,0-.33,0-.52l.49-1.36c.14-.41.31-.75.84-.64.29.06.46-.13.55-.37.32-.87.63-1.75.94-2.63a.59.59,0,0,0,0-.23.6.6,0,0,0-.32-.49.37.37,0,0,0-.45,0l-.68.51c-.44,0-.43-.23-.29-.54a3.89,3.89,0,0,0,0-.49c-.22-1,1-2,1.89-2a.75.75,0,0,1,.55.22,2,2,0,0,1,.54.8,10.12,10.12,0,0,1,.41,3.14,1.82,1.82,0,0,1-.65,1.4,6.34,6.34,0,0,1-2.4,1.44c0-.08,0-.16,0-.24s0-.25-.13-.29a.47.47,0,0,0-.23,0,.73.73,0,0,0-.35.49c-.09.27-.1.56-.2.82s0,.53.32.63C128.26,26.8,128.32,26.94,128.4,27Z"/><path class="cls-2" d="M26,19.78l.09.35c.18.67.18.68-.35,1.07a5.33,5.33,0,0,1-.51.31A4.36,4.36,0,0,1,26,19.78Z"/><path class="cls-3" d="M129.93,16.79a.25.25,0,0,1-.23.08c-.31,0-.69.31-.79-.28.1-.05.22-.15.3-.13.35.08.43-.13.49-.38C129.93,16.26,129.91,16.54,129.93,16.79Z"/><path class="cls-4" d="M132.64,0c0,.12,0,.24,0,.36,0,.3-.24.26-.45.17A.53.53,0,0,1,132.64,0Z"/><path class="cls-5" d="M8.17,62.87a.62.62,0,0,1-.79.46A.68.68,0,0,1,8.17,62.87Z"/><path class="cls-2" d="M26.22,19.29c.16.44.16.45-.27.49A.55.55,0,0,1,26.22,19.29Z"/><polygon class="cls-6" points="176.11 75.36 176.04 75.39 176.05 75.31 176.11 75.36"/><path class="cls-7" d="M177.68,165.31a.25.25,0,0,1,0-.12c.1-1,.2-1,1-.53l.31.19c-.07,0-.16.13-.2.11C178.29,164.72,178,164.94,177.68,165.31Z"/><path class="cls-8" d="M170.68,168.06l1.29.46c-.32.36-.66.11-1,0A.42.42,0,0,1,170.68,168.06Z"/><path class="cls-9" d="M169.52,165.81c.06-.15.1-.3.16-.45s.06-.25.23-.19a.22.22,0,0,1,.1.18c0,.23,0,.47,0,.7Z"/><path class="cls-10" d="M1,119.52c.4.31.21.75.26,1.14,0,.16,0,.33.15.44a.14.14,0,0,0,.11,0,.16.16,0,0,0,.11,0c.2-.22-.09-.53,0-.68.37-.39-.51-.71,0-1s-.24-.68.14-.94c-.42-.41-.17-.74,0-1.17a1.48,1.48,0,0,0-.25-1.89,3.53,3.53,0,0,1-.07-1,5.33,5.33,0,0,0,.5-1.75.46.46,0,0,1,.45.29c.45,1.44.06,2.93.23,4.38.24,2-.18,4,0,6a1.42,1.42,0,0,1-.29.92c-.41,1,.1,2.13-.49,3.09a.5.5,0,0,1-.38,0c-.48-.71.07-1.57-.33-2.29A36.77,36.77,0,0,1,1,119.52Z"/><path class="cls-11" d="M3.69,145c-.63-.24-.66-.22-.71.39a.49.49,0,0,0,0,.12,1.94,1.94,0,0,1,0,.24,7.8,7.8,0,0,1-.44-1.91c-.06-.23,0-.53-.2-.68-.44-.33-.39-.76-.41-1.22-.06-1.76-.14-3.53-.21-5.3,0-.4,0-.81,0-1.22A3.78,3.78,0,0,1,1.64,134a.35.35,0,0,1,.3-.16,1.18,1.18,0,0,1,.41.36l.21.28a2.14,2.14,0,0,1,.37,1.27c-.09,2.81.57,5.56.65,8.36C3.58,144.39,4.12,144.64,3.69,145Z"/><path class="cls-11" d="M1.73,127.19H2a.49.49,0,0,1,.2.39,1,1,0,0,1-.07.29c0,.12-.27,0-.12.19a.6.6,0,0,1,.16.22,4.68,4.68,0,0,1,.17.53l0,.14a.93.93,0,0,1,0,.29c0,.14-.07.27-.1.41s0,.27-.06.4.2.18.24.32A11.67,11.67,0,0,1,2.68,133c.07.43-.05.92-.7.86H2c-.51-.28-.33-.76-.37-1.19s.12-.88-.13-1.29v-.25a.29.29,0,0,0,0-.48v0a.69.69,0,0,1,0-.64h0C1.44,129.08,1,128.08,1.73,127.19Z"/><path class="cls-12" d="M1.73,127.19a2.27,2.27,0,0,0-.25,1.17c0,.56,0,1.12,0,1.68a1.12,1.12,0,0,1-.11-.34A46.69,46.69,0,0,1,1.22,125c.39.3.22.73.26,1.11S1.36,126.89,1.73,127.19Z"/><path class="cls-12" d="M1.48,131.4c.32.24.24.59.25.91A2.92,2.92,0,0,0,2,133.88a.72.72,0,0,0-.24.63c0,.31,0,.62,0,.93A18.24,18.24,0,0,1,1.48,131.4Z"/><path class="cls-10" d="M.72,114.82a.67.67,0,0,1,.26.64c0,1.12,0,2.24,0,3.36a1,1,0,0,1-.15-.7C.79,117,.63,115.92.72,114.82Z"/><path class="cls-11" d="M3.19,147.25a.57.57,0,0,1,.27.51c0,.33,0,.66,0,1A2.88,2.88,0,0,1,3.19,147.25Z"/><path class="cls-11" d="M3,145.76a.58.58,0,0,1,.26.52c0,.33,0,.66,0,1A3,3,0,0,1,3,145.76Z"/><path class="cls-11" d="M3.44,148.73c.35.39.35.39,0,.71C3.41,149.21,3.42,149,3.44,148.73Z"/><path class="cls-12" d="M1.44,130.05l0,.64A.5.5,0,0,1,1.44,130.05Z"/><path class="cls-12" d="M1.46,130.67c.28.15.27.31,0,.48A.54.54,0,0,1,1.46,130.67Z"/><path class="cls-10" d="M1,118.8c.2.07.2.14,0,.23Z"/><path class="cls-13" d="M47.28,96.27a8.88,8.88,0,0,0,1-1.72c.4-.67.74-1.37,1.19-2,1.17-1.77,2.4-3.5,3.47-5.33s2.45-3.63,3.55-5.53c.67-1.16,1.51-2.22,2.27-3.32a2.19,2.19,0,0,0,.41-.89,12.19,12.19,0,0,0,.8-1.22c.11,0,.28-.07.32-.15a25.23,25.23,0,0,1,1.55-2.27,17.39,17.39,0,0,1,1.66-2.1,17.52,17.52,0,0,0,1.45-2A15.1,15.1,0,0,1,66.34,68a10,10,0,0,0,1.44-1.81,1.75,1.75,0,0,1,.4-.46,7.6,7.6,0,0,0,1.78-2,2.24,2.24,0,0,1,.33-.36c.56-.84,1.39-1.44,2-2.24.58-.49,1.16-1,1.73-1.48.36-.62,1.13-.85,1.48-1.48,1.27-1.34,2.79-2.41,4.11-3.69a2.46,2.46,0,0,1,.72-.46,3,3,0,0,0,1.47-1.26.74.74,0,0,1,.47-.36A12.09,12.09,0,0,0,85,51c2.08-1.09,3.85-2.7,6-3.68,1.19-1,2.69-1.52,3.88-2.53a4.46,4.46,0,0,1,.75-.4c.66-.4.67-.4,1.1.25a5.38,5.38,0,0,0,.95,1.13,5.14,5.14,0,0,1,.85,1.05A9.92,9.92,0,0,0,102.89,50a11.07,11.07,0,0,0,2.66.48c1.62.26,3.25.46,4.87.85.14,1,.26,2,.4,3a3.28,3.28,0,0,0,.2,1,4.4,4.4,0,0,1,.34,2c0,2.17,0,4.35,0,6.53a30,30,0,0,1-.38,3.52c-.18,1.17-.36,2.35-.53,3.52s-.4,2.17-.62,3.25a30.8,30.8,0,0,0-.62,7.48c0,.81-.14,1.62-.11,2.44A7.1,7.1,0,0,0,109.3,86a5.37,5.37,0,0,1,.11,1.71,10.28,10.28,0,0,1-.11,1.84,9,9,0,0,0,0,2.32c.05.64.28.84.92,1a3.52,3.52,0,0,0,1.58-.06c.38-.11.61-.64,1-.52s.19.67.44,1a.75.75,0,0,0,.49.31,3.31,3.31,0,0,0,2.11-.48,4.11,4.11,0,0,0,1.38-1.37c.31-.42.32-.42.74-.18a2.69,2.69,0,0,0,3-.37.74.74,0,0,0,.1-.22c.13-.23.28-.2.44,0s.15.38.23.56a.79.79,0,0,0,.83.42A1.81,1.81,0,0,0,124.1,91c.15-.25.32-.47.47-.7.12,0,.23,0,.26.09.23.36.46.71.94.69a2.43,2.43,0,0,0,1.56-.6,3,3,0,0,1,.77-.67,1.62,1.62,0,0,0,1.76.75c.72.08,1.11-.65,1.77-.71.24.37.28.87.66,1.16a1.13,1.13,0,0,0,.4.27,2.65,2.65,0,0,0,1.5-.43c.41-.16.57-.65.59-1.21a24,24,0,0,0-.18-5.49,2.19,2.19,0,0,0-.44-1.13,1.56,1.56,0,0,1-.36-1,88,88,0,0,1,0-9.88c.1-2.05.2-4.11.33-6.16a15.45,15.45,0,0,1,.28-2.45,13.25,13.25,0,0,0,.2-3.32c-.07-2-.08-3.95,0-5.92a10.28,10.28,0,0,1,.35-2.68,2.42,2.42,0,0,0-.59-2.29.69.69,0,0,1-.11-.88c.15-.34.23-.7.35-1.05a2.6,2.6,0,0,0,.09-1.33,5.66,5.66,0,0,1,.47-3.34c.31,0,.46.25.65.4,2.14,1.78,4.25,3.59,6.41,5.35.91.75,1.83,1.48,2.78,2.17a32.47,32.47,0,0,1,2.57,2.28c1.18,1.06,2.4,2.09,3.5,3.24a1.44,1.44,0,0,0,.79.57c.51.57,1.21,1,1.56,1.7h0a4.7,4.7,0,0,0,1,1h0a.31.31,0,0,1,.24.27v0c.23.09.17.34.27.5h0a1.14,1.14,0,0,1,.51.51c0,.28.2.44.35.63a70.48,70.48,0,0,1,4.8,7c.95,1.55,1.74,3.21,2.62,4.81,1,1.79,1.88,3.62,3,5.35a.49.49,0,0,0,.18.25h0c.11.16.19.33.3.48s0,.38.2.5h0A1.94,1.94,0,0,1,167,80a33.45,33.45,0,0,0,2.07,3.64c1.79,3,3.6,6.09,5.26,9.21,1,1.84,1.87,3.74,2.93,5.55.8,1.38,1.35,2.9,2.06,4.33,1,2.06,2.11,4.08,3.13,6.14a32.93,32.93,0,0,1,1.37,3.17c.69,1.85,1.32,3.72,2,5.58a2.84,2.84,0,0,0,.7,1.27A2.19,2.19,0,0,1,187,120a21.3,21.3,0,0,0,.82,2.32,23.56,23.56,0,0,1,1.18,4,6.26,6.26,0,0,1-.22,3.41,3,3,0,0,1-1.69,2.12,4.83,4.83,0,0,0-1.43.95,30.72,30.72,0,0,1-4.26,2.72,23.07,23.07,0,0,1-6.83,2.31,41.66,41.66,0,0,0-6.87,1.92c-.16.06-.31.14-.46.18a1.45,1.45,0,0,1-1.39-.24c-.19-.15-.41-.38-.62-.38-.55,0-.73-.38-.95-.79-1.29-2.42-2.64-4.82-3.91-7.26a71,71,0,0,1-3.5-7.88c-.64-1.72-1.27-3.44-1.82-5.2s-1.29-3.78-1.87-5.7c-.68-2.22-1.43-4.42-2.23-6.6-.59-1.61-1.11-3.24-1.85-4.8-.47-1-.75-2.08-1.17-3.11-.5-1.25-1.1-2.47-1.58-3.73s-1-2.25-1.34-3.43-.87-2.12-1.3-3.18c-.93-2.28-1.84-4.55-2.76-6.83a11.68,11.68,0,0,1-.76-4.34,1.59,1.59,0,0,0-.29-1,.52.52,0,0,0-.91,0,1.73,1.73,0,0,0-.42.87,10,10,0,0,0-.11,2,15.2,15.2,0,0,0,1.19,4.5c1.05,2.67,2.07,5.36,3.12,8,.65,1.63,1.4,3.23,2,4.89.85,2.39,2,4.67,2.7,7.13a44.1,44.1,0,0,1,1.68,4.36,26.79,26.79,0,0,1,1.13,3.23c.41,1.62,1,3.2,1.48,4.8.27.85.59,1.69.88,2.52-.08.07-.13.16-.19.16-1.23.14-2.45.32-3.65.58a6.11,6.11,0,0,1-.86.09,62.63,62.63,0,0,0-6.26.65c-.77.12-1.55.17-2.33.25-2.21.22-4.4.57-6.59.92a74.27,74.27,0,0,1-9.05,1.23c-1.8.06-3.61.06-5.41,0-2.88,0-5.75,0-8.62-.16-2-.09-4-.28-6-.41s-4.17-.5-6.27-.52a8.36,8.36,0,0,1-.86-.09c-2.28-.26-4.57-.49-6.85-.77A46.7,46.7,0,0,1,83,118.44c-.75-.2-1.47-.49-2.2-.75-.3-.1-.41-.3-.28-.56A26,26,0,0,0,82.32,111c.32-1.31.63-2.62.94-3.93a3.72,3.72,0,0,0,.17-1.33c.36-1.44.88-2.84,1.22-4.29a8.79,8.79,0,0,0,.75-2.18A9.49,9.49,0,0,1,85.83,98c.34-.69.41-1.48.72-2.2s.39-1.24.6-1.86A33.57,33.57,0,0,0,88,90.12a5.06,5.06,0,0,1,.42-1.28c.38-.77.76-1.53,1.13-2.3a1.44,1.44,0,0,0,.07-.36c0-.13.12-.21.18-.32h0c.28-.15,0-.56.32-.68a68.42,68.42,0,0,0,3.12-8c.37-1,.82-2,1.26-3.13-.44-.3-.93-.14-1.42-.15-.21.52-.41,1-.6,1.51a82.92,82.92,0,0,1-3.84,8.81c-1.06,2.08-2.28,4.09-3.49,6.09S82.83,94,81.61,95.87c-.93,1.4-2,2.73-2.9,4.11-1.46,2.17-2.92,4.33-4.32,6.54-.63,1-1.34,2-2,3-.93,1.48-2,2.9-2.82,4.42-.56,1-1.26,1.91-1.86,2.88-.9,1.45-1.86,2.86-2.62,4.4s-1.58,3.07-2.24,4.66C62,128,61,130.11,60.2,132.32a17.89,17.89,0,0,0-1.06,4.43.65.65,0,0,1-.49.63,8.39,8.39,0,0,1-.84.18A28.7,28.7,0,0,1,54,138c-1.39,0-2.78.08-4.18,0s-2.74-.33-4.11-.44-2.71-.16-4.06-.22c-.74,0-1.48,0-2.22,0a28.94,28.94,0,0,1-5.05-.92.77.77,0,0,1-.65-.79,5,5,0,0,1,0-1.09c.28-1.32.54-2.64.89-3.94.68-2.53,1.4-5,2.12-7.55q.8-2.7,1.65-5.39c.42-1.33.91-2.64,1.3-4,.24-.82.59-1.6.81-2.43.16-.59.4-1.15.55-1.75a11.46,11.46,0,0,1,.75-1.91q1.1-2.52,2.21-5a14.06,14.06,0,0,1,1.49-3,18.85,18.85,0,0,0,1-2,1,1,0,0,1,.21-.29h0C47.06,97,47.07,96.58,47.28,96.27Z"/><path class="cls-13" d="M2.25,124.22a4.31,4.31,0,0,0,.12-1.44c-.08-.87,0-1.76,0-2.64,0-.48-.07-1-.07-1.45s.25-.87,0-1.3c-.09-.15.08-.31.08-.46a27,27,0,0,1,0-3.24c.05-.25-.2-.53-.14-.83a3.8,3.8,0,0,0-.08-2A139.77,139.77,0,0,1,3.25,95.32c.44-4.19,1-8.36,1.51-12.55.29-2.55.66-5.11,1.19-7.63.27-1.14.7-2.24,1-3.38a9.78,9.78,0,0,0,.6-1.83c.09-.6.5-1.06.5-1.68s.41-.76.84-.91.7-.19,1.05-.29c.75-.28,1.2-.13,1.12.78a5.5,5.5,0,0,1-.1,1.46,32.29,32.29,0,0,1-1.1,5.77,13.46,13.46,0,0,0-.24,2.19,1.37,1.37,0,0,0,.61,1.27,3.19,3.19,0,0,0,2.35.82,2,2,0,0,1,.48-.06,2.09,2.09,0,0,0,1.86-1A2.57,2.57,0,0,0,15.42,77a46.55,46.55,0,0,0,.24-6.13A6.29,6.29,0,0,1,16,68.89a3.08,3.08,0,0,0,.16-1.2c0-.49,0-1,0-1.47a.47.47,0,0,1,.43-.51c1.53-.3,3.06-.63,4.6-.85s3.34-.42,5-.69A24,24,0,0,1,28.85,64c.37,0,.74,0,1.11,0a12.84,12.84,0,0,1,3.65.48,5.56,5.56,0,0,0,2,.14c.57.31,1.25-.21,1.81.23a16.55,16.55,0,0,0,3.65.43,44.76,44.76,0,0,0,5.18,0c3.21-.28,6.42-.29,9.63-.44.94,0,1.89-.14,2.83-.22a28.71,28.71,0,0,1,3.71,0,5.27,5.27,0,0,1,1.58.25,5.25,5.25,0,0,0,1.58.17c.09,0,.19,0,.2.1s0,.27,0,.34c-.54.67-1.12,1.31-1.65,2q-1.62,2-3.18,4.06c-1.45,1.88-2.7,3.9-4,5.87s-2.78,4.25-4.14,6.4q-1.77,2.81-3.47,5.65c-.71,1.19-1.26,2.49-2,3.63-1,1.46-1.77,3-2.62,4.58a87.16,87.16,0,0,0-3.94,8.07c-.83,2-1.56,4-2.23,6s-1.36,4.31-2,6.48a6.08,6.08,0,0,1-.5,1.37c-.22.23-.54,0-.79.17L31.8,121l-1.27.47a23.31,23.31,0,0,0-3.83,1.63,27.12,27.12,0,0,0-4.54,3.3A65.35,65.35,0,0,0,17,131.52a14.3,14.3,0,0,0-1.4,1.71,13.47,13.47,0,0,0-.69,1.43,11.8,11.8,0,0,0-1.1,4.83,24.68,24.68,0,0,0,.59,5.75,5,5,0,0,0,.4,1,47.11,47.11,0,0,0,3.05,5.64c-.12.83-.87.36-1.27.61-3.19,0-6.39,0-9.59,0-1.4,0-1.71-.45-1.92-1.85-.19-1.24-.4-2.48-.69-3.71a49.6,49.6,0,0,1-1.3-7.69c-.15-2.26-.36-4.53-.53-6.79-.09-1.2-.28-2.4-.28-3.61v0A38.63,38.63,0,0,1,2.25,124.22Z"/><path class="cls-13" d="M65.34,126.22a2.36,2.36,0,0,0,.49-1.24A8.61,8.61,0,0,1,67.36,122h0c.07-.18,0-.41.25-.52a7.48,7.48,0,0,1,2,.47c2.34.62,4.67,1.27,7,1.93,1.19.33,2.37.67,3.55,1,1.76.55,3.51,1.15,5.26,1.72a1.94,1.94,0,0,1,1.24.74c.14.25.42.23.65.3a13.2,13.2,0,0,1,2.74,1.36,23.77,23.77,0,0,0,5.42,2.55c1.73.54,3.49.89,5.24,1.33a27.14,27.14,0,0,1,4.66,1.56,37.14,37.14,0,0,0,4.69,1.85,67.34,67.34,0,0,1,6.29,2.41,7.68,7.68,0,0,1,2.06,1,.9.9,0,0,0,.32.17c1.27.33,2.17,1.31,3.28,1.91a1.48,1.48,0,0,1,.84,1.4c0,.9,0,1.8,0,2.7,0,1.89,0,3.78,0,5.67a27.66,27.66,0,0,0,.4,4.54,32,32,0,0,1,.32,6.77c0,.5-.08.57-.58.57-3.29,0-6.57.3-9.85.21a2.14,2.14,0,0,0-.62,0,12.25,12.25,0,0,1-3.2.1c-1.77-.1-3.53-.23-5.3-.27-2.39,0-4.78,0-7.17-.06-1.2,0-2.39,0-3.59,0a32.44,32.44,0,0,0-4.29.3c-1.18.14-2.37.18-3.56.23L73,164.57a20.75,20.75,0,0,0-2.08.27,34.51,34.51,0,0,1-4.43.23c-1.56,0-3.12.07-4.67.24a12.57,12.57,0,0,1-2.94.09c-.19,0-.28-.13-.24-.33.77-.44.79-1.29,1.06-2a3.56,3.56,0,0,0,.18-1.09c.11-2,0-3.9-.06-5.86a13.11,13.11,0,0,0-.33-1.94c-.2-1.16-.43-2.32-.62-3.48s-.13-2.43-.2-3.65c-.12-1.88-.1-3.76-.26-5.63-.05-.53,0-1.06,0-1.58a.55.55,0,0,1,.27-.52c.21-.13.45-.21.66-.33a1.71,1.71,0,0,0,.87-.83c.32-.71,1-1.23,1.21-2s.47-1.4.63-2.12a16.7,16.7,0,0,1,1.27-3.16,22.38,22.38,0,0,1,1.52-3.69h0C65.07,126.91,65.08,126.5,65.34,126.22Z"/><path class="cls-13" d="M170.94,83.81a3,3,0,0,1,1.45-.12c.94,0,1.88,0,2.82,0a6.35,6.35,0,0,1,2.51.53c1.55.64,3.08,1.32,4.67,1.86a34.13,34.13,0,0,0,4.35,1.2A26.22,26.22,0,0,1,191,88.42a45.71,45.71,0,0,0,4.59,1.38,7.58,7.58,0,0,1,1.51.47,14,14,0,0,0,5,1.23,4,4,0,0,0,1.46.14c.64.35,1.4.47,2,.8a16,16,0,0,1,2.82,1.73l.26.21c.33.23.5.54.33.79-.45.64-.65,1.4-1,2.08a39.75,39.75,0,0,0-3.07,6,12.06,12.06,0,0,0-.76,4.6c.08,2.46,0,4.93-.08,7.39a6.1,6.1,0,0,0,.13,1.7,9.41,9.41,0,0,1,.19,2.32c0,1,0,2,0,3.07a2.81,2.81,0,0,1-.05.49c-.07.35-.2.48-.59.48-.77,0-1.55,0-2.33-.06s-1.31,0-2,0A19.88,19.88,0,0,1,197,123a15.81,15.81,0,0,0-3.44-.1,3.53,3.53,0,0,0-1.07.29,1,1,0,0,1-1.13-.21c-.55-.58-1.36-.73-2-1.19a.89.89,0,0,1-.46-.66,20.48,20.48,0,0,0-1.58-4.9c-.6-1.57-1-3.19-1.74-4.73-.52-1.16-1.06-2.31-1.52-3.5a14.38,14.38,0,0,0-1.94-3.41,13.35,13.35,0,0,1-1.74-3.11c-.57-1.45-1.38-2.8-2.06-4.21-2.1-4.29-4.49-8.42-6.91-12.53A1.93,1.93,0,0,1,170.94,83.81Z"/><path class="cls-13" d="M166.75,162.85a9.06,9.06,0,0,1-2.39-2.27,8.13,8.13,0,0,0-2.65-2c-.71-.31-1.43-.62-2.12-1a17.41,17.41,0,0,0-4.68-1.81,1.44,1.44,0,0,1-1.22-.9,2,2,0,0,0-1.16-1.06,4,4,0,0,1-1.59-1.1,19.47,19.47,0,0,0-2.28-1.86c-.43-.37-.91-.69-1.35-1.06A6.47,6.47,0,0,0,146,149c-1.42-.71-2.81-1.49-4.24-2.21-.88-.44-1.79-.8-2.7-1.2-.75-.33-1.49-.68-2.25-1a20.76,20.76,0,0,1-2.7-1.48,6.92,6.92,0,0,0-3.23-1,12.4,12.4,0,0,1-2-.49c-1.3-.24-2.6-.4-3.91-.54a1.05,1.05,0,0,1-.92-.52,2,2,0,0,0-1.08-.77c-1.57-.71-3.14-1.42-4.73-2.09s-3.21-1.23-4.79-1.9c-1.21-.52-2.37-1.14-3.55-1.71l-1.44-.69a.5.5,0,0,1-.32-.4,34.6,34.6,0,0,1,4.19-.87l1.21-.18c1.58-.25,3.18-.34,4.77-.48,2-.18,4.1-.21,6.14-.45,1.46-.17,2.95-.11,4.42-.14,1.64,0,3.28,0,4.91-.09,2.84-.09,5.65-.52,8.47-.8,1.47-.15,3-.2,4.42-.31.86-.06,1.72-.14,2.58-.23a21.83,21.83,0,0,1,2.69-.16c1.27,0,2.54,0,3.82,0l.86,0a1,1,0,0,1,1.1.78,2.26,2.26,0,0,0,.22.44c.17.1.09.36.26.47h0a1.46,1.46,0,0,0,.21.28,9.48,9.48,0,0,0,1.22,2.23,2.19,2.19,0,0,1,.49.78c.6,1.19,1.13,2.41,1.81,3.55a12,12,0,0,0,1.15,2.11c.24.08.16.34.27.49h0a5.9,5.9,0,0,1,.43.59,2.1,2.1,0,0,1,.13.26l.06.13a.55.55,0,0,0,.15.24l.27,10.08c0,1.47.16,2.95.15,4.42a8.14,8.14,0,0,0,1.26,4.3,15.09,15.09,0,0,1,1.32,2.48A.19.19,0,0,1,166.75,162.85Z"/><path class="cls-13" d="M18.29,149.74c-.32-.51-.63-1-.94-1.53-.56-.66-.74-1.54-1.27-2.21a8.73,8.73,0,0,1-.29-2.27,15.82,15.82,0,0,0-.06-1.95,18.09,18.09,0,0,1,.07-3.29,8.41,8.41,0,0,1,1-3.25A11.65,11.65,0,0,1,19,132.31a50.09,50.09,0,0,1,3.76-3.67,1.44,1.44,0,0,0,.24-.42A8.3,8.3,0,0,1,24.54,127a23.57,23.57,0,0,1,3.19-2,28,28,0,0,1,3-1.31,31.26,31.26,0,0,0,4.11-1.91c.44,0,.43.22.27.53-.47,1.74-.92,3.49-1.4,5.22s-.9,3.16-1.36,4.73a13.23,13.23,0,0,0-.49,4.15.79.79,0,0,0,.42.68,10.81,10.81,0,0,0,4.63,1.6,21.07,21.07,0,0,0,3.18.37,1.17,1.17,0,0,1,.36.12c-.39,3.8-1,7.57-1.13,11.37s0,7.61.26,11.44a8.18,8.18,0,0,1-3.23-.51,1.71,1.71,0,0,0-.48-.09,54.94,54.94,0,0,1-5.41-2l0,.06,0-.06a33.73,33.73,0,0,1-5.08-1.81,10.63,10.63,0,0,1-2.63-2c.1-.51-.39-.58-.64-.84a7.53,7.53,0,0,1-.86-1,.77.77,0,0,1-.51-.28c-.55-.75-1.13-1.47-1.69-2.21C18.7,150.76,18.75,150.11,18.29,149.74Z"/><path class="cls-13" d="M113.87,52.45a33.31,33.31,0,0,1,4.84.92,3,3,0,0,0,.86.1,38.63,38.63,0,0,0,9-.77A3.75,3.75,0,0,0,130,52c.55-.43,1.11-.85,1.67-1.27.16-.12.28-.31.62-.28a3,3,0,0,1,.41,1.77c0,2,.09,4,0,6,0,.9-.09,1.79-.21,2.69a9.55,9.55,0,0,0,0,2.07,26.35,26.35,0,0,1,0,4.26c-.09,1.27-.14,2.54-.19,3.81,0,1,.06,2,.07,3.08q0,3.19.13,6.41a7.61,7.61,0,0,1-.09,1c-.06.6-.16.68-.75.72-.86,0-1.72.13-2.58.13a16.06,16.06,0,0,0-4.13.62,34.3,34.3,0,0,1-3.5.67,49.45,49.45,0,0,0-5,.86,6.93,6.93,0,0,1-3.14.16,1.15,1.15,0,0,0-.6.09,3.71,3.71,0,0,1-1.59.08.46.46,0,0,1-.46-.48,7.65,7.65,0,0,1,0-2,12.71,12.71,0,0,0,.2-2.82,14.63,14.63,0,0,1,.38-3.29c.61-2.84,1.23-5.69,1.6-8.58a42.53,42.53,0,0,0,.44-4.65,34,34,0,0,0-.15-5.52c-.1-.77.07-1.55-.06-2.33a12.31,12.31,0,0,1,0-1.72C113,52.83,112.74,52.11,113.87,52.45Z"/><path class="cls-13" d="M110.87,32.15l2.75.18,1.19.1c.28.4,0,.58-.31.69s-.77.18-1.14.32c-1.42.49-2.84,1-4.31,1.37a36.87,36.87,0,0,1-4.88.74,3.56,3.56,0,0,1-.94-.11.52.52,0,0,1-.46-.5,5.38,5.38,0,0,1-.06-1,12.57,12.57,0,0,0-.25-2.45.43.43,0,0,0-.17-.29c-.17-.09-.3,0-.43.15a1.58,1.58,0,0,0-.54.94,9.44,9.44,0,0,0,.05,3.78.59.59,0,0,0,.39.43,2.46,2.46,0,0,0,.59.16.56.56,0,0,1,.55.41c.09.3.38.33.6.34a32.78,32.78,0,0,0,4.54-.09,26,26,0,0,0,4.25-1.1c.11,0,.19-.15.3-.18l4.33-1.36,1.06-.32c.78-.21,1.5-.59,2.31-.73a5.8,5.8,0,0,0,1.86-.93,13,13,0,0,0,2.65-2,7,7,0,0,0,1.68-2.27c.12-.29.26-.32.57-.14a16.36,16.36,0,0,0,2,1.14,5.18,5.18,0,0,1,2.67,2.44,9.2,9.2,0,0,0,.86,1,.84.84,0,0,0,.51.28c.6.2.6.21.09.71a.73.73,0,0,0-.24.54c0,.29-.07.57-.05.85a4.06,4.06,0,0,1-1.71,3.51,13.11,13.11,0,0,1-4,2.24c-1,.36-2,.64-2.91,1a19,19,0,0,1-4.79.91c-1.47.14-3,.12-4.43.12a3.49,3.49,0,0,0-.73,0,.3.3,0,0,0-.23.38,1.2,1.2,0,0,0,.54.79,4.37,4.37,0,0,0,1.94.73,21.82,21.82,0,0,0,7.2-.56,32.11,32.11,0,0,0,6-2.29A8.21,8.21,0,0,0,133,39.78a.68.68,0,0,1,.48-.34,3.36,3.36,0,0,1-.21,2.07,4.31,4.31,0,0,0-.36,2c0,.62,0,1.24,0,1.85a2.44,2.44,0,0,0,.15.84,2,2,0,0,1-.73,2.28c-.25.19-.59.27-.61.69,0,.12-.21.24-.34.33a10.9,10.9,0,0,1-1.24.8A9.79,9.79,0,0,1,125,51.64a20.43,20.43,0,0,0-2.58.12,29.46,29.46,0,0,1-6.6-.32,66,66,0,0,1-8.22-1.62,18.09,18.09,0,0,1-6.75-3.4,14,14,0,0,1-2.89-3.31,1.85,1.85,0,0,1-.29-1.28c.15-1.38.22-2.76.49-4.12a7.56,7.56,0,0,0,.16-1.83,10.63,10.63,0,0,1,.4-2.75,6.35,6.35,0,0,1,1.16-2.25,2.11,2.11,0,0,1,1.55-.64,6.59,6.59,0,0,1,3.71.68,12.8,12.8,0,0,0,3.53,1C109.4,31.68,110.12,32.08,110.87,32.15Z"/><path class="cls-13" d="M71.52,120.75c1.19-.26,2.39-.48,3.57-.81s2.38-.51,3.53-.94a1.47,1.47,0,0,1,1.07.06c1.36.46,2.71,1,4.11,1.29a56.45,56.45,0,0,0,6.94,1.16c2.78.3,5.57.58,8.36.86,1.1.11,2.21.2,3.32.27,3.62.25,7.23.51,10.86.51,2.71,0,5.42,0,8.14,0a47.58,47.58,0,0,0,8-.75c3.23-.61,6.48-1.13,9.75-1.53,1.55-.18,3.1-.39,4.66-.54,1.22-.11,2.46-.15,3.69-.2a32.69,32.69,0,0,0,3.42-.47,12.77,12.77,0,0,1,1.85-.12.65.65,0,0,1,.69.55c.66,2.11,1.64,4.1,2.4,6.17.19.53.68,1,.58,1.67-.85,0-1.71,0-2.56,0-1.32,0-2.64,0-3.95,0-2.59.14-5.17.31-7.75.53-1.68.14-3.36.4-5,.57-2.17.22-4.35.32-6.53.33s-4.6,0-6.9.21c-2,.16-4,.26-6,.38a58.82,58.82,0,0,0-6.61.84,37.89,37.89,0,0,0-5.14,1.29,1.11,1.11,0,0,1-.72,0c-2.54-.8-5.11-1.53-7.63-2.41-3.22-1.12-6.39-2.39-9.6-3.53-2.16-.77-4.36-1.45-6.55-2.15-2.9-.92-5.82-1.77-8.78-2.48-.32-.07-.63-.18-.94-.28C71.57,121.1,71.32,121,71.52,120.75Z"/><path class="cls-13" d="M164.68,163.72a2.7,2.7,0,0,1-1,.12c-2.13.07-4.27.15-6.4.18-1.07,0-2.14-.06-3.2-.09-1.28,0-2.56-.12-3.83-.07-1.93.09-3.85-.07-5.78,0-1.52,0-3,.13-4.55.15-3,0-5.9-.09-8.85-.21l-4.56-.19a7.43,7.43,0,0,1-.54-3.37,9.12,9.12,0,0,0-.31-2.44,34.5,34.5,0,0,1-.4-4.86c0-1.15,0-2.3-.18-3.45-.08-.73,0-1.47,0-2.2,0-1,0-2.05-.07-3.07,0-.46.06-.47.6-.48,1.24,0,2.44.36,3.67.33a9.69,9.69,0,0,1,5.18,1.23,33.08,33.08,0,0,0,3.48,1.58,3.44,3.44,0,0,1,1.12.75l1.15,1.12a5,5,0,0,0,1.1.78,17.28,17.28,0,0,1,3.05,1.84,20.18,20.18,0,0,0,4.31,2.6,7.53,7.53,0,0,1,2.48,1.74,5.8,5.8,0,0,0,3.1,1.67,17.14,17.14,0,0,1,3.77,1.47,22.73,22.73,0,0,0,2.12,1,7.54,7.54,0,0,1,2.81,2C163.47,162.41,164.05,163,164.68,163.72Z"/><path class="cls-13" d="M201.65,133.18c.54.9,1.2,1.73,1.71,2.67a4.1,4.1,0,0,1,.41,1.51,23.87,23.87,0,0,1-.37,7.59,13.91,13.91,0,0,1-2.42,5.2,3.21,3.21,0,0,0-.19.31,17.83,17.83,0,0,1-2.37,3.24,1.88,1.88,0,0,0-.23.42c-.62.71-1.4,1.26-2,2h0c-.1.23-.35.17-.52.27-.58.57-1.16,1.16-1.76,1.71a11.28,11.28,0,0,1-1.14.93,3,3,0,0,1-2.09.58,1.78,1.78,0,0,0-1.17.23,5.36,5.36,0,0,1-2,.64,8,8,0,0,0-2.21.68,3.87,3.87,0,0,1-1.48.29,9.44,9.44,0,0,0,1.27-2.54,21.09,21.09,0,0,0,.59-6.81c0-1.14,0-2.28-.06-3.42a6,6,0,0,0,.11-1.2q0-3.48-.22-6.93a4.33,4.33,0,0,0-.23-1.34c-.15-.41-.05-.85-.22-1.29a8.78,8.78,0,0,1-.23-1.8c0-.21.09-.3.23-.39,1.14-.78,2.29-1.56,3.37-2.42a5.92,5.92,0,0,0,2.12-3.75,4.43,4.43,0,0,0,0-2.08,13.39,13.39,0,0,1-.27-1.7c0-.16,0-.38-.12-.47-.39-.36-.34-.91-.62-1.32-.07-.25,0-.34.26-.26a5.62,5.62,0,0,1,1.3.93,1.5,1.5,0,0,0,.59.42,4.58,4.58,0,0,1,1.87,1.37c.6.56,1.12,1.22,1.76,1.73.92.76,1.92,1.42,2.88,2.12.07,0,.15.13.21.12,1.18-.27,1.46.77,2.05,1.37a1,1,0,0,0,.2.14C200.94,132.38,201.46,132.66,201.65,133.18Z"/><path class="cls-13" d="M199.13,156.1a34.24,34.24,0,0,0,3.79-5,20.49,20.49,0,0,0,2.3-5,14.38,14.38,0,0,0,.44-2.15,48.35,48.35,0,0,0,.2-6.25,4.85,4.85,0,0,0-.66-2.48,22.76,22.76,0,0,0-1.24-2,37.89,37.89,0,0,0-3.72-4.59,10.78,10.78,0,0,0-2.72-1.84c-.35-.19-.8-.18-1.07-.53s-.55-.6.11-.62a2.54,2.54,0,0,1,.95,0,10.14,10.14,0,0,0,2.46-.07,23.23,23.23,0,0,0,3.54.1,4,4,0,0,0,1.61-.29,1.33,1.33,0,0,0,.94-1.41c-.21-1.68-.08-3.36-.15-5,0-.62-.1-1.23-.17-1.84a18.35,18.35,0,0,1-.13-2.46c0-2-.14-3.92-.09-5.88a16.42,16.42,0,0,1,2-7c.64-1.23,1.36-2.42,2-3.64.19-.32.18-.32.53.13.35.27,0,.72.23,1a1.75,1.75,0,0,0,.36,1.26,2.11,2.11,0,0,1,.41,1.15,20.82,20.82,0,0,1,.23,3c.25,8.52.26,17,.27,25.56a19.86,19.86,0,0,1-.66,5.74,7.71,7.71,0,0,0-.25,2.2c0,2,0,3.94,0,5.91,0,1.34,0,2.7,0,4a5.72,5.72,0,0,1-.55,2.73,33.62,33.62,0,0,1-1.93,3.26,4.49,4.49,0,0,1-2.83,1.79,7.38,7.38,0,0,0-1.4.45,3.53,3.53,0,0,1-1.42.28,14.86,14.86,0,0,1-2.83.06C199.53,156.44,199.05,156.57,199.13,156.1Z"/><path class="cls-13" d="M56.28,139.89c0,1.93.18,3.85.25,5.77,0,1.22.06,2.45.15,3.68.06.72.15,1.43.28,2.14.3,1.57.67,3.13.89,4.71.15,1.09.08,2.21.15,3.32a9.33,9.33,0,0,1-.08,2.69,4,4,0,0,1-.3.93.69.69,0,0,1-1.21.11,3.41,3.41,0,0,1-.79-2.15c0-2.42-.12-4.83-.14-7.25a4.5,4.5,0,0,0-.62-1.71.46.46,0,0,0-.55-.17,1.46,1.46,0,0,0-1.08,1.34c0,.9,0,1.81,0,2.71.05,1.68.17,3.37.15,5.05a33,33,0,0,1-.34,3.55c-.08.69-.2,1.38-.33,2.07-.06.32-.17.63-.25.95a.73.73,0,0,1-.7.59.91.91,0,0,1-1-.57,7,7,0,0,1-.6-3.12c0-.37.05-.74.11-1.11a30.41,30.41,0,0,0,.24-5c0-1.4-.09-2.79-.1-4.19a4.79,4.79,0,0,0-.52-2,.32.32,0,0,0-.42-.16c-.48.15-.91.37-1,1-.08.78-.22,1.55-.24,2.33,0,2.26-.07,4.52-.09,6.78,0,.82,0,1.64,0,2.47a7,7,0,0,1-.79,2.83.88.88,0,0,1-.25.26c-.15.12-.34.15-.44,0-.63-1-1.23-1.95-.82-3.21a10.73,10.73,0,0,0,.44-3.28c0-2.14-.06-4.28-.06-6.42a3.22,3.22,0,0,0-.5-1.63.47.47,0,0,0-.64-.15,1.06,1.06,0,0,0-.64,1c0,.78-.06,1.56-.14,2.34-.13,1.27-.38,2.52-.44,3.8a30.47,30.47,0,0,0,0,3.94,5.06,5.06,0,0,1-.2,1.69c-.06.27-.33.34-.58.22a1.65,1.65,0,0,1-.79-1.06,14.55,14.55,0,0,1-1-4.32c0-.82-.06-1.64-.08-2.46,0-1.11-.11-2.22-.1-3.32a62.57,62.57,0,0,1,.31-7.62c.17-1.26.23-2.54.36-3.8s.26-2.53.4-3.79c0-.28.15-.46.46-.46s.83,0,1.24,0c1.35.12,2.71.22,4.05.4a18.54,18.54,0,0,0,3.57.18,24.88,24.88,0,0,1,2.59-.06A20,20,0,0,1,56.28,139.89Z"/><path class="cls-13" d="M174.29,152.05a1.22,1.22,0,0,0-.72,1.21c0,.74,0,1.48,0,2.22a36.12,36.12,0,0,1-.24,6.41,21.52,21.52,0,0,1-.59,3.65,5.28,5.28,0,0,1-.52,1.1.25.25,0,0,1-.31.12c-.15,0-.15-.17-.16-.29,0-1.23-.08-2.47-.11-3.7-.08-2.83-.16-5.66-.22-8.49a1.4,1.4,0,0,0-.92-1.44c-.34-.14-.55-.12-.72.15a2.19,2.19,0,0,0-.23.83,22.28,22.28,0,0,0,0,2.71c0,1.57-.06,3.13-.11,4.69a3,3,0,0,1-.14.59s-.06.1-.08.09-.19,0-.21-.06a23.94,23.94,0,0,1-2.16-4.4,2.52,2.52,0,0,1,0-.73c0-1.67,0-3.34-.15-5a3.4,3.4,0,0,1,0-1.1c.27-.86-.2-1.69,0-2.54a1.51,1.51,0,0,0-.13-.6c0-.16-.15-.36-.09-.47.31-.56,0-1.12,0-1.67a13.94,13.94,0,0,0,0-1.71c0-.58-.07-1.15-.15-1.72s.08-.73.55-.74c1.16,0,2.26-.37,3.43-.37a11.31,11.31,0,0,0,2.88-.61,9.26,9.26,0,0,1,1.54-.35,5.35,5.35,0,0,0,1-.18c1.52-.46,3.05-.88,4.58-1.33a5.71,5.71,0,0,0,.64-.35c.52-.22,1-.43,1.57-.63a.23.23,0,0,1,.29.15,1.44,1.44,0,0,1,.07.36,6.56,6.56,0,0,0,.12,1,16.55,16.55,0,0,1,.44,4.15c.05,2.34.18,4.69.27,7,.06,1.69.15,3.37.17,5.06a12.43,12.43,0,0,1-.28,2.91,8.3,8.3,0,0,1-1.89,3.28,1.24,1.24,0,0,1-.89.38.42.42,0,0,1-.5-.51,26.83,26.83,0,0,1,.44-3.79,14.16,14.16,0,0,0,.14-3.68,1.52,1.52,0,0,0-1.49-1.5.5.5,0,0,0-.52.26,2.53,2.53,0,0,0-.36,1c0,1-.14,2-.19,2.95a12.49,12.49,0,0,0,0,1.73,4,4,0,0,1-.16,1.58,32.17,32.17,0,0,1-2,5c0,.06-.13.14-.19.14s-.21-.09-.22-.23c0-1.47-.09-2.94-.09-4.42,0-2,.15-4,0-6,0-.21,0-.41,0-.62a1.1,1.1,0,0,0-.74-1.16A3.76,3.76,0,0,1,174.29,152.05Z"/><path class="cls-13" d="M226.18,135.35a1.53,1.53,0,0,0,0-.37,17.09,17.09,0,0,0-1.59-4.35c-.79-1.3-1.47-2.66-2.2-4a7.52,7.52,0,0,0-.58-1,18.24,18.24,0,0,1-2.27-4c-.15-.34-.25-.68-.67-.82s-.39-.42-.5-.68a15.64,15.64,0,0,1-.64-1.73c-.61-2.14-1.25-4.27-1.75-6.44a21.05,21.05,0,0,0-1.6-4.12,1.77,1.77,0,0,0-.34-.5,2.41,2.41,0,0,1-.7-1.53,10.36,10.36,0,0,1-.1-2.08,24.68,24.68,0,0,0-.6-5.06,5.84,5.84,0,0,1-.11-.73c-.09-.3-.17-.6.32-.57a1.68,1.68,0,0,1,.27.26c.68,1.31,1.37,2.61,2,3.94a14.63,14.63,0,0,1,.71,1.95,19.94,19.94,0,0,0,1.07,2.88,12.89,12.89,0,0,1,.82,2c.24.8.75,1.46,1.05,2.23.76,2,1.58,4,2.52,5.94.59,1.21,1.27,2.39,1.79,3.64.7,1.7,1.48,3.37,2.1,5.1a51,51,0,0,0,2.81,6.95c.57,1.09,1.09,2.21,1.63,3.31a3.68,3.68,0,0,1,.21.45,27.18,27.18,0,0,1,.91,3.13,18.19,18.19,0,0,0,.76,2.67c.43,1.36.85,2.74,1.39,4.07a21.93,21.93,0,0,1,.85,3,10.92,10.92,0,0,1,.2,2.5c0,.61,0,1.21,0,1.82a3.79,3.79,0,0,1-1.46,2.87,10.5,10.5,0,0,1-1.6,1.05,6.27,6.27,0,0,1-2.79.81c-2.72.36-5.46-.06-8.18.24a8,8,0,0,1-1.1-.1,5.78,5.78,0,0,1-2.33-.63,2.76,2.76,0,0,1-1.44-1.23,18.38,18.38,0,0,1-2.34-2.16c-.05-.33,0-.67,0-1s0-.58.18-.82.27-.5.39-.76a1.11,1.11,0,0,1,.77-.56c.18-.06.32-.07.43.07a7.19,7.19,0,0,0,2.9,2c.4.19.76.5,1.25.42.75.81,1.7.49,2.6.46s2.06,0,3.08-.15a13.13,13.13,0,0,0,2.63-.5,10.59,10.59,0,0,0,1.8-1c0-.56.7-.17.86-.6s.62-.38.89-.61a1.58,1.58,0,0,0,.61-1.25c0-.49,0-1-.06-1.47a7.83,7.83,0,0,0-1.89-4.9,5.42,5.42,0,0,1-1-1.95c-.5-1.5-.91-3-1.36-4.54-.33-.27,0-.71-.26-1h0C226.19,135.9,226.41,135.55,226.18,135.35Z"/><path class="cls-13" d="M119.31,16.31a5.15,5.15,0,0,0,4,1.05,1.07,1.07,0,0,0,1.07-.86c0-.32.25-.37.51-.42.44-.09.87-.21,1.32-.33a3.1,3.1,0,0,1,.19,1.31c.07,2.13,0,4.25-.12,6.38a6,6,0,0,1-.23.95A18.35,18.35,0,0,1,125,27.52a8.35,8.35,0,0,1-2,2.87.93.93,0,0,1-.65.27l-4.79.2a.7.7,0,0,1-.25,0,19.53,19.53,0,0,0-4.88-.36,14.07,14.07,0,0,1-4.65-1,.53.53,0,0,1-.35-.3c-.13-.35-.29-.68-.42-1a23.78,23.78,0,0,1-1.25-5,29.49,29.49,0,0,1-.4-3.27c0-.82.14-1.63.12-2.45a.8.8,0,0,1,.34-.62c.19-.17.42-.2.52,0s.3.54.73.4c.13,0,.33.19.5.3a4.07,4.07,0,0,0,1.73.6,1.87,1.87,0,0,0,.94-.19c.28-.11.12-.64.52-.58s.52.28.79.29a44.49,44.49,0,0,0,5.29.22,3.12,3.12,0,0,0,2-.93.71.71,0,0,0,.22-.56A.22.22,0,0,1,119.31,16.31Z"/><path class="cls-13" d="M40.37,17.4H44.2a14.83,14.83,0,0,0,3.19-.26,5.62,5.62,0,0,1,1.23-.09c2.5,0,5-.11,7.49-.22.82,0,1.64,0,2.46,0,2,0,3.94,0,5.9-.17.61,0,1.23,0,1.85,0l9.1-.08a5.14,5.14,0,0,1,1.11,0c.4.08.89-.21,1.17.16s0,.8,0,1.21c0,.82,0,1.63-.07,2.45,0,.35-.18.54-.53.53a40.08,40.08,0,0,1-4.9-.1,3.11,3.11,0,0,0-.61,0l-4.52,0c-2.43,0-4.86.12-7.28,0s-4.62.08-6.93,0a23.57,23.57,0,0,0-3.66.2c-1.14.13-2.28.13-3.43.17a46.57,46.57,0,0,0-5.27.41,24.06,24.06,0,0,1-3.8.14c-1.51,0-3,0-4.53,0a7.89,7.89,0,0,1-1.94-.13c-.3-.64,0-1.29,0-1.93a6.17,6.17,0,0,1,.12-.73.43.43,0,0,1,.39-.4,1.12,1.12,0,0,0,1-.46c.13-.2.36-.18.56-.22a17.33,17.33,0,0,1,3.66-.49h4.45Z"/><path class="cls-14" d="M15.12,62.63a18.73,18.73,0,0,0,3.25-.39c1-.16,1.92-.39,2.87-.61a15.7,15.7,0,0,1,3.29-.22,8.1,8.1,0,0,0,2.2-.12c1.19.25,2.32-.23,3.5-.27A10.69,10.69,0,0,0,33,60.67s.08-.07.11-.06c1.34.21,2.6-.37,3.91-.38a12.52,12.52,0,0,1,2-.14,14.25,14.25,0,0,0,2,0l2.8,0c.9,0,1.8,0,2.69,0a15.47,15.47,0,0,1,1.67,0c.53.05,1.06-.2,1.59,0a1.14,1.14,0,0,0,.37,0,68.59,68.59,0,0,1,7.58.38c.45.05,1-.12,1.33.05a1.58,1.58,0,0,0,1.13,0,11.25,11.25,0,0,1,1.93,0c1.13,0,2.26,0,3.39,0s2.28,0,3.42-.08a2.83,2.83,0,0,1,.85.13c0,.32-.24.49-.43.67a6.59,6.59,0,0,0-.92,1,.91.91,0,0,1-.84.39c-1.23,0-2.45,0-3.67.15a33.17,33.17,0,0,1-4.23.15c-1.55,0-3.1-.07-4.65,0a41.51,41.51,0,0,0-4.73.07,3.63,3.63,0,0,1-.73,0c-2-.08-4,0-6,0-1.34,0-2.69-.06-4-.17-1.79-.15-3.59-.22-5.38-.43a5.17,5.17,0,0,1-1-.16,6.42,6.42,0,0,0-2.18-.21c-.86,0-1.73,0-2.59,0a28.24,28.24,0,0,0-3.42.41c-1.73.26-3.47.4-5.21.64-1.17.16-2.34.38-3.49.63-.44.1-.71,0-.88-.38,0-.1-.16-.18-.25-.27A.29.29,0,0,1,15.12,62.63Z"/><path class="cls-13" d="M18,60.35l-.09,0-.08,0c-.08.1-.16.1-.23,0h0a.46.46,0,0,1-.26-.25,42,42,0,0,1,.86-5.35c.3-1.45.52-2.92.78-4.37.5-2.75,1-5.5,1.68-8.21.5-2,1-4.07,1.66-6.05.86-2.66,1.81-5.29,2.72-7.93a19.69,19.69,0,0,0,1-3.69,17.35,17.35,0,0,1,1.29-3.71c.19-.46.39-.9.59-1.36.1-.23.21-.45.51-.45s.35.3.24.71a9.07,9.07,0,0,0-.19,2.07c0,.39-.16.81.21,1.17.11.1.08.39.06.59-.09.8-.18,1.6-.31,2.39a11.69,11.69,0,0,1-.63,1.71c-.26.78-.59,1.53-.79,2.35s-.59,1.68-.84,2.54c-.43,1.47-1,2.9-1.31,4.42a20.66,20.66,0,0,1-.58,2c-.18.62-.23,1.26-.4,1.88-.38,1.37-.54,2.8-.83,4.19-.2.92-.38,1.84-.6,2.76-.36,1.52-.45,3.08-.8,4.6-.19.79-.2,1.62-.37,2.42s-.32,1.68-.53,2.51a4.9,4.9,0,0,1-.47,1.14,3.46,3.46,0,0,0-.45,1c-.08.44-.4.59-.76.72S18.32,60.16,18,60.35Z"/><path class="cls-13" d="M83.9,97.76c-.67,2.12-1.38,4.21-2,6.34-.78,2.72-1.36,5.49-2,8.25-.2.92-.49,1.82-.75,2.72a6,6,0,0,1-.31.8A2.43,2.43,0,0,1,77,117.4c-1.84.38-3.65.91-5.47,1.37-.39.11-.8.11-1.2.24s-.78.38-1,0a.93.93,0,0,1,.3-1.1,3.47,3.47,0,0,0,.4-.46c.28-.49.82-.81.9-1.42.49-1.06,1.28-1.92,1.86-2.91A4.28,4.28,0,0,0,74,111.4c.15-.18.37-.3.43-.55s.31-.39.32-.66c1-1.89,2.32-3.56,3.27-5.47.14-.27.44-.35.65-.54h0a1.6,1.6,0,0,0,.23-.38,3.75,3.75,0,0,0,.4-.83A17.37,17.37,0,0,1,81.49,100a1.25,1.25,0,0,0,.45-.71,11.48,11.48,0,0,1,1.6-2.49c.24,0,.61-.39.62.22a.54.54,0,0,1,0,.22C84,97.4,84,97.62,83.9,97.76Z"/><path class="cls-14" d="M79,37.44V30.55c0-2.46,0-4.92,0-7.39a1.15,1.15,0,0,1,.1-.59,3.24,3.24,0,0,0,.39-1.9,20.67,20.67,0,0,0,.09-3.43.39.39,0,0,1,.47-.43l.12,0c1.11.38,1.27.05,1.25,1.51,0,2.7-.09,5.4,0,8.1,0,1.8-.09,3.59-.13,5.39a.48.48,0,0,1,0,.12A47.89,47.89,0,0,0,81,37.44c-.12,2-.1,3.92-.3,5.88-.08.84,0,1.7-.1,2.55-.08.48-.15,1-.24,1.45a33.88,33.88,0,0,0-.35,4,.5.5,0,0,1-.2.42c-.21.13-.41.27-.62.39A.21.21,0,0,1,78.9,52c0-1,0-2,0-3V37.44Z"/><path class="cls-14" d="M58.88,55.86a7.77,7.77,0,0,1,0,2.5,4.17,4.17,0,0,1-1.65,0c-2.32-.31-4.67-.17-7-.38a23.89,23.89,0,0,1-2.81,0,31.29,31.29,0,0,1-4-.06c-.5,0-.59-.23-.25-.58a.76.76,0,0,0,.24-.64c0-.49,0-1,0-1.48,0-.34.08-.43.44-.41l4.42.25c2.41.16,4.82.28,7.22.49A23.42,23.42,0,0,1,58.88,55.86Z"/><path class="cls-15" d="M6.21,75c-.11,1.34-.43,2.65-.62,4-.26,1.78-.59,3.56-.7,5.36,0,.52-.14,1-.22,1.55-.28,1.89-.43,3.79-.72,5.67-.18,1.17-.32,2.35-.41,3.52s-.27,2.52-.49,3.76c-.12.73,0,1.47-.12,2.21-.07.57-.11,1.14-.17,1.72-.11,1.21-.23,2.43-.27,3.64-.06,1.48,0,3,0,4.43a.65.65,0,0,1-.71.28c0-.15-.17-.36-.12-.45.33-.52.13-1.13.32-1.67a.58.58,0,0,0-.29-.81c-.27-.15.33-.34.2-.57s-.47-.19-.31-.53a.26.26,0,0,1,.07-.1c.33-.18.21-.59.43-.84s-.4-.57,0-.86c-.42-.69.12-1.36.06-2.06,0-.24.05-.47-.14-.67a.55.55,0,0,1,0-.78,1,1,0,0,0,.29-1c-.11-.33.13-.64.28-.92A.57.57,0,0,0,2.33,99c-.09-.07-.23-.2,0-.26.61-.19.36-.76.53-1.14,0-.08-.06-.23-.1-.35s-.52-.07-.47-.44.41-.15.42-.36A5.28,5.28,0,0,1,3,95.31c.08-.23-.12-.25-.27-.31s-.25-.21-.17-.24c.65-.29.26-.61.08-1-.08-.15.05-.21.18-.2s.34,0,.3-.09c-.26-.65.07-1.18.26-1.75a.44.44,0,0,0-.08-.34c-.1-.13-.26-.25-.05-.38s.32-.48.34-.84a13,13,0,0,1,.27-2.41c.14-.66-.2-1.29,0-2,.06-.23,0-.46.28-.6a.3.3,0,0,0,.13-.2,2.67,2.67,0,0,1-.12-.82c0-.21.3-.37.22-.66a3,3,0,0,1,.33-2.11.78.78,0,0,0-.17-1.06c-.23-.24-.23-.4.12-.52a.42.42,0,0,0,.24-.25,5,5,0,0,0,.37-2.5c-.08-.34.3-.66.07-.95s-.16-.45.11-.65A.55.55,0,0,0,5.65,75a3.47,3.47,0,0,1,.56-2C6.84,73.67,6.19,74.34,6.21,75Z"/><path class="cls-16" d="M8.89,160.34a2.15,2.15,0,0,1-1.68.54,4.13,4.13,0,0,0-.86,0,4,4,0,0,1-3.44-1.55,1.07,1.07,0,0,1-.32-.77,10.57,10.57,0,0,1,.13-2.32,2.39,2.39,0,0,1,1.65-1.82c.29-.09.52.08.44.37a3.24,3.24,0,0,0,1.56,3.79,8,8,0,0,0,1.77,1.08C8.4,159.87,9.2,159.5,8.89,160.34Z"/><path class="cls-13" d="M114.49,85.84a3.43,3.43,0,0,1,1.8,0c.25.08.44.23.4.53-.15,1.22-.17,2.45-.43,3.66a5.61,5.61,0,0,1-.55,1.37,1.63,1.63,0,0,1-1.13.88,10.49,10.49,0,0,1-.11-2.23c.06-1,0-2,0-3A3.08,3.08,0,0,1,114.49,85.84Z"/><path class="cls-17" d="M13.4,69.28a.52.52,0,0,1,.45.51,65.53,65.53,0,0,1-.26,6.72,1,1,0,0,1-.42.71,1.57,1.57,0,0,1-1.17.27.36.36,0,0,1-.36-.4,4.74,4.74,0,0,1,0-.85c.29-1.31.59-2.62.92-3.92.11-.43,0-.9.25-1.3s.08-.87.13-1.31C13,69.46,13,69.2,13.4,69.28Z"/><path class="cls-18" d="M6.3,154.88a8.3,8.3,0,0,1,3.12.15.58.58,0,0,1,.46.62A2.31,2.31,0,0,1,9,157.79a.52.52,0,0,1-.67.05c-.5-.37-1-.75-1.45-1.13a1.06,1.06,0,0,1-.36-.63C6.42,155.72,6.37,155.36,6.3,154.88Z"/><path class="cls-12" d="M2.26,128.89a5.14,5.14,0,0,1,.38,2.45c0,.4,0,.8,0,1.21.21,2.13.34,4.26.56,6.39.1,1,.08,2,.26,2.93.14.78.28,1.56.48,2.34A11.18,11.18,0,0,1,4.53,147q-.13.19-.33,0a1.93,1.93,0,0,0,0-.24c-.41-.21-.37-.64-.49-1s0-.5,0-.74a2.29,2.29,0,0,1,0-.37c0-.31-.61-.2-.38-.62s0-.55-.09-.82a19.11,19.11,0,0,0-.41-3,.52.52,0,0,1,0-.35,1.52,1.52,0,0,0-.06-1.2c-.18-.44.1-1-.35-1.39a.25.25,0,0,1,0-.22c.46-.47.12-1,.18-1.53s-.27-.76-.41-1.14h0a.49.49,0,0,1-.24-.49c.33-.16.58-.44.45-.78a15,15,0,0,1-.2-2.4.88.88,0,0,0-.25-.54H2v-.49c.15-.13.1-.33.2-.48Z"/><path class="cls-19" d="M218.51,158.1c1.09.19,2.18-.15,3.27.06.82-.32,1.65,0,2.49,0,1.33-.11,2.66-.12,4-.28.89-.11,1.74-.33,2.6-.51a.76.76,0,0,1-.7.69,2,2,0,0,0-1.24.41c-.16.16-.36.12-.57,0a.73.73,0,0,0-.89.1c-.17.18-.26,0-.39-.07s-.39-.22-.49.06c-.19.53-.43.07-.65.05h0a.6.6,0,0,1-1,0c-.16-.15-.43-.35-.51-.2-.24.43-.41.2-.7.09s-.66.07-1,0a1.34,1.34,0,0,0-.82.06c-.34.09-.7.28-1-.06-.05-.05-.17-.1-.22-.07a5.79,5.79,0,0,1-2,.18,2.3,2.3,0,0,1-2.19-.75A7.36,7.36,0,0,1,218.51,158.1Z"/><path class="cls-11" d="M4.2,147l.33,0a9.79,9.79,0,0,1,.64,2.82,13.57,13.57,0,0,0,.32,1.76c.25.66.29.75,1,.79s1.61,0,2.42,0c1.06,0,2.11,0,3.17,0l4.47,0c.47-.24,1.14.21,1.49-.44.26.44.22.67-.13.71a6,6,0,0,1-.74,0c-3.46,0-6.91,0-10.37,0a2.06,2.06,0,0,1-2-1.34.28.28,0,0,1,0-.23c.34-.66-.09-1.06-.46-1.51-.18-.21-.34-.49,0-.76,0,0,.07-.08.06-.1C4.1,148.2,4.41,147.57,4.2,147Z"/><path class="cls-13" d="M120.78,85.47a13.47,13.47,0,0,0-.74,4,1.07,1.07,0,0,1-.23.81.7.7,0,0,1-.45.12c-.08,0-.2-.14-.22-.24a3.05,3.05,0,0,1-.08-.74c0-1.1-.07-2.21-.09-3.32,0-.38.12-.54.46-.6s.57-.07.86-.1A.55.55,0,0,1,120.78,85.47Z"/><path class="cls-13" d="M125.48,84.31l1.44-.34c.3-.06.46.1.41.39a32.73,32.73,0,0,1-.8,3.69.43.43,0,0,1-.21.26c-.22,0-.27-.15-.3-.3a7.9,7.9,0,0,1-.11-.85c0-.48-.07-1-.08-1.45A3.09,3.09,0,0,0,125.48,84.31Z"/><path class="cls-20" d="M12.65,63.88a4.21,4.21,0,0,1-3.33,1.48c-.24,0-.44-.09-.33-.35s-.16-.55,0-.84a15.27,15.27,0,0,1,3.08-.61C12.36,63.47,12.66,63.4,12.65,63.88Z"/><path class="cls-13" d="M111.89,88.14c0,.49,0,1,0,1.47a3.39,3.39,0,0,1-.56,1.86.25.25,0,0,1-.2.09c-.06,0-.16-.1-.16-.15a9.13,9.13,0,0,1,0-1.57,9.57,9.57,0,0,0,.08-3.29.37.37,0,0,1,.16-.42.41.41,0,0,1,.63.28c0,.58,0,1.15,0,1.73Z"/><path class="cls-11" d="M83.65,97c-.45.66-.9,1.33-1.36,2a1.5,1.5,0,0,1-.35.31c-.13-.2-.28-.4-.4-.61s0-.54.24-.55a.87.87,0,0,0,.82-.6,17.82,17.82,0,0,0,1.08-2,.56.56,0,0,1,.19-.3c.51-.3.6-.83.76-1.33.09-.31.31-.15.49-.11a.64.64,0,0,0,.08.14,1.15,1.15,0,0,1-.08.61v.29a6.32,6.32,0,0,0-.72,1,1.17,1.17,0,0,1-.13.45C84.07,96.55,83.78,96.71,83.65,97Z"/><path class="cls-21" d="M22.79,155.35c.37.31.76.6,1.11.93a9.22,9.22,0,0,0,2.69,1.53A16.72,16.72,0,0,0,30.3,159c.08,0,.13.2.19.31a2.53,2.53,0,0,1-1.53-.26,2.18,2.18,0,0,0-.58-.18,15.65,15.65,0,0,1-3.53-1.43,3.66,3.66,0,0,1-.77-.59c-.15-.14-.32-.35-.49-.36-.75,0-.91-.57-1.05-1.14A.17.17,0,0,1,22.79,155.35Z"/><path class="cls-22" d="M185.64,148.65a.68.68,0,0,1,.18.56c0,.81.06,1.62,0,2.44s0,1.87,0,2.8a27.82,27.82,0,0,1-.34,3.87.74.74,0,0,1-.42.56,1.58,1.58,0,0,1,.1-1.38,3.28,3.28,0,0,0,.28-1.66,6.36,6.36,0,0,0,0-2.42c.17-.88-.22-1.76.07-2.65a1.39,1.39,0,0,0-.16-1.18C185.09,149.16,185.43,148.93,185.64,148.65Z"/><path class="cls-23" d="M78.68,104.18l-2.75,4.4c-.27.44-.52.89-.79,1.34a.49.49,0,0,1-.38.27A1,1,0,0,1,75,109a10.86,10.86,0,0,0,1.79-2.88c.26-.57.73-1,1-1.62C78,104.17,78.34,104.15,78.68,104.18Z"/><path class="cls-21" d="M30.49,159.31c.08,0,.18-.06.24,0,.91.41,1.92.53,2.82,1a5.79,5.79,0,0,0,1.88.71.7.7,0,0,1,.47.36h-.12a2.23,2.23,0,0,1-1.7-.37c-.36-.29-.91-.36-1.31-.63s-.69.26-1,0-.6-.43-.9-.62c-.05,0-.16,0-.24,0C30.08,159.74,30.46,159.48,30.49,159.31Z"/><path class="cls-24" d="M212.81,154.17a5.57,5.57,0,0,0,1.15,1,2.43,2.43,0,0,1,1.06,1.24c-.45.08-.74-.28-1-.51-.69-.56-1.32-1.2-2-1.82a1.18,1.18,0,0,1-.36-.63.44.44,0,0,1,.39-.51c.41-.07.4-.07.58-.34a1.45,1.45,0,0,1,.18-.17v1C213,153.68,212.49,153.92,212.81,154.17Z"/><path class="cls-25" d="M70.23,117.49c-.26.39-.67.69-.79,1.18a.27.27,0,0,0,.33.35c.35-.08.7-.17,1-.28a.85.85,0,0,1,.7,0,3.55,3.55,0,0,1-2.64.47c-.18,0-.29-.24-.14-.36s.1-.63.3-.75c.53-.35.68-1,1.22-1.33A.44.44,0,0,1,70.23,117.49Z"/><path class="cls-26" d="M12.87,65.6c.29-.22.58-.45.88-.65a.39.39,0,0,1,.6.18c.14.32.47.65.26,1s-.64.22-1,.18l-.48,0a.28.28,0,0,0-.29,0h0c-.43,0-.39-.19-.22-.46h0A1.75,1.75,0,0,1,12.87,65.6Z"/><path class="cls-27" d="M125,3.69a1.6,1.6,0,0,1,1.32.56,1.11,1.11,0,0,1,.39.87c0,.18-.44.14-.89-.15s-.93-.67-1.39-1C124.47,3.49,124.76,3.6,125,3.69Z"/><path class="cls-28" d="M102.36,9.83a.26.26,0,0,1-.22-.34,3.29,3.29,0,0,1,.65-1.17c.12-.19.35-.16.55-.09s.44,0,.54.24-.1.37-.25.51-.52.51-.8.74A.46.46,0,0,1,102.36,9.83Z"/><path class="cls-29" d="M84.65,101.46a1.14,1.14,0,0,1,0,.73c-.33,1.14-.67,2.27-1,3.4,0,.06-.11.11-.17.16-.05-.19-.1-.39-.16-.58a.36.36,0,0,1,.08-.44,1.13,1.13,0,0,0,.41-1c0-.29.39-.54.09-.89-.12-.13.08-.19.17-.25a.57.57,0,0,0,.22-.74C84.12,101.53,84.4,101.5,84.65,101.46Z"/><path class="cls-23" d="M81.49,100a11.25,11.25,0,0,1-1.15,1.78c-.32.45-.61.93-.92,1.4a.57.57,0,0,1-.37.31l-.14-.08a3.77,3.77,0,0,1,.88-1.6,4.92,4.92,0,0,0,.75-1.11A1.22,1.22,0,0,1,81.49,100Z"/><path class="cls-30" d="M58.68,165.07a.39.39,0,0,0,.4.21l2.78,0c-.2.27-.5.24-.78.24H56.65a.34.34,0,0,1-.06-.43,1.4,1.4,0,0,0,1.29,0A.71.71,0,0,1,58.68,165.07Z"/><path class="cls-31" d="M112.83,5.27c-.28.76-.86,1.33-1.25,2.22a1.68,1.68,0,0,1,0-1.33,1.82,1.82,0,0,1,.32-.78A.76.76,0,0,1,112.83,5.27Z"/><path class="cls-32" d="M72.77,113.1c0,.08.06.18,0,.23A23.73,23.73,0,0,1,71,116.07c-.07.11-.16.11-.25,0s0-.45.07-.59A9.48,9.48,0,0,1,72.77,113.1Z"/><path class="cls-33" d="M67.36,122c0,.4-.3.64-.45,1-.33.67-.72,1.32-1.08,2a2.7,2.7,0,0,1-.12-.47c0-.41.7-.67.26-1.19,0,0,0-.08,0-.1.38-.28.83-.5.78-1.12C66.78,122,67.16,122,67.36,122Z"/><path class="cls-34" d="M124.5,11.29a1.31,1.31,0,0,1,.52.89,6.94,6.94,0,0,1,0,1.93.2.2,0,0,1-.15.12.36.36,0,0,1-.21-.09.35.35,0,0,1-.12-.2A7.86,7.86,0,0,1,124.5,11.29Z"/><path class="cls-26" d="M123.29,6.24a.37.37,0,0,1-.38.23.82.82,0,0,1-.71-.4,3.7,3.7,0,0,1-.23-.94c0-.12.25-.23.38-.16a3,3,0,0,1,.93.93A.26.26,0,0,1,123.29,6.24Z"/><path class="cls-35" d="M113.36,33.44c.23-.41.71-.3,1-.48s.39-.26.4-.53a4.1,4.1,0,0,1,1.26,0,.31.31,0,0,1,0,.48.78.78,0,0,0-.87.15A2.49,2.49,0,0,1,113.36,33.44Z"/><path class="cls-36" d="M64.86,127.21a1.84,1.84,0,0,1-.22.8,20.7,20.7,0,0,0-1.07,2.63c0,.1-.15.17-.23.26a2.21,2.21,0,0,1,.26-1.29A6.23,6.23,0,0,1,64.86,127.21Z"/><path class="cls-37" d="M6.21,75a2,2,0,0,1,0-1.15,1.48,1.48,0,0,0,0-.86c.16-.34.48-.6.46-1,0-.07.15-.14.23-.21.06.1.19.23.17.31-.33.9-.39,1.87-.7,2.77C6.35,74.91,6.27,75,6.21,75Z"/><path class="cls-38" d="M109.35,16.65c-.52.16-.74-.21-.93-.57a.44.44,0,0,1,0-.35,2.81,2.81,0,0,1,.35-.5c.07-.08.16-.2.29-.11a.31.31,0,0,1,.14.18c.07.32.11.64.17,1A.29.29,0,0,1,109.35,16.65Z"/><path class="cls-39" d="M116.55,15.85h.25c.18.16.4.1.6.11s.32,0,.43.14a3.57,3.57,0,0,1-2.74,0c-.13,0-.21-.15-.12-.27s.17-.21.27-.22c.37-.05.66.35,1.06.22A.15.15,0,0,0,116.55,15.85Z"/><path class="cls-40" d="M197.51,125.68a.81.81,0,0,1-.8.18c-.49-.19-.24.22-.26.4a1.66,1.66,0,0,1-1.25-.63.26.26,0,0,1,0-.21c0-.06.14-.14.17-.13.56.33,1.19.13,1.77.21C197.27,125.52,197.43,125.51,197.51,125.68Z"/><path class="cls-41" d="M45.57,99.5a.48.48,0,0,1,0,.12,17.16,17.16,0,0,1-1.49,2.89,1.08,1.08,0,0,1,0-.35A5.87,5.87,0,0,1,45.57,99.5Z"/><path class="cls-42" d="M72.28,61.14c0,.12,0,.27-.07.34-.53.6-1.07,1.18-1.61,1.75-.07.08-.2.1-.31.15,0-.11,0-.27,0-.34A8.22,8.22,0,0,1,72.28,61.14Z"/><path class="cls-43" d="M10.91,69.29a5.43,5.43,0,0,1,0-1.56c.11-.59.06-.6-.65-.65l-.36,0c.1-.27.36-.31.58-.35.56-.1.71,0,.71.62s0,1,0,1.56A.49.49,0,0,1,10.91,69.29Z"/><path class="cls-44" d="M119.28,6.94l-.21,2c-.1.11-.19.1-.29,0,0-.79,0-1.59,0-2.39a.27.27,0,0,1,.28-.31A.89.89,0,0,1,119.28,6.94Z"/><path class="cls-45" d="M196.18,156.1c0-.08,0-.19.06-.23a9.55,9.55,0,0,1,1.95-1.75c-.06.18-.14.36-.19.55s-.1.34-.36.37-.51.34-.67.61h0C196.68,155.74,196.53,156.09,196.18,156.1Z"/><path class="cls-46" d="M13.4,69.28c-.34.21-.27.55-.29.86s.07.66-.25.88c0-.82,0-1.64,0-2.45,0-.29.09-.6.51-.53a.49.49,0,0,1,0,.51C13.13,68.87,13.13,68.87,13.4,69.28Z"/><path class="cls-47" d="M123.48,86.62a.79.79,0,0,1-.14.68.38.38,0,0,1-.21.07s-.08,0-.09-.05A6.71,6.71,0,0,1,123,85c0-.06.12-.11.17-.16.37.31.16.69.14,1.05S123.29,86.41,123.48,86.62Z"/><path class="cls-48" d="M22.79,155.35h-.25c-.43-.55-1.12-.91-1.26-1.68a8.38,8.38,0,0,1,1.58,1.45S22.82,155.27,22.79,155.35Z"/><path class="cls-49" d="M116.78,7.14a1.08,1.08,0,0,1-.1.71.42.42,0,0,1-.2.1.14.14,0,0,1-.1,0,3.36,3.36,0,0,1,0-1.78c.06-.17.26-.17.42-.17C117,6.38,116.49,6.74,116.78,7.14Z"/><path class="cls-20" d="M131.63,89.84a2.16,2.16,0,0,0-.38.27,1.36,1.36,0,0,1-1.39.44c.13-.09.25-.25.38-.26.59-.07.76-.49.9-1q.13-.19.3,0A.61.61,0,0,1,131.63,89.84Z"/><path class="cls-50" d="M102.48,11.68a1,1,0,0,1-.39.59.36.36,0,0,1-.32-.08.64.64,0,0,1-.1-.78c.14-.26.36-.09.54-.05S102.52,11.46,102.48,11.68Z"/><path class="cls-51" d="M1.74,111.13c.23-.1.42-.3.71-.28a5.77,5.77,0,0,1,0,1.76.33.33,0,0,1-.19.25L2,112.57a.9.9,0,0,1,.06-.34C2.34,111.74,2.06,111.44,1.74,111.13Z"/><path class="cls-52" d="M153.42,58.41a5,5,0,0,1-1.56-1.7c.75.1,1,.82,1.52,1.24C153.46,58,153.41,58.25,153.42,58.41Z"/><path class="cls-53" d="M16.08,146c.09.06.23.1.28.19a15.11,15.11,0,0,1,1,2c-.11,0-.27-.06-.32-.14A6,6,0,0,1,16.08,146Z"/><path class="cls-54" d="M107.93,11.17c.19-.38-.11-.8.09-1.18,0-.07.1-.16.16-.17a.19.19,0,0,1,.22.21,7.26,7.26,0,0,1-.2,1.91C107.85,11.78,108.14,11.39,107.93,11.17Z"/><path class="cls-55" d="M118.78,11.88c0-.4,0-.81,0-1.21.32-.29,0-.77.3-1.05a4.58,4.58,0,0,1,.2,2C119.13,11.78,119.06,12,118.78,11.88Z"/><path class="cls-56" d="M49.45,92.54a5.47,5.47,0,0,1-1.19,2A3,3,0,0,1,49.45,92.54Z"/><path class="cls-11" d="M85.12,93.78a1.84,1.84,0,0,1-.07-.47.52.52,0,0,1,.59-.41c.06,0,.15.13.14.17-.17.39,0,.89-.4,1.22-.21-.11-.11-.37-.26-.5Z"/><path class="cls-57" d="M75.49,58.18s0,.09,0,.12A4.21,4.21,0,0,1,74,59.66c0-.15,0-.37.1-.44A4.87,4.87,0,0,1,75.49,58.18Z"/><path class="cls-58" d="M110.87,32.15a2.35,2.35,0,0,1-.7,0,2.12,2.12,0,0,0-1.27,0c-.07,0-.19-.1-.28-.16a.51.51,0,0,1,.5-.29A4.28,4.28,0,0,1,110.87,32.15Z"/><path class="cls-59" d="M212.85,97.48c-.24.12-.25.36-.32.57a3.39,3.39,0,0,1-.47-1.78l0,0A2,2,0,0,1,212.85,97.48Z"/><path class="cls-60" d="M125.86,9.7s-.08.08-.11.09a.16.16,0,0,1-.12,0c-.08-.08-.19-.16-.22-.26-.1-.31-.51-.53-.26-.93.38.13.51.47.66.8A1.18,1.18,0,0,1,125.86,9.7Z"/><path class="cls-61" d="M24.54,127A2.9,2.9,0,0,1,23,128.22,1.88,1.88,0,0,1,24.54,127Z"/><path class="cls-62" d="M8.89,160.34c0-.24-.07-.45-.39-.45a.38.38,0,0,1-.36-.24c.32,0,.63-.05.94-.1.16,0,.34-.11.39.11a.41.41,0,0,1-.11.31A4.25,4.25,0,0,1,8.89,160.34Z"/><path class="cls-63" d="M218.51,158.1a3.33,3.33,0,0,1-2-.21.3.3,0,0,1-.06-.23c.57-.11,1.1.19,1.67.16C218.25,157.82,218.39,158,218.51,158.1Z"/><path class="cls-64" d="M94.75,129.9a4,4,0,0,1,1.93.67A2.83,2.83,0,0,1,94.75,129.9Z"/><path class="cls-65" d="M109.17,6.74c-.13.38-.46.44-.79.48a.25.25,0,0,1-.32,0,.9.9,0,0,1,.73-.79C109.08,6.33,109.23,6.43,109.17,6.74Z"/><path class="cls-66" d="M118.78,11.88l.48-.25c0,.08,0,.17,0,.25,0,.35.13.74-.15,1S118.8,12.61,118.78,11.88Z"/><path class="cls-67" d="M130.39,9.89a1.42,1.42,0,0,1-.14.95.29.29,0,0,1-.2.11.23.23,0,0,1-.13-.17c0-.36,0-.73,0-1.1a.17.17,0,0,1,.21-.11C130.26,9.65,130.3,9.79,130.39,9.89Z"/><path class="cls-68" d="M15.12,62.63l0,.46a3.2,3.2,0,0,0-1.49.28q-.19-.15,0-.3A2.29,2.29,0,0,1,15.12,62.63Z"/><path class="cls-69" d="M56.59,165.11l.06.43-1.19,0c-.2-.31.08-.48.2-.7A1.68,1.68,0,0,1,56.59,165.11Z"/><path class="cls-70" d="M70.78,116.09l.25,0c0,.64-.49,1-.8,1.42,0-.23,0-.46,0-.69Z"/><path class="cls-71" d="M103.41,15.79c.13-.11.29-.18.42-.06a.35.35,0,0,1-.07.51.77.77,0,0,1-1,0c-.17-.15-.14-.35.17-.36S103.31,16.17,103.41,15.79Z"/><path class="cls-11" d="M3.7,145.76c.2,0,.4.05.33.33s.11.44.16.66c-.18.05-.43.21-.47-.11S3.29,146.05,3.7,145.76Z"/><path class="cls-72" d="M37.37,64.85a3.85,3.85,0,0,1-1.81-.23,7.41,7.41,0,0,0,1-.17C37,64.34,37.21,64.53,37.37,64.85Z"/><path class="cls-73" d="M18.29,149.74a2,2,0,0,1,.79,1.44A1.67,1.67,0,0,1,18.29,149.74Z"/><path class="cls-74" d="M113.87,52.45a1.05,1.05,0,0,1-.24.06c-.34,0-.54.09-.51.49a2,2,0,0,1-.06.48l-.46-1.19A1.52,1.52,0,0,1,113.87,52.45Z"/><path class="cls-75" d="M201.65,133.18a2.32,2.32,0,0,1-1-1.28C201.18,132.2,201.64,132.52,201.65,133.18Z"/><path class="cls-13" d="M123.25,86.11a3,3,0,0,1,0-1.23c.53,0,.6.07.51.46a7.08,7.08,0,0,1-.25.78C123.4,86.23,123.32,86.23,123.25,86.11Z"/><path class="cls-76" d="M114.81,6.43a1.72,1.72,0,0,1-.09.93.31.31,0,0,1-.18.14c-.09,0-.13,0-.14-.15,0-.31,0-.62,0-.93A.32.32,0,0,1,114.81,6.43Z"/><path class="cls-77" d="M128.91,16.59c.17.37.53.19.79.28-.37.31-.86.16-1.27.33,0,0-.14-.08-.15-.13a.28.28,0,0,1,.1-.2C128.55,16.77,128.73,16.68,128.91,16.59Z"/><path class="cls-78" d="M84.2,95.8c.21-.41.36-.89.91-1a1.25,1.25,0,0,1-.44,1A.33.33,0,0,1,84.2,95.8Z"/><path class="cls-79" d="M119.31,16.31l-.34,0a1.32,1.32,0,0,0-.94-.29v-.16C118.76,15.61,118.89,15.66,119.31,16.31Z"/><path class="cls-80" d="M116,32.9c0-.16,0-.32,0-.48h1c.1,0,.28,0,.26.13a.28.28,0,0,1-.34.23A1.33,1.33,0,0,0,116,32.9Z"/><path class="cls-81" d="M211.57,95.77a.46.46,0,0,1-.24-.4c0-.18-.25-.42,0-.54.42-.16.29.26.39.43a2.14,2.14,0,0,1,.1.22A.69.69,0,0,1,211.57,95.77Z"/><path class="cls-82" d="M60,76.25a1.27,1.27,0,0,1-.8,1.22A1.6,1.6,0,0,1,60,76.25Z"/><path class="cls-83" d="M107.93,11.17c.26.2.16.52.27.77a2,2,0,0,1,0,.24.22.22,0,0,1-.26.18c-.15,0-.23-.12-.2-.25C107.76,11.8,107.85,11.49,107.93,11.17Z"/><path class="cls-84" d="M107,10.11c0,.28-.1.56-.17.84,0,0-.12.06-.19.07s-.07-.06-.07-.09c.05-.28.09-.57.16-.84,0,0,.12-.06.19-.07S107,10.08,107,10.11Z"/><path class="cls-85" d="M113.08,14.63a6.08,6.08,0,0,1-.62-.33.31.31,0,0,1-.17-.39.13.13,0,0,1,.1-.06c.2,0,.39,0,.49.2s.15.36.23.54Z"/><path class="cls-86" d="M18.05,152c0,.31-.08.53-.45.5l-1-.06c.14-.32.43-.24.69-.25s.46,0,.59-.23A.52.52,0,0,1,18.05,152Z"/><path class="cls-52" d="M154.38,59.44a1.29,1.29,0,0,1-1-1A1.86,1.86,0,0,1,154.38,59.44Z"/><path class="cls-87" d="M83.65,97a.78.78,0,0,1,.45-.76c.28,0,.42,0,.32.33a.47.47,0,0,1-.26.45C84,96.73,83.82,97.05,83.65,97Z"/><path class="cls-88" d="M127.17,8.27c0,.08,0,.18-.1.21a.24.24,0,0,1-.2-.07c-.14-.17-.31-.35-.2-.61,0,0,.06,0,.09,0A.53.53,0,0,1,127.17,8.27Z"/><path class="cls-89" d="M210.33,99.25a1.15,1.15,0,0,1-.23-1,1.21,1.21,0,0,1,.33.07c.19.09.35.23.15.43A1.16,1.16,0,0,0,210.33,99.25Z"/><path class="cls-90" d="M167.48,163.14a4.2,4.2,0,0,1,.55.22c.12.06.1.19,0,.28-.27.25-.39.25-.78,0A.59.59,0,0,1,167.48,163.14Z"/><path class="cls-91" d="M117.11,13.33c.26.15.29.45.39.7,0,0-.06.15-.12.18a.24.24,0,0,1-.22,0,1,1,0,0,1-.38-.58C116.88,13.51,116.92,13.34,117.11,13.33Z"/><path class="cls-92" d="M116.78,7.14c-.4-.46-.39-.63,0-1.16a.39.39,0,0,1,.17.5C116.93,6.7,116.85,6.92,116.78,7.14Z"/><path class="cls-36" d="M65.34,126.22c-.08.37,0,.81-.48,1C64.77,126.76,64.84,126.38,65.34,126.22Z"/><path class="cls-93" d="M12.65,63.88c-.12-.26-.36-.28-.59-.32.22-.45.61-.22.94-.24a.35.35,0,0,1,.45.07A2.37,2.37,0,0,1,12.65,63.88Z"/><path class="cls-94" d="M128.41,20.78c.13.17.07.43.29.54a3.48,3.48,0,0,1-.22.43.23.23,0,0,1-.19.09.22.22,0,0,1-.12-.17A1.08,1.08,0,0,1,128.41,20.78Z"/><path class="cls-95" d="M128.12,6.46a.67.67,0,0,1-.39-.43.26.26,0,0,1,.12-.31c.11,0,.25-.09.31,0s.17.45.25.67C128.32,6.58,128.23,6.58,128.12,6.46Z"/><path class="cls-64" d="M94,129.67a1.41,1.41,0,0,1-.91-.22.68.68,0,0,1-.09-.17c.07,0,.14-.09.2-.08a1.27,1.27,0,0,1,.8.47Z"/><path class="cls-96" d="M71.52,120.75c.06.16.12.32.19.48a.71.71,0,0,1-.59-.07c-.1,0-.16-.17-.24-.26a.91.91,0,0,1,.28-.17A1.11,1.11,0,0,1,71.52,120.75Z"/><path class="cls-97" d="M119.28,6.94c-.35-.15-.23-.46-.25-.73.18,0,.42-.09.49.12S119.45,6.77,119.28,6.94Z"/><path class="cls-98" d="M108.06,7.17l.32,0-.72.71a.21.21,0,0,1-.3,0C107.67,7.74,107.68,7.28,108.06,7.17Z"/><path class="cls-99" d="M128.51,6.67c.21.26.58.47.34.94a3,3,0,0,1-.62-.92A.18.18,0,0,1,128.51,6.67Z"/><path class="cls-100" d="M125,3.69c-.2.06-.44.05-.57.27a.9.9,0,0,1-.67-.37c.25-.31.53-.13.8-.06S124.89,3.64,125,3.69Z"/><path class="cls-101" d="M55.66,164.87c.14.35.14.35-.2.7h0c-.59-.08-.36-.44-.26-.76C55.35,164.7,55.5,164.81,55.66,164.87Z"/><path class="cls-102" d="M109.35,16.65l.06-.39c.22.13.55,0,.7.34s0,.33-.26.27S109.46,16.85,109.35,16.65Z"/><path class="cls-103" d="M35.1,119.71c.2-.34.51-.19.79-.17A.52.52,0,0,1,36,120c-.06.18-.29.26-.34.11S35.36,119.73,35.1,119.71Z"/><path class="cls-84" d="M163.62,141a1,1,0,0,1-.32-.72,1.17,1.17,0,0,1,.79,1c-.07.1-.15.1-.24,0v0A.47.47,0,0,1,163.62,141Z"/><path class="cls-104" d="M107.36,7.91l.3,0c0,.07,0,.16,0,.23s-.09.35-.19.39a.33.33,0,0,1-.38-.2C107,8.14,107.16,8,107.36,7.91Z"/><path class="cls-52" d="M155.38,60.69c-.29,0-.5-.18-.51-.51C155.38,59.87,155.47,60.16,155.38,60.69Z"/><path class="cls-105" d="M113.83,14.56a.54.54,0,0,1,.54-.19c.11,0,.26,0,.25.17a.34.34,0,0,1-.14.18.81.81,0,0,1-.22.07c-.12-.08-.27-.06-.4-.1Z"/><path class="cls-106" d="M112.67,8.3a.28.28,0,0,1,.13.34.24.24,0,0,1-.29.17.2.2,0,0,1-.1-.3C112.47,8.42,112.59,8.37,112.67,8.3Z"/><path class="cls-107" d="M103.7,14c0,.18-.21.4-.37.36a.25.25,0,0,1-.13-.18c0-.18.19-.4.36-.35S103.65,13.89,103.7,14Z"/><path class="cls-108" d="M109.17,6.74a.71.71,0,0,0-.38-.36.66.66,0,0,1,.57-.44.18.18,0,0,1,.29,0Z"/><path class="cls-109" d="M189.31,123.73a.63.63,0,0,1-.32-.47c0-.06,0-.18.06-.2a.23.23,0,0,1,.21,0,3.47,3.47,0,0,1,.32.34A.35.35,0,0,1,189.31,123.73Z"/><path class="cls-110" d="M122.25,3.16c-.08,0-.18,0-.23-.06s-.6,0-.47-.32c.07-.18.44-.1.63.1a.39.39,0,0,1,.06.11c.08,0,.11.07.09.11S122.28,3.16,122.25,3.16Z"/><path class="cls-111" d="M35.14,122.25c-.07-.19,0-.43-.27-.53,0-.07.06-.15.11-.19a.47.47,0,0,1,.29-.13c.13,0,.16.14.16.26A.64.64,0,0,1,35.14,122.25Z"/><path class="cls-112" d="M105.43,6.21a.51.51,0,0,1,.34-.3c.1,0,.23-.11.3,0a.23.23,0,0,1,0,.21,3.26,3.26,0,0,1-.36.29Z"/><path class="cls-113" d="M106.59,5.5c.06-.15.17-.25.34-.2a.25.25,0,0,1,.11.17c0,.19-.18.23-.34.19S106.62,5.56,106.59,5.5Z"/><path class="cls-65" d="M117.11,13.33c-.06.15-.13.29-.33.3a1.27,1.27,0,0,0-.13-.19c-.14-.18-.15-.41,0-.51s.32.1.39.29Z"/><path class="cls-114" d="M111.58,11.91a.5.5,0,0,1,.45.34c0,.06-.12.22-.2.24a.36.36,0,0,1-.49-.34Z"/><path class="cls-115" d="M112.63,10.66a.6.6,0,0,1,.06.23c0,.3-.06.39-.3.28a2.4,2.4,0,0,1-.38-.27l.08-.14a.83.83,0,0,1,.26-.19A.25.25,0,0,1,112.63,10.66Z"/><path class="cls-116" d="M199.13,156.1l.57.53c-.22,0-.45,0-.68,0s-.33-.13-.16-.37C198.91,156.2,199,156.16,199.13,156.1Z"/><path class="cls-117" d="M112.63,10.66h-.29a1.46,1.46,0,0,1-.21.16l-.12.08c-.22-.2-.28-.41.06-.49a1.24,1.24,0,0,1,.57.06C112.72,10.49,112.71,10.58,112.63,10.66Z"/><path class="cls-118" d="M55.18,164.82c.06.26-.11.6.26.76-.09.15-.22.26-.39.17a.37.37,0,0,1-.13-.3C54.93,165.22,54.91,165,55.18,164.82Z"/><path class="cls-119" d="M84.42,96.58l-.32-.33c0-.15.07-.3.1-.45l.47,0A1.3,1.3,0,0,1,84.42,96.58Z"/><path class="cls-22" d="M128,10.69c0,.07-.1.25-.14.25s-.21-.2-.24-.35a.21.21,0,0,1,.15-.26C128,10.31,127.9,10.53,128,10.69Z"/><path class="cls-120" d="M47.28,96.27c-.09.37-.05.81-.52,1C46.8,96.85,46.84,96.45,47.28,96.27Z"/><path class="cls-121" d="M12.62,65.84a.67.67,0,0,0,.22.46c-.08.29-.28.27-.46.15s-.13-.34,0-.49A1.43,1.43,0,0,1,12.62,65.84Z"/><path class="cls-122" d="M119.06,9.62c-.12.35.09.78-.3,1.05,0-.43,0-.85,0-1.27.07-.1.14-.1.21,0A.52.52,0,0,1,119.06,9.62Z"/><path class="cls-123" d="M121.26,9.66c0,.34.09.7-.13,1-.22-.34-.09-.7-.12-1C121.09,9.54,121.17,9.55,121.26,9.66Z"/><path class="cls-124" d="M112.33,4.69a2.22,2.22,0,0,1-1.07-.09c.38-.26.75-.14,1.09-.18a.19.19,0,0,1,.06.19C112.38,4.67,112.36,4.69,112.33,4.69Z"/><path class="cls-125" d="M121.26,9.66H121c0-.27-.1-.55.12-.79C121.34,9.11,121.24,9.39,121.26,9.66Z"/><path class="cls-126" d="M128.34,15.07c-.1-.06-.18-.14-.15-.27a.27.27,0,0,1,.25-.2c.14,0,.22.05.22.18S128.5,15,128.34,15.07Z"/><path class="cls-127" d="M107.68,13.88c0,.07-.05.16-.11.19s-.26.22-.39.06a.46.46,0,0,1,0-.33.23.23,0,0,1,.24-.19C107.47,13.71,107.63,13.73,107.68,13.88Z"/><path class="cls-128" d="M121.49,90.84l-.44,0a.7.7,0,0,1,.2-.54c.08-.1.21-.12.24,0A2.35,2.35,0,0,1,121.49,90.84Z"/><path class="cls-129" d="M85.12,93.79a.48.48,0,0,1,.25.5l-.25.24A.68.68,0,0,1,85.12,93.79Z"/><path class="cls-130" d="M226.45,136.08a1.24,1.24,0,0,1,.26,1C226.29,136.83,226.4,136.45,226.45,136.08Z"/><path class="cls-131" d="M18,60.35c.31-.31.7-.2,1.07-.2C18.76,60.49,18.37,60.42,18,60.35Z"/><path class="cls-132" d="M130.16,9.66l-.22,0c0-.12,0-.24,0-.36s0-.2.09-.22a.23.23,0,0,1,.29.14.86.86,0,0,1,.06.23A.43.43,0,0,1,130.16,9.66Z"/><path class="cls-133" d="M160.07,134.18a.82.82,0,0,1-.49-.78A.62.62,0,0,1,160.07,134.18Z"/><path class="cls-130" d="M226.18,135.35c.28.18.26.46.27.74C226.11,135.93,226.13,135.65,226.18,135.35Z"/><path class="cls-134" d="M74.44,110.85a.44.44,0,0,1-.43.55A.52.52,0,0,1,74.44,110.85Z"/><path class="cls-135" d="M132.63,84.63l-.16.11a1.91,1.91,0,0,1-.06-.33s.09-.06.14-.09Z"/><path class="cls-136" d="M103.41,15.79c.1.13.21.27-.08.28a.47.47,0,0,1-.39-.2Z"/><path class="cls-137" d="M119.47,4.16c.11-.17.25-.19.38,0a.27.27,0,0,1,.07.21.32.32,0,0,1-.41.13.2.2,0,0,1-.1-.19C119.43,4.19,119.44,4.16,119.47,4.16Z"/><path class="cls-138" d="M166.75,162.85l.32,0a.13.13,0,0,1,.18,0,.3.3,0,0,1,.14.26c0,.16-.1.28-.31.21Z"/><path class="cls-139" d="M158.15,130.88c-.25-.07-.35-.22-.26-.47C158.27,130.47,158.27,130.48,158.15,130.88Z"/><path class="cls-140" d="M13.42,68.55l0-.51c.12,0,.27,0,.3.1A.31.31,0,0,1,13.42,68.55Z"/><path class="cls-141" d="M114.51,6.19a1.32,1.32,0,0,1,0-.35.91.91,0,0,1,.18-.27.91.91,0,0,1,.17.28,1,1,0,0,1-.06.34A.18.18,0,0,1,114.51,6.19Z"/><path class="cls-142" d="M122.25,3.16a1,1,0,0,0,0-.17.69.69,0,0,1,.54.11A.49.49,0,0,1,122.25,3.16Z"/><path class="cls-143" d="M113.11,14.59l.72,0v.28c-.28.05-.59.21-.74-.21Z"/><path class="cls-144" d="M118,15.89a.86.86,0,0,0,0,.16l-.09.06h-.11l-.59-.07.05-.14A1.2,1.2,0,0,1,118,15.89Z"/><path class="cls-145" d="M167.08,163.32l.19-.19c.06-.13.13-.12.2,0v0c0,.2.15.46-.22.48C167.19,163.53,167.05,163.47,167.08,163.32Z"/><path class="cls-146" d="M109.85,16.87l.26-.27a1.14,1.14,0,0,1,.16.15c0,.06.08.16,0,.21s-.18.08-.28,0A1.22,1.22,0,0,1,109.85,16.87Z"/><path class="cls-23" d="M78.93,103.92c-.06.1-.09.24-.24.25a.75.75,0,0,1,.22-.75l0,0A.31.31,0,0,1,78.93,103.92Z"/><path class="cls-64" d="M94,129.67c.28,0,.57,0,.74.25-.27,0-.56.05-.74-.25Z"/><path class="cls-147" d="M189.31,123.73l.27-.3a.35.35,0,0,1,.25.27l-.26.26Z"/><path class="cls-148" d="M131.17,88.86V88.1h0c.31.18.26.47.23.75C131.31,89,131.24,89,131.17,88.86Z"/><path class="cls-84" d="M163.3,140.33a.43.43,0,0,1-.27-.49C163.47,139.87,163.48,139.88,163.3,140.33Z"/><path class="cls-149" d="M123.29,6.24c0-.12,0-.23,0-.34a.48.48,0,0,1,.12,0c.16,0,.34.08.27.27S123.43,6.28,123.29,6.24Z"/><path class="cls-150" d="M112.33,4.69l0-.27c.17-.2.32-.07.33.09S112.48,4.68,112.33,4.69Z"/><path class="cls-8" d="M166.5,79.21a.49.49,0,0,1-.2-.52.75.75,0,0,1,.47.51C166.68,79.31,166.59,79.32,166.5,79.21Z"/><path class="cls-151" d="M90.13,85.17a.73.73,0,0,1-.32.68C89.74,85.54,89.77,85.28,90.13,85.17Z"/><path class="cls-152" d="M123.25,86.11h.22v.5C123.13,86.58,123.19,86.34,123.25,86.11Z"/><path class="cls-153" d="M114.51,6.19h.31a.48.48,0,0,1,0,.24h-.46C114.34,6.29,114.39,6.21,114.51,6.19Z"/><path class="cls-154" d="M131.17,88.86h.21l.06.44-.3,0Z"/><path class="cls-155" d="M109.65,6h-.29a.31.31,0,0,1,.33-.24s.08.09.12.14Z"/><path class="cls-33" d="M67.61,121.53a.48.48,0,0,1-.25.52C67.29,121.8,67.32,121.6,67.61,121.53Z"/><path class="cls-156" d="M117.29,15.9l-.05.14a.34.34,0,0,1-.44-.18A.51.51,0,0,1,117.29,15.9Z"/><path class="cls-157" d="M119,9.41h-.21l0-.49h.29A.6.6,0,0,1,119,9.41Z"/><path class="cls-97" d="M107.68,13.88l-.3-.27C107.73,13.56,107.77,13.6,107.68,13.88Z"/><path class="cls-45" d="M195.67,156.36c.07-.29.3-.26.52-.27C196.12,156.37,195.91,156.39,195.67,156.36Z"/><path class="cls-87" d="M83.9,97.76a.44.44,0,0,1,.21-.51A.39.39,0,0,1,83.9,97.76Z"/><path class="cls-42" d="M166.5,79.21h.27l0,.47A.45.45,0,0,1,166.5,79.21Z"/><path class="cls-158" d="M212.06,96.27c-.4,0-.21-.32-.23-.52l0,0a.36.36,0,0,1,.27.47Z"/><path class="cls-23" d="M75.47,107.65c0,.07,0,.15,0,.22s0,.09-.07.09-.13-.08-.08-.16.12-.1.17-.15Z"/><path class="cls-159" d="M130.16,9.66l.21-.19,0,.42C130.25,9.87,130.2,9.78,130.16,9.66Z"/><path class="cls-117" d="M13.45,63.39,13,63.32a.92.92,0,0,1,.6-.25v.3l-.07,0Z"/><path class="cls-160" d="M111.27,15.69s.06,0,.09,0,.1.08,0,.13a.1.1,0,0,1-.09,0S111.28,15.72,111.27,15.69Z"/><path class="cls-161" d="M113.82,14.84a.25.25,0,0,0,0-.17.33.33,0,0,1,.43.12Z"/><path class="cls-162" d="M119.47,4.16c0,.1,0,.2,0,.3-.14,0-.33.07-.34-.15C119.17,4.26,119.36,4.21,119.47,4.16Z"/><path class="cls-52" d="M154.87,60.18c-.25-.08-.27-.28-.27-.5C154.89,59.74,154.9,60,154.87,60.18Z"/><path class="cls-163" d="M163.85,141.28a1,1,0,0,1,.24,0c0,.09,0,.18,0,.27A.26.26,0,0,1,163.85,141.28Z"/><path class="cls-156" d="M116.55,15.85c-.08.19-.17.18-.25,0Z"/><path class="cls-164" d="M128.51,6.67l-.28,0-.11-.23.29,0A2.29,2.29,0,0,0,128.51,6.67Z"/><path class="cls-139" d="M158.36,131.17c-.17,0-.21-.13-.21-.28A.21.21,0,0,1,158.36,131.17Z"/><path class="cls-42" d="M167,80c-.18,0-.22-.13-.21-.29A.23.23,0,0,1,167,80Z"/><path class="cls-165" d="M105.43,6.21l.24.23A.22.22,0,0,1,105.43,6.21Z"/><polygon class="cls-166" points="128.06 13.56 128.03 13.48 128.1 13.49 128.06 13.56"/><path class="cls-10" d="M1.48,115.81s.1,0,.1.06-.06.06-.1-.06Z"/><path class="cls-167" d="M111.58,11.91a.23.23,0,0,1-.24.24C111.32,12,111.4,11.89,111.58,11.91Z"/><path class="cls-45" d="M197,155.65l.1,0c0,.09,0,.07-.09,0Z"/><path class="cls-10" d="M1.48,115.81l-.1,0c0-.09.06-.07.1,0Z"/><path class="cls-52" d="M154.61,59.7a.25.25,0,0,1-.24-.27A.25.25,0,0,1,154.61,59.7Z"/><path class="cls-131" d="M17.34,60.1l.26.25C17.39,60.39,17.31,60.3,17.34,60.1Z"/><path class="cls-131" d="M17.59,60.35h.23C17.68,60.54,17.68,60.54,17.59,60.35Z"/><path class="cls-23" d="M75.47,107.65s0-.1.06-.1.06.06-.06.1Z"/><path class="cls-90" d="M167.47,163.12l-.1,0h-.1l0-.28A.26.26,0,0,1,167.47,163.12Z"/><path class="cls-120" d="M46.76,97.25a.29.29,0,0,1-.21.29C46.51,97.37,46.58,97.27,46.76,97.25Z"/><path class="cls-121" d="M12.87,65.6a.25.25,0,0,1-.24.23C12.62,65.67,12.7,65.58,12.87,65.6Z"/><path class="cls-168" d="M211.57,95.77a.31.31,0,0,1,.27-.29l0,.3,0,0Z"/><path class="cls-121" d="M12.85,66.29c.12-.22.12-.22.29,0Z"/><path class="cls-169" d="M131.16,88.1l-.11-.1s0,0,.06,0a.25.25,0,0,1,0,.09Z"/><path class="cls-151" d="M89.8,85.86a.23.23,0,0,1-.18.32A.24.24,0,0,1,89.8,85.86Z"/><path class="cls-8" d="M166.3,78.69a.23.23,0,0,1-.18-.25A.2.2,0,0,1,166.3,78.69Z"/><path class="cls-12" d="M2.25,124.22a17.68,17.68,0,0,1,.17,4,2.43,2.43,0,0,1-.15.71c-.35-.14-.28-.45-.3-.72s.19-.33,0-.5c0-.17,0-.33,0-.49s-.24-.44-.14-.7a3.68,3.68,0,0,0,.07-1.92C1.86,124.28,2.05,124.25,2.25,124.22Z"/><path class="cls-10" d="M2,127.69c.24.17.24.33,0,.5H2a.17.17,0,0,1-.05-.17q0-.09.06-.09Z"/><path class="cls-10" d="M2.18,129.19a.42.42,0,0,1-.2.48A.5.5,0,0,1,2.18,129.19Z"/><path class="cls-12" d="M2,130.16s-.05.1-.06.1-.06,0,.06-.1Z"/><path class="cls-12" d="M2,127.93v.26C1.79,128.1,1.81,128,2,127.93Z"/><path class="cls-163" d="M163.62,141a.22.22,0,0,1,.22.22A.21.21,0,0,1,163.62,141Z"/><path class="cls-170" d="M128.45,29.86a.82.82,0,0,1-.59.07c-.18,0-.34-.09-.28-.29s.2-.15.3-.14A.59.59,0,0,1,128.45,29.86Z"/><path class="cls-18" d="M212.81,154.17l-.51-.31c-.11-.07-.17-.18-.1-.29s.19-.11.31-.07a.26.26,0,0,0,.31-.07C213.21,153.68,212.88,153.92,212.81,154.17Z"/><path class="cls-171" d="M117.15,28.92c1.2,0,1.43-.24,1.94-1.67a8,8,0,0,0,.29-1.19.52.52,0,0,0-.62-.58.38.38,0,0,0-.39.24,4,4,0,0,0-.1.6.73.73,0,0,1-.39.59,1.29,1.29,0,0,0-.33.17,2,2,0,0,1-2.27.37,9.29,9.29,0,0,1-2.66-1.26,1,1,0,0,0-1-.18.41.41,0,0,0-.22.5.92.92,0,0,0,.18.32,6.09,6.09,0,0,0,1.14.93A9,9,0,0,0,117.15,28.92Z"/><path class="cls-172" d="M115.63,21.57a4.17,4.17,0,0,1-.4,2.28c-.26.46-.44.49-.84.15a.91.91,0,0,1-.37-1.06,12.51,12.51,0,0,0,.19-2c.06-.62.3-.83.93-.85a.41.41,0,0,1,.45.32.53.53,0,0,1,0,.12C115.63,20.91,115.63,21.24,115.63,21.57Z"/><path class="cls-173" d="M120.7,21.37a1.1,1.1,0,0,1-.25,0,.74.74,0,0,1-.57-1.15,1.22,1.22,0,0,1,1.7-.4c.18.12.23.41.34.62s-.11.35-.22.51C121.44,21.3,121.19,21.63,120.7,21.37Z"/><path class="cls-174" d="M110.25,21.59a1.4,1.4,0,0,1-.13-1.18.66.66,0,0,1,1-.41,5,5,0,0,1,.63.38.56.56,0,0,1-.1,1A2.37,2.37,0,0,1,110.25,21.59Z"/><path class="cls-175" d="M78.93,103.92c0-.16,0-.32,0-.48l.48-.25A.8.8,0,0,1,78.93,103.92Z"/><path class="cls-11" d="M2.22,134.37s0-.1.06-.1.06.06-.06.1Z"/><path d="M225.93,158.62l-.23,0s-.09,0-.09-.06.08-.13.17-.08a1.22,1.22,0,0,1,.15.17Z"/><path class="cls-176" d="M112.13,10.82c0-.12.09-.16.21-.16S112.25,10.84,112.13,10.82Z"/></g></g></svg>