<svg xmlns="http://www.w3.org/2000/svg" viewBox="0 0 266.53 264.76"><defs><style>.cls-1{isolation:isolate;}.cls-2{mix-blend-mode:multiply;}.cls-3{fill:#dedfdf;}.cls-4{fill:#131010;}.cls-5{fill:#584c4c;}.cls-6{fill:#2d2f2f;}.cls-7{fill:#473939;}.cls-8{fill:#302727;}.cls-9{fill:#352b2b;}.cls-10{fill:#493939;}.cls-11{fill:#796767;}.cls-12{fill:#857979;}.cls-13{fill:#473838;}.cls-14{fill:#4f6262;}.cls-15{fill:#766565;}.cls-16{fill:#a5b5b5;}.cls-17{fill:#837070;}.cls-18{fill:#3e3030;}.cls-19{fill:#4a3d3d;}.cls-20{fill:#b0baba;}.cls-21{fill:#fff;}.cls-22{fill:#1d1d1d;}.cls-23{fill:#f2f2f2;}.cls-24{fill:#201414;}.cls-25{fill:#111212;}.cls-26{fill:#c7c8c8;}.cls-27{fill:#e7ebeb;}.cls-28{fill:#e4e5e5;}.cls-29{fill:#1f1a1a;}.cls-30{fill:#564b4b;}.cls-31{fill:#646565;}.cls-32{fill:#525555;}.cls-33{fill:#212d2d;}.cls-34{fill:#595353;}.cls-35{fill:#242727;}.cls-36{fill:#4e3838;}.cls-37{fill:#3b2b2b;}.cls-38{fill:#403838;}.cls-39{fill:#384c4c;}.cls-40{fill:#b0b7b7;}.cls-41{fill:#374848;}.cls-42{fill:#353535;}.cls-43{fill:#617c7c;}.cls-44{fill:#322727;}.cls-45{fill:#373232;}.cls-46{fill:#8d9f9f;}.cls-47{fill:#6a8484;}.cls-48{fill:#2a3232;}.cls-49{fill:#2a3535;}.cls-50{fill:#a88989;}.cls-51{fill:#a2aaaa;}.cls-52{fill:#acbebe;}.cls-53{fill:#99afaf;}.cls-54{fill:#5b6363;}.cls-55{fill:#637171;}.cls-56{fill:#4b5d5d;}.cls-57{fill:#494f4f;}.cls-58{fill:#aac7c7;}.cls-59{fill:#606060;}.cls-60{fill:#839191;}.cls-61{fill:#7c7474;}.cls-62{fill:#7ea2a2;}.cls-63{fill:#515858;}.cls-64{fill:#707373;}.cls-65{fill:#484444;}.cls-66{fill:#384747;}.cls-67{fill:#859696;}.cls-68{fill:#f0f0f0;}.cls-69{fill:#e9e7e7;}.cls-70{fill:#e1e3e3;}.cls-71{fill:#e0dfdf;}.cls-72{fill:#efeeee;}.cls-73{fill:#040404;}.cls-74{fill:#040303;}.cls-75{fill:#060606;}.cls-76{fill:#0d0b0b;}.cls-77{fill:#0a0808;}.cls-78{fill:#110f0f;}.cls-79{fill:#0b0b0b;}.cls-80{fill:#141212;}.cls-81{fill:#d5e3e3;}.cls-82{fill:#c6cccc;}</style></defs><g class="cls-1"><g id="Capa_2" data-name="Capa 2"><g id="Capa_1-2" data-name="Capa 1"><g id="aDAYz8" class="cls-2"><path class="cls-3" d="M.42,216H0v-.86l.43-.43A.91.91,0,0,1,.42,216Z"/><path d="M266.05,257.79c-.32-.48-.56-1-.83-1.5a12.92,12.92,0,0,0-1.59-2.28c-.46-.56-1-1-1.53-1.49a26.22,26.22,0,0,1-2.15-2.79,58.5,58.5,0,0,0-4.1-5.17c-.2-.06-.15-.29-.29-.39h0a1.47,1.47,0,0,1-.41-.45c-.22-.28-.44-.55-.67-.82-.75-.91-1.49-1.81-2.25-2.7-1-1.17-2-2.33-3-3.51-1.61-1.95-3.06-4-4.6-6-1.07-1.38-2.16-2.74-3.34-4q-3.08-3.36-5.82-7c-1.21-1.6-2.52-3.12-3.78-4.68a.81.81,0,0,0-.5-.37,15.93,15.93,0,0,0-1.67-.15c-1.29,0-2.57.09-3.85.11-1,0-1.92,0-2.88,0-1.24,0-2.49,0-3.73,0a13.08,13.08,0,0,0-2.87.21,13.07,13.07,0,0,1-2.34.23,19.74,19.74,0,0,1-2.31.07,5,5,0,0,1-.13-1.11,30.59,30.59,0,0,0,0-3.83c0-1.63-.16-3.26-.12-4.89s-.1-3.19-.2-4.78a65.28,65.28,0,0,1-.14-6.71,3.8,3.8,0,0,0,0-.95,17.77,17.77,0,0,1-.14-3.09c0-1.17,0-2.35,0-3.52s-.14-2.25-.07-3.38c.06-.88,0-1.77,0-2.64,0-1.28-.08-2.56-.11-3.84,0-2.27-.05-4.55-.07-6.82,0-1.27-.08-2.54-.05-3.81a7.61,7.61,0,0,1-.08-.94,22.48,22.48,0,0,0,0-3c0-1.6-.08-3.2-.08-4.8,0-2.67.06-5.33.1-8a5.18,5.18,0,0,0,0-1,35,35,0,0,1-.28-5c0-2-.06-4.07,0-6.1a21.76,21.76,0,0,1,0-3.61c-.21-.38.09-.76,0-1.15a18.39,18.39,0,0,1-.21-2.87c-.06-.81,0-1.63-.13-2.45s0-1.55-.1-2.33c-.11-1.49-.23-3-.35-4.47-.08-1-.1-1.92-.1-2.88s-.22-1.7-.24-2.55S209,113,209,112.1c0-1.57-.17-3.13-.28-4.69,0-.53,0-1.06-.07-1.59-.18-2.19-.38-4.38-.56-6.57-.21-2.51-.44-5-.8-7.51-.07-.49-.13-1-.21-1.47a19.74,19.74,0,0,0-.37-2.75.5.5,0,0,1,0-.21,7.11,7.11,0,0,0-.23-2.21c-.37-1.64-.45-3.31-.75-4.95s-.38-3.32-.66-5c-.34-2-.6-4.07-.92-6.1q-.42-2.68-.88-5.36c-.27-1.62-.61-3.22-.84-4.84a45.74,45.74,0,0,0-1-4.68c-.44-1.69-.88-3.38-1.36-5.06-.43-1.44-1-2.84-1.44-4.25a39.15,39.15,0,0,0-1.94-4.15c-.33-.67-.68-1.34-1-2s-.72-1.39-1.14-2.05c-1.12-1.77-2.28-3.53-3.42-5.29a41.87,41.87,0,0,0-3.85-5.13l-3.64-4.07a35.75,35.75,0,0,0-5-4.7,32.48,32.48,0,0,0-5.19-3.33,11.87,11.87,0,0,1-1.75-1A7.79,7.79,0,0,0,169.44,12a6.62,6.62,0,0,1-1.59-.64,17.37,17.37,0,0,0-3.75-1.56,5.34,5.34,0,0,0-1.54-.43c-.17-.19-.45,0-.63-.2a.14.14,0,0,0-.18,0c-.19-.15-.49,0-.66-.2h0c-.18-.17-.46,0-.64-.2s-.09-.08-.15,0c-.21-.13-.51,0-.7-.2h0c-.56.15-.3.42-.06.63a6,6,0,0,0,.94.5,1.42,1.42,0,0,0,.29.1,22.68,22.68,0,0,1,4.94,2.37,1.44,1.44,0,0,0,.55.49c2.37,1.07,4.5,2.54,6.75,3.83a1.94,1.94,0,0,1,.91.44c1.1.84,2.34,1.47,3.43,2.33a57.45,57.45,0,0,1,5.89,5.68,2.39,2.39,0,0,1,.69.69,2,2,0,0,0,.19.22c.13.16.25.33.37.5.72,1.08,1.69,1.95,2.46,3a116.58,116.58,0,0,1,7.2,11.29,51.48,51.48,0,0,1,5.5,14.95c1.6,7.24,2.7,14.56,3.69,21.91q1,7.23,2,14.46c.63,4.68.87,9.4,1.29,14.1.4,4.49.41,9,.8,13.48.08.83-.23,1.29-1.11,1.34s-1.57,0-2.36.12c-4.23.41-8.47.86-12.71,1.07-3.72.17-7.4.71-11.12.81a117.57,117.57,0,0,0-11.83,1.32,2.78,2.78,0,0,1-3.11-1.25c-.24-.23-.6-.29-.8-.57a1.56,1.56,0,0,0-.16-.2,1.46,1.46,0,0,0-.16-.19l-.09-.09a1.45,1.45,0,0,0-.18-.17.76.76,0,0,0-.09-.09l-.19-.16-.23-.14c-.29-.15-.58-.31-.62-.69.13-3,.06-6.07.11-9.1.07-3.89,0-7.78-.05-11.68s-.1-7.51-.15-11.26a58,58,0,0,0-.46-8,5.35,5.35,0,0,0-1.59-3,3.52,3.52,0,0,0-4.68-.59,94.39,94.39,0,0,0-10.13,6.64,16.21,16.21,0,0,0-5.38,7.23,40.77,40.77,0,0,0-2.45,12.37,20.69,20.69,0,0,0,2.83,12.44,52.89,52.89,0,0,0,6.26,8.16,2.48,2.48,0,0,1,.61,2.8,55.74,55.74,0,0,1-3,6.52,5.49,5.49,0,0,1-2.13,2.67c-.9,1-1.6,2.1-2.45,3.11s-1.27,1.17-2.32.29c-1.69-1.4-3.61-2.44-5.39-3.7A38.08,38.08,0,0,1,122,125.6c-1.37-2.06-2.51-4.24-3.75-6.37a18.22,18.22,0,0,1-2.61-8,49.6,49.6,0,0,1,2.12-18.31,59.54,59.54,0,0,1,4.07-9.21,58,58,0,0,1,4-6.47,61.08,61.08,0,0,1,5.22-7.07,85.11,85.11,0,0,1,15.61-12.51,1.13,1.13,0,0,1,1.46.11,20.19,20.19,0,0,0,13.51,3.6c4.13-.24,7.09-2.5,9.06-6.14a9.23,9.23,0,0,0,.78-4.16,12.21,12.21,0,0,0-.92-6,33.54,33.54,0,0,0-2-3.89,16.62,16.62,0,0,0-3-3.9,76.72,76.72,0,0,0-10.36-6c-.5-.39-1.18-.5-1.6-1a58.83,58.83,0,0,0-6.6-2.8c-2.85-1-5.7-2.08-8.56-3.08a72.59,72.59,0,0,0-21.6-4.14,98.27,98.27,0,0,0-16.8.55c-1.06.15-1.25-.1-1.11-1.19.07-.49.37-1,.13-1.47a4.48,4.48,0,0,1-.32-2.1c.17-4.29-.09-8.57-.15-12.86,0-.76.4-.88,1-.93,2.81-.23,5.64-.18,8.44-.56,1.08-.1,2.18,0,3.26-.13a1.55,1.55,0,0,0,.31,0,1.29,1.29,0,0,1,.69.17c2.24-.12,4.48.05,6.73,0a60.76,60.76,0,0,1,9.81.44,19.42,19.42,0,0,0,3.47.54c.57-.13,1,.26,1.53.38a7.35,7.35,0,0,0,1.75.28,3,3,0,0,1,1.06.12c3.33.77,6.67,1.52,10,2.44,1,.29,2.11.33,3.15.62,2.64.76,5.38,1.16,8,2,.39.12.74.08.55-.5L158.23,8l-.07,0c-.17,0-.37,0-.51-.18h0c-.17-.18-.47,0-.62-.22h0c-.17-.18-.47,0-.63-.23h0c-.19-.15-.48,0-.64-.2h0c-.19-.17-.47,0-.65-.19a2.25,2.25,0,0,0-.38-.19,31.17,31.17,0,0,0-4-1.06,6.22,6.22,0,0,1-1-.26c-.93-.27-1.84-.57-2.78-.81-2.14-.55-4.28-1.1-6.39-1.79A9.28,9.28,0,0,0,139,2.49c-2.3-.36-4.58-.76-6.85-1.25A22.58,22.58,0,0,0,128.9.62c-.93-.07-1.85-.17-2.78-.25-.75-.07-1.49-.19-2.24-.21-2.36-.07-4.71-.22-7.08-.13-3,.12-6,.06-9,.23-1.86.11-3.71.22-5.57.28-1.36,0-2.72,0-4.08,0A5.76,5.76,0,0,0,97,.73a.48.48,0,0,0-.39.45c0,.1,0,.21,0,.32s-.15.42-.4.39c-.89-.12-1.77.12-2.65,0A6.46,6.46,0,0,0,91.71,2c-.53.08-1,.2-1.57.31-1.39.3-2.8.54-4.17.92S83,4,81.52,4.36A25.14,25.14,0,0,0,78.93,5c-.6.2-1.23.31-1.82.57L74,7a35.56,35.56,0,0,0-3.63,2,2.11,2.11,0,0,0-1.1,2.07,1,1,0,0,0,.8,1c.29.09.59.12,1,.21-.39.28-.65.51-.95.68a6,6,0,0,0-1.53,1.32,1.65,1.65,0,0,0-.4,1.78,1.4,1.4,0,0,0,1.5.92c.21,0,.43,0,.64,0l1.7,0c-.09.41-.43.53-.64.75a2.69,2.69,0,0,0-.73,1.16,1.1,1.1,0,0,0,1,1.41A24,24,0,0,0,77.57,20a.64.64,0,0,1,.6,0s0,.09,0,.11-.24.26-.37.38c-1.11,1-1.14,1.15-.64,2.61.16.45.21.51.69.51A23.29,23.29,0,0,0,82,23.37c.87-.16,1.75-.31,2.63-.44a19.94,19.94,0,0,0,3.42-.87c1.42-.47,2.81-1,4.27-1.37.94-.21,1.86-.49,2.79-.73L97,19.52c.26-.06.41.05.41.33,0,.82,0,1.64.06,2.47,0,.24-.08.5.13.73a19.93,19.93,0,0,0,4-.38,22.71,22.71,0,0,1,3.18-.33c1.88,0,3.77-.05,5.65-.07,1.24,0,2.48-.06,3.72-.07a43.94,43.94,0,0,1,4.58.26c1.76.16,3.53.34,5.3.46a26.31,26.31,0,0,1,4.59.84c1.57.39,3.12.85,4.69,1.23.89.22,1.76.49,2.63.78.64.22,1.25.51,1.89.72.81.27,1.65.42,2.46.68,1.11.37,2.23.73,3.3,1.21.87.4,1.78.71,2.68,1a26.33,26.33,0,0,1,2.59,1q1,.46,1.95.84a56.64,56.64,0,0,1,9.92,4.94c.19.12.5.16.51.51l-.27.09a1.55,1.55,0,0,0-1.28,1c-.07.2-.23.21-.44.19-.6-.06-1.21-.1-1.81-.11-1,0-2,0-3.07,0a.65.65,0,0,1-.64-.44,1.49,1.49,0,0,0-2.3-.73c-.09,0-.18.11-.28.16-.36.18-.4.17-.73-.13a2.49,2.49,0,0,0-3.52.09,8,8,0,0,0-1.18,1.64c-.41.77-.65.81-1.45.38a1.52,1.52,0,0,1-.4-.32.7.7,0,0,0-1.18,0,1.86,1.86,0,0,0-.36.52,28.42,28.42,0,0,0-1.21,3,6.77,6.77,0,0,1-.26.71.36.36,0,0,1-.4.27,1.22,1.22,0,0,0-1.32.85,9.46,9.46,0,0,0-.86,2.75c-.11.88-.19,1.77-.37,2.65a15.67,15.67,0,0,0-.16,3.62,4.2,4.2,0,0,0,.18,1.06,1.29,1.29,0,0,0,1.36,1,2,2,0,0,0,1.59-1,7.63,7.63,0,0,0,.47-.95c.2-.43.4-.85.56-1.29-.08.36,0,.72,0,1.07a.78.78,0,0,0,.09.42,2.33,2.33,0,0,0,.31,1.43,1.33,1.33,0,0,0,1.71.63c.27-.1.52-.24.78-.35.51-.35.62.21.9.38.23.39.23.38,0,.57-1.54,1.06-3.18,2-4.66,3.14a3.24,3.24,0,0,1-.9.65c-.48.38-1,.69-1.49,1.09a17.19,17.19,0,0,0-2.79,2.16c-.88,1.12-2.12,1.85-3.06,2.9A16.66,16.66,0,0,1,131,67.14h0a4.6,4.6,0,0,1-.7.83A7.73,7.73,0,0,0,129,69.29a1.5,1.5,0,0,0-.38.61,9,9,0,0,1-1.28,1.54,15.25,15.25,0,0,0-1.68,2.38c-.2.18-.24.47-.44.64A24.36,24.36,0,0,0,123.47,77a1.36,1.36,0,0,1-.38.57c-.11.07,0,.21-.08.26l-.1,0,0,.08h0a6.42,6.42,0,0,1-.5,1,15.79,15.79,0,0,1-1,1.52h0c-.08.13,0,.34-.22.42a3.83,3.83,0,0,1-.63,1.09c0,.09-.12.15-.17.24v0a4,4,0,0,1-.71,1.46c-.39.32-.35.86-.63,1.24a.46.46,0,0,1-.17.28h0c-.13.11-.09.3-.19.43a5.09,5.09,0,0,0-.32.56,46.47,46.47,0,0,0-3.44,9.88,33.13,33.13,0,0,0-.64,6.58c0,1.28.09,2.56,0,3.84-.16,2,.13,3.9,0,5.86a1.51,1.51,0,0,0,0,.42c.26,1.23.46,2.46.77,3.67.38,1.41,1,2.71,1.53,4.08a17.94,17.94,0,0,0,1.6,2.86c.55.91,1.12,1.81,1.67,2.71a17.94,17.94,0,0,0,1.79,2.52,51.64,51.64,0,0,0,4.3,4.2c.21.19.45.34.68.51,2.33,1.61,4.66,3.19,7,4.83,1.66,1.19,3.25,2.47,4.79,3.81a1,1,0,0,0,1.26.16,5.25,5.25,0,0,0,1.49-1.2c.92-1.1,1.76-2.24,2.59-3.41.37-.51.39-.49,1.17-.64.49-.09,1-.24,1.45-.33a46.57,46.57,0,0,0,5.26-.75c.1,0,.22,0,.31,0a.47.47,0,0,1,.54.26,1.71,1.71,0,0,1,.17.39,19.25,19.25,0,0,0,2.31,4.43c.33.51.71,1,1.08,1.46a16,16,0,0,1,.9,1.57,2.12,2.12,0,0,0,2,1.27h.22c.49,0,.55.15.58.68,0,.36-.07.7-.06,1.06a66.83,66.83,0,0,1-.32,7.35q-.25,2.93-.42,5.86c-.1,1.73-.16,3.46-.22,5.2s-.11,3.47-.15,5.21c0,1.17,0,2.35,0,3.52,0,2.1,0,4.19,0,6.28,0,1.14-.07,2.29,0,3.42.13,1.69.12,3.38.1,5.06,0,2.16-.13,4.32-.35,6.48-.13,1.35-.19,2.7-.23,4.05s0,2.85,0,4.28c0,2.48,0,5,.1,7.44,0,1.18,0,2.36-.07,3.54a.36.36,0,0,1-.39.4c-1.24,0-2.49.1-3.74.07-2.14,0-4.28-.08-6.42-.32-2.65-.3-5.34-.22-8-.62a54.86,54.86,0,0,0-7.8-.2c-1.61,0-3.21.1-4.82.08s-3.06-.12-4.59-.19a14.15,14.15,0,0,0-3.62.11,7.37,7.37,0,0,1-1.49.12c-2.65,0-5.3.08-7.94.09-1.26,0-2.51,0-3.76-.11-2.75-.2-5.5-.33-8.25-.35l-4.16-.05c-.07-.24.13-.39.26-.53a26.52,26.52,0,0,0,3.8-5.23,38.12,38.12,0,0,0,2.27-5,8.22,8.22,0,0,0,.6-2.58c.09-2.14.13-4.28.06-6.42,0-.82,0-1.64-.09-2.45a8.6,8.6,0,0,0-.24-1.9c-.47-1.56-.82-3.17-1.37-4.71a24.71,24.71,0,0,0-2.15-4.88c-.5-.82-1-1.64-1.49-2.47a4.82,4.82,0,0,0-1.07-1.33,48,48,0,0,0-4.37-3.55,18.36,18.36,0,0,0-3.11-1.85,15.66,15.66,0,0,1-2-1c-.68-.4-1.4-.71-2.11-1a3.9,3.9,0,0,0-1.65-.37c-.47,0-.93,0-1.4,0a4,4,0,0,0-2.58.76c-.69.12-1,.76-1.53,1.11s-.57,1.17-.71,1.82c0,.18-.11.34-.14.52a1.89,1.89,0,0,0,.46,1.77.63.63,0,0,1,.25.33c.06.45.39.64.76.81a10.47,10.47,0,0,1,1,.6,3,3,0,0,0,1.08.45c1.3.19,2.61.38,3.92.54a12.62,12.62,0,0,1,3,.78,4.41,4.41,0,0,1,1.14.53,33.46,33.46,0,0,1,2.61,2.15,16.72,16.72,0,0,1,2.63,3.31c.49.78.93,1.59,1.4,2.37s.85,1.4,1.26,2.1a6.86,6.86,0,0,1,.83,3.05c.08,1.06.05,2.13.11,3.19a13.78,13.78,0,0,1-.94,5.65,33,33,0,0,1-3.67,6.76c-.2.29-.39.59-.59.89a.34.34,0,0,1-.6,0c-.13-.17-.23-.36-.35-.54a12.9,12.9,0,0,0-.73-1.18A47.82,47.82,0,0,0,84.15,202a4.28,4.28,0,0,0-.65-.56,26.57,26.57,0,0,0-4.79-2.78,12,12,0,0,0-4.71-.84c-1.6,0-3.2-.08-4.81.07a9.16,9.16,0,0,0-2.6.57c-2,.83-4,1.73-6.05,2.62-.59.25-1.14.59-1.73.83a8.87,8.87,0,0,0-1.7.89l-1.52,1a.31.31,0,0,1-.46,0c-.09-.11-.22-.19-.31-.3a7,7,0,0,0-2.19-1.84c-1-.62-2-1.26-3-1.89a13.2,13.2,0,0,0-3.26-1.61,6.44,6.44,0,0,0-.72-.2.62.62,0,0,0-.83.56c-.11.56-.21,1.12-.29,1.69a20.1,20.1,0,0,0-.49,4.89,2.4,2.4,0,0,1-.93,1.85l-1.49,1.34a1.2,1.2,0,0,1-.89.26,5.5,5.5,0,0,1-2-.57,3.35,3.35,0,0,0-1.65-.2.4.4,0,0,0-.37.51,10.3,10.3,0,0,0,.32,1.12,24.61,24.61,0,0,0,1.9,3.81c-.42.7-1,.23-1.55.23a6.77,6.77,0,0,0-2-.07c-1.12-.25-2.27-.08-3.4-.29a6,6,0,0,0-1.27,0c-1.17,0-2.34,0-3.5.11a7.45,7.45,0,0,0-1-.07c-.77.14-1.55.22-2.33.3a3.88,3.88,0,0,1-1,0,44.53,44.53,0,0,0-5.77-.22,22.93,22.93,0,0,0-3,.08c-1.7.21-3.42.12-5.12.16a35.87,35.87,0,0,0-6.71.43,3.79,3.79,0,0,0-1.91.86,5.06,5.06,0,0,1,0,1.29,6.56,6.56,0,0,0,1.16,1.65c.91,1,1.83,2,2.73,3A39.8,39.8,0,0,0,7.4,224,46.63,46.63,0,0,1,14,231.43a27.19,27.19,0,0,0,4.17,4.73,7.11,7.11,0,0,1,1.07,1.19A23.19,23.19,0,0,0,21.45,240c1.45,1.43,2.69,3,4.08,4.54,1.22,1.3,2.34,2.7,3.48,4.07.43.52.81,1.09,1.23,1.62s1.13,1.29,1.67,2A6.77,6.77,0,0,0,33,253.29c.13.11.27.29.45.25.36-.08.51.15.71.36a16.86,16.86,0,0,0,2.16,2.23,2.62,2.62,0,0,1,.51.54,3.57,3.57,0,0,0,1.1,1,3.8,3.8,0,0,1,.92.87,9.94,9.94,0,0,0,1.54,1.63,7.82,7.82,0,0,1,2.11,2.51,5.53,5.53,0,0,0,.92,1.16,1.23,1.23,0,0,0,1.42.29,4.36,4.36,0,0,1,1.87-.33c1.71,0,3.42,0,5.11.18a49.84,49.84,0,0,0,5.86.06c1.13,0,2.26-.06,3.38-.2.76-.09,1.5.06,2.25,0a26.7,26.7,0,0,1,4.47,0,23.32,23.32,0,0,0,3.83,0c1.21-.08,2.4-.27,3.61-.33,1.67-.08,3.34-.09,5-.11,1.38,0,2.75,0,4.12,0l4.59-.09c.68,0,1.35,0,2,0l5.53-.1a3.4,3.4,0,0,1,1,.06,17.12,17.12,0,0,0,3.71.21c1,0,2,0,3,0,2.46-.09,4.91.08,7.36.22,1.21.08,2.42.1,3.62.25a39.31,39.31,0,0,0,5.19.41,8.07,8.07,0,0,1,2.45.24,8.13,8.13,0,0,1,2.09.17,2.5,2.5,0,0,1,1.46,0l.07,0h0a24.41,24.41,0,0,1,3.08-.07h4c1.51-.06,3,.11,4.52-.1a3.12,3.12,0,0,1,.52-.08c.43,0,.87,0,1.29,0,.92-.09,1.83-.29,2.75-.33,2.1-.11,4.2-.15,6.3-.2,1.85,0,3.7-.07,5.55-.11l3.42-.06c1.31,0,2.63-.08,3.94-.14s2.42-.19,3.62-.19c2,0,4-.09,6-.06,1.74,0,3.48-.08,5.22-.11,1.45,0,2.91-.05,4.36-.06a6.89,6.89,0,0,0,2.75-.08s.07,0,.1,0c2.21.11,4.4-.07,6.61-.08,3,0,6,0,9.06-.07a20.07,20.07,0,0,0,2.45-.09,8,8,0,0,1,1.38-.08,6.26,6.26,0,0,0,.75,0c1.42-.11,2.85-.16,4.27-.16a6.73,6.73,0,0,0,1.48-.18A23.7,23.7,0,0,1,213,262c1.88-.15,3.73-.55,5.62-.72,1.3-.12,2.61-.22,3.91-.29l5-.22c.46,0,.91.07,1.38,0,2.42-.08,4.84-.12,7.26-.18.53,0,1.06-.07,1.59-.05,2,.1,4,0,6,0,1.7,0,3.41.05,5.12-.14a24.18,24.18,0,0,0,3.61.06c1.23.05,2.46-.05,3.7,0,.81.06,1.63.06,2.45.05s1.67.11,2.51.09a16.16,16.16,0,0,1,2.51,0,4.58,4.58,0,0,0,.74,0,2.61,2.61,0,0,0,2.11-.81A2.53,2.53,0,0,0,266.05,257.79ZM161.14,101.53a65.66,65.66,0,0,0-.35,6.86c0,.7.07,1.39.1,2.09a.47.47,0,0,1,0,.17c.09,1.71.16,3.43.1,5.14a11.92,11.92,0,0,1-.54,3.85,3,3,0,0,1-1.67,1.63l-.19.09a7.55,7.55,0,0,1-3.31,1.93,8.61,8.61,0,0,1-2.37.36l-2.44.8a.54.54,0,0,1-.65-.36c-.13-.35-.34-.61-.45-.94-.12-.17-.24-.34-.35-.52a6.06,6.06,0,0,1-.81-.6,6.35,6.35,0,0,1-.95-.85c-.13-.14-.25-.29-.37-.44a7.57,7.57,0,0,1-2.16-2.82,22.13,22.13,0,0,1-3.18-5.34,20,20,0,0,1-1-2,20.49,20.49,0,0,1-.81-11.73,30.42,30.42,0,0,1,.86-3.38,17.67,17.67,0,0,1,2.34-6,2.8,2.8,0,0,1,.5-.57c.15-.26.29-.52.45-.77a12.72,12.72,0,0,1,3.15-3.39c.64-.48,1.34-.87,2-1.32a15.89,15.89,0,0,0,1.38-1.07A44.63,44.63,0,0,1,154,79.54a6.24,6.24,0,0,1,2.33-1.09,3,3,0,0,1,1-.36,2.47,2.47,0,0,1,2,.44,2,2,0,0,1,1.29,1.54c1,4.92-.1,9.93.27,14.9A47.91,47.91,0,0,1,161.14,101.53ZM190.51,215c-.54.58-1.54.39-2.23.27l-.56-.1-.24,0-.14,0a15.05,15.05,0,0,0-1.78-.07,33.53,33.53,0,0,0-3.47.12,6.63,6.63,0,0,1-3.07-.13.57.57,0,0,1-.18-.12.51.51,0,0,1-.57-.5c0-.84,0-1.69,0-2.53a11,11,0,0,1,0-2.92c0-1.24-.12-2.47-.06-3.7.09-1.94-.35-4,.1-5.9-.14-4.89-.35-9.78-.35-14.67h0a.51.51,0,0,1,.48-.74,10.53,10.53,0,0,1,3.26-.34c.33-.2.59-.28.78-.42a13.12,13.12,0,0,0,.17-2.58c0-2-.27-4-.22-6,.06-2.24.28-4.48.3-6.73v-.07c0-2.49,0-5,.05-7.48s0-5,.2-7.44.44-5,.44-7.51a.31.31,0,0,1,.48-.25.28.28,0,0,1,.23.16.76.76,0,0,0,0,.11.29.29,0,0,1,.31.3c0,.35,0,.71,0,1.06,0,.17,0,.33,0,.5.11,1.92.36,3.82.55,5.74.11,1.06.19,2.13.21,3.2v.54a9,9,0,0,1,.2,1.46c.06,1,.1,2,.16,2.95.21,3.8.23,7.63.11,11.43l-.15,3.64.06,1.06a.21.21,0,0,1,.05.13A25.49,25.49,0,0,1,186,180a9.5,9.5,0,0,1-.07,2c0,.53,0,1.06,0,1.58l.1.11h.05c1-.07,2.4-.23,3.2.52s.58,1.8.47,2.66a42.08,42.08,0,0,0,0,8.17c.21,3,.54,6,.7,9.07.08,1.49.12,3,.19,4.47.06,1.28.13,2.56.17,3.84a.36.36,0,0,1,0,.1C190.85,213.32,191.1,214.39,190.51,215Z"/><path class="cls-4" d="M135.45,3.17a2.38,2.38,0,0,1,1,0c.82.14,1.57.52,2.41.59a9.08,9.08,0,0,1,1.19.31,3.75,3.75,0,0,0,1,.15,1,1,0,0,1,.7.21c.06,0,.13.1.19.09a9.67,9.67,0,0,1,2.75.75c1,.23,2,.49,3,.64.52.08,1,.38,1.57.17.53.43,1.21.31,1.79.52a.75.75,0,0,0,.6.08c.34-.13.44.29.73.33.74.12,1.46.3,2.19.45a14.94,14.94,0,0,1,3.27,1c.3.13.36-.09.4-.32a2.46,2.46,0,0,1,1.29.41c-.13.13-.23.29,0,.42a6.5,6.5,0,0,0,.66.27.52.52,0,0,1,.39.44,2.39,2.39,0,0,1-1.76-.19A83.52,83.52,0,0,0,148.5,6.77c-4-.93-8.06-1.85-12.06-2.9C136,3.76,135.57,3.69,135.45,3.17Z"/><path class="cls-5" d="M135.76,62.89a.7.7,0,0,1-.3.64c-.6.49-1.15,1-1.77,1.51-.34.26-.46.74-.92.85a.18.18,0,0,1-.29,0A19.59,19.59,0,0,1,135.76,62.89Z"/><path class="cls-6" d="M141.33,53A2.13,2.13,0,0,1,142,51.2c.26.22,0,.45,0,.68a3.26,3.26,0,0,1,.06.62c0,.09-.11.17-.16.26-.15-.08-.29-.16-.43,0Z"/><path class="cls-7" d="M132.48,65.84l.29,0-1.25,1.16a.57.57,0,0,1-.51.09A4.27,4.27,0,0,1,132.48,65.84Z"/><path class="cls-8" d="M120.28,82.21c.27.73-.2,1.1-.71,1.46A3.17,3.17,0,0,1,120.28,82.21Z"/><path class="cls-9" d="M122.45,79c-.17.31-.34.62-.52.93a1,1,0,0,1-.62.53,4.3,4.3,0,0,1,.87-1.49Q122.33,78.8,122.45,79Z"/><path class="cls-10" d="M128.62,69.9a.59.59,0,0,1-.13.5c-.28.32-.55.65-.85,1-.06.06-.2,0-.3.08A3.84,3.84,0,0,1,128.62,69.9Z"/><path class="cls-11" d="M140,59.64a2.09,2.09,0,0,1-1.49,1.09c.11-.22.23-.5.45-.53C139.43,60.13,139.53,59.51,140,59.64Z"/><path class="cls-12" d="M38.9,213.22c.18.11.21.38.05.38a2.75,2.75,0,0,1-1.6-.15l1.12,0C38.64,213.4,38.8,213.4,38.9,213.22Z"/><path class="cls-13" d="M123.47,77c.1.19.2.36-.06.52a2.49,2.49,0,0,0-.35.37h0l-.1,0-.1,0C122.9,77.48,123.21,77.26,123.47,77Z"/><path class="cls-13" d="M122.45,79l-.27,0,.68-1A1.29,1.29,0,0,1,122.45,79Z"/><path class="cls-8" d="M121.09,80.86a1.08,1.08,0,0,1-.63,1.09A1.51,1.51,0,0,1,121.09,80.86Z"/><path class="cls-14" d="M144.74,54.9c.18-.44.28-.5.59-.15.14.16.32.29.31.53C145.32,55.21,145.15,54.77,144.74,54.9Z"/><path class="cls-15" d="M43.8,206.12c0,.49-.26.72-.68.83C43.2,206.56,43.56,206.39,43.8,206.12Z"/><path class="cls-16" d="M141.55,52.77a1.5,1.5,0,0,1,0-.2c0-.1,0-.21.17-.19a.23.23,0,0,1,.15.11,2.24,2.24,0,0,1,.13.27c0,.14,0,.29,0,.43Z"/><path class="cls-7" d="M131,67.15c0,.49-.3.69-.7.83A1.26,1.26,0,0,1,131,67.15Z"/><path class="cls-17" d="M125.66,73.82c0,.33,0,.6-.44.64A.65.65,0,0,1,125.66,73.82Z"/><path class="cls-4" d="M161.07,8.92a.55.55,0,0,1-.64-.2A.73.73,0,0,1,161.07,8.92Z"/><path class="cls-4" d="M160.28,8.68c-.26.05-.53.09-.7-.2A.85.85,0,0,1,160.28,8.68Z"/><path class="cls-4" d="M161.75,9.12c-.25,0-.5.07-.66-.2A.7.7,0,0,1,161.75,9.12Z"/><path class="cls-4" d="M157.63,7.85c-.24,0-.48,0-.62-.22A.62.62,0,0,1,157.63,7.85Z"/><path class="cls-4" d="M162.56,9.36a.57.57,0,0,1-.63-.2A.64.64,0,0,1,162.56,9.36Z"/><path class="cls-4" d="M157,7.63c-.24,0-.49,0-.63-.23A.71.71,0,0,1,157,7.63Z"/><path class="cls-4" d="M156.36,7.4c-.25,0-.49.07-.64-.2A.64.64,0,0,1,156.36,7.4Z"/><path class="cls-4" d="M155.71,7.2c-.25,0-.49,0-.65-.19A.74.74,0,0,1,155.71,7.2Z"/><path class="cls-18" d="M255.55,244.17c-.3,0-.43-.16-.41-.45A.5.5,0,0,1,255.55,244.17Z"/><path class="cls-18" d="M255.85,244.56c-.24,0-.31-.17-.29-.39C255.76,244.22,255.82,244.37,255.85,244.56Z"/><path class="cls-19" d="M118.77,85.2c0,.19,0,.35-.19.43A.36.36,0,0,1,118.77,85.2Z"/><path class="cls-9" d="M121.31,80.44a.3.3,0,0,1-.22.43A.38.38,0,0,1,121.31,80.44Z"/><path class="cls-4" d="M158.16,8a.41.41,0,0,1-.51-.18A.53.53,0,0,1,158.16,8Z"/><path class="cls-19" d="M118.94,84.91a.24.24,0,0,1-.17.28A.22.22,0,0,1,118.94,84.91Z"/><path class="cls-8" d="M120.46,82a.2.2,0,0,1-.17.24A.19.19,0,0,1,120.46,82Z"/><path class="cls-20" d="M124.93,264.76a1.57,1.57,0,0,1,1.46,0Z"/><path class="cls-21" d="M142.58,254.94a1.73,1.73,0,0,0,1,.39,26.32,26.32,0,0,0,5.6.69,28.91,28.91,0,0,1,3.95.07,9.86,9.86,0,0,1,2-.14c1.89,0,3.79,0,5.69,0q3.54-.06,7.08-.17a4.45,4.45,0,0,0,1-.08,18.71,18.71,0,0,1,3.17-.22A15.45,15.45,0,0,0,175,255a.34.34,0,0,0,.24-.18.91.91,0,0,1,.65-.51,1,1,0,0,0,.85-.94,2.41,2.41,0,0,1,.43-1,2.86,2.86,0,0,0,.41-1.2,35,35,0,0,0,.32-4.69c.08-1.76,0-3.53.17-5.29s.06-3.48.1-5.22c0-1.35.1-2.7.14-4.06.05-1.71.13-3.42.13-5.13,0-3.29,0-6.58-.08-9.87a1.71,1.71,0,0,1,0-.32.29.29,0,0,1,.32-.33h2.9c2,0,3.93,0,5.89,0,1.16,0,2.28.23,3.42.27.22,0,.3.17.31.37.05.89.11,1.78.15,2.68.08,1.67.12,3.36.22,5,.06,1,.2,2.07.29,3.1s.16,1.91.19,2.87c.07,3.21.11,6.42.16,9.63a12.2,12.2,0,0,1-.05,1.48,44.25,44.25,0,0,0-.16,6.51c0,.64,0,1.28,0,1.91a15.88,15.88,0,0,0,.25,2.67,5.3,5.3,0,0,0,.51,1.48.78.78,0,0,0,.71.4c.54,0,1.08,0,1.6,0,2.42-.1,4.83-.06,7.25-.1.94,0,1.89-.07,2.83-.14.22,0,.42,0,.63,0l3.57-.38c.14,0,.29-.11.42-.09a24.5,24.5,0,0,0,3,0c1,0,1.92-.12,2.87-.13,1.57,0,3.13-.16,4.7-.14a15,15,0,0,0,2.21-.29,1,1,0,0,0,.86-.82,6.24,6.24,0,0,0,.07-2.32,1.65,1.65,0,0,0-1-1.31,7.92,7.92,0,0,0-1.08-.45,28.84,28.84,0,0,0-3.78-.79,19,19,0,0,1-4.86-1.24,5.88,5.88,0,0,0-1-.27c-.09,0-.23-.09-.24-.15a.29.29,0,0,1,.14-.25.45.45,0,0,0,.34-.47c0-1.14-.06-2.28,0-3.41,0-.64,0-1.26,0-1.9-.15-2.63-.08-5.27-.16-7.9,0-1.38,0-2.77,0-4.15a27,27,0,0,1,0-4,7.66,7.66,0,0,0-.1-1.15c0-1.92,0-3.85,0-5.78,0-.36.11-.47.44-.42a12.83,12.83,0,0,0,4.66-.28,10.36,10.36,0,0,1,1.57-.06c.54,0,1.07,0,1.61,0s1.28,0,1.92,0c1.09,0,2.19-.06,3.29,0s2.49,0,3.74-.09a2.21,2.21,0,0,1,1.53.28.65.65,0,0,0,.4.12c.49,0,.85.07.92.64a.38.38,0,0,0,.12.17,30.07,30.07,0,0,1,3.47,4.33c1.2,1.56,2.41,3.1,3.73,4.56a85.72,85.72,0,0,1,6.09,7.46c1.77,2.46,3.7,4.81,5.66,7.12,2.42,2.85,4.92,5.65,7.16,8.65.61.82,1.19,1.68,1.79,2.51a11.87,11.87,0,0,0,1.52,1.8,2.82,2.82,0,0,1,.51.68,12.2,12.2,0,0,0,1,1.42,11.54,11.54,0,0,1,1.39,2.14,6.15,6.15,0,0,0,.37.52.76.76,0,0,1,.1.41c0,.18-.23.14-.35.13a41,41,0,0,0-4.15,0c-.85,0-1.71-.13-2.56-.14-2.53,0-5.06-.05-7.59,0-2.16,0-4.32,0-6.48.09-2.78,0-5.56.08-8.34.14l-6.28.15c-1.35,0-2.71,0-4.06.11s-2.92.16-4.38.11a3.41,3.41,0,0,0-.43.06c-1.55.2-3.11.38-4.66.6-1.8.26-3.6.47-5.37.83a19.33,19.33,0,0,1-3.93.34c-1,0-2,.07-3,.08-2.06,0-4.12.15-6.19.09-1,0-2,0-3.07.08a14.44,14.44,0,0,1-2.46,0,12.63,12.63,0,0,0-1.38.07c-2.78,0-5.56,0-8.33.05a3.12,3.12,0,0,1-.75-.06,7.15,7.15,0,0,0-2.35-.14c-1.13.1-2.27.06-3.41.1-.67,0-1.35.1-2,.16l-.53,0c-2.2,0-4.41,0-6.62,0-1.67,0-3.34-.07-5,0a16.93,16.93,0,0,1-2.56-.16,33,33,0,0,0-4.45-.09c-.94,0-1.89-.12-2.84,0a12.32,12.32,0,0,1-1.49.14l-4,.09c-1.64,0-3.27-.07-4.9.08-.78.07-1.56.06-2.35.06-1.35,0-2.7-.06-4.06,0a8.11,8.11,0,0,1-1.38-.11c-1.24-.11-2.49-.1-3.73-.18a64.46,64.46,0,0,0-6.52-.22c-2.2.07-4.41.14-6.62.18-1.22,0-2.43,0-3.65,0a7.52,7.52,0,0,0-2,.23,5.51,5.51,0,0,1-1.81.1c-.91,0-1.83,0-2.75,0h-3.29a20.09,20.09,0,0,0-2.33.06,7.15,7.15,0,0,1-2.12-.12,11.32,11.32,0,0,0-2.32-.16l-9.65.13c-2.44,0-4.9.14-7.34.11-1,0-1.91.13-2.88,0a11.19,11.19,0,0,0-2.43.24,48.7,48.7,0,0,1-5,.2c-2.27-.42-4.56,0-6.84-.14a9.07,9.07,0,0,0-1.27.11c-.85.08-1.71.1-2.57.11a62.65,62.65,0,0,1-6.28-.05c-.71-.06-1.42,0-2.12-.09a13.84,13.84,0,0,0-2-.08,8,8,0,0,0-1.7.15c-.59.13-.59.1-.89-.43a2.22,2.22,0,0,0-.37-.52c-.77-.75-1.56-1.48-2.33-2.22a6.29,6.29,0,0,1-.43-.47,1.52,1.52,0,0,0-1.22-.76c-.24,0-.37-.2-.52-.34-1-1-2.19-1.84-3.18-2.87-.42-.43-.86-.85-1.31-1.27a7.61,7.61,0,0,0-1.57-1.43.57.57,0,0,1-.24-.22c-.49-.88-1.32-1.48-1.87-2.31s-1.19-1.51-1.76-2.29c-.31-.43-.7-.79-1.05-1.19l-2-2.32c-1.05-1.2-2.18-2.34-3.17-3.61a4.85,4.85,0,0,0-.59-.61A14.52,14.52,0,0,1,21,237.37a19.5,19.5,0,0,0-3.17-3.44A13,13,0,0,1,16,231.75c-.73-1-1.45-1.93-2.19-2.88-.61-.79-1.22-1.57-1.88-2.31s-1.65-1.65-2.43-2.51a43.16,43.16,0,0,1-3.67-3.86,10.06,10.06,0,0,0-1-1c-.73-.78-1.45-1.57-2.17-2.36a1.07,1.07,0,0,1-.14-.16c-.65-.75-.55-1.09.42-1.26A17.37,17.37,0,0,1,6,215.11c1.8,0,3.6-.08,5.41-.13l2.77-.06c.46,0,.92-.13,1.38-.14,1.39,0,2.77-.05,4.16-.06a19.82,19.82,0,0,1,3.85.23,12.54,12.54,0,0,0,2.45,0l5.2-.07c.07,0,.14,0,.21,0a21,21,0,0,0,2.63.22c1.77.08,3.52.23,5.29.33a1,1,0,0,1,.93.59c.32.67.63,1.35,1,2a14.49,14.49,0,0,0,1.82,2.89.33.33,0,0,1,0,.54,20.26,20.26,0,0,1-3.92,2.74A51.13,51.13,0,0,0,32,228.42a8.91,8.91,0,0,1-2.28,1.16,5.12,5.12,0,0,0-2.79,2.64,2.5,2.5,0,0,0-.23,1.36,1.32,1.32,0,0,0,.76,1.2,4.22,4.22,0,0,1,.62.42,2.22,2.22,0,0,0,1.2.41c.53,0,1.06,0,1.59,0a11.38,11.38,0,0,0,4.08-.78,10.11,10.11,0,0,1,1.22-.37,19.73,19.73,0,0,0,3.7-1.34c.85-.37,1.6-.93,2.44-1.3,1.4-.61,2.82-1.16,4.24-1.72.86-.33,1.74-.59,2.6-.93a4.31,4.31,0,0,0,1.15-.54,2.15,2.15,0,0,1,.88-.37,4.7,4.7,0,0,0,1.39-.53,4.63,4.63,0,0,1,1-.34c.84-.28,1.68-.57,2.52-.84a.38.38,0,0,1,.4,0c.16.11.1.27,0,.38A6,6,0,0,0,56,228.8c-.19.86-.51,1.7-.7,2.57-.41,1.83-1,3.63-1.23,5.49a2.39,2.39,0,0,1-.14.6,3.4,3.4,0,0,0-.23.94c-.16,1.51-.53,3-.61,4.52-.05,1-.23,1.89-.21,2.83a16.27,16.27,0,0,0,.08,2.42,1.1,1.1,0,0,0,.33.65,2.49,2.49,0,0,0,2.44,1,11.17,11.17,0,0,0,1.37-.14,2.33,2.33,0,0,0,1.18-.84,15.87,15.87,0,0,0,1.43-2.37c.68-1.41,1.33-2.83,2-4.25.87-1.86,1.75-3.72,2.62-5.59.14-.29.25-.59.36-.89a39.15,39.15,0,0,1,2.34-4.67,17,17,0,0,1,1.16-1.78c.54-.82,1.08-1.66,1.63-2.48a4.12,4.12,0,0,1,1.27-1.29.77.77,0,0,1,1.19.25c.46.63.89,1.29,1.32,1.95a31.58,31.58,0,0,1,2.15,3.57c.17.35.18.78.48,1.07a2.76,2.76,0,0,1,.4.87h0a2.52,2.52,0,0,1,.41.69,6.09,6.09,0,0,0,.79,1.62c.65,1.23,1.2,2.5,1.75,3.78a28,28,0,0,0,2.14,3.95c.49.77.86,1.63,1.3,2.44s.8,1.44,1.18,2.17a5.85,5.85,0,0,0,1.4,1.61,3.11,3.11,0,0,0,1.79.56,1,1,0,0,0,.48-.21c.12-.07.2-.26.32-.27.67-.1.79-.61.92-1.15a9.76,9.76,0,0,0,0-3.19,13.8,13.8,0,0,0-.78-3.21,20.81,20.81,0,0,1-.67-3.23q-.47-2.79-.84-5.59c-.08-.6-.06-1.21-.08-1.81,0-.15,0-.3.2-.32a.32.32,0,0,1,.32.23c.56,1.11,1,2.26,1.47,3.41s.65,2.33,1,3.49a26.24,26.24,0,0,0,.84,2.74c.43,1,.73,2.08,1.1,3.12a17.41,17.41,0,0,0,1.89,3.6,4.78,4.78,0,0,0,2.4,1.68c.13.05.3,0,.41.1.71.52,1.17,0,1.67-.38a.69.69,0,0,0,.27-.56,2,2,0,0,1,.08-.74,3.42,3.42,0,0,0,.09-1.9c-.33-2.68-.67-5.37-1-8.05-.24-1.73-.59-3.44-.85-5.17s-.81-3.68-1.15-5.53c-.27-1.4-.52-2.8-.85-4.19a24.2,24.2,0,0,0-.84-3,19.38,19.38,0,0,1-.56-2.15,12.79,12.79,0,0,0-.88-2.64c.19-.55.58-.28.92-.23a10.69,10.69,0,0,0,2.12.07c1.49-.11,3-.14,4.48-.14,2,0,4.1,0,6.15-.07a9.86,9.86,0,0,1,1.07.09l4,.19c.79,0,1.55.2,2.34.25,2.09.12,4.19.15,6.28.17,1.7,0,3.4,0,5.1.18a19.57,19.57,0,0,0,3.51.05,20.43,20.43,0,0,1,3,0c1.14.06,2.28,0,3.42-.08a37.87,37.87,0,0,1,6.73.35,28.08,28.08,0,0,0,4.58.25h2.47a6.5,6.5,0,0,1,1.7.17,1.75,1.75,0,0,0,.64.07,27.57,27.57,0,0,1,3.63.26,5.23,5.23,0,0,0,1.18.07,15,15,0,0,1,2,.06c.33,0,.43.13.41.47-.12,1.38-.11,2.77-.1,4.15,0,1.81.13,3.63.09,5.44,0,1.17.09,2.33,0,3.5,0,.74.08,1.48.07,2.23a11.58,11.58,0,0,1-.09,2.56,6.16,6.16,0,0,0-.1,1.49,22.81,22.81,0,0,1-.22,2.87c0,.39,0,.78,0,1.17q0,3,.08,6a4.7,4.7,0,0,1,0,.65c0,.34.06.77-.24,1a2.38,2.38,0,0,1-1,.46c-1.38.18-2.7.63-4.11.72-.8.06-1.6.3-2.42.42-1.05.15-2.1.39-3.15.57a9.91,9.91,0,0,0-1.45.36,21.92,21.92,0,0,1-2.36.69,3.53,3.53,0,0,0-.93.47.29.29,0,0,0-.2.23,4.1,4.1,0,0,0,0,2.17C142.07,254.75,142.39,254.75,142.58,254.94Z"/><path class="cls-21" d="M135.45,3.17c.17.29.48.29.74.35,1.72.42,3.44.84,5.17,1.22,2.26.51,4.5,1.12,6.75,1.65.93.22,1.88.37,2.81.58q3.09.74,6.16,1.5c.34.09.65.28,1,.38.84.27,1.69.51,2.54.76h0A33.41,33.41,0,0,1,165.79,12c.13.12.24.29.39.35.83.31,1.56.81,2.35,1.17,1.12.51,2,1.37,3.19,1.8a6.86,6.86,0,0,1,1.37,1c.28.15.63.18.86.43a28,28,0,0,1,2.9,1.8c.57.33,1,.85,1.59,1.24s.95.95,1.46,1.38c1,.88,1.89,1.93,2.83,2.9a10.56,10.56,0,0,1,.68.82c.27.17.36.5.62.68h0a1.47,1.47,0,0,0,.45.41c1.17,1.42,2.38,2.81,3.46,4.3.62.86,1.26,1.71,1.89,2.57s1.06,1.68,1.57,2.53c.67,1.09,1.28,2.21,2,3.25.24.36.17.81.54,1.12a4.28,4.28,0,0,1,.6,1.1c.2.37.44.73.64,1.1s.33.79.53,1.16a36.16,36.16,0,0,1,3.21,8.59c.45,1.66.89,3.31,1.28,5,.3,1.33.52,2.67.75,4,.49,2.78,1,5.56,1.42,8.34.36,2.23.67,4.46,1,6.69.37,2.61.67,5.24,1.09,7.85.25,1.51.38,3,.61,4.56.3,1.9.52,3.81.74,5.73.25,2.23.48,4.47.62,6.71s.37,4.56.54,6.84c.11,1.61.25,3.21.29,4.81s.15,3.06.24,4.59c.06,1.18.13,2.36.18,3.53,0,.49,0,.51-.5.66a8,8,0,0,1-2,.23c-1.84.1-3.67.28-5.5.4a12.42,12.42,0,0,1-2.44.17,1,1,0,0,0-.42.05,5.63,5.63,0,0,1-1.58.17,19.33,19.33,0,0,0-2.84.25,25.63,25.63,0,0,1-3.61.21,44.58,44.58,0,0,0-5.42.52A23.24,23.24,0,0,1,181,123c-2.24.12-4.48.29-6.71.61-1.15.16-2.31.27-3.46.42-1,.12-2,.26-3,.39a7.89,7.89,0,0,1-.85.09,2,2,0,0,1-.94,0c-.25-.12-.38-.49-.55-.75a4.84,4.84,0,0,0-.83-1,1.66,1.66,0,0,1-.62-.67h0a.37.37,0,0,1-.19-.25l0,0,0,0a.28.28,0,0,1-.22-.22.24.24,0,0,1-.21-.22h0a3.64,3.64,0,0,1-1.09-.64c0-.07-.08-.14-.07-.2a12.27,12.27,0,0,0,0-2,13.85,13.85,0,0,0,.13-2.73,13.15,13.15,0,0,0-.08-2.66,17,17,0,0,1,0-2.57,14.15,14.15,0,0,1,0-1.45,4.89,4.89,0,0,0,.07-1.38c0-.49,0-1,0-1.49a10.84,10.84,0,0,1,0-1.89c.08-1.59-.19-3.18,0-4.77-.23-2.55,0-5.1-.18-7.65-.06-1,0-2-.11-3,0-.32.21-.62,0-.92a9.42,9.42,0,0,0,0-3,32.16,32.16,0,0,0-.23-3.8,8.15,8.15,0,0,1-.29-1.55,1,1,0,0,0-.19-.5,12.17,12.17,0,0,0-1.57-2,3.24,3.24,0,0,0-3.49-.42,78.28,78.28,0,0,0-7.2,4.45c-1.35,1-2.68,1.91-4,2.91a12.93,12.93,0,0,0-3,3.4,23.07,23.07,0,0,0-3,7.72c-.29,1.32-.49,2.66-.7,4a45.66,45.66,0,0,0-.34,7.48,12.66,12.66,0,0,0,1.15,5c.28.64.52,1.31.77,2a14.57,14.57,0,0,0,1.31,2.43c.63,1,1.34,1.95,2,2.89.54.71,1.17,1.33,1.7,2,.88,1.15,1.87,2.21,2.81,3.3a.79.79,0,0,1,.19.58,3.69,3.69,0,0,1-.3,1.42c-.43,1-.72,2.09-1.18,3.09s-1.07,2-1.61,3a1.35,1.35,0,0,0-.29.67c-.77.82-1.32,1.83-2.17,2.58-.5.69-1,1.39-1.49,2.06s-1,1.2-1.51,1.78a2.15,2.15,0,0,1-.5.4.4.4,0,0,1-.5,0,2.15,2.15,0,0,0-.93-.49.68.68,0,0,1-.35-.23,4.23,4.23,0,0,0-1.62-1.35c-1.52-.94-3-2-4.47-3a45.63,45.63,0,0,1-4.48-3.61,25,25,0,0,1-4.26-4.75,76.6,76.6,0,0,1-5.5-9.54,10,10,0,0,1-.79-2.33A5.93,5.93,0,0,0,116,114a14.34,14.34,0,0,1-.65-5.29c0-1.11,0-2.22,0-3.33s.28-2.19.27-3.3c0-.54.07-1.07.11-1.61a1.42,1.42,0,0,1,.06-.42,18.12,18.12,0,0,0,.79-3.86,11.11,11.11,0,0,1,.61-2.26,6.94,6.94,0,0,0,.31-1,9,9,0,0,1,.77-2.09,2.72,2.72,0,0,0,.19-.5,30.56,30.56,0,0,1,1.92-4.25c.2-.37.35-.77.53-1.16a30.16,30.16,0,0,1,2.15-3.9c.46-.71.88-1.44,1.33-2.15s.87-1.38,1.36-2A21.2,21.2,0,0,1,127.14,75a1.57,1.57,0,0,0,.2-.25,24.12,24.12,0,0,1,2.48-3.45,25.22,25.22,0,0,1,3-3.24c1.2-1.11,2.48-2.14,3.68-3.24.82-.75,1.71-1.4,2.58-2.09,1.22-1,2.5-1.88,3.79-2.76L147,57.13c.36-.24.36-.24.73,0a19,19,0,0,0,4.85,2.69,26.28,26.28,0,0,0,3.52.89,27.17,27.17,0,0,0,4.12.44,10.79,10.79,0,0,0,3.38-.36c.34-.09.67-.23,1-.31a3.33,3.33,0,0,0,1.24-.6c.94-.7,1.9-1.38,2.78-2.14a13.51,13.51,0,0,0,1.43-1.59.58.58,0,0,0,.12-.29,4.24,4.24,0,0,1,.5-1.18,4.73,4.73,0,0,0,.57-2.16,31,31,0,0,0-.12-4.82,4,4,0,0,0-.48-1.63,8.11,8.11,0,0,1-.7-1.66,6.24,6.24,0,0,0-.86-1.71c-.32-.47-.54-1-.84-1.48a25.12,25.12,0,0,0-2.81-3.77,55,55,0,0,0-9.17-5.57,1.33,1.33,0,0,0-.64-.25.8.8,0,0,1-.25-.11l-.22-.15-.23-.15c-.41-.32-.94-.37-1.35-.65-1.52-.79-3.14-1.32-4.69-2-.83-.38-1.7-.67-2.56-1-1.09-.41-2.18-.84-3.25-1.3a25.75,25.75,0,0,0-3.55-1.14c-1.44-.37-2.77-1.06-4.22-1.43-.55-.14-1.11-.27-1.65-.42-1-.27-2-.57-3-.81a40.71,40.71,0,0,0-5-1.11c-1.52-.17-3-.28-4.58-.42-.88-.08-1.77-.16-2.65-.26a32.89,32.89,0,0,0-3.84-.17c-3.21,0-6.43.06-9.64.12a48.4,48.4,0,0,0-5.63.59l-.66.08a5.67,5.67,0,0,1-.1-2.13.17.17,0,0,1,0-.1c.58-.36.39-.72,0-1.11-.22-.24-.14-.54-.15-.82,0-1.46,0-2.91,0-4.37s0-2.71,0-4.07,0-2.78-.08-4.17c0-.68-.08-1.35-.12-2,0-.44.06-.51.45-.53,1.95-.07,3.89-.13,5.83-.25a29.8,29.8,0,0,1,3-.19,2,2,0,0,0,.52-.14,15.62,15.62,0,0,0,3.68,0h0a.22.22,0,0,1,.39,0c.1,0,.21.15.28.12A5.24,5.24,0,0,1,114,1.47a13.73,13.73,0,0,0,2.4-.05,1.18,1.18,0,0,1,.42,0,6,6,0,0,0,1.74,0,25.41,25.41,0,0,1,3.49,0c.64,0,1.27,0,1.91.06a47.78,47.78,0,0,1,5.06.45c.87.12,1.72.29,2.58.47.31.06.63.06.95.09a6,6,0,0,0,1.31.4Z"/><path class="cls-21" d="M162.17,144a2.21,2.21,0,0,0,1.94.26.94.94,0,0,0,.66-.62c.11-.29,0-.61.29-.88s0-.62.1-.94a.8.8,0,0,1,.07-.2.9.9,0,0,1,.57.18,3,3,0,0,0,3.19-.49,1.88,1.88,0,0,0,.65-1.31,16.87,16.87,0,0,0,0-4.26c-.12-.55-.25-1.11-.37-1.66-.24-1.14-.6-2.25-.83-3.39a19.46,19.46,0,0,0-1-2.81,7.86,7.86,0,0,0-.61-1.47c-.17-.28,0-.49.27-.54.67-.1,1.34-.21,2-.3l4.15-.5c1-.13,2-.32,3.07-.37,1.61-.07,3.2-.29,4.81-.24a43.56,43.56,0,0,0,5.23-.31c.84-.07,1.69-.08,2.53-.07a46.24,46.24,0,0,0,5-.24c.61-.06,1.22,0,1.82-.06,1.56-.12,3.12-.26,4.68-.37,1.13-.09,2.27-.13,3.4-.22s2.27-.22,3.4-.33a3.16,3.16,0,0,1,.32,0c.26,0,.39.08.42.36.07.78.14,1.56.18,2.34.09,1.53.11,3.07.25,4.6a19.93,19.93,0,0,1,.1,3c0,.64-.08,1.28-.08,1.92,0,1.32,0,2.64.07,3.95a2.25,2.25,0,0,0,.09.74,4.53,4.53,0,0,1,.16,1.79l-.06,5.79c0,.49,0,1-.07,1.49a38.86,38.86,0,0,0-.13,4.58c0,1.81,0,3.63,0,5.45s.07,3.91.1,5.87q0,3.75.08,7.5c0,1.81,0,3.63,0,5.44,0,1.31.05,2.63.08,3.94,0,.18,0,.36,0,.53a.33.33,0,0,1-.28.29,3,3,0,0,1-.43,0l-8.57.07c-1.54,0-3.07.12-4.6.09s-3.28.13-4.92.08c-.64,0-1.28,0-1.92-.11s-.64-.19-.56-.77a22.92,22.92,0,0,0,.06-3.1c0-2.06,0-4.13,0-6.2,0-.84-.05-1.69-.06-2.54s-.08-1.76-.12-2.64c0-.64-.08-1.28-.13-1.92-.07-.95,0-1.91,0-2.86,0-1.72-.09-3.42-.22-5.13,0-.75,0-1.5-.07-2.25-.13-1.43-.3-2.85-.47-4.27-.25-2.17-.52-4.33-.77-6.5-.17-1.45-.2-1.47-1.64-1.43a1.42,1.42,0,0,0-1.5,1.34c-.11,1-.22,1.92-.26,2.88q-.17,3.38-.65,6.72a4.33,4.33,0,0,0,0,1.48,2.6,2.6,0,0,1-.08,1.17,27.45,27.45,0,0,0-.34,3.94c-.1,1.6,0,3.22-.15,4.82-.16,2.09-.15,4.2-.24,6.3s-.13,4.41,0,6.62c.06,1.1.05,2.21.07,3.31,0,.11,0,.21,0,.32,0,.6-.47.85-1.09.64-.09,0-.2-.12-.28-.11a7.26,7.26,0,0,1-2.23-.15c-1.36-.16-2.71-.12-4.07-.19s-2.64-.14-4-.15c-1.5,0-3-.19-4.48-.28a23.14,23.14,0,0,0-3.53.1c-.38,0-.55-.1-.56-.47,0-.63.06-1.28,0-1.9-.11-.82,0-1.63-.1-2.44a8,8,0,0,1,0-2.35c.13-.85-.06-1.68.05-2.52a1.37,1.37,0,0,0-.13-.51c0-3,0-6,.2-8.93.29-3.9.25-7.82.87-11.7a22.31,22.31,0,0,0,0-4.4c0-.28.22-.45.15-.71-.26-.56.24-1.28-.36-1.77h0a1.26,1.26,0,0,1-.2-.2h0a.13.13,0,0,1-.05-.12s0-.07.05-.07h0a.39.39,0,0,1,.6,0l0,0a.46.46,0,0,1,.21.18h0Z"/><path class="cls-21" d="M78.4,200.55l1.3.71a16.91,16.91,0,0,1,6.07,5.39c.55.83,1.15,1.63,1.73,2.45.24.35.21.54-.13.81a2.12,2.12,0,0,1-1.34.57,5.21,5.21,0,0,0-1,.1c-.36,0-.46.18-.47.57,0,.11,0,.21,0,.32a.36.36,0,0,0,.29.39,3.62,3.62,0,0,0,2.69-.38,6.55,6.55,0,0,0,2.53-2.4c.18-.33.51-.59.73-.91q1.76-2.47,3.26-5.1c.34-1.2,1-2.26,1.33-3.49.16-.72.41-1.42.57-2.15a19.78,19.78,0,0,0,.28-3c.08-1.1,0-2.2,0-3.3a9.78,9.78,0,0,0-1.33-4.37,53.06,53.06,0,0,0-2.69-4.6,14.48,14.48,0,0,0-3-3.57c-.64-.5-1.26-1-1.88-1.56A9,9,0,0,0,83,175.14c-1.27-.22-2.54-.37-3.81-.54-.82-.12-1.63-.2-2.44-.32-.56-.09-.75-.31-.79-.84,0-.21,0-.42,0-.63a1.74,1.74,0,0,1,.31-1.31,2.76,2.76,0,0,1,1.48-1,8.6,8.6,0,0,1,5.91.81c.74.43,1.47.88,2.2,1.33a48.71,48.71,0,0,1,4.44,2.8A14.54,14.54,0,0,1,92.86,178a9.34,9.34,0,0,1,.73,1.18c.52.85,1.1,1.66,1.54,2.55a32.39,32.39,0,0,1,1.59,3.73c.45,1.35.7,2.75,1.16,4.09a9,9,0,0,1,.33,2.73c.05,1.89.19,3.77.09,5.66,0,.6,0,1.2,0,1.8a10.42,10.42,0,0,1-1.17,4.3c-.55,1.16-1.09,2.31-1.73,3.42a12.55,12.55,0,0,1-1.13,1.67c-.27.33-.5.69-.75,1a11.88,11.88,0,0,1-2,2.23c-.11.09-.25.16-.31.28-.54,1-1.07,1.94-1.58,2.92-.14.26.05.47.37.44a1.89,1.89,0,0,0,.41-.1.32.32,0,0,1,.42.23,16,16,0,0,1,.68,2.24c.2,1.2.62,2.33.93,3.5.46,1.71.87,3.43,1.2,5.16.3,1.54.64,3.07,1,4.6.11.52.22,1,.31,1.57.2,1.19.39,2.39.58,3.59.21,1.36.4,2.73.6,4.1.27,1.79.42,3.59.78,5.37a6.15,6.15,0,0,1,.09,1.06c0,.55,0,.51-.49.52a1,1,0,0,1-.84-.38,13.77,13.77,0,0,1-2.17-3.63c-.51-1.29-.95-2.6-1.41-3.9-.39-1.1-.62-2.25-.93-3.38-.26-.91-.57-1.81-.86-2.72s-.85-1.92-1.21-2.91a7.7,7.7,0,0,0-1-1.61,1,1,0,0,0-.86-.33,2.66,2.66,0,0,0-1.36.22c-.54.33-1,.73-.73,1.46a10.47,10.47,0,0,0,.1,2.85c0,.6.19,1.18.27,1.78q.44,3.18,1,6.33a16.09,16.09,0,0,0,.71,2.46,8.25,8.25,0,0,1,.26,3.16.83.83,0,0,1-1.35.6,1.78,1.78,0,0,1-.54-.52,6,6,0,0,1-.88-1.71,5.52,5.52,0,0,0-.58-1.26,53.44,53.44,0,0,1-2.45-4.76c-.41-.94-.83-1.87-1.24-2.81a33.2,33.2,0,0,0-1.57-3,20.06,20.06,0,0,1-1.19-2.36,24.44,24.44,0,0,0-2.34-4.18c-.65-1-1.35-2-2-3a1.85,1.85,0,0,0-2-.8,3.61,3.61,0,0,0-2.52,1.64c-.54.71-1,1.48-1.51,2.2a53.81,53.81,0,0,0-2.84,4.64,26.76,26.76,0,0,0-1.54,3.41c-.67,1.61-1.38,3.2-2.2,4.75-.28.53-.5,1.1-.76,1.65-.69,1.44-1.37,2.9-2.07,4.34-.21.41-.46.8-.71,1.19a1.73,1.73,0,0,1-1.24.76c-1,.15-1.28-.17-1.26-1.14a47.17,47.17,0,0,1,.61-6.29,27.94,27.94,0,0,1,.6-3.24c.23-.89.37-1.81.59-2.72s.46-2,.72-3c.16-.61.43-1.21.57-1.83a8.77,8.77,0,0,0,.19-1.7,17.33,17.33,0,0,0-.08-1.91c-.14-1.5-.44-1.64-1.72-1.12-1.79.73-3.57,1.47-5.42,2-.72.21-1.46.37-2.16.62-1.51.54-3,1.13-4.5,1.7-.46.18-.91.39-1.38.56-1.68.6-3.14,1.66-4.78,2.33a19.28,19.28,0,0,1-2.63.87,4.55,4.55,0,0,0-.82.24,10.13,10.13,0,0,1-2.67.75,8.22,8.22,0,0,1-2.88-.1.78.78,0,0,1-.63-1.12,1.93,1.93,0,0,1,1.17-1.42c.63-.23,1.22-.57,1.84-.85a15.05,15.05,0,0,0,2.38-1.41c1.21-.86,2.53-1.56,3.8-2.33s2.54-1.29,3.77-2a3.36,3.36,0,0,0,.71-.47c.7-.67,1.39-1.34,2.12-2s1.21-1.22,1.81-1.82a1.36,1.36,0,0,0,.38-.63,18.51,18.51,0,0,1,2.32-5c.76-1.25,1.57-2.48,2.37-3.7a2.82,2.82,0,0,1,.87-.92,4.35,4.35,0,0,0,1.1-1.3c.4-.55.79-1.1,1.21-1.64a1.41,1.41,0,0,1,.94-.65,1,1,0,0,0,.61-.42,4,4,0,0,1,1.47-1.05,1.57,1.57,0,0,0,.54-.33,18.08,18.08,0,0,1,2.61-1.84,8.5,8.5,0,0,1,3-1.46c.82-.23,1.62-.54,2.44-.8a17.68,17.68,0,0,1,4.13-.94c.74-.06,1.49-.06,2.24-.08a7.56,7.56,0,0,1,1.26,0,4.44,4.44,0,0,0,1.16-.1,8.63,8.63,0,0,1,1.68.25l1,.13C77.51,200.28,78,200.36,78.4,200.55Z"/><path class="cls-21" d="M175.48,252.33c-.11.26-.21.52-.32.77-.6.11-1.2.2-1.79.33a6.1,6.1,0,0,1-1.7.17,17,17,0,0,0-4.54.68,6.72,6.72,0,0,1-1.48.17c-1.53,0-3.07,0-4.6,0s-3.14.05-4.71.07a10.34,10.34,0,0,1-1.92-.14,28.29,28.29,0,0,0-4.6-.12,11.61,11.61,0,0,1-2.13-.13,20.17,20.17,0,0,1-2.34-.25,1.75,1.75,0,0,1-.42-.07c-.33-.18-.82,0-1-.45.26-.31.65-.23,1-.34a26.5,26.5,0,0,1,5.71-1.2c.83-.11,1.66-.33,2.51-.45,1.65-.22,3.24-.78,4.91-1a1.09,1.09,0,0,0,1-1,9.91,9.91,0,0,0,.1-2,15.13,15.13,0,0,1,.4-3.49,1.18,1.18,0,0,0,.08-.31,14.62,14.62,0,0,1,.23-2.95c0-.31.09-.62.14-.93.1-.62.07-1.27.11-1.91.07-1.23.16-2.47.24-3.7.28-.37-.18-.76,0-1.13a48,48,0,0,1,0-6.23c-.32-.57-.06-1.17-.13-1.76s0-1.13-.12-1.7a2.39,2.39,0,0,1,.09-.95,2.47,2.47,0,0,0,.07-.85c-.12-1.19-.07-2.39-.08-3.58,0-1,.13-1.9.06-2.86s.09-1.85.09-2.77-.07-2.07-.08-3.1c0-1.3,0-2.61,0-3.91s0-2.54-.1-3.81a13.93,13.93,0,0,1,.1-2.13c.13-2.23.2-4.47.39-6.7a53.48,53.48,0,0,0,.12-5.94,12.65,12.65,0,0,0-.08-2.22c0-.2.09-.42.08-.63s.13-.3.32-.34c.41-.08.84.14,1.24-.07,1.5.19,3,.2,4.52.32s2.72.2,4.08.21c1.21,0,2.42.11,3.62.16.45,0,.91,0,1.36,0s.74.14.68.68c-.13,1.38,0,2.75,0,4.12a5.8,5.8,0,0,1,.13,1.66c.06.53.09,1.07.11,1.6,0,.84.08,1.69.07,2.53,0,1.28,0,2.55,0,3.83,0,1.1,0,2.2.07,3.29,0,.7,0,1.4,0,2.1,0,1.16,0,2.32,0,3.47,0,1.55.1,3.09.06,4.63s-.08,3.26-.1,4.89-.1,3.33-.11,5a19.41,19.41,0,0,1-.13,3.49c.2.81-.16,1.64.06,2.44.07.28-.12.46-.13.71-.05,1.27,0,2.54-.13,3.8s-.1,2.49-.13,3.73c0,1.8,0,3.61-.1,5.42,0,.7-.13,1.4-.14,2.1,0,1.92-.07,3.84-.1,5.76C175.71,250.31,175.66,251.33,175.48,252.33Z"/><path class="cls-21" d="M209.8,238.36a11.63,11.63,0,0,0-.08,2.43c0,1.5.07,3,.07,4.5a1.57,1.57,0,0,0,.33,1.09c.22.27.34.59.78.65a1.64,1.64,0,0,1,.83.46,3.79,3.79,0,0,0,1.94.8,8.17,8.17,0,0,0,1.23.29,16.72,16.72,0,0,1,3.29.68c.74.18,1.48.43,2.22.68a2.07,2.07,0,0,0,.4.13c.25,0,.5-.06.67.2a1.37,1.37,0,0,1,.15,1,.47.47,0,0,1-.48.35c-.6.06-1.21.15-1.81.18-2.71.11-5.41.23-8.12.29-1.75,0-3.48.24-5.22.41-1,.1-2,.14-3,.16-2.17.05-4.35.06-6.52.09-.54,0-1.07.05-1.6.06-.71,0-.74,0-.75-.68,0-1.17,0-2.35-.06-3.52-.13-1.81,0-3.62,0-5.43,0-.47.18-.92.19-1.37a33.42,33.42,0,0,0,0-4.8c-.26-2.13-.4-4.27-.59-6.41-.23-2.67-.4-5.35-.43-8a57.57,57.57,0,0,0-.48-5.87c-.12-1.13-.27-2.26-.39-3.39-.16-1.49-.33-3-.46-4.46a23.36,23.36,0,0,1-.14-2.77c0-.58-.16-1.13-.15-1.69,0-1.41,0-2.82-.07-4.23s0-2.69,0-4-.08-2.7-.1-4c0-2.2,0-4.4-.08-6.6,0-.22,0-.43,0-.65a.29.29,0,0,1,.26-.29,1.67,1.67,0,0,1,.62-.09c.68.11,1.35,0,2,.06a11.23,11.23,0,0,0,1.92,0,20.21,20.21,0,0,1,2.2,0c2,0,4-.08,6.06-.13l3.73-.07a.69.69,0,0,1,.55.14c0,.21.05.45.05.7,0,2.39,0,4.78.09,7.17s0,4.7.15,7.05c.07,1.39.21,2.78.24,4.17l.09,6c0,2.57.07,5.13.11,7.7,0,2.07.1,4.14.09,6.21,0,1.74.06,3.48.11,5.22a18.44,18.44,0,0,1,.09,3.93C209.73,234.54,209.77,236.45,209.8,238.36Z"/><path class="cls-21" d="M150.79,57A22,22,0,0,1,147,53.89a4.17,4.17,0,0,0,.93-1.08,11.83,11.83,0,0,0,.53-1.4c.09-.29.19-.53.5-.63.21.17.09.39.11.59a.45.45,0,0,0,.61.4,2.69,2.69,0,0,0,1.74-1.31,15,15,0,0,0,1.28-2.93,26.56,26.56,0,0,0,1.16-7.36c0-.28.16-.34.4-.37a16.58,16.58,0,0,1,3.07,0,14.43,14.43,0,0,0,1.61,0,.88.88,0,0,1,.92.39.58.58,0,0,0,.23.21c.29.17.62,0,.63-.29s0-.78.09-1.17.13-.53.58-.6a2.35,2.35,0,0,1,2.28.85A26.81,26.81,0,0,0,166.53,42a.27.27,0,0,1,.08.07,8.59,8.59,0,0,1,.59.76A16.17,16.17,0,0,1,169.13,46a15.52,15.52,0,0,1,.75,4.19c0,.5,0,1,0,1.5a5.08,5.08,0,0,1-1.72,4.11,24.19,24.19,0,0,1-2.88,2.35,1.13,1.13,0,0,1-.36.22,10.66,10.66,0,0,1-3,.78c-.86,0-1.69.22-2.56.15a25.29,25.29,0,0,1-6.27-1.2c-.37-.12-.64-.47-1.06-.44A3.4,3.4,0,0,1,150.79,57Z"/><path class="cls-21" d="M91.65,16.79c.1-.34.07-.66-.2-.8s-.45-.49-.88-.5a7.82,7.82,0,0,0-2,.33c-2,.52-3.91,1.1-5.89,1.56-2.5.58-5,1.15-7.55,1.51-.5.07-1,.1-1.5.13a2.74,2.74,0,0,1-.63-.09.21.21,0,0,1-.19-.21.29.29,0,0,1,.1-.18c.68-.38,1.34-.82,2-1.14,1.27-.57,2.59-1,3.9-1.44,2-.65,4-1.19,6.08-1.68a5.07,5.07,0,0,0,1.49-.6.38.38,0,0,0,.06-.63c-.19-.17-.4-.3-.57-.48a.52.52,0,0,0-.48-.16,13.94,13.94,0,0,0-3.13.65c-1.46.46-2.95.79-4.41,1.24s-2.91.61-4.35,1a9.14,9.14,0,0,1-3.18.22c-.14,0-.3,0-.33-.2a.44.44,0,0,1,.13-.39,4.25,4.25,0,0,1,1.32-1,8.77,8.77,0,0,0,.91-.49,13.84,13.84,0,0,1,3.47-1.36c1.75-.46,3.5-.94,5.21-1.53,1.34-.46,2.61-1.1,3.91-1.67a1.46,1.46,0,0,0,.34-.26.46.46,0,0,0,0-.59,1.47,1.47,0,0,0-1.6-.55c-2,.56-4,1.12-6.08,1.58a27.62,27.62,0,0,0-3.85,1.29,7.86,7.86,0,0,1-2.08.43.37.37,0,0,1-.21,0,1.1,1.1,0,0,1-.31-.26s.09-.2.17-.25c.54-.34,1.06-.72,1.64-1,1.1-.55,2.19-1.12,3.33-1.61A33.3,33.3,0,0,1,81.22,6c1.51-.4,3-.69,4.56-1.13,1.84-.54,3.75-.87,5.63-1.28a10.67,10.67,0,0,1,2.33-.27h2.68c.24,0,.42.08.45.35.07.57.18,1.13.21,1.7.2,3.93.2,7.87.27,11.81,0,.1,0,.21,0,.32a.5.5,0,0,1-.43.52c-2.08.49-4.17,1-6.24,1.51a26.77,26.77,0,0,0-2.74.93,23.08,23.08,0,0,1-3.36,1c-1.43.31-2.89.41-4.31.73a6,6,0,0,1-1.27,0c-.16,0-.32,0-.31-.21a.48.48,0,0,1,.18-.35A16.81,16.81,0,0,1,83.75,19c2-.65,4-1.33,6-1.79C90.42,17.1,91,16.94,91.65,16.79Z"/><path class="cls-21" d="M146.29,134.41a.5.5,0,0,1,.11-.5,41.53,41.53,0,0,0,2.31-4.44,9,9,0,0,0,.63-1.9,4.06,4.06,0,0,1,.41-1,1.34,1.34,0,0,1,1-.72c1.46-.29,2.91-.62,4.35-1a11.25,11.25,0,0,0,3.33-1.6,8.41,8.41,0,0,1,1.89-1,1.27,1.27,0,0,1,1.12.11,7.4,7.4,0,0,1,2.66,2.58,25.73,25.73,0,0,1,2.59,6.31c.4,1.44.7,2.91,1,4.36a18.71,18.71,0,0,1,.39,4,.57.57,0,0,1-.64.66,1.12,1.12,0,0,1-1.11-.66,7.76,7.76,0,0,1-.54-2.05,9.15,9.15,0,0,0-.36-1.34c-.44-1.12-.6-2.33-.94-3.48-.17-.58-.3-1.16-.47-1.74a2.08,2.08,0,0,0-.19-.49c-.34-.62-.66-.64-1.12-.33a2,2,0,0,1-.37.21c-.31.1-.33.38-.35.6a1.76,1.76,0,0,0,.13.74A22.08,22.08,0,0,1,163,136c.07.53.19,1.05.29,1.58.16.84.34,1.68.47,2.53a6.84,6.84,0,0,1,0,1.28.81.81,0,0,1-.55.84,1.05,1.05,0,0,1-1.05-.39,1.14,1.14,0,0,1-.21-.37,12.31,12.31,0,0,0-.58-1.61,14,14,0,0,1-.91-2.49c-.46-1.51-1.15-2.92-1.69-4.39a1.87,1.87,0,0,0-.13-.4c-.34-.66-.61-.74-1.25-.36-.21.12-.5.2-.61.38a1.19,1.19,0,0,0,0,.94c.3.87.61,1.74.92,2.62.42,1.17.85,2.33,1.29,3.49a15.32,15.32,0,0,1,.84,2.53,3.31,3.31,0,0,1,.06.53.5.5,0,0,1-.08.31,1.53,1.53,0,0,1-1.43.53,1,1,0,0,1-.58-.58c-.71-1.44-1.44-2.88-2.15-4.31a1.21,1.21,0,0,0-.09-.2,16.13,16.13,0,0,1-1.71-3.67c-.45-1.2-.87-1.33-2.16-1a24.59,24.59,0,0,1-3,.56c-.77.08-1.56.13-2.34.15C146.34,134.46,146.32,134.43,146.29,134.41Z"/><path class="cls-21" d="M39.56,209.6c1,0,2-.33,3.09-.26a.59.59,0,0,0,.53-.31,30,30,0,0,1,2.57-2.72.64.64,0,0,0,.19-.48c0-.43,0-.85,0-1.28l0-4c0-.14,0-.29,0-.43a.36.36,0,0,1,.46-.32,2.06,2.06,0,0,1,.79.32c.76.68,1.77,1,2.54,1.68a10.31,10.31,0,0,0,1.74,1,8.28,8.28,0,0,1,2.53,2.3c-.72.9-1.43,1.79-2.15,2.67l-2.76,3.38a2.22,2.22,0,0,0-.29.46c-.59,1.25-1.37,2.41-1.86,3.71-.36,1-.85,1.88-1.28,2.82-.24.52-.45,1-.7,1.56s-.47.47-.78.12a10,10,0,0,1-1.2-2c-.3-.57-.56-1.16-.83-1.74a2.26,2.26,0,0,1-.25-.58,4,4,0,0,0-1-2,7,7,0,0,1-.76-1.4,1.35,1.35,0,0,0-.4-.49c-.19-.62-.92-1.11-.47-1.89h0A.55.55,0,0,1,39.56,209.6Z"/><path class="cls-22" d="M161.5,150.92a10.73,10.73,0,0,1,0,1.27c-.13.95-.11,1.91-.21,2.85-.13,1.26-.1,2.52-.2,3.78A9.36,9.36,0,0,1,161,160a3.27,3.27,0,0,0-.06,1.25,2.66,2.66,0,0,1-.09,1.15,4.69,4.69,0,0,0,0,1.45,13.5,13.5,0,0,1-.11,2.11.76.76,0,0,0,0,.21c.14,1.31-.1,2.62,0,3.93a3.24,3.24,0,0,1-.19,1.47c-.34-.24-.2-.58-.17-.88s.17-.4.11-.62-.25-.71-.37-1.06a1.72,1.72,0,0,0,.34-1.08,1.3,1.3,0,0,0,0-.73,1.88,1.88,0,0,1-.06-.94c0-1.19.08-2.39.12-3.58,0-.21,0-.43.06-.64a3.65,3.65,0,0,0,.08-1.36,1.81,1.81,0,0,1,.05-.83,12,12,0,0,0,.23-2.73,4.92,4.92,0,0,0-.05-1.38.47.47,0,0,1,0-.31,5.68,5.68,0,0,0,.25-2.42c0-.61.28-1.17.16-1.79C161.2,151.13,161.4,151,161.5,150.92Z"/><path class="cls-23" d="M146.72,49.7a3.07,3.07,0,0,0,.21-1.26,4.26,4.26,0,0,1,.12-.95,24.35,24.35,0,0,0,.54-2.93,2.27,2.27,0,0,1,.23-.71c0-.07.18-.16.25-.14.28,0,.55.15.87.24a7.51,7.51,0,0,1-.37,1.64,10.92,10.92,0,0,1-.45,1.65c-.16.51-.34,1-.5,1.53s-.34,1.08-.5,1.62C146.53,50.42,147,49.87,146.72,49.7Z"/><path class="cls-24" d="M155.08,31.21l.19.09.25.16h0c.14.27.46.05.63.25A44.58,44.58,0,0,1,160.47,34c1.5.86,2.86,1.93,4.33,2.83a1.17,1.17,0,0,1,.63.68,5.65,5.65,0,0,1-1.48-.82c-1-.7-2-1.27-3-2-.57-.42-1.29-.57-1.79-1.1a19.48,19.48,0,0,1-2-1,9.08,9.08,0,0,0-1.84-.78c-.1,0-.17-.21-.26-.32A.15.15,0,0,1,155.08,31.21Z"/><path class="cls-25" d="M209.8,238.36a3.29,3.29,0,0,1-.12-.61q-.06-4.42-.1-8.85a.78.78,0,0,1,0-.21.93.93,0,0,1,.33.94,8.59,8.59,0,0,0,0,2.43c.07.7-.07,1.41-.07,2.12,0,.41-.16.87.24,1.2,0,.33-.17.66.09,1,.08.1-.09.24-.19.34a.39.39,0,0,0-.08.4A1.89,1.89,0,0,1,209.8,238.36Z"/><path class="cls-26" d="M145.64,45.08c-.18,1-.35,2-.54,3,0,.28-.11.55-.16.82s0,.48-.19.66h0c-.07.1-.13.09-.17,0,0-.56,0-1.12,0-1.68a2.91,2.91,0,0,0,0-1.14.5.5,0,0,1,.07-.39,9.22,9.22,0,0,0,.71-1.87s.1-.09.15-.13A.75.75,0,0,1,145.64,45.08Z"/><path class="cls-27" d="M147.37,38.6a2.08,2.08,0,0,0,.44-.45.91.91,0,0,1,1.56.23.52.52,0,0,1,0,.3c0,.31-1,.75-1.3.6-.06,0-.11-.1-.17-.13l-.4-.14C147.42,38.9,147.18,38.84,147.37,38.6Z"/><path class="cls-28" d="M140.46,50.6c-.24.78-.48,1.56-.73,2.33,0,.08-.16.12-.25.15s-.09-.09-.13-.15a3.29,3.29,0,0,1-.13-1.36,1,1,0,0,1,.81-1.19c.09,0,.16-.12.23-.19C140.63,50.18,140.59,50.37,140.46,50.6Z"/><path class="cls-4" d="M165.79,12c-.22.1-.39,0-.59-.13a22.29,22.29,0,0,0-3.41-1.55,2.86,2.86,0,0,1-1.17-.66.55.55,0,0,1,.59-.07,38.62,38.62,0,0,1,3.72,1.8,1.84,1.84,0,0,0,.6.2A.39.39,0,0,1,165.79,12Z"/><path class="cls-29" d="M129.33,263.12a1.8,1.8,0,0,1-1.14.16c-1.45,0-2.9,0-4.35,0a15,15,0,0,1-1.9,0,2.05,2.05,0,0,1-.38-.16l.12-.15a4.17,4.17,0,0,1,1.45-.11c.73,0,1.47,0,2.2,0,.3,0,.58.14.89.11a6.15,6.15,0,0,1,.86,0h2A.23.23,0,0,1,129.33,263.12Z"/><path class="cls-30" d="M142.56,135.86a.5.5,0,0,1,.15-.38,11.88,11.88,0,0,0,1.51-1.87.67.67,0,0,1,.51-.33A5.22,5.22,0,0,1,142.56,135.86Z"/><path class="cls-31" d="M151.16,46V46a.38.38,0,0,1,0-.36l.08-.38c.09-.23,0-.48.12-.72s-.07-.71.25-1a.19.19,0,0,1,.29.05,1.56,1.56,0,0,1,0,.83c-.09.36-.18.71-.26,1.06s-.06.51-.17.74a.19.19,0,0,1-.22.17A.26.26,0,0,1,151.16,46Z"/><path class="cls-32" d="M121.53,262.65c1.29-.09,2.57,0,3.86,0a.62.62,0,0,1,.49.16c-.12.21-.32.14-.5.16h-2.24c-.5,0-1,0-1.48,0A.2.2,0,0,1,121.53,262.65Z"/><path class="cls-33" d="M111.69,1.44s-.11.11-.16.12c-.84,0-1.69.09-2.53.08a1.3,1.3,0,0,1-1-.22l3.17-.11A2.39,2.39,0,0,1,111.69,1.44Z"/><path class="cls-34" d="M175.48,252.33a2.32,2.32,0,0,1,0-1.14,6.06,6.06,0,0,0,.26-1.74s.1-.09.15-.13A5.86,5.86,0,0,1,175.48,252.33Z"/><path class="cls-35" d="M39.31,209.8a2,2,0,0,0,.14,1c.14.29.37.54.33.88a2.74,2.74,0,0,1-.86-1.53C38.83,209.9,39.07,209.81,39.31,209.8Z"/><path class="cls-36" d="M155.08,31.21l0,.26L154,31a.66.66,0,0,1-.43-.43C154.19,30.51,154.59,31,155.08,31.21Z"/><path class="cls-37" d="M150.79,57c.55,0,.83.48,1.26.7-.13,0-.29.14-.39.1C151.27,57.65,150.9,57.47,150.79,57Z"/><path class="cls-38" d="M146.72,49.7c.19.2,0,.59.4.69A.72.72,0,0,1,147,51a.25.25,0,0,1-.17.08.21.21,0,0,1-.13-.13A3.18,3.18,0,0,1,146.72,49.7Z"/><path class="cls-39" d="M78.4,200.55a1.46,1.46,0,0,1-1.32-.42C77.63,199.91,78,200.21,78.4,200.55Z"/><path class="cls-29" d="M129.28,262.85l1.07,0a.25.25,0,0,1,.13.15s-.1.15-.11.14c-.34-.16-.71.08-1-.06l-.05-.07c-.07,0-.09-.09-.06-.13S129.26,262.85,129.28,262.85Z"/><path class="cls-40" d="M161.32,144a.4.4,0,0,1,.4.41,3.46,3.46,0,0,1,0,1.36c-.25-.22-.15-.52-.14-.77A1.91,1.91,0,0,0,161.32,144Z"/><path class="cls-32" d="M119.85,262.65a5.14,5.14,0,0,1,1.3,0c.08.22-.11.28-.23.38-.39.08-.72-.16-1.08-.19-.07-.05-.1-.1-.07-.14S119.83,262.65,119.85,262.65Z"/><path class="cls-41" d="M133.81,2.89a1.54,1.54,0,0,1-1.31-.4c.05,0,.11-.13.14-.12C133,2.55,133.5,2.54,133.81,2.89Z"/><path class="cls-42" d="M151.87,44.39l-.06-.9-.18-.18.19-.43q.12-.18.24,0C152,43.38,152.2,43.92,151.87,44.39Z"/><path class="cls-43" d="M129.28,262.85a.34.34,0,0,1,0,.2,7.52,7.52,0,0,1-1.5,0c-.07,0-.09-.08-.07-.12a.1.1,0,0,1,.07-.06Z"/><path class="cls-44" d="M162.38,120.81a1.45,1.45,0,0,1,1.09.64A1,1,0,0,1,162.38,120.81Z"/><path class="cls-45" d="M147.37,38.6l.17.41a3.71,3.71,0,0,1-.27.29.37.37,0,0,1-.18.05s-.06-.06-.05-.08C147.1,39,147.05,38.72,147.37,38.6Z"/><path class="cls-46" d="M140.46,50.6c-.07-.13,0-.32-.2-.41,0-.14,0-.28.12-.37a.19.19,0,0,1,.31.12A.71.71,0,0,1,140.46,50.6Z"/><path class="cls-29" d="M131.22,262.85c.1,0,.32,0,.25.2,0,.08-.15.14-.25.16s-.33-.14-.28-.24S131.06,262.85,131.22,262.85Z"/><path class="cls-47" d="M93.24,214.92l-.59.05a.35.35,0,0,0-.33.18c-.14-.27-.13-.43.05-.41A1.54,1.54,0,0,1,93.24,214.92Z"/><path class="cls-48" d="M76.66,233.21a1.31,1.31,0,0,1-.4-.87C76.81,232.73,76.82,232.75,76.66,233.21Z"/><path class="cls-40" d="M161.68,143.64h-.6a.29.29,0,0,1,.17-.34C161.51,143.24,161.59,143.45,161.68,143.64Z"/><path class="cls-44" d="M164.1,122.12c.29.14.58.29.62.67C164.17,122.65,164.16,122.64,164.1,122.12Z"/><path class="cls-49" d="M119.85,262.65c0,.07,0,.13,0,.2-.3,0-.62.1-.91-.12C119.23,262.54,119.55,262.65,119.85,262.65Z"/><path class="cls-50" d="M120.92,263c.08-.12.16-.25.23-.38h.38a.32.32,0,0,1,0,.17c.07,0,.1.08.08.13s0,.07-.07.07v.09Z"/><path class="cls-51" d="M145.64,45.08l-.06-.78,0-.35c.2-.06.3,0,.25.22A1.71,1.71,0,0,1,145.64,45.08Z"/><path class="cls-52" d="M184,25.49c-.43,0-.48-.39-.62-.68C183.82,24.85,183.94,25.16,184,25.49Z"/><path class="cls-53" d="M174,16.67a.85.85,0,0,1-.86-.43A.77.77,0,0,1,174,16.67Z"/><path class="cls-54" d="M146.7,40.37a.52.52,0,0,1-.45.34h0a1,1,0,0,1,.43-.82A.42.42,0,0,1,146.7,40.37Z"/><path class="cls-55" d="M127.15,263.05h-.88q-.09-.06-.06-.12s0-.06.06-.06a1,1,0,0,1,.88,0q.09.06.06.12S127.17,263.05,127.15,263.05Z"/><path class="cls-48" d="M77.07,233.9a.79.79,0,0,1-.41-.69A.55.55,0,0,1,77.07,233.9Z"/><path class="cls-56" d="M142.58,254.94c-.48,0-.52-.06-.65-.46C142.19,254.57,142.51,254.58,142.58,254.94Z"/><path class="cls-57" d="M145.86,44.17l-.25-.22c0-.07,0-.16.08-.19a1.1,1.1,0,0,1,.26-.15,1.07,1.07,0,0,1,.06.29A1,1,0,0,1,145.86,44.17Z"/><path class="cls-58" d="M126.27,262.86V263a1.3,1.3,0,0,1-.85,0v-.14l.47-.1Z"/><path class="cls-59" d="M151.37,44.49c0,.25.1.52-.12.72C151.24,45,151.14,44.7,151.37,44.49Z"/><path class="cls-59" d="M151.44,46.19c0-.26-.09-.54.17-.74A.93.93,0,0,1,151.44,46.19Z"/><path class="cls-60" d="M143.73,53.05c.05,0,.13.06.14.11s0,.21-.12.22-.16-.05-.17-.09A.21.21,0,0,1,143.73,53.05Z"/><path class="cls-61" d="M144.75,49.53a.55.55,0,0,1,.19-.66C145,49.13,145,49.37,144.75,49.53Z"/><path class="cls-62" d="M127.15,263.05a.61.61,0,0,1,0-.19h.63V263Z"/><path class="cls-52" d="M184.49,25.9c-.4,0-.4,0-.45-.41C184.24,25.57,184.44,25.66,184.49,25.9Z"/><path class="cls-59" d="M151.16,46l.06.35,0,.17h0C150.94,46.37,151,46.19,151.16,46Z"/><path class="cls-63" d="M152.06,42.88h-.24a.71.71,0,0,1,0-.21s.09-.06.14-.08,0,0,0,.08A.75.75,0,0,1,152.06,42.88Z"/><path class="cls-33" d="M112.09,1.44h-.39C111.9,1.19,111.9,1.19,112.09,1.44Z"/><path class="cls-64" d="M146.7,40.37V39.9C147,40,147,40.06,146.7,40.37Z"/><path class="cls-61" d="M144.58,49.51a.2.2,0,0,1,.17,0c.06.14,0,.33-.11.32S144.52,49.64,144.58,49.51Z"/><path class="cls-40" d="M161.08,143.63a.17.17,0,0,1,0,.19l-.14-.09Z"/><path class="cls-44" d="M163.69,121.67c.14,0,.22.07.22.22A.2.2,0,0,1,163.69,121.67Z"/><path class="cls-44" d="M163.48,121.45a.2.2,0,0,1,.21.22C163.55,121.67,163.48,121.6,163.48,121.45Z"/><path class="cls-59" d="M151.17,45.59V46A.23.23,0,0,1,151.17,45.59Z"/><path class="cls-13" d="M123.06,77.89s.08,0,.08,0,0,0-.08,0Z"/><path class="cls-40" d="M161.91,143.84c-.14,0-.2-.05-.21-.18A.18.18,0,0,1,161.91,143.84Z"/><path class="cls-40" d="M161.09,143.83a.18.18,0,0,1,.2.2C161.16,144,161.08,144,161.09,143.83Z"/><path class="cls-40" d="M162.17,144a.19.19,0,0,1-.25-.19A.21.21,0,0,1,162.17,144Z"/><path class="cls-59" d="M151.19,46.53l.09.08-.05,0,0-.07Z"/><path class="cls-35" d="M39.56,209.6a.32.32,0,0,1-.25.2A.2.2,0,0,1,39.56,209.6Z"/><path class="cls-65" d="M146.25,40.71c0,.1,0,.13-.1.11s0-.06,0-.07.06,0,.09,0Z"/><polygon class="cls-66" points="152.16 41.95 152.14 41.89 152.19 41.89 152.16 41.95"/><path class="cls-67" d="M151.63,43.31c.12,0,.19.06.18.19h-.19A.28.28,0,0,1,151.63,43.31Z"/><path class="cls-44" d="M163.91,121.88a.2.2,0,0,1,.19.25C164,122.1,163.89,122,163.91,121.88Z"/><path class="cls-68" d="M182,224.83c-.14-.51-.15-.78,0-1a.18.18,0,0,1,.16-.1c.05,0,.12.1.11.14C182.24,224.11,182.15,224.37,182,224.83Z"/><path class="cls-69" d="M21.16,215.36a.19.19,0,0,1-.2.19c-.17,0-.34,0-.38-.22s.08-.16.19-.16S21.11,215.14,21.16,215.36Z"/><path class="cls-70" d="M182.27,249.57s-.06,0-.07,0a.13.13,0,0,1,0-.08c0-.08.07-.09.11,0S182.28,249.54,182.27,249.57Z"/><path class="cls-71" d="M149.11,216.79s-.06,0-.08,0-.09-.07,0-.11a.11.11,0,0,1,.08,0S149.1,216.77,149.11,216.79Z"/><path class="cls-36" d="M156.14,31.7c-.26.05-.5.05-.63-.25A.78.78,0,0,1,156.14,31.7Z"/><path class="cls-36" d="M155.52,31.46c-.14,0-.21,0-.25-.16A.21.21,0,0,1,155.52,31.46Z"/><path class="cls-72" d="M171.31,131.69a.84.84,0,0,1,.74,0,.19.19,0,0,1,.08.16.18.18,0,0,1-.11.14C171.72,132.06,171.53,131.88,171.31,131.69Z"/><path class="cls-73" d="M164.25,197.36c-1.21.2-2-.61-2.61-1.54a1.62,1.62,0,0,1-.19-1.24c0-.13.1-.27.3-.17a3,3,0,0,1,1.3.84c.39.56,1.08.48,1.67.41a.78.78,0,0,0,.68-.6,2.3,2.3,0,0,1,.42-.74.27.27,0,0,1,.44-.09,1,1,0,0,0,.49.16.77.77,0,0,1,.56.94C166.67,197,165.84,197.48,164.25,197.36Z"/><path class="cls-74" d="M201.94,197.34a2.32,2.32,0,0,1-2.3-1.25,4.58,4.58,0,0,1-.88-1.57,2.38,2.38,0,0,1-.07-.84c0-.26.15-.32.44-.23a3.59,3.59,0,0,0,.39.12.74.74,0,0,1,.65.56,2.42,2.42,0,0,0,.54.91,1.63,1.63,0,0,0,2.5.16,5.3,5.3,0,0,0,1.14-1.26c.26-.47.5-.5,1.07-.34a3.8,3.8,0,0,1,.6.18.53.53,0,0,1,.23.78,9.4,9.4,0,0,1-2.15,2.34A4.31,4.31,0,0,1,201.94,197.34Z"/><path class="cls-75" d="M159.47,53.48c.19-.79.33-1.42.5-2a2.54,2.54,0,0,1,.3-.54c.22.22.41.4.58.6a.42.42,0,0,1,.1.3c-.15.88-.32,1.75-.47,2.63a.69.69,0,0,1-.62.64,1,1,0,0,1-1-.43,10.57,10.57,0,0,0-2.66-3,4.83,4.83,0,0,1-.49-.41.46.46,0,0,1,0-.67c.13-.17.28-.17.47-.07a6.65,6.65,0,0,1,2.57,2C158.93,52.79,159.15,53.07,159.47,53.48Z"/><path class="cls-76" d="M163.84,41.56c0,.1,0,.2-.16.25-.34.12-.7.22-1-.06s-.76-.83-1.12-1.26c-.05-.06,0-.2,0-.29s.1-.11.13-.16c.46-.71.46-.71,1.07-.19.22.18.44.36.64.56A1.48,1.48,0,0,1,163.84,41.56Z"/><path class="cls-76" d="M155,55.07a7,7,0,0,1-.79-.09,1.14,1.14,0,0,1-.92-.77c-.15-.47,0-.67.51-.81a1.51,1.51,0,0,1,1.29.22c.39.23.44.53.19.94C155.17,54.71,155.1,54.86,155,55.07Z"/><path class="cls-77" d="M156.76,48.57a1,1,0,0,1-1-1.27.53.53,0,0,1,.47-.37,1.48,1.48,0,0,1,1.33.5.62.62,0,0,1-.4,1.08Z"/><path class="cls-78" d="M49.34,207.36c-.05.16-.1.37-.18.56a.28.28,0,0,1-.36.14,5.72,5.72,0,0,1-.68-.28,1,1,0,0,1,.54-1.84c.32,0,.44.11.5.43S49.28,207,49.34,207.36Z"/><path class="cls-79" d="M46.18,211.11a2.33,2.33,0,0,1,.77-1.65.33.33,0,0,1,.54.06,1.29,1.29,0,0,1,.14,1.38,2.1,2.1,0,0,1-.77.85c-.15.1-.29.22-.48.15S46.18,211.56,46.18,211.11Z"/><path class="cls-80" d="M43.81,211.81a2,2,0,0,1-.05.26.35.35,0,0,1-.48.21c-.39-.21-.84-.32-1-.82a.73.73,0,0,1,.14-.86,1.83,1.83,0,0,1,.55-.3.51.51,0,0,1,.68.31A3,3,0,0,1,43.81,211.81Z"/><path class="cls-81" d="M125.41,262.89a.66.66,0,0,0,0,.14,8.88,8.88,0,0,1-2.36,0c-.07,0-.09-.08-.07-.12a.1.1,0,0,1,.07-.05A9.72,9.72,0,0,1,125.41,262.89Z"/><path class="cls-82" d="M123.06,262.87V263a5,5,0,0,1-1.5,0,.66.66,0,0,0,0-.2A9.53,9.53,0,0,1,123.06,262.87Z"/></g></g></g></g></svg>