<svg xmlns="http://www.w3.org/2000/svg" viewBox="0 0 160.07 160.07"><defs><style>.cls-1{fill:#ed7700;}.cls-2{fill:#3b3735;}</style></defs><g id="Capa_2" data-name="Capa 2"><g id="Capa_1-2" data-name="Capa 1"><rect class="cls-1" width="160.07" height="160.07" rx="44.02"/><ellipse class="cls-2" cx="46.95" cy="76.08" rx="6.5" ry="9.99"/><ellipse class="cls-2" cx="111.91" cy="76.08" rx="6.5" ry="9.99"/><path class="cls-2" d="M102.48,119c5.57,0,9.4-5.27,7-9.87-4.77-9.37-16.13-16-29.38-16s-24.6,6.58-29.37,16c-2.35,4.6,1.48,9.87,7,9.87Z"/><path class="cls-2" d="M17.18,60.82a4.15,4.15,0,0,0,2.7,1.65c11.49,2.73,34.11-.75,36-14,.3-2.16-.92-7.45-4.34-4.93-3.59,2.64-6,6.31-9.76,8.9a20.44,20.44,0,0,1-12.5,3.8c-3-.1-6.24-.7-9.17.13C17.43,57.12,16.22,59.23,17.18,60.82Z"/><path class="cls-2" d="M142.89,60.82a4.15,4.15,0,0,1-2.7,1.65c-11.5,2.73-34.11-.75-36-14-.3-2.16.92-7.45,4.33-4.93,3.6,2.64,6,6.31,9.76,8.9a20.49,20.49,0,0,0,12.51,3.8c3-.1,6.24-.7,9.17.13C142.64,57.12,143.84,59.23,142.89,60.82Z"/></g></g></svg>