<svg xmlns="http://www.w3.org/2000/svg" viewBox="0 0 160.07 160.07"><defs><style>.cls-1{fill:#fbc000;}.cls-2{fill:#fff;}.cls-3{fill:#3b3735;}</style></defs><g id="Capa_2" data-name="Capa 2"><g id="Capa_1-2" data-name="Capa 1"><rect class="cls-1" width="160.07" height="160.07" rx="44.02"/><rect class="cls-2" x="100.46" y="97.72" width="11.1" height="9.59"/><rect class="cls-2" x="69.7" y="97.72" width="11.1" height="9.59"/><rect class="cls-2" x="54.33" y="83.63" width="11.1" height="9.8"/><rect class="cls-2" x="54.33" y="97.72" width="11.1" height="9.59"/><path class="cls-2" d="M50,83.63H48.58A11.75,11.75,0,0,0,37,93.44H50Z"/><rect class="cls-2" x="85.08" y="97.72" width="11.1" height="9.59"/><path class="cls-2" d="M126.06,93.44a11.76,11.76,0,0,0-10.22-9.73v9.73Z"/><rect class="cls-2" x="100.46" y="83.63" width="11.1" height="9.8"/><rect class="cls-2" x="85.08" y="83.63" width="11.1" height="9.8"/><path class="cls-2" d="M115.84,107.23A11.75,11.75,0,0,0,126,97.72H115.84Z"/><rect class="cls-2" x="69.7" y="83.63" width="11.1" height="9.8"/><path class="cls-2" d="M37.06,97.72a11.74,11.74,0,0,0,11.52,9.59H50V97.72Z"/><path class="cls-3" d="M114.5,79.35H48.58a16,16,0,0,0-16,16v.21a2.14,2.14,0,0,1,2.14-2.14h.15a13.87,13.87,0,0,1,13.72-12h1.69a2.12,2.12,0,0,1,3.83,0H65.64a2.13,2.13,0,0,1,3.84,0H81a2.13,2.13,0,0,1,3.84,0H96.4a2.13,2.13,0,0,1,3.84,0h11.54a2.13,2.13,0,0,1,3.87.06,13.87,13.87,0,0,1,12.59,12,2.13,2.13,0,0,1,0,4.12,13.87,13.87,0,0,1-12.39,11.75,2.13,2.13,0,0,1-4.24.06H100.44a2.13,2.13,0,0,1-4.24,0H85.06a2.13,2.13,0,0,1-4.24,0H69.68a2.13,2.13,0,0,1-4.23,0H54.3a2.13,2.13,0,0,1-4.23,0H48.58A13.86,13.86,0,0,1,34.89,97.72h-.18a2.14,2.14,0,0,1-2.14-2.14,16,16,0,0,0,16,16H114.5a16,16,0,0,0,16-16v-.21A16,16,0,0,0,114.5,79.35Z"/><path class="cls-3" d="M96.18,107.31H85.08v1.91a1.79,1.79,0,0,1,0,.23H96.2a1.79,1.79,0,0,1,0-.23Z"/><path class="cls-3" d="M50,107.31H48.58a11.74,11.74,0,0,1-11.52-9.59H34.89a13.86,13.86,0,0,0,13.69,11.73h1.49a1.81,1.81,0,0,1,0-.23Z"/><path class="cls-3" d="M65.42,107.31H54.33v1.91a1.81,1.81,0,0,1,0,.23H65.45a1.81,1.81,0,0,1,0-.23Z"/><path class="cls-3" d="M80.8,107.31H69.7v1.91a1.79,1.79,0,0,1,0,.23H80.82a1.79,1.79,0,0,1,0-.23Z"/><path class="cls-3" d="M100.46,83.63h11.1V82.42a2.12,2.12,0,0,1,.22-.93H100.24a2.12,2.12,0,0,1,.22.93Z"/><path class="cls-3" d="M48.58,83.63H50V82.42a2.13,2.13,0,0,1,.23-.93H48.58a13.87,13.87,0,0,0-13.72,12H37A11.75,11.75,0,0,1,48.58,83.63Z"/><path class="cls-3" d="M85.08,83.63h11.1V82.42a2.12,2.12,0,0,1,.22-.93H84.86a2.12,2.12,0,0,1,.22.93Z"/><path class="cls-3" d="M69.7,83.63H80.8V82.42a2.12,2.12,0,0,1,.22-.93H69.48a2.12,2.12,0,0,1,.22.93Z"/><path class="cls-3" d="M54.33,83.63H65.42V82.42a2.27,2.27,0,0,1,.22-.93H54.1a2.13,2.13,0,0,1,.23.93Z"/><path class="cls-3" d="M111.56,107.31h-11.1v1.91c0,.08,0,.15,0,.23h11.14a1.79,1.79,0,0,1,0-.23Z"/><path class="cls-3" d="M115.84,83.71a11.76,11.76,0,0,1,10.22,9.73h1.62a2.1,2.1,0,0,1,.56.08,13.87,13.87,0,0,0-12.59-12,2.13,2.13,0,0,1,.19.87Z"/><path class="cls-3" d="M126,97.72a11.75,11.75,0,0,1-10.19,9.51v2c0,.06,0,.11,0,.17a13.87,13.87,0,0,0,12.39-11.75,1.89,1.89,0,0,1-.53.08Z"/><rect class="cls-3" x="69.7" y="95.58" width="11.1" height="2.14"/><rect class="cls-3" x="54.33" y="95.58" width="11.1" height="2.14"/><path class="cls-3" d="M115.84,95.58h10.39v-.21a11.17,11.17,0,0,0-.17-1.93H115.84Z"/><rect class="cls-3" x="85.08" y="95.58" width="11.1" height="2.14"/><rect class="cls-3" x="100.46" y="93.44" width="11.1" height="2.14"/><path class="cls-3" d="M115.84,97.72H126a11.67,11.67,0,0,0,.2-2.14H115.84Z"/><rect class="cls-3" x="85.08" y="93.44" width="11.1" height="2.14"/><rect class="cls-3" x="69.7" y="93.44" width="11.1" height="2.14"/><rect class="cls-3" x="100.46" y="95.58" width="11.1" height="2.14"/><path class="cls-3" d="M37.06,97.72H50V95.58H36.85A11.67,11.67,0,0,0,37.06,97.72Z"/><rect class="cls-3" x="54.33" y="93.44" width="11.1" height="2.14"/><path class="cls-3" d="M50,93.44H37a12.26,12.26,0,0,0-.17,1.93v.21H50Z"/><path class="cls-3" d="M34.71,97.72h.18a13.73,13.73,0,0,1-.18-2.14v-.21a13.59,13.59,0,0,1,.15-1.93h-.15a2.14,2.14,0,0,0,0,4.28Z"/><path class="cls-3" d="M128.38,95.58a14,14,0,0,1-.17,2.06,2.13,2.13,0,0,0,0-4.12,14.13,14.13,0,0,1,.14,1.85Z"/><path class="cls-3" d="M36.85,95.58H34.71a13.73,13.73,0,0,0,.18,2.14h2.17A11.67,11.67,0,0,1,36.85,95.58Z"/><path class="cls-3" d="M34.71,95.58h2.14v-.21A12.26,12.26,0,0,1,37,93.44H34.86a13.59,13.59,0,0,0-.15,1.93Z"/><path class="cls-3" d="M126.06,93.44a11.17,11.17,0,0,1,.17,1.93v.21h0a11.67,11.67,0,0,1-.2,2.14h1.65a1.89,1.89,0,0,0,.53-.08,14,14,0,0,0,.17-2.06v-.21a14.13,14.13,0,0,0-.14-1.85,2.1,2.1,0,0,0-.56-.08Z"/><rect class="cls-3" x="52.18" y="97.72" width="2.14" height="9.59"/><rect class="cls-3" x="50.04" y="97.72" width="2.14" height="9.59"/><rect class="cls-3" x="50.04" y="83.63" width="2.14" height="9.8"/><rect class="cls-3" x="52.18" y="83.63" width="2.14" height="9.8"/><path class="cls-3" d="M52.18,80.28a2.13,2.13,0,0,0-1.91,1.21H54.1A2.13,2.13,0,0,0,52.18,80.28Z"/><path class="cls-3" d="M52.18,111.36a2.14,2.14,0,0,0,2.12-1.91H50.07A2.13,2.13,0,0,0,52.18,111.36Z"/><path class="cls-3" d="M54.33,107.31H52.18v0H50v1.91a1.81,1.81,0,0,0,0,.23H54.3a1.81,1.81,0,0,0,0-.23Z"/><path class="cls-3" d="M50,83.63h2.14v0h2.15V82.42a2.13,2.13,0,0,0-.23-.93H50.27a2.13,2.13,0,0,0-.23.93Z"/><rect class="cls-3" x="52.18" y="93.44" width="2.14" height="2.14"/><rect class="cls-3" x="50.04" y="95.58" width="2.14" height="2.14"/><rect class="cls-3" x="52.18" y="95.58" width="2.14" height="2.14"/><rect class="cls-3" x="50.04" y="93.44" width="2.14" height="2.14"/><rect class="cls-3" x="65.42" y="83.63" width="2.14" height="9.8"/><rect class="cls-3" x="67.56" y="83.63" width="2.14" height="9.8"/><rect class="cls-3" x="65.42" y="97.72" width="2.14" height="9.59"/><rect class="cls-3" x="67.56" y="97.72" width="2.14" height="9.59"/><path class="cls-3" d="M67.56,111.36a2.14,2.14,0,0,0,2.12-1.91H65.45A2.13,2.13,0,0,0,67.56,111.36Z"/><path class="cls-3" d="M67.56,80.28a2.15,2.15,0,0,0-1.92,1.21h3.84A2.14,2.14,0,0,0,67.56,80.28Z"/><path class="cls-3" d="M69.7,107.31H67.56v0H65.42v1.91a1.81,1.81,0,0,0,0,.23h4.23a1.79,1.79,0,0,0,0-.23Z"/><path class="cls-3" d="M65.42,83.63h2.14v0H69.7V82.42a2.12,2.12,0,0,0-.22-.93H65.64a2.27,2.27,0,0,0-.22.93Z"/><rect class="cls-3" x="65.42" y="93.44" width="2.14" height="2.14"/><rect class="cls-3" x="67.56" y="95.58" width="2.14" height="2.14"/><rect class="cls-3" x="65.42" y="95.58" width="2.14" height="2.14"/><rect class="cls-3" x="67.56" y="93.44" width="2.14" height="2.14"/><rect class="cls-3" x="80.8" y="83.63" width="2.14" height="9.8"/><rect class="cls-3" x="80.8" y="97.72" width="2.14" height="9.59"/><rect class="cls-3" x="82.94" y="97.72" width="2.14" height="9.59"/><rect class="cls-3" x="82.94" y="83.63" width="2.14" height="9.8"/><path class="cls-3" d="M82.94,111.36a2.14,2.14,0,0,0,2.12-1.91H80.82A2.14,2.14,0,0,0,82.94,111.36Z"/><path class="cls-3" d="M82.94,80.28A2.14,2.14,0,0,0,81,81.49h3.84A2.14,2.14,0,0,0,82.94,80.28Z"/><path class="cls-3" d="M80.8,83.63h2.14v0h2.14V82.42a2.12,2.12,0,0,0-.22-.93H81a2.12,2.12,0,0,0-.22.93Z"/><path class="cls-3" d="M85.08,107.31H82.94v0H80.8v1.91a1.79,1.79,0,0,0,0,.23h4.24a1.79,1.79,0,0,0,0-.23Z"/><rect class="cls-3" x="80.8" y="93.44" width="2.14" height="2.14"/><rect class="cls-3" x="82.94" y="93.44" width="2.14" height="2.14"/><rect class="cls-3" x="80.8" y="95.58" width="2.14" height="2.14"/><rect class="cls-3" x="82.94" y="95.58" width="2.14" height="2.14"/><rect class="cls-3" x="96.18" y="97.72" width="2.14" height="9.59"/><rect class="cls-3" x="98.32" y="83.63" width="2.14" height="9.8"/><rect class="cls-3" x="96.18" y="83.63" width="2.14" height="9.8"/><rect class="cls-3" x="98.32" y="97.72" width="2.14" height="9.59"/><path class="cls-3" d="M98.32,111.36a2.14,2.14,0,0,0,2.12-1.91H96.2A2.14,2.14,0,0,0,98.32,111.36Z"/><path class="cls-3" d="M98.32,80.28a2.14,2.14,0,0,0-1.92,1.21h3.84A2.14,2.14,0,0,0,98.32,80.28Z"/><path class="cls-3" d="M96.18,83.63h2.14v0h2.14V82.42a2.12,2.12,0,0,0-.22-.93H96.4a2.12,2.12,0,0,0-.22.93Z"/><path class="cls-3" d="M100.46,107.31H98.32v0H96.18v1.91a1.79,1.79,0,0,0,0,.23h4.24c0-.08,0-.15,0-.23Z"/><rect class="cls-3" x="98.32" y="95.58" width="2.14" height="2.14"/><rect class="cls-3" x="96.18" y="93.44" width="2.14" height="2.14"/><rect class="cls-3" x="98.32" y="93.44" width="2.14" height="2.14"/><rect class="cls-3" x="96.18" y="95.58" width="2.14" height="2.14"/><path class="cls-3" d="M115.84,93.44V83.71a11.9,11.9,0,0,0-1.34-.08h-.8v9.81Z"/><rect class="cls-3" x="111.56" y="97.72" width="2.14" height="9.59"/><rect class="cls-3" x="111.56" y="83.63" width="2.14" height="9.8"/><path class="cls-3" d="M113.7,97.72v9.59h.8a11.9,11.9,0,0,0,1.34-.08V97.72Z"/><path class="cls-3" d="M115.65,81.55a2.13,2.13,0,0,0-3.87-.06h2.72C114.89,81.49,115.27,81.52,115.65,81.55Z"/><path class="cls-3" d="M111.58,109.45a2.13,2.13,0,0,0,4.24-.06q-.64.06-1.32.06Z"/><path class="cls-3" d="M111.56,83.63h2.14v0h.8a11.9,11.9,0,0,1,1.34.08V82.42a2.13,2.13,0,0,0-.19-.87c-.38,0-.76-.06-1.15-.06h-2.72a2.12,2.12,0,0,0-.22.93Z"/><path class="cls-3" d="M115.84,107.23a11.9,11.9,0,0,1-1.34.08h-.8v0h-2.14v1.91a1.79,1.79,0,0,0,0,.23h2.92q.68,0,1.32-.06c0-.06,0-.11,0-.17Z"/><rect class="cls-3" x="111.56" y="95.58" width="2.14" height="2.14"/><rect class="cls-3" x="113.7" y="95.58" width="2.14" height="2.14"/><rect class="cls-3" x="111.56" y="93.44" width="2.14" height="2.14"/><rect class="cls-3" x="113.7" y="93.44" width="2.14" height="2.14"/><path class="cls-3" d="M25.76,63.36a2,2,0,0,1-.12-.42c-1.53-8.61,14.9-10.81,20.19-9.15A22.49,22.49,0,0,1,53.44,58c.83.71,6.2,7.43,2.34,7.52a2.75,2.75,0,0,1-1.56-.64c-3.53-2.5-5.41-6.19-9.86-7.25a14.25,14.25,0,0,0-13.64,4.11C29.64,62.87,26.93,66.19,25.76,63.36Z"/><path class="cls-3" d="M134.31,63.36a2.9,2.9,0,0,0,.12-.42c1.53-8.61-14.91-10.81-20.19-9.15A22.4,22.4,0,0,0,106.63,58c-.83.71-6.21,7.43-2.34,7.52a2.75,2.75,0,0,0,1.56-.64c3.52-2.5,5.4-6.19,9.85-7.25a14.27,14.27,0,0,1,13.65,4.11C130.42,62.87,133.14,66.19,134.31,63.36Z"/></g></g></svg>