<svg xmlns="http://www.w3.org/2000/svg" viewBox="0 0 160.14 160.07"><defs><style>.cls-1{fill:#f2d6ce;}.cls-2{fill:#f3acc8;}.cls-3{fill:#3b3735;}</style></defs><g id="Capa_2" data-name="Capa 2"><g id="Capa_1-2" data-name="Capa 1"><path class="cls-1" d="M118.15,160.07H42a42,42,0,0,1-42-42V42A42,42,0,0,1,42,0H118.1a42,42,0,0,1,42,42l0,76.08A42,42,0,0,1,118.15,160.07Z"/><path class="cls-2" d="M26.12,111.88a3.07,3.07,0,0,1-1.34-.32,3,3,0,0,1-1.34-4l6.85-13.7a3,3,0,0,1,5.36,2.68l-6.85,13.7A3,3,0,0,1,26.12,111.88Z"/><path class="cls-2" d="M37.25,111.88a3.07,3.07,0,0,1-1.34-.32,3,3,0,0,1-1.34-4l6.85-13.7a3,3,0,0,1,5.36,2.68l-6.85,13.7A3,3,0,0,1,37.25,111.88Z"/><path class="cls-2" d="M48.38,111.88a3,3,0,0,1-1.33-.32,3,3,0,0,1-1.35-4l6.86-13.7a3,3,0,0,1,5.36,2.68l-6.85,13.7A3,3,0,0,1,48.38,111.88Z"/><path class="cls-2" d="M104.9,111.88a3.1,3.1,0,0,1-1.34-.32,3,3,0,0,1-1.34-4l6.85-13.7a3,3,0,0,1,5.37,2.68l-6.85,13.7A3,3,0,0,1,104.9,111.88Z"/><path class="cls-2" d="M116,111.88a3.06,3.06,0,0,1-1.33-.32,3,3,0,0,1-1.34-4l6.85-13.7a3,3,0,1,1,5.36,2.68l-6.85,13.7A3,3,0,0,1,116,111.88Z"/><path class="cls-2" d="M127.17,111.88a3.07,3.07,0,0,1-1.34-.32,3,3,0,0,1-1.34-4l6.85-13.7a3,3,0,0,1,5.36,2.68l-6.85,13.7A3,3,0,0,1,127.17,111.88Z"/><path class="cls-3" d="M69.54,71.53c1.75,3,2.59,7.25,0,9.51-2.13,1.85-5.34,1.29-8.15,1a34.73,34.73,0,0,0-20.62,4.1,4.22,4.22,0,0,1-1.27.55,2.36,2.36,0,0,1-2.35-1.2c-.86-1.49-.08-3.5,1.28-4.57a11,11,0,0,1,4.82-1.75c7.14-1.38,14.56-2.76,21.62-1a2.14,2.14,0,0,0,1,.08c1.13-.31.84-2,.16-3-2.35-3.36-6.16-5.43-10.06-6.7-3.19-1-12.16-1.24-14.15-4.06-2.6-3.71,5-5.74,7.61-5.59C56.84,59.31,65.87,65.3,69.54,71.53Z"/><path class="cls-3" d="M93.28,71.53c-1.75,3-2.59,7.25,0,9.51,2.13,1.85,5.34,1.29,8.15,1a34.7,34.7,0,0,1,20.61,4.1,4.45,4.45,0,0,0,1.27.55,2.37,2.37,0,0,0,2.36-1.2c.86-1.49.07-3.5-1.28-4.57a11,11,0,0,0-4.82-1.75c-7.14-1.38-14.56-2.76-21.62-1a2.17,2.17,0,0,1-1,.08c-1.13-.31-.83-2-.16-3,2.35-3.36,6.16-5.43,10.06-6.7,3.2-1,12.17-1.24,14.15-4.06,2.61-3.71-5-5.74-7.61-5.59C106,59.31,97,65.3,93.28,71.53Z"/></g></g></svg>