<svg xmlns="http://www.w3.org/2000/svg" viewBox="0 0 160.07 160.07"><defs><style>.cls-1{fill:#f2d6ce;}.cls-2{fill:#3b3735;}.cls-3{fill:#f08eb6;}</style></defs><g id="Capa_2" data-name="Capa 2"><g id="Capa_1-2" data-name="Capa 1"><rect class="cls-1" width="160.07" height="160.07" rx="44.02"/><path class="cls-2" d="M32.41,75.67a1.48,1.48,0,0,1-.12-.41c-1.54-8.62,14.9-10.82,20.19-9.16a22.53,22.53,0,0,1,7.6,4.18c.84.71,6.21,7.43,2.35,7.52a2.69,2.69,0,0,1-1.56-.64C57.34,74.67,55.46,71,51,69.91A14.25,14.25,0,0,0,37.37,74C36.29,75.19,33.57,78.51,32.41,75.67Z"/><path class="cls-2" d="M128,75.67a2.77,2.77,0,0,0,.12-.41c1.53-8.62-14.91-10.82-20.2-9.16a22.62,22.62,0,0,0-7.6,4.18C99.48,71,94.1,77.71,98,77.8a2.63,2.63,0,0,0,1.55-.64c3.53-2.49,5.41-6.19,9.86-7.25A14.25,14.25,0,0,1,123,74C124.1,75.19,126.82,78.51,128,75.67Z"/><circle class="cls-3" cx="23.18" cy="94.01" r="9.95"/><circle class="cls-3" cx="136.88" cy="94.01" r="9.95"/><path class="cls-3" d="M74,108.65a2.24,2.24,0,0,0-1.28,3.07l1.86,3.89a11.78,11.78,0,0,0,2.49,3.84,3.58,3.58,0,0,0,6.31-2.2,6.82,6.82,0,0,0,.06-1.1,1.31,1.31,0,0,1,1.92-1.21,5.61,5.61,0,0,0,3.06.75,3.15,3.15,0,0,0,2.26-1.12c1.37-1.72.21-3.81-1.13-5.22a16,16,0,0,0-5-3.52,2.91,2.91,0,0,0-2.17-.1Z"/></g></g></svg>