<svg xmlns="http://www.w3.org/2000/svg" viewBox="0 0 160.07 160.07"><defs><style>.cls-1{fill:#8daf3b;}.cls-2{fill:#3b3735;}</style></defs><g id="Capa_2" data-name="Capa 2"><g id="Capa_1-2" data-name="Capa 1"><rect class="cls-1" width="160.07" height="160.07" rx="43.52"/><path class="cls-2" d="M63.09,76.32a3.69,3.69,0,0,1-2.61-1.08L40.92,55.67a3.69,3.69,0,0,1,5.22-5.22L65.7,70a3.69,3.69,0,0,1-2.61,6.3Z"/><path class="cls-2" d="M43.53,76.32A3.69,3.69,0,0,1,40.92,70L60.48,50.45a3.69,3.69,0,1,1,5.22,5.22L46.14,75.24A3.69,3.69,0,0,1,43.53,76.32Z"/><path class="cls-2" d="M114.77,76.32a3.67,3.67,0,0,1-2.61-1.08L92.6,55.67a3.69,3.69,0,0,1,5.22-5.22L117.38,70a3.69,3.69,0,0,1-2.61,6.3Z"/><path class="cls-2" d="M95.21,76.32A3.69,3.69,0,0,1,92.6,70l19.56-19.57a3.69,3.69,0,0,1,5.22,5.22L97.82,75.24A3.69,3.69,0,0,1,95.21,76.32Z"/><path class="cls-2" d="M112.36,110.51q-4.76,0-10.84-4.41c-3.47-2.51-6.27-3.45-7.5-2.52a7.83,7.83,0,0,0-1.3,1.6,14.88,14.88,0,0,1-2.53,3c-4.14,3.5-9.82,2.54-13.77.48A39.6,39.6,0,0,1,72.24,106a25.22,25.22,0,0,0-4.32-2.58,11,11,0,0,0-10.75,1.43c-.4.31-.82.68-1.26,1.07a15.28,15.28,0,0,1-4.63,3.16c-5.79,2.3-10.66-1.21-14.57-4-2.19-1.58-4.26-3.07-6.25-3.6a6.74,6.74,0,0,0-7.62,4.19,3.69,3.69,0,0,1-7-2.23,14,14,0,0,1,16.54-9.09c3.32.87,6.17,2.93,8.69,4.74,3.74,2.7,5.7,3.89,7.53,3.16A9.7,9.7,0,0,0,51,100.43c.51-.45,1-.92,1.62-1.38a18.34,18.34,0,0,1,18.17-2.42,32.42,32.42,0,0,1,5.63,3.3,34.14,34.14,0,0,0,3.41,2.16c1.88,1,4.4,1.44,5.59.43A9.4,9.4,0,0,0,86.66,101a13.72,13.72,0,0,1,2.9-3.26c2.88-2.19,8-3.55,16.29,2.42,3.57,2.59,6.34,3.55,7.61,2.66a8,8,0,0,0,1.3-1.44c.35-.44.69-.87,1.06-1.28A15.4,15.4,0,0,1,141,105.64a3.69,3.69,0,0,1-7.06,2.15c-.8-2.63-3.43-4.09-5.62-4.57s-5.2-.28-7,1.77c-.27.3-.52.61-.76.92a13.81,13.81,0,0,1-2.85,2.9A9.08,9.08,0,0,1,112.36,110.51Z"/></g></g></svg>