<svg xmlns="http://www.w3.org/2000/svg" viewBox="0 0 160.07 160.07"><defs><style>.cls-1{fill:#a8d9e4;}.cls-2{fill:#3b3735;}</style></defs><g id="Capa_2" data-name="Capa 2"><g id="Capa_1-2" data-name="Capa 1"><rect class="cls-1" width="160.07" height="160.07" rx="44.02"/><circle class="cls-2" cx="48.67" cy="61.11" r="8.99" transform="translate(-21.99 94.43) rotate(-76.72)"/><path class="cls-2" d="M102.34,56.5a11.55,11.55,0,0,0-3,1.56c-4.68,3.51.41,7.71,3.69,9.78,3.57,2.25,9.35,6.23,13.8,5.37a2.56,2.56,0,0,0,1.78-1c1.68-2.92-3-4.31-4.91-5.13-1.4-.6-4.16-2-4-3.87a2.45,2.45,0,0,1,.8-1.45c2.78-2.71,8.75-1.91,9.85-6.43a2,2,0,0,0-.36-1.76,2.69,2.69,0,0,0-1.63-.75c-3.71-.63-7.37.65-10.77,2C105.91,55.46,104.07,55.87,102.34,56.5Z"/><path class="cls-2" d="M74.2,118.17a8.61,8.61,0,0,0,7-1.22,15.08,15.08,0,0,0,4-4.85c1.16-2,1.75-3.72,3.8-3.35s3.79,1.91,5.73,2.64c3.55,1.32,7.13-1.61,8.88-6a25.08,25.08,0,0,0,1.8-8c0-1-1-7.82-2.44-6a1.58,1.58,0,0,0-.24.81c-.28,2.72.1,5.38-.7,8a12.5,12.5,0,0,1-3,5.14c-2.64,2.62-6.21,3-8.75-.07a17.92,17.92,0,0,0-2.14-2.47c-2-1.64-3.74-.23-4.78,2.37-.95,2.37-1.22,4.7-2.75,6.53A6.06,6.06,0,0,1,76,114c-3.6.05-6.53-3.24-9.27-6.19a3.63,3.63,0,0,0-1.29-1,1.08,1.08,0,0,0-1.35.55,3.52,3.52,0,0,0,.42,3A14.83,14.83,0,0,0,74,118.13Z"/></g></g></svg>