<svg xmlns="http://www.w3.org/2000/svg" viewBox="0 0 160.07 160.07"><defs><style>.cls-1{fill:#8daf3b;}.cls-2{fill:#3b3735;}</style></defs><g id="Capa_2" data-name="Capa 2"><g id="Capa_1-2" data-name="Capa 1"><rect class="cls-1" width="160.07" height="160.07" rx="44.02"/><path class="cls-2" d="M103.11,110.44a1.84,1.84,0,0,0,2.43-2c-1.63-11.49-12.65-20.37-26-20.37s-24.36,8.88-26,20.36a1.83,1.83,0,0,0,2.43,2l12.58-4.64a31.5,31.5,0,0,1,21.72,0Z"/><path class="cls-2" d="M59.18,55.16q1.23.14,2.43.33c7,1.14,8.51,7.94.69,9.12-4.17.63-8.52-.51-12.57-1.23-5.71-1-11.34-1.73-16.86.36A2,2,0,0,1,30,62.37c-.26-1.47,1.78-2.66,3.08-3.27C40.56,55.63,50.5,54.24,59.18,55.16Z"/><path class="cls-2" d="M121.69,55.16c.82.09,1.64.2,2.43.33,7,1.14,8.51,7.94.7,9.12-4.18.63-8.53-.51-12.57-1.23-5.71-1-11.35-1.73-16.87.36a2,2,0,0,1-2.85-1.37c-.26-1.47,1.78-2.66,3.09-3.27C103.07,55.63,113,54.24,121.69,55.16Z"/><path class="cls-2" d="M56,65.36a4.59,4.59,0,1,1,4.58,4.58A4.58,4.58,0,0,1,56,65.36Z"/><path class="cls-2" d="M119.37,65.36A4.59,4.59,0,1,1,124,69.94,4.58,4.58,0,0,1,119.37,65.36Z"/></g></g></svg>