<svg xmlns="http://www.w3.org/2000/svg" viewBox="0 0 160.07 160.07"><defs><style>.cls-1{fill:#fbc000;}.cls-2{fill:#3b3735;}</style></defs><g id="Capa_2" data-name="Capa 2"><g id="Capa_1-2" data-name="Capa 1"><rect class="cls-1" width="160.07" height="160.07" rx="43.52"/><ellipse class="cls-2" cx="44.47" cy="63.84" rx="6.66" ry="11.22"/><path class="cls-2" d="M106.19,58.08a10.19,10.19,0,0,0-2.68,1.39c-4.17,3.13.36,6.87,3.28,8.71,3.17,2,8.32,5.54,12.27,4.77a2.26,2.26,0,0,0,1.59-.93c1.49-2.6-2.68-3.83-4.37-4.56-1.25-.54-3.71-1.76-3.56-3.45a2.11,2.11,0,0,1,.71-1.28c2.47-2.42,7.79-1.71,8.76-5.73a1.76,1.76,0,0,0-.31-1.57,2.41,2.41,0,0,0-1.45-.66c-3.31-.56-6.56.58-9.58,1.79C109.37,57.16,107.73,57.52,106.19,58.08Z"/><path class="cls-2" d="M66.11,110.94c10.37.74,21.39-1.19,30.33-6.67a38.17,38.17,0,0,0,6.86-5.34A32.34,32.34,0,0,0,106,96c.62-.78,2.21-3.74,3.42-2.08,1.11,1.5-1.41,5-2.2,6.21C102.27,107.9,93.69,113,84.8,114.85a52.44,52.44,0,0,1-14.58,1c-2.31-.16-4.61-.46-6.9-.8-1.94-.28-4-.43-5.68-1.63a1.45,1.45,0,0,1-.09-2.31,4.38,4.38,0,0,1,3.37-.71C62.65,110.52,64.37,110.82,66.11,110.94Z"/></g></g></svg>