<svg xmlns="http://www.w3.org/2000/svg" viewBox="0 0 160.07 160.07"><defs><style>.cls-1{fill:#f2d6ce;}.cls-2{fill:#fff;}.cls-3{fill:#3b3735;}.cls-4{fill:#e31a40;}</style></defs><g id="Capa_2" data-name="Capa 2"><g id="Capa_1-2" data-name="Capa 1"><rect class="cls-1" width="160.07" height="160.07" rx="43.52"/><ellipse class="cls-2" cx="53.6" cy="86.59" rx="8.76" ry="14.77"/><ellipse class="cls-2" cx="111.5" cy="86.59" rx="8.76" ry="14.77"/><ellipse class="cls-3" cx="53.6" cy="86.59" rx="6.43" ry="10.84"/><ellipse class="cls-3" cx="111.56" cy="86.59" rx="6.43" ry="10.84"/><path class="cls-2" d="M139.32,54.11c0,7.15-2.86,9.18-6.8,9.18s-7.47-2-7.47-9.18,2.93-22,6.87-22S139.32,47,139.32,54.11Z"/><path class="cls-2" d="M94.11,38.7c0,5.56-2.23,7.14-5.29,7.14S83,44.26,83,38.7s2.28-17.07,5.35-17.07S94.11,33.13,94.11,38.7Z"/><path class="cls-2" d="M42.15,54.45c0,5.55-2.23,7.13-5.29,7.13S31.07,60,31.07,54.45s2.27-17,5.33-17S42.15,48.89,42.15,54.45Z"/><path class="cls-2" d="M66.59,46.55c0,3.82-1.53,4.91-3.63,4.91s-4-1.09-4-4.91,1.57-11.7,3.67-11.7S66.59,42.74,66.59,46.55Z"/><path class="cls-2" d="M109,53.51c0,3.82-1.53,4.9-3.64,4.9s-4-1.08-4-4.9S103,41.8,105.08,41.8,109,49.69,109,53.51Z"/><path class="cls-4" d="M14.79,122.29a2.38,2.38,0,0,1-2.12-3.45L19,106.15a2.38,2.38,0,0,1,4.26,2.13L16.92,121A2.37,2.37,0,0,1,14.79,122.29Z"/><path class="cls-4" d="M25.1,122.29A2.38,2.38,0,0,1,23,118.84l6.34-12.69a2.38,2.38,0,0,1,4.26,2.13L27.23,121A2.36,2.36,0,0,1,25.1,122.29Z"/><path class="cls-4" d="M35.42,122.29a2.38,2.38,0,0,1-2.13-3.45l6.34-12.69a2.38,2.38,0,0,1,4.26,2.13L37.55,121A2.38,2.38,0,0,1,35.42,122.29Z"/><path class="cls-4" d="M118.3,122.29a2.38,2.38,0,0,1-2.12-3.45l6.34-12.69a2.38,2.38,0,0,1,4.26,2.13L120.43,121A2.36,2.36,0,0,1,118.3,122.29Z"/><path class="cls-4" d="M128.62,122.29a2.38,2.38,0,0,1-2.13-3.45l6.34-12.69a2.38,2.38,0,0,1,4.26,2.13L130.75,121A2.38,2.38,0,0,1,128.62,122.29Z"/><path class="cls-4" d="M138.93,122.29a2.43,2.43,0,0,1-1.07-.25,2.39,2.39,0,0,1-1.06-3.2l6.35-12.69a2.38,2.38,0,0,1,4.25,2.13L141.06,121A2.38,2.38,0,0,1,138.93,122.29Z"/></g></g></svg>