<svg xmlns="http://www.w3.org/2000/svg" viewBox="0 0 160.07 160.07"><defs><style>.cls-1{fill:#f2d6ce;}.cls-2{fill:#3b3735;}</style></defs><g id="Capa_2" data-name="Capa 2"><g id="Capa_1-2" data-name="Capa 1"><rect class="cls-1" width="160.07" height="160.07" rx="44.02"/><path class="cls-2" d="M47.61,98.83c19.77,6.8,42.76,6.39,62.5-.43a70.17,70.17,0,0,0,20-10.57c1.87-1.44,5.3-4.48,7.5-1.66,1.26,1.62.2,4.31-.67,5.87-2.1,3.76-5.81,6.41-9.2,8.92a67.47,67.47,0,0,1-14.5,8A87.14,87.14,0,0,1,85.84,115c-3.53.24-7.07.3-10.6.2h-.3a107.74,107.74,0,0,1-15-1.56,84.87,84.87,0,0,1-27-9.6c-.91-.51-1.81-1-2.7-1.58-3-1.83-5.88-3.67-7.6-6.86a5.11,5.11,0,0,1-.61-3.8c.63-2.15,2.94-2.93,5-2.5,3.18.68,5.75,2.51,8.53,4.06a74.43,74.43,0,0,0,9.11,4.33C45.62,98.12,46.61,98.48,47.61,98.83Z"/><path class="cls-2" d="M71.61,65.54c1.74,3,2.59,7.25,0,9.5-2.14,1.86-5.35,1.3-8.15,1a34.81,34.81,0,0,0-20.62,4.11,4,4,0,0,1-1.27.54,2.32,2.32,0,0,1-2.35-1.19c-.86-1.49-.08-3.5,1.28-4.57a10.79,10.79,0,0,1,4.82-1.75c7.14-1.38,14.55-2.76,21.62-1a2,2,0,0,0,1,.09c1.13-.31.83-2,.16-3-2.35-3.36-6.16-5.43-10.06-6.7-3.2-1-12.17-1.24-14.15-4.06-2.61-3.71,5-5.74,7.61-5.59C58.91,53.32,67.93,59.31,71.61,65.54Z"/><path class="cls-2" d="M85.87,65.54c-1.74,3-2.59,7.25,0,9.5C88,76.9,91.23,76.34,94,76a34.81,34.81,0,0,1,20.62,4.11,4,4,0,0,0,1.27.54,2.32,2.32,0,0,0,2.35-1.19c.86-1.49.08-3.5-1.28-4.57a10.79,10.79,0,0,0-4.82-1.75c-7.14-1.38-14.55-2.76-21.62-1a2,2,0,0,1-1,.09c-1.13-.31-.83-2-.16-3,2.35-3.36,6.16-5.43,10.06-6.7,3.2-1,12.17-1.24,14.15-4.06,2.61-3.71-5-5.74-7.61-5.59C98.57,53.32,89.55,59.31,85.87,65.54Z"/></g></g></svg>