<svg xmlns="http://www.w3.org/2000/svg" viewBox="0 0 160.07 160.07"><defs><style>.cls-1{fill:#9c9b9b;}.cls-2{fill:#3b3735;}.cls-3{fill:#fff;}</style></defs><g id="Capa_2" data-name="Capa 2"><g id="Capa_1-2" data-name="Capa 1"><rect class="cls-1" width="160.07" height="160.07" rx="44.02"/><path class="cls-2" d="M34.16,56a3,3,0,0,0,2,1.31c8.35,2.18,24.77-.6,26.11-11.13.22-1.73-.66-5.93-3.14-3.93s-4.4,5-7.09,7.09a14,14,0,0,1-9.08,3c-2.17-.08-4.53-.56-6.66.1C34.34,53.05,33.47,54.73,34.16,56Z"/><path class="cls-2" d="M125.44,56a2.94,2.94,0,0,1-2,1.31c-8.35,2.18-24.78-.6-26.12-11.13-.22-1.73.67-5.93,3.15-3.93s4.39,5,7.09,7.09a14,14,0,0,0,9.08,3c2.17-.08,4.53-.56,6.66.1C125.26,53.05,126.14,54.73,125.44,56Z"/><path class="cls-2" d="M58.4,68.63a14.06,14.06,0,0,1,5,2.14c2.06,1.22,4.2,2.52,5.46,4.56.58.93.91,2.23.22,3.08a2.83,2.83,0,0,1-2,.84c-5,.48-10-3.12-14.92-2-2.12.49-13.22,6-10-.42C44.46,72.33,53.67,68,58.4,68.63Z"/><path class="cls-2" d="M101.21,68.63a14.18,14.18,0,0,0-5,2.14C94.13,72,92,73.29,90.74,75.33c-.58.93-.91,2.23-.22,3.08a2.81,2.81,0,0,0,2,.84c5,.48,10-3.12,14.91-2,2.13.49,13.23,6,10-.42C115.15,72.33,105.94,68,101.21,68.63Z"/><path class="cls-2" d="M55,117.23c-.47-9.87,8.36-17,15.56-22.24,3.25-2.36,6.63-5.46,10.8-6.06,4.7-.67,8.54,2.74,11.45,6a85.08,85.08,0,0,1,8.2,10.71c2.57,4,4.83,9,2.68,13.25-1.67,3.26-5.56,4.84-9.22,4.92s-7.21-1-10.77-1.9a23.77,23.77,0,0,0-8.45-.67,15.92,15.92,0,0,0-4.18,1.1c-1.37.58-2.58,1.43-4,2a10.65,10.65,0,0,1-7.66-.09,7.19,7.19,0,0,1-4.34-5.89A9.86,9.86,0,0,1,55,117.23Z"/><path class="cls-3" d="M122.4,93.83c.36,2.26,1.39,4.85,3.27,6.27a4.22,4.22,0,0,0,5.56-.54c2.2-2.31,1.34-6,.31-8.64-1.25-3.19-3.55-6.42-6.79-7.82a7.21,7.21,0,0,0-5-.32c-1.45.45-.63,1.82-.09,2.69a18.87,18.87,0,0,1,2.12,5C122.08,91.59,122.22,92.72,122.4,93.83Z"/><path class="cls-3" d="M37.67,93.83c-.36,2.26-1.39,4.85-3.27,6.27a4.22,4.22,0,0,1-5.56-.54c-2.2-2.31-1.35-6-.32-8.64,1.25-3.19,3.56-6.42,6.79-7.82a7.22,7.22,0,0,1,5-.32c1.46.45.64,1.82.1,2.69a18.55,18.55,0,0,0-2.12,5C38,91.59,37.85,92.72,37.67,93.83Z"/></g></g></svg>