<svg xmlns="http://www.w3.org/2000/svg" viewBox="0 0 160.07 160.07"><defs><style>.cls-1{fill:#fbd64f;}.cls-2{fill:#3b3735;}</style></defs><g id="Capa_2" data-name="Capa 2"><g id="Capa_1-2" data-name="Capa 1"><rect class="cls-1" width="160.07" height="160.07" rx="44.02"/><path class="cls-2" d="M108.12,87.38a5.25,5.25,0,0,1,5.09,6.53c-3.35,13.57-16.93,23.73-33.18,23.73S50.21,107.48,46.86,93.91A5.25,5.25,0,0,1,52,87.38Z"/><path class="cls-2" d="M54.37,58c1.75,3,2.59,7.24,0,9.5-2.13,1.85-5.34,1.3-8.15,1a34.83,34.83,0,0,0-20.62,4.11,4,4,0,0,1-1.26.54A2.35,2.35,0,0,1,22,72c-.86-1.5-.08-3.5,1.28-4.57a10.83,10.83,0,0,1,4.82-1.75c7.14-1.38,14.56-2.76,21.62-1a2.06,2.06,0,0,0,1,.09c1.13-.31.83-2,.16-3-2.36-3.36-6.17-5.43-10.07-6.7C37.63,54,28.66,53.81,26.68,51c-2.61-3.72,5-5.74,7.6-5.59C41.68,45.81,50.7,51.8,54.37,58Z"/><path class="cls-2" d="M105.7,58c-1.75,3-2.59,7.24,0,9.5,2.13,1.85,5.34,1.3,8.15,1a34.78,34.78,0,0,1,20.61,4.11,4.16,4.16,0,0,0,1.27.54A2.35,2.35,0,0,0,138.1,72c.86-1.5.07-3.5-1.28-4.57A10.87,10.87,0,0,0,132,65.65c-7.14-1.38-14.56-2.76-21.62-1a2.06,2.06,0,0,1-1,.09c-1.13-.31-.83-2-.16-3,2.35-3.36,6.16-5.43,10.06-6.7,3.2-1,12.17-1.24,14.15-4.06,2.61-3.72-5-5.74-7.61-5.59C118.39,45.81,109.37,51.8,105.7,58Z"/></g></g></svg>