<svg xmlns="http://www.w3.org/2000/svg" viewBox="0 0 160.14 160.07"><defs><style>.cls-1{fill:#a8d9e4;}.cls-2{fill:#3b3735;}.cls-3{fill:#fff;}</style></defs><g id="Capa_2" data-name="Capa 2"><g id="Capa_1-2" data-name="Capa 1"><path class="cls-1" d="M117.66,160.07H42.48A42.48,42.48,0,0,1,0,117.59V42.48A42.48,42.48,0,0,1,42.48,0h75.14a42.47,42.47,0,0,1,42.47,42.45l0,75.11A42.48,42.48,0,0,1,117.66,160.07Z"/><path class="cls-2" d="M55.06,49c.62-.13,1.37-.21,1.77.28a1.43,1.43,0,0,1,.26.88,6.89,6.89,0,0,1-3.15,5.64c-3.27,2.39-7.54,2.8-11.59,2.94-4.55.16-9.38,0-13.23-2.43A6.46,6.46,0,0,1,25.9,52a3.2,3.2,0,0,1,4-3.64c2.15.62,3.9,2,6.16,2.54C42.45,52.33,48.84,50.3,55.06,49Z"/><path class="cls-2" d="M105.41,49c-.62-.13-1.37-.21-1.77.28a1.43,1.43,0,0,0-.26.88,6.89,6.89,0,0,0,3.15,5.64c3.27,2.39,7.54,2.8,11.59,2.94,4.55.16,9.38,0,13.23-2.43A6.46,6.46,0,0,0,134.57,52a3.2,3.2,0,0,0-4-3.64c-2.15.62-3.9,2-6.16,2.54C118,52.33,111.63,50.3,105.41,49Z"/><rect class="cls-3" x="43.55" y="83.07" width="73.42" height="44.05" rx="15.28"/><path class="cls-3" d="M0,62.93a38.63,38.63,0,0,0,4.22,3.2L50,97.56l-.39-5.74c-1.37-.35-42.42-29-49.64-34Z"/><path class="cls-3" d="M0,80.86,50,115l-.39-5.74C48.27,108.89,7.22,80.55,0,75.51Z"/><path class="cls-3" d="M160.14,66.13l-49.7,31.43.39-5.74c1.37-.35,42.1-24.68,49.31-29.72Z"/><path class="cls-3" d="M160.14,83.55,110.44,115l.39-5.74c1.37-.34,42.1-24.67,49.31-29.71Z"/></g></g></svg>