<svg xmlns="http://www.w3.org/2000/svg" viewBox="0 0 160.07 160.07"><defs><style>.cls-1{fill:#a8d9e4;}.cls-2{fill:#3b3735;}</style></defs><g id="Capa_2" data-name="Capa 2"><g id="Capa_1-2" data-name="Capa 1"><rect class="cls-1" width="160.07" height="160.07" rx="43.52"/><path class="cls-2" d="M44.05,60.86a8.19,8.19,0,1,1,8.42,8A8.18,8.18,0,0,1,44.05,60.86Z"/><path class="cls-2" d="M101.36,59.21a8.19,8.19,0,1,1,8.42,7.95A8.19,8.19,0,0,1,101.36,59.21Z"/><path class="cls-2" d="M91.36,84.5a17.1,17.1,0,0,1,3.46-2c5.5-2.29,8.37,3.79,10.78,6.63,1.78,2.09,3.5,4.72,2.45,7.79-2,5.83-9.92,10.83-14.56,14.9s-9.36,8.29-14,12.52c-3.41,3.13-7.23,7.61-11.88,7.61-2,0-3.32-1.39-4.45-2.73q-3-3.49-5.74-7.15c-1.81-2.4-1.35-5.15,1-8.18a34.77,34.77,0,0,1,5.59-5.24q8.55-6.94,16.74-14.31C84,91.5,87.55,87.26,91.36,84.5Z"/><path class="cls-2" d="M73.44,84.51a17.16,17.16,0,0,0-3.47-2c-5.5-2.29-8.36,3.79-10.78,6.63-1.77,2.08-3.49,4.71-2.44,7.79,2,5.83,9.91,10.83,14.55,14.9s9.36,8.29,14,12.52c3.42,3.14,7.23,7.61,11.89,7.62,2,0,3.31-1.39,4.44-2.73q3-3.5,5.75-7.15c1.81-2.39,1.35-5.15-1-8.18a35.22,35.22,0,0,0-5.59-5.24Q92.15,101.7,84,94.33C80.82,91.51,77.24,87.28,73.44,84.51Z"/><path class="cls-2" d="M61.21,48.31a1.24,1.24,0,0,0,1.61-.51,13.48,13.48,0,0,0,1.71-5c.25-1.89-22.35-8-24.67-8.59a145.83,145.83,0,0,0-17.65-3.7,1.32,1.32,0,0,0-.54,2.57c5.49,1.82,11.19,3.29,16.51,5.33Q49.86,42.89,61.21,48.31Z"/><path class="cls-2" d="M99.87,47.2a1.25,1.25,0,0,1-1.64-.42,13.58,13.58,0,0,1-2-4.92c-.35-1.87,21.85-9.27,24.13-10a143.32,143.32,0,0,1,17.41-4.71,1.32,1.32,0,0,1,.69,2.53c-5.38,2.13-11,3.93-16.17,6.27Q110.87,41.12,99.87,47.2Z"/></g></g></svg>