<svg xmlns="http://www.w3.org/2000/svg" viewBox="0 0 160.07 160.07"><defs><style>.cls-1{fill:#fbc000;}.cls-2{fill:#3b3735;}</style></defs><g id="Capa_2" data-name="Capa 2"><g id="Capa_1-2" data-name="Capa 1"><rect class="cls-1" width="160.07" height="160.07" rx="43.52"/><path class="cls-2" d="M24.63,63.62a2.77,2.77,0,0,1-.12-.41C23,54.59,39.42,52.39,44.7,54.05a22.57,22.57,0,0,1,7.61,4.18c.83.71,6.2,7.43,2.34,7.52a2.69,2.69,0,0,1-1.56-.64c-3.53-2.49-5.41-6.19-9.85-7.25A14.26,14.26,0,0,0,29.59,62C28.52,63.14,25.8,66.46,24.63,63.62Z"/><path class="cls-2" d="M133.18,63.62a2.77,2.77,0,0,0,.12-.41c1.53-8.62-14.91-10.82-20.19-9.16a22.57,22.57,0,0,0-7.61,4.18c-.83.71-6.2,7.43-2.34,7.52a2.69,2.69,0,0,0,1.56-.64c3.53-2.49,5.41-6.19,9.85-7.25A14.26,14.26,0,0,1,128.22,62C129.29,63.14,132,66.46,133.18,63.62Z"/><path class="cls-2" d="M47.82,93.67c19.78,6.8,42.76,6.39,62.5-.43a70.17,70.17,0,0,0,20-10.57c1.87-1.45,5.3-4.48,7.5-1.66,1.26,1.62.2,4.31-.67,5.87-2.09,3.76-5.81,6.41-9.2,8.92a67.24,67.24,0,0,1-14.5,8,87.14,87.14,0,0,1-27.4,6.07c-3.53.24-7.07.3-10.6.2h-.3a107.74,107.74,0,0,1-15-1.56,84.82,84.82,0,0,1-27-9.6c-.92-.51-1.82-1-2.71-1.59-3-1.82-5.88-3.66-7.6-6.85a5.16,5.16,0,0,1-.61-3.8c.63-2.15,3-2.93,5-2.5,3.18.68,5.75,2.51,8.53,4.06a76.67,76.67,0,0,0,9.11,4.33C45.83,93,46.82,93.32,47.82,93.67Z"/></g></g></svg>