<svg xmlns="http://www.w3.org/2000/svg" viewBox="0 0 160.07 160.07"><defs><style>.cls-1{fill:#9c9b9b;}.cls-2{fill:#3b3735;}</style></defs><g id="Capa_2" data-name="Capa 2"><g id="Capa_1-2" data-name="Capa 1"><rect class="cls-1" width="160.07" height="160.07" rx="44.02"/><path class="cls-2" d="M98.25,124.05a6.27,6.27,0,0,0,5.76-8.83C100.11,106.84,90.85,101,80,101s-20.07,5.89-24,14.27a6.27,6.27,0,0,0,5.75,8.83Z"/><path class="cls-2" d="M28.74,62.35a3.34,3.34,0,0,0,2.2,1.48c9.38,2.44,27.84-.67,29.35-12.51.25-1.94-.75-6.67-3.54-4.42s-4.94,5.65-8,8a15.69,15.69,0,0,1-10.21,3.39c-2.44-.08-5.09-.62-7.49.12C28.94,59.05,28,60.93,28.74,62.35Z"/><path class="cls-2" d="M131.33,62.35a3.34,3.34,0,0,1-2.2,1.48c-9.39,2.44-27.84-.67-29.35-12.51-.25-1.94.75-6.67,3.54-4.42s4.93,5.65,8,8a15.67,15.67,0,0,0,10.21,3.39c2.44-.08,5.09-.62,7.48.12C131.12,59.05,132.11,60.93,131.33,62.35Z"/><path class="cls-2" d="M59.5,78.34a11.6,11.6,0,0,1,3,1.55c4.69,3.52-.4,7.72-3.69,9.79C55.26,91.92,49.48,95.91,45,95a2.51,2.51,0,0,1-1.78-1c-1.68-2.93,3-4.31,4.9-5.13,1.41-.61,4.17-2,4-3.87a2.43,2.43,0,0,0-.8-1.45c-2.78-2.71-8.75-1.92-9.85-6.43a2,2,0,0,1,.36-1.77,2.65,2.65,0,0,1,1.63-.74c3.71-.63,7.36.65,10.76,2C55.92,77.29,57.77,77.7,59.5,78.34Z"/><path class="cls-2" d="M100.57,78.34a11.51,11.51,0,0,0-3,1.55c-4.68,3.52.41,7.72,3.69,9.79,3.57,2.24,9.35,6.23,13.8,5.36a2.55,2.55,0,0,0,1.78-1c1.68-2.93-3-4.31-4.91-5.13-1.4-.61-4.17-2-4-3.87a2.37,2.37,0,0,1,.8-1.45c2.78-2.71,8.75-1.92,9.85-6.43a2,2,0,0,0-.36-1.77,2.68,2.68,0,0,0-1.63-.74c-3.71-.63-7.37.65-10.77,2C104.14,77.29,102.3,77.7,100.57,78.34Z"/></g></g></svg>