<svg xmlns="http://www.w3.org/2000/svg" viewBox="0 0 160.07 160.07"><defs><style>.cls-1{fill:#fbc000;}.cls-2{fill:#3b3735;}</style></defs><g id="Capa_2" data-name="Capa 2"><g id="Capa_1-2" data-name="Capa 1"><rect class="cls-1" width="160.07" height="160.07" rx="43.52"/><path class="cls-2" d="M116.83,52.63H99.63A13.23,13.23,0,0,0,86.41,65.48H73.53A13.23,13.23,0,0,0,60.31,52.63H43.11A13.24,13.24,0,0,0,29.87,65.87v9.5A13.24,13.24,0,0,0,43.11,88.6h17.2A13.24,13.24,0,0,0,73.55,75.37V71.9H86.39v3.47A13.24,13.24,0,0,0,99.63,88.6h17.2a13.24,13.24,0,0,0,13.24-13.23v-9.5A13.24,13.24,0,0,0,116.83,52.63Z"/><path class="cls-2" d="M33.11,56.32l-1.56-.5a2.27,2.27,0,0,0-2.77,1.27l-1.56,3.67a2.27,2.27,0,0,0,1.26,3l1.59.62A2.26,2.26,0,0,0,33,63.12l1.54-3.8A2.26,2.26,0,0,0,33.11,56.32Z"/><path class="cls-2" d="M127.38,56.32l1.57-.5a2.26,2.26,0,0,1,2.76,1.27l1.56,3.67a2.26,2.26,0,0,1-1.25,3l-1.6.62a2.26,2.26,0,0,1-2.92-1.26L126,59.32A2.26,2.26,0,0,1,127.38,56.32Z"/><polygon class="cls-2" points="28.78 57.09 0 42.79 0 49.22 27.22 60.76 28.78 57.09"/><polygon class="cls-2" points="131.06 57.09 160.07 42.92 160.07 49.35 132.63 60.76 131.06 57.09"/><path class="cls-2" d="M63.29,112.38c2.46,0,4.94.15,7.35.19a148.85,148.85,0,0,0,25.76-1.4c4.61-.72,10.14-1.44,14.21-3.83,2.61-1.52,4.83-3.53,7.27-5.28,1.36-1,4.35-3.46,6.14-2.21.59.41.56,1.28.43,2-1.16,6.1-5.25,11.32-9.62,15.53A34.82,34.82,0,0,1,101,126.08a70,70,0,0,1-19.67,2.7c-7.11.06-15,0-21.5-3.39a18.62,18.62,0,0,1-4.32-3,8.78,8.78,0,0,1-2.37-4.16,4.67,4.67,0,0,1,.72-4,5.54,5.54,0,0,1,4-1.73C59.59,112.37,61.47,112.36,63.29,112.38Z"/></g></g></svg>