<svg xmlns="http://www.w3.org/2000/svg" viewBox="0 0 160.07 160.07"><defs><style>.cls-1{fill:#9c9b9b;}.cls-2{fill:#3b3735;}</style></defs><g id="Capa_2" data-name="Capa 2"><g id="Capa_1-2" data-name="Capa 1"><rect class="cls-1" width="160.07" height="160.07" rx="44.02"/><path class="cls-2" d="M62.69,79.21H24.16a2.14,2.14,0,1,1,0-4.28H62.69a2.14,2.14,0,1,1,0,4.28Z"/><path class="cls-2" d="M135.91,79.21H97.37a2.14,2.14,0,1,1,0-4.28h38.54a2.14,2.14,0,1,1,0,4.28Z"/><path class="cls-2" d="M62.69,88.2H24.16a2.14,2.14,0,1,1,0-4.28H62.69a2.14,2.14,0,0,1,0,4.28Z"/><path class="cls-2" d="M135.91,88.2H97.37a2.14,2.14,0,0,1,0-4.28h38.54a2.14,2.14,0,1,1,0,4.28Z"/><path class="cls-2" d="M152.13,58.23c0,7.72-3.09,9.92-7.35,9.92s-8.07-2.2-8.07-9.92,3.17-23.69,7.43-23.69S152.13,50.5,152.13,58.23Z"/></g></g></svg>