<svg xmlns="http://www.w3.org/2000/svg" viewBox="0 0 1209 582.11"><defs><style>.cls-1{fill:#463f3a;}.cls-2{fill:none;}</style></defs><g id="Capa_2" data-name="Capa 2"><g id="Capa_1-2" data-name="Capa 1"><path class="cls-1" d="M321.66,201.9c4.36-20.82-4.66-39.32-10.07-58.45-1.12-4-5-9.67.86-11.56,7.5-2.44,5.9,5.66,7.39,9.46a139.73,139.73,0,0,1,5.91,19.07c2.13,8.92,5.39,7,9.33,1.37,5.29-7.57,10.63-15.12,15.66-22.86,2-3,4-6.22,7.67-3.86,3.09,2,1.14,5.28-.38,7.89-6,10.24-12.49,20.18-20.57,28.85-5.15,5.53-7.21,11.3-7.16,18.83.08,11.45-1.14,22.9-1.66,34.36-.17,3.69-.92,7.16-5.27,6.84-5.29-.39-3.32-4.78-3.17-7.78C320.56,216.67,321.16,209.29,321.66,201.9Z"/><path class="cls-1" d="M627.89,202.82c0,4.06.05,8.13,0,12.19-.13,7.93,2,16.64-11.29,16.52-16.1-.15-22.71-3.47-24.07-14.8-1.4-11.76,4.42-20.09,15.52-21.5,5.52-.7,12,1.47,10.89-8.46-1-8.84-4-14.55-13.58-15.87-3.66-.5-10.57,4.44-10.6-2.92,0-6.87,7.34-4.52,11.57-4.51,12.94,0,20,6.92,21.28,20.52.57,6.22.1,12.55.1,18.83Zm-8.66,11.08c-1.1-4.29,2.65-11.2-6.68-10.64-6.74.41-11.63,2.28-11.53,10.19.1,8.34,5.26,10.48,12.45,10.73C622.53,224.49,617.64,217.58,619.23,213.9Z"/><path class="cls-1" d="M559.75,406.48c0-4.07-.18-8.16,0-12.22.42-7.51,1.18-15.08-10.5-11.31-1.46.48-3.1.38-3.53-1.5-.63-2.78,1.25-4.66,3.49-4.54,12.47.63,10.44-8.14,10.68-15.7a137.63,137.63,0,0,1,1.27-17.72c1.49-9.11,9.86-13.76,18.33-10.85,2,.68,3.39,1.64,3.33,3.77-.06,2.34-2,3.2-3.84,2.94-11.2-1.56-10.4,6.51-10.81,13.44-.28,4.81.28,9.68-.26,14.44-.7,6.22,1.44,8.78,7.8,8.48,2.51-.11,6.83-.77,6.54,3.66-.23,3.43-3.78,3-6.27,2.68-7.59-1.07-8.34,3.16-8.09,9.23.41,10,.4,20,.17,30-.09,4.06,2.29,10.7-3.89,11-6.88.38-3.77-6.55-4.22-10.29-.61-5.12-.15-10.36-.15-15.55Z"/><path class="cls-1" d="M438.73,381.72c0,11.09.45,22.21-.2,33.27-.29,4.85,2.48,12.56-5.62,13.6s-16.54.53-21.43-8c-7.7-13.4-1-29.85,14.12-32.95,6.23-1.27,7.46-3.71,7.3-9.39-.32-10.72.14-21.45.27-32.18.05-3.39-.17-7.37,4.74-6.94,4.63.4,2.76,4.48,2.79,7,.16,11.84.07,23.67.07,35.51Zm-6.64,22.77c-2.41-2.5,4.16-9.7-2.7-10.69-7.35-1.06-12.18,4.31-12.54,12.24-.14,3.27-.32,6.74.53,9.83,1.37,5,6,6.74,10.39,6.59,5-.17,2.89-5,3.48-7.84S431.77,408.77,432.09,404.49Z"/><path class="cls-1" d="M414.64,200.47c-.65,7.6-1.05,15.78-4.66,23.27-3.22,6.66-8.59,9.88-16.13,9.42s-11-5.62-12.76-11.95a57.31,57.31,0,0,1,.16-31.8c2.62-9.14,7.45-16.69,18.16-16.36,11.17.35,12.53,9.85,14.62,18C414.74,193.92,414.45,197,414.64,200.47Zm-9.12-1.87a31.09,31.09,0,0,0-.11-7.22c-.74-4.24-1.45-9.29-6.92-10-5.71-.73-7.42,4.09-8.68,8.26a57.79,57.79,0,0,0-1,28.35c.76,3.76,2.35,7.14,6.91,7.31,3.88.14,6-2.44,7.27-5.67C405.27,213.74,406.19,207.59,405.52,198.6Z"/><path class="cls-1" d="M445.9,199.17c0,6.3-.17,12.6.07,18.88.15,3.85,1.43,7.5,5.93,8.2,4.2.64,7.16-1.71,9-5.21,3.5-6.69,4.76-14,4.95-21.45.19-7.77.46-15.55.45-23.32,0-3.57,2.46-4.37,4.93-4.8,4.35-.76,3.51,2.78,3.52,5.09,0,12.21.86,24.49-2,36.51a50.83,50.83,0,0,1-4.09,11.4c-4,7.86-10.83,10.77-19.42,9.37s-11.16-8.48-11.73-15.47c-.94-11.42-.48-23-.67-34.43-.07-3.86,1.32-6.82,5.43-6.91,5-.12,3.15,4,3.26,6.59.23,5.18.07,10.37.07,15.55Z"/><path class="cls-1" d="M309.72,402.65c.38-5.43-.65-11.71,1.6-17.85,3.19-8.74,10.26-11.3,18.37-11.46,5.45-.11,10.3,2.37,11.46,8.44,1.58,8.29-2.1,14.31-9.14,18.47a24.73,24.73,0,0,1-5,2.34c-5.51,1.74-11.9,2-10.2,11,1.52,8.07,5.61,12.52,13.56,13.69a4.86,4.86,0,0,1,1.09.17c3.94,1.69,12.13-3.12,11.58,3.63-.49,5.92-8.59,3.48-13.37,2.93C313.58,432.19,309.78,426.12,309.72,402.65ZM317,392c.39,1.87-1.91,5,2.39,5.71,5.05.84,14.35-6.23,14.62-11.29.18-3.38-1-5.93-4.77-6Q318,380.35,317,392Z"/><path class="cls-1" d="M650.19,206.77c0-4.06-.1-8.13,0-12.19.32-10.06,5.17-15.85,15.59-16.3,10.7-.45,16.43,4.21,18.41,14.9,2,11,1.76,22.08,2,33.16.07,3.47,0,7.26-4.69,7.13-4.1-.11-3.82-3.74-3.89-6.67-.2-7.75-.15-15.53-.59-23.27a61,61,0,0,0-2.06-10.8c-1.34-5.43-5.69-6.43-10.34-6.19s-6.22,4-6.35,7.78c-.29,8.1.07,16.22.15,24.33,0,3.68.75,8.3-4.74,8.12-5.32-.18-3-5-3.29-7.81-.39-4-.1-8.12-.1-12.19Z"/><path class="cls-1" d="M841.93,412.66a99,99,0,0,0,14.4-25.22c1.2-3.15,3.31-5.6,6.57-3.86,3.07,1.63.9,4.51-.14,6.76a232.87,232.87,0,0,1-23.61,40c-3.85,5.28-6.12,11.69-9.28,17.5-1.11,2-3,3.63-5.46,2.33-2.07-1.11-1.15-3.22-.47-4.9,1.38-3.42,2.07-7.53,4.44-10.05,12.23-13,4.85-24.83-1.6-36.8-1.22-2.27-2.85-4.31-4.16-6.53s-3.23-4.84-.34-6.81c3.28-2.25,5.59.16,7.05,2.94C833.41,395.79,837.31,403.61,841.93,412.66Z"/><path class="cls-1" d="M540.77,202.67c.24-7.76.58-15.41,4.89-22.4,5.39-8.73,13.21-9.71,22.09-7.64,2.53.6,5.11,2.14,4.45,5.36s-3.46,3.45-6.16,2.77c-11.31-2.83-14.57,4.22-15.62,13.16a96.71,96.71,0,0,0-.13,16.59c.55,10.11,5,16,16.24,14.22,2.49-.38,6.39-2.62,6.9,2.31.41,4-3.38,4.33-6.11,5.11-10.7,3-20.1-1.66-24.11-12C541,214.51,540.76,208.6,540.77,202.67Z"/><path class="cls-1" d="M648.05,428.09c-3,0-4.47,0-6,0-2.22,0-4.9.11-5.11-2.83-.2-2.66,1.92-3.76,4.42-3.86,2.22-.08,4.46.06,6.66-.16,9.36-.91,11.35-5.26,5.88-13.24-3.55-5.17-7.65-10-11.22-15.14-4-5.85-6.46-12.56-.84-18.28,6-6.16,14.42-4.48,22.13-3.86,1.86.15,2,2,1.75,3.44-.44,2.14-2.23,2.49-4.13,3-17.72,4.3-17.86,4.75-6.69,19.31,1.35,1.76,2.8,3.45,4.15,5.21,4.42,5.75,8.24,11.91,4.8,19.33S653,427.44,648.05,428.09Z"/><path class="cls-1" d="M530.91,400.76c-.47,7.37-.73,14.82-4.54,21.45a12.87,12.87,0,0,1-12.88,6.86c-5.94-.44-9.58-4-11-9.38a51.7,51.7,0,0,1,.34-29.5c2.38-7.42,6.91-13.55,15.9-12.63,8.24.85,10,7.82,11.46,14.38C530.82,394.79,530.68,397.81,530.91,400.76Zm-22.8,7a31.39,31.39,0,0,0,.31,5.6c.59,4,1.42,8.85,6.38,9.06s6.2-4.49,7.29-8.44c2.1-7.63,1.68-15.38.57-23.08-.43-3-1.72-5.9-5.24-6.3s-5.33,1.93-6.67,4.79C508.5,394.21,508.05,399.33,508.11,407.77Z"/><path class="cls-1" d="M704.38,369c-.22,5.23-2.24,12.14,7.82,10.59,1.7-.26,4-.22,4.32,2.22.32,2.69-1.54,4.4-4,4-9.65-1.46-8.56,4.8-8.1,10.77.66,8.45,1.32,16.89,1.89,25.34.18,2.76,1.6,6.53-2.92,6.93-4.34.39-4.11-3.59-4.33-6.3-.75-8.81-1.54-17.64-1.61-26.48-.05-7.14-1.16-11.77-9.89-8.6-1.78.65-4.6,2-5.49-1.15-1-3.48,1.74-4.72,4.44-4.7,10.58.07,11.27-6.73,10.66-14.68a29,29,0,0,1,.22-5.51c.32-2.69,1.17-5.56,4.34-5.46,4.08.14,2.45,3.66,2.6,5.94S704.38,366.32,704.38,369Z"/><path class="cls-1" d="M761.63,401.28c.25,7-.6,13.21-3.18,19-2.67,6-7.55,9-14.1,8.73s-9.69-5-11.19-10.58c-2.84-10.6-1.43-21.38.74-31.77,1.3-6.17,7.37-8.59,13.64-9.15s9.45,3.13,11.87,8.1C761.94,390.83,761.77,396.38,761.63,401.28Zm-6.56-.29-.66-.07a44.4,44.4,0,0,0,0-6.63c-.67-4.39-1.3-9.68-7-9.72-4.87,0-6.06,4.85-7.1,8.74a46.43,46.43,0,0,0-.66,20.87c.67,3.48,1.38,7.92,6,8.21s6.17-3.67,7-7.26C753.82,410.5,754.3,405.71,755.07,401Z"/><path class="cls-1" d="M391.65,412.79c-2.33,5.48,4.14,15.27-4.39,15.76-5.19.3-2.09-10-2.87-15.52-.72-5.11-.61-10.35-1.43-15.44-.86-5.3-3.91-8.87-9.82-8.3-5.63.54-5.61,5.21-5.72,9.19-.17,6.64.2,13.29.18,19.94,0,2.58-.16,5.6-4,5.18-3-.33-2.75-3-2.77-5.13-.06-8.11-.38-16.24.09-24.33.45-7.84,5.4-12.09,13.07-12.32s13.91,2.95,15.44,11.25C390.64,399.58,391,406.25,391.65,412.79Z"/><path class="cls-1" d="M789.29,391.59c5.2-3.72,8.52-8.86,14.18-10.82,2.46-.85,5-2.49,6.63.8,1.19,2.42-.44,3.89-2.63,5.14-13,7.37-19.7,18.33-19,33.51.16,3.18-.53,6.43-4.33,6.35-4-.07-2.62-3.76-2.66-6q-.28-16-.16-32c0-3.44-1.2-8.66,4.12-8.52,4.89.13,2.24,5.17,2.94,8C788.66,389,788.88,389.89,789.29,391.59Z"/><path class="cls-1" d="M719.59,206.11c-6.63.44-11.23,4.18-10.92,11.33.28,6.51,3.31,11.44,10.76,11.4,7.81-.05,10.87-5,11.5-12.35C730.28,209.86,726.69,205.63,719.59,206.11Z"/><path class="cls-1" d="M890.27,426c-6.55-.8-9.7-4.49-9.61-10.4.11-6.56,3.69-10.19,10.51-9.84,6.59.33,8.84,4.54,8.49,10.42S895.75,425.29,890.27,426Z"/><rect class="cls-2" width="1209" height="582.11"/></g></g></svg>