<svg xmlns="http://www.w3.org/2000/svg" viewBox="0 0 1209 582.11"><defs><style>.cls-1{fill:#463f3a;}.cls-2{fill:none;}</style></defs><g id="Capa_2" data-name="Capa 2"><g id="Capa_1-2" data-name="Capa 1"><path class="cls-1" d="M712.4,299.42l-2.81.33-2.76.5-9.28.39-3.72,0-2.79-.1a181.33,181.33,0,0,1-21.23-3.61l-1.95-.38c-6.15-2.94-12.82-3.66-19.44-3.6-5,0-6.06-2.88-6.52-6.63a14.11,14.11,0,0,0-.9-4.74c-2.1-4.48-.1-7,4-9.5,14.36-8.83,28.11-18.61,44.28-24.22,11.69-4.05,23.16-7.68,35.73-4.33,7.59,2,14.32,4.92,18.37,12.15a11.8,11.8,0,0,1,1.65,6.64,5.62,5.62,0,0,0,0,6.52c-.08,1.47-.15,2.93-.23,4.4h0a.87.87,0,0,0-.61,1.17c-.09.6-.18,1.21-.26,1.81-3.46,7.67-9.27,13.3-15.85,18.26a4.37,4.37,0,0,0-3.53,1.35Z"/><path class="cls-1" d="M614.6,193.49v.88q-.24,3.25-.47,6.53a49.1,49.1,0,0,0-2.26,11.83c-.92,13.3-6.36,25.44-9.9,38.07-.83,2.95-9.32,4.06-11.44,1.65-12.89-14.65-23.36-30.79-30-49.23-.9-2.47-1.48-5.08-2.57-7.46-4.1-9-3.55-17.9-.44-27.09,3.46-10.2,9.55-17.32,20.51-19.19,11.28-1.93,19.94,2.61,26.53,11.56,4.68,6.36,7,13.71,8.71,21.31l.29.92.45,4.62C613.47,189.84,614,191.66,614.6,193.49Z"/><path class="cls-1" d="M597.7,401.81l0-2.78c0-.62,0-1.24.08-1.87l0-3.71-.77-8.37-.13-1.87-.15-3.71c0-.93,0-1.87,0-2.8,0-7.73,1.77-15.38,1.07-23.15,2.86-7,3.44-14.33,3-21.72-.22-4,1.59-5,4.91-4.4a18.1,18.1,0,0,0,8.66-.45c2.11-.66,3.15.19,4.07,1.86,2.38,4.28,4.82,8.53,7.23,12.79a.63.63,0,0,0,.19.66c2,3.61,3,7.84,6.82,10.21l.05,0c.73,3.74,3.72,5.86,6.07,8.44a2.78,2.78,0,0,0,1.18,2.71,53,53,0,0,1,8.06,21.42l.25,3.7c-.13,4.16-.16,8.33-.41,12.49a29,29,0,0,1-3.61,12.83c-10,17.5-29.27,19.06-43.6,3.52-1-2.16-2.84-3.93-2.8-6.52,0-.62-.09-1.24-.14-1.86Z"/><path class="cls-1" d="M685.85,192.67A26.22,26.22,0,0,1,680.17,209c-15,18.94-32.95,34.74-51.75,49.72-2.54,2-4,.16-5.72-.74-6.32-3.26-6.64-3.38-4.89-10.25,2.16-8.5,2.34-17.06,2.61-25.75a64.42,64.42,0,0,1,20.44-45.76c8.83-8.46,20.3-9.12,31.85-7.55a10,10,0,0,1,8.09,6.24C683.41,180.71,685.62,186.63,685.85,192.67Z"/><path class="cls-1" d="M715.24,376.75c-12.41,1.53-22.82-3.75-33-9.67-1.59-.92-3.18-1.86-4.76-2.79h0l-2.95-2.06-1-.72L668.94,358h0l-20.71-18.54-.94-.92c-4.69-5.25-9.44-10.46-14-15.78-1-1.17-3.79-2.2-2.62-3.65,1.74-2.17,3-5.53,7-5.12,8.61.87,17.39.8,25.85,2.45,15,2.92,30,6.13,44.48,11.22a39.57,39.57,0,0,1,10.56,5.67l0,0a100,100,0,0,1,8,11.84C732.91,355.88,728.9,372.74,715.24,376.75Z"/><path class="cls-1" d="M500.53,216.59c17.47.4,32.2,7.12,44.71,19,7,6.6,14.81,12.24,21.12,19.53a55.26,55.26,0,0,1,4.23,5.52c4,6,3.33,10-2.27,14.62a2.85,2.85,0,0,1-3,.54c-10.69-4.2-22.33-3.06-33.24-6a85.64,85.64,0,0,1-11.47-3.69c-8.63-3.64-17.68-5.47-26.8-7.29C479.39,256,472,243,476.7,229.09c2.33-7,7.95-10,14.63-11.38C494.34,217.08,497.46,217,500.53,216.59Z"/><path class="cls-1" d="M519,340.44l-13.1,4.44-4.58,1.36L491,348.62a14.14,14.14,0,0,0-5.57.93l-1.8.4-3.72.7c-4.49-.19-8.53-1-9.37-6.47,3.48-1.75,3.48-1.75,1.87-5.46l-2.71,2.43c0-.42-.09-.84-.14-1.26a14.49,14.49,0,0,0,0-11.6c.63-6.24,4.75-10.44,8.65-14.77a72.27,72.27,0,0,1,16.52-8.89c8.49-3,17.3-4.12,26.11-5.36l7.45-.76.93,0c10.22,0,20.44-.74,30.65,0,1.64.13,4.15-.85,4.31,2.08.18,3.16,4.05,5.78.3,9.6A134.4,134.4,0,0,1,522.63,339Z"/><path class="cls-1" d="M569.29,360.89l-.3.86a7.28,7.28,0,0,0-1.54,3.79c-3.21,6.16-6.88,12.12-9.52,18.51-4,9.63-11.41,15.68-20,20.4-12.67,6.94-20.91,3.92-26.64-9.11-2-6.67-1.12-13.14,1.38-19.5a7.06,7.06,0,0,0,1.82-3.68l0,.07,4.07-5.74,1.37-1.89.91-1,1.15-1.23,4.77-5.07c14-12.91,29.69-23.82,44.62-35.61,2.45-1.94,4.08-2.51,7-.41,6.31,4.56,6.6,4.37,2.86,11.47A151.67,151.67,0,0,0,569.29,360.89Z"/><path class="cls-1" d="M587.18,267.06a3.33,3.33,0,0,0,2.58-1.65l5.74-2.84-.12.11,2-.61h.19c7.41-2.05,14,1,20.74,3.25l-.07-.07a8.62,8.62,0,0,0,3.87,2.73l0,0,1.87,1.46c5.13,5.58,9.45,11.62,11.19,19.21.41,1.78.68,3.08-1.16,4.31-2,1.36-2.75,4.08-1.57,5.77,2.91,4.17-.07,6.34-2.2,9-.48.59-.93,1.21-1.4,1.82l-1.23,1.11.11-.13-1.1,1,.14-.15-1.86,1.1.07,0-1.23.94-.33,0-.27.19-1.25.76-.34,0-.28.2-1.16.74.07-.12-1,.38c-9.52,3.65-19.3,1.71-28.78.41-7.09-1-12.82-5.7-17-11.82-2.28-6.39-4-12.78-.33-19.27l0,.05c3.74-1.83,1.19-5.84,2.89-8.38l-.05,0a4.13,4.13,0,0,0,1.94-2.78l-.06.05a3.38,3.38,0,0,0,1.79-2l-.06.06,1.86-2,1.76-.33A5.69,5.69,0,0,0,587.18,267.06Z"/><path class="cls-1" d="M727.6,108.46c-.83,2.5-2.9,3.79-4.41,5.5-3.85,4.34-3.54,5.87,1.16,9,2.78,1.85,4.5,1.38,5.92-1.4a43.19,43.19,0,0,0,2-4.17c1.43-3.73,3.64-4.58,7.2-2.53,6,3.43,6,4.41.83,9.18-6.14,5.61-10.31,12.67-13.95,20-.85,1.72-1.52,3.76-3.79,3.38-3.12-.53-6-2.06-7.41-5-1-2.11,1-3.31,2.27-4.6a21.2,21.2,0,0,1,1.76-1.51c5-4.25,4.85-5-.83-8.27-5-2.83-5.82,1.26-7.29,4.12-2.45,4.75-5.73,5.42-9.35,1.67-2.13-2.21-2.54-4.46-.18-6.88,6.4-6.58,12.06-13.67,15.26-22.43.93-2.52,2.65-3,4.68-1.37S726.42,105.79,727.6,108.46Z"/><path class="cls-1" d="M760,190.63c-4.27-4.63-3.84-9.06-.1-14,2.59-3.4,3.59-7.72,5.06-12.51a27,27,0,0,0-9.91,8c-1.33,1.7-2.62,3.92-5.22,2.38s-5.18-3.57-5.68-6.91c-.25-1.64,1.38-1.7,2.52-2.13,7.89-2.94,14-8.36,19.55-14.42,1.34-1.46,2.14-3.8,4.58-3.14s3.7,2.59,4.26,5c1.09,4.79-.44,9.16-2.1,13.51-.85,2.25-1.76,4.48-3,7.54,4.24-1.93,6.1-5.25,8.89-7.45,2.52-2,5-3.74,7.52-.49,2.25,2.9,1.84,5.84-1.3,8-7,4.8-14,9.65-20.53,15.08-1,.83-2.48,1.07-3.74,1.59A5.64,5.64,0,0,0,760,190.63Z"/><path class="cls-1" d="M444.78,200.64c-.51,2.28-1.19,5.28-3.69,6.7-2.76,1.58-4.33-1.42-6.28-2.74-.25-.17-.43-.48-.69-.61-1.65-.87-2.84-3.88-4.92-2.34s-3.23,4.58-3.27,7.39c0,2.53,2.39,2.94,4.27,3.56,6.35,2.1,7.73,4.48,5,8.87-1.86,3-4.24,3.9-7.36,1.67-7.36-5.27-15.24-9.39-24.2-11.22-2.44-.5-3.47-1.93-2.25-4.41.21-.41.39-.84.58-1.26,3.11-6.78,3.11-6.78,9.42-2.5,5.18,3.51,6.54,3,9-2.38,1.45-3.12.5-4.66-2.39-5.63a43.34,43.34,0,0,0-4.45-1.27c-3.88-.85-5.11-2.78-3.55-6.71,2.63-6.58,3.26-6.78,8.87-2.3,6.51,5.21,14.18,8.15,22.06,10.49C443.25,196.64,445,197.34,444.78,200.64Z"/><path class="cls-1" d="M770.28,208.28c-.85-3,.57-5.58,1.24-8.31,3.82-6,8.87-10.16,16-11.53,8.22-1.57,20.47,8.55,20.36,16.94,0,3.66-4.28,7.68-8,7.67a2.78,2.78,0,0,1-3-2.8,9.2,9.2,0,0,1,.24-2.76c.56-2.92,2.63-6.18-1-8.37-4.09-2.49-8.43-1.29-12.44.36-3.37,1.39-3.57,4.76-3.66,7.89a6,6,0,0,0,1.59,4.25c.72.78,1.89,1.53,2.88,1,1.43-.84.23-1.87-.28-2.72-1.56-2.57-2.17-4.78,1.45-6.25,3.84-1.56,4,1.6,5,3.67,1.73,3.8,3.15,7.73,5.59,11.17,1,1.43,2.9,2.93.42,4.6-2.15,1.46-4.34,1.75-6.07-.72a22.44,22.44,0,0,1-1.34-2.44c-2.9,3.4-6,2.59-9.24.84C774.91,218,772.77,213,770.28,208.28Z"/><path class="cls-1" d="M444.42,153.1a9.7,9.7,0,0,1-3.26,5,52.92,52.92,0,0,0-4.92,4.9c-1.46,1.69-1.28,3.43.6,4.78s3.61.85,4.79-.95c1.35-2.06,2.44-4.29,3.63-6.46,1.37-2.51,3.1-3.33,5.59-1.36,2.32,1.84,3.08,3.94,1,6.33-1.43,1.61-3.19,2.93-4.68,4.5s-2.5,3.22-.42,5.18,3.59,1.13,5.13-.58a20.65,20.65,0,0,0,4.49-7.49c1.14-3.53,3.68-3.89,6.65-2.35s4,4,1.61,6.81A143.58,143.58,0,0,0,454,186c-2.07,3.14-5,3.54-7.24.53-4.67-6.15-11.09-9.61-17.71-13.09-5.35-2.8-5.88-5.64-2.62-10.55,2.91-4.39,6.07-8.6,9.19-12.84,1.15-1.56,2.64-2.91,4.7-1.65C442.13,149.53,444.25,150.51,444.42,153.1Z"/><path class="cls-1" d="M625.81,77.18c.34-3.48,2.58-4.92,5.71-4.66q9,.75,18,2c2.73.4,3.76,2.29,3.22,5.13s-1.92,4.72-5,4.09c-2.86-.58-5.59-1.75-8.43-2.48-2.46-.63-4.81-.52-5.16,2.77-.33,3,1.88,3.56,4.18,3.67,2,.09,4-.16,6,0,2.45.18,4.72.71,4.17,4.11-.51,3.14-2.08,4.82-5.4,4-2.08-.51-4.09-1.37-6.17-1.9s-4-.41-4.53,2.4c-.44,2.63,1,3.61,3.27,4,2.74.51,5.44,1,8.25.27a3.82,3.82,0,0,1,4.73,1.93,5.69,5.69,0,0,1,0,5.75c-1.11,2-2.91,2-4.85,1.65a126,126,0,0,0-17-2.17c-4.36-.26-5.72-2.32-4.54-6.55.86-3.11,2.07-6.13,3.12-9.19C628.07,87.18,627.25,82.19,625.81,77.18Z"/><path class="cls-1" d="M815.68,254.91c-2.43-.19-2.67-3-4.55-3.82-1.2-3.12,1.29-5.61,1.47-8.5.13-2.1.07-4.42-2.56-4.67-3-.3-3.14,2.23-2.74,4.19.71,3.46-.31,6.66-.85,9.95l-.45,1.72q-1.41,2.33-2.8,4.65l-1.22.73c-5.64,2.58-10-.15-14.11-3.51l0,0a2.82,2.82,0,0,0-1.7-1.89c-1-4.56-2.28-9.09-1.26-13.83a5.15,5.15,0,0,0,.89-4.65l2-2.55a11.56,11.56,0,0,1,5,.54c3.28.73,4.06,2.46,2.66,5.36a16.31,16.31,0,0,0-1.87,8c.09,1.67.07,3.9,2.11,4.16s3-1.76,3.57-3.6a20.23,20.23,0,0,0,.56-8.26c-.41-4.17.27-7.8,4.6-9.57s8.07-.52,11.33,2.77c4.9,5,6.14,15.52,2.26,21.46C817.64,254.32,816.49,254.5,815.68,254.91Z"/><path class="cls-1" d="M437.55,426.39c-3,1.45-4.9.06-6.45-2.5A83.93,83.93,0,0,0,422.34,412c-3.47-4-2.88-6.23,1.87-8.46l4.58-2.16c4.66-2.16,7.77-6.1,11.12-9.76l4.62-2.42c3.58-.31,5.16,2.57,7.31,4.56l2.46,3.55a21.44,21.44,0,0,0,5,6.42c2,3.18,1.78,5.73-2,7.49-4.13,1.95-5.11-1.35-6.47-3.82-1.11-2-1.76-4.27-3.26-6.11-1.3-1.58-2.65-2-4.38-.72s-1.95,2.82-.67,4.4c1.45,1.79,3.17,3.36,4.67,5.12s2.92,3.81,0,5.77c-2.75,1.85-4.91,1.48-6.48-1.52-1.07-2.05-2-4.22-3.22-6.14-1-1.48-2.55-1.66-4.07-.57s-2.16,2-1.1,3.87a21.65,21.65,0,0,0,4.44,5.88c4.49,3.89,4.53,4.42.85,9Z"/><path class="cls-1" d="M437.7,368.32c.37,1.34.82,2.66,1.1,4,1.72,8.15-3.78,13.94-11.88,12-3.09-.72-4,.27-5.47,2.67-1.7,2.79-1.33,7.2-5.7,8.12-6.45-4.44-6.33-4.35-1.45-10.85,1.77-2.36,5-4.5,2.63-8.42-.8-1.34-1.16-2.05-2.56-.72a18.75,18.75,0,0,1-3.31,2.49c-1.78,1.08-3.8,3.23-5.76,1.49s-4.5-3.61-3.31-7c4-2.51,9.34-2.92,11.82-7.83a2.18,2.18,0,0,1,3.16-.88c1.87,1.09,3.11-.32,4.46-1.23.6-.24,1.38-.37.81-1.32l-.18-1.86,1.1-1.85h0c1.92-1.53,3.63-.34,5.38.43l.88.59A36.38,36.38,0,0,1,437.7,368.32Zm-6.65,5.7c-.86-2.42-.15-6.28-3.78-6.24-1.79,0-5.33.23-5.67,3.38-.26,2.32,4.62,6.82,6.69,6.79C431.08,377.91,430.78,375.81,431.05,374Z"/><path class="cls-1" d="M426.42,337.64c-6.94,5.57-13.76,11.26-20.17,17.44-1.1,1.07-2.36,2-3.5,3a5.62,5.62,0,0,1-8.28-1.1c-2.16-3-.13-4.74,2-6.49,1.47-1.2,4.24-1.21,4.22-3.77a17.12,17.12,0,0,0-2.58-9.7c-.92-1.36-2.29-1.33-3.73-1.22-2.24.19-4.49.13-5.34-2.49a6.56,6.56,0,0,1,.75-6.2c1.84-2.47,3.91-.33,5.87-.07.9.11,1.79.31,2.68.47l.89-.26c1.4-.4,2.76-1.06,4.27-.6.62,2.4,2.61,2.2,4.45,2.42,3.67.42,7.34,1.35,11,1.33C424.16,330.37,425.76,333.37,426.42,337.64Zm-18-1.69c-1.15.08-2.88-.56-2.47,1.1.52,2.13-.47,4.72,1.52,6.38.71.58,5.69-3.8,5.5-5C412.52,335.58,409.52,337.42,408.41,336Z"/><path class="cls-1" d="M535.65,81.07c2.39-.26,3.25,1.43,4,3.19s1.32,3.58-.64,5c-.38.27-.84.43-1.21.69-2.35,1.65-6.73,1.28-7.1,4.39-.3,2.54,1.91,5.39,3,8.1a57.33,57.33,0,0,0,5.21,10.35c1,1.56,2,3.42.39,5.1-2,2-4.36,3.69-7.32,3.45-2.52-.2-2.94-2.42-3.21-4.47a46.2,46.2,0,0,0-4.26-13.21c-2.8-6.08-2.88-6.14-8.84-3.2-4.28,2.1-6.79.88-7.78-3.76-.36-1.69-.1-3.22,1.6-3.92,8.56-3.55,17.39-6.53,25.28-11.55A2.57,2.57,0,0,1,535.65,81.07Z"/><path class="cls-1" d="M399.16,250c-1,3.93-3.42,4.68-7,3.55-3.9-1.21-3.33-3.87-2.41-6.69,2.37-7.22,4.38-14.49,4.81-22.14.17-2.94,1.58-5,5.14-4.38s4.73,2.24,4.08,5.79c-1.45,7.88-1.35,7.9,6.56,9.75,4.06.94,8.05,2.14,12.3,2.21s5.09,2.69,4.48,6.36-1.65,6.47-6.24,5h0l-1.24-.7c-4.74-3.14-10.26-4-15.65-5.14-2.25-.48-4,.12-4.17,2.86a3.54,3.54,0,0,0-.52,3A.33.33,0,0,0,399.16,250Z"/><path class="cls-1" d="M709.55,97.07c.22,4.26-2.93,6.63-6.6,5.39-7.88-2.66-7.86-2.65-11,5.11-1.51,3.72-3.26,7.32-4,11.33-.38,1.9-1.14,4.28-3.64,4.2-2.92-.09-6-.48-7.77-3.32-1.29-2.13.34-3.88,1.58-5.4,3.09-3.79,4.9-8.21,6.64-12.69,2-5.07,1.71-5.61-3.35-7.44-2.58-.93-5.71-1.41-4.69-5.49,1.17-4.69,3.45-5.8,7.78-3.52,6.59,3.45,13.27,6.63,20.59,8.28C707.17,94,709.2,94.86,709.55,97.07Z"/><path class="cls-1" d="M563.64,103.55c.15-5.27-1.18-9.91-2.28-14.56-1-4.18-4-3.53-7-2.4-3.77,1.45-6.17.76-7.11-3.64-.67-3.16.39-5,3.33-5.4,8.43-1.17,16.75-2.66,24.76-5.75,2.56-1,4.51.39,5.08,3.21.53,2.6.62,4.77-2.76,5.77-8.48,2.53-8.44,2.64-6.5,11.29.81,3.62,1.42,7.28,2.87,10.73.85,2,1.67,4.34-.7,5.83s-5.09,2.8-7.88,1.63c-2.42-1-2-3.58-2-5.74A5.25,5.25,0,0,1,563.64,103.55Z"/><path class="cls-1" d="M610.12,106.22a86,86,0,0,0-13.66,1.41c-4.45.94-7.29-1.67-6.13-6,2.09-7.78,1-15.34-.35-23-.36-2.15-1.59-4.95,1.28-6.21,3.25-1.42,6.89-2.48,10.31-.74,2.48,1.27,2,3.88.72,5.69-3.41,4.78-3.44,10.17-3.3,15.6.12,5.08,2.23,6.7,7.14,5.69a16,16,0,0,0,3.06-1c6.52-2.79,7.67-2,7.63,5.09C616.79,108,613.29,106.58,610.12,106.22Z"/><path class="cls-1" d="M483,153a5.33,5.33,0,0,1-4.41-3.41c-2.88-7.9-9-13.18-14.82-18.73-1.56-1.48-3.63-3.06-1.84-5.46,2.17-2.91,4.14-6.5,8.49-6.32,2.22.09,3,2.2,3,4.1.25,5.83,3.57,10.12,7,14.34s6,4,9.28-.24a20.86,20.86,0,0,0,2.16-3.56c.81-1.72,1.57-3.85,3.79-3.41,3,.6,4.37,3.35,5.61,5.76,1.1,2.13-.72,3.22-2.38,4.3a50,50,0,0,0-11.19,9.68C486.5,151.48,485.3,153,483,153Z"/><path class="cls-1" d="M490.27,106.14c.31-2.94,2.24-4.65,4.84-5.58,2.86-1,4.31,1,5.42,3.13a16.59,16.59,0,0,1,1.59,4.33,23,23,0,0,0,7.62,13,25.75,25.75,0,0,1,2.83,3.07c3.65,4.48,1.91,9.21-3.81,10.47-2,.43-3.58-.22-4.06-2.11-1.94-7.63-7.77-12.91-11.53-19.43C491.93,110.83,490.57,108.76,490.27,106.14Z"/><path class="cls-1" d="M737.5,161.18c-2.71-1.42-5.57-2.54-6.52-5.68-.84-2.75,1.33-3.83,3.21-4.92,4.45-2.59,6.69-7.23,10.12-10.77,2.26-2.33,4.32-4.89,6.77-7,3.17-2.71,6.39-2.24,8.85,1s.53,5.92-2.09,7.32c-7.11,3.82-12.08,9.44-15.8,16.45A6.58,6.58,0,0,1,737.5,161.18Z"/><path class="cls-1" d="M800.88,293.73c.58-2-1.6-3.51-.87-5.69,1.47-4.37,4.32-6.26,9.25-5.45a3.12,3.12,0,0,0,2.51-.66c.16,2.53,3.07,3.29,3.62,5.58a12.69,12.69,0,0,1-.23,5.31c-2.39,3.5-5.54,5.22-9.74,3.66A27.33,27.33,0,0,1,800.88,293.73Z"/><path class="cls-1" d="M400.21,295.63c-2.55-2.9-3.78-6.09-1.67-9.72a6.92,6.92,0,0,1,7.4-3.65,7.26,7.26,0,0,1,6.34,7.84c-.22,4.34-3.12,6.66-8.67,6.95Z"/><path class="cls-1" d="M771.67,404c-2.81-1.63-5.64-3.22-8.42-4.89-2.44-1.47-3.72-3.54-1.88-6.16,1.68-2.38,4.16-3.53,6.83-1.61,7.16,5.14,14.2,10.44,21.27,15.71,1.74,1.3,1.39,2.86.41,4.51-1.55,2.6-3.51,4.45-6.78,3.62a60.83,60.83,0,0,0-17.39-2.13A25,25,0,0,0,776.17,420c2.1.72,3.84,1.67,3.21,4.24-.73,2.92-2.09,5.56-5,6.94-1,.48-1.65-.52-2.18-1.29-4.76-6.85-11.67-10.89-19-14.37-1.66-.79-4-1-4.11-3.2-.12-2.48,1.44-4.38,3.63-5.53,4-2.1,8.33-2.1,12.69-1.82,1.69.11,3.39.18,5.08.27.7.35,1.58.73,2.06,0C773,404.71,772.22,404.3,771.67,404Z"/><path class="cls-1" d="M505.13,472.29c-1-2.19-3.33-2.81-5.29-3.85s-3.62-1-4.74,1.09a37.08,37.08,0,0,0-1.84,4.25c-.69,1.84-1.54,3.48-3.83,3.43a7.15,7.15,0,0,1-6.07-3.7c-1.21-1.92-.32-3.5,1-5,5.47-6.57,10.26-13.53,12.66-21.89.77-2.66,2.36-3.53,4.85-1.83.64.44,1.32.81,2,1.21,4.85,2.91,4.72,2.9,1.25,7.51-1.81,2.41-6,4.86-1.72,8.44,4.69,3.92,6.74,3,9.08-3.43,1.89-5.21,3-5.81,7.21-3.83,5.82,2.74,6,3.82,1.4,8.42-5.56,5.59-8.8,12.63-11.89,19.71-.83,1.89-1.28,4.21-3.81,3.9-2.95-.37-5.84-1.6-7.28-4.38-1.06-2.05,1.08-3.3,2.26-4.63C501.85,476,503.88,474.71,505.13,472.29Z"/><path class="cls-1" d="M713.63,441.8a3.09,3.09,0,0,1,2.71,2c.92,1.61,1.75,3.27,2.72,4.85,2,3.26,4.1,3.3,7.17.9s3.22-4.49.45-7c-.46-.41-.88-.86-1.34-1.28-4.77-4.41-4-8.31,2-11,2-.91,3.11.14,3.69,1.57,3.64,8.95,9.67,16.11,16.59,22.62,1.17,1.09,1.61,2.43.77,3.74-1.51,2.38-3.52,4.39-6.36,5.05-1.9.45-2.65-1.24-3.39-2.58a13.36,13.36,0,0,1-1-2.58c-1.95-6.4-3.26-6.85-8.57-1.25-3.19,3.36.48,5.16,2.34,7.12,3.37,3.55,3.07,6.52-1.09,8.85-2.77,1.54-5.09,1.15-6.6-1.79-4.06-7.91-9-15.13-16-20.73-.76-.6-1.48-1.39-1-2.36C708.07,444.67,711.38,443.68,713.63,441.8Z"/><path class="cls-1" d="M595.22,494.43c5.1,1.76,5.42,5.66,4.71,9.92s-3.74,6.14-7.75,6.78c-6.06,1-11.55-1.71-17.26-2.83-2-.39-2.2-2.55-1.83-4.26,1.61-7.48,2.38-15,1-22.58-.44-2.49.88-3.94,3.45-4.6a41,41,0,0,1,15.17-1.3c7.54.89,10.48,8.46,6,15.09A34.48,34.48,0,0,1,595.22,494.43ZM585,490.22c4.7,0,8.45-2.47,8.13-5.29-.3-2.61-2.26-3.06-4.43-2.91-3.39.25-6.55.73-6.47,5.35C582.22,489.5,582.79,490.65,585,490.22Zm.4,13.89c3.1-.24,6.23-.52,6.29-4.25,0-3.22-2.87-3-5.15-3.26-3.8-.46-5,2.12-5.31,5C580.87,505,584.07,503.28,585.36,504.11Z"/><path class="cls-1" d="M630.67,488.9c-.1-9.24,10.87-18.59,19.44-17.28,3.86.59,7.06,5.21,6.14,9-.83,3.42-3.14,2.75-5.46,1.78-2.08-.87-3.79-2.89-6.39-2.21a5.42,5.42,0,0,0-4.07,5.12c-.37,3.85-2.07,8.13,2.23,11.07,2.4,1.64,5,2.61,7.85,1.35,1.19-.53,2.36-1.47,1.81-2.77s-1.88-.25-2.82-.05c-2.24.48-4.24,1-4.93-2.25s1.06-4,3.69-4.41c4.11-.67,8.32-1,12.19-2.75,1.69-.77,3.65-1.84,4.54.9.66,2,.57,4.32-1.91,5-2.17.58-2.55,1.22-1.67,3.3.77,1.8-.08,3.59-1.26,5.18-7.48,10.06-21.56,8.89-27.12-2.3A22.52,22.52,0,0,1,630.67,488.9Z"/><path class="cls-1" d="M775.29,383.79c-2.88-5.54-1.93-11.53-1.14-17.18.37-2.66,3.05-5.42,6.19-6.69.15,0,.3,0,.46,0,3.36,0,7.23.42,8.22,3.83,1.11,3.81-3.24,4.13-5.59,5.54-3.25,1.94-4,4.68-1.6,7.72a25,25,0,0,0,5,4.82c3.56,2.57,9.1,1.07,11.16-2.87.79-1.51,1.77-3.64-.08-4.59-2.39-1.23-1.8,1.68-2.34,2.67-1.16,2.14-2.29,3.05-4.76,1.84s-2.58-2.59-1.37-4.81a62.87,62.87,0,0,0,5.23-11.87c.46-1.54.14-4.26,3.11-3.46,2.49.68,4.09,2.19,3.15,5.16-.26.82-1.6,2,.5,2.38,4.64.86,4.88,4.59,5.21,8.18.42,4.52-1.24,8.49-3.53,12.26C794.23,394.21,783.75,393.09,775.29,383.79Z"/><path class="cls-1" d="M536.3,463.25c5.09,1.65,11.15,3.43,17.06,5.64,2.87,1.06,2.26,3.49,1.31,5.88-1.06,2.64-3,3.12-5.23,2.24-2.7-1.07-5.21-2.61-7.82-3.93-2.15-1.09-4-.84-4.85,1.63s.85,3.7,3,4.25,4.56.84,6.79,1.44,3.43,2,2.36,4.49c-.92,2.15-2.18,4-4.86,2.94-2.28-.9-4.38-2.24-6.58-3.36-1.77-.9-3.39-.76-4.28,1.18s-.6,3.44,1.66,4.47a18.23,18.23,0,0,0,8,2c2,0,3.65.59,4.32,2.74a5.44,5.44,0,0,1-.86,5.26c-1.4,1.79-3.28,1.58-5.06.81a104.89,104.89,0,0,0-15.83-5.16c-3.64-.93-5-3.66-2.8-6.67,4.38-6,5.45-13,6.73-20C529.91,466,531.3,463.18,536.3,463.25Z"/><path class="cls-1" d="M706.19,455.68c-.09,1.74-2.15,2.39-3.89,3.31-5.92,3.1-5.93,3.11-2.53,8.85,2.44,4.11,4.27,8.59,7.39,12.31,1.21,1.44,1.56,3.2.22,4.66-1.8,1.94-3.92,3.66-6.78,3.54-2.14-.09-2.71-2-3-3.6a45.11,45.11,0,0,0-5.45-13.26c-2.63-4.66-3.4-5-7.84-2-3.13,2.06-5.6,2.34-7.62-1.41-1.38-2.57-1-4.63,1.59-5.8a133.47,133.47,0,0,0,21.52-11.8C702.58,448.46,706.2,451.19,706.19,455.68Z"/><path class="cls-1" d="M465.81,459c-2.62-.72-5.1-2.14-6.29-4.78s1.17-3.95,2.89-5.13c4-2.76,6.88-6.63,10-10.24,2.44-2.78,2.08-4.79-1-6.76-2-1.3-4.53-2.57-3.76-5.71,1-4.16,4.89-5.39,8.1-2.4,5.54,5.17,11.09,10.28,17.66,14.2,2.38,1.42,3.41,3.49,1.25,6.18-2,2.53-4,2.89-6.68.86-6-4.56-6.08-4.48-10.91,1.26a62.42,62.42,0,0,0-7.2,9.65C469.08,457.58,468,459,465.81,459Z"/><path class="cls-1" d="M765.42,440.63c-1.21,2.48-2.32,5.09-5.15,6.25s-3.9-1-5-2.87c-1.73-3.06-4.5-5.09-7.13-7.23a77.14,77.14,0,0,1-9.88-9.15c-2.76-3.2-1.71-6.06,1.11-8.46,3.1-2.63,5.57-.55,6.81,2,3.55,7.18,9.37,11.75,16.1,15.52A6.15,6.15,0,0,1,765.42,440.63Z"/><path class="cls-1" d="M621.18,481.28a9.32,9.32,0,0,1-.2,2.36c-2.36,6.49-1.06,12.69.92,19,1.77,5.7.44,7.55-4.54,8.11-4.54.52-6.19-1-5.3-5.46s-.08-8.61-.61-12.88a61.3,61.3,0,0,1-.57-11.56c.24-3.77,2.86-4.8,6.11-4.86C620.67,476,621.17,478.47,621.18,481.28Z"/><path class="cls-1" d="M791.69,324.09c2-.3,4.13-1,5.09,1.57.89,2.43,2,4.94-.83,7.06a9.92,9.92,0,0,0-3.49,4.24c-.61,1.53-.86,3.05.91,4s2.85-.1,3.65-1.6c1-1.77,1.86-3.56,2.89-5.28,2.34-3.9,4.87-7.82,10.12-7.65s7.56,4.14,9.38,8.41c.1.61.21,1.23.31,1.85.53,3.83-2,7.21-1.61,11-3.65,2-6,5.78-10,7.24-1.3-.48-1.27-2.09-2.2-2.75-3.4-2.39-1.8-4.3.49-6.12a14.11,14.11,0,0,0,4.72-6.13c.54-1.43,1.51-3-.34-4.07-1.65-.95-2.88.22-4,1.28a16.93,16.93,0,0,0-3.8,5.74c-1.71,3.78-3.12,8-8.36,7.66-5.41-.34-8-4.05-9.41-8.81-.13-.44-.24-.89-.35-1.33l0-3.72c.4-1.44.91-2.89-.6-4.06,0-.51,0-1-.07-1.55l.21-.23-.17-.25C788.48,330.47,789.75,326.89,791.69,324.09Z"/><rect class="cls-2" width="1209" height="582.11"/></g></g></svg>