<svg xmlns="http://www.w3.org/2000/svg" viewBox="0 0 1209 582.11"><defs><style>.cls-1{fill:#463f3a;}.cls-2{fill:none;}</style></defs><g id="Capa_2" data-name="Capa 2"><g id="Capa_1-2" data-name="Capa 1"><path class="cls-1" d="M502,163.77l.24-.23-.09-.32c-.71-3.06-1.07-6.24-2.18-9.15-3-7.83-2.5-15,2.92-21.7l-.16-.21.14.22a15.49,15.49,0,0,1,15.1-.1l0,0a28.58,28.58,0,0,1,6.79,13.26c1.49,7.15,1,14.35.45,21.54-.37,5.06-.87,10.12-1.37,15.86a10.48,10.48,0,0,0,5.87-7.84,46.81,46.81,0,0,1,3.9-12.5h0c8.15-4.93,11.74-4,15.88,4.22.55,1.09.73,2.67,2.52,2.18a2.91,2.91,0,0,0,2.07-2.89c.29-4.71.41-9.44.81-14.14,1.46-17.29,2.8-34.61,12.41-49.95l.92-.92c11.56-10.27,27.53-1.78,28.19,12.11a53.44,53.44,0,0,1-2.69,19.05A525.21,525.21,0,0,0,579,190.92c-1.48,7.58-2.58,15.25-5.63,22.43-2.55,6-6.37,8.81-10.93,8.27-5.93-.71-10.09-5.05-10.86-11.44-.35-2.82-.45-5.66-.88-8.46-.59-3.88-1-7.95-3.91-10.94-1.92-1.94-4.28-3.45-7.25-2.1s-3.21,4-2.51,6.83c.85,3.37,1.8,6.7,2.62,10.07,1.82,7.38,1.93,14.67-1.56,21.68-4.61,9.26-14.52,13.51-24.57,10.56-9.16-2.69-12.46-8.74-11.12-20.12,1-8.6,2.26-17.19,2.77-25.83C505.76,182.39,505.79,172.84,502,163.77Z"/><path class="cls-1" d="M749.55,441.35l-1,1c-3.08,1.53-6.14,1.11-9.19-.12-4.64-7.09-5.3-15-5-23.13.12-3,0-6,0-9a12.43,12.43,0,0,0-1.94-6.72,5.17,5.17,0,0,0-5.77-2.42c-6.78,1.28-9.36,5.42-7.4,11.83.42,1.36.84,2.71,1.22,4.08,3.91,14,4.46,27.79-2.62,41.21-2.72,5.16-8.57,8.73-14.55,8-5.18-.67-9.41-5.14-10.32-11-.56-3.62,0-7.18.61-10.78.82-4.73,2.73-9.1,3.61-13.9,3.07-16.8.16-32.55-6.11-48-2.22-5.47-3.8-11-3.57-17,.28-7.49,4-12.86,10.76-16.07,9.41-4.48,17.62.24,18.38,10.49a50.1,50.1,0,0,1-.24,7.54c-.39,5-1,10-1.3,15-.13,1.88.08,4,2.1,4.93,2.26,1.08,4.35.17,6.27-1.16,2.3-1.61,3-3.94,3.21-6.56.33-4.47-.65-8.78-1.63-13.08-2-8.76-2.52-17.44.85-26l0,0a2,2,0,0,0,1.16-1.8l0,.09c7.64-4.68,12.18-3.51,16.75,4.28a40.78,40.78,0,0,1,3.8,9.14,92.55,92.55,0,0,1,3.41,20C752.54,395.27,756.47,418.43,749.55,441.35Z"/><path class="cls-1" d="M455.73,328.13a.59.59,0,0,0,.14-.65C464.49,312,465,294.93,466.2,278c.69-9.37,1.63-18.67,4.76-27.65,3.82-11,15.52-15,24.38-8.28a56.49,56.49,0,0,1,4.19,3.86l0,0c4.12,7.5,6.52,15.54,8.23,23.87,1,4.73.66,9.66,2.47,14.24l-.18.29c.63,10.38,1.34,20.75,1.85,31.14.52,10.86,1.17,21.74-3.28,32.15-1.23,2.89-3.14,4.77-6.28,5.13-3.42.39-5.8-1.38-7.45-4.18-2.52-4.29-2.76-8.92-2.28-13.74.61-6.11,1-12.24,1.42-18.37.2-3-.69-5.35-4.3-4.19-2.86.93-8.43-1.23-7.17,5.28a70.55,70.55,0,0,1,.91,20.25c-.56,5.86-2.05,11.53-5.61,16.38-6.62,9-18.37,7.9-23.29-2.09a18.87,18.87,0,0,1-1.43-12C453.85,336.1,454.84,332.13,455.73,328.13Zm31.64-40.82c1.4-.86,5.08.26,4.45-3.46-.43-2.46-.93-6.64-3.6-6.31-3.32.4-3.41,4.61-3.84,7.64C484.11,287.07,485.13,287.72,487.37,287.31Z"/><path class="cls-1" d="M637.28,448l-1-.81c-10.49-10.15-15.26-22.88-17.18-36.9-2-14.32-1.3-28.47,3.06-42.35l-.27-.14.25.16a9.51,9.51,0,0,0,2.7-4.79v0c.92-1.08,1.84-2.15,2.74-3.24,8.23-9.89,18.8-10.51,28.17-1.66,10.65,10,8.16,22-5.89,26.38-6.68,2.09-10.15,6.2-11.38,12.56a30,30,0,0,0,2.61,20.21,17.07,17.07,0,0,0,18.8,9c3.28-.78,5.58-2.62,5.28-6.24s-2.62-5.28-6.17-5.19c-2.55.07-5.1.37-7.64.62-6.87.66-10.24-2.76-9.43-9.47.35-2.92,2-5.26,3.19-7.82h-.1l1-1,0,.08c6.2-4.14,13.07-3.94,19.88-2.46,15.3,3.32,21,11.91,18.84,27.21-.89,6.3-3,12.23-4.74,18.26v.08a2,2,0,0,0-.94,1.87h0c-1.24,1.61-2.44,3.25-3.72,4.83-7.13,8.85-15.64,11.09-26.25,6.93-2.65-1-5.28-2.13-7.91-3.2v0a3.76,3.76,0,0,0-3-1.83v.06Z"/><path class="cls-1" d="M569.09,243c1.74-1.41,3.49-2.79,5.8-3.21.82.66,1.63.35,2.6.26,9-.86,14.38,2.8,17.06,11.37a33,33,0,0,1,1.28,9.33c.16,8.85-1.21,17.57-2.32,26.32-.84,6.71-1.8,13.43-1.51,20.22.12,2.86.4,5.86,3.57,7.19,3.37,1.41,4.9-1.48,6.7-3.29,3.45-3.49,6.36-7.55,10.79-10,5.23-2.87,9.23-1.46,11.7,3.88a14,14,0,0,1,1,7.4c-.56,6-1.44,11.87-2,17.82-.79,8.78-5.77,14-14,16.68-7.34,2.39-14.9,2-22.36,1.35-12-1-16.89-6.73-16.6-18.66a227.68,227.68,0,0,0-.47-26.89c-1.06-11.08-4.54-21.54-7.65-32.12a28.84,28.84,0,0,1,.24-17.48C564.32,249.07,567.72,246.75,569.09,243Z"/><path class="cls-1" d="M549.57,237.4l1,.82,1.06,1-.09,0c.62,1.1,1.23,2.2,1.85,3.29a.27.27,0,0,0,0,.44c.28,3.29,1,6.52.73,9.86a84,84,0,0,1-8.1,29.42,91.78,91.78,0,0,0-9.39,38.23c0,1.57-.34,3.3,1.32,4.25s3.07-.19,4.45-.91a16.72,16.72,0,0,0,5.58-5l3.8-2.28c3.81-1.83,7.54-2.1,11.15.48l.15-.25-.17.24c2.26,3.69,3.61,7.63,2.95,12-1.13,7.34-3.36,14.16-9.84,18.81a.48.48,0,0,0-.53.2c-8.94,3.92-18.06,3.21-27.18.87-7.34-1.89-11.29-6.88-11.39-14.37,0-2.81.45-5.63.65-8.44.48-6.53,2.87-12.82,2.09-19.52-1.87-16.06-4.07-32.13-1.37-48.32l-.08,0c2.16-4.64,4.35-9.27,7.59-13.32v0A39.63,39.63,0,0,1,529,242C535.15,237.55,541.27,232.76,549.57,237.4Z"/><path class="cls-1" d="M407.53,155.77a2.4,2.4,0,0,0,.13-.7c5.27-6,12-9.53,19.8-11.36,6.22-1.48,12.37-3.43,18.67-4.35,7-1,14-2.81,21.18-2.48,9.1.41,12.28,4.79,9.52,13.23-1.48,4.52-4.75,7.4-9,9.25-3.06,1.34-6.28,2.34-9.41,3.54-9.19,3.51-12.41,9.2-11.1,18.88.84,6.14,3.08,11.87,4.79,17.76,3.41,11.7,3.1,23-3.16,33.78-3.36,5.78-7.74,8.3-12.2,7.42-5.11-1-8.34-5.21-9-12a60.93,60.93,0,0,1,.57-16c1.75-10.69,4.94-21.2,3.54-32.26-1.09-8.61-3.64-10.24-11.54-6.9-6.3,2.67-10.8.33-12.81-6.14C406.26,163.45,408,159.66,407.53,155.77Z"/><path class="cls-1" d="M496.73,433.36a.77.77,0,0,0,.24.68c2,8,.11,15.66-2.45,23.23l.08.05-.76,1.13,0,0a4,4,0,0,0-1.92,2.86h0c-9.45,7.32-20.2,6.74-31.11,4.86-5.91-1-9.05-4.72-10.12-10.49-1.85-10,.76-19.77,1.7-29.51,1-9.93,1.45-19.7.3-29.53A100.7,100.7,0,0,1,452,376c.55-6.32,4.53-10.82,9.93-11.9,14.17-2.84,22.73,5.67,19.12,19.4-1.67,6.38-4.17,12.55-6.4,18.78-3,8.33-5.95,16.67-5.52,25.68.18,3.7-.59,9,3.31,10,3.54,1,6.19-3.54,8.43-6.59h0c3.15-1.89,6.09-4.32,10.17-3.78l0-.07,2,1-.08,0,2.87,2.8,0-.09Z"/><path class="cls-1" d="M433.25,337.36a.3.3,0,0,0-.14.46c-1.94,1.56-3.84,1.6-5.34-.49-5.24-7.34-13.28-9.85-21.43-12.26-8.68-2.58-17.56-4.59-25.66-8.83-12-6.3-16.78-15.58-14.16-27.74l0,0c6.13-8.49,13.54-10.77,23.66-7.07,3.26,1.19,6.35,2.85,9.51,4.3l0,0a1.92,1.92,0,0,0,1.73,1.19l0,.11a14.76,14.76,0,0,0,6.87,4.81c-.14-11.63-.4-22.93,10-30.77v.06c11.38-2.37,18.87,1.89,22.35,12.9a44.9,44.9,0,0,1,1.52,7.84c1.38,11-2.44,21.11-6,31.22C433.3,320.92,430.54,328.83,433.25,337.36ZM392.09,315c.73,1.26,1.81.92,2.89.61l6.74,2.18c7.58,3.57,16.13,4.82,23.28,9.46,1.06.69,1.73-.12,2-1.22,2.56-12.47,9-23.91,10.21-36.71.64-6.83,0-13.58-4.39-19.35-5.32-7-12.76-6.29-16.69,1.45-2.28,4.49-2.61,9.33-2.8,14.23-.15,4,.58,7.82,1.1,11.71.22,1.61,0,3-1.86,3.92s-2.36-.4-3.59-1c-2.83-1.34-4.41-4-6.93-5.55l-.09,0c-5-4.8-10.65-8.42-17.66-9.61-5.23-.89-10.35,1.14-12.46,4.93-2.2,4-1.1,9.88,2.55,13.76l.08.06c.63,2.81,2.87,4.11,5.18,5.35l0,0c1.94,2.29,4.6,3.33,7.41,4.09l.15,0a6.73,6.73,0,0,0,4.73,1.86Z"/><path class="cls-1" d="M833.13,187l-.79.92a1.9,1.9,0,0,0-1.27,1.72l-.06-.1a13.49,13.49,0,0,0-4.39,3.94l-1.09,1a8.32,8.32,0,0,0-4,2.76v0c-2,1-4,2-6,2.81-15.69,6.22-30.61,5.17-43.44-6.16-12.24-10.81-15.88-24.85-11.85-40.39,2-7.78,6.64-14.39,11.93-20.69,8.55-10.2,19.91-13.71,32.34-13.75,9.4,0,18.09,3.84,25.82,9.32l.07.06a17.52,17.52,0,0,0,4.74,4.74l0,0a2.65,2.65,0,0,0,1.58,2.16l0-.24v.24c3.17,6.71,6.19,13.41,6.42,21.07.2,6.25-1.24,12.17-2.54,18.17h0Zm-21.68,8.85a13.52,13.52,0,0,0,6.5-3.12c2.68-1.85,5.7-3,8.09-5.54,5.89-6.35,8.75-13.84,11.2-21.92,3.17-10.47-2-27-11.56-33.23-9.3-8.74-24-10.56-37.81-5-15.11,6.06-27.71,25.08-23.54,44.42,2.13,9.89,7.62,18.17,17.48,22.74C791.39,199.84,801.3,200,811.45,195.89Z"/><path class="cls-1" d="M602.81,134.77,601.68,133,601,132l0-3.49c.89-.37.85-1.15.88-1.89l1-1c1-.32,1-1.11,1.05-1.93l-.14.1,1.2-1,.79-.93c.78,0,1.53,0,1.81-1l.09-.07c1.24-.22,2.46-.55,3.71-.65,3.66-.28,7.24.1,9,3.82,1.63,3.46.13,6.41-2.49,8.88a13.7,13.7,0,0,1-12.21,3.75l.08,0c-.4-.82-1.2-.87-2-1l.09.11Z"/><path class="cls-1" d="M718.4,141c-1.18,9.11-2.52,19.35-3.84,29.59a52.62,52.62,0,0,0-.41,13.67c.8,6,4.84,7.67,9.64,3.94,3.75-2.92,7-6.47,10.75-9.37,4-3.08,8.58-5.75,13.61-2.6s5.7,8,4.66,13.4c-3.43,17.68-12.27,31.52-28.86,40s-34.28-2.36-34.8-21.36c-.24-8.49,1.27-16.91.34-25.48A116.59,116.59,0,0,0,682.62,153c-2.23-5.73-4.4-11.5-4.12-17.84.57-12.73,15.15-23.6,27.62-20.16,7.64,2.11,10.26,8.55,11.67,15.41C718.42,133.44,718.19,136.66,718.4,141Z"/><path class="cls-1" d="M679.28,219c-8.36,11.33-20.14,15.47-33.8,15.35-11.38-.1-18.42-7.14-18.84-18.42a46.56,46.56,0,0,1,1.26-14.51c3.7-13.09,3-26.07.24-39.27-2.56-12.27.51-23.17,11-31.27a17.42,17.42,0,0,1,7.65-3.77c5.69-1,11.38-1.16,15.73,3.25,4.53,4.6,4.3,10.27,2.34,15.95A86.68,86.68,0,0,1,657.07,162c-4.23,7.12-7.75,14.52-8.73,22.83a37.72,37.72,0,0,0-.29,8c.77,8.34,3.48,9.61,10.56,5.14,3.1-2,6-4.26,9.19-6,7.94-4.35,15.32-.12,15.82,8.81.37,6.51-2.16,12.3-4.33,18.19Z"/><path class="cls-1" d="M617.44,229c-11,9-21,8-27.26-2.73-2.43-4.18-3-8.9-2.79-13.68.26-7.73,3-15,4-22.62s2.23-15.15.85-22.89c-.72-4.07.69-8,2.23-11.86,3.8-5.64,8.92-9.35,15.85-10.27,5.37-.71,8.52,1.94,8.8,7.33a21.32,21.32,0,0,1-1,7.43,47.87,47.87,0,0,0,.08,28.77A85.15,85.15,0,0,1,622,215,22.71,22.71,0,0,1,617.44,229Z"/><path class="cls-1" d="M690.75,346.69c-3.15.82-5.69,2.82-8.48,4.33-10.51,5.69-21.08,1.74-25.09-9.4a31.82,31.82,0,0,1-1.82-13c1.4-20.68.7-41.25-3.36-61.64a15.2,15.2,0,0,1-.24-3.3c.2-7.77-1.45-16.46,6.62-21.47,11.15-6.91,22.94-10.58,35.57-3,4.7,2.82,9.3,5.57,11.34,11,3.91,10.51,4.34,19.24-7.18,28.17,3.44.53,6.48.88,9.48,1.48,21.14,4.2,28.94,25.1,15.91,42.1a70.51,70.51,0,0,1-28.23,22.1c-1.58.7-3.37,1.1-4.48,2.61Zm-1.86-49.09a21.54,21.54,0,0,0-11.38,3c-2.14,1.19-3.27,2.89-2.68,5.42q1.09,4.77,2.13,9.54c.36,1.67.76,3,3.1,2.36,6-1.55,11.86-3.25,16.67-7.3,2.18-1.84,4.75-3.88,3.59-7.08s-3.83-4.93-7.18-5.55A39.93,39.93,0,0,0,688.89,297.6Zm-5.46-38.22c-.6-2.27-2.14-3.12-4-2.84-3,.44-5.57,1.64-5.86,5.13-.15,1.72.91,2.21,2.44,1.84C678.89,262.8,681.86,262.19,683.43,259.38Z"/><path class="cls-1" d="M418.22,225.63c0,5.49.74,11-1.2,16.39-3.07,8.5-9.25,13.45-18.2,14.87-8,1.27-14.48-3.26-17.27-11.57-3.1-9.24-1.12-18.4.36-27.56.55-3.42,1.28-6.82,2.09-10.19a80.26,80.26,0,0,0,.15-38.84,29.89,29.89,0,0,1-1-9.83,9.17,9.17,0,0,1,6.6-8.46c4-1.34,7.54,0,10.44,3s3.82,6.52,4.3,10.3a102.46,102.46,0,0,0,7.06,26.91A80.5,80.5,0,0,1,418.22,225.63Z"/><path class="cls-1" d="M537.35,396.93c6.69,3.26,12.59,6,17.65,10.22a31.37,31.37,0,0,1,9,12.07c2.53,6,5.25,11.84,9.16,17.09,4.64,6.25,8.62,7.6,16.21,5.62,9.29-2.42,13,.07,13.4,9.46.36,7.57,0,15.44-7.41,19.78-7,4.14-14.08.81-20.39-2.73A40.06,40.06,0,0,1,559.07,453c-4.2-7.6-8.1-15.37-12.23-23-2.34-4.34-5.06-8.47-9.35-11.2-2.4-1.52-5.17-3.08-8-1.19s-2.44,5.13-1.45,7.75c4.39,11.6,5.72,23.89,8.67,35.8,3.31,13.33-2.5,21.81-16.17,24.17-7.47,1.29-13.65-2.26-16.2-9.32-2.71-7.46-.83-15-.17-22.47,1.18-13.19,2.38-26.36,1.53-39.62-.75-11.62-3.65-22.92-5.34-34.4-1-6.56.25-12.59,5.57-17.22a8.73,8.73,0,0,1,3.19-2c12.35-3.3,24.69-5.37,37.06.15,12.86,5.74,15.21,18.68,5,28.25C547.38,392.2,542.73,394.36,537.35,396.93Zm-9.15-26.4c-1.23.23-2.94.49-4.64.86-2.23.49-4.21,1-4.2,4.08,0,7.54.53,7.92,7.58,4.53a35.43,35.43,0,0,0,4.16-2.25c1.8-1.2,3.17-2.8,2.44-5.11S530.54,370.81,528.2,370.53Z"/><path class="cls-1" d="M833.87,366.57a19.61,19.61,0,0,1-12.55,1.79c-5.4-.83-7.38.59-9.08,5.91-2.17,6.76-.28,13.46.31,20.16,1.39,15.77.05,31.08-7,45.55a38,38,0,0,1-8.1,11c-5.87,5.56-13.72,4.64-17.82-2.29-3.18-5.37-3.82-11.28-3.37-17.36,1.13-15.4,6.76-29.73,10.75-44.45,1.57-5.78,3.3-11.55,3.14-17.63-.2-8-4.53-10.41-11.68-6.54-3.36,1.82-6.54,4-10.05,5.51-6,2.53-11.16-.06-13.19-6.19-2.85-8.6,1.95-17.77,10.62-21,6.91-2.6,14.11-2.89,21.26-3a280.42,280.42,0,0,1,35,1.32,30.19,30.19,0,0,1,3.79.6c6.5,1.63,12.07,4.59,14.2,11.37,2,6.54-1.6,11.13-6.14,15.24Z"/><path class="cls-1" d="M795.63,313.68,792.36,318c-7.68,8.78-17.07,14.63-29,16.1C749.63,335.84,740.8,328.69,740,315c-.87-14.29-1-28.68-5.74-42.46-1.7-4.92-3.6-9.77-5.19-14.72-3.77-11.71-.69-19.79,9.86-26.21a60.47,60.47,0,0,1,32.82-8.92c4.43.05,8.57.86,12.24,3.42,3.91,7.43,2.95,11.37-4.69,19.3-4.89,2.59-10.34,3.09-15.64,4.21-5.94,1.25-8.87,5.45-7.77,10.51,1.3,6,5.55,8.36,11.38,6.24,2.1-.76,4.09-1.79,6.15-2.65,3.61-1.51,7.21-1.81,10.36.9,3.31,2.84,4.23,6.58,3.32,10.73-1.26,5.71-6.19,9.66-12.44,9.92-2.55.11-5.12,0-7.67-.12-3.58-.13-6.41,1.09-7.48,4.61a10.39,10.39,0,0,0,2.91,11.26c2.81,2.6,5.91,1.7,8.87.1,4.34-2.34,8.57-4.89,13-7.07,4.15-2,8.51-3.15,12.54.34,3.06,2.65,3.72,8.27,1.64,13.26C797.57,309.72,796.56,311.68,795.63,313.68Z"/><path class="cls-1" d="M433.17,352l.94.93c7.64,9.75,10.66,21,10.88,33.09.4,21.73.45,43.47-2,65.11-.63,5.7-2.12,11.35-5.64,16.14s-9.49,4.52-12.63-.34a22.63,22.63,0,0,1-3.25-16.31c.91-5.59,2-11.16,2.94-16.74a48.32,48.32,0,0,0,.76-6.08c.13-3.31.49-7.2-3.15-8.75-4.14-1.76-8.13.14-11.65,2.53-1.68,1.14-1.55,2.9-1.3,4.71.51,3.59,1,7.18,1.25,10.79a30.86,30.86,0,0,1-5,20.24c-4,3-8.23,4.41-12.9,1.78s-6-7.08-6.25-12c-.34-8.24,2.41-15.85,5.15-23.42,4.34-12,9.27-23.88,10.89-36.66.77-6.08.94-12.24,1.46-18.36a53.41,53.41,0,0,1,1-7.48c3.18-13.67,15-18,27.53-10.07Zm-6.9,36.41c-.48-4.39-.27-8.22-1.69-11.8-.5-1.27-.92-2.92-2.72-2.86-1.46.06-1.95,1.52-2.48,2.61-2.66,5.44-2.27,11.31-2.23,17.11,0,1.64-.85,4.37,2.33,4,2.75-.3,6.56.44,6.78-4.1C426.34,391.52,426.27,389.64,426.27,388.41Z"/><path class="cls-1" d="M610.35,404.64c5.92,10.55,1.24,23.95-9.66,27.67-9.89,3.36-19-2.2-20.34-12.4-.88-6.68-1.17-13.42-2.3-20.09-.79-4.69-3-8.88-3.88-13.51-1.47-7.55,2.19-13,9.68-13.88,5.9-.69,9.18,1.69,11.12,8.58,2.67,9.46,7,17.8,15.36,23.63Z"/><path class="cls-1" d="M573.25,369.18l-.94-.84c-.48-4.76,1.68-8,6.21-9,2.47-.56,4.9-.48,6.16,2.18,1.15,2.45-.17,4.28-2,5.71C579.87,369.37,576.78,370.37,573.25,369.18Z"/><path class="cls-1" d="M395.91,133.88c.09,4.39-4.53,8.48-9.7,8.61-3.92.09-7-2.28-7.1-5.56-.17-3.76,5.44-9.07,9.61-9.11C392.73,127.79,395.85,130.41,395.91,133.88Z"/><path class="cls-1" d="M821.85,172.6c-.11.73-.23,1.46-.34,2.19q-4.83,4.52-9.65,9.06c-9.44,5.46-18.9,8-28.45.24h0a6.94,6.94,0,0,0-2.92-2.81l0,0-4.84-7.58,0,0c-.08-.77-.16-1.55-1-1.94l0,0c-.66-2.71-1.63-5.41-1.86-8.16-.13-1.67-1.52-4.51,1.71-5,2.67-.38,2.62,2.21,3.16,3.87.77,2.38,1.15,4.9,2,7.25,1.09,3,2.28,6.11,5.5,7.72v0c.33.76.78,1.33,1.74,1.19l-.05.11c6.1,7.33,15.38,6.86,23.39-1.2l0,0c3.57-1.11,5.17-4.38,7.6-6.74l2.15-.21,1.36.53.07.1C821.59,171.78,821.72,172.19,821.85,172.6Z"/><path class="cls-1" d="M802.67,158.36c1.65-6.19,3.26-12.4,5-18.58.46-1.63,1.16-3.69,3.48-2.86,2.12.76,1.61,2.49,1.05,4.34-1.58,5.19-2.82,10.49-4.29,15.71-.82,2.92-2.43,4-5.11,1.67Z"/><path class="cls-1" d="M788.87,154c1.74-5.7,3.56-11.84,5.51-17.95a2.23,2.23,0,0,1,2.93-1.71,2.34,2.34,0,0,1,1.44,3.1c-1.62,6-3.33,12.06-5.07,18.07-.44,1.52-1.57,2.51-3.21,2.1S789,155.78,788.87,154Z"/><rect class="cls-2" width="1209" height="582.11"/></g></g></svg>