<svg xmlns="http://www.w3.org/2000/svg" viewBox="0 0 1209 582.11"><defs><style>.cls-1{fill:#463f3a;}.cls-2{fill:none;}</style></defs><g id="Capa_2" data-name="Capa 2"><g id="Capa_1-2" data-name="Capa 1"><path class="cls-1" d="M424.12,155.78c-1.49-8.27-.23-16.82-2.77-25-3.15-10.18-13.48-15.21-24-11.39a17.18,17.18,0,0,0-9.59,24c2.8,5.83,7,8.39,13.45,5.42a32.64,32.64,0,0,1,5.1-2.11c7.09-1.88,12.64,1.13,15.76,8.23,3,6.73-.62,11.11-5.56,14.56-10.65,7.44-25.21,7.27-34.85,0-10.23-7.75-14.25-22.57-9.7-35.75,4.81-13.89,17.35-22.93,33.45-23.13,15.53-.19,31.06.37,46.6.67,2,0,4.5-.71,5.5,1.89s-1.62,3.35-3,4.8c-3.94,4.11-4.22,9.43-4.41,14.72-.8,22.18-.79,22.18,20.86,22.14,10.64,0,10.67,0,10.54-11,0-5-.1-10-.35-15a17.41,17.41,0,0,0-3.47-10.31c-1.36-1.71-4.89-2.16-3.83-5.22C475,110,478.3,111,480.76,111c10-.11,20-.08,30,0,2,0,4.47-.56,5.2,2.27.59,2.25-1.22,3-2.68,4.23-4.37,3.53-4.68,8.82-4.73,13.72-.21,20.53-.23,41.08.1,61.61.08,5.38.71,10.89,5.85,14.82,3.31,2.52,2.28,5.42-2,5.5-11.85.23-23.7.17-35.55,0-3.47,0-5.53-2.67-2.49-5,7.32-5.58,6.41-13.44,6.77-20.84,1.13-23.48,1-23.15-22.1-23.43-7.65-.1-10.33,2-9.41,9.66.75,6.24.07,12.65.63,18.93.48,5.39.45,11.26,5.81,14.82,1.48,1,2.27,2.2,1.6,3.95s-2.28,2-3.89,2q-17.38,0-34.76,0c-1.61,0-3.24-.32-3.65-2.27a2.92,2.92,0,0,1,1.4-3.36c5.93-3.55,5.68-9.63,6.1-15.32.78-10.47-.56-21,1.17-31.48,6.27,14.1,2.57,28.41.11,42.43-.93,5.31-.4,6.65,4.66,6.5,5.24-.15,10.5-.06,15.75,0,4.86,0,5.58-1.94,4.18-6.48-3.72-12.08-3.37-24.71-3.19-37.11.05-4,1.84-7.89,1.57-12.56-.66-11.39-2.36-23,1.24-34.33.79-2.47,1-4.3-2.15-4.33-11-.1-22,0-33.06,0C426.42,123.76,431.44,142.09,424.12,155.78Zm69.19,53.93c1.32,0,2.63,0,3.94,0,6.29.25,8.56-1.23,8.31-8.93-.76-24.28-3.39-48.59-.37-72.91,1.49-12,.49-12.89-11.72-13.08-2.63,0-5.26,0-7.88,0-2.35,0-2.84.5-2.24,3.26a78,78,0,0,1,1.77,22.29c-.49,6.76-2.17,14.28-.76,20.4,3.06,13.28-.46,26-.38,39C484.05,209.69,482.68,209.69,493.31,209.71ZM374,146.49c.09,15.49,16.13,28,31.62,24,6.82-1.76,13.81-9.7,12.37-14s-10.5-6.25-17.56-3.47c-3.06,1.21-5.33,2.13-9.12-.28-5.79-3.68-6.64-9.83-10.05-14.58-2.59-3.62,2.8-5,3.26-8,.27-1.77,1.34-3.83-.82-4.83-1.84-.84-2.68,1.07-3.47,2.37C376.75,133.23,373.58,138.93,374,146.49Z"/><path class="cls-1" d="M345.45,259.51c0,17.09-.16,34.19.1,51.28.08,4.91.64,10.11,5.67,13.16a3.18,3.18,0,0,1,1.63,4c-.67,1.76-2.36,1.88-4,1.88-5.52,0-11.05,0-16.58,0-1.59,0-3.3-.18-3.91-2s.25-3,1.71-4c5.42-3.52,5.75-9.22,5.79-14.7q.27-30.42,0-60.83c0-5.74-.7-11.31-6.13-15.41-3.2-2.41-2-5.4,2.27-5.5q12.61-.28,25.26,0c4.21.11,5.15,4.21,6.79,7,13,22.16,25.87,44.42,38.79,66.64a18,18,0,0,0,6.11,6.74q0-12,0-24,0-17.37,0-34.75c0-5.08-.61-10.06-3.83-14.21-1.35-1.73-4.72-2.31-3.64-5.34,1.2-3.36,4.46-2.08,6.89-2.16a103.62,103.62,0,0,1,14.21.14c3.89.4,5.3,3.11,1.85,5.69-6,4.48-6,10.76-6,17-.14,23.43-.32,46.87.05,70.3.11,7.11-1.75,9.63-9.26,9.55-15.79-.19-26.08-7.93-33.51-21.09-9.43-16.69-19.15-33.22-28.75-49.81Zm-.9-27.74c-3.7-.38-8.18.69-6.68,6.6,1.22,4.77,3.22,9.25,3.08,14.37-.07,2.36,2.24,3.52,3.79,1.75,6.61-7.59,6.23.29,8.17,3.43,5.64,9.08,4.63,22.62,17.83,26.64.43.13,1.06.75,1,1.09-.86,9.34,7.26,14.85,9.66,22.63,3.45,11.21,17.23,17,25.39,16.79,2.57-.05,6.4.13,5.81-3.37-.51-3.09,1.3-8.1-3.88-9.19-6.22-1.3-9.3-6.06-11.47-11a133.66,133.66,0,0,0-9-16.44,466.9,466.9,0,0,1-24.14-43.16C360.15,233.8,353.66,231.82,344.55,231.77Z"/><path class="cls-1" d="M662.06,330c-7.37,0-14.73,0-22.1,0-2.06,0-4.51.4-5.34-2.19-.65-2,.63-3.36,2.39-4.42,3.36-2,3.79-5.42,3.92-8.93.86-23.67,1-47.34.15-71-.15-4.12-.85-7.85-4.82-10.12a3.28,3.28,0,0,1-1.64-4c.56-1.83,2.32-2,3.9-1.94,16.56.2,33.22-1.48,49.65.89,27.08,3.91,44.39,26.32,43,54.39-1.28,25.41-22.24,45.79-48.57,47-6.82.32-13.67.05-20.51.05Zm6-51.29h.07c0,9.2,0,18.4,0,27.59,0,5.92,1.78,11.29,7.77,13.34,6.28,2.15,12,0,16.38-4.91a27.67,27.67,0,0,0,6-11c4.1-13.91,4-27.95,1.68-42.12-1.1-6.59-3.22-12.76-7.4-18-4-5.07-9.25-8.09-15.85-6.15s-8.41,7.58-8.58,13.65C667.88,260.3,668.07,269.51,668.07,278.7ZM657.6,231.75c-2.89,0-5.79,0-8.68,0-2.72,0-3.88.57-3.81,4.11.46,23.41,0,46.83.91,70.22.23,6-4.65,12.35.48,18,5.53,6.12,12.53,0,18.63,1.89a2.77,2.77,0,0,0,1.54.16c2.65-.87,5.27-1.64,2.69-5.37-2.24-3.22-4.22-6.64-4.54-10.76-1.32-17.29-2.18-34.6-1.45-51.93.25-5.92.67-12,3.48-17.57,1.12-2.22,4.86-3.56,3.32-6.55-1.77-3.45-5.61-1.93-8.62-2.21C660.25,231.65,658.92,231.75,657.6,231.75Zm70.41,47c.11-18.13-17.44-41.18-34.31-44.93-.86-.19-1.89.41-2.84.65.33.92.37,2.24,1,2.7,3.25,2.27,6,4.64,7.86,8.48,7.72,15.89,6.89,32.64,5.06,49.33-.92,8.42-2.53,17.22-10.29,22.94-1.44,1.06-4.85,1.46-2.82,4.36,1.34,1.9,3.75,1.13,5.87.59,6-1.53,9.45-6.52,13.7-10.21C721.47,303.83,727.91,292.79,728,278.78Z"/><path class="cls-1" d="M852.79,305.74c3.25-10.55,6.55-21.09,9.71-31.66,1.18-3.92,3.14-7.8-1.45-11.39-2.35-1.84-1.35-4.74,1.84-5,5-.41,10-.17,15-.13a3,3,0,0,1,3,2.14c.57,1.81-.37,3.06-2,3.78-5.24,2.39-6.3,7.49-7.81,12.19q-9.23,28.68-18.26,57.43c-7.53,23.91-30,39.76-55.89,39.08-4.82-.13-9.75,1.71-14.6-1.12-5.15-3-8.45-7.16-6.42-12.72s7.2-7.12,13-5.78c8.78,2,17.2,5.75,26.73,2.88,8.09-2.44,15.42-6,21.51-11.68,3.69-3.47,4.38-9-.21-11.17-13.84-6.41-13.43-20.15-16.84-31.45-3.25-10.8-6.74-21.54-10-32.34a11.33,11.33,0,0,0-1.89-3.41c-1.44-1.94-5.59-2.34-4.17-5.79s5.06-2,7.76-2.08c8.95-.14,17.9-.07,26.86,0,1.73,0,3.83-.58,5,1.44s-.05,3.38-1.54,4.68c-4.31,3.78-2.32,8.27-1,12.42,3.19,10,6.67,19.94,10,29.91-4.93,1.42-5.13-2.93-6-5.5-4-11.86-7.7-23.81-11.28-35.8-1-3.51-2.74-4.74-6.29-3.76a15.84,15.84,0,0,1-6.17.79c-8.05-1.2-9.85,1.15-6.61,8.91,8.71,20.86,8.89,45.29,27.68,62,4.11,3.66,4.64,2.27,6.45-.37,1.46-2.12,3.29-4.62,3.32-7C852.38,318.79,860.11,312.38,852.79,305.74ZM794.9,369.5c8.82-.14,15.73-2.63,22.5-5.13,5.08-1.87,10.54-3.22,14.74-7,1.2-1.11,2.1-2.47,1-4.1-.76-1.17-1.83-.58-2.74-.07-13.3,7.52-27,7.78-41.2,2.75-3.25-1.15-5.4,1.18-6.72,4-1.41,3,0,4.93,2.63,6.38C788.63,368.21,792.15,369.92,794.9,369.5Z"/><path class="cls-1" d="M604.23,361.32c30.76,0,55.53,24.49,55.43,54.9a55.18,55.18,0,0,1-55.09,55.39c-29.89,0-55-24.85-55.15-54.66C549.26,386.36,573.89,361.36,604.23,361.32ZM555.3,416.09a49.28,49.28,0,1,0,49.41-49A49.31,49.31,0,0,0,555.3,416.09Z"/><path class="cls-1" d="M424.12,155.78c7.32-13.69,2.3-32-10.87-40.93,11,0,22-.06,33.06,0,3.13,0,2.94,1.86,2.15,4.33-3.6,11.29-1.9,22.94-1.24,34.33.27,4.67-1.52,8.57-1.57,12.56-.18,12.4-.53,25,3.19,37.11,1.4,4.54.68,6.51-4.18,6.48-5.25,0-10.51-.12-15.75,0-5.06.15-5.59-1.19-4.66-6.5,2.46-14,6.16-28.33-.11-42.43C424.14,159.13,424.13,157.46,424.12,155.78Z"/><path class="cls-1" d="M740.32,294.76c7.5-9.35,18-10.86,29-11.27,2.47-.1,7,2.12,7.05-2.17.1-5.11-1-10.65-5.91-14-3.57-2.42-6.48-.71-9,2-2.24,2.4-3,5.4-3.84,8.51-1.38,5.41-5.28,8.11-10.62,7-6-1.26-7.68-6-6.67-11.58,1.45-8.05,7.4-12.08,14.46-14.08a50,50,0,0,1,30.37.58c11.68,4.06,17.23,13.54,18.36,25.34.83,8.62.53,17.36.61,26,0,4.32.12,8.28,4.65,10.87,3.63,2.07,1.8,4.23-.81,5.87-7,4.36-20.93,3.38-26.56-2.83-3.11-3.44-4.64-2.45-7.53-.39-9.16,6.52-19.05,7.34-29.11,2.37-12.46-6.15-14.56-22.42-4.39-32.31-.06,1.82.55,4.08-.3,5.38-4.47,6.8-3.32,13,1.71,18.65,5.55,6.24,12.87,7.48,20.76,6.05,2-.36,4.47-.95,5.24-3,1-2.63-1.72-3.38-3.29-4.58-8.86-6.78-9.28-16.71-1.06-24.52,1.16-1.11,2.13-2.45,1.78-4.12-.09-.48-1.43-1.23-1.78-1-4.56,2.42-10.72-.15-14.52,4.72C746.7,295.05,743.61,295.39,740.32,294.76Zm32.74-31.83c11.65,10.84,4.42,24.38,7.69,36.13,1.54,5.56,3.33,12.94-1.42,18.91-.2.25.49,1.8.9,1.86,5.59.86,9.06,6.41,14.87,6.7,4.61.23,7.91-.39,6.39-6.56a44.76,44.76,0,0,1-1-16.27,57.6,57.6,0,0,0-3.09-25.6C794.11,268.38,784.73,262.18,773.06,262.93Zm4.19,40.8c0-2.1-.13-4.21,0-6.3.39-5.18-2.26-5.9-6.31-4.31a23.6,23.6,0,0,0-6.23,3.22c-4.64,3.72-4.78,8.59-2.28,13.49s7.08,7,11.91,5.65c5.24-1.42,1.95-6.71,2.87-10.17A6,6,0,0,0,777.25,303.73Zm-19.33-36.79c0-2.2-.89-3.46-3.31-3.19-2.7.3-10.89,9.3-10.56,11.77s2,3.52,4.37,3.6C751.17,279.23,757.91,270.54,757.92,266.94Z"/><path class="cls-1" d="M589.12,182v13.8a11.2,11.2,0,0,0,1.84,6.74c5.25,7.33,4.42,9.07-5,10.41-7.6,1.08-15,.68-20.26-5.71-2.81-3.42-4.26-1.11-6.32.23-9.22,6-19,7.86-29.1,2.7-12.68-6.45-15.28-22.25-5.49-32.6,8-8.42,18.18-10.94,29.37-11,2.53,0,7,1.94,7.31-1.94.38-5.43-1-11.3-6.19-14.56-3.81-2.4-7.28-.19-9.44,3.08-1.55,2.34-2.28,5.25-3.16,8-1.75,5.44-5.6,7.72-10.92,6.51-5.61-1.28-7.14-5.67-6.5-11a12.56,12.56,0,0,1,3.62-7.73c11-10.56,24.38-9.62,37.82-7.25,11.41,2,17.45,10,20.76,20.38C589.61,169,589,176.14,589.12,182Zm-3.42-1.12c1-14.94-3.49-27.32-18.16-34.57-2.27-1.12-4.44-2.12-6.65-1.13-1.9.85-.71,2.83-.15,4.13,6.26,14.46,5.92,29.61,4.59,44.8-.64,7.29,9,16.88,16,15.49,2.69-.53,3.82-1.86,4.17-4.75C586.52,197,585.78,189.17,585.7,180.92ZM544.2,209.5c3.8.39,6.19-.73,7.42-3.32,1.39-2.92-1.28-4.09-3-5.57-6.65-5.66-7.6-14.56-3-21.72,1.58-2.46,6.25-4.89,4.12-7.61-2.77-3.54-5.89,1.33-9,2a18.27,18.27,0,0,0-4.37,1.76c-18.32,9.74-16.59,19.1-4.53,30.55C535.64,209.26,540.82,207.76,544.2,209.5ZM562.29,187h0q0-3.94,0-7.88c0-2-.3-3.89-2.92-3.58-5.76.69-11,2.63-12.82,8.76a10.52,10.52,0,0,0,3.31,11.45c3,2.61,6.68,4.1,10.19,2.63,4.51-1.88,1.43-6.51,2.27-9.81A6.33,6.33,0,0,0,562.29,187Zm-18.35-39.28c.17-3.08-2.45-3.42-3.56-2.36-3.84,3.69-9.64,5.61-10.76,11.9-.4,2.27-.81,4,1.57,5.37s3.87.39,5.6-1.11C541.06,157.78,541.47,152.17,543.94,147.68Z"/><path class="cls-1" d="M796.87,140.29c23.28,0,34.93,11.39,35.35,34.75.11,6.58.07,13.16.07,19.74,0,4,.17,7.77,4.46,10.12,3.54,1.93,2.15,4.21-.52,5.94-6.8,4.38-20.57,3.39-26.6-2.67-2.92-2.94-4.39-2.81-7.58-.59-8.78,6.11-18.33,7.71-28.3,2.76a20.58,20.58,0,0,1-4.68-34.17c8.31-7.51,18.37-9.68,29.25-9.57,2.2,0,6.37,1.75,6.26-2.3-.15-5.16-1.11-10.65-5.92-14.05-2.67-1.89-5.45-1.65-7.88.71a20,20,0,0,0-5.13,9.61c-1.55,5.75-5.31,8.51-11.2,6.9-6.15-1.68-7.06-6.52-5.88-11.94,1.28-5.89,5.42-9.48,10.6-11.95C784.76,140.92,790.77,140.3,796.87,140.29Zm-6.82,53.14c-5.87-1.33-5.21-5.54-3.95-9.63,1.44-4.65,3.47-9.07,9.13-12.79-11.3-2.53-17.05,4.42-23.81,8.56-5.18,3.19-5.93,8.32-5.31,13.76,1.45,12.88,16.1,17,26.57,14.34,3.56-.9,4.46-3.67,1-6.26-2.74-2-4.6-4.3-3.6-7.95l2.38,2c3.16,2.75,7,4.51,10.86,2.91,4.05-1.68,1.74-6,2.07-9.14s-.09-6.3.07-9.44c.21-4.25-1.92-4.75-5.45-4.05C791.17,177.49,787.91,183.17,790.05,193.43Zm39.1-4.12c0-3.58-.18-6.48,0-9.35,1.16-15.28-6.51-25.65-18.48-33.7-2.36-1.59-5.18-2.46-7.22-.44-1.8,1.76.3,3.93,1.47,5.5,2.45,3.29,4.72,7,3.37,10.88-2.13,6.17-.67,12,.72,17.72a43,43,0,0,1,.6,17.15c-.56,3.39-.39,6.25,2.75,7.11,5.06,1.39,8.72,7.8,15,4.49,1.88-1,3.37-2.67,2.59-5.17C828.47,198.6,829.52,193.58,829.15,189.31Zm-37.47-42.68c-7.08-2.09-17.58,2.6-19.07,7.65-1.16,3.94-.11,7.59,4,9,3.82,1.33,4.72-2,5.58-4.8C783.64,153.61,784.83,148.53,791.68,146.63Z"/><path class="cls-1" d="M480.8,319.16c-10.71-5.2-12.86-15.24-12.94-25.42C467.68,269.09,490,250,519,260.11c6.72,2.34,11.54,7.5,11.8,15.35.16,4.76-2,8.26-6.86,9.23-5.1,1-8.93-1.09-10.44-6.08-1.87-6.19-3.35-13.62-11.68-12-7.69,1.54-7.41,9.35-7.83,15.55a46.35,46.35,0,0,0,5,25.27c5.43,10.26,14.8,11.73,23.25,3.77,2-1.86,3.79-5.64,7-3.18s.86,5.86-.79,8.5c-9.73,15.46-38,17.06-47.49,2.73a12.91,12.91,0,0,1,10.44,1.86c5.51,3.67,11.59,3,17.71,1.4a3.91,3.91,0,0,0-3.54-3.44c-7.89-1.23-11.39-6.31-12.87-13.65-2.17-10.78-6.88-21.31-1.89-32.58.68-1.54,1.15-4.5-1.43-5.47-1.88-.71-3.36.91-4.72,2.18-5.27,4.9-9.84,11.19-10.85,17.65-1.06,6.74-3.95,15.14,4.1,21.36C479.67,310,482.5,314.9,480.8,319.16Z"/><path class="cls-1" d="M544.32,269.39a33.92,33.92,0,0,1,38.47-9.65c11.91,4.86,20.36,20,19.17,33.51-.37,4.19-2.7,4.46-5.81,4.45-9.2,0-18.41.25-27.6-.13-6.55-.26-6.94,2.45-4.9,7.54,4.72,11.79,17.15,14.67,26.77,6.14,2.19-1.94,4.19-6.06,7.67-3,3.84,3.39.59,6.73-1.63,9.58-8.22,10.52-22.27,14-37.29,9.41-13.3-4.07-23.23-15.83-24.23-29.15-.81-10.78.48-21,9.38-28.69a14.71,14.71,0,0,1-2.12,10.45c-5.78,9.76-4.28,24.83,3.09,32.33,2.88,2.94,6.85,4.78,10,7.52,6.31,5.54,16.4,6.77,24.6,2.5-1.32-2.22-3.7-1.65-5.57-2.27-12-4-16.48-12.85-13.15-25.3.5-1.88-.13-4.07-.23-6.12a52.38,52.38,0,0,0,14.9-.09c.29,3.58,2.05,6.49,5.71,6.28a111.52,111.52,0,0,0,16.07-2.57c.39-.08.79-2.56.4-3.64-3.12-8.6-5.56-17.6-13.2-23.72-1.84-1.47-3.4-3.63-6.14-2.28-3.09,1.52-1.54,4-1,6.19a46.28,46.28,0,0,1,1.75,14.81c-.19,2.4.09,5-3.52,4.83-.48-5.49-.8-11-1.49-16.48-.33-2.62-1.35-5.37-4.54-5.67-3-.29-4.78,1.84-5.94,4.36-2.58,5.62-2.67,11.72-3.17,17.73-3.7.16-3.6-2.59-3.27-4.85a91.7,91.7,0,0,1,2.64-12.13c.54-1.87,3-3.62.66-5.46a5.18,5.18,0,0,0-6.57.29C551.25,268.55,548.38,270.59,544.32,269.39Z"/><path class="cls-1" d="M852.79,305.74c7.32,6.64-.41,13.05-.48,19.58,0,2.36-1.86,4.86-3.32,7-1.81,2.64-2.34,4-6.45.37-18.79-16.75-19-41.18-27.68-62-3.24-7.76-1.44-10.11,6.61-8.91a15.84,15.84,0,0,0,6.17-.79c3.55-1,5.24.25,6.29,3.76,3.58,12,7.3,23.94,11.28,35.8.86,2.57,1.06,6.92,6,5.5Z"/><path class="cls-1" d="M695.27,195.1c11.48,6.42,14.55,6.12,24.41-2.55,1.79-1.58,3.5-3.69,6.1-2,3.09,2,1.36,4.77.27,7-7.72,15.82-32.13,19.68-48.91,7.81-13.64-9.63-18.55-28-11.72-43.67a34.75,34.75,0,0,1,40.06-20.46c15.3,3.46,26.28,19.55,24.35,35.19-.52,4.24-3.08,4.26-6.08,4.25-8.69,0-17.37,0-26.06-.17-8.23-.13-9.14,1.26-5.48,8.92.91,1.89,2,3.7,2.94,5.54-5.82,1.36-5.89-3.49-6.42-6.68-2.41-14.48-7-29.21,5.17-44-15.59,2.27-22.25,12.84-26.47,22.47-4.59,10.49-.87,22.15,7.61,31.11,9.59,10.12,26.89,13.1,37.87,7-1.54-3-4.31-1.68-6.61-2.27C702,201.46,694.73,203.63,695.27,195.1ZM700.76,150c4-.37,4.79,2.09,5.12,5.34a93.2,93.2,0,0,1,.06,21.19c3.57,0,6.8-.49,9.81.1,9.14,1.75,11.22-6.07,8.91-13.19-2.58-7.92-9.12-11.9-14.78-16.78-5.35-4.62-7.2-3.82-9.12,3.34-7.81-.68-9.92,2.2-11.59,13.63-1,6.72,1.12,9,7.83,8.47,4.14-.31,6.4-1,6.09-5.79C702.72,160.77,703,155.21,700.76,150Z"/><path class="cls-1" d="M637.68,188.11c3.61-11.7,7.29-23.38,10.77-35.12.74-2.48.88-4.83-1.84-7-3.52-2.79-2-5.18,1.94-5.52,4.44-.39,8.94-.08,13.41-.07,1.69,0,3.16.43,3.65,2.27a2.84,2.84,0,0,1-1.49,3.34c-6.24,3.48-7.35,9.88-9.2,15.88-4.56,14.84-9.27,29.63-13.61,44.52-1.31,4.5-3.43,6.16-8.26,6.18-18.22.06-18.23.26-23.82-17.15-3.94-12.27-7.79-24.57-11.81-36.81-1.53-4.66-2.12-9.92-7.26-12.58a2.92,2.92,0,0,1-1.34-3.41c.39-2,2-2.27,3.59-2.27,10.78,0,21.58-.13,32.36.08,4.28.08,6.48,2.21,2.42,5.7-3,2.59-3.1,5.66-2.22,8.56,3.43,11.22,7.28,22.32,11,33.46ZM627.75,208c4.19-.43,9.69,2,11.15-5.11,1.28-6.18,1.5-11.44-6.1-13.72a6,6,0,0,1-4.21-4.33c-2.62-11.44-6.09-22.75-7.72-34.32-.81-5.77-4.24-6.35-7.74-6.7-4.76-.48-10-.56-13.61,3.65-1.15,1.33-.44,2.81.26,4.36,6.54,14.59,8.7,30.53,13.91,45.59C616.45,205.44,619.17,209.47,627.75,208Z"/><path class="cls-1" d="M462.32,286.5c0,7.88-.28,15.78.1,23.65.24,4.88.47,10.15,5.64,13.11,1.49.85,2.36,2.24,1.76,4s-2.16,2.23-3.81,2.23c-10.78,0-21.56,0-32.34,0-1.65,0-3.34-.35-4-2-1-2.55,1.22-3.51,2.7-5,7.86-8,7.33-45-.79-52.82-1.44-1.39-2.76-2.47-2-4.55.66-1.89,2.44-1.79,4-1.72,7.74.39,15-1.72,22.19-4.19,5.4-1.85,7.27-.29,7.11,5.22-.21,7.35,0,14.72,0,22.07Zm-13.26,38.61a34.5,34.5,0,0,1,3.94,0c6.19.73,8.17-.94,6.65-7.81-1.91-8.61-2.86-17.62-1.72-26.51.62-4.93,1.83-9.78,1.32-14.8-1.08-10.79-1.09-10.77-11.65-9.51a25.76,25.76,0,0,1-3.93,0c-3.37-.12-4.4.91-3.85,4.68,1.29,8.78.64,17.69,1.7,26.59a46.41,46.41,0,0,1-2.5,21.5c-2.24,5.75-.33,5.69,3.75,5.78C444.87,325.14,447,325.1,449.06,325.11Z"/><path class="cls-1" d="M454.74,255.87l-1.5.93c-3.87-6.34-8.9.37-13.2-1.18a1.28,1.28,0,0,1-1.17-.75c0-3.32-1.27-5.52-4.92-5.67-2.73-5.32-2.81-10.18,1.79-14.76,5.54-5.52,11.91-6.21,18.47-3,5.69,2.81,9.38,7.37,7.53,14.45C458.3,248.46,455.22,251.26,454.74,255.87Z"/><path class="cls-1" d="M440,255.62c4.3,1.55,9.33-5.16,13.2,1.18C448.58,259.26,444.14,259.36,440,255.62Z"/><path class="cls-1" d="M454.74,255.87c.48-4.61,3.56-7.41,7-10C461.59,250.78,459.33,254.15,454.74,255.87Z"/><path class="cls-1" d="M434,249.2c3.65.15,4.93,2.35,4.92,5.67A6.71,6.71,0,0,1,434,249.2Z"/><path class="cls-1" d="M493.31,209.71c-10.63,0-9.26,0-9.33-10-.08-12.94,3.44-25.7.38-39-1.41-6.12.27-13.64.76-20.4a78,78,0,0,0-1.77-22.29c-.6-2.76-.11-3.25,2.24-3.26,2.62,0,5.25,0,7.88,0,12.21.19,13.21,1.12,11.72,13.08-3,24.32-.39,48.63.37,72.91.25,7.7-2,9.18-8.31,8.93C495.94,209.67,494.63,209.71,493.31,209.71Z"/><path class="cls-1" d="M374,146.49c-.37-7.56,2.8-13.26,6.23-18.87.79-1.3,1.63-3.21,3.47-2.37,2.16,1,1.09,3.06.82,4.83-.46,3-5.85,4.38-3.26,8,3.41,4.75,4.26,10.9,10.05,14.58,3.79,2.41,6.06,1.49,9.12.28,7.06-2.78,16.07-1,17.56,3.47s-5.55,12.28-12.37,14C390.08,174.47,374,162,374,146.49Z"/><path class="cls-1" d="M344.55,231.77c9.11,0,15.6,2,19.58,10.16a466.9,466.9,0,0,0,24.14,43.16,133.66,133.66,0,0,1,9,16.44c2.17,4.92,5.25,9.68,11.47,11,5.18,1.09,3.37,6.1,3.88,9.19.59,3.5-3.24,3.32-5.81,3.37-8.16.16-21.94-5.58-25.39-16.79-2.4-7.78-10.52-13.29-9.66-22.63,0-.34-.6-1-1-1.09-13.2-4-12.19-17.56-17.83-26.64-1.94-3.14-1.56-11-8.17-3.43-1.55,1.77-3.86.61-3.79-1.75.14-5.12-1.86-9.6-3.08-14.37C336.37,232.46,340.85,231.39,344.55,231.77Z"/><path class="cls-1" d="M657.6,231.75c1.32,0,2.65-.1,3.95,0,3,.28,6.85-1.24,8.62,2.21,1.54,3-2.2,4.33-3.32,6.55-2.81,5.54-3.23,11.65-3.48,17.57-.73,17.33.13,34.64,1.45,51.93.32,4.12,2.3,7.54,4.54,10.76,2.58,3.73,0,4.5-2.69,5.37a2.77,2.77,0,0,1-1.54-.16c-6.1-1.89-13.1,4.23-18.63-1.89-5.13-5.68-.25-12-.48-18-.86-23.39-.45-46.81-.91-70.22-.07-3.54,1.09-4.09,3.81-4.11C651.81,231.73,654.71,231.75,657.6,231.75Z"/><path class="cls-1" d="M728,278.78c-.11,14-6.55,25.05-16.75,33.91-4.25,3.69-7.72,8.68-13.7,10.21-2.12.54-4.53,1.31-5.87-.59-2-2.9,1.38-3.3,2.82-4.36,7.76-5.72,9.37-14.52,10.29-22.94,1.83-16.69,2.66-33.44-5.06-49.33-1.86-3.84-4.61-6.21-7.86-8.48-.66-.46-.7-1.78-1-2.7.95-.24,2-.84,2.84-.65C710.57,237.6,728.12,260.65,728,278.78Z"/><path class="cls-1" d="M794.9,369.5c-2.75.42-6.27-1.29-9.76-3.2-2.65-1.45-4-3.36-2.63-6.38,1.32-2.82,3.47-5.15,6.72-4,14.18,5,27.9,4.77,41.2-2.75.91-.51,2-1.1,2.74.07,1.07,1.63.17,3-1,4.1-4.2,3.81-9.66,5.16-14.74,7C810.63,366.87,803.72,369.36,794.9,369.5Z"/><path class="cls-1" d="M773.06,262.93c11.67-.75,21.05,5.45,24.38,15.17a57.6,57.6,0,0,1,3.09,25.6,44.76,44.76,0,0,0,1,16.27c1.52,6.17-1.78,6.79-6.39,6.56-5.81-.29-9.28-5.84-14.87-6.7-.41-.06-1.1-1.61-.9-1.86,4.75-6,3-13.35,1.42-18.91C777.48,287.31,784.71,273.77,773.06,262.93Z"/><path class="cls-1" d="M740.32,294.76c3.29.63,6.38.29,8.57-2.52,3.8-4.87,10-2.3,14.52-4.72.35-.19,1.69.56,1.78,1,.35,1.67-.62,3-1.78,4.12-8.22,7.81-7.8,17.74,1.06,24.52,1.57,1.2,4.27,1.95,3.29,4.58-.77,2.08-3.23,2.67-5.24,3-7.89,1.43-15.21.19-20.76-6.05-5-5.65-6.18-11.85-1.71-18.65.85-1.3.24-3.56.3-5.38l.26.3Z"/><path class="cls-1" d="M757.91,266.94c0,3.6-6.74,12.29-9.49,12.18-2.35-.08-4-1.13-4.37-3.6s7.86-11.47,10.56-11.77C757,263.48,757.92,264.74,757.91,266.94Z"/><path class="cls-1" d="M585.7,180.92c.08,8.25.82,16.1-.15,24-.35,2.89-1.48,4.22-4.17,4.75-7.08,1.39-16.69-8.2-16-15.49,1.33-15.19,1.67-30.34-4.59-44.8-.56-1.3-1.75-3.28.15-4.13,2.21-1,4.38,0,6.65,1.13C582.21,153.6,586.74,166,585.7,180.92Z"/><path class="cls-1" d="M544.2,209.5c-3.38-1.74-8.56-.24-12.39-3.88-12.06-11.45-13.79-20.81,4.53-30.55a18.27,18.27,0,0,1,4.37-1.76c3.11-.7,6.23-5.57,9-2,2.13,2.72-2.54,5.15-4.12,7.61-4.6,7.16-3.65,16.06,3,21.72,1.75,1.48,4.42,2.65,3,5.57C550.39,208.77,548,209.89,544.2,209.5Z"/><path class="cls-1" d="M543.94,147.68c-2.47,4.49-2.88,10.1-7.15,13.8-1.73,1.5-3.28,2.45-5.6,1.11s-2-3.1-1.57-5.37c1.12-6.29,6.92-8.21,10.76-11.9C541.49,144.26,544.11,144.6,543.94,147.68Z"/><path class="cls-1" d="M829.15,189.31c.37,4.27-.68,9.29.86,14.19.78,2.5-.71,4.19-2.59,5.17-6.3,3.31-10-3.1-15-4.49-3.14-.86-3.31-3.72-2.75-7.11a43,43,0,0,0-.6-17.15c-1.39-5.74-2.85-11.55-.72-17.72,1.35-3.92-.92-7.59-3.37-10.88-1.17-1.57-3.27-3.74-1.47-5.5,2-2,4.86-1.15,7.22.44,12,8.05,19.64,18.42,18.48,33.7C829,182.83,829.15,185.73,829.15,189.31Z"/><path class="cls-1" d="M790.05,193.46c-1,3.65.85,5.92,3.59,7.95,3.5,2.59,2.6,5.36-1,6.26-10.47,2.65-25.12-1.46-26.57-14.34-.62-5.44.13-10.57,5.31-13.76,6.76-4.14,12.51-11.09,23.81-8.56-5.66,3.72-7.69,8.14-9.13,12.79-1.26,4.09-1.92,8.3,3.95,9.63Z"/><path class="cls-1" d="M791.68,146.63c-6.85,1.9-8,7-9.52,11.85-.86,2.83-1.76,6.13-5.58,4.8-4.08-1.41-5.13-5.06-4-9C774.1,149.23,784.6,144.54,791.68,146.63Z"/><path class="cls-1" d="M480.8,319.16c1.7-4.26-1.13-9.16-2.93-10.56-8.05-6.22-5.16-14.62-4.1-21.36,1-6.46,5.58-12.75,10.85-17.65,1.36-1.27,2.84-2.89,4.72-2.18,2.58,1,2.11,3.93,1.43,5.47-5,11.27-.28,21.8,1.89,32.58,1.48,7.34,5,12.42,12.87,13.65a3.91,3.91,0,0,1,3.54,3.44c-6.12,1.62-12.2,2.27-17.71-1.4a12.91,12.91,0,0,0-10.44-1.86Z"/><path class="cls-1" d="M560.9,288.5c.1,2.05.73,4.24.23,6.12-3.33,12.45,1.19,21.33,13.15,25.3,1.87.62,4.25.05,5.57,2.27-8.2,4.27-18.29,3-24.6-2.5-3.11-2.74-7.08-4.58-10-7.52-7.37-7.5-8.87-22.57-3.09-32.33a14.71,14.71,0,0,0,2.12-10.45c4.06,1.2,6.93-.84,9.87-3.29a5.18,5.18,0,0,1,6.57-.29c2.32,1.84-.12,3.59-.66,5.46a91.7,91.7,0,0,0-2.64,12.13c-.33,2.26-.43,5,3.27,4.85Z"/><path class="cls-1" d="M575.87,288.31c3.61.16,3.33-2.43,3.52-4.83a46.28,46.28,0,0,0-1.75-14.81c-.54-2.2-2.09-4.67,1-6.19,2.74-1.35,4.3.81,6.14,2.28,7.64,6.12,10.08,15.12,13.2,23.72.39,1.08,0,3.56-.4,3.64a111.52,111.52,0,0,1-16.07,2.57c-3.66.21-5.42-2.7-5.71-6.28Z"/><path class="cls-1" d="M695.27,195.1c-.54,8.53,6.74,6.36,11,7.47,2.3.59,5.07-.71,6.61,2.27-11,6.12-28.28,3.14-37.87-7-8.48-9-12.2-20.62-7.61-31.11,4.22-9.63,10.88-20.2,26.47-22.47-12.18,14.81-7.58,29.54-5.17,44,.53,3.19.6,8,6.42,6.68Z"/><path class="cls-1" d="M700.76,150c1.92-7.16,3.77-8,9.12-3.34,5.66,4.88,12.2,8.86,14.78,16.78,2.31,7.12.23,14.94-8.91,13.19-3-.59-6.24-.1-9.81-.1a93.2,93.2,0,0,0-.06-21.19C705.55,152.06,704.72,149.6,700.76,150Z"/><path class="cls-1" d="M627.75,208c-8.58,1.43-11.3-2.6-14.06-10.58-5.21-15.06-7.37-31-13.91-45.59-.7-1.55-1.41-3-.26-4.36,3.66-4.21,8.85-4.13,13.61-3.65,3.5.35,6.93.93,7.74,6.7,1.63,11.57,5.1,22.88,7.72,34.32a6,6,0,0,0,4.21,4.33c7.6,2.28,7.38,7.54,6.1,13.72C637.44,210,631.94,207.61,627.75,208Z"/><path class="cls-1" d="M449.06,325.1c-2.09,0-4.19,0-6.29,0-4.08-.09-6,0-3.75-5.78a46.41,46.41,0,0,0,2.5-21.5c-1.06-8.9-.41-17.81-1.7-26.59-.55-3.77.48-4.8,3.85-4.68a25.76,25.76,0,0,0,3.93,0c10.56-1.26,10.57-1.28,11.65,9.51.51,5-.7,9.87-1.32,14.8-1.14,8.89-.19,17.9,1.72,26.51,1.52,6.87-.46,8.54-6.65,7.81A37,37,0,0,0,449.06,325.1Z"/><path class="cls-1" d="M604.73,449.94c-12.05-.5-21.4-5.61-28.26-15.22-1.19-1.67-2.61-3.87-.35-5.61s3.59.39,5,2c15.54,18.18,31.79,18,47.38-.51,1.38-1.64,2.69-3.89,5-2.13s.57,4-.48,5.66C626.4,444.56,616.56,449.23,604.73,449.94Z"/><path class="cls-1" d="M598.19,403.31c-.81,4.91-1,11.17-7.52,11-6-.12-6.6-6-6.6-10.8,0-5,.57-11.27,7.1-11.11C596.86,392.58,597.43,398.54,598.19,403.31Z"/><path class="cls-1" d="M612.92,396.31c.55-3,2.41-4.65,5.4-4.46s4.41,2.47,5.48,4.95a12,12,0,0,1,.63,2.24c1.16,5.06.91,9.87-3,13.78-1.9,1.91-4.36,2.15-6.34.35-4-3.67-5.13-8.24-3.27-13.43a42,42,0,0,0,1.67,4.43c1,1.9.27,5.3,3.77,5.06a4.58,4.58,0,0,0,4.46-3.84c.41-2.77,1.17-5.8-2-7.82C617.63,396.18,615.28,396.27,612.92,396.31Z"/><path class="cls-1" d="M612.92,396.31c2.36,0,4.71-.13,6.85,1.26,3.14,2,2.38,5.05,2,7.82a4.58,4.58,0,0,1-4.46,3.84c-3.5.24-2.81-3.16-3.77-5.06a42,42,0,0,1-1.67-4.43Z"/><rect class="cls-2" width="1209" height="582.11"/></g></g></svg>