<svg xmlns="http://www.w3.org/2000/svg" viewBox="0 0 1209 582.11"><defs><style>.cls-1{fill:#463f3a;}.cls-2{fill:none;}</style></defs><g id="Capa_2" data-name="Capa 2"><g id="Capa_1-2" data-name="Capa 1"><path class="cls-1" d="M506.66,435.64c11.51.85,19.41-6.07,27.61-12.5,5.23-4.1,8.81-9.78,13.89-14,5.77-4.76,12.11-8.91,19.58-9.79,10.65-1.26,17.3,5.7,23.44,13.11,8.45,10.2,8.89,22.28,8.11,34.59a246.88,246.88,0,0,0,.05,34.83c0,.56.23,1.1.25,1.66.24,4.67.21,9.74,5.68,11.51a15.49,15.49,0,0,0,17.84-5.93c4.22-6.26,6.37-13.37,7.84-20.68,2.67-13.23,5.23-26.55,14.3-37.22,5-5.94,9.17-12.74,15.75-17.34,11.2-7.82,22.9-8.24,35.42-3.38,13,5,22.57,14.36,32.17,23.79A30.19,30.19,0,0,0,745.43,443c7.71,1.27,13.44-1.91,19.29-6.11,9.44-6.76,12.55-16.42,14.45-27.28,1.68-9.61,4.33-19.2,12.45-26a33.54,33.54,0,0,1,16-7.82c1-.16,2-.36,2.76.47,1,1,.43,2.09-.1,3.1A15.61,15.61,0,0,1,809,381.5c-4.53,5.82-5.2,12.59-5.74,19.7-1,13.24,1.12,26.76-2.45,39.69-4,14.49-10.08,28.43-23.57,36.48-12.71,7.6-26.83,8.07-40.9,3.18-9.27-3.22-16-9.55-21.07-17.82a78,78,0,0,0-8.58-10.86c-8.41-9.47-27.3-7.59-33,5.73-1.78,4.11-3.89,8.08-5.67,12.19-8,18.35-21.21,32.07-37.61,43-4.43,2.94-9.77,3.15-14.87,4a61,61,0,0,1-17.11.91c-17-1.92-24.18-13.88-29.2-28.1-1.1-3.1-.66-6.4-.13-9.58a177.22,177.22,0,0,1,8.15-31.24,40.1,40.1,0,0,0,2.07-9.82c.4-4.09-.8-7.77-4.8-9.95-4.32-2.36-8.57-2.4-12.71.29a21.2,21.2,0,0,0-6.33,7.16,69.48,69.48,0,0,1-30,27.31c-10.36,4.9-21.71,4.69-33,2.7-8.53-1.5-17.23-2.11-24.72-7.29-11.42-7.89-18.08-18.38-18.68-32.45a68.55,68.55,0,0,0-.85-9.17c-1.83-10.24,4.47-17.37,9.1-25.3,4.91-8.43,8.15-17.53,3.16-27.08-4.32-8.26-12.15-12.26-20.75-14.47-10.79-2.77-18.61-8.68-22.85-19.15a15,15,0,0,1-1.36-6.07c.24-10.76,0-21.51,5.79-31.37,8.15-13.91,19.26-23.63,35.59-26,8.25-1.2,16,1.63,23.45,4.93,2.58,1.16,4,3.95,4.89,6.64q2.34,6.74,4.38,13.57c1.85,6.17,4.84,8.74,11.34,8.21s13.07-1.85,18.54-6c3.41-2.58,5.76-5.79,5.21-10.35-.48-4-2.68-6.21-6.45-5.13-12,3.46-18.56-6.24-18.72-16.86,0-2.1,0-4.2,0-6.31,0-3.71.26-7.53-4.93-8.07-.74-.08-1.37-.55-1.25-1.39a2,2,0,0,1,1.66-1.71c5.28-.55,10.55-1.62,15.87-1,2.5.3,2.3,2.6,2.25,4.34a14.33,14.33,0,0,0,2,8c1,1.72,2.46,2.8,4.5,2.33,1.88-.44,1.87-2.12,2-3.71,1-11.17,1-11.14,12.15-13.14,3.85-.7,7.65-1.7,11.51-2.31,1.55-.25,3.56-.57,4.38,1.5s-.56,3.08-1.9,4.22c-7.26,6.2-8.22,10.7-4.44,19.57a136,136,0,0,1,7.78,23c3.61,15.64-8.67,31.3-22.89,33.89-7.42,1.35-14.76,3.19-22.34,3.69-11.55.77-30.29-5.45-36-19.29-2.6-6.29-7.56-7.82-13.56-7.56-7.5.33-13.44,8.44-11.86,15.78,2.06,9.62,8.82,14.38,17.38,17.65,7.77,3,16.42,4.26,22.53,10.61,5.56,5.78,8.81,12.61,7.88,20.87-.46,4.06.76,8.08,0,12.13-1.06,5.49-3.88,10.23-6.68,14.87-5.79,9.65-5.56,28.41,2.91,38.53a15.38,15.38,0,0,0,9.42,5.13C500.77,435.31,503.73,435.38,506.66,435.64Z"/><path class="cls-1" d="M725.36,197.19a56.82,56.82,0,0,1,19.57,2.25c7.73,2.46,11,8.12,11.88,15.2.84,6.71-2.93,11.75-8.29,15.5-2.41,1.68-5.1,3-7.45,4.7a7.22,7.22,0,0,0-2.93,8.11c.92,3.68,3.32,5.45,6.9,5.63a63.22,63.22,0,0,0,10.92,0c5.56-.7,10-3.88,11.48-9.23,3.09-11.26,5.42-22.67-.12-34a32.6,32.6,0,0,0-4.23-6.22A101.88,101.88,0,0,0,746.61,183c-3.66-2.86-7.78-3.92-12.46-4.19-9.38-.52-18.21,1-27.25,3.63-10.95,3.19-22.44,2.63-33.61.15-7.72-1.72-12.78-6.54-14.82-14.44A121.35,121.35,0,0,1,655.12,153c-.49-3.95-2.5-7.2-6.63-8.43A32.09,32.09,0,0,0,635.77,143c-5.52.53-11.16-.1-16.73-.47-2.79-.18-5.38,1.07-8.31.31-5.41-1.41-9.29-5.08-13.46-8.31-11.51-8.92-20.07-20.64-29.44-31.56-3.61-4.21-7.9-6.67-13.18-5.6-6.19,1.26-11.84,4-13.6,11a52.54,52.54,0,0,0-2,13.65c.13,9.7-9.9,24.68-18.88,27.92-11.19,4-21.7,3.24-30.46-5.89-5.52-5.77-11.12-11.46-16.48-17.38-9.19-10.13-20.65-12.61-33.64-10.61a89.76,89.76,0,0,0-9.48,1.74c-2.69.72-4.35-1-5.42-3s1-3,2.27-3.87c9-6.31,18.13-12,29.65-12.73a38.59,38.59,0,0,1,23.13,5.91,92.46,92.46,0,0,1,14.39,11.57,14.87,14.87,0,0,0,7.65,4.1c4.6.81,8.46-1,10.28-5.21,3-7.09,5.88-14.24,8.69-21.42,3.35-8.58,11-13.66,16.58-20.38a3.77,3.77,0,0,1,2.29-.89c8.06-1,16-2,23.82,1.92,9.11,4.6,16.85,10.21,22.94,18.89a132.46,132.46,0,0,0,17.17,20c7.79,7.35,18.06,8.46,28.41,6.71a100.32,100.32,0,0,0,18.5-5.2c16.11-6,33.35,6.17,33.52,23.2.12,10.78,3.77,14.14,14.37,14.56,8,.31,15.35-2.49,23-4,13-2.55,25.57-1.37,37.67,4.31,4.83,2.27,8.18,6.26,12.14,9.57,14.06,11.76,21.67,27.11,24.12,44.82,2.06,15,.27,29.79-4.6,44.29-2.79,8.28-7.22,15.37-12.38,22.22-7.53,10-18.05,10.43-29.15,9.61S732,276,728.86,265.73c-1.44-4.77-3.16-9.64-7-13.28-3-2.87-5.09-2.66-7.6.7a11.29,11.29,0,0,0-2.49,7c.15,6.14-.54,12.3.58,18.45.85,4.67-1.2,6.73-5.87,7.47-7.47,1.19-15,1.74-22.53,2.32-4.18.33-5.27-.85-3.33-4.6,3.14-6.1,7.17-11.77,9.9-18,6.49-14.85,7.16-30,.76-45.19-1.26-3-3.46-4.59-7-4.13s-5-1.42-5.17-4.88.59-5.85,4.32-6.45a44.07,44.07,0,0,1,5-.58,39.68,39.68,0,0,0,16.3-4.61C711.08,196.79,718.13,197,725.36,197.19ZM707.5,221.66c0,2.38-.07,4.76,0,7.13.12,3.31,2,4.44,5.05,3.59,8-2.18,15.6-5.08,22.27-10.15,2.64-2,4.82-4.23,3.51-7.69s-3.83-5.67-8-5.41-8.32.14-12.51.73C707.65,211.3,707.35,211.42,707.5,221.66Z"/><path class="cls-1" d="M577.79,380a37.44,37.44,0,0,0-.68-13.29c-.7-2.67-1.91-3.08-4.22-2.2a10.06,10.06,0,0,0-5.7,5.84,42.85,42.85,0,0,0-2.05,6.39c-.77,3.17-2.75,4.23-5.86,4.09s-5-1.63-5.3-4.78c-.23-2.5-.35-5-.4-7.53-.06-2.19-.07-4.44-2.78-5s-3.75,1.61-4.6,3.49a70.29,70.29,0,0,0-5.43,18.91c-.87,5.8-4.12,9.32-10.18,9.71-6.69.44-13.43.31-20.14.21-2.51,0-4-1.42-4.16-4.27-.22-3.3.53-6.43,1.18-9.55,4-19.38,13.61-35.32,29.55-47.34a61.79,61.79,0,0,0,12.72-12.76c2.67-3.65,3.93-7.54,1.69-12.16-1.83-3.75-.78-5.34,3.17-6.4,5-1.33,10-2.83,15.23-1.79,4.44.88,5.59,2.41,4.47,6.77a103.32,103.32,0,0,1-4.12,11.9,18.57,18.57,0,0,0-1.57,8.18c.28,3.59,2.63,4.84,5.83,3.18,4.4-2.28,6.43-6.11,6.76-10.89.44-6.37,4-11.31,7.71-16,3-3.72,7.87-2.2,11.88-2.83,2.66-.42,6.22-1.53,8.2,1.47s-.83,5.5-2.06,8c-2.62,5.33-3.78,10.91-2.42,16.7.74,3.13-.14,6.11,0,9.17.35,6.71,1.11,13.36,1.82,20,.87,8.25-.06,16.55-1.72,24.62-1.89,9.16-15.48,15.06-23.55,8.08C578.05,387.36,577.5,383.76,577.79,380Z"/><path class="cls-1" d="M821.07,167.59c.27,18-2.14,31.21-7.88,43.76-.63,1.37-1.16,3.33-2.93,3.15-2-.21-1.7-2.35-1.81-3.77-1.18-15.34-6.23-29.72-12.8-43.28-6.68-13.8-16.24-25.77-32.39-29.64-9.89-2.38-12.61-14-9.74-21.67.69-1.83,1.24-3.73,2.06-5.5,2.83-6.16,1.36-11.68-2.16-17-2.77-4.21-5.38-8.52-8-12.81A11.81,11.81,0,0,1,744,71.51q1.56-6.6,8.21-7.12a45.47,45.47,0,0,1,16.11,1.1c13.59,3.76,24.24,11.45,31.75,23.25,10.47,16.44,18.21,34,19.46,53.78C820.09,152.28,820.71,162.05,821.07,167.59Z"/><path class="cls-1" d="M669.33,389.17c-3.54.54-7.22-.65-11-.95s-5.65-2.08-5.61-6.31c.09-8.62,2.42-16.85,3.72-25.26a246,246,0,0,0,3-27.87c.23-5.8-1.67-10.76-7-13.89-3.15-1.86-3.65-4.74-3.18-8s3.28-3.7,5.64-4.15c6.58-1.26,13.2-2.31,19.84-3.2,3.93-.52,6.37,2.31,5.68,6.28a55.93,55.93,0,0,1-1.48,5.69c-2.27,7.88,7,15.52,13.31,15.52,2.33,0,3.18-1.21,3.32-3.39a27.34,27.34,0,0,0-1.32-9.51,22.56,22.56,0,0,1-1.09-4.89c-.58-9.05,1.89-11.78,10.93-11.62,5.62.1,11.17-.75,16.75-.8s6.22,1.4,4.55,6.59c-4.19,13-6.18,26.19-4.11,40,1.69,11.26,3.36,22.68,1.31,34.17-1.4,7.85-3,9.15-10.77,8.46-2.51-.23-5-.15-7.57-.18a9.47,9.47,0,0,1-9.15-6.21c-2.36-5.51-5.08-10.94-5.6-17.07a5.8,5.8,0,0,0-.25-1.24c-.83-2.48-1.21-5.79-4.54-5.74-2.85,0-3.32,3.11-3.89,5.34a50.78,50.78,0,0,0-1.71,16.62,36.49,36.49,0,0,1-.64,8.32c-.32,2-1.92,3.07-3.9,3.25C673,389.28,671.3,389.17,669.33,389.17Z"/><path class="cls-1" d="M749,294.79c8.26-.36,17.82.76,27.31,2.73,12.15,2.52,17.91,8.16,19.22,20.4a75.22,75.22,0,0,1-1.83,26.67c-2.44,9.63-9,16.49-15.44,23.52-9.57,10.38-22.71,12.78-35.26,16.36-4.14,1.19-9.47,2-12.5-2.23-2.65-3.71-1.39-8.57,1-11.9,4.63-6.38,4.89-13.6,5.25-20.79.58-11.56.51-23.15,1-34.72a10.62,10.62,0,0,0-4.54-9.75c-1.92-1.43-4.47-2.87-3.24-6.09s3.94-4.16,7.08-4.19C740.5,294.76,744,294.79,749,294.79ZM763.68,317c-9.73-.66-9.73-.66-9.92,9,0,.7-.09,1.41-.06,2.1.41,8.68-.76,17.31-.75,26,0,2.1-.06,4.9,3.32,3.47,5.14-2.18,10.37-4.51,13.51-9.49a82.06,82.06,0,0,0,8.61-18.61c2-6.16-2.4-11.95-8.83-12.42C767.61,316.84,765.64,317,763.68,317Z"/><path class="cls-1" d="M465.18,171c12.35.41,20.78.92,28.72-2.74a6.29,6.29,0,0,1,1.63-.41c6.38-1.05,7.57-.06,7.28,6.35a28.07,28.07,0,0,1-1.92,10.24c-3.18,7.25-5.25,8.59-13,6.68-5.56-1.38-11.09-1.19-16.68-1.35-3.73-.1-5.73,1.84-6.62,5.17-.84,3.13,1.36,9,3.74,10.15,2.2,1.06,3.75-.35,5.27-1.57,1.84-1.48,3.28-3.43,5.62-4.33,4.77-1.83,9.79.18,11,5.16,2.27,9.33,1,12.13-7.79,14.79a36.77,36.77,0,0,1-13.69,1.72c-3.95-.31-5.87,1.52-6.75,5.27-1.76,7.53.07,10.57,7.63,11.87,3.56.61,7.31,1.42,8.17,5.42s-.9,7.65-4.08,10.42c-4.61,4-10.59,4.13-16.07,5.68-6.18,1.74-12.41,3.35-18.59,5.13-3.2.92-5.65,3.07-7.82,5.49-1.56,1.74-3.38,2.7-5.57,1.72-2-.89-1.82-2.95-1.81-4.78.07-12.28,7-21.46,13.65-30.89,8.2-11.6,14.18-23.78,8.58-38.67a29.73,29.73,0,0,0-10.53-13.76c-4.06-3-3.89-2.54.58-5.29C446.38,172.2,457.29,169.78,465.18,171Z"/><path class="cls-1" d="M459.22,480.87c-16.5,1.43-29.31-6.82-41.63-16.09-13.36-10.06-19.21-24.71-24-40-2.92-9.38-5.24-18.95-5.66-28.71-.47-11,2.32-21.53,7-31.63,2.22-4.82,5.95-7.62,10-10.37a3.88,3.88,0,0,1,5.06.12c1.82,1.57.38,3.18-.4,4.5-1.91,3.25-4.41,6.18-5.68,9.78-3.81,10.78-3.12,21.15,3.1,31,3.58,5.64,9.14,6.47,15.09,6.16,5.77-.3,10.29,3.21,12.15,8.75,2.16,6.4,1,13.06,2.2,19.54,1.77,9.55,4.84,18.65,11.44,25.71a101,101,0,0,0,17.85,14.54c2,1.33,5.33,2.64,4.51,5.34s-4.18,1.12-6.41,1.39A39.69,39.69,0,0,1,459.22,480.87Z"/><path class="cls-1" d="M519.27,165.27c3.78.54,8.28-.27,12.77-1.55,5.76-1.65,11.7-1.11,17.54-.69,4.48.32,6.81,3,7.11,7.42.32,4.74.66,9.51-2.15,13.85-2.46,3.8-5,6.72-10.31,6.48s-7.38,2.33-7.65,7.38c-.23,4.22,2.45,6,6.21,4.06,2-1,3.84-2.32,5.88-3.21,4-1.77,7.53,0,8.83,4.25,3.75,12.18-4.69,20.27-14.76,22.4-6.62,1.41-10.11-.67-13.41-6.88-1.36-2.58-2.29-5.77-6.39-4.21-3.9,1.48-4,4.47-3.3,7.92.72,3.77,2.54,7.38,1.11,11.5-1.07,3.08-2.73,4.94-6,4.61-6.36-.62-12.42-.2-18.27,2.9-2.66,1.41-4.75-.59-4.49-4a32,32,0,0,1,3.45-11.18c5-10.47,10.78-20.66,14.89-31.48,3.2-8.39,5-17.55-1.51-25.87-1.61-2-.27-3.5,2-3.67C513.32,165.12,515.85,165.27,519.27,165.27Zm16.93,7.61c-2.59,1.11-5.86.27-8.6,2s-1.59,4.11-.54,6.19c1.18,2.31,3.13,2.33,4.83.75,2.22-2.06,4.91-3.08,7.6-4.2,1.1-.46,2.64-.86,2.44-2.44s-1.83-1.49-3-1.86A19.16,19.16,0,0,0,536.2,172.88Z"/><path class="cls-1" d="M641.93,233.75a90.52,90.52,0,0,0,1.68,22.52c.58,3.12,2.71,4.74,5.52,5.7a3.77,3.77,0,0,0,.83.09c8.94,1,10.95-1,11.44-10.13.3-5.71-1.67-10.4-4.41-15a24.8,24.8,0,0,1-3.35-14.07c.11-3,1.31-4.55,4.31-4.33,4.44.31,8.85.93,13.32,0a3.18,3.18,0,0,1,4,2.33c3.84,16.07,7.91,32.11,2.93,48.75-2.63,8.8-12.63,17.18-21.74,17.62-3,.14-6,.59-9.16.17-14.66-2-22.53-12.55-19.93-27.14,1-5.5,2-11,2.56-16.56.67-6.76-1.42-9.68-7.81-12.11a12.41,12.41,0,0,0-1.6-.51c-3.2-.71-7-1.31-6.16-5.73.7-3.77,4-5.3,7.66-5.21,5.42.13,10.17-3,15.65-2.7,3.06.17,4.38,1.05,4.31,4.13C641.85,225.63,641.93,229.69,641.93,233.75Z"/><path class="cls-1" d="M556.85,265.75c-.93-22.4,15.16-34.92,30.82-37.35,7.48-1.15,12.57,3.84,17.82,7.87s6.67,10.22,8,16.24c2.25,10.11,2,19.67-4.31,28.84-7.41,10.78-24.39,15.3-34.74,12.93-8.89-2-12.93-9.32-15.71-17.19C557.41,273.3,556.25,269.33,556.85,265.75Zm40.34-7c-1-3.31-.34-7.49-1.94-11.3-2.14-5.12-7.91-6.61-11.45-2.45-5.19,6.08-8.57,13.12-7.51,21.46.79,6.11,7.89,9.61,13.1,6.33A15.78,15.78,0,0,0,597.19,258.77Z"/><path class="cls-1" d="M617.34,323c.52-5.35-.79-11.39-2.79-17.47-1.61-4.92-.24-9.28,6.28-10.13,5.29-.69,10.3.14,15.42.34,3,.12,4,2.22,4,4.91-.11,7,.53,14,.72,20.95.32,11.36,2.28,22.47,3.68,33.67,1.06,8.51.53,17,.28,25.56-.1,3.65-2.2,5.28-5.76,5.84-7.25,1.12-14.53.74-21.79.87-2.94.06-4-1.74-4.14-4.63-.2-6.75.91-13.38,1.87-20a133.85,133.85,0,0,0,1.2-14.59C616.61,340.2,617.51,332.12,617.34,323Z"/><path class="cls-1" d="M581.71,217.35c-4.29.06-8.51-.42-12.45,2.48-3,2.22-5.49.1-4.71-4.23,1.15-6.28.42-12.56.74-18.83.43-8.27-.82-16.48-.81-24.73,0-5.49.83-6.7,6.13-6.68a174.82,174.82,0,0,0,27.52-2.22c.53-.08,1.34-.23,1.59.05,2.43,2.72,2.26,5.88,1.08,9-.94,2.47-2.43,5-5.57,3.33-4.06-2.1-8.46-1.62-12.69-2.37a3.09,3.09,0,0,0-3.5,1.7,2.85,2.85,0,0,0,0,3.19c1.08,1.32,2.57.92,3.82.19a5.67,5.67,0,0,1,4.42-.8c2.08.53,4.14,1.3,4.5,3.8s-1.09,3.86-3.24,4.77a10.4,10.4,0,0,0-4.23,2.64c-1.87,2.24-2.13,5-.52,6.95,1.89,2.29,4.19.37,5.76-1.14a12.42,12.42,0,0,1,6.81-3.81c6-.93,9.29,1.95,8.32,8-1.85,11.6-6.36,19.86-20.89,18.68C583.11,217.29,582.41,217.34,581.71,217.35Z"/><path class="cls-1" d="M646.68,202.5c.12,7.9-1.26,10.43-6.46,10.3-3.71-.1-7.43-1.15-11.08-2.07a25.76,25.76,0,0,0-15.62,1.21c-3.24,1.2-4.66,0-5-3.3-.48-4.65.88-8.9,2.78-13a17.81,17.81,0,0,0,.91-13.41c-1.66-5.48-.84-11.11.53-16.58a4.22,4.22,0,0,1,5.18-3.23c8,1.55,16.1,1.34,24.19,1.26,3.35,0,5.2,1.48,4.75,5.21-.36,3,.35,6.13-.75,9.15-.7,1.93-1.73,3.14-3.86,3.23-2.37.09-3-1.55-3.59-3.39-1.6-5.12-5.35-7.57-10-6.74-1.76.31-2.81,1.12-2.92,3s.63,2.95,2.51,3.23a23.09,23.09,0,0,0,4.14.64c3.37-.15,4.6,1.53,4.3,4.62-.34,3.47-2.62,3-4.95,2.3-1.84-.53-3.83-.82-4.72,1.3-1.06,2.52.35,4.58,1.93,6.48,1.4,1.67,3,1.16,4.54.37a7.2,7.2,0,0,0,1.35-1c6.13-4.91,10.45-3.3,11.82,4.53A34.82,34.82,0,0,1,646.68,202.5Z"/><path class="cls-1" d="M700.84,105a20.5,20.5,0,0,1,20.55-20.51,21.11,21.11,0,0,1,21.46,21.58,20.71,20.71,0,0,1-20.78,20.39A21.59,21.59,0,0,1,700.84,105Z"/><path class="cls-1" d="M407.06,378.92c0-10.56,9.33-20,19.73-19.95s19.83,9.5,19.85,20a20.26,20.26,0,0,1-19.94,20.23C415.69,399.23,407.08,390.33,407.06,378.92Z"/><rect class="cls-2" width="1209" height="582.11"/></g></g></svg>