<svg xmlns="http://www.w3.org/2000/svg" viewBox="0 0 79.69 82.6"><defs><style>.cls-1{fill:#fff;}.cls-2{fill:#463f3a;}</style></defs><g id="Capa_2" data-name="Capa 2"><g id="Capa_1-2" data-name="Capa 1"><path class="cls-1" d="M42.6,3.19A37.73,37.73,0,0,0,17.37,9.24C6,17.06.56,30.61,1.22,42.54c1,19.08,17.86,39.76,41.33,38.34,22.6-1.36,38.76-22.45,36.38-43.39C76.68,17.66,58.6,5,42.6,3.19Z"/><path class="cls-2" d="M20.57,14.94c.09.6,1.06.27,1.79.3a1.32,1.32,0,0,0,.32,0l1.39.13c.05,0,.06,0,.05,0l.18,0c0,.17,0,.3.21.25l.33-.08.2-.05.47.07a1.1,1.1,0,0,0,.18,0c0,.26.44-.11.43,0a1,1,0,0,1,.05-.16s.08,0,.09,0,0,.1,0,.14.05,0,0-.13a.3.3,0,0,0,0-.09l0,0c.08,0,.17.11.21,0a.15.15,0,0,0-.05-.16,1.21,1.21,0,0,0-.31-1.9c-2-.94-5.42.58-5.37,1.34A.37.37,0,0,0,20.57,14.94Zm4,.53c-.2.07-.08-.06,0,0Zm-3.35-.41s0,.23,0,0Zm.12.17s0-.08,0-.06Zm0-.24c0-.06,0-.08,0-.08S21.36,15,21.32,15Zm.16.06c0-.11.05-.11,0,0S21.49,15.1,21.48,15.05Zm-.81,0c0,.07,0,0,0-.08S20.74,15,20.67,15.07Z"/><path class="cls-2" d="M51.93,15.36c.24.51,2,0,1.89,0s.12,0,.31.05c.36,0,.95,0,1.27,0,.05,0,.06-.07.06-.15h.15c0,.22,0,.42.22.34l.29-.13a5.64,5.64,0,0,1,.76-.25c0,.54.41,0,.4.07,0-.19.06-.2.09-.17.91-.45.88-2.12-.21-2.27s-5.73,1.3-4.87,2a.8.8,0,0,0-.06.17C52.24,14.35,52.18,15.69,51.93,15.36Zm.67.06s.16,0,.22,0S52.59,15.57,52.6,15.42Zm.16-.24s0,.23,0,0Zm-.06,0s0,.11,0,0Zm.17.19s0-.08,0-.06Zm0-.23v-.06S52.87,15.12,52.87,15.12Zm.18.05c0,.1,0,.05,0,0S53.06,15.06,53.05,15.17Zm2.8.26c-.19.1-.09,0,0,0Zm1.23,0c0-.11,0-.21,0,0Zm-4.82-.32s.09,0,0,.09S52.23,15.2,52.26,15.07Z"/><path class="cls-2" d="M23.18,26.54c-4.15-.71-8,1.31-10.54,4.46-.17,0-.21-.13-.08-.41a12.81,12.81,0,0,0-2.21,4.23c0-.1-.06-.15-.12-.09a1.2,1.2,0,0,0-.06.73c0,.14-.07.27-.1.41a12.65,12.65,0,0,0-.49,2.71,11.11,11.11,0,0,0,.75,4.68c0,.17.08.34.13.5.81,2.72,2.18,4.69,4.74,5.59.08,0,.86.42,1.8.81l.12-.08.44.14a1.46,1.46,0,0,1-.31,0l.53.2c0,1.51,5.61.66,7.13.33,1.29-.14,2.34-.39,2.3-.8.52-.26,1.07-.55,1.61-.87-.51.4-1,.8-1.48,1.24a7.19,7.19,0,0,0,1.54-1.28,14.46,14.46,0,0,0,1.36-1s.1-.07.21-.17a12,12,0,0,0,1.37-1.3l.1,0a2.72,2.72,0,0,0,1-1.4,9,9,0,0,0,.58-.93C37.66,36.75,30.9,27.85,23.18,26.54ZM12.37,35.46A10,10,0,0,1,26,29.7a12.36,12.36,0,0,1,6.5,8.18,2.52,2.52,0,0,0-.73-1.26A2.51,2.51,0,0,0,32.53,38a9.1,9.1,0,0,1,.19,2.84.5.5,0,0,0,0,.29,7.41,7.41,0,0,1-2.17,4.36c-1.13,1.12-6.74,2.41-10.13,3.54C14.85,46,9.63,43.38,12.32,35.61A.88.88,0,0,0,12.37,35.46Zm-.81,10.28.12,0,.15.22c-.05.07-.09.18.1.44C11.42,46.22,11.3,46,11.56,45.74Zm.91,1,.17.18a.23.23,0,0,1-.23-.13Zm1,1.07c0-.06,0-.12,0,.07C13,47.87,13.32,47.66,13.43,47.84Z"/><path class="cls-2" d="M44.68,40.92c0,.15,0,.31,0,.46a9.63,9.63,0,0,0,1.42,3.88c-.08,0,0,.12.13.22.29.84,1.38,2.81,2.1,2.09,0,0,0,0,.07.06-.23,1,.46.26.49,1,0-.17,0-.34-.05-.51.67,1.64,4.88,2.87,6,3,1.19.43,2.2.61,2.33.07l-.12-.07a12.41,12.41,0,0,0,2-.34l.24,0c.39-.1,0,0-.09,0l-.11,0a14.46,14.46,0,0,0,2-.67c-.17.11-.35.2-.53.32a2.8,2.8,0,0,0,.78-.42c.25-.11.49-.24.73-.36a3,3,0,0,1,.48-.06c.45,0,1.28-.72,2.13-1.64l.07-.06a12.13,12.13,0,0,0,4-6.89s0-.07,0-.11a12.43,12.43,0,0,0-4-12.14A11.74,11.74,0,0,0,53.26,27a.79.79,0,0,1,.16-.18,11.68,11.68,0,0,0-3.23,1.84l-.65.51s0-.07-.07-.06-.27.26-.36.44a12,12,0,0,0-1.86,2.14,15,15,0,0,0-2.6,7.17.32.32,0,0,0,0,.29v0A8.63,8.63,0,0,0,44.68,40.92ZM51.29,30.5a10.58,10.58,0,0,1,3-1.61c.74-.17,1.48-.34,2.23-.48l.27,0c.67.07,1.75.14,2.7.18a9.32,9.32,0,0,1,4.77,2.67,8.85,8.85,0,0,1,1.47,2.07,4.44,4.44,0,0,0-.38-.37c-.53.33.46,1.14.91,1.55a11.74,11.74,0,0,1,.32,6.82,2.38,2.38,0,0,0-.12-.68c-.3-.05-.15.86-.07,1.31a10.12,10.12,0,0,1-2.26,4,10.55,10.55,0,0,1-6.88,3.25c-.84,0-5.82-1.64-7.69-1.83a1,1,0,0,0-.26-.59c-1.56-5.73-4.48-9.79.79-15.17l.29-.27A6.51,6.51,0,0,0,51.29,30.5Z"/><path class="cls-2" d="M40.84,55.22s0,0,.06-.09c.2-.79-.55-.28-.37-.08a.77.77,0,0,0,.17.14l-.64-.11a5.14,5.14,0,0,0-5.27,3.76.43.43,0,0,0,0,.16,4.43,4.43,0,0,0,.33,3.38.72.72,0,0,0,.11.34,4,4,0,0,1-.23-.39c.47.87,1.53,2.94,1.45,2.88.48-.4.77-.08.05,0a7,7,0,0,0,2.2.49c-.12,0-.27.14-.22.26s.44-.09.35-.26A7.29,7.29,0,0,0,43,64.49l-.14-.06c-.19-.69.23-.21.25,0a7.84,7.84,0,0,0,2-1.89A1.28,1.28,0,0,0,44.56,61c0-.11.07-.23.1-.35a.64.64,0,0,0,.14-.08h-.13a4,4,0,0,0-1-4c.11,0,.21,0,.32,0-.38-.37-.55-.38-.67-.3A6.24,6.24,0,0,0,40.84,55.22Zm-1.75,9.07h.11a.15.15,0,0,1-.11.15A.18.18,0,0,1,39.09,64.29Zm.4.34a.5.5,0,0,1,0-.13.58.58,0,0,1,0,.14Zm-.34-.08-.06,0C39.14,64.44,39.16,64.44,39.15,64.55Zm4.1-.49L43,63.78a.48.48,0,0,1,.24.12C43.3,64,43.3,64.05,43.25,64.06Zm1.51-2c.05.06.39.53-.06.18Zm-1.07,1.59c.18.63-.22,0-.3-.19a.5.5,0,0,0,0-.13l.09-.11Z"/><path class="cls-2" d="M72.69,16A39.9,39.9,0,0,0,60.24,5C59.05,4.3,47-1.36,46.46.81c-.05.25.21.56.7.93l-.27,0c.29,0,7.15,5.65,8,4.31,2.33.71,2.56,2.58,5.95,2.77.84.06-2.55-1.93-1-1l.25.09a38.66,38.66,0,0,1,4,2.67c-1.48.86,1.16,1.69,2.75,2.33.3.28.6.56.9.86a3.32,3.32,0,0,1-.73.32c.43.86,2.16,1.86,3.45,2.81.29.38.58.75.85,1.14s.43.67.64,1a3.6,3.6,0,0,0,1.45,3.11c.81-.08.85,8,3,8.35.1.5.18,1,.27,1.5a5.7,5.7,0,0,0-.49,2.59c.43-.58.64-.42.82-.14,0,.22.06.43.08.64-1.24.38-.26,2.4-.57,3.52l.75-.56c0,.39,0,.77,0,1.16a1.82,1.82,0,0,0-.81-.32c0,1,0,2,0,3a.86.86,0,0,1,.76-.09l0,.59a1.33,1.33,0,0,1-.73-.08c-.31,1.54-.16,2.18.58,2.42l-.12,1.07c-.16-.11-.34-.23-.56-.36a30.52,30.52,0,0,0,0,4.09c-.22,1.16-.5,2.31-.83,3.44-.78.2-1.39.59-.89,1.87a1.27,1.27,0,0,1,.4-.3c-.34,1-.73,2-1.15,2.93a13.9,13.9,0,0,0-2.24,3.34L72,61l-.27.47s0,0,0,.06q-.8,1.36-1.71,2.64l-.55.42.22,0c-.36.48-.72,1-1.1,1.43a2.09,2.09,0,0,0-.24-.51,35.35,35.35,0,0,1-4.37,5,1.33,1.33,0,0,1,.07.3c-.49.43-1,.86-1.5,1.27.14-.28.29-.57.46-.84a73.72,73.72,0,0,1-8.28,5.15,3.18,3.18,0,0,0,.28.48l-.84.4,0-.21a.9.9,0,0,1-.08.23c-.68.3-1.37.59-2.06.85-1.18.06-2.52.08-3.17,1l-1.21.31c0-.18-.06-.37-.1-.55-.82.17-2.66.52-2.91.65a1.58,1.58,0,0,0,.37.43c-.64.1-1.29.19-1.94.26A12.39,12.39,0,0,0,41,79.86c.44.12.59.32.47.6a32.33,32.33,0,0,1-5-.09c-.14-.46-.46-.7-1.91-.88a1.27,1.27,0,0,1,.22.68c-.79-.11-1.59-.25-2.39-.42-.56-.12-1.11-.26-1.66-.41-.58-.66-3.93-1.78-5-1.77-.44-.2-.89-.4-1.32-.62a2.32,2.32,0,0,0-.77-.61,2.21,2.21,0,0,0-1-.35c-.71-.4-1.41-.83-2.09-1.28-.77-.8-1.67-1.84-2.58-1.85A41.81,41.81,0,0,1,8.7,62.64c.71-.34.25-.61-.5-.8-.23-.38-.46-.76-.68-1.15l.31,0a5.06,5.06,0,0,0-1-1.23A40.92,40.92,0,0,1,2,40.53c0-.11,0-.22,0-.34.48-.33.86-.77,0-1.14,0-.51.05-1,.1-1.52.48-2.12,1.21-5.94,1.43-6.76C4,29.28,4.33,28,4.71,26.89a39.08,39.08,0,0,1,9.05-13.27,24.14,24.14,0,0,1,2.54-2.07.9.9,0,0,1-.23-.08l.38-.32c.38,0,.89-.3,1.91-1,1.79-1.24,4-1.51,3.2-2.76L22.17,7l.22.49c1.37-.8,3.77-1.43,3.84-2.71l.27-.13c.3,0,.4.23.28.57l1.11-.46-.48-.53.67-.3a1.35,1.35,0,0,1,.12.7c4.4-1.72,9.1-1.38,13.29-3.19.59-.28,0-.55-1-.79.46-.05.91-.09,1.37-.12l-1.4.11A33.14,33.14,0,0,0,36,0a8.46,8.46,0,0,0-2.94.61l1.26,0c-.72.55-1.23.64-1.52.29a.86.86,0,0,1-.1-.16c-1.64.79-2.66,2-5.2,2.57a.83.83,0,0,1,.15.11L27,3.7c0-.05-.09-.09-.11-.06l.07.07-.07-.07c.68-.6-.57-.32-.2-1.1a54,54,0,0,0-5.63,2.7A17.08,17.08,0,0,0,23,4.55c-1.8.7-8.15,3.25-8.6,5.06.31.24.55.45.77.64l-.36.29a2.9,2.9,0,0,1-.44-.84c-1.52,2.75-3.3,2.88-5.19,6.22-.75.87-1.46,1.78-2.12,2.71a17.32,17.32,0,0,0-2.37,3c-.9,1.57-4.87,9.39-3.83,11a.53.53,0,0,1,.09-.3A40.48,40.48,0,0,0,0,41a41.49,41.49,0,0,0,.25,4.61c0,.23,0,.41,0,.51A45.49,45.49,0,0,0,4.1,59.33c.53,1.94,2.21,4.28,3.44,6,.6.85,1.2,1.68,1.85,2.49a21.88,21.88,0,0,1,2.88,4.61c.47,1,2.6,1.13,3.28,1.76-.61-.57-1-.93-1.31-1.24a.18.18,0,0,0,.07,0,37.68,37.68,0,0,0,20.88,9.37c22,2.42,41.64-14.86,44.15-36.38C80.52,35.86,78.79,24.36,72.69,16Zm-43-12.3c-.34.1,0,.59-.18.45,0-.08-.11-.11,0,0a2.27,2.27,0,0,1-.25-.21.81.81,0,0,1-.24-.3l.17-.07A2.26,2.26,0,0,1,29.65,3.65ZM8.56,62.42c-.08-.12-.15-.24-.22-.36A.69.69,0,0,1,8.56,62.42ZM24.69,4.5a.42.42,0,0,1,0,.16L24,5a3,3,0,0,1-.8-.43ZM20.52,6.35C21,6,21.34,6,21.59,6.14l-.81.43A3,3,0,0,0,20.52,6.35Zm53.92,19,.33-.39.15.44A2.44,2.44,0,0,0,74.44,25.31Zm-7.82,43-.14.16A.52.52,0,0,1,66.62,68.32Z"/><path class="cls-2" d="M20.76,43.84a2.75,2.75,0,0,0,1.07-.24c.74.32,1.35-.05,1.79-.76.54-.24,1-.41,1.05-.35-.46-.8-.49-1.16-.13-1.1l-.1,0,0-.11a1.8,1.8,0,0,1,.2.19l.16.06c-.3-.44-.3-.69-.51-.82.21-1.65-.16-3.4-1.31-3.72.08-.29-.1-.19-.2,0a2.55,2.55,0,0,0-1.58.46c-.31,0-.43.16-.47.34a2.62,2.62,0,0,0-.88,1.55c-.13,0-.15.23-.06.5A4.79,4.79,0,0,0,20,41.47a1,1,0,0,0,0,.55c0-.07-.08-.11-.11-.17C20.27,42.48,20.78,43.85,20.76,43.84Zm3-1.22.05-.1C23.88,42.63,23.89,42.7,23.75,42.62Zm.27-.5c.14.12.07.12-.07.07A.08.08,0,0,1,24,42.12Z"/><path class="cls-2" d="M54.44,42.86c.94,0,3.65-1.51,3.9-1.36a2.09,2.09,0,0,1-.37-1,.2.2,0,0,1,.25-.13l-.1,0,0-.1a1.18,1.18,0,0,1,.21.18l.16.06a3.21,3.21,0,0,1-.33-.6c.36-1.49-.07-3.28-1.44-3.78a.29.29,0,0,0-.1,0c.2-.51-.15-.26-.2-.06-1.62-.42-2.54.9-2.68,2.37-.44-.43-.41.38,0,.84a1.6,1.6,0,0,0,0,.23,2.27,2.27,0,0,0,.06.3,2.16,2.16,0,0,0-.1,1.27,1.77,1.77,0,0,0-.12-.17C54,41.5,54.46,42.87,54.44,42.86Zm2.92-1.27-.06-.1.08-.08C57.53,41.58,57.65,41.79,57.36,41.59Zm.33-.46c.16.14.06.12-.11,0l.06-.08,0,0,0,0Z"/></g></g></svg>