<svg xmlns="http://www.w3.org/2000/svg" viewBox="0 0 78.25 81.65"><defs><style>.cls-1{fill:#fff;}.cls-2{fill:#463f3a;}</style></defs><g id="Capa_2" data-name="Capa 2"><g id="Capa_1-2" data-name="Capa 1"><path class="cls-1" d="M42.05,2.2A35.66,35.66,0,0,0,17.46,8.34C6.34,16.25,1.09,30,1.73,42.06c1,19.32,17.4,40.27,40.27,38.83C64,79.51,79.77,58.16,77.45,37,75.26,16.86,57.64,4,42.05,2.2Z"/><path class="cls-2" d="M70.07,15.49A39.28,39.28,0,0,0,57,4.67C55.66,4,41.71-1.48,41.54.39c0,.21.43.54,1.17.94a1.57,1.57,0,0,0-.67-.1c.28-.06,7.35,4.93,8.06,3.63,2.25.59,2.73,2.33,6,2.29.23,0,.13-.12-.09-.28,1.1.58,2.17,1.2,3.22,1.87-1.06.85,1.16,1.42,2.74,1.87.38.29.77.57,1.14.87a3.33,3.33,0,0,1-.6.33c.49.8,2.53,1.76,3.91,2.71.36.37.71.74,1,1.13a3.76,3.76,0,0,1,.25.31.6.6,0,0,1,0,.23c-.34,1.11,1.37,2.31,2,2.78.76-.2,2,7.39,4.06,7.59.2.56.39,1.12.57,1.69a6.43,6.43,0,0,0-.12,2.26c.51-.23.63-.18.73-.07l.12.47c-1,.58.1,2.31,0,3.4l.6-.56c0,.34.11.69.16,1a1.55,1.55,0,0,0-.75-.2,24,24,0,0,1,.28,2.82.82.82,0,0,1,.74-.14c0,.19,0,.37,0,.56a1.37,1.37,0,0,1-.75,0q-1.07,3.62.77,2.32h.08c0,.38,0,.75,0,1.14a6.28,6.28,0,0,0-.72-.42c0,.79-.74,3.37.62,3V44a1.71,1.71,0,0,0-.24,2.24c-.09.68-.2,1.36-.33,2-.81.25-1.51.64-.89,2a1.19,1.19,0,0,1,.57-.43c-.21.93-.45,1.85-.73,2.76a16.17,16.17,0,0,0-2,3.84l.5.21-.21.49-.08,0a.5.5,0,0,1,0,.17Q72.05,58.65,71.3,60c-.14.14-.29.26-.42.38l.21,0c-.28.5-.57,1-.87,1.48a2.14,2.14,0,0,0-.28-.41,39.83,39.83,0,0,1-2.45,4.16,1.32,1.32,0,0,0-.19.36c-.6.75-1.24,1.47-1.9,2.18,0-.15.09-.3.15-.45a51.2,51.2,0,0,1-7.33,6,2.69,2.69,0,0,0,.2.27,33.6,33.6,0,0,1-3.31,1.88,3.38,3.38,0,0,0-2,.94c-.46.2-.92.38-1.38.56,0-.15-.08-.29-.13-.44a28,28,0,0,0-2.76.94,1.65,1.65,0,0,0,.35.35c-.29.09-.59.16-.88.24a13.15,13.15,0,0,0-3,0c.44.06.61.24.54.52a34,34,0,0,1-4.67.53,1.84,1.84,0,0,1,.08-.38A7.46,7.46,0,0,1,38.94,79a1.31,1.31,0,0,1,.31.66,33.37,33.37,0,0,1-4-.27c-.56-.49-3.74-1-4.9-1-.52-.15-1-.31-1.55-.48a2,2,0,0,0-.8-.42,3.49,3.49,0,0,0-.84-.18,35.39,35.39,0,0,1-6-3.06,5.38,5.38,0,0,0-2.41-1.66A39.63,39.63,0,0,1,11.91,66c.65-.43.16-.63-.59-.72q-.45-.57-.87-1.14l.39.09a4.64,4.64,0,0,0-1-1A42.78,42.78,0,0,1,3,47.38c-.17-.86-.3-1.73-.41-2.59a.77.77,0,0,0-.07-.57c-.09-.79-.16-1.59-.19-2.39.15-2.16.3-5.28.35-6,.1-1.23.2-2.32.38-3.32a31.18,31.18,0,0,1,2-6.85,48,48,0,0,1,2.38-4.57,1,1,0,0,1-.26.07c.13-.25.26-.48.4-.72a2.32,2.32,0,0,1,0,.33,27.7,27.7,0,0,1,4.14-5.6,2.7,2.7,0,0,1-.58-.1l.28-.35c.49.16.87-.13,2-1.29C15,11.89,17.06,11.24,16,10.18l.55-.45.29.41c1-.9,2.88-1.78,3.18-2.84l.62-.36a.67.67,0,0,1,0,.29l1-.61-.18-.15.41-.23a.71.71,0,0,1,0,.21C26,4.09,30.46,4,34.37,1.82c.44-.25.14-.44-.48-.57.89-.42,1.4-.74.65-.62s-1.44.27-2.16.42A29.3,29.3,0,0,0,28.9,1a7.85,7.85,0,0,0-2.82,1l1.26-.14c-.64.63-1.12.78-1.44.47a.86.86,0,0,1-.13-.14c-1.47,1-2.23,2.26-4.67,3.22l.1,0-.59.33h-.06c.57-.68-.6-.22-.36-1a45.07,45.07,0,0,0-5,3.55,20.06,20.06,0,0,0,1.74-1c-1.69,1-7.14,4.5-7.34,6.41a8.24,8.24,0,0,1,.89.51l-.29.34a3.56,3.56,0,0,1-.61-.75C8.44,17.4,4.08,21.82,2.39,26.82,1.77,28.65-1,36.42.37,38c-.06-.07,0-.33.15-.66A40.3,40.3,0,0,0,7.23,63.69a22.09,22.09,0,0,0,3.48,4.58c.21.25.45.49.67.74,1.6,1.83,3.28,2.89,4.34,5.17,1,2,2.73,1.28,4.16,2.26-.66-.45-1.1-.74-1.4-1a.79.79,0,0,0,.46,0q.6.4,1.23.78c1.11,1.12,4,2.22,4.5,2.49a2.68,2.68,0,0,0,1.25.37,35.79,35.79,0,0,0,12.67,2.52c21.53.3,38.15-17.1,39.56-38A41.71,41.71,0,0,0,70.07,15.49Zm-47-9.73L23,5.7l.13-.07C23.17,5.74,23.2,5.81,23.1,5.76ZM18.57,6.89s0,.08,0,.12c-.22.14-.43.29-.64.44a3,3,0,0,1-.82-.27ZM15.86,9l-.68.57-.29-.16C15.31,9,15.6,8.9,15.86,9Zm54,9.87a.21.21,0,0,0,0,.06h-.07S69.87,18.88,69.89,18.86Zm1.32,3,.25-.42c.07.13.15.25.21.38A2.45,2.45,0,0,0,71.21,21.9ZM11.75,65.84c-.09-.11-.19-.22-.28-.34A.66.66,0,0,1,11.75,65.84ZM18,74.9l0-.06S18,74.88,18,74.9Z"/><path class="cls-2" d="M29.64,38.29a.85.85,0,0,1,0,.87,1.3,1.3,0,0,0,0-1.43c.81-.07,1.21-.51.71-1.58S26.86,34,24.24,33.24a.59.59,0,0,1,.16-.06c-.4-.12-1.07-.35-1.89-.64,0,0,0,0,0-.07s-.14,0-.25,0c-.85-.3-1.85-.65-2.86-1A27.4,27.4,0,0,0,15.08,30c0-.06,0-.05-.09,0l-.56-.14c.22.07-.33,0-1,0,0-.16-.05-.11-.09,0-1.31,0-3.07,0-1.51.75l0,0a1.79,1.79,0,0,0,.44.43A25.16,25.16,0,0,0,18.08,34a56.77,56.77,0,0,0,7.35,3.35,42.7,42.7,0,0,0-4.23,2.42c-.85.51-10.07,5.73-7.43,6a7.3,7.3,0,0,0,2.68-.64c.33.33,3-.8,3-.88a.57.57,0,0,0-.52-.16c.66-.29,1.35-.62,2-1-.12.13-.25.28-.2.27a2.2,2.2,0,0,0,.35-.35c.52-.26,1-.53,1.55-.81a8.39,8.39,0,0,0,1.85-.91l-.37.09c.53-.3,1-.61,1.54-.92a1,1,0,0,0,.49-.2l-.05,0-.32.16.3-.18.23-.1a.63.63,0,0,1,.21-.19l0,0,.13-.07a.14.14,0,0,1,0-.07.14.14,0,0,0,0,.07c0,.09,0,.1,0,.08.09.17.14,0,.14-.19l-.17.1a.14.14,0,0,0,0-.07l.18-.12a.28.28,0,0,1,0,.09,2.25,2.25,0,0,0,.45-.33l-.06,0,.43-.32c.29-.07.69-.2.71-.2.12.6-1,.63-.81,1C28.41,39.68,29.87,39.53,29.64,38.29Zm-1,1.16c-.11,0-.19.22-.44.11C28.32,39.51,28.88,39.38,28.67,39.45Zm-.12-.68.13-.11C28.9,38.8,28.84,38.87,28.55,38.77Z"/><path class="cls-2" d="M50.74,38.3c.74.6,1.65.33,2.79,1.17.54.38.59.35.48.19l.46.31a4,4,0,0,0,2.27,1.8c1.75.78,3.84,1.28,4.07,1.61.06.08-.3.84-.05.76-.07,0,.41-.51.41-.51l.41.2.36.19a.37.37,0,0,1,.14-.07.19.19,0,0,1,0,.13,1.85,1.85,0,0,1,.46.29c-.76.85,2.65.37,2.54.41a7.12,7.12,0,0,0-1.65,0c-.13,0-.56-.79-.56-.79.31-.17,1.21.95,1.49.35.06-.13-.28-.39-.73-.65,1.14.27,2,.41,1.58.16-2.46-1.58-4.75-3.39-7.2-5-.2-.13-1.68-.82-3.22-1.43,2.32-.82,4.59-3,6.32-4.32.75-.56,4.43-5.13,3.67-4.69s-1.58.93-2.36,1.4a1,1,0,0,0,.21-.47l.13-.17c.53.24.23,0,.11-.13a1.83,1.83,0,0,1,.13-.16l.14,0-.14,0c.41-.52.63-.83.56-.79-.24.16-.68.4-1.24.7l-.3,0c.21-.06.26-.19.16-.38a3.3,3.3,0,0,1-.86.21c.07,0-2.32,1.72-4.2,3.1a20.23,20.23,0,0,0-3.94,2.91c-1,.68-1.82,1.32-.14.15a3.56,3.56,0,0,0-.4.51c-.39.41-.82.78-1.2,1.2-.34,0-.42.2-.09.64C50.86,37.52,50.32,38,50.74,38.3Zm12.19,6.29,0-.32C63,44.2,63.13,44.25,62.93,44.59ZM52.35,38.24l0,0Zm3.18,2.63c-.7-.32-.48-.5,0,0Zm.45.2s0,0,0,0C56.05,40.81,56.22,41.16,56,41.07Zm6.38,2.37a2.34,2.34,0,0,1-1.08-.38l.81.22A.41.41,0,0,0,62.36,43.44Zm-10.8-6.08c-.1,0-.17,0-.14,0s0,0,.1,0Z"/><path class="cls-2" d="M52.7,62.7c1.46,0,1.28-1.93.55-4.15,0-1.06,0-2.22-.38-2.23a1.11,1.11,0,0,0,0,.82C52.84,57,52,55,51,53.19a.93.93,0,0,1-.35-.68c-.81-1.51-1.61-2.72-1.92-2.33a8.58,8.58,0,0,1,1.28,1.59.39.39,0,0,1-.22-.05A15.89,15.89,0,0,0,48,50.19c-.37-.34-.76-.68-1.15-1a.72.72,0,0,1-.19-.14l-.4-.27a.35.35,0,0,1-.06.09c0,.06-.27-.23-.27-.26a.68.68,0,0,0-.15-.08l0,.08c-.63.08-.43-.12-.21-.18a1.78,1.78,0,0,0-.66-.12c.1.09.23.2.38.31-.32-.14-.64-.26-1-.37h.06L43.68,48h1.18a10.65,10.65,0,0,0-2.76-.75,6.17,6.17,0,0,1,.86,0,14.33,14.33,0,0,0-5.59.27c-1.39.8-4.09,2.69-3.55,1.7a20.08,20.08,0,0,0-3.9,6.36,6.08,6.08,0,0,0-.37,1.19l0,0c.06.17,0,.26-.09.28s-.05.29-.06.44c.28.08,0,.16,0,.14a21.3,21.3,0,0,0-.09,2.52c0,.3,0,.59,0,.89,0,0,0,.1,0,.23s0,.34,0,.5,0,0,0,.06a3.64,3.64,0,0,1-.25,1.25c.53-1.14.38-.36.5-.4l0-.26c0,.1.05.2.07.29-.09.52-.16,1-.22,1.53h.61c-.73.29-1,.55.2.62l.18,0c.27.17.24.27-.12.3,0,0,4.94.43,6.24.3l.44.05c-.08,0-.22,0-.16.09s.29,0,.22-.08a56.55,56.55,0,0,0,8.09.47s0,0,0,0,.24,0,.41-.06c.36,0,.73,0,1.09-.07a.15.15,0,0,0,.17,0c.52-.05,1-.12,1.56-.2a6.82,6.82,0,0,1,1.31,0,4.56,4.56,0,0,1,.72-.39,0,0,0,0,1,0-.07l.07,0a.09.09,0,0,1,0,.07c.22-.09.4-.16.4-.13s.24,0,.55-.24a2.33,2.33,0,0,0,1.44-1.26c.22-.63,0-.92-.38-1a1.93,1.93,0,0,0,.06-.36C52.58,62.58,52.65,62.7,52.7,62.7ZM29.8,57.25c-.19.13,0-.24.05-.28Zm.37-1c0-.23,0-.31.07-.23a.14.14,0,0,1,0,.12A.24.24,0,0,1,30.17,56.21Zm.34-.84c-.25.24-.3.1,0,0Zm1.9-3.3c-.15.1-.17.06-.07-.12S32.44,51.93,32.41,52.07Zm-1.8,2.71c.07-.06.1-.05.09.06S30.59,54.93,30.61,54.78ZM30.88,65c-.07.07-.12,0-.14,0h.19Zm.3-11.53c0,.11-.12.13,0,0Zm.41-.4c-.05.23-.1-.07,0-.19C31.6,52.89,31.59,53,31.59,53Zm.17-.61c.13-.06.19,0,.17.15S31.74,52.6,31.76,52.41Zm.54-.51c0,.15,0,.18-.14.09Zm-.06,13.26c.07,0,.6,0,.85,0C32.82,65.23,32.25,65.32,32.24,65.16ZM47.51,49.84a.41.41,0,0,1-.11-.07S47.49,49.8,47.51,49.84Zm-3.8-2.15c.11,0,.3,0,.42.16Zm-.69.15-.25-.05C42.88,47.69,43,47.71,43,47.84Zm-1.36-.22c-.27-.17,0-.14,0,0Zm-2.43-.12a.15.15,0,0,1-.2-.1C39.09,47.39,39.38,47.48,39.23,47.5Zm-.58.22a2.41,2.41,0,0,1,1.11-.07,8.25,8.25,0,0,0-1.56.29c-.22.06-.43.12-.64.2A2.71,2.71,0,0,1,38.65,47.72Zm-3.4,1.39c.14,0,.14,0,0,.12S35.18,49.19,35.25,49.11Zm-.31.45c-.24.18,0-.27,0,0Zm12.83,6.09c.4,0,.43-.06.15-.27-.14,0-.61.07-1.11.11l-.43,0a.45.45,0,0,0,.2,0l-.78,0a3.69,3.69,0,0,0,.64-.21h-.87l-.31.06,0-.06h-.18s0,0,0,.08h-.13a.33.33,0,0,0-.13-.09h-.09a.49.49,0,0,0,0,.11l-.65,0a1,1,0,0,0-.28,0c-.73,0-1.48,0-1.92,0,.32.07.64.14,1,.18l-2-.09c.08,0-.33-.11-.65,0a18.35,18.35,0,0,0-2.77,0,.51.51,0,0,1,.53.17c0,.24-2.66-.22-2.64-.25a5,5,0,0,1,1.49-.06.4.4,0,0,0-.18-.11h-.44c-.54,0-1.08,0-1.59,0l.27-.38a2.63,2.63,0,0,0-.38.21,7.43,7.43,0,0,1,.72-1.39s.05,0,0-.07c.7-1.13,1.72-2.41,2.41-1.81.45-1.47,4.66-.94,5.57-.62-1,.06,2.74,1.72,2.61,1.87l-.67-.43a16.34,16.34,0,0,1,3.31,3C48.2,55.67,48,55.67,47.77,55.65Zm2.29,9.84c-.05,0-.05-.08,0-.1S50.07,65.42,50.06,65.49Zm1-.39.06,0s0,0,0,.06Z"/></g></g></svg>