<svg xmlns="http://www.w3.org/2000/svg" viewBox="0 0 78.85 80.75"><defs><style>.cls-1{fill:#fff;}.cls-2{fill:#463f3a;}</style></defs><g id="Capa_2" data-name="Capa 2"><g id="Capa_1-2" data-name="Capa 1"><path class="cls-1" d="M42.88,1.58a37.5,37.5,0,0,0-24.7,6C2.27,18.42,2,38.09,2,41.35c0,3.75.22,13.68,7,23,8.42,11.56,24.08,18.21,39,15,19-4.1,33.19-23.46,30.44-43.81C75.83,16.12,58.87,3.37,42.88,1.58Z"/><path class="cls-2" d="M40.11,61.23a10.73,10.73,0,0,1-7.27-2.32s-.26-.2-.64-.46c-.35-.43-.68-.76-1.06-.78l-.17,0c-1.66-1-3.7-2.1-2.74-.25a8.85,8.85,0,0,0,.5.84.86.86,0,0,0-.12.76s5.63,4.58,5.93,4.36c.11-.08-.37-.54-.28-.66l.62.25c-.28.6,4.67,2,1.69,1,.14,0,.54-.11,1-.21a16.6,16.6,0,0,0,4.39.29,1,1,0,0,0-.55.41c.16.9.65-.14.77-.43a15.44,15.44,0,0,0,2.73-.48.29.29,0,0,0,0,.24c.15.33.31,0,.39-.34a10.38,10.38,0,0,0,7-6.42C52.93,55,41.5,61.09,40.11,61.23Zm-9.29-.65c-.27-.13-.82-.42-.73-.68C30.32,60.13,30.56,60.35,30.82,60.58Z"/><path class="cls-2" d="M31,44.8c-.06,0-.62.37-.41.63S31.12,44.81,31,44.8Z"/><path class="cls-2" d="M28.83,46.56c-.08.08-1,.57-.92.87C28.14,48,28.89,46.52,28.83,46.56Z"/><path class="cls-2" d="M23.28,48.07a2.62,2.62,0,0,0-1.53.48C21.8,49.63,23.13,48.11,23.28,48.07Z"/><path class="cls-2" d="M74.25,39c.06,0,.25-.86,0-.78l-.1,0C74.59,38.1,74,39.09,74.25,39Z"/><path class="cls-2" d="M72.47,41.09c-.32.14-.48.77-.64.87C72.06,41.82,72.37,41.13,72.47,41.09Z"/><path class="cls-2" d="M69.37,43.62c-.06,0-.54.38-.32.63S69.51,43.62,69.37,43.62Z"/><path class="cls-2" d="M61.34,47.87c.2,1,1.42-.65,1.32-.65S61.27,47.51,61.34,47.87Z"/><path class="cls-2" d="M78.48,34.49C76,15.57,61.72,3.29,43.38.23a10.35,10.35,0,0,0-4.8.26A33.41,33.41,0,0,0,34.48,0a7.63,7.63,0,0,0-3,.77l1.31,0c-.72.59-1.23.71-1.54.37L31.16,1a17.73,17.73,0,0,0-1.92,1.34,37.4,37.4,0,0,0-3.85,1.39c-.17-.09-.34-.21-.2-.58a58.25,58.25,0,0,0-5.51,3c.64-.24,1.28-.5,1.91-.78-1.84.94-8,3.48-8.51,5.33.23.18.43.35.61.51l-.31.28a3.66,3.66,0,0,1-.33-.69c-1.65,2.7-1.92,1.48-4,3.84-1.39,1.6-3.2,7.25-5.14,7.89-1,.35-4.24,10.8-3.38,12-.06-.09.18-.54.43-1.07A38.71,38.71,0,0,0,11.86,69.82c.63.62,1.3,1.22,2,1.79a6.82,6.82,0,0,1,.41.81c.78,1.83,2.2,1.58,3.51,2.08a41.32,41.32,0,0,0,39.84,2.12C73,68.89,80.69,51.22,78.48,34.49Zm-2.41-1.37a.86.86,0,0,0-.14-.18l.18-.09c0,.1,0,.21,0,.31ZM26.83,46.84a.53.53,0,0,1-.17,0c.26-.1.51-.22.76-.34A.72.72,0,0,1,26.83,46.84Zm-6.77-1.31a15.34,15.34,0,0,1-5.33-1.07,10,10,0,0,1-1.19-.88.63.63,0,0,1-.37.19L13,43.71a.85.85,0,0,1,.43-.17l0,0c5.79,2.38,12.06,2,17.18-1.6l0,.08A16.77,16.77,0,0,1,20.06,45.53ZM15,12.64l-.16-.06.41-.36a5.6,5.6,0,0,0,1.82-1.06c1.71-1.24,3.83-1.62,3.26-2.74L21,8l.16.32c1.48-.9,3-1.5,3.57-2.56l.73-.41a.47.47,0,0,1,0,.45l1.08-.56-.31-.31.56-.28a1.55,1.55,0,0,1,0,.45C31,3.28,35.42,3.18,39.46,1.58A14.64,14.64,0,0,0,41.2,2l.32.07c2,.83,4.6,2.07,5.9,2.24,2,.27,3.83,1.93,6.74,1.56.23,0,.09-.16-.19-.33L55,6c.89.38,1.75.79,2.6,1.23C56.33,8.29,59,8.67,60.72,9c.36.24.73.49,1.08.74a2.89,2.89,0,0,1-.66.43c.56.76,2.68,1.58,4.17,2.44.53.49,1,1,1.53,1.51a.86.86,0,0,1,0,.16c-.28,1.18,1.55,2.3,2.24,2.74.76-.24,2.44,7.65,4.57,7.67q.31.75.6,1.53a6.28,6.28,0,0,0,0,2.56c.57-.29.66-.15.84,0s.08.24.11.36c-.8.47-.27,1.6,0,2.63A23.28,23.28,0,0,0,70,31.42c-1.56-.24-3.06-.39-3.14,0a1,1,0,0,0,.17.12c-1.55.06-3.07.15-4.4.24-3.91-.09-8.41-.23-8.41-.14a26.57,26.57,0,0,1,2.66.35c-1.12-.05-3.23,0-5.24.06l.15,0h-1l.86-.05a4.46,4.46,0,0,0-1.82,0s.06,0,.09.06h-.54c-.06-.11-.21-.1-.44,0l-2.54,0a1.07,1.07,0,0,0,.25-.12H41.72a10.07,10.07,0,0,1,1.43-.29c-3.48.06-6.6-.21-10.06,0,.35,0,.69,0,1-.07-2.47.11-8.75.23-6.88-.51a83.84,83.84,0,0,1-12.56.4c-.3,0-1.17,0-2.3-.06a1.86,1.86,0,0,1,.25.17c-.34.29-.57,0-.5-.17-1.81,0-4.2,0-6.08.16H5.93a10.34,10.34,0,0,0-2.48.41c.13-.87.25-1.66.37-2.39a37,37,0,0,1,10-16.12C14.18,13.25,14.58,12.93,15,12.64ZM28.12,4l.13,0c-.34.13.05.59-.16.48,0-.09-.11-.11,0,0a2.46,2.46,0,0,1-.27-.2l-.09-.08ZM71.24,20a2.46,2.46,0,0,0-.45.07l.23-.41ZM10.79,42.38C10.17,42,9.58,41.53,9,41.07a22.27,22.27,0,0,0,2,1.26A.48.48,0,0,0,10.79,42.38Zm-7-9.8s1.24-.08.52.14L4,32.8A.33.33,0,0,1,3.77,32.58ZM10,31.64c.54-.17.14.12,0,0C10,31.63,10.23,31.82,10,31.64Zm1.13.15a.22.22,0,0,1,.25-.1C11.39,32.38,11.11,31.83,11.14,31.79Zm7.87.27-.2.16h-.13a.91.91,0,0,1,.19-.13S18.84,32,19,32.06Zm17.49.11a.37.37,0,0,1,.15.06h-.13S36.5,32.2,36.5,32.17Zm8.06-.11c.18,0,.46-.09.71.06H45C44.65,32.1,44.3,32.05,44.56,32.06Zm16.53-.22L60,31.91l1.23-.17S61.12,31.8,61.09,31.84Zm-40.3.41a.5.5,0,0,1,.21-.2.26.26,0,0,1,.14.21Zm-.56,0h-.15A.25.25,0,0,1,20.23,32.24Zm10.9,9.42-.24.2A1.59,1.59,0,0,1,31.13,41.66Zm-20.08.9c.08,0,.14-.05.15-.11.7.38,1.41.72,2.13,1-.64-.22-1.26-.43-1.87-.66Zm49.26,2.35a12.73,12.73,0,0,1-6.5-.59,2.16,2.16,0,0,1-.22-.16l-.06.06-.11,0,.13-.07a3.72,3.72,0,0,1-1-.48,15.55,15.55,0,0,0,9.38.91A16.23,16.23,0,0,1,60.31,44.91Zm5.25.77c.19-.08.37-.18.55-.27a.23.23,0,0,0,.1,0C65.82,45.65,65.58,45.72,65.56,45.68ZM74,33.51H72.77c.46,0,.89-.09,1.28-.14C74,33.41,74,33.46,74,33.51ZM21.75,5.33l.22,0-.13.07ZM65.84,68c.09-.27.17-.53.28-.79a48.66,48.66,0,0,1-7.7,6,2,2,0,0,0,.17.23,35.52,35.52,0,0,1-3.91,1.94,3.5,3.5,0,0,0-1.44.58c-.58.22-1.17.43-1.75.62a3,3,0,0,0-.09-.32c-.8.22-2.64.71-2.9.86l.2.23-1.27.28a18.7,18.7,0,0,0-2.64,0c.34.06.51.19.54.37a38.87,38.87,0,0,1-5.17.4c-.22-.34-.65-.5-1.94-.52a1.17,1.17,0,0,1,.27.5,38.4,38.4,0,0,1-4.42-.4,14.18,14.18,0,0,0-4.69-1l-1.09-.32a1.09,1.09,0,0,0-.57-.37,3.13,3.13,0,0,1-1.61-.76,4.57,4.57,0,0,0-1-.06c-.8-.34-1.59-.7-2.36-1.09l-.07-.12c-.28-.59-1.59-1.1-2.79-1.51-.84-.54-1.66-1.1-2.45-1.7a3.42,3.42,0,0,0-1.8-1.43A37.69,37.69,0,0,1,10.31,64c.59-.41.16-.61-.54-.71-.3-.41-.59-.82-.87-1.24l.27.15a3.28,3.28,0,0,0-.63-.7A39.06,39.06,0,0,1,2.29,41.77c.22-.24.29-.5,0-.72,0-1.19,0-2.38.1-3.57.33.42.7.89,1.11,1.38a2,2,0,0,1-.24-.58c.24.38.49.75.77,1.11a2.51,2.51,0,0,1-.24-.19C6.1,42,9.33,45.25,10.3,45c.08,0-.17-.29-.37-.53.47.27.94.53,1.42.77.66.42,1.77,1,2.63,1.39.46.06.89.14,1.3.22s1.09.35,1.63.48a18.44,18.44,0,0,0,3,.52,9.16,9.16,0,0,0,1.19,0A13.76,13.76,0,0,0,26.07,47a7.94,7.94,0,0,0,3.44-1.47c.08,0,.14,0,.15,0a.18.18,0,0,0-.07,0c2-1.37,3.94-3.28,4.31-4.16,0,0,1.49.07.3-.35-.41-.36,1.4-.06,1.1.17.6-.45-.58-.7-.43-1,.05-.08.19-.32.37-.6,0,0,0-.05,0-.05l.3-.48c.06.07.14.09.26,0a.3.3,0,0,0-.12-.19l.49-.66c.17,0,.41-.36.65-.91.59-.82,1.17-1.67,1.74-2.51A47.47,47.47,0,0,1,43.5,35c0,.11,0,.22,0,.33-.18.41-.36.91-.36.84a4.24,4.24,0,0,0,.68,1.69,12.29,12.29,0,0,0,3.67,5.25c1.26,1.51,2.46,2.63,3.05,2.51.1,0-.05-.21-.21-.42a17.23,17.23,0,0,0,1.84,1c.59.32,1.31.66,1.9.94l1.21.08.59.09a19.83,19.83,0,0,0,2.31.09A16.08,16.08,0,0,0,63,46.66a1.72,1.72,0,0,0,.41-.19c.51-.16,1-.34,1.51-.54A8.21,8.21,0,0,0,67.8,44.5,19.88,19.88,0,0,0,72.92,40c.24.05.43.13.38.23a.39.39,0,0,0-.15-.5,17.81,17.81,0,0,0,1.35-2.06,1.14,1.14,0,0,0,.17-.28,17.75,17.75,0,0,0,1-2.21c0,.22.06.43.08.65a.85.85,0,0,1,.79-.16l.06.56a1.41,1.41,0,0,1-.79,0c-.63,2.52-.33,3.3.89,2.36h.1c0,.41,0,.81,0,1.21a8.86,8.86,0,0,0-.79-.43c0,.84-.65,3.54.78,3.09v.09A1.73,1.73,0,0,0,76.69,45c-.06.67-.15,1.35-.25,2-.87.3-1.68.74-1,2.1a1.24,1.24,0,0,1,.67-.49c-.18.93-.4,1.86-.65,2.78a14.67,14.67,0,0,0-2.14,4.11l.65.27c-.07.18-.14.36-.22.53l-.21-.12a4.44,4.44,0,0,1-.06.74q-.47,1-1,2a4.93,4.93,0,0,1-.82.66,2.25,2.25,0,0,0,.44,0c-.33.58-.67,1.16-1,1.74a1.88,1.88,0,0,0-.36-.63c-1.14,1.84-2.18,4-3.75,5.55a1.4,1.4,0,0,1,.1.31C66.71,67.11,66.28,67.55,65.84,68Zm3.41-4a6,6,0,0,1,.5-.51l-.36.49Z"/></g></g></svg>