<svg xmlns="http://www.w3.org/2000/svg" viewBox="0 0 78.84 79.71"><defs><style>.cls-1{fill:#fff;}.cls-2{fill:#463f3a;}</style></defs><g id="Capa_2" data-name="Capa 2"><g id="Capa_1-2" data-name="Capa 1"><path class="cls-1" d="M42.41,1.41A38,38,0,0,0,18.65,7.25C6.23,15.09,0,29.38,1.38,42.13c2.25,20.53,24.7,40.3,47.29,35.24,19.21-4.3,30.67-24.78,28-42.87C74.14,17.84,59.63,3.19,42.41,1.41Z"/><path class="cls-2" d="M29.82,42.19a1.15,1.15,0,0,0-.25-1.65,5.33,5.33,0,0,0-1-1.84c-.3-.82-.51-1-1.75-1.82a2.08,2.08,0,0,1,1,.33,12.86,12.86,0,0,0-3.17-1.76c0-.34,0-2.46.05-3.86a4.62,4.62,0,0,0,0-1.24v-.82s0-.06.06-.06,0,0-.06,0,0-.13,0-.19c1.06-.22,4.69-1.32,2-2a8.49,8.49,0,0,0-.93-.19l-.24-.34a.37.37,0,0,0,.59-.13,9.21,9.21,0,0,1-1.13-.69,2,2,0,0,0-.4,0c0-.17,0-.35,0-.52.29,0,.63,0,.61-.08s-.39-.17-.63-.18l-.06-.46.06,0h-.06c0-.13,0-.25-.05-.37s.07,0,.1-.05l-.12,0,0-.23a.9.9,0,0,0,0-.28h0c.79.19-.21-2.17-.3-2.34a14.68,14.68,0,0,0,.34,1.51,1.66,1.66,0,0,1-.22.26c-.37-1.61-1-2.47-2-1.62-.76.65-1,2.66-1,5a12.18,12.18,0,0,0-3.27,1.33,3.57,3.57,0,0,0-1,1.35c-1.87,1.6-2.13,4,1.4,6.86a14.61,14.61,0,0,0,3.34,1.54c-.11,2.45-.32,4.89-.36,7.34L20,44.6c.17-.11.6-.19.56-.21a1.25,1.25,0,0,0-.67.18c-1.92-.51-3.71-1-4.71-.33-2.8,1.86,2.59,3.1,6.23,3.55.3,1.9.88,4.81,1.35,3.25.15-.52.28-1,.41-1.57.22,0,.33.05.56.05-.07,0,.49-.65.61-.74a6,6,0,0,1-.05-.84C27.66,47.3,29.76,44.8,29.82,42.19Zm-2.62,0a12.94,12.94,0,0,0-.61,2.09,2.54,2.54,0,0,1-.29.28,15.17,15.17,0,0,0-2.05.49,19.37,19.37,0,0,1,.23-3.8s-.07,0-.11.06c0-.39.05-.79.07-1.18s.11-.57.15-.85c.76,1.92.58.9.18-.38,1.36.67,2.47,1.45,2.77,2.4C27.42,41.64,27.3,41.94,27.2,42.23Zm-8.72-11c.09,0,.22,0,.26-.05s-.1-.11-.22-.12c.3-1,1.42-1.41,2.64-1.6.08,1.65.21,3.3.3,4.66-1.33-.64-2.77-1.49-1.53-1.62a6.34,6.34,0,0,1-1.48-1A.92.92,0,0,1,18.48,31.26ZM25,27A.07.07,0,0,1,25,27Zm-.63-3.78-.2.08a.29.29,0,0,0,0-.09ZM21.08,26.5v.12a3.85,3.85,0,0,0-.6.09A3.74,3.74,0,0,1,21.08,26.5Zm-.84.31Zm0,.24c.09-.09,0,.21-.14.18Zm-.95.75-.21.08C19,27.68,19.14,27.72,19.26,27.8Z"/><path class="cls-2" d="M48.86,56.86a6.33,6.33,0,0,1-.12.74,4.12,4.12,0,0,0-.5,1,.7.7,0,0,0,.18,0,7.55,7.55,0,0,1-.74,1.44c0-.16.06-.39,0-.38a1.57,1.57,0,0,0-.1.5l-.26.36c-.63,0-1.55,1.18-1.92,1.45.26-.07.52-.13.79-.18-.15.14-.29.27-.45.4a12.27,12.27,0,0,1-1.47.16,1.25,1.25,0,0,0-.82,1.33c-.29.14-.59.27-.88.38.22-.16.41-.27.33-.47a6.89,6.89,0,0,1-1.8.31c.68-1-.81-.19-1.37.31a16.05,16.05,0,0,0-1.71-.9,2,2,0,0,0,.42,0c-.57-.16-1.84-.84-2.05-.29.05-.1.15-.65.24-.88-.24.21-.5.27.07-.1C33.16,61.34,33,55.71,30.23,56c.23-.1,1.3-.08.38-.21a2,2,0,0,0-1.07.33.3.3,0,0,0-.1-.49c-.19,0-.57,1.28-.57,1.2L29,57c-1.58,4,5.72,9.19,12.5,9.1.09.28.28.19.46,0,4-.2,7.64-2.24,9.21-7.41C52,55.67,49.09,54.64,48.86,56.86Zm-1.53,3.7-.24.31A.55.55,0,0,1,47.33,60.56ZM44.77,63l0,0a.27.27,0,0,0-.17.11l-.32.19C44.2,63,44.32,62.55,44.77,63Zm-.79.49-.22.11C43.79,63.24,43.86,63.2,44,63.44Zm-.34.14a.2.2,0,0,1-.08.08C43.54,63.52,43.55,63.44,43.64,63.58Zm-1.45.3c.08,0,.14-.18.31,0C42.42,64,42,63.87,42.19,63.88Zm-2.93.59q-.12,0-.09-.36S39.36,64.5,39.26,64.47Zm-1.06-.4-.29.17Zm-4-2.5-.06-.06a.8.8,0,0,1,.16-.08A.5.5,0,0,1,34.18,61.57Zm-.46-.68h0S33.72,60.79,33.72,60.89ZM32.5,58.7c-1,.32.42-.66,0,0Zm-.3-.36-.26.17a.1.1,0,0,1,0,0,.7.7,0,0,1,.15-.13C32.14,58.29,32.2,58.29,32.2,58.34ZM32,57.88s-.13.23-.23.35A2.16,2.16,0,0,1,32,57.88Zm-.6-1.28-.06-.12C31.36,56.48,31.88,56.46,31.35,56.6Zm-1.19-.12-.24-.18a.67.67,0,0,1,.2-.08S30.18,56.4,30.16,56.48Z"/><path class="cls-2" d="M64.51,39.16a1.07,1.07,0,0,1-.07-.19A4.91,4.91,0,0,0,63,37.08a6.24,6.24,0,0,0-1-.83,2.42,2.42,0,0,1,.94.34,14.38,14.38,0,0,0-4.26-2.17c0-.18,0-.36,0-.55a2.84,2.84,0,0,0,.27-1s0,.07,0,.11a10.58,10.58,0,0,1,.66-2.42c-.45-.12-.45-.43,0-.06,0-.32-.08-.74-.12-1.22,1.71-.22,3.09-.36,3-.67A3.49,3.49,0,0,0,61.14,27a.66.66,0,0,0,0-.14.49.49,0,0,0,.64.28c.12-.15-1.1-1.37-1.12-1.37a7.66,7.66,0,0,0-1.32,0c-.08-2.55-.26-5-1.2-4.9a1.53,1.53,0,0,0,.68-.35c-.56.09-.7.05-.39-.09a1.72,1.72,0,0,1-1.16.16s0,.12-.16.28A.35.35,0,0,0,57,21a4.06,4.06,0,0,1-.33.4,1.42,1.42,0,0,1,0,.28,17.55,17.55,0,0,0-1,4.83,5.57,5.57,0,0,0-3.11,2,12.74,12.74,0,0,0-1.07,2.09c-1,2.11-.39,4.58,3.81,6.41l.34.15c-.11,2.83-.17,5.68-.12,8.52l-.27-.05a5.53,5.53,0,0,0-1.59-.53c-1.29-.56-3.24-1.26-2.88.95.26,1.68,2.37,2.44,4.87,2.37.34,1.33,2.34,6.23,2.66,2.48.08-.84.13-1.68.18-2.52,0-.12.05-.25.08-.39,4-1,7.6-3.93,6-8.42A1.46,1.46,0,0,0,64.51,39.16Zm-6-15,.23,0c.11,0,.15.05.13.1h-.34S58.48,24.17,58.47,24.15Zm4.1,17.06c0,.09-.24.57-.18.48.11-.3.16-.44.18-.48a1.63,1.63,0,0,1-.06,1.36s-.08,0-.09,0a.07.07,0,0,0,.06,0A4.22,4.22,0,0,1,61,44.11a9.52,9.52,0,0,1-2.33,1.2c0-.22,0-.43,0-.65.23-.11.46-.38.58-.4a2.06,2.06,0,0,0-.58.33q0-2.07,0-4.14a2,2,0,0,0,.13-.25,1,1,0,0,0-.14-.86c0-.34,0-.68,0-1C60.39,39.07,62.11,40,62.57,41.21Zm-6.86-8.37c-.27-.23-.47-.43-.59-.55-.39.29-.72.08,0,0a3.35,3.35,0,0,1-1.35-1A2.94,2.94,0,0,1,55.66,30C55.66,31,55.69,31.91,55.71,32.84Zm3.37,2.6-.15,0a.84.84,0,0,1,0-.26S59.06,35.33,59.08,35.44Zm-.23-10.72c-.18-.07-.27-.12-.29-.16S59.39,24.51,58.85,24.72Zm0-1c.32.35.07.21-.36,0l-.18-.11a.69.69,0,0,1,0-.13A3.62,3.62,0,0,1,58.89,23.67ZM58,21.17s.06.5-.19.21C57.63,21.27,57.7,21.2,58,21.17Z"/><path class="cls-2" d="M78.37,39.28a1.67,1.67,0,0,0,.18-2.13l-.27.23c-.06-.73-.14-1.46-.23-2.19.15,0,.23-.12.2-.35a3.52,3.52,0,0,1-.33-.62c-.12-.82-.28-1.64-.45-2.46.44-1.09.68-2.59-.36-1.59,0-.18-.08-.36-.13-.53-.36-1.41-.8-2.8-1.3-4.17,0,0,0-.09,0-.13v.08c0-.15,0-.14,0-.08-.13-1.26.29-2.65-1.06-2.54-.1-.23-.2-.46-.31-.68.51-.33.61-.72.17-1.6-.85.68-2-3.45-2.56-4.31a6.15,6.15,0,0,0-.26.95c-.31-.5-.63-1-1-1.46.71-.49-.38-1.48-1.08-2.23a1.32,1.32,0,0,1-.13.53l-.56-.72a2.08,2.08,0,0,1,.46-.06L69.15,13c-.63-.63-1.27-1.26-1.92-1.88a.79.79,0,0,1,0,.2C66.54,10.49,65.78,9.71,65,9A33.88,33.88,0,0,0,54,1.83,26.78,26.78,0,0,0,47.6.2,24.53,24.53,0,0,0,43.07,0c-.74.37-.92.75-.55,1.14a1.74,1.74,0,0,0-.38.5C42,1,41,.72,39.77.58c.13-.1.08-.17-.24-.18A37.22,37.22,0,0,0,23.82,3.49c-1.55.44-2.59.83-2.44,1h.26a36.62,36.62,0,0,0-3.42,2.08,2.33,2.33,0,0,1-.73,0,1.17,1.17,0,0,0,.24.3A36.6,36.6,0,0,0,8.28,17a25.73,25.73,0,0,0-3.63,3.44,8.11,8.11,0,0,0-1.22,2.83l.79-1.08c0,.91-.17,1.38-.62,1.41a.6.6,0,0,1-.23,0c-.25,1.75.27,3.14-.65,5.73L3,29.21l-.18.7c-.07,0-.18,0-.18.06l.17,0-.17,0c-.14-.89-.6.28-1.09-.44-.22,1-1.07,6.17-.83,6.1a18.71,18.71,0,0,0,.49-2c-.35,1.88-2,8.39-.79,9.8l1.36-.37c0,.19,0,.39.05.58a3.36,3.36,0,0,1-1.35-.12C2.28,47.27,1.7,54,4.48,59c.8,1.47,4.75,8.7,6.57,8.7-.13,0-.68-1.37-1.22-2.05,1.33,1.19,4.65,4.86,5,5.27,1.69,2,4.83,3.43,7.14,4.57a1.71,1.71,0,0,0,0-.51,36.11,36.11,0,0,0,12.4,3.95c2.57,1.36,8.27.7,10.22.47a14.89,14.89,0,0,1,5.8,0c1.1.21,2.34-1.68,3.18-1.91-.83.23-1.37.4-1.77.47A1.12,1.12,0,0,0,52.3,77l.32-.11c1.13.91,5.06-1.51,5.77-1.79,1.15-.44,1.43-1,1.49-1.58.44-.25.87-.52,1.3-.79l.53-.36.06,0,0,0q1-.7,2-1.44c.71,0,1.25-.22,1-.78l-.53.47s0,0,0,0A35.35,35.35,0,0,0,69,66.05a.41.41,0,0,0-.05.09s0-.06.06-.1a36.73,36.73,0,0,0,7.4-12.92s0,0,0-.08a41.54,41.54,0,0,0,1.17-4.45,2.42,2.42,0,0,0,.37-1,2.82,2.82,0,0,0-.09-.6c.11-.71.21-1.43.28-2.15a2,2,0,0,0,.19-.12c.25-.6.22-1-.06-1.27,0-.41,0-.82.06-1.24a.67.67,0,0,0,.24.12,3,3,0,0,0-.2-2ZM45.63,2a2.87,2.87,0,0,0-.25.46c-.09-.23-.15-.4-.21-.54ZM2.15,32.26a1.2,1.2,0,0,1,.16.16c0,.22-.07.43-.11.65a2.92,2.92,0,0,1-.9.46C1.58,33.11,1.86,32.68,2.15,32.26Zm-.29,3.43c0,.29-.05.58-.07.88l-.46.13C1.36,36.06,1.56,35.79,1.86,35.69Zm16,36.66c.11.09.23.17.35.25C18,72.62,17.83,72.56,17.81,72.35Zm1.66,1.2s0,0,0,0a.08.08,0,0,1,0,0l.13,0ZM51.1,77.91a1.57,1.57,0,0,1-.66-.33A2.88,2.88,0,0,0,51.1,77.91ZM64,67.92c-.39.29-.79.62-1.16,1a38,38,0,0,1-7.65,4.73,3.56,3.56,0,0,0-1.29.57,41.7,41.7,0,0,1-8.92,2.64,34,34,0,0,1-5.62.53c0-.37.26-.57.91-.26.18-1.13-.56-.54-1.26.26H37.7a5,5,0,0,0,.47-.67,8.23,8.23,0,0,0-2.65.51C20.08,75.59,7.92,63.23,4.39,47.63a41.5,41.5,0,0,1-1-8.54c.13-1.41.46-2.31,0-2.61q0-.72.12-1.44c.07-.66.17-1.27.21-1.82A35.53,35.53,0,0,1,6.81,22.91l.59-1.2a34.86,34.86,0,0,1,4.91-7.13,34,34,0,0,1,2.76-2.74c1.73-1,3.51-2.22,3.76-2.92a42.83,42.83,0,0,1,8-4.17l.61-.22c.35.2,1.05-.15,1.8-.65.87-.3,1.75-.57,2.64-.83a2.63,2.63,0,0,1-.09.37c1.28.19,6-2.61,6.77-1.56s2.7.29,3.47,0c.19-.52,7,2.66,8.52,1.28.62.19,1.22.4,1.81.62a3.89,3.89,0,0,0,1.73,1.36.91.91,0,0,1,.27-.55c.19.08.39.16.57.25.06,1,1.94,1.13,2.7,2,0-.2,0-.4,0-.61l.66.39a1.59,1.59,0,0,0-.4.38,21.08,21.08,0,0,1,2.44,1.51A1.24,1.24,0,0,1,60.47,8l.52.38a1.82,1.82,0,0,1-.31.31C62,10.46,62.76,10.88,63,10l.45.39-.21.1c.49.38,1.39,1.54,2.1,1.7C71.87,18.89,75.7,28.29,76.21,39a38.45,38.45,0,0,1,0,4c-.09.79-.21,1.58-.37,2.38H76a36.13,36.13,0,0,1-.9,4.7,3,3,0,0,0-.17.65q-.28,1-.63,2l-.23-.1c-.28.7-1,2.57-1,2.77h.2c-.21.48-.44,1-.67,1.43a14.71,14.71,0,0,0-1.32,1.76.75.75,0,0,1,.51-.23,34.08,34.08,0,0,1-2.83,4.28c-.33.07-.71.39-1.37,1.18a.77.77,0,0,1,.38.05A36.56,36.56,0,0,1,64,67.92Z"/></g></g></svg>