<svg xmlns="http://www.w3.org/2000/svg" viewBox="0 0 80.66 82.17"><defs><style>.cls-1{fill:#fff;}.cls-2{fill:#463f3a;}</style></defs><g id="Capa_2" data-name="Capa 2"><g id="Capa_1-2" data-name="Capa 1"><path class="cls-1" d="M42.87,1.1C31.52-.14,22.62,4.91,19.1,7.24A40.06,40.06,0,0,0,1.83,43.94c2.26,21.6,24.7,42.4,47.3,37.07,19.21-4.52,30.67-26.07,28-45.1C74.6,18.39,60.09,3,42.87,1.1Z"/><path class="cls-2" d="M39.6,60.5a4.72,4.72,0,0,1-1.23-.57.15.15,0,0,0,.06-.09c0-.05-.11,0-.21,0-1.53-1-2.91-2.58-4.15-3.12l-.08.05-.08-.09a1.38,1.38,0,0,0-1.14,0l.66-.27a1,1,0,0,0-1.14.46l-.22-.1c-.09-.17-.24-.28-.37-.11-.35,0-.48.27-.16,1.14,1.42,3.84,6.75,7.56,10.81,7.73,1.14.05,3.09-.94,5-2.31.3-.22.6-.44.89-.68.12.13.17,0,.18-.14,3.19-2.58,5.74-5.92,3.19-6.61-1.27-.35-2.53,1.84-4.18,3.87-.09,0-.11,0-.09.12a9.72,9.72,0,0,1-3,2.65,7.27,7.27,0,0,0-1.14.18c.54-.92-.61-.28-1.13.25h-.12A9.32,9.32,0,0,0,40.78,62s.84.14.41-.25C41.25,61.77,39.89,60.74,39.6,60.5Zm-4.76-1.74-.1-.09C34.82,58.59,34.85,58.66,34.84,58.76Zm2.29,1.83L37,60.52a.64.64,0,0,1,.23-.18A.77.77,0,0,1,37.13,60.59Zm-.21-.21-.05,0,0,0S36.91,60.35,36.92,60.38Zm-.21-.4c-.14.1,0-.14,0,0Zm-1.35-1.66c-.92.59.31-.71,0,0ZM35,58.08c-.58.64-.19.07-.14,0S35,58,35,58.08Zm-.29-.34c.26,0-.63,1.27,0,0Zm-2-.88s.22.25,0,.25L32.59,57Z"/><path class="cls-2" d="M29.36,45.23l.11-.15q.84-.81,1.68-1.74c1-.78,1.72-1.42,1.59-1.54-.21.16-.44.3-.66.44.27-.34.53-.68.79-1L34,40.36a3.83,3.83,0,0,0,.56-1.83c0-.09.09-.18.13-.27a4.66,4.66,0,0,0,1-2.36,1.88,1.88,0,0,1,.11.84,16,16,0,0,0,.41-5.32c.1.3.19.59.28.89.7-.05-2.69-4.76-2.43-4.64-.45.42-1.11.13-.1,0-2.34-.8-5.13,1.07-7.24,2.05a14.75,14.75,0,0,0-3.59,3s.08.05.17.18l-.14.19a1,1,0,0,1-.06-.33,3.72,3.72,0,0,0-.41.66,7.82,7.82,0,0,0-2-2.51,3.07,3.07,0,0,0,.68,0,.83.83,0,0,0-.87-.19,7.18,7.18,0,0,0-3-1.36c-1.19-.85-2.21-1.5-2.34-1.27.19-.08,1.34.79,1.63,1-.4-.24-3.49-.82-4.48.19-.72.73-.34,1.15.32,1.3a4.74,4.74,0,0,0-.53.64c0-.15,0-.28-.15-.32a4.06,4.06,0,0,0-.69,2.41,2.34,2.34,0,0,1-.23-.81,14.2,14.2,0,0,0,.29,4.8A23.33,23.33,0,0,1,12.41,41c.49-.18.85.18,0,0,.37.34,1,.89,1.68,1.53-.07,0-.13,0-.14.1s.23.14.36.09a35.34,35.34,0,0,0,6.5,4.82l.07-.06.18.12-.07,0c.8.34,1.39.37,1.6-.11a1.55,1.55,0,0,0,0,.8c.16-.36.26-.51.3-.46v-.31c.66.2,1,.23.79-.07l.44-.34c-.92,1.42-1,2.41,1.41,1a7,7,0,0,0,2.65-1.65L28,46.39c.29-.23.58-.49.87-.75a1,1,0,0,0-.07.15s0-.1.07-.15A3.74,3.74,0,0,1,29.36,45.23Zm6.33-12a.09.09,0,0,0,0-.05h0S35.71,33.18,35.69,33.2Zm-.19-1.4c.26.27-.87-.82,0,0Zm-5.49-3h-.09a.27.27,0,0,1,0-.12A.39.39,0,0,1,30,28.81Zm-4.2,1.64a.69.69,0,0,1,0,.27l-.06.05C25.58,30.74,25.3,30.23,25.81,30.45Zm-.5.46.13.15-.1.08a.2.2,0,0,0-.05-.05C25.24,31,25.25,30.93,25.31,30.91Zm-.34.54a1.29,1.29,0,0,1-.17.16c0-.07,0-.15-.07-.24C24.78,30.84,24.86,31.07,25,31.45Zm-9-2.15a5.19,5.19,0,0,0-1,.13C15.1,29.05,15.48,29.07,15.93,29.3Zm-1.73.33-.09,0C14,29.5,14.19,29.54,14.2,29.63ZM13.68,29s0-.06.05,0-.46.8-1,.59A.89.89,0,0,1,13.68,29ZM13,30.05c.16.14-.33.11-.4.09C12.41,29.69,12.58,29.65,13,30.05Zm-.51.21s0,0,.19.09l.07.15-.11.1C12.43,30.45,12.21,30.16,12.46,30.26ZM11.55,32c0-.08-.05-.27.21-.33-.06.1-.11.2-.16.3S11.51,32.08,11.55,32Zm6.83,13.61.2.09C18.47,45.8,18.37,45.81,18.38,45.61Zm1,.68c-.43,0-.36,0,0-.2l.21.1Z"/><path class="cls-2" d="M48.9,37.9c-.07-.14-.17-.27-.25-.42A24.92,24.92,0,0,1,50,40.8c.44-.13.72.16,0,.08.15.15.83.76,1.66,1.45-.07,0-.12,0-.13.1s.22.13.35.09a13.94,13.94,0,0,0,3.36,2.27l.29.21c-.34,1.09,1.18,2,2.59,2.38,0,0,0-.07.16-.19l.2.12a1.07,1.07,0,0,1-.31.08c1.14.3,2.18.23,2-.39a.82.82,0,0,0,.59.5c-.15-.29-.22-.46-.2-.52s.13,0,.3.15l-.16-.19a.69.69,0,0,0,.19-.1l.38-.25a.25.25,0,0,0,0,.07c.28.57,2.9-1.42,2.82-1.53a.52.52,0,0,0-.77.07,1.17,1.17,0,0,1,.08-.13q.89-.65,1.83-1.41c-.07.15-.13.31-.09.3a1.88,1.88,0,0,0,.23-.42c.79-.65,1.58-1.34,2.33-2.08.35-.3.56-.5.56-.58C71,38,72.91,34.7,71.51,31.54a2.36,2.36,0,0,0,0-.28c.08.28.17.55.26.83.44,0-2.18-4.58-2-4.43-.46.36-1.1.08-.09,0-.89-.35-7.59.33-7.24,2.22-.88-.83-2.42.8-3,2.29-.19-1-1.5-2.9-1.77-2.63a.7.7,0,0,0-.06.3,11.08,11.08,0,0,0-2.16-1.2c.08,0,.71.1.66,0s-.75-.16-.67,0a3.84,3.84,0,0,0-.4-.14c.2-.87-2.5-.67-3.48-.56a8.63,8.63,0,0,1,1.13.3,5.05,5.05,0,0,0-.56.12,7.87,7.87,0,0,0-3.32,1.15c-.79.92-.17,1.29.7,1.29A6.63,6.63,0,0,0,49,32.39c-.49-.52,0-1.17-.41-1.29a4.55,4.55,0,0,0-.36,2.48,2.29,2.29,0,0,1-.35-.74C47.86,33.86,48.27,36.94,48.9,37.9Zm-.07-1.81s0-.07.09-.14a.31.31,0,0,0,0,.1Zm15.41-4.35a6,6,0,0,1,1.24-.63,4,4,0,0,1,1.11-.26A16.54,16.54,0,0,0,64.24,31.74ZM55.85,45.25l.15.11C55.91,45.42,55.84,45.4,55.85,45.25Zm.75.52.18.13C56.44,45.9,56.43,45.86,56.6,45.77Zm2.95.94.1,0,.18.15A.56.56,0,0,1,59.55,46.71Zm7-18h-.1s0-.06,0-.11Zm-.65-.25a.46.46,0,0,1,.13.34l-.15,0A.6.6,0,0,1,65.88,28.42Zm-.29.34,0,.1-.1,0C65.49,28.81,65.53,28.75,65.59,28.76Zm-.64,0c0,.17-.17,0,0,0ZM62,30c.23.93-.73-.32,0,0Zm-.46.43a1.76,1.76,0,0,1,.21.26l-.06.05-.16-.13C61.51,30.54,61.51,30.48,61.57,30.46Zm-.26.62-.16.13c0-.09-.07-.19-.12-.31C61,30.31,61.19,30.74,61.31,31.08Zm-1.65,1.3-.13.19C59.5,32.49,59.31,31.92,59.66,32.38Zm-4.8-4-.06,0S54.85,28.39,54.86,28.41Zm-4.7.6c0,.2-.35.79-.79.64A.85.85,0,0,1,50.16,29ZM49.6,30.1c.17.14-.33.13-.39.11C49,29.77,49.19,29.73,49.6,30.1Zm-.5.23s0,0,.2.09C49.83,31.25,48.64,30.18,49.1,30.33Zm-.56,1.45c0,.11-.24.55-.18.37S48.27,31.87,48.54,31.78Z"/><path class="cls-2" d="M74.32,18.49A35.56,35.56,0,0,0,56.74,3.6,56.73,56.73,0,0,0,45.25.3c-.6-.11-3.66-1-3.27,1,.13.66,1.84,1.09,3.57,1.38a40.32,40.32,0,0,0,5.8,2.41c2.21.33,3.52,1.73,6.63,1.66.11,0,.14,0,.12-.08,1,.54,2,1.13,3,1.75-.52.67.82,1.14,2.17,1.51.57.42,1.12.87,1.67,1.32l-.3.14a11.32,11.32,0,0,0,2.71,2.05c.87.86,1.69,1.75,2.47,2.69-.3,1.13,1.35,2.38,2,2.9.83-.17,1.93,8.92,4.41,8.05.72,1.37-.16,2.42.33,4.2.43-1,.75-.29,1.12,0a1.33,1.33,0,0,0,0,.19c-1.45.52,0,2.38-.18,3.62l.78-.77c.07.44.14.87.2,1.31a1.67,1.67,0,0,0-.95-.26,25.41,25.41,0,0,1,.34,2.88.78.78,0,0,1,.89-.08c0,.16,0,.32,0,.49a1.4,1.4,0,0,1-.86,0c-.74,2.47-.47,3.27.79,2.38a.38.38,0,0,0,.15,0c0,.41,0,.83,0,1.24a6.33,6.33,0,0,0-.82-.49c0,.84-.83,3.52.66,3.11V45a1.75,1.75,0,0,0-.32,2.47c-.1.66-.22,1.32-.36,2-.91.25-1.78.66-1.09,2.06a1.18,1.18,0,0,1,.73-.46c-.23.91-.48,1.81-.77,2.69A13.44,13.44,0,0,0,74.5,57.8l.66.3c-.08.18-.16.35-.25.53l-.24-.15a3.7,3.7,0,0,1-.1.83c-.32.64-.65,1.27-1,1.89a4.37,4.37,0,0,1-.88.68,2.48,2.48,0,0,0,.45,0c-.35.59-.72,1.17-1.1,1.74A1.84,1.84,0,0,0,71.7,63C70.79,64.35,70,65.93,69,67.24a2.77,2.77,0,0,0-.3.73c-.68.75-1.38,1.47-2.12,2.17a6.86,6.86,0,0,1,.35-.78c-2.5,2.23-4.8,4.37-7.86,5.85a2.4,2.4,0,0,0,.21.31l-.71.38c-.93.5-1.89.95-2.87,1.36a3.53,3.53,0,0,0-2.13.82l-1.49.47c0-.14-.05-.27-.09-.4-.81.23-2.65.63-2.92.78a2.65,2.65,0,0,0,.25.3c-.36.08-.72.15-1.09.21a15.92,15.92,0,0,0-2.88-.13c.37.09.54.24.53.46l-.78.08A34.64,34.64,0,0,1,41,80a1,1,0,0,1,.07-.25,9.6,9.6,0,0,1-2.32-.43,1.08,1.08,0,0,1,.25.57,37.5,37.5,0,0,1-4.36-.62,14.18,14.18,0,0,0-4.86-1.3l-1.43-.52c-.36-1-1.09-1.84-2.08-.86l-1-.46c-1.2-1.06-3.2-2.61-4.1-2.28-.33-.18-.6-.36-.87-.54-1-.8-2.46-2.26-2.76-2.54a3.11,3.11,0,0,0-1.92-1c-.44-.38-.86-.78-1.28-1.18.17-.12-.23-.45-.86-.84a39.74,39.74,0,0,1-3.31-3.79c.26-.12.51,0,.7.57.92-.57.1-.77-.9-.83-.35-.46-.69-.93-1-1.4a2.59,2.59,0,0,1,.87.36,5.55,5.55,0,0,0-1.5-1.32,37.82,37.82,0,0,1-3.27-6.12c-.29-.68-.54-1.36-.78-2-.27-1.33-.53-2.7-1-4.21-.16-.59-.32-2-.62-3A36.4,36.4,0,0,1,3.3,34.6c.19-.43.35-.67.49-.61a17.84,17.84,0,0,1,.1-1.82A47.24,47.24,0,0,1,8.58,21.08c.58-.88,1.18-1.77,1.79-2.71a.5.5,0,0,1-.12,0c.12-.17.23-.36.36-.53v.21a29.7,29.7,0,0,1,4.91-5.29,3.31,3.31,0,0,1-.56-.17l.5-.52c.82.22,1.31-.34,2.92-1.63S21.31,9,20.47,8.07c.2-.14.4-.28.6-.4l.29.56c1.57-1.2,2.9-1.55,3.51-2.61l.77-.34a.49.49,0,0,1,0,.42l1.09-.54-.24-.24.52-.2a1.37,1.37,0,0,1,0,.29c4.41-1.87,9.17-1.63,13.37-3.53.52-.25.1-.49-.68-.69.65-.21,1.07-.36,1-.35-.66,0-1.32.08-2,.15a35.23,35.23,0,0,0-4-.47,8.24,8.24,0,0,0-3,.69h1.32c-.73.57-1.24.67-1.54.32A.91.91,0,0,1,31.5,1c-1.15.59-2,1.37-3.25,2-.58.21-1.15.44-1.71.67l-.24.08c-.15.09-.34.17-.53.26.44-.52-.64-.25-.32-1-.95.41-5.78,2.92-5.56,3.07l1.91-.84C20,6.14,13.91,8.93,13.44,11l.88.57-.37.35a3.22,3.22,0,0,1-.53-.82C12,13.6,10.21,13.24,9.08,16.53a19.84,19.84,0,0,1-.85,1.9,46.49,46.49,0,0,0-2.9,4.69.85.85,0,0,1-.31.2C3.92,23.7.3,33.93,1,35c0,0,.06-.25.2-.5A34.3,34.3,0,0,0,.51,39.2c-.11.42-.18.73-.22.85-.62,2.65-.14,6.08.4,8.7A2.67,2.67,0,0,0,1,48.44a37.69,37.69,0,0,0,1.78,6.44,11.21,11.21,0,0,0,1.1,2.68c.53,1.15,1.11,2.28,1.74,3.38.49,1.82,2.48,4.09,3.79,5.5a43,43,0,0,0,4.8,5A8,8,0,0,1,15,72.79c.82,1.91,2.37,1.53,3.69,2.2,1.08.74,2.19,1.45,3.35,2.1,14.25,8.11,33,6.44,45.31-4.53C82.87,58.73,84.31,35.88,74.32,18.49Zm-46-14-.21-.15.23-.08C28.36,4.39,28.45,4.54,28.33,4.46Zm-4.83.6c-.39.06-.21.12-.08.08l-.76.4A3.22,3.22,0,0,1,22,5.2ZM19.4,7.2c.44-.33.74-.41,1-.32l-.75.49Zm53.82,15c.19-.3.33-.49.43-.63l.39.69A1.62,1.62,0,0,0,73.22,22.16Zm-3.12,44a4.94,4.94,0,0,1,.57-.55l-.42.53Z"/></g></g></svg>