<svg xmlns="http://www.w3.org/2000/svg" viewBox="0 0 79.05 79.06"><defs><style>.cls-1{fill:#fff;}.cls-2{fill:#463f3a;}</style></defs><g id="Capa_2" data-name="Capa 2"><g id="Capa_1-2" data-name="Capa 1"><path class="cls-1" d="M41.91,2a37.24,37.24,0,0,0-24.76,5.9C5.94,15.48.66,28.68,1.3,40.3,2.33,58.89,18.83,79,41.87,77.66c22.18-1.33,38-21.87,35.7-42.27C75.36,16.06,57.61,3.73,41.91,2Z"/><path class="cls-2" d="M56.53,36.57c.08.58.19,1.16.31,1.71a.17.17,0,0,1,.07.13,8.13,8.13,0,0,0,.6,2h.06l.06.14-.06,0c.23.43.47.68.73.64l.07.08c-.24.3,0,.15.09.09l.1.09a.86.86,0,0,1-.05.15.4.4,0,0,1,.07-.13,2.67,2.67,0,0,0,.54.36,2,2,0,0,0,0,.26l.12-.22A2.15,2.15,0,0,0,60,42c2.06,0,2.81-1.35,2.85-3.17,1.19-1.38.4-5-1.62-6.39a9.59,9.59,0,0,0-.46-.86c.09,0,0-.2-.26-.41a3.79,3.79,0,0,0-.4-.5,1.36,1.36,0,0,0-1.94-.14l0-.13a3.2,3.2,0,0,0-.25.27A6.85,6.85,0,0,0,56.43,33,5.21,5.21,0,0,0,56,34.31,4.62,4.62,0,0,0,56.53,36.57Zm3.32,2a2,2,0,0,0,.61-.5,3.46,3.46,0,0,1-.37,1A3.74,3.74,0,0,0,59.85,38.53Z"/><path class="cls-2" d="M70.89,15.05A31,31,0,0,0,57.65,4.94C56.21,4.34,43.29-.13,42.78,1.6c0,.11.67.42,1.73.83-.07,0-.11,0-.12,0s.1.17.28.27a3.68,3.68,0,0,0-1.43-.3c.26-.07,7.54,4.64,8.21,3.26,2.25.52,2.84,2.21,6,2,.46,0-.4-.5-1-.8a41.33,41.33,0,0,1,4.11,2.32c-.87.8,1,1.32,2.49,1.74.43.33.84.68,1.25,1a3.72,3.72,0,0,1-.48.23,13.16,13.16,0,0,0,2.92,2.18c.24.26.49.52.71.8.45.54.88,1.11,1.29,1.7-.19.94,1,2,1.62,2.59.08.14.17.28.25.43.33,1.27,1.59,6.46,3.1,7.45.25.82.48,1.65.68,2.48a3.92,3.92,0,0,0,.06,1.72l.31-.13c.07.34.13.68.19,1-.19.78.49,2,.38,2.88l.07-.07c0,.11,0,.23,0,.35l-.09,0c.11,1.11.22,1.89.31,2.43,0,.26,0,.52,0,.78l-.09,0c-.6,1.91-.55,2.76.15,2.59,0,.16,0,.32,0,.48l-.1-.06c0,.93,0,1.75,0,2.51,0,.38-.06.77-.1,1.15A32.06,32.06,0,0,1,75,49.28c-.59.24-1,.69-.51,1.75l.08-.09a32.5,32.5,0,0,1-1.06,3.11A19.59,19.59,0,0,0,71.81,57l.26.14A34.79,34.79,0,0,1,69,62a1.38,1.38,0,0,0-.15-.25c-.65.88-1.26,1.85-1.91,2.76a36.36,36.36,0,0,1-4,3.78c-1.26,1-2.52,1.91-3.82,2.77a37.22,37.22,0,0,1-10,4.37.15.15,0,0,1,0-.07,27.66,27.66,0,0,0-2.85.65l0,.06c-.82.15-1.65.28-2.49.38a6,6,0,0,0-1.16-.19.78.78,0,0,1,.45.25,33.43,33.43,0,0,1-4.59.14l0-.13a8.83,8.83,0,0,1-2.22-.44.9.9,0,0,1,.2.44A33.41,33.41,0,0,1,32.78,76l-.82-.2a18.12,18.12,0,0,0-3.33-1c-.82-.28-1.62-.58-2.42-.92-.33-.69-.86-1.15-1.54-.7A39.29,39.29,0,0,1,4.4,49.38c-.29-2.46-.65-4.91-1.33-6.19A35.88,35.88,0,0,1,2.76,39,37.83,37.83,0,0,1,13.38,12.4c.35-.31.7-.61,1.08-.9l-.11,0c.16-.14.31-.3.46-.44l.28-.23a8.22,8.22,0,0,0,2.17-1.44c1.28-1,2.61-1.15,2.35-1.85l.53-.33a.91.91,0,0,1,.07.14,17.84,17.84,0,0,0,3-1.85l1.21-.6s0,.07,0,.12l1.07-.46-.1-.11.39-.17s0,.1,0,.16C30,2.42,34.5,3.19,38.7,1.68c.66-.26-.11-.6-1.25-.9A15.84,15.84,0,0,1,39.1.71c-.64,0-1.28,0-1.91,0A30.54,30.54,0,0,0,33.43,0a7.58,7.58,0,0,0-3,.5l1.35.05c-.72.53-1.22.61-1.5.27a1.28,1.28,0,0,1-.11-.2,29.07,29.07,0,0,0-2.52,1.52c-1,.29-2,.61-3,1-.1-.18-.64-.19-.39-.73-.92.36-5.62,2.64-5.43,2.79a18.52,18.52,0,0,0,1.85-.77C19,5.24,13,7.81,12.52,9.69l.58.4-.3.27a3.16,3.16,0,0,1-.3-.58C11.22,12.4,9.58,12.67,8,15.56a37.09,37.09,0,0,0-2.64,4A11.52,11.52,0,0,0,3.81,22C3.24,23.3.7,29.48.73,32.05c-.1.5-.18,1-.26,1.49a39.26,39.26,0,0,0,12.17,35,17.69,17.69,0,0,1,1.55,2.3c.46.83,2,.89,2.87,1.21a39.86,39.86,0,0,0,15,6.24c22.83,4.45,44.07-10.39,46.78-33.87A41.7,41.7,0,0,0,70.89,15.05ZM20.86,4.4l.89,0-.53.26Zm25.56-1,.08,0ZM71.86,22.69l.09-.13.06.12Z"/><path class="cls-2" d="M23,35.44a3.75,3.75,0,0,1-.36,1.21c-.29-.07.93-3-.79-3.52a2,2,0,0,0-.14.6,4.48,4.48,0,0,0-.39-.88c.55.81,0-.34-.07-.42a1.09,1.09,0,0,1,.53.08.58.58,0,0,1-.05-.11,7.07,7.07,0,0,0-.78-.86c1.1-.05-1.57-.85-2.8-.54-.57.73-1.91,2.69-2.12,2.11a7.5,7.5,0,0,0,0,1.8c0-.09-.12-.2-.19-.14s.1.33.19.24a26.14,26.14,0,0,0,.4,3.05c-.26,2.61.4,4.92,3.58,3.74A2.4,2.4,0,0,0,21,41c.84-.25,1.74-.73,1.3-1a.52.52,0,0,0-.52.3,18,18,0,0,0,.87-2.55c0-.26.05-.38.1-.34C23,36.31,23.19,35.43,23,35.44Zm-.73-1.92s.05,0-.1,0C21.49,33.42,22.52,33.35,22.24,33.52ZM16.48,36.2c.1,0-.05.1,0,0Zm.08-.43.14.09C16.8,36,16.52,35.87,16.56,35.77Zm3.54,3.29c-.05-.16-.1-.31-.14-.47a4.52,4.52,0,0,0,.33-.51A3.16,3.16,0,0,1,20.1,39.06Zm1.84-4.65c-.22-.6,0-.43,0,0Zm-.89-2.06-.11-.1C21.09,32.15,21.13,32.19,21.05,32.35Zm-.62-.46s.2-.42,0,0Zm-1.26-.61q-.09,0-.12-.21C19.1,31.07,19.26,31.3,19.17,31.28Zm-1.05.13c.37-.47-.47.8,0,0Zm0,.94.05-.09,0,.07c.23-.43.5-.89.5-.89A7,7,0,0,1,20,32a1.48,1.48,0,0,0-.67.27c-.5-.16-1,0-1.44.69l-.08.13c.1-.26.2-.5.27-.67l-.31.64A4.91,4.91,0,0,1,18.11,32.35Zm-.66.57c-.07,0-.11,0-.13-.11S17.48,32.84,17.45,32.92Zm0,.27c-.06.15-.24-.21,0,0ZM17,34.38c.05.1.13,0,.23-.12-.08.23-.17.48-.25.74C17,35,17,34.81,17,34.38Zm-.11.75c-.08.1-.15.09-.19,0S16.85,35.06,16.93,35.13Zm-.28,0c.15.06.12.09-.09.08Zm.1.43c-.09.09-.2.09-.34,0A.27.27,0,0,1,16.75,35.52Zm1.4,4.06v-.25a5.06,5.06,0,0,0,1,.62A.73.73,0,0,1,18.15,39.58ZM22,38.94h-.08a10.47,10.47,0,0,0,.23-2.33C22.34,37.59,22.47,38.46,22,38.94Zm.21-5.06c-.13,0,.06-.23.09-.26C22.54,33.73,22.51,33.82,22.18,33.88Zm.38.77h0C22.33,33.79,22.77,34.51,22.56,34.65Z"/><path class="cls-2" d="M39.5,52.79a3.54,3.54,0,0,1-.57.22l-.31,0a8.89,8.89,0,0,1-2.3-.36c0,.55-.31.57-.06,0a8,8,0,0,1-1.58.54.26.26,0,0,0,0-.23c0-.06-.18.11-.21.27l-.55.1c-1.23,0-2.34.06-3.2,0a3.23,3.23,0,0,0-1.58-.27A.29.29,0,0,1,29,53a.54.54,0,0,1,0,.11.64.64,0,0,1-.37-.09c-.28-.23-1.45.68-1.58,1.27a2.17,2.17,0,0,0,0-.88c-.19.78-.27.85-.25.21a3,3,0,0,1-.34,1.57c0-.08.76,1.08.59.94,0,0,6,.12,7.82.06l.34,0c-2.54.43-4.4.83-4.24.83,1.63.05,16.07.32,16.85-1.07a.91.91,0,0,0,.32-.41c1.09-.12,2.1-.26,2.91-.4.13.28.36.62.26,0l.12,0c.16.33.4.94.25,1C52,56,51.87,55,52,55l.45,0,.4,0a1.26,1.26,0,0,1,.08-.18.61.61,0,0,1,0,.18c.29,0,.52,0,.53,0-.08,1.23,2.28-.93,2.32-1a13.45,13.45,0,0,1-1.43.38c.11,0,.2.17.1.46,0-.06-.91-.5-1-.62.18-.51.93.06,1.25-.07.9-.36-1.56-1.08-2.27-.89a2.87,2.87,0,0,0-.29-.31l.07-.12a.59.59,0,0,0-.14.06c-1.85-1.53-5.34-.77-7.46-.44-.35.05-1.17.14-2.25.25a1.7,1.7,0,0,0-.76.08L39.29,53C39.43,52.94,39.51,52.88,39.5,52.79Zm-12,2c-.16.18-.21.08-.13-.28C27.34,54.49,27.83,54.54,27.46,54.75Zm1-1.25-.15,0C28.41,53.39,28.76,52.9,28.5,53.5ZM53.94,55l-.22-.39C53.79,54.41,53.9,54.41,53.94,55Zm-24,.13c0,.06-.14.65,0,0Zm0-.85,0,0c-.37.57-.4.51-.11-.17Zm-.26.77c-.07.05-.12.33-.14,0Zm-.51.74a7.05,7.05,0,0,0,1.16.21C29.91,56.09,29.07,56.27,29.12,55.78Zm1.32.17Zm.08-.27c-.08.08,0-.25.12-.17Zm0-.71a1,1,0,0,1,0-.16,1,1,0,0,0,.16.12Z"/></g></g></svg>