<svg xmlns="http://www.w3.org/2000/svg" viewBox="0 0 79.82 82.3"><defs><style>.cls-1{fill:#fff;}.cls-2{fill:#463f3a;}</style></defs><g id="Capa_2" data-name="Capa 2"><g id="Capa_1-2" data-name="Capa 1"><path class="cls-1" d="M42.9,2.64A35.71,35.71,0,0,0,18.31,8.77C7.19,16.69,1.94,30.42,2.58,42.5,3.6,61.82,20,82.77,42.85,81.33,64.87,80,80.62,58.6,78.3,37.39,76.11,17.3,58.49,4.48,42.9,2.64Z"/><path class="cls-2" d="M29.38,37.53a3.64,3.64,0,0,0-.57-.7c.06-.2.12-.37.12.07,0-.71.22-1.28,0-1.61.24.33-1.81-.18-2.7-.62l-.32-.24a.58.58,0,0,0-.05-.16s0,.08,0,.13l-.76-.53c.31-.07.11-.13-.24-.16-.46-.31-.94-.62-1.42-.91,0-.06,0-.1,0-.11l-.18,0c-.64-.39-1.29-.76-1.91-1.09a.06.06,0,0,1,0-.06.06.06,0,0,0,0,.05l-.76-.37s0-.1-.07-.11l0,.1-.71-.33c.08-.16.19-.55-.12-.05a3.74,3.74,0,0,1,.21-.59l-.41.42a.41.41,0,0,1-.09-.18,1.2,1.2,0,0,0-.11-.2.3.3,0,0,1-.19.21.48.48,0,0,1,.19-.21c-.06-.12-.15-.19-.24-.1.45-.27.12-.43-1-.49,0,0,.36.45.57.48l-.06,0c.05.08.07.09.06.05a.27.27,0,0,0,.14.14.16.16,0,0,1-.09.08l-.17-.05c-.12-.14-.21-.44-.43-.22a.34.34,0,0,0-.07.11c-.67-.11-1.12,0-1.23.45-.27,1.08,1.13,2.38,2.72,3.48-.47.94-1.18,2.4-1.4,1.71-.05.19-.19.85-.31,1.63,0,0-.07-.08-.11-.06s0,.21.08.25a16.27,16.27,0,0,0-.18,1.78,4.78,4.78,0,0,0-.07,1.88c-.11.58.52,1.55,1.2,2.3,0,0,.14.12.14.12.6.67,1.22,1.12,1.23.83a2.08,2.08,0,0,0-.07-.79,2.48,2.48,0,0,0,.72,0c-.09.28-.17.59-.27,1-3.06,3.19.59-.41.92-1.13,0,0,0,0,0,.08s.14-.17.09-.12a.13.13,0,0,0-.09,0l.06,0a2.27,2.27,0,0,0,.34-.19,3.59,3.59,0,0,0-.68,1.08c.19.31,1.84-1.66,1.66-1.79a.41.41,0,0,0-.47.3.29.29,0,0,1,0-.09,1.77,1.77,0,0,0,.16-.22c.26-.09.48-.73.61-1.62.07-.18.15-.36.23-.54s.09-.36.14-.33c.42-1,.74-1.87.51-1.88a3.87,3.87,0,0,1-.53,1.17c-.08,0,.59-1.81.19-2.94C25.21,37.18,30,38.68,29.38,37.53ZM19,30.05l-.12.25C18.76,30.36,18.73,30.33,19,30.05Zm9.78,6.73-.05,0a.72.72,0,0,0,.08-.26C28.79,36.61,28.78,36.7,28.77,36.78ZM20.82,39.9l.06.14c-.08.51-.15,1-.2,1.35A6.78,6.78,0,0,1,20.82,39.9Zm-1-.47a6.65,6.65,0,0,1,.2-.83c0-.13.09-.26.14-.39l0,.07a13.4,13.4,0,0,0-.4,2A3.38,3.38,0,0,1,19.78,39.43Zm3-.92a.86.86,0,0,1,0,.23.51.51,0,0,0,0-.13A.44.44,0,0,0,22.74,38.51Zm4.93-2.72c0-.07,0-.11,0,0Zm1,.39c.08-.12.1-.07,0,.18C28.72,36.36,28.49,36.34,28.67,36.18Zm-.6-.64a3,3,0,0,0-.43-.2C27.81,35.32,28.16,35.24,28.07,35.54Zm-.59,0s0,.05-.05.09S27.48,35.51,27.48,35.51ZM19.85,44a1.43,1.43,0,0,1-.13-.13l.18,0A.41.41,0,0,1,19.85,44Zm3.87-6.45.05,0Zm-.32-.83c-.09,0,0-.09.05-.17l.23.09S23.58,36.7,23.4,36.71Z"/><path class="cls-2" d="M79,33.13C76.72,22.2,70.09,11.47,60.33,5.78,55.65,3.05,50,.64,44.56,0a53.4,53.4,0,0,0-8.14.57A19.25,19.25,0,0,0,34.25.43,7.85,7.85,0,0,0,31,1.29l1.51-.09-.28.23c-.39.11-.77.23-1.11.36a.7.7,0,0,1-.2-.15.8.8,0,0,1-.15-.21,9.8,9.8,0,0,0-1.48,1.1,35.91,35.91,0,0,0-4.66,1.86.45.45,0,0,1,0-.4c-1,.49-5.78,3.4-5.57,3.53.3-.13.59-.3.88-.44l-.43.27c-2.55,1.41-6.61,3.77-7,5.45l.27.17a1.21,1.21,0,0,0-.16.16c0-.08-.1-.15-.14-.23-.17.31-.36.64-.57,1a46.63,46.63,0,0,0-5.4,7,25,25,0,0,0-3.16,5.38C2.66,28.09-.26,35.35.31,37.77A35.78,35.78,0,0,0,0,43.62c0,.2,0,.39,0,.58A17.42,17.42,0,0,0,.64,49,39,39,0,0,0,7.87,65.12a17,17,0,0,0,3.54,4.14A43.43,43.43,0,0,0,18,74.84a8.45,8.45,0,0,1,.81,1.08c1,1.65,2.36,1.34,3.68,1.63a39.59,39.59,0,0,0,22.73,4.53C68.65,79.46,83.62,55.61,79,33.13Zm-5.88,26a3.14,3.14,0,0,1,.18-.31C73.22,58.91,73.17,59,73.1,59.12Zm-7-45.23.16.17-.24.1C66,14.06,66.06,14,66.08,13.89ZM39.92,79.69a14.72,14.72,0,0,0-5.06-.55q-.81-.15-1.62-.33c-.51-1-1.36-1.68-2.23-.59-.4-.12-.8-.23-1.19-.36-1.36-.9-3.52-2.11-4.41-1.76-.56-.26-1.1-.53-1.64-.81-1.07-.71-2.31-1.65-2.6-1.86a3.64,3.64,0,0,0-1.68-.72,41.58,41.58,0,0,1-5.94-5c.17-.4-.82-1-1-1.29a.32.32,0,0,0-.27,0l-.43-.48.32.12a5,5,0,0,0-.77-.65A36.87,36.87,0,0,1,3.29,48.87a29.17,29.17,0,0,1-.46-3.19.43.43,0,0,0-.06-.61A34.18,34.18,0,0,1,3,37.24c.1-.26.21-.4.31-.37.09-.77.13-1.57.2-2.42a40.92,40.92,0,0,1,7.72-16.29,19.11,19.11,0,0,1,3.47-3.49l-.39-.11c.18-.19.36-.39.55-.58.71,0,1.25-.57,2.78-1.81s3-1.51,2.24-2.43l.58-.4.22.37c1.26-1,2.6-1.62,3.27-2.53.34-.19.7-.37,1.05-.55a.33.33,0,0,1,0,.14l1.11-.6-.08-.07.37-.18a.24.24,0,0,1,0,.08,17.54,17.54,0,0,1,4.64-1.84c2.11-.19,6.83,0,8-.25,2.19-.53,4.08.61,7-.61.17-.07-.2-.2-.61-.3a25.94,25.94,0,0,1,4.26.86c-1.23,1.43,1.82,1.26,3.66,1.29l1.19.52a2.8,2.8,0,0,1-.59.59c.69.66,2.81,1,4.48,1.48.79.48,1.54,1,2.26,1.49,0,1.08,1.92,1.87,2.41,2,1.6.56,4.53,7.39,6.68,7.12.37.52.74,1.05,1.09,1.59a5.91,5.91,0,0,0,.59,2.42c.1-.6.31-.68.55-.59.15.26.29.52.43.78-.8.9.87,2.37,1.07,3.54l.4-.72c.15.31.28.62.41.93a1.71,1.71,0,0,0-.7.07c.4.91.78,1.84,1.13,2.78a1,1,0,0,1,.58-.36c.08.21.15.42.22.63a1.64,1.64,0,0,1-.67.14c.18,1.52.51,2.16,1.39,2.16.11.39.22.78.32,1.17a7.48,7.48,0,0,0-.81-.23,16.87,16.87,0,0,0,1.58,4.76c.1,1,.17,1.95.19,2.92-.87.45-1.64,1-.62,2.31a1.23,1.23,0,0,1,.61-.62c0,1-.1,1.94-.2,2.9a12.84,12.84,0,0,0-1.59,4.68l.76.18c0,.19-.09.39-.14.59l-.28-.1a2.07,2.07,0,0,1,.15.58c-.2.75-.42,1.5-.67,2.24-.24.37-.51.73-.76,1.07a2.73,2.73,0,0,0,.41,0c-.23.64-.48,1.28-.74,1.91a2.48,2.48,0,0,0-.48-.54A31.05,31.05,0,0,1,71.3,62a.56.56,0,0,1,.09.14c-.3.48-.62,1-.94,1.43,0-.17.06-.35.1-.52a46.57,46.57,0,0,1-6.61,7.8l.06.06a35.85,35.85,0,0,1-6.52,4.63l-.08-.17c-.78.44-2.59,1.23-2.8,1.41l.15.12c-.5.22-1,.43-1.52.63-1,.11-2.06.36-2.33.41a.79.79,0,0,1,.59.2c-1,.32-2,.59-3,.82-.61.13-1.22.24-1.82.33a.86.86,0,0,1,0-.16,9.49,9.49,0,0,1-2.44,0,1.06,1.06,0,0,1,.32.46A35.38,35.38,0,0,1,39.92,79.69Z"/><path class="cls-2" d="M50.93,36.66c.22.3.36.59.51.82-.2.3-.21.51.1.54a9,9,0,0,0,3.82-1.33c0,.1.09.28.17.21s0-.2-.07-.26l.27-.15c0,.22,0,.46,0,.7s0,.18-.07.25a5.86,5.86,0,0,0,.64,4.12.8.8,0,0,0,.14.17c.4,1.42.94,2.32,1.61,1.74-.76,1,.32-.19,0,.54.09-.21.16-.37.21-.51a2.08,2.08,0,0,0,1.84.28c0,.27,0,.57.05.92,0,0,.18-.62.27-1l.3-.16a2.82,2.82,0,0,0-.08.65c.15.12.52-.6.79-1.25a3.27,3.27,0,0,0,.88-2,10.7,10.7,0,0,0,0-1.6s0,.05,0,.06c.48.09.18-.44.06-.3a.53.53,0,0,0-.11.23l-.12-.83c.13-.64.19-1.1.07-1.09a5.28,5.28,0,0,1-.16.66c0-.2-.08-.39-.13-.58a3.56,3.56,0,0,0-.4-2.14s0,0-.15.08l-.1,0a.56.56,0,0,0,0-.12.65.65,0,0,1,.24,0,1,1,0,0,0-.34-.28c-.11-.28-.21-.55-.32-.82l.21.09A1.76,1.76,0,0,1,61,34c-.16-.26-.33-.52-.45-.7,2.46-2,4.12-4.11,2.93-5.3-.89-.89-2.56.52-4,2.1-.42-.42-.25.06-.11.11-.81.87-1.57,1.77-2.1,2.34-.1-.15-.27-.28-.45,0a.83.83,0,0,0,0,.42l-.07.07-.32.24a2.17,2.17,0,0,0-.38-.12c.27.37-1.06.59-1.39.55l-.6.51a.16.16,0,0,0,0-.07s0,.05,0,.12A26.9,26.9,0,0,0,51.49,36l0,0-.07,0a.71.71,0,0,0-.16.86C50.46,35.56,51.52,37.47,50.93,36.66Zm6.15,6.15.07.14C57.09,42.94,56.73,42.85,57.08,42.81Zm2.44-1.26a1.53,1.53,0,0,1-.12-.38,1.83,1.83,0,0,0,.37.44C59.7,41.72,59.62,41.73,59.52,41.55Zm2.3-5,0,0Zm-.3-1.07c.27.11.24.21-.09.26a.13.13,0,0,1,0-.07A.52.52,0,0,1,61.52,35.45Zm-8.72.64,0,0C52.75,36.08,52.77,36.08,52.8,36.09Zm-.16-.48c.26.91-.4-.46,0,0Zm-.19.13c.32.62,0,.16,0,.11S52.43,35.74,52.45,35.74Zm-.24.08c0-.27.78,1,0,0ZM51.58,37c0,.16,0,.13-.15-.1C51.44,36.94,51.63,36.8,51.58,37Z"/><path class="cls-2" d="M52.85,59.64a.67.67,0,0,0-.11.14c-.1-.28-.22-.56-.35-.85.18,0,.46-.34.92.54-.8-1.52-.6-.26-1-.65-.12-.27-.27-.55-.42-.82-.24-.45-.49-.86-.76-1.27a2.7,2.7,0,0,0-.63-.9c-2.83-3.77-7.41-6.9-11.66-5.87a4.3,4.3,0,0,0-1.1.21l.85-.4c0-.17-3.78,1.86-4.39,2,.15.45-.17.82-.09,0A20.29,20.29,0,0,0,32.3,55a16.11,16.11,0,0,0-2,3.56c-.09.23-.17.47-.25.71-.08.05-.09.1-.05.15-.1.31-.18.62-.26.94-.12-.08-.17-.06,0,.19-.06.27-.1.54-.14.81-.62,2-.7,3.46.42,3.2a1.35,1.35,0,0,0-.53.58c.45-.17.61-.18.51,0l.19-.2a.38.38,0,0,1,.1.13c0,.16-.06.12-.1-.13a5.72,5.72,0,0,1,.06.67c-.36.14-.46.28-.13.38l.16,0a.91.91,0,0,0,.38.79,17.59,17.59,0,0,1,2.91-.26,29,29,0,0,0,3.09,0l1.51-.08c-.88.65-.15.4.66,0,.87,0,1.73-.08,2.59-.08.13.1.21.18.17.2a2.28,2.28,0,0,0,.32-.18c.81,0,2.45.12,4.23.12a.29.29,0,0,0-.11.26c0,.38.31-.11.32-.26h.71c-.39.27,0,.11.14,0,.57,0,1.15,0,1.7-.06a2.3,2.3,0,0,0,.05.36c.06,0,.09-.2.11-.38l1-.08.15,0c0,.12.24.1.55-.08,1.4-.23,2.33-.64,2.13-1.35a4.08,4.08,0,0,0,.39-1.47C53.55,62.58,53.36,59.5,52.85,59.64Zm-20.76,6.7.64.09C32.48,66.51,32.16,66.55,32.09,66.34Zm15.4-9,.2,0a3,3,0,0,0-.47-.4c.56.65-1.2.31-1.61.31,0,0,.45-.12.65-.21h-.91a2.28,2.28,0,0,1-.3.07.13.13,0,0,0,0-.07h-.17l0,0v.06h-.1a.41.41,0,0,0-.15-.11h-.08a.28.28,0,0,0,0,.13l-.51,0a.69.69,0,0,0-.35,0,15.33,15.33,0,0,1-1.85,0,7.63,7.63,0,0,0,1,.2l-1.92-.09c.12,0-.26-.12-.57,0a19,19,0,0,0-2.59,0,.5.5,0,0,1,.5.17,7,7,0,0,1-2.47-.25,4.63,4.63,0,0,1,1.39-.06.35.35,0,0,0-.17-.1h-.41c-.5,0-1,0-1.48,0,.08-.12.16-.23.23-.35l-.35.19a4.72,4.72,0,0,1,.55-1.27s.09-.11.08-.14c.6-1.08,1.51-2.32,2.17-1.78.3-1.48,4.37-1,5.21-.74-1,0,2.49,1.73,2.38,1.84l-.61-.42A24,24,0,0,1,47.8,57.4Z"/></g></g></svg>