<svg xmlns="http://www.w3.org/2000/svg" viewBox="0 0 78.85 80.74"><defs><style>.cls-1{fill:#fff;}.cls-2{fill:#463f3a;}</style></defs><g id="Capa_2" data-name="Capa 2"><g id="Capa_1-2" data-name="Capa 1"><path class="cls-1" d="M42.43,2.28A37,37,0,0,0,17.52,8.34C6.25,16.16.93,29.71,1.58,41.64,2.61,60.72,19.21,81.4,42.38,80,64.69,78.61,80.64,57.53,78.3,36.59,76.07,16.76,58.22,4.1,42.43,2.28Z"/><path class="cls-2" d="M31,37.9c-.08-.91-.62-1.14-1.41-1,0,0,0,0,0,0a3.59,3.59,0,0,0-.64.2c0-.05.05-.09.06-.15-.32-.39-1.49.74-1.57.88-.51.29-1.05.63-1.59,1-.18-.21-.21,0-.16.1-1.17.76-2.3,1.52-3.13,1.93l-.46,0c.44-.77-.53-.16-.91.24l-.29-.06c-.21-.25-.42-.75-.43-.58-.05.47-1.36-.41-1.62-.71-.05-.07-.05-.09,0-.1a1.3,1.3,0,0,1-.67-.2.16.16,0,0,0,.06-.08s-.07,0-.15,0c-1.49-1-2.71-4.31-3.64-3.27.91-1.13-.31.31,0-.54-.28.74-.73,1-.73,1.43,0-.07-.09-.13-.06-.16-2.06,2.9,3,6.07,5.21,6.76C21.68,44.56,31.36,42.31,31,37.9Zm-15,.78-.08,0C16,38.62,16,38.63,15.92,38.68Zm.32-.71c-.85.23.4-.48,0,0Zm-.19-.27c-.59.36-.16,0-.12,0S16.05,37.67,16.05,37.7Zm-.14-.32c.17,0-.75.82,0,0Zm-.22.87-.1-.09C15.81,37.94,15.78,38.16,15.69,38.25Zm-.41-.36Zm-.14-.26.06.07C15.14,37.69,15,37.77,15.14,37.63Zm-.48.24-.11-.07,0,0Zm-.27-1.53s.24.23,0,.19S14.21,36.51,14.39,36.34Z"/><path class="cls-2" d="M67,36.75c-.31-.47-.86-.43-1.54-.12.07-.36.11-.69.11-.72.66-.93-.61.54-.62,1a.11.11,0,0,0,0-.08c-.1.09-.13.12-.08.1h.07l-.23.14a.42.42,0,0,1-.18,0,1,1,0,0,0,.47-.89c-.33-.27-1.49,1-1.45,1.08.21.16.37.15.5,0a.91.91,0,0,1-.14.41c-.3.22-.6.46-.9.7,0-.08.1-.35.06-.35s-.13.33-.08.36l-.32.25c-.75.41-1.52.68-1.43.84a1.46,1.46,0,0,1,.22,0,4.91,4.91,0,0,0-1.2.86.63.63,0,0,1,.08.15l-.13.09,0-.05a1,1,0,0,0,0-.12l-.1.12a.37.37,0,0,1,0,.1.51.51,0,0,0,0-.1.81.81,0,0,1,0,.11l-.06,0a.29.29,0,0,1,0-.09l-.14.19a3.11,3.11,0,0,1-.74.34H59a1.24,1.24,0,0,1,.18-.41c-.08,0-.27-.06-.18-.05s.09-.11.19,0c.1-.09.19-.08.3.06.23-.5-1.18-.09-1.23-.09.47-.77-.56-.16-.94.24s-.68-1-.71-.68c-.07.51-1.46-.5-1.71-.79A5.13,5.13,0,0,1,54,39c0-.07,0-.06-.08,0a28.07,28.07,0,0,1-3.16-2.26l-.06,0-.06-.08c-.37-.25-.71-.35-1-.17,1.14-1.12-.52.32.14-.46-.52.61-1,.78-1,1.29a1.26,1.26,0,0,0,0,.74C51.1,49.31,69.93,41.34,67,36.75ZM60.79,40l-.17.13C60.46,40.21,60.66,40,60.79,40ZM57,41c-.05,0-.07-.08-.07-.28C57,40.73,57.1,41,57,41Zm-.2.19-.21,0s0,0,0-.05Zm-.54-.45Zm-3.17-1.06,0,0,.09-.09A.5.5,0,0,1,53.12,39.69Zm-1.48-1.62c-.76.45.28-.56,0,0Zm-.23-.21a1.3,1.3,0,0,1-.26.23s.12-.18.14-.2S51.4,37.83,51.41,37.86ZM51,38c0-.08,0-.19.18-.41C51.31,37.6,51.11,37.91,51,38Zm-1.35-1.27s.22.26-.06.2S49.47,36.88,49.67,36.73Z"/><path class="cls-2" d="M55.76,59.77c.87-.41,3.43-1.6,3.26-2.88l.18-.16c-.36,0-.14-.31,0,0a3.88,3.88,0,0,1-.19-.81c-1.29.08-7.41-1.16-7,0-.3-.49-.43-.07-.49,0a2.24,2.24,0,0,0,.28.3c-.72.4-1.1.91.06,1.06s2.66.31,4,.4a6.75,6.75,0,0,1-1.57,1.07l-.19.09c.24-.23.43-.47.07-.34a2.37,2.37,0,0,0-.32.46c-1.21.62-2.08,1.35-1.8,1.92,0,.43.45.54.86.59l0,0,0,0s0,0,0,0,.08.07.12.08.05-.07,0-.09h.09a5.87,5.87,0,0,0,.92.17c.3,0,1.1.17,2,.25,0,.1.07.18.11.13s0,0,0-.12l.82,0c-.1.06-.28.1-.22.15a.72.72,0,0,0,.29-.15h.09c.06.07.21.07.47,0,1.1,0,2-.29,2-1C59.68,60,57.63,59.78,55.76,59.77Zm-1-4.15-.06.08h-.11C54.57,55.58,54.66,55.36,54.75,55.62Zm-.42,0c0-.06,0-.08.07-.06s0,.07,0,.1h-.07A.1.1,0,0,1,54.33,55.66Zm-.18,0h-.06l0-.12a.32.32,0,0,1,0-.06S54.13,55.61,54.15,55.7ZM52.26,56h.09S52.3,56,52.26,56Z"/><path class="cls-2" d="M68.53,55.4c0-.78-2.9-.91-5-.93.09-.09.19-.19.28-.3a.74.74,0,0,0,.19-.08A.41.41,0,0,1,64,54l0,0s0,.07,0,.12a4.48,4.48,0,0,1,.52-.61s0,0,0,0,0,0,0-.11c1-1,2.68-2.57,2.22-3.09,0,0,.05,0,.07,0s.16,0,.14-.12.1,0,.1,0-.14-.2-.21-.29-.33-.34-.43-.49a.43.43,0,0,1,.07.17l-.25-.15c.15-.1-.05-.13-.17-.08a3.81,3.81,0,0,0-.51-.17c.06-.4-.1-.13-.08,0a12.59,12.59,0,0,0-2.7-.12h-.08a.94.94,0,0,1-.29-.25s0,0,0,0a2,2,0,0,1-.4.14.11.11,0,0,0,0-.08s0,0-.05.1c-.66.16-1.61.2-1.52,0-.18.38-.31.23-.27.76-.14-1.12,0,.45-.13-.26l.07.33c-.67.26-1,.52-.22.63l.39,0s0,.09,0,.11,0-.08,0-.11c.74,0,2.19,0,3.57,0a.14.14,0,0,0-.09.15c0,.52.18-.05.21-.15l.48,0c0,.05.07.07.1.06a.6.6,0,0,1,.11-.06l.4,0a.27.27,0,0,0-.06.16c0,.23.11-.09.11-.16h.25c-.13.12-.16.18-.15.2a17.64,17.64,0,0,0-2,1.79s0,0,0,0-.1.07-.07.15a27.36,27.36,0,0,0-2.11,2.41.29.29,0,0,0,0,.34.43.43,0,0,0-.06.18,2.72,2.72,0,0,0,1,.41c.45.19.36.11.21,0,.12,0,.24.07.37.09,0,.52.78.35,1.18.21.2,0,.4.05.6.06a.18.18,0,0,0,0,.14c0,.19.15,0,.19-.12.35,0,.71,0,1.06,0,0,0-.1.07-.12.06s.12,0,.19-.06c.34,0,.66,0,1,0C67.74,56.05,68.53,55.83,68.53,55.4Zm-2.64-4.35,0,.05Zm.63-.82s0,0,0,.07Zm-.92,1.33,0-.08C65.73,51.56,65.66,51.58,65.6,51.56Zm.24.32c-.27-.55.39.21,0,0ZM66,51.7c-.35-.35,0-.11,0-.08S66,51.7,66,51.7Zm.21-.17c0,.18-.73-.37,0,0Zm-5-2.36c0,.12,0,.19,0,.22S61.11,48.86,61.17,49.17Zm-.12,0v.22a1.25,1.25,0,0,1,0-.15C61,49.2,61,49.17,61.05,49.19Zm-.49-.11h0S60.59,48.77,60.56,49.08Zm.36.08c.06-.12.1.1.11.26H61A1.91,1.91,0,0,1,60.92,49.16Zm4.58,1.1h.16l-.09.06S65.54,50.28,65.5,50.26Zm-2.39,5.63.16,0C63.13,55.94,63.09,55.92,63.11,55.89Z"/><path class="cls-2" d="M43.38.23a10.57,10.57,0,0,0-4.75.23,32.25,32.25,0,0,0-4-.46,7.75,7.75,0,0,0-3,.77l1.3,0c-.71.59-1.22.71-1.53.37L31.32,1a17.59,17.59,0,0,0-1.78,1.24,39.23,39.23,0,0,0-4.07,1.45c-.13-.09-.22-.23-.11-.53a56.23,56.23,0,0,0-5.49,3c.64-.25,1.27-.51,1.9-.79-1.83.94-7.95,3.5-8.48,5.34l.5.38-.27.26a3,3,0,0,1-.26-.54c-1.64,2.71-1.91,1.47-4,3.85-1.39,1.59-3.18,7.24-5.11,7.89-1,.33-4,10.25-3.41,11.82A38.67,38.67,0,0,0,11.86,69.81c.76.75,1.55,1.46,2.36,2.13.08.15.16.29.23.45.68,1.62,1.86,1.6,3,1.93a41.33,41.33,0,0,0,40.11,2.3C73,68.89,80.69,51.22,78.48,34.48,76,15.57,61.72,3.28,43.38.23ZM71.05,19.65a3.45,3.45,0,0,1,.2.32,2.07,2.07,0,0,0-.41.07C70.92,19.88,71,19.76,71.05,19.65ZM28.42,4c-.34.13,0,.59-.16.48,0-.09-.11-.11,0,0a2.46,2.46,0,0,1-.27-.2,1.06,1.06,0,0,1-.15-.14L28.17,4ZM65.93,67.88c.09-.24.16-.48.26-.72a41.79,41.79,0,0,1-7.67,6,1.73,1.73,0,0,0,.14.2,33.76,33.76,0,0,1-4,2,3.72,3.72,0,0,0-1.16.47c-.61.24-1.24.46-1.86.66a2.86,2.86,0,0,1-.07-.28c-.81.23-2.65.72-2.9.86.06.08.12.14.18.21-.45.11-.89.21-1.34.3a18.58,18.58,0,0,0-2.55,0c.33.06.5.18.55.35a38.86,38.86,0,0,1-5.16.41c-.23-.34-.66-.49-1.94-.51a1,1,0,0,1,.26.5A37.35,37.35,0,0,1,34.27,78a13.56,13.56,0,0,0-4.87-1c-.5-.14-1-.3-1.5-.46-.41-.94-1.15-1.69-2-.75q-.64-.26-1.29-.54c-1.2-.94-2.93-2.16-3.82-2L20.26,73a36.44,36.44,0,0,1-6.4-5c0-.13-.23-.32-.54-.54a36.2,36.2,0,0,1-3.43-4c.2,0,.4.14.53.62.88-.52.22-.75-.68-.83-.33-.45-.65-.91-1-1.37a3.29,3.29,0,0,1,.63.31,4.56,4.56,0,0,0-1.16-1.12,39,39,0,0,1-6-19c.45-.35.79-.79,0-1.12A36.14,36.14,0,0,1,2.42,37c.35-1.94.82-3.89,1.15-3.78.38-2.4.64-4.21,1-5.79a37.06,37.06,0,0,1,7.5-12.14,23.24,23.24,0,0,1,3.15-2.63c-.11,0-.21-.09-.32-.13l.41-.36.17-.14c.68.08,1.28-.43,2.74-1.54s3.09-1.28,2.32-2.22l.55-.35q.09.2.21.42c1.53-.94,3.11-1.56,3.61-2.7l.59-.33c.14.08.2.24.13.5l1.07-.56-.37-.37.58-.3a1.47,1.47,0,0,1,.1.53c4.13-1.83,8.51-1.94,12.53-3.51.25.08.54.16.86.24,2.27,1,7,3.27,7.47,2.21,2.36.42,3.08,2.26,6.4,1.86.19,0,.13-.12,0-.24L55,6c.91.38,1.79.81,2.66,1.26-1.18,1,1.36,1.43,3,1.78l1.15.79a3.59,3.59,0,0,1-.63.4c.54.74,2.55,1.54,4,2.37.57.53,1.12,1.07,1.64,1.63a.48.48,0,0,1,0,.12c-.28,1.18,1.56,2.29,2.23,2.74.76-.24,2.46,7.56,4.53,7.66.22.51.42,1,.61,1.56a6.31,6.31,0,0,0,0,2.53c.56-.29.66-.16.83,0s.08.24.11.36c-1,.63.2,2.39.11,3.54l.62-.65c.08.37.15.74.22,1.1a1.67,1.67,0,0,0-.81-.18,28.37,28.37,0,0,1,.43,2.89.86.86,0,0,1,.78-.16c0,.18.05.37.07.56a1.41,1.41,0,0,1-.79,0c-.63,2.51-.33,3.3.89,2.35h.1c0,.4,0,.8,0,1.21a7.1,7.1,0,0,0-.8-.43c0,.83-.64,3.52.79,3.08v.09A1.72,1.72,0,0,0,76.7,45c-.07.68-.15,1.35-.25,2-.88.29-1.68.74-.94,2.09a1.18,1.18,0,0,1,.66-.49c-.19.94-.4,1.87-.65,2.78a14.39,14.39,0,0,0-2.12,4.11l.63.26-.21.52-.2-.11a5.09,5.09,0,0,1-.05.69c-.32.72-.67,1.42-1,2.12a4.51,4.51,0,0,1-.77.64l.41,0c-.32.58-.65,1.15-1,1.71a2.07,2.07,0,0,0-.35-.61c-1.12,1.86-2.17,4-3.73,5.56a1,1,0,0,1,.1.28C66.78,67,66.36,67.46,65.93,67.88Zm3.38-3.94a5.76,5.76,0,0,1,.41-.44l-.31.42Z"/><path class="cls-2" d="M44.79,68.33a16.4,16.4,0,0,0-1.26,1.11C45.24,68.92,44.46,68.75,44.79,68.33Z"/><path class="cls-2" d="M69.49,7.7c-.34.28.74,0,.71,0A.82.82,0,0,0,69.49,7.7Z"/><path class="cls-2" d="M68.4,7a1.94,1.94,0,0,0-.47-.76A.59.59,0,0,0,68.4,7Z"/><path class="cls-2" d="M52.83,22.18a1.13,1.13,0,0,0,1,.11S52.56,21.76,52.83,22.18Z"/><path class="cls-2" d="M49.16,60.82c.05,0,0,.23-.14.56A8.23,8.23,0,0,0,49,59.66c.06-.29.11-.49.11-.51.42-1.07-.28-2-1.14-2.61a10,10,0,0,0-3.66-3.81,4.67,4.67,0,0,1,.9.27,10.73,10.73,0,0,0-2.44-1l-.23-.09a7.35,7.35,0,0,0-2.59-.39,6.88,6.88,0,0,0-2.81.36c.53-.21,1.06-.4,1.6-.56-.05-.41-6.3,3-6.07,2.72.21.54-.35,1.3-.08.09A8.69,8.69,0,0,0,30.9,57.8c0-.22-.07-.49-.21-.39s-.06.79.15.61l0-.05A10.34,10.34,0,0,0,31,62a4.86,4.86,0,0,0,.32,1.12,10.22,10.22,0,0,0,.56,1.42,6,6,0,0,0,1.22,1.28c.42-.06.43.14.33.28.39.32.83.66,1.3,1-.08-.17,0-.53.06-.06a.5.5,0,0,1,0,.11c.48.34,1,.66,1.46,1,.27.75,1.13,1,2.25,1,.58.16,1,.15,1.29-.11h.1l.36.07a2.07,2.07,0,0,0,.19.25,1.38,1.38,0,0,1,0-.22l.32,0c1.35.19,2.67.21,2.64-.2a1.18,1.18,0,0,0-1.19-.22c.4-.23.92-.52,1.49-.81a16.42,16.42,0,0,0,2.71-1.31,4.86,4.86,0,0,1,.76-.26C48,66.26,49.54,60.82,49.16,60.82Zm-7.27-7.44.14,0a8.29,8.29,0,0,0-1.23-.19A6.5,6.5,0,0,1,41.89,53.38ZM34.15,66.5a.17.17,0,0,1-.24,0C34.43,65.79,34.19,66.46,34.15,66.5Zm11.93-7.85c-.08.18-1.37,0-1.58,0a2,2,0,0,0,.47-.21h-.74a2.18,2.18,0,0,1-1.24.26c.11,0,.08-.13-.38-.11a.31.31,0,0,0,.15.1c-1,0-2.13-.22-2.15-.15a6.92,6.92,0,0,0,1.18.26L40,58.7c.13,0-.21-.12-.53,0a15.76,15.76,0,0,0-2.43,0,.44.44,0,0,1,.46.18,6.63,6.63,0,0,1-2.32-.25,4.11,4.11,0,0,1,1.31-.06.32.32,0,0,0-.17-.11h-.37c-.47,0-1,0-1.4,0,.07-.13.14-.23.2-.35l-.26.16s0-.09-.14-.15a2.78,2.78,0,0,0,.7-.51,8.59,8.59,0,0,1,1-1.23s.07-.08.07,0a3.71,3.71,0,0,1,.29-.27A4.55,4.55,0,0,1,40,54l-.07,0c-.09-.06.21-.14.26-.1s-.07.11-.17.11a5.77,5.77,0,0,1,1.77.34c-1,.06,2.34,1.67,2.21,1.81l-.57-.42a13.84,13.84,0,0,1,2.87,3.1,3.84,3.84,0,0,0-.62-.59A3.41,3.41,0,0,0,46.08,58.65Z"/></g></g></svg>