<svg xmlns="http://www.w3.org/2000/svg" viewBox="0 0 78.37 80.86"><defs><style>.cls-1{fill:#fff;}.cls-2{fill:#463f3a;}</style></defs><g id="Capa_2" data-name="Capa 2"><g id="Capa_1-2" data-name="Capa 1"><path class="cls-1" d="M41.67,2.33A36,36,0,0,0,17.09,8.38C6,16.2.72,29.75,1.36,41.68c1,19.08,17.4,39.76,40.27,38.34,22-1.36,37.77-22.45,35.45-43.39C74.88,16.8,57.26,4.14,41.67,2.33Z"/><path class="cls-2" d="M72,16.75A25.54,25.54,0,0,0,60.21,6.59c-4-1.74-10.52-1.73-13.63-3.39.53.29,1.06.55,1.59.82a1.07,1.07,0,0,0-.4-.08c0,.08.09.19.28.32a3.84,3.84,0,0,0-1.46-.47c.82-.13,5.81,3.79,7.84,4.16s3.51,2,6.31,1.87c1,.55,2,1.14,2.93,1.78-.44.61.86,1.13,2.09,1.6.49.42,1,.87,1.43,1.34-.21.08-.43.14-.45.15.33.83,1.92,2,3.06,3.1q.6.93,1.14,2a.5.5,0,0,1,0,.13c-.63,1.11.81,2.51,1.28,3.2.55,0,.54,8.16,2.67,8.43.1.53.2,1.06.29,1.58a5.13,5.13,0,0,0-.31,2.46c.38-.13.54-.13.64-.08,0,.21,0,.42.07.63-.85.56,0,2.28-.24,3.31l.45-.34c0,.24,0,.49,0,.73a1.88,1.88,0,0,0-.48-.12A22.92,22.92,0,0,0,75.44,43l-.2-.06c-.9,2.15-.8,3,.29,2.5,0,.28-.07.55-.11.83L75,46a18.17,18.17,0,0,0-.22,3.82,36.56,36.56,0,0,1-1,3.62c-.69.2-1.2.61-.77,1.77a1.45,1.45,0,0,1,.19-.17,37.31,37.31,0,0,1-1.6,3.59c-.51.7-1,1.52-1.57,2.41l.16.1A37.26,37.26,0,0,1,66.8,65.8a.41.41,0,0,0,0-.09c-.52.58-1,1.2-1.52,1.82A35.79,35.79,0,0,1,54,75.4c-.31.12-.62.24-.94.34a.14.14,0,0,1,0,.06,35.79,35.79,0,0,1-4.45,1.5,2.46,2.46,0,0,0-.95.23c-.6.14-1.19.26-1.79.37,0-.1,0-.19,0-.28-.8.13-2.68.3-2.91.4a1.56,1.56,0,0,0,.17.25c-.75.07-1.5.12-2.25.14A8.21,8.21,0,0,0,39.34,78c.33.1.47.25.48.43a36.92,36.92,0,0,1-4.55-.28l-.45-.07c-.15-.38-.53-.59-1.81-.8a1,1,0,0,1,.19.53,37,37,0,0,1-4.18-1,14.45,14.45,0,0,0-4.35-1.68c-.54-.25-1.08-.51-1.61-.78a2.29,2.29,0,0,0-.65-.51,2.41,2.41,0,0,0-.95-.36q-1-.6-2-1.26c-.78-.83-1.7-2-2.63-1.91a39,39,0,0,1-9-10.07c.43-.28.15-.49-.38-.64-.23-.38-.45-.76-.66-1.15a.53.53,0,0,0-.12-.22,37.19,37.19,0,0,1-3.43-9.07c0-3.25-.06-6.9-.91-8.31A36.4,36.4,0,0,1,3.05,34c.58-2,1.23-4.26,1.42-4.88.42-1.29.8-2.4,1.17-3.42A41.52,41.52,0,0,1,13.08,14a22.21,22.21,0,0,1,4.2-3.66,1.83,1.83,0,0,1-.35-.14l.42-.33a1.7,1.7,0,0,0,1.14-.37c1.7-1.08,4.06-1.71,4-2.89l.76-.39a2.29,2.29,0,0,1,.1.23c.95-.52,2.94-1,3.64-1.77.74-.26,1.48-.5,2.23-.71,1-.3,2.07-.54,3.11-.77C35.66,2.76,39,3,42.26,2c.45-.15.27-.36-.21-.6.85-.21,1.32-.41.66-.48C41.86.86,41,.8,40.18.77A28.14,28.14,0,0,0,37.08,0,7.83,7.83,0,0,0,34.2.33L35,.41a1.23,1.23,0,0,1,.4,0c-.76.48-1.26.53-1.52.17a1,1,0,0,1-.08-.14A15.45,15.45,0,0,0,32,1.39a36.08,36.08,0,0,0-4,1c-.17-.12-.46-.22-.24-.66a48.68,48.68,0,0,0-5.65,2.46A18.84,18.84,0,0,0,24,3.6c-1.94.67-8,2.92-8.56,4.81A6,6,0,0,1,16,8.9l-.3.24a3.41,3.41,0,0,1-.3-.64c-1.48,2.63-3.18,2.84-5.08,5.93-.73.87-1.43,1.78-2.09,2.7a15.53,15.53,0,0,0-2.38,3c-.8,1.5-5,9.09-4.13,10.63,0-.07,0-.21.13-.4A41.94,41.94,0,0,0,.47,37.52C.36,38.6.31,39.68.29,40.75A13.5,13.5,0,0,0,0,43.9a1.93,1.93,0,0,0,.32-.19,38.93,38.93,0,0,0,.59,4.73,6.12,6.12,0,0,0,.11.9l0-.48c0,.16.06.31.1.47l-.06.05c.16,1.84.51,3.57,1.28,4.36.2.6.42,1.19.66,1.78-.31,2,2.26,5.29,3.2,6.75a25.21,25.21,0,0,0,2,2.54c.4.53.82,1.06,1.25,1.58a10.21,10.21,0,0,1,.75,1.24c1.5,2.88,2.34,2.08,4.28,3.94-.59-.56-1-.92-1.26-1.22l0,0a39.87,39.87,0,0,0,21.37,10.1c21,2.92,39.91-11.95,43.14-32.67C79.43,37.3,77.64,25.86,72,16.75ZM24.15,3.59h.66l-.4.18A1.51,1.51,0,0,1,24.15,3.59Zm48.9,22.78.36-.38c0,.16.1.31.14.47A1.59,1.59,0,0,0,73.05,26.37Z"/><path class="cls-2" d="M33.71.28a1,1,0,0,0,.06.2L34.2.33Z"/><path class="cls-2" d="M35,.41a1.93,1.93,0,0,0,.4,0Z"/><path class="cls-2" d="M26.29,37.59l.1-.06a.65.65,0,0,1,0,.22,1.9,1.9,0,0,0,.45-.33l-.16-.07.43-.26c.28-.05.79-.22.81-.21.12.6-.95.63-.81,1,.78-.23,2.23-.38,2-1.63a.87.87,0,0,1,0,.87c1.06-1.28-1.84-3.77-3-4.24a8.93,8.93,0,0,0,.89.4c.14-.23-4.65-1.71-3.14-2.14-.4-.11-1.08-.35-1.9-.63a.08.08,0,0,0,0-.08s-.14,0-.24,0c-3.29-1.15-8.66-3.06-8.83-2.08-.1-1.47-.15.15-.37-.32a2.83,2.83,0,0,0,.11.31c-1.19,0-2.32.1-1,.77,1.12.56,8.55,4.86,13,6.51a39.7,39.7,0,0,0-6.06,3.33c-.63.41-6.89,4.67-5.25,4.25.71-.18,1.42-.39,2.12-.62-.32.27-.56.5-.59.53.17-.09.6-.38,1-.63l1-.38.53.1a3.38,3.38,0,0,0-1.53.86c.15.45,3.08-.76,3-.84a.52.52,0,0,0-.73-.06c.6-.65,5.9-2.67,5.8-2.86a8.54,8.54,0,0,1-1.14.24,18.8,18.8,0,0,0,2.29-1.07,1,1,0,0,1-.35,0l.52-.3a.37.37,0,0,1,.29.07l.21-.12a1.65,1.65,0,0,1-.05-.21.41.41,0,0,0,.11-.07.86.86,0,0,1,.2.14l.12-.08,0-.07A1.11,1.11,0,0,1,26.29,37.59Zm1.88-.2c-.11,0-.19.23-.44.12C27.83,37.46,28.38,37.33,28.17,37.39Zm0-.79c.22.15.16.22-.13.11ZM17.3,29.15l-.19-.07C17.17,29,17.25,29,17.3,29.15Zm-1-.33-.08,0S16.25,28.79,16.27,28.82ZM17,42.05l.17-.06C17.13,42.09,17.07,42.13,17,42.05Zm4.09-1.7.61-.29-.57.57A.59.59,0,0,1,21.1,40.35Z"/><path class="cls-2" d="M50.67,36.78c.74.6,1.65.33,2.79,1.17.54.38.59.34.48.18l.46.32a4,4,0,0,0,2.27,1.8c1.75.78,3.84,1.28,4.07,1.6.07.09-.29.85-.05.77-.07,0,.41-.51.41-.51l.41.2.36.19a.31.31,0,0,1,.14-.07.19.19,0,0,1,0,.13,2.14,2.14,0,0,1,.46.28c-.75.85,2.64.38,2.55.42a6.65,6.65,0,0,0-1.66,0,4,4,0,0,1-.56-.79c.31-.17,1.21.94,1.49.35.06-.13-.28-.39-.72-.65,1.13.27,2,.41,1.57.16-2.45-1.58-4.75-3.39-7.2-5a38.33,38.33,0,0,0-3.87-1.68c1.86-.71,4.65-3.47,6.71-5.77,1-.86,1.75-1.62,1.78-2.07l.13-.16c.54.24.23,0,.11-.13,0-.06.09-.11.13-.16l.14,0-.14,0a4.24,4.24,0,0,0,.57-.79c-.24.16-.68.4-1.25.7l-.3,0c.21-.07.26-.19.16-.38a3.3,3.3,0,0,1-.86.21c.07,0-2.31,1.71-4.2,3.09a20.65,20.65,0,0,0-3.94,2.92c-1,.68-1.82,1.32-.14.14a4.28,4.28,0,0,0-.4.52c-.39.41-.82.77-1.2,1.2-.34,0-.42.2-.09.63C50.79,36,50.25,36.45,50.67,36.78Zm12.19,6.28,0-.31C63,42.68,63.06,42.73,62.86,43.06Zm-7.4-3.71c-.69-.32-.48-.5,0,0Zm.45.2s0,0,0,0C56,39.29,56.15,39.64,55.91,39.55Zm6.38,2.37a2.4,2.4,0,0,1-1.07-.38l.8.22A.51.51,0,0,0,62.29,41.92Zm-10.8-6.09c-.1,0-.17,0-.14,0a.29.29,0,0,1,.1-.06A.1.1,0,0,0,51.49,35.83Z"/><path class="cls-2" d="M52.5,49.29c-.13-.58-.83-.92-1.84-1.11,0,0,.1-.06.14-.12s-.4-.05-.79,0c-3.21-.38-8.47.36-9.62.43-2.67.15-5.33.38-8,.6a35.64,35.64,0,0,0-5.5.86c-.15-.15-.24-.18-.26,0C25.71,57.31,30.05,61.56,35.4,63a5,5,0,0,0,5.36,1.6q-1.41.08.33-.09a8.43,8.43,0,0,0,3.72-1.75l.24-.08c-.13.12-.17.18.05,0l.22-.07a.38.38,0,0,0-.09.09c-.88,1-.1.17.13-.11,4.83-1.8,8.22-6,6.4-12.47a6.82,6.82,0,0,1-.66,2.25,9.58,9.58,0,0,0,.11-2.45C52.07,49.73,52.56,49.52,52.5,49.29ZM27.86,50.57l-.31,0a.3.3,0,0,1,0,.1,1.27,1.27,0,0,0-.12.1.57.57,0,0,0-.08-.13l.1-.08-.14,0a1.4,1.4,0,0,0-.1-.16,3,3,0,0,0,.34.06l-.1.08.35,0h.08Zm14.49.14c0,.21-.71.25-.78.27S42.34,50.38,42.35,50.71Zm-2.18.38c0,.21-.43.22-.46.2S40.14,50.84,40.17,51.09Zm-1.87.39c.49-.08.32,0,0,0Zm-.84-.36c-.13,0-.55.19-.79.12l.11,0-.11,0A7.54,7.54,0,0,1,37.46,51.12Zm-2.81.08c.08,0-.68.13-.44.27l-.07,0c-.12-.07,0,0,0,0S34.6,51.19,34.65,51.2ZM32,58.57a16.32,16.32,0,0,0,2.17,2A12.13,12.13,0,0,1,32,58.57Zm1.17-4.11a7.24,7.24,0,0,0,1.18.61C34,55,33.11,54.68,33.21,54.46Zm1.37.65Zm1.29,8,.51.11s0,.08,0,.07C35.73,63.38,35.71,63.24,35.87,63.12Zm.77.18h.1l.3.05c.12.06.13.16,0,.33S36.64,63.34,36.64,63.3Zm.53.9L36.93,64l.93.33s.08,0,.24.08A1.61,1.61,0,0,1,37.17,64.2Zm.33-.65a10.76,10.76,0,0,1,1.56.47C38.82,64,37.76,64.14,37.5,63.55Zm1.62,1c.06,0,0,0,0,0C39,64.33,39.64,64.53,39.12,64.53Zm-.16-1a18,18,0,0,0,2.54-.07c-.17.08-.3.15-.39.18.28,0,.89-.19,1.46-.34.38-.06.75-.14,1.12-.23C43.68,64.14,41.23,64,39,63.55ZM40.51,56c.2.1-.21.29-.32.21S40.51,56,40.51,56Zm6.41-4.37h0a1.82,1.82,0,0,1-.27.15,5.76,5.76,0,0,1-3.09,3c-.14.12-.28.24-.42.34.75-.15,1-.15-.4.29.13-.08.27-.19.4-.29-.92.19-2.66.61-3.21.7a.41.41,0,0,1,.25.11c-1.26,1.62-10-2.73-9.26-3.45.06-.06.08,0,.28-.3L31.07,52h.25l0-.06-.28,0,.32-.08.06-.09s0,0,0,.07c.82-.2,2.59-.58,2.39-.15a1.89,1.89,0,0,1,.6,0,.2.2,0,0,1,0-.09c.06,0,.09.06.09.1l.39,0a.25.25,0,0,1,0-.14.11.11,0,0,1,0,.14,4.33,4.33,0,0,0,.49,0,2.29,2.29,0,0,0,.13-.48c.31-.23.14.46.34.52,1.29.42,6.44-1.66,8.21-.17l-.13.06.95,0,.45-.14c-.44,0-2-.23-.32-.18a20.87,20.87,0,0,1,2.17-.1,3,3,0,0,0-.62.41,1,1,0,0,1-.07.15Zm.46-.57a6.19,6.19,0,0,1-1.61,0C45.85,51.13,47.67,50.91,47.38,51.08Z"/></g></g></svg>