<svg xmlns="http://www.w3.org/2000/svg" viewBox="0 0 160.14 160.07"><defs><style>.cls-1{fill:#8daf3b;}.cls-2{fill:#fff;}.cls-3{fill:#3b3735;}</style></defs><g id="Capa_2" data-name="Capa 2"><g id="Capa_1-2" data-name="Capa 1"><path class="cls-1" d="M118.15,160.07H42a42,42,0,0,1-42-42V42A42,42,0,0,1,42,0H118.1a42,42,0,0,1,42,42l0,76.08A42,42,0,0,1,118.15,160.07Z"/><path class="cls-2" d="M112.44,116c-3,0-6.48-1.4-10.34-4.19-3.3-2.4-6-3.3-7.15-2.41A7.37,7.37,0,0,0,93.71,111a13.82,13.82,0,0,1-2.41,2.83c-3.94,3.33-9.37,2.42-13.13.46a39.16,39.16,0,0,1-4-2.49,24.93,24.93,0,0,0-4.12-2.47,10.5,10.5,0,0,0-10.25,1.37c-.38.3-.78.65-1.2,1a14.88,14.88,0,0,1-4.41,3c-5.52,2.19-10.16-1.16-13.89-3.85-2.09-1.5-4.07-2.93-6-3.43a6.42,6.42,0,0,0-7.27,4,3.52,3.52,0,0,1-6.7-2.13,13.35,13.35,0,0,1,15.76-8.67c3.16.83,5.88,2.79,8.28,4.52,3.57,2.57,5.43,3.71,7.18,3a9.66,9.66,0,0,0,2.33-1.73c.49-.43,1-.88,1.55-1.32a17.47,17.47,0,0,1,17.31-2.3A30.06,30.06,0,0,1,78.17,106,31.75,31.75,0,0,0,81.43,108c1.78.93,4.18,1.37,5.32.41a9.06,9.06,0,0,0,1.19-1.49,13,13,0,0,1,2.75-3.1c2.76-2.09,7.68-3.38,15.54,2.31,3.4,2.46,6,3.38,7.25,2.53a7.72,7.72,0,0,0,1.24-1.38c.33-.41.66-.82,1-1.21a14.68,14.68,0,0,1,24,5.31,3.52,3.52,0,1,1-6.73,2c-.77-2.5-3.27-3.89-5.37-4.35s-5-.27-6.7,1.68c-.25.29-.49.59-.72.88a12.81,12.81,0,0,1-2.72,2.77A8.58,8.58,0,0,1,112.44,116Z"/><path class="cls-3" d="M33.51,59.46a3,3,0,0,0,2,1.31c8.35,2.18,24.77-.6,26.11-11.13.22-1.73-.66-5.93-3.14-3.93s-4.4,5-7.09,7.09a14,14,0,0,1-9.08,3c-2.17-.08-4.53-.56-6.66.1C33.69,56.52,32.82,58.19,33.51,59.46Z"/><path class="cls-3" d="M124.79,59.46a2.94,2.94,0,0,1-2,1.31c-8.35,2.18-24.78-.6-26.12-11.13-.22-1.73.67-5.93,3.15-3.93s4.39,5,7.09,7.09a14,14,0,0,0,9.08,3c2.17-.08,4.53-.56,6.66.1C124.61,56.52,125.49,58.19,124.79,59.46Z"/><path class="cls-3" d="M60.88,73.68a10.47,10.47,0,0,1,2.68,1.38c4.17,3.13-.36,6.87-3.28,8.71-3.17,2-8.32,5.55-12.27,4.78a2.31,2.31,0,0,1-1.59-.94c-1.49-2.6,2.68-3.83,4.37-4.56,1.25-.54,3.71-1.76,3.56-3.45a2.17,2.17,0,0,0-.71-1.28c-2.47-2.42-7.79-1.71-8.76-5.73A1.76,1.76,0,0,1,45.19,71a2.41,2.41,0,0,1,1.45-.66c3.31-.56,6.56.58,9.58,1.8C57.7,72.75,59.34,73.12,60.88,73.68Z"/><path class="cls-3" d="M97.43,73.68a10.53,10.53,0,0,0-2.69,1.38c-4.17,3.13.36,6.87,3.29,8.71,3.17,2,8.31,5.55,12.27,4.78a2.27,2.27,0,0,0,1.58-.94c1.5-2.6-2.67-3.83-4.36-4.56-1.25-.54-3.71-1.76-3.56-3.45a2.12,2.12,0,0,1,.71-1.28c2.47-2.42,7.79-1.71,8.76-5.73a1.76,1.76,0,0,0-.32-1.57,2.36,2.36,0,0,0-1.45-.66c-3.3-.56-6.55.58-9.58,1.8C100.61,72.75,99,73.12,97.43,73.68Z"/></g></g></svg>