<svg xmlns="http://www.w3.org/2000/svg" viewBox="0 0 160.07 160.07"><defs><style>.cls-1{fill:#a8d9e4;}.cls-2{fill:#3b3735;}</style></defs><g id="Capa_2" data-name="Capa 2"><g id="Capa_1-2" data-name="Capa 1"><rect class="cls-1" width="160.07" height="160.07" rx="44.02"/><path class="cls-2" d="M60.31,57.79c.72-.15,1.59-.24,2,.32a1.76,1.76,0,0,1,.31,1c.13,2.61-1.56,5-3.67,6.56-3.8,2.78-8.77,3.25-13.48,3.42-5.3.18-10.92,0-15.39-2.83-1.83-1.16-3.48-2.91-3.75-5.06A3.72,3.72,0,0,1,31.05,57c2.5.71,4.54,2.34,7.16,3C45.63,61.66,53.07,59.3,60.31,57.79Z"/><path class="cls-2" d="M99.76,57.79c-.72-.15-1.6-.24-2.06.32a1.75,1.75,0,0,0-.3,1c-.14,2.61,1.55,5,3.67,6.56,3.8,2.78,8.77,3.25,13.48,3.42,5.29.18,10.92,0,15.39-2.83,1.83-1.16,3.48-2.91,3.75-5.06A3.72,3.72,0,0,0,129,57c-2.5.71-4.54,2.34-7.16,3C114.43,61.66,107,59.3,99.76,57.79Z"/><path class="cls-2" d="M58.35,94.12c19.44,1.94,38.76,2.17,58.28-1.1,5-.85,8.9,3.06,5.26,7.65-1.81,2.28-4.85,4.08-7.44,5.38-7.92,4-16.88,4.67-25.6,4.71-9.32.06-18.72.25-27.95-1.29-6.73-1.12-23-4.93-23.52-13.87-.25-4.35,7.89-3,10.26-2.71Q53,93.58,58.35,94.12Z"/></g></g></svg>