<svg xmlns="http://www.w3.org/2000/svg" viewBox="0 0 160.07 160.07"><defs><style>.cls-1{fill:#f2d6ce;}.cls-2{fill:#f08eb6;}.cls-3{fill:#3b3735;}.cls-4{fill:#e20613;}</style></defs><g id="Capa_2" data-name="Capa 2"><g id="Capa_1-2" data-name="Capa 1"><rect class="cls-1" width="160.07" height="160.07" rx="43.52"/><circle class="cls-2" cx="23.18" cy="90.46" r="9.95" transform="translate(-69.82 98.86) rotate(-80.78)"/><circle class="cls-2" cx="136.88" cy="90.46" r="9.95" transform="translate(-23.87 123.29) rotate(-45)"/><path class="cls-3" d="M100,93.14a7.18,7.18,0,0,1,6.42,10.39c-4.48,9-14.6,15.3-26.38,15.3s-21.9-6.29-26.37-15.3a7.18,7.18,0,0,1,6.42-10.39Z"/><path class="cls-4" d="M39,71.77c-.85-.71-1.67-1.45-2.45-2.24-3.33-3.38-7.33-9-5.71-14,1.26-3.89,5.83-5,9.47-4.79a15.77,15.77,0,0,1,5.74,1.59,18.26,18.26,0,0,1,2.16,1.14,1.06,1.06,0,0,0,1.62-.84c.16-3.35,1.35-6.85,4.35-8.47,3.28-1.77,6.88-.6,9.3,2,3.88,4.22,3.48,10,1.88,15.14a66.46,66.46,0,0,1-4.29,10.41A25.69,25.69,0,0,1,58,77.16c-2.4,2.73-5.92,2-8.87.72A44.55,44.55,0,0,1,39,71.77Z"/><path class="cls-4" d="M121,71.77a32.37,32.37,0,0,0,2.44-2.24c3.34-3.38,7.34-9,5.71-14-1.25-3.89-5.82-5-9.46-4.79A15.77,15.77,0,0,0,114,52.36a18.35,18.35,0,0,0-2.17,1.14,1,1,0,0,1-1.61-.84c-.16-3.35-1.35-6.85-4.36-8.47-3.27-1.77-6.88-.6-9.29,2-3.89,4.22-3.48,10-1.88,15.14A66.46,66.46,0,0,0,99,71.76a25.26,25.26,0,0,0,3.13,5.4c2.4,2.73,5.92,2,8.87.72A44.77,44.77,0,0,0,121,71.77Z"/></g></g></svg>