<svg xmlns="http://www.w3.org/2000/svg" viewBox="0 0 160.07 160.07"><defs><style>.cls-1{fill:#9c9b9b;}.cls-2{fill:#fff;}.cls-3{fill:#3b3735;}</style></defs><g id="Capa_2" data-name="Capa 2"><g id="Capa_1-2" data-name="Capa 1"><rect class="cls-1" width="160.07" height="160.07" rx="44.02"/><path class="cls-2" d="M22.62,92.73C17.24,107,12.43,121.4,8,135.94a4,4,0,0,0-.2,2.42c.42,1.24,1.86,1.76,3.12,2.1a183.46,183.46,0,0,0,23.45,4.76c5.85.79,9.09-.92,10.11-6.77,1.47-8.42.94-17.68,1.57-26.23q1.19-16.27,2.91-32.5c.92-8.67,4.37-19.84,1.45-28.34-.76-2.21-2.73-4.19-5.07-4.19s-4.26,1.91-5.34,4C33.14,64.3,27.85,78.88,22.62,92.73Z"/><path class="cls-3" d="M51.8,50.08a13.83,13.83,0,0,0,5-2.14c2.06-1.22,4.2-2.51,5.45-4.55.58-.94.91-2.23.22-3.09a2.85,2.85,0,0,0-2-.84c-5-.48-10,3.12-14.91,2-2.13-.5-13.23-6-10,.42C37.86,46.38,47.07,50.75,51.8,50.08Z"/><path class="cls-2" d="M137.21,91.53c5.45,14.2,10.34,28.62,14.87,43.13a4.05,4.05,0,0,1,.22,2.42c-.42,1.25-1.85,1.77-3.12,2.12a185.15,185.15,0,0,1-23.42,4.89c-5.85.82-9.1-.87-10.15-6.72-1.51-8.41-1-17.67-1.71-26.22q-1.28-16.26-3.09-32.49c-1-8.65-4.47-19.81-1.6-28.33.75-2.21,2.71-4.19,5-4.21s4.27,1.89,5.36,4C126.53,63.17,131.9,77.72,137.21,91.53Z"/><path class="cls-3" d="M106.89,50.08a13.83,13.83,0,0,1-5-2.14c-2.05-1.22-4.19-2.51-5.45-4.55-.58-.94-.91-2.23-.22-3.09a2.87,2.87,0,0,1,2-.84c5-.48,10,3.12,14.92,2,2.12-.5,13.22-6,10,.42C120.83,46.38,111.62,50.75,106.89,50.08Z"/><path class="cls-3" d="M54.44,114.25C54,104.38,62.79,97.22,70,92c3.25-2.36,6.63-5.45,10.8-6,4.7-.68,8.54,2.74,11.45,6a85.08,85.08,0,0,1,8.2,10.71c2.57,4,4.83,9,2.68,13.25-1.67,3.26-5.56,4.84-9.22,4.92s-7.21-1-10.77-1.91a24,24,0,0,0-8.45-.66,15.82,15.82,0,0,0-4.18,1.1c-1.37.57-2.58,1.43-4,1.94a10.55,10.55,0,0,1-7.66-.09,7.16,7.16,0,0,1-4.34-5.88A9.86,9.86,0,0,1,54.44,114.25Z"/></g></g></svg>