<svg xmlns="http://www.w3.org/2000/svg" viewBox="0 0 160.07 160.07"><defs><style>.cls-1{fill:#ed7700;}.cls-2{fill:#3b3735;}</style></defs><g id="Capa_2" data-name="Capa 2"><g id="Capa_1-2" data-name="Capa 1"><rect class="cls-1" width="160.07" height="160.07" rx="43.52"/><path class="cls-2" d="M103.6,115a1.83,1.83,0,0,0,2.43-2c-1.64-11.49-12.65-20.38-26-20.38S55.68,101.47,54,113a1.83,1.83,0,0,0,2.43,2l12.58-4.65a31.5,31.5,0,0,1,21.72,0Z"/><ellipse class="cls-2" cx="53.43" cy="71" rx="5.36" ry="9.03"/><ellipse class="cls-2" cx="107.01" cy="71" rx="5.36" ry="9.03"/><path class="cls-2" d="M59.51,64.45c-3.22-2.46-10.83-7-23.24-7a1.87,1.87,0,0,1-1.58-.82c-.65-1-1.21-2.59,1-3.86a16.27,16.27,0,0,1,13.24-.83s7.92,4,11.1,9a2.34,2.34,0,0,1,.3.73l.46,1.94A.79.79,0,0,1,59.51,64.45Z"/><path class="cls-2" d="M100.56,64.45c3.22-2.46,10.83-7,23.23-7a1.88,1.88,0,0,0,1.59-.82c.64-1,1.21-2.59-1-3.86a16.24,16.24,0,0,0-13.23-.83s-7.92,4-11.11,9a2.32,2.32,0,0,0-.29.73l-.46,1.94A.79.79,0,0,0,100.56,64.45Z"/></g></g></svg>