<svg xmlns="http://www.w3.org/2000/svg" viewBox="0 0 160.07 160.07"><defs><style>.cls-1{fill:#fbd64f;}.cls-2{fill:#3b3735;}</style></defs><g id="Capa_2" data-name="Capa 2"><g id="Capa_1-2" data-name="Capa 1"><rect class="cls-1" width="160.07" height="160.07" rx="44.02"/><path class="cls-2" d="M112.32,84.84a9.82,9.82,0,0,1,9.08,13.54c-6.21,15.25-22.63,26.15-41.89,26.15s-35.68-10.9-41.9-26.15a9.82,9.82,0,0,1,9.08-13.54Z"/><path class="cls-2" d="M25.76,59.59a1.93,1.93,0,0,1-.12-.41C24.11,50.57,40.54,48.36,45.83,50a22.32,22.32,0,0,1,7.61,4.18c.83.71,6.2,7.42,2.34,7.52a2.77,2.77,0,0,1-1.56-.65c-3.53-2.49-5.41-6.18-9.86-7.25a14.28,14.28,0,0,0-13.64,4.11C29.64,59.11,26.93,62.43,25.76,59.59Z"/><path class="cls-2" d="M134.31,59.59a2.77,2.77,0,0,0,.12-.41C136,50.57,119.52,48.36,114.24,50a22.23,22.23,0,0,0-7.61,4.18c-.83.71-6.21,7.42-2.34,7.52a2.77,2.77,0,0,0,1.56-.65c3.52-2.49,5.4-6.18,9.85-7.25a14.29,14.29,0,0,1,13.65,4.11C130.42,59.11,133.14,62.43,134.31,59.59Z"/></g></g></svg>