<svg xmlns="http://www.w3.org/2000/svg" viewBox="0 0 160.07 160.07"><defs><style>.cls-1{fill:#9c9b9b;}.cls-2{fill:#3b3735;}</style></defs><g id="Capa_2" data-name="Capa 2"><g id="Capa_1-2" data-name="Capa 1"><rect class="cls-1" width="160.07" height="160.07" rx="43.52"/><path class="cls-2" d="M109.57,121.5a5.66,5.66,0,0,0,5.5-7.06c-3.57-13.31-17-23.2-33-23.2s-29.47,9.89-33,23.2a5.65,5.65,0,0,0,5.49,7.06l20.93-2.8a48.47,48.47,0,0,1,12.62,0Z"/><path class="cls-2" d="M54,60.47C57.36,58.15,60,55,62.83,52a2.85,2.85,0,0,1,1.52-1,1.93,1.93,0,0,1,1.93,1.31,4.74,4.74,0,0,1,.08,2.48C65.13,62.08,59.75,68.12,53.43,72a25.48,25.48,0,0,1-11,3.9c-3.64.29-7.73-.53-10.6-2.91-2.48-2-3.8-5.48-.31-6.91C34.4,64.83,39,65.51,42.1,65A30,30,0,0,0,54,60.47Z"/><path class="cls-2" d="M106.07,60.47c-3.37-2.32-6-5.52-8.84-8.46a2.78,2.78,0,0,0-1.52-1,1.92,1.92,0,0,0-1.92,1.31,4.74,4.74,0,0,0-.08,2.48c1.23,7.29,6.61,13.33,12.93,17.16a25.48,25.48,0,0,0,11,3.9,15,15,0,0,0,10.6-2.91c2.47-2,3.8-5.48.31-6.91-2.92-1.2-7.47-.52-10.62-1.08A30.1,30.1,0,0,1,106.07,60.47Z"/></g></g></svg>