<svg xmlns="http://www.w3.org/2000/svg" viewBox="0 0 160.07 160.07"><defs><style>.cls-1{fill:#fbc000;}.cls-2{fill:#3b3735;}.cls-3{fill:#fff;}</style></defs><g id="Capa_2" data-name="Capa 2"><g id="Capa_1-2" data-name="Capa 1"><rect class="cls-1" width="160.07" height="160.07" rx="43.52"/><ellipse class="cls-2" cx="45.32" cy="63.91" rx="6.94" ry="11.7"/><ellipse class="cls-2" cx="114.75" cy="63.91" rx="6.94" ry="11.7"/><path class="cls-3" d="M35.55,105.55a11.74,11.74,0,0,0,11.53,9.59h1.46v-9.59Z"/><path class="cls-3" d="M114.33,115.06a11.75,11.75,0,0,0,10.19-9.51H114.33Z"/><path class="cls-3" d="M124.55,101.26a11.75,11.75,0,0,0-10.22-9.72v9.72Z"/><rect class="cls-3" x="98.95" y="91.46" width="11.1" height="9.8"/><rect class="cls-3" x="52.82" y="91.46" width="11.1" height="9.8"/><rect class="cls-3" x="68.19" y="91.46" width="11.1" height="9.8"/><rect class="cls-3" x="83.57" y="91.46" width="11.1" height="9.8"/><path class="cls-3" d="M48.54,91.46H47.08a11.75,11.75,0,0,0-11.57,9.8h13Z"/><rect class="cls-3" x="83.57" y="105.55" width="11.1" height="9.59"/><rect class="cls-3" x="68.19" y="105.55" width="11.1" height="9.59"/><rect class="cls-3" x="52.82" y="105.55" width="11.1" height="9.59"/><rect class="cls-3" x="98.95" y="105.55" width="11.1" height="9.59"/><path class="cls-2" d="M113,87.18H47.08a16,16,0,0,0-16,16v.21a2.14,2.14,0,0,1,2.14-2.15h.15A13.87,13.87,0,0,1,47.08,89.32h1.68a2.13,2.13,0,0,1,1.92-1.21,2.15,2.15,0,0,1,1.92,1.21H64.13a2.15,2.15,0,0,1,1.92-1.21A2.13,2.13,0,0,1,68,89.32H79.51a2.13,2.13,0,0,1,3.84,0H94.89a2.13,2.13,0,0,1,3.84,0h11.54a2.13,2.13,0,0,1,3.87.06,13.86,13.86,0,0,1,12.59,12,2.13,2.13,0,0,1,0,4.12,13.86,13.86,0,0,1-12.39,11.74,2.13,2.13,0,0,1-4.24.07H98.93a2.13,2.13,0,0,1-4.24,0H83.55a2.13,2.13,0,0,1-4.24,0H68.17a2.13,2.13,0,0,1-4.23,0H52.79a2.13,2.13,0,0,1-4.23,0H47.08a13.87,13.87,0,0,1-13.7-11.73H33.2a2.14,2.14,0,0,1-2.14-2.14,16,16,0,0,0,16,16H113a16,16,0,0,0,16-16v-.21A16,16,0,0,0,113,87.18Z"/><path class="cls-2" d="M94.67,115.14H83.57v1.91a1.79,1.79,0,0,1,0,.23H94.69a1.79,1.79,0,0,1,0-.23Z"/><path class="cls-2" d="M48.54,115.14H47.08a11.74,11.74,0,0,1-11.53-9.59H33.38a13.87,13.87,0,0,0,13.7,11.73h1.48a1.79,1.79,0,0,1,0-.23Z"/><path class="cls-2" d="M99,91.46h11.1V90.25a2.09,2.09,0,0,1,.22-.93H98.73a2.09,2.09,0,0,1,.22.93Z"/><path class="cls-2" d="M79.29,115.14H68.19v1.91a1.79,1.79,0,0,1,0,.23H79.31c0-.08,0-.15,0-.23Z"/><path class="cls-2" d="M47.08,91.46h1.46V90.25a2.09,2.09,0,0,1,.22-.93H47.08a13.87,13.87,0,0,0-13.73,11.94h2.16A11.75,11.75,0,0,1,47.08,91.46Z"/><path class="cls-2" d="M110.05,115.14H99v1.91a1.79,1.79,0,0,1,0,.23h11.14a1.79,1.79,0,0,1,0-.23Z"/><path class="cls-2" d="M63.91,115.14H52.82v1.91a1.81,1.81,0,0,1,0,.23H63.94a1.81,1.81,0,0,1,0-.23Z"/><path class="cls-2" d="M83.57,91.46h11.1V90.25a2.09,2.09,0,0,1,.22-.93H83.35a2.09,2.09,0,0,1,.22.93Z"/><path class="cls-2" d="M68.19,91.46h11.1V90.25a2.23,2.23,0,0,1,.22-.93H68a2.09,2.09,0,0,1,.22.93Z"/><path class="cls-2" d="M114.33,91.54a11.75,11.75,0,0,1,10.22,9.72h1.62a2.11,2.11,0,0,1,.56.09,13.86,13.86,0,0,0-12.59-12,2.13,2.13,0,0,1,.19.87Z"/><path class="cls-2" d="M52.82,91.46H63.91V90.25a2.23,2.23,0,0,1,.22-.93H52.6a2.23,2.23,0,0,1,.22.93Z"/><path class="cls-2" d="M124.52,105.55a11.75,11.75,0,0,1-10.19,9.51v2a.88.88,0,0,1,0,.16,13.86,13.86,0,0,0,12.39-11.74,1.89,1.89,0,0,1-.53.08Z"/><rect class="cls-2" x="68.19" y="103.41" width="11.1" height="2.14"/><rect class="cls-2" x="98.95" y="101.26" width="11.1" height="2.14"/><rect class="cls-2" x="83.57" y="101.26" width="11.1" height="2.14"/><rect class="cls-2" x="83.57" y="103.41" width="11.1" height="2.14"/><path class="cls-2" d="M114.33,103.41h10.4v-.21a11.29,11.29,0,0,0-.18-1.94H114.33Z"/><rect class="cls-2" x="68.19" y="101.26" width="11.1" height="2.14"/><path class="cls-2" d="M114.33,103.81h10.19a25.83,25.83,0,0,0,.21-3.21h-10.4Z"/><rect class="cls-2" x="98.95" y="103.41" width="11.1" height="2.14"/><rect class="cls-2" x="52.82" y="101.26" width="11.1" height="2.14"/><path class="cls-2" d="M48.54,101.26h-13a12.38,12.38,0,0,0-.17,1.94v.21h13.2Z"/><rect class="cls-2" x="52.82" y="103.41" width="11.1" height="2.14"/><path class="cls-2" d="M48.54,105.55v-2.14H35.34a11.67,11.67,0,0,0,.21,2.14Z"/><path class="cls-2" d="M126.87,103.41a14,14,0,0,1-.17,2.06,2.13,2.13,0,0,0,0-4.12,14,14,0,0,1,.14,1.85Z"/><path class="cls-2" d="M33.2,105.55h.18a13.73,13.73,0,0,1-.18-2.14v-.21a13.84,13.84,0,0,1,.15-1.94H33.2a2.15,2.15,0,0,0,0,4.29Z"/><path class="cls-2" d="M124.55,101.26a11.29,11.29,0,0,1,.18,1.94v.21h0a11.67,11.67,0,0,1-.21,2.14h1.65a1.89,1.89,0,0,0,.53-.08,14,14,0,0,0,.17-2.06v-.21a14,14,0,0,0-.14-1.85,2.11,2.11,0,0,0-.56-.09Z"/><path class="cls-2" d="M33.2,103.41h2.14v-.21a12.38,12.38,0,0,1,.17-1.94H33.35a13.84,13.84,0,0,0-.15,1.94Z"/><path class="cls-2" d="M35.34,103.41H33.2a13.73,13.73,0,0,0,.18,2.14h2.17A11.67,11.67,0,0,1,35.34,103.41Z"/><rect class="cls-2" x="48.54" y="91.46" width="2.14" height="9.8"/><rect class="cls-2" x="48.54" y="105.55" width="2.14" height="9.59"/><rect class="cls-2" x="50.68" y="91.46" width="2.14" height="9.8"/><rect class="cls-2" x="50.68" y="105.55" width="2.14" height="9.59"/><path class="cls-2" d="M50.68,119.19a2.13,2.13,0,0,0,2.11-1.91H48.56A2.14,2.14,0,0,0,50.68,119.19Z"/><path class="cls-2" d="M50.68,88.11a2.13,2.13,0,0,0-1.92,1.21H52.6A2.15,2.15,0,0,0,50.68,88.11Z"/><path class="cls-2" d="M52.82,115.14H50.68v0H48.54v1.91a1.79,1.79,0,0,0,0,.23h4.23a1.81,1.81,0,0,0,0-.23Z"/><path class="cls-2" d="M48.54,91.46h2.14v0h2.14V90.25a2.23,2.23,0,0,0-.22-.93H48.76a2.09,2.09,0,0,0-.22.93Z"/><rect class="cls-2" x="48.54" y="103.41" width="2.14" height="2.14"/><rect class="cls-2" x="48.54" y="101.26" width="2.14" height="2.14"/><rect class="cls-2" x="50.68" y="101.26" width="2.14" height="2.14"/><rect class="cls-2" x="50.68" y="103.41" width="2.14" height="2.14"/><rect class="cls-2" x="66.05" y="105.55" width="2.14" height="9.59"/><rect class="cls-2" x="66.05" y="91.46" width="2.14" height="9.8"/><rect class="cls-2" x="63.91" y="91.46" width="2.14" height="9.8"/><rect class="cls-2" x="63.91" y="105.55" width="2.14" height="9.59"/><path class="cls-2" d="M66.05,88.11a2.15,2.15,0,0,0-1.92,1.21H68A2.13,2.13,0,0,0,66.05,88.11Z"/><path class="cls-2" d="M66.05,119.19a2.14,2.14,0,0,0,2.12-1.91H63.94A2.13,2.13,0,0,0,66.05,119.19Z"/><path class="cls-2" d="M68.19,115.14H66.05v0H63.91v1.91a1.81,1.81,0,0,0,0,.23h4.23a1.79,1.79,0,0,0,0-.23Z"/><path class="cls-2" d="M63.91,91.46h2.14v0h2.14V90.25a2.09,2.09,0,0,0-.22-.93H64.13a2.23,2.23,0,0,0-.22.93Z"/><rect class="cls-2" x="63.91" y="101.26" width="2.14" height="2.14"/><rect class="cls-2" x="63.91" y="103.41" width="2.14" height="2.14"/><rect class="cls-2" x="66.05" y="101.26" width="2.14" height="2.14"/><rect class="cls-2" x="66.05" y="103.41" width="2.14" height="2.14"/><rect class="cls-2" x="81.43" y="91.46" width="2.14" height="9.8"/><rect class="cls-2" x="79.29" y="105.55" width="2.14" height="9.59"/><rect class="cls-2" x="79.29" y="91.46" width="2.14" height="9.8"/><rect class="cls-2" x="81.43" y="105.55" width="2.14" height="9.59"/><path class="cls-2" d="M81.43,119.19a2.14,2.14,0,0,0,2.12-1.91H79.31A2.14,2.14,0,0,0,81.43,119.19Z"/><path class="cls-2" d="M81.43,88.11a2.15,2.15,0,0,0-1.92,1.21h3.84A2.14,2.14,0,0,0,81.43,88.11Z"/><path class="cls-2" d="M83.57,115.14H81.43v0H79.29v1.91c0,.08,0,.15,0,.23h4.24a1.79,1.79,0,0,0,0-.23Z"/><path class="cls-2" d="M79.29,91.46h2.14v0h2.14V90.25a2.09,2.09,0,0,0-.22-.93H79.51a2.23,2.23,0,0,0-.22.93Z"/><rect class="cls-2" x="81.43" y="103.41" width="2.14" height="2.14"/><rect class="cls-2" x="79.29" y="103.41" width="2.14" height="2.14"/><rect class="cls-2" x="81.43" y="101.26" width="2.14" height="2.14"/><rect class="cls-2" x="79.29" y="101.26" width="2.14" height="2.14"/><rect class="cls-2" x="94.67" y="105.55" width="2.14" height="9.59"/><rect class="cls-2" x="96.81" y="105.55" width="2.14" height="9.59"/><rect class="cls-2" x="96.81" y="91.46" width="2.14" height="9.8"/><rect class="cls-2" x="94.67" y="91.46" width="2.14" height="9.8"/><path class="cls-2" d="M96.81,119.19a2.14,2.14,0,0,0,2.12-1.91H94.69A2.14,2.14,0,0,0,96.81,119.19Z"/><path class="cls-2" d="M96.81,88.11a2.14,2.14,0,0,0-1.92,1.21h3.84A2.14,2.14,0,0,0,96.81,88.11Z"/><path class="cls-2" d="M99,115.14H96.81v0H94.67v1.91a1.79,1.79,0,0,0,0,.23h4.24a1.79,1.79,0,0,0,0-.23Z"/><path class="cls-2" d="M94.67,91.46h2.14v0H99V90.25a2.09,2.09,0,0,0-.22-.93H94.89a2.09,2.09,0,0,0-.22.93Z"/><rect class="cls-2" x="94.67" y="103.41" width="2.14" height="2.14"/><rect class="cls-2" x="96.81" y="101.26" width="2.14" height="2.14"/><rect class="cls-2" x="96.81" y="103.41" width="2.14" height="2.14"/><rect class="cls-2" x="94.67" y="101.26" width="2.14" height="2.14"/><rect class="cls-2" x="110.05" y="91.46" width="2.14" height="9.8"/><path class="cls-2" d="M112.19,105.55v9.59h.8a11.9,11.9,0,0,0,1.34-.08v-9.51Z"/><rect class="cls-2" x="110.05" y="105.55" width="2.14" height="9.59"/><path class="cls-2" d="M114.33,101.26V91.54a11.9,11.9,0,0,0-1.34-.08h-.8v9.8Z"/><path class="cls-2" d="M114.14,89.38a2.13,2.13,0,0,0-3.87-.06H113C113.38,89.32,113.76,89.35,114.14,89.38Z"/><path class="cls-2" d="M110.07,117.28a2.13,2.13,0,0,0,4.24-.07,11.43,11.43,0,0,1-1.32.07Z"/><path class="cls-2" d="M114.33,115.06a11.9,11.9,0,0,1-1.34.08h-.8v0h-2.14v1.91a1.79,1.79,0,0,0,0,.23H113a11.43,11.43,0,0,0,1.32-.07.88.88,0,0,0,0-.16Z"/><path class="cls-2" d="M110.05,91.46h2.14v0h.8a11.9,11.9,0,0,1,1.34.08V90.25a2.13,2.13,0,0,0-.19-.87c-.38,0-.76-.06-1.15-.06h-2.72a2.09,2.09,0,0,0-.22.93Z"/><rect class="cls-2" x="112.19" y="103.41" width="2.14" height="2.14"/><rect class="cls-2" x="110.05" y="103.41" width="2.14" height="2.14"/><rect class="cls-2" x="112.19" y="101.26" width="2.14" height="2.14"/><rect class="cls-2" x="110.05" y="101.26" width="2.14" height="2.14"/></g></g></svg>