<svg xmlns="http://www.w3.org/2000/svg" viewBox="0 0 160.07 160.07"><defs><style>.cls-1{fill:#ed7700;}.cls-2{fill:#3b3735;}</style></defs><g id="Capa_2" data-name="Capa 2"><g id="Capa_1-2" data-name="Capa 1"><rect class="cls-1" width="160.07" height="160.07" rx="44.01"/><path class="cls-2" d="M55.35,75.2c.41-.09.92-.14,1.19.19a1.08,1.08,0,0,1,.18.59,4.7,4.7,0,0,1-2.13,3.8c-2.2,1.61-5.08,1.88-7.8,2-3.06.1-6.32,0-8.91-1.64a4.33,4.33,0,0,1-2.16-2.93,2.15,2.15,0,0,1,2.7-2.45c1.44.42,2.62,1.36,4.14,1.71C46.86,77.44,51.16,76.08,55.35,75.2Z"/><path class="cls-2" d="M104.72,75.2c-.41-.09-.92-.14-1.19.19a1,1,0,0,0-.18.59,4.67,4.67,0,0,0,2.13,3.8c2.2,1.61,5.07,1.88,7.79,2,3.07.1,6.32,0,8.91-1.64a4.35,4.35,0,0,0,2.17-2.93,2.16,2.16,0,0,0-2.7-2.45c-1.45.42-2.63,1.36-4.15,1.71C113.21,77.44,108.91,76.08,104.72,75.2Z"/><path class="cls-2" d="M81.18,91a15.86,15.86,0,0,1,10.26,3.82c4.65,4,6.73,11.06,6.63,17-.08,5.67-1.88,11.54-6.33,15.29-7.26,6.12-17.54,4.5-24-2C55.79,113.13,63.58,90.72,81.18,91Z"/><path class="cls-2" d="M116.23,50.94a19.54,19.54,0,0,1,5-4.23,3.65,3.65,0,0,1,2.45-.48c.85.18,1,1,1.06,1.74.28,1.74.48,3.5.73,5.25.11.81.25,1.61.39,2.41.23,1.28.41,3.83,2.41,3.16a3.07,3.07,0,0,0,1.11-.73,6.83,6.83,0,0,1,2-1.6c1.58-.62,2.57,1,1.86,2.33a6.72,6.72,0,0,1-1.28,1.58l-2.77,2.74a9.75,9.75,0,0,1-2.59,2.21,1.74,1.74,0,0,1-2.31-.88,6.09,6.09,0,0,1-.54-2.1c-.12-.91-.24-1.82-.37-2.73-.27-2-.55-4.07-.82-6.1a3.73,3.73,0,0,0-.52-2,1.6,1.6,0,0,0-1.72-.41A2.78,2.78,0,0,0,119,52.31c-.8,1.24-1.12,2.89-2.46,3.71a1.68,1.68,0,0,1-2.31-.46c-.69-1.09.23-2.31.87-3.17C115.43,51.9,115.82,51.41,116.23,50.94Z"/><path class="cls-2" d="M128.86,41.54A15.76,15.76,0,0,1,133,38.07a2.9,2.9,0,0,1,2-.4c.69.15.77.82.87,1.42.22,1.44.39,2.88.59,4.32.09.66.21,1.32.32,2,.19,1,.34,3.14,2,2.59a2.54,2.54,0,0,0,.91-.6,5.66,5.66,0,0,1,1.61-1.32c1.3-.5,2.11.83,1.52,1.92a5.41,5.41,0,0,1-1,1.29c-.76.76-1.51,1.51-2.28,2.26a8.15,8.15,0,0,1-2.12,1.81,1.45,1.45,0,0,1-1.9-.72,5.13,5.13,0,0,1-.44-1.73l-.3-2.24c-.23-1.67-.45-3.34-.68-5A3.15,3.15,0,0,0,133.6,42a1.32,1.32,0,0,0-1.41-.33,2.33,2.33,0,0,0-1.1,1c-.65,1-.92,2.37-2,3a1.37,1.37,0,0,1-1.9-.37c-.57-.9.19-1.9.71-2.6C128.2,42.32,128.52,41.92,128.86,41.54Z"/><path class="cls-2" d="M140.79,32.46a13.52,13.52,0,0,1,3.47-2.93,2.54,2.54,0,0,1,1.7-.34c.59.13.66.7.74,1.2.19,1.21.33,2.43.5,3.65.08.56.17,1.11.27,1.67.16.88.28,2.65,1.67,2.18a2,2,0,0,0,.77-.5,4.52,4.52,0,0,1,1.36-1.11c1.1-.43,1.78.7,1.28,1.62a4.84,4.84,0,0,1-.88,1.09c-.64.63-1.27,1.27-1.92,1.9A6.53,6.53,0,0,1,148,42.42a1.21,1.21,0,0,1-1.6-.61,4.26,4.26,0,0,1-.38-1.45c-.08-.63-.17-1.26-.25-1.89l-.57-4.24a2.61,2.61,0,0,0-.37-1.35,1.08,1.08,0,0,0-1.19-.28,2,2,0,0,0-.93.81c-.55.86-.77,2-1.7,2.56a1.15,1.15,0,0,1-1.6-.31c-.48-.76.16-1.6.6-2.2C140.23,33.12,140.5,32.78,140.79,32.46Z"/></g></g></svg>