<svg xmlns="http://www.w3.org/2000/svg" viewBox="0 0 1778 600"><defs><style>.cls-1{fill:#e2ceb3;}.cls-2{fill:#bc9457;}.cls-3{fill:#bc9458;}</style></defs><g id="Capa_2" data-name="Capa 2"><g id="Capa_1-2" data-name="Capa 1"><rect class="cls-1" width="1778" height="600" rx="17.09"/><path class="cls-2" d="M772.78,471.75c13.67,1,23.06-7.22,32.8-14.85,6.21-4.87,10.46-11.62,16.49-16.59,6.86-5.65,14.39-10.58,23.27-11.63,12.65-1.5,20.54,6.77,27.84,15.58,10,12.11,10.56,26.46,9.63,41.08a292.92,292.92,0,0,0,.06,41.37c.06.66.27,1.31.3,2,.28,5.55.25,11.58,6.75,13.67a18.39,18.39,0,0,0,21.18-7c5-7.44,7.57-15.89,9.32-24.58,3.16-15.71,6.21-31.53,17-44.2,6-7.05,10.89-15.14,18.71-20.59,13.3-9.3,27.2-9.8,42.07-4,15.39,6,26.81,17.06,38.21,28.26a35.94,35.94,0,0,0,20,10.23c9.16,1.52,16-2.27,22.92-7.25,11.2-8,14.9-19.51,17.16-32.4,2-11.43,5.14-22.81,14.79-30.85,5.6-4.66,11.77-8.06,19-9.28,1.17-.19,2.36-.43,3.27.56,1.14,1.22.52,2.48-.12,3.67a17.43,17.43,0,0,1-1.55,2.56c-5.38,6.92-6.18,15-6.82,23.41-1.19,15.72,1.33,31.78-2.91,47.14-4.74,17.2-12,33.77-28,43.33-15.1,9-31.86,9.59-48.58,3.78-11-3.83-19-11.34-25-21.17-2.87-4.72-6.54-8.78-10.19-12.9-10-11.25-32.43-9-39.25,6.8-2.1,4.89-4.62,9.6-6.73,14.48-9.44,21.81-25.19,38.1-44.68,51.05-5.25,3.5-11.59,3.75-17.66,4.77-6.75,1.13-13.44,1.86-20.32,1.08C861.58,566.92,853,552.72,847,535.83c-1.3-3.69-.77-7.6-.14-11.39a210.21,210.21,0,0,1,9.67-37.1A47.54,47.54,0,0,0,859,475.67c.48-4.86-.95-9.22-5.71-11.82-5.12-2.79-10.17-2.85-15.09.35-3.27,2.13-5.49,5.17-7.51,8.51a82.63,82.63,0,0,1-35.64,32.43c-12.31,5.82-25.79,5.57-39.17,3.21-10.12-1.79-20.46-2.51-29.36-8.66-13.56-9.37-21.47-21.83-22.18-38.54a82.72,82.72,0,0,0-1-10.9c-2.17-12.16,5.32-20.63,10.81-30.05,5.83-10,9.68-20.82,3.76-32.16-5.13-9.81-14.43-14.57-24.65-17.19-12.82-3.29-22.11-10.31-27.14-22.75a17.64,17.64,0,0,1-1.62-7.21c.29-12.79,0-25.55,6.88-37.26,9.68-16.52,22.87-28.07,42.27-30.89,9.81-1.42,19,1.93,27.85,5.87,3.08,1.37,4.71,4.69,5.82,7.88q2.77,8,5.2,16.12c2.2,7.33,5.75,10.38,13.47,9.75s15.52-2.2,22-7.11c4.05-3.06,6.84-6.87,6.19-12.29-.57-4.75-3.18-7.38-7.66-6.09-14.27,4.11-22-7.41-22.23-20,0-2.49,0-5,0-7.49,0-4.42.3-9-5.87-9.59A1.47,1.47,0,0,1,757,248.1a2.34,2.34,0,0,1,2-2c6.27-.65,12.52-1.91,18.85-1.16,3,.36,2.73,3.1,2.66,5.16a17.1,17.1,0,0,0,2.39,9.54c1.21,2,2.92,3.33,5.34,2.76,2.23-.52,2.22-2.51,2.4-4.4,1.21-13.27,1.23-13.23,14.43-15.61,4.58-.83,9.09-2,13.67-2.75,1.85-.29,4.23-.67,5.2,1.78s-.66,3.67-2.25,5c-8.62,7.36-9.77,12.7-5.27,23.23A163.13,163.13,0,0,1,825.59,297c4.29,18.57-10.29,37.18-27.18,40.25-8.82,1.6-17.54,3.8-26.54,4.39-13.72.91-36-6.47-42.77-22.91-3.09-7.48-9-9.29-16.11-9-8.92.38-16,10-14.09,18.74,2.45,11.43,10.47,17.08,20.64,21,9.23,3.52,19.51,5.06,26.77,12.61,6.59,6.86,10.46,15,9.36,24.79-.55,4.82.9,9.6,0,14.4-1.25,6.52-4.61,12.15-7.93,17.67-6.88,11.45-6.61,33.75,3.46,45.76a18.21,18.21,0,0,0,11.19,6.1C765.79,471.35,769.3,471.44,772.78,471.75Z"/><path class="cls-2" d="M1032.56,188.5c7.61-.25,15.42.17,23.25,2.67,9.18,2.93,13,9.65,14.1,18.06,1,8-3.47,14-9.84,18.41-2.86,2-6.06,3.51-8.85,5.59a8.57,8.57,0,0,0-3.48,9.63c1.1,4.38,3.94,6.47,8.2,6.68a73.93,73.93,0,0,0,13,0c6.6-.83,11.88-4.61,13.63-11,3.68-13.37,6.44-26.92-.14-40.42a38.83,38.83,0,0,0-5-7.38,121.19,121.19,0,0,0-19.57-19.18c-4.36-3.4-9.25-4.66-14.81-5-11.14-.62-21.63,1.17-32.37,4.3-13,3.79-26.66,3.13-39.93.18-9.16-2-15.17-7.77-17.59-17.14-1.53-5.95-3.21-11.83-4-18-.58-4.68-3-8.54-7.87-10a38.51,38.51,0,0,0-15.12-1.82c-6.55.63-13.25-.12-19.87-.55-3.31-.22-6.39,1.27-9.86.36-6.44-1.68-11-6-16-9.87-13.67-10.59-23.83-24.51-35-37.49-4.29-5-9.39-7.92-15.67-6.65-7.34,1.5-14,4.77-16.15,13.06-1.34,5.31-2.51,10.62-2.43,16.22.15,11.53-11.76,29.32-22.43,33.17-13.29,4.79-25.78,3.85-36.17-7-6.56-6.84-13.22-13.61-19.58-20.63-10.92-12-24.53-15-40-12.6a105.24,105.24,0,0,0-11.27,2c-3.19.86-5.16-1.24-6.43-3.6s1.22-3.57,2.69-4.6c10.67-7.49,21.54-14.28,35.23-15.11a45.78,45.78,0,0,1,27.47,7c6.25,3.84,11.73,8.75,17.09,13.74a17.58,17.58,0,0,0,9.09,4.87c5.46,1,10-1.14,12.2-6.19,3.6-8.41,7-16.91,10.33-25.44,4-10.19,13-16.22,19.7-24.21a4.48,4.48,0,0,1,2.71-1.05c9.58-1.16,19.06-2.38,28.29,2.28,10.83,5.46,20,12.13,27.26,22.44a156.39,156.39,0,0,0,20.4,23.76c9.25,8.73,21.45,10.06,33.74,8a119.06,119.06,0,0,0,22-6.19c19.14-7.17,39.61,7.33,39.82,27.56.14,12.81,4.47,16.81,17.07,17.3,9.54.37,18.23-3,27.29-4.75,15.44-3,30.38-1.63,44.75,5.12,5.73,2.69,9.71,7.43,14.42,11.37,16.7,14,25.74,32.19,28.65,53.24,2.45,17.78.32,35.38-5.47,52.6-3.3,9.84-8.57,18.26-14.69,26.4-8.95,11.9-21.45,12.39-34.64,11.41-13-1-20.34-8.11-24-20.27-1.71-5.66-3.76-11.44-8.26-15.76-3.55-3.41-6-3.17-9,.83a13.42,13.42,0,0,0-3,8.33c.17,7.3-.64,14.61.69,21.91,1,5.55-1.43,8-7,8.89-8.88,1.41-17.82,2.05-26.77,2.75-5,.39-6.26-1-4-5.47,3.73-7.24,8.52-14,11.77-21.41,7.7-17.64,8.5-35.67.9-53.68-1.5-3.54-4.12-5.46-8.27-4.9s-5.91-1.69-6.13-5.81.7-6.94,5.12-7.66a53.82,53.82,0,0,1,5.93-.68,47.25,47.25,0,0,0,19.36-5.48C1015.59,188,1024,188.3,1032.56,188.5Zm-21.21,29.08c0,2.82-.09,5.64,0,8.46.14,3.93,2.33,5.27,6,4.27,9.47-2.6,18.54-6,26.47-12.07,3.13-2.38,5.72-5,4.16-9.13s-4.54-6.73-9.5-6.43-9.88.18-14.86.88C1011.52,205.27,1011.17,205.41,1011.35,217.58Z"/><path class="cls-2" d="M857.27,405.61a44.22,44.22,0,0,0-.8-15.79c-.84-3.17-2.27-3.66-5-2.61a11.87,11.87,0,0,0-6.76,6.93,50.09,50.09,0,0,0-2.44,7.59c-.92,3.77-3.27,5-7,4.86s-5.93-1.93-6.28-5.68c-.28-3-.42-6-.49-9-.06-2.59-.08-5.27-3.29-5.89s-4.46,1.9-5.48,4.14a84.25,84.25,0,0,0-6.44,22.46c-1,6.89-4.89,11.07-12.09,11.54-8,.52-16,.36-23.92.25-3,0-4.72-1.7-4.95-5.08-.26-3.92.63-7.63,1.4-11.34,4.8-23,16.17-42,35.1-56.24A73.16,73.16,0,0,0,824,336.64c3.16-4.33,4.66-8.94,2-14.43-2.17-4.46-.92-6.35,3.76-7.6,5.93-1.59,11.87-3.36,18.09-2.13,5.28,1,6.64,2.86,5.31,8a121,121,0,0,1-4.89,14.13,22,22,0,0,0-1.86,9.72c.33,4.26,3.13,5.75,6.92,3.78,5.23-2.71,7.64-7.26,8-12.94.53-7.57,4.75-13.43,9.16-19,3.5-4.42,9.34-2.61,14.11-3.36,3.16-.5,7.39-1.82,9.75,1.74s-1,6.54-2.46,9.53c-3.11,6.33-4.49,12.95-2.87,19.84.88,3.71-.17,7.25,0,10.89.41,8,1.31,15.87,2.15,23.79,1,9.8-.06,19.66-2,29.25-2.25,10.88-18.39,17.88-28,9.59C857.58,414.39,856.93,410.11,857.27,405.61Z"/><path class="cls-2" d="M1146.24,153.35c.33,21.36-2.54,37.06-9.35,52-.74,1.64-1.38,4-3.48,3.74-2.34-.24-2-2.79-2.15-4.47-1.4-18.23-7.41-35.31-15.21-51.41-7.93-16.4-19.29-30.61-38.47-35.22-11.75-2.82-15-16.63-11.57-25.72.81-2.18,1.47-4.44,2.44-6.55,3.37-7.31,1.63-13.87-2.56-20.24-3.29-5-6.39-10.12-9.53-15.21a14,14,0,0,1-1.71-11q1.85-7.83,9.74-8.45c6.43-.52,12.74-.47,19.14,1.3,16.14,4.47,28.79,13.61,37.71,27.62,12.44,19.54,21.63,40.34,23.11,63.88C1145.09,135.16,1145.83,146.77,1146.24,153.35Z"/><path class="cls-2" d="M966,416.54c-4.2.65-8.58-.76-13-1.13-4.3-.35-6.72-2.47-6.67-7.49.11-10.24,2.88-20,4.41-30a292.41,292.41,0,0,0,3.61-33.11c.27-6.89-2-12.78-8.27-16.5-3.74-2.21-4.33-5.63-3.78-9.5s3.9-4.4,6.7-4.93c7.81-1.49,15.69-2.74,23.57-3.8,4.66-.62,7.57,2.74,6.74,7.46a64,64,0,0,1-1.76,6.76c-2.69,9.36,8.31,18.43,15.82,18.43,2.77,0,3.78-1.44,3.94-4a32.49,32.49,0,0,0-1.57-11.29,27.36,27.36,0,0,1-1.29-5.81c-.69-10.75,2.25-14,13-13.8,6.68.12,13.27-.89,19.9-.95s7.38,1.66,5.4,7.83c-5,15.46-7.33,31.1-4.87,47.52,2,13.38,4,26.94,1.55,40.59-1.67,9.33-3.59,10.87-12.8,10-3-.27-6-.19-9-.22-5.27-.05-8.9-2.73-10.88-7.37-2.8-6.55-6-13-6.65-20.28a6.71,6.71,0,0,0-.29-1.47c-1-2.95-1.44-6.88-5.4-6.82-3.39.05-3.94,3.69-4.62,6.34a60.18,60.18,0,0,0-2,19.75,43.25,43.25,0,0,1-.76,9.87c-.38,2.41-2.28,3.65-4.63,3.86C970.36,416.68,968.35,416.54,966,416.54Z"/><path class="cls-2" d="M1060.58,304.43c9.81-.42,21.17.91,32.44,3.25,14.44,3,21.27,9.7,22.83,24.24a89.31,89.31,0,0,1-2.17,31.67c-2.9,11.44-10.65,19.59-18.35,27.94-11.35,12.32-27,15.18-41.88,19.43-4.91,1.41-11.25,2.4-14.85-2.64-3.14-4.41-1.64-10.18,1.24-14.15,5.51-7.57,5.81-16.15,6.23-24.68.69-13.74.62-27.51,1.14-41.25.19-5-1.42-8.61-5.39-11.58-2.28-1.7-5.32-3.42-3.85-7.24s4.67-4.93,8.41-5C1050.54,304.39,1054.7,304.43,1060.58,304.43Zm17.5,26.34c-11.56-.79-11.56-.79-11.79,10.68,0,.84-.11,1.67-.07,2.5.49,10.31-.9,20.56-.89,30.85,0,2.49-.07,5.82,3.94,4.12,6.12-2.59,12.32-5.35,16.06-11.27a97.62,97.62,0,0,0,10.22-22.1c2.37-7.32-2.85-14.2-10.49-14.76C1082.75,330.62,1080.41,330.77,1078.08,330.77Z"/><path class="cls-3" d="M723.51,157.4c14.67.5,24.69,1.1,34.12-3.25a7.7,7.7,0,0,1,1.93-.49c7.58-1.24,9-.06,8.65,7.55-.19,4.14-.57,8.29-2.28,12.17-3.78,8.6-6.23,10.2-15.41,7.92-6.6-1.63-13.17-1.4-19.81-1.59-4.44-.13-6.8,2.17-7.87,6.14-1,3.71,1.62,10.68,4.45,12.05,2.61,1.26,4.45-.42,6.26-1.86,2.19-1.76,3.9-4.08,6.67-5.14,5.67-2.19,11.63.21,13.07,6.12,2.7,11.08,1.16,14.41-9.26,17.57a43.69,43.69,0,0,1-16.25,2c-4.7-.37-7,1.8-8,6.25-2.09,9,.08,12.55,9.06,14.1,4.24.72,8.68,1.69,9.71,6.44s-1.08,9.08-4.85,12.38c-5.47,4.77-12.58,4.9-19.09,6.74-7.34,2.07-14.74,4-22.08,6.1-3.8,1.09-6.71,3.64-9.29,6.52-1.85,2.06-4,3.2-6.62,2-2.37-1-2.15-3.51-2.14-5.68.07-14.59,8.29-25.49,16.21-36.69,9.74-13.78,16.84-28.25,10.19-45.94a35.31,35.31,0,0,0-12.51-16.34c-4.82-3.59-4.61-3,.69-6.28C701.18,158.82,714.14,156,723.51,157.4Z"/><path class="cls-2" d="M716.44,525.47c-19.6,1.7-34.82-8.1-49.46-19.12-15.87-11.94-22.82-29.35-28.47-47.52-3.46-11.15-6.22-22.51-6.72-34.1-.56-13.07,2.75-25.58,8.29-37.58,2.63-5.72,7.07-9,11.87-12.31,2-1.34,4.15-1.48,6,.14,2.16,1.86.45,3.78-.47,5.34-2.28,3.86-5.24,7.35-6.76,11.63-4.52,12.8-3.7,25.12,3.69,36.76,4.25,6.69,10.85,7.68,17.92,7.31,6.85-.35,12.22,3.82,14.43,10.39,2.57,7.61,1.2,15.52,2.62,23.22,2.1,11.34,5.75,22.15,13.59,30.53,6.18,6.6,13.57,12.19,21.2,17.28,2.37,1.58,6.32,3.13,5.35,6.34s-5,1.33-7.61,1.65A45.68,45.68,0,0,1,716.44,525.47Z"/><path class="cls-3" d="M787.77,150.58c4.48.65,9.82-.31,15.16-1.84,6.84-2,13.9-1.31,20.84-.81,5.31.38,8.08,3.54,8.44,8.81.38,5.63.78,11.3-2.55,16.45-2.92,4.52-6,8-12.25,7.7s-8.76,2.76-9.09,8.77c-.27,5,2.92,7.12,7.38,4.82,2.36-1.21,4.56-2.76,7-3.82,4.79-2.09,8.93,0,10.48,5.05,4.46,14.47-5.57,24.08-17.53,26.62-7.86,1.66-12-.81-15.92-8.19-1.63-3.06-2.73-6.85-7.6-5-4.64,1.77-4.69,5.31-3.92,9.41.85,4.49,3,8.77,1.32,13.66-1.28,3.66-3.25,5.87-7.16,5.49-7.56-.75-14.76-.24-21.71,3.44-3.15,1.67-5.64-.7-5.32-4.74.36-4.69,2.08-9.06,4.09-13.28,6-12.44,12.8-24.54,17.69-37.39,3.8-10,6-20.85-1.8-30.74-1.91-2.43-.31-4.15,2.4-4.35C780.69,150.41,783.7,150.58,787.77,150.58Zm20.1,9c-3.07,1.32-7,.32-10.21,2.4-3.44,2.19-1.9,4.87-.64,7.35,1.39,2.75,3.71,2.76,5.73.89,2.64-2.44,5.83-3.65,9-5,1.31-.54,3.14-1,2.89-2.9s-2.17-1.77-3.51-2.21A23.46,23.46,0,0,0,807.87,159.63Z"/><path class="cls-3" d="M933.46,231.93a107.23,107.23,0,0,0,2,26.75c.69,3.71,3.22,5.63,6.55,6.78a5.36,5.36,0,0,0,1,.1c10.62,1.24,13-1.24,13.58-12,.37-6.77-2-12.35-5.23-17.83a29.62,29.62,0,0,1-4-16.72c.14-3.52,1.55-5.4,5.11-5.15,5.28.38,10.52,1.11,15.83,0a3.78,3.78,0,0,1,4.72,2.78c4.56,19.08,9.4,38.13,3.48,57.9-3.12,10.45-15,20.41-25.82,20.92-3.62.18-7.15.71-10.89.21-17.41-2.33-26.76-14.91-23.67-32.24,1.17-6.53,2.39-13.08,3-19.67.79-8-1.68-11.49-9.27-14.39a16.09,16.09,0,0,0-1.9-.6c-3.81-.84-8.3-1.56-7.33-6.8.84-4.48,4.8-6.3,9.11-6.19,6.43.15,12.07-3.57,18.59-3.21,3.63.2,5.2,1.24,5.11,4.9C933.37,222.28,933.46,227.1,933.46,231.93Z"/><path class="cls-3" d="M832.4,269.94c-1.11-26.61,18-41.48,36.61-44.36,8.88-1.37,14.93,4.56,21.17,9.35s7.92,12.13,9.52,19.29c2.68,12,2.37,23.36-5.12,34.25-8.8,12.8-29,18.17-41.27,15.36-10.55-2.41-15.35-11.07-18.65-20.42C833.07,278.91,831.69,274.19,832.4,269.94Zm47.92-8.29c-1.16-3.93-.41-8.89-2.31-13.43-2.54-6.07-9.39-7.84-13.6-2.91-6.16,7.23-10.18,15.59-8.91,25.5.92,7.26,9.36,11.42,15.55,7.51A18.75,18.75,0,0,0,880.32,261.65Z"/><path class="cls-2" d="M904.25,337.89c.62-6.34-.94-13.53-3.31-20.74-1.92-5.85-.28-11,7.46-12,6.28-.82,12.23.16,18.31.41,3.53.14,4.81,2.63,4.76,5.83-.12,8.32.63,16.6.86,24.89.38,13.48,2.71,26.69,4.37,40,1.26,10.1.64,20.24.34,30.36-.13,4.33-2.62,6.28-6.85,6.93-8.61,1.33-17.25.89-25.88,1-3.49.07-4.81-2.06-4.91-5.51-.24-8,1.08-15.89,2.22-23.74A161.49,161.49,0,0,0,903,368C903.38,358.37,904.46,348.78,904.25,337.89Z"/><path class="cls-3" d="M861.93,212.45c-5.1.07-10.1-.5-14.79,3-3.59,2.64-6.52.11-5.59-5,1.36-7.46.5-14.93.88-22.37.5-9.83-1-19.58-1-29.38,0-6.52,1-8,7.28-7.93a209,209,0,0,0,32.68-2.64c.63-.1,1.6-.27,1.89.06,2.89,3.23,2.69,7,1.28,10.7-1.11,2.93-2.88,5.88-6.61,4-4.83-2.49-10-1.92-15.08-2.81a3.68,3.68,0,0,0-4.15,2,3.39,3.39,0,0,0,0,3.8c1.27,1.57,3.05,1.1,4.53.22a6.73,6.73,0,0,1,5.25-.94c2.48.63,4.91,1.54,5.34,4.51s-1.29,4.58-3.84,5.67a12.31,12.31,0,0,0-5,3.13c-2.21,2.66-2.53,5.92-.61,8.25,2.24,2.73,5,.45,6.84-1.34,2.35-2.27,4.8-4,8.08-4.54,7.15-1.09,11,2.32,9.89,9.54-2.19,13.77-7.56,23.58-24.82,22.18C863.59,212.38,862.76,212.44,861.93,212.45Z"/><path class="cls-3" d="M939.1,194.81c.15,9.39-1.49,12.39-7.67,12.23-4.41-.11-8.83-1.36-13.16-2.45-6.39-1.61-12.52-.81-18.55,1.43-3.85,1.43-5.54,0-6-3.92-.58-5.51,1-10.57,3.29-15.39a21.14,21.14,0,0,0,1.09-15.93c-2-6.51-1-13.2.63-19.69a5,5,0,0,1,6.15-3.84c9.53,1.84,19.12,1.6,28.73,1.5,4,0,6.18,1.75,5.65,6.18-.43,3.6.41,7.29-.9,10.87-.83,2.29-2.06,3.74-4.59,3.84-2.8.1-3.57-1.83-4.26-4-1.89-6.08-6.35-9-11.9-8-2.09.37-3.34,1.33-3.46,3.53s.74,3.5,3,3.83a26.33,26.33,0,0,0,4.91.76c4-.17,5.47,1.82,5.11,5.49-.4,4.13-3.11,3.54-5.87,2.73-2.2-.63-4.56-1-5.62,1.55-1.25,3,.41,5.44,2.3,7.69,1.66,2,3.52,1.38,5.39.45a9.11,9.11,0,0,0,1.61-1.18c7.27-5.83,12.41-3.92,14,5.37C939.44,190.09,939.1,192.48,939.1,194.81Z"/><path class="cls-2" d="M1003.44,79a24.34,24.34,0,0,1,24.41-24.36,25.08,25.08,0,0,1,25.49,25.63,24.59,24.59,0,0,1-24.69,24.22A25.63,25.63,0,0,1,1003.44,79Z"/><path class="cls-2" d="M654.47,404.37c0-12.54,11.08-23.78,23.44-23.7s23.56,11.28,23.58,23.82c0,13.08-10.79,24.05-23.68,24C664.72,428.49,654.5,417.92,654.47,404.37Z"/></g></g></svg>