<svg xmlns="http://www.w3.org/2000/svg" viewBox="0 0 1778 600"><defs><style>.cls-1{fill:#f1ece6;}.cls-2{fill:#4b644e;}</style></defs><g id="Capa_2" data-name="Capa 2"><g id="Capa_1-2" data-name="Capa 1"><rect class="cls-1" width="1778" height="600" rx="17.09"/><path class="cls-2" d="M842.69,215.47c4.9-1.62,6.46.18,6.37,5.23-.25,13.57-.11,27.15,0,40.72,0,5.89-.28,12,8.41,14.46l-21.6,11.7c-4.4-5.15-7.75-1.7-11.67,1A18.66,18.66,0,0,1,804,289.92c-6.2-3.27-7.58-9.48-7.77-16-.61-20.34,11.93-34.52,31.4-34.5,5.23,0,4.66-2.13,4.32-5.53-.4-4.12-3.72-6.07-6.55-9.09ZM832.4,263c0-3.69-.12-7.39,0-11.07.17-3.88-1-6.73-5.05-7.69-3.87-.91-7.29-.23-9.94,3.07-4.54,5.65-5.58,21.67-1.73,27.81,2.77,4.42,6.8,5.63,11.76,4.74,5.61-1,5-5.21,4.93-9.19C832.37,268.09,832.4,265.54,832.4,263Z"/><path class="cls-2" d="M682.23,314.14l-5.11.6-24.21.15-.73-.24-.75.2a1.11,1.11,0,0,0-1.06-.22c6.88-8.79,8.15-19,7.58-29.69-.39-7.16-.68-14.28-8.32-19.32,6.44-2.59,12-4.6,17.37-7,4.83-2.19,8.29-2.37,8.08,5.27,4.93-3.85,9.26-6.48,14.34-7.44,10.07-1.9,15.44,1.65,16.42,11.87.76,7.89.12,15.9.59,23.83.39,6.43.39,13.32,10.42,17.17-11.87,3.75-21.77,3.17-31.21,5Zm-7.9-28.84A58.91,58.91,0,0,0,675.84,304c.9,3.4,2.7,6.89,6.65,6.76,3.47-.11,5.12-3.56,5.87-6.55a77.46,77.46,0,0,0,.83-32.12c-.62-3.56-2.22-7.74-6.9-7.29s-7.51,3.88-7.9,8.65C674.1,277.15,674.33,280.86,674.33,285.3Z"/><path class="cls-2" d="M648.09,285c.1,12.52-5.06,22.19-14.54,25.71-11.88,4.42-22.65,1.22-31.37-7.28-11-10.74-14.29-24.23-10.85-39.16,1.93-8.37,7.57-13.47,16.08-14.19C624.39,248.63,648,259,648.09,285Zm-17.44-2.2c-.4-7.28-.72-15.27-4.88-22.34-4-6.87-10.2-7.48-14.1-1.66-5.94,8.86-4.95,36.68,1.62,45.11,4.69,6,10.67,5.54,13.94-1.38C630.07,296.51,630.54,290,630.65,282.77Z"/><path class="cls-2" d="M792,367.12c-4.92,9.37-15.57,14.35-23.09,10.68-3.53-1.73-5.38-1.07-8.19.71a49.53,49.53,0,0,1-10,4.62c-5.36,1.88-10.36.87-13.62-4s-2.12-9.86,1.08-14.35c4.85-6.81,12.15-10,19.64-12.85,5.37-2.06,7.39-13.6,3.22-17.65a3.1,3.1,0,0,0-3.82-.68,7.64,7.64,0,0,0-4.71,7.54c.83,9.35-6,9.45-12,10.55-4.26.78-4.75-1.51-4.15-5,2.15-12.48,25.65-23.91,36.79-17.78,4.65,2.57,6.74,6.86,7.11,11.94.44,5.95.63,11.93.81,17.89C781.26,365.52,781.25,372.37,792,367.12Zm-28.16-4.19c-1.7-2,2.94-8.58-2.93-8.39-5.4.16-9.35,5.16-9.49,11.25-.1,4.49,2.2,7.7,7.2,7.34C764.6,372.69,764.64,368.37,763.83,362.93Z"/><path class="cls-2" d="M912.48,364.8c-7,9.65-17.29,12.13-24.55,6.77-3.43-2.53-5.66-2.48-9-.9a20.56,20.56,0,0,1-11.67,1.5c-6.9-.95-11.56-4.75-12.8-11.72s2.5-11.5,8.61-13.89c3.91-1.53,8.2-2,12.29-3.12,2.45-.65,6.59,1.16,6.76-3.1.2-5,1.53-11.2-3-14.37-4.87-3.38-6.78,1.2-7.64,5.4-1.4,6.87-8.26,9.85-14.6,6.48-2.4-1.27-2.28-3.16-1.85-5a12.34,12.34,0,0,1,5-7.7c8.91-5.94,18.7-6.83,28.46-3.15,8.94,3.36,11.17,11.3,11.3,20.1.07,4.82.51,9.63.63,14.45C900.52,363.21,901.22,369.2,912.48,364.8Zm-29.3-9.15c-2.13-2.41,3.23-9.13-4.38-9-5.58.11-8.71,4-8.47,9.59.23,5.37,3.78,8.31,8.91,8.2C885.23,364.32,882.9,359.48,883.18,355.65Z"/><path class="cls-2" d="M764.42,288c-6,15.46-25.58,23.67-38.47,17.47a18,18,0,0,1-8.94-9.84C708.1,274,727.42,248.37,750.59,251c9.61,1.09,17.37,10.65,17.06,20.34-.11,3.73-2.41,4.05-4.88,4.53-8.08,1.54-16.15,3.19-24.28,4.38-4.74.69-5.47,2.55-3.87,6.82,3.3,8.82,13.89,12.13,22.65,6.64C759.41,292.37,761.26,290.56,764.42,288Zm-26.74-11.4c10.86-.34,16.63-4.32,15.93-11.25-.53-5.24-3.1-9.22-9.08-9.15-6.21.08-11.46,8.34-11.29,16.64C733.32,276.5,734.79,277.29,737.68,276.62Z"/><path class="cls-2" d="M905.93,259.64c-.1,2-.16,3.95-.29,5.93-.43,6.92,1.1,11.75,10.32,8.22-4.92,7.47-15.21,10.79-22.5,6.76-4.21-2.32-7.15-1.58-10.86,0-4.46,1.91-9.12,3.22-14.08,2-4.11-1.06-7.35-3.17-8.56-7.44a10.69,10.69,0,0,1,3.42-11.57c5-4.53,11.15-6.51,17.76-7.46,7-1,10-9.05,6-15a4.07,4.07,0,0,0-4.27-2.05c-3.4.49-4.53,3.23-5.34,6s.54,6.64-4.11,7.11c-4.08.41-9.42,2.73-11.68-1.46s1.79-7.8,5.22-10.51c6.41-5.09,14.22-5.15,21.81-6l1.71.11c7.94,2.23,14,6.34,15.39,15.2Q905.89,254.52,905.93,259.64Zm-17.58,6.22c-1.44-2,3.09-7.89-3.51-7.48-5,.31-9,3.6-9.26,9.24-.21,4.88,3.1,7.08,7.52,7.17C889,274.92,888.66,270.57,888.35,265.86Z"/><path class="cls-2" d="M1107.93,353.46c3.49-15.17,13.28-23.24,28.47-25,6.52-.77,12.46.85,17.19,5.6,4.22,4.22,7.05,10,5.91,15.35-1,4.91-7.49,3.52-11.68,4.38-5.84,1.19-11.74,2.14-17.67,2.8-4.26.47-4.25,2.34-3,5.69,4,10.87,17.22,13.46,26.6,5.08,2.94-2.61,2.94-2.61,4.42-.27-7.6,10.14-17.35,16.09-30.42,15.56-16.21-5.14-19.92-10.58-19.76-29Zm21.94-.52c11.31-.17,16.24-3.22,15.72-10-.45-5.87-3.76-9.52-9.84-9.52-5.58,0-10,6.77-10.06,14.67C1125.64,351.15,1125.53,354,1129.87,352.94Z"/><path class="cls-2" d="M926.68,236.78c2.5.49,5,1,7.5,1.45,3.45.6,4.63.86,4.45,6-.33,9.49,7.57,16.6,12.17,26.73,4.23-9.43,13.47-15,8.12-27.4l19.31,6.66c-9.45,1.75-14.56,8-19.21,14.75-6.42,9.34-12.87,18.67-19,28.18-5.92,9.1-13.71,14.15-24.9,12.72-3.61-.46-7.29-1.73-7-5.87.28-4.4,4-5.81,8.12-5.72a20.18,20.18,0,0,1,4.16.78c9.47,2.3,15.06-.64,19-9.79.85-2,1.18-3.64,0-5.57-7.33-11.78-13.39-24.32-22.06-35.32-2.82-3.58-8.2-3.95-9.71-8.72l17.06.76,1.7.29Z"/><path class="cls-2" d="M809.68,307.23a20.65,20.65,0,0,1,.38,4.12c-.72,7.29,1.36,11.29,9.72,9.34,2-.46,5.47-1.76,5.87,2.5s-3.1,3.58-5.25,3.42c-8.61-.65-10.61,3.41-9.34,11.2.87,5.28.53,10.77.72,16.16.45,12.84.65,13,13.13,10.1-4.18,8-15.45,12.49-23.25,9.3-5.14-2.1-5.79-6.84-6.12-11.3-.63-8.49-.63-17-1-25.54-.19-4,1.39-9.45-8.17-6.93,10.4-7,15.88-15.27,21.48-23.38Z"/><path class="cls-2" d="M981.51,303.5c3.63-1,7.24-1.49,10.59.85,4.34,3,5.25,7.34,3.8,12-1.16,3.76-4.35,5-8.13,4.57-4.73-.59-7.84-3.11-8.68-7.95a13.58,13.58,0,0,1,1.7-9A.61.61,0,0,0,981.51,303.5Z"/><path class="cls-2" d="M1173.47,357.72c4.13-1.42,8.56-5,12.38-.14,4.08,5.17,1.63,10.13-1.82,14.68h0l-1.91,1.13a2.16,2.16,0,0,0-1.49.75l-6.83-.05-3.32-3.52a19.52,19.52,0,0,1,2-11.91A1,1,0,0,0,1173.47,357.72Z"/><path class="cls-2" d="M1057.37,385l-47.55-2.93c11.72-10.74,7.76-22.89,6.34-34.55a7.53,7.53,0,0,0-5.95-6.53c-.14-1-.27-1.94-.41-2.91l15.38-4.88c4.41-1.39,9.72-4.67,8.34,4.89,16.09-9.27,23.93-8.4,31.71,3.05,4.94-3.71,10-7.1,16.28-8.35,10.24-2.06,16,1.72,17.19,12,.84,7.6.9,15.29,1.55,22.91.49,5.78,1.7,11.34,9,14.15-6.57,4.09-13.06,1.34-18.71,3.23Zm26.11-22.52c-.51-5.59.68-11.43-2-16.69-1.55-3.08-3.78-6-7.81-5.29-3.51.61-7.1,2.76-7.33,6.21-.67,10.1-1.25,20.35,2.5,30.12,1.21,3.17,4,5.26,7.1,5.1s5.32-2.7,6.39-6C1083.79,371.5,1083.37,367,1083.48,362.48Zm-33.64-2.35c-.76-5.27.55-10.81-2.09-15.84-1.52-2.9-3.61-5.29-7.21-4.94-3,.3-6,2.16-6.23,5-.69,11-1.36,22.09,3.14,32.6,1.07,2.5,3.28,4.29,5.93,4.11,3.14-.22,4.88-2.78,5.59-5.68A45.2,45.2,0,0,0,1049.84,360.13Z"/><path class="cls-2" d="M933.23,328.78c9-4.16,14.17-11.42,19.55-17.77,2.94,1.19,2.62,3.15,2.42,4.68-1,7.76,1.75,11.63,10.06,10.94,2.21-.18,5.75-.5,5.6,3.4-.19,4.94-4.26,3-6.4,2.58-7.34-1.32-9.49,1.18-8.27,8.46.93,5.53.51,11.3.67,17,.36,13.35.35,13.35,14.09,12.7-5.25,7.44-12.19,7.82-19.59,6.73-7.12-1-10-5.89-10.42-12.47-.57-9-1-18.09-1.19-27.14C939.65,333.37,939.75,329.19,933.23,328.78Z"/><path class="cls-2" d="M978.24,341.21c-1.39-1.64-2.78-3.29-4.18-4.93.64-.62.94-1.16,1.37-1.29,21.93-7,21.89-7,22.67,16.17.17,5.36-.4,10.81,1.56,16,0,1.88-.17,3.78,1.38,5.25-.08,4,4.33,4.82,6.3,9-11.34-.41-21.88-.58-33.7-3.28,8.22-5.27,9-12.17,7.79-19.69C981.18,352.56,982.57,346.36,978.24,341.21Z"/></g></g></svg>