<svg xmlns="http://www.w3.org/2000/svg" viewBox="0 0 1778 600"><defs><style>.cls-1{fill:#fff;}.cls-2{fill:#222;}</style></defs><g id="Capa_2" data-name="Capa 2"><g id="Capa_1-2" data-name="Capa 1"><rect class="cls-1" width="1778" height="600" rx="17.09"/><path class="cls-2" d="M674.69,232.45c3.3-15.78-3.53-29.79-7.62-44.29-.86-3-3.78-7.33.64-8.76,5.69-1.85,4.47,4.29,5.61,7.17A106.85,106.85,0,0,1,677.79,201c1.61,6.75,4.08,5.32,7.07,1,4-5.74,8-11.46,11.86-17.33,1.49-2.29,3-4.71,5.82-2.92,2.34,1.51.86,4-.29,6-4.53,7.77-9.47,15.3-15.58,21.87a19.15,19.15,0,0,0-5.43,14.26c.06,8.68-.86,17.36-1.26,26-.12,2.79-.7,5.42-4,5.18-4-.29-2.51-3.62-2.4-5.89C673.86,243.64,674.31,238,674.69,232.45Z"/><path class="cls-2" d="M906.72,233.14c0,3.08,0,6.16,0,9.24-.09,6,1.53,12.61-8.55,12.52-12.2-.12-17.21-2.63-18.23-11.22-1.07-8.91,3.34-15.22,11.75-16.29,4.18-.53,9.12,1.11,8.26-6.41-.77-6.69-3-11-10.3-12-2.77-.38-8,3.36-8-2.21,0-5.21,5.57-3.43,8.77-3.42,9.8,0,15.19,5.24,16.12,15.54.43,4.72.08,9.51.08,14.27Zm-6.56,8.4c-.83-3.25,2-8.49-5.06-8.06-5.11.31-8.81,1.72-8.74,7.72.08,6.31,4,7.94,9.43,8.13C902.66,249.56,899,244.32,900.16,241.54Z"/><path class="cls-2" d="M855.1,387.46c0-3.09-.14-6.18,0-9.26.31-5.69.89-11.43-8-8.57-1.11.36-2.35.29-2.67-1.14a2.61,2.61,0,0,1,2.64-3.44c9.45.48,7.91-6.17,8.09-11.9a103.52,103.52,0,0,1,1-13.42c1.13-6.9,7.47-10.43,13.89-8.22,1.48.51,2.57,1.24,2.53,2.85-.05,1.78-1.48,2.43-2.91,2.23-8.49-1.18-7.89,4.94-8.19,10.19-.22,3.64.2,7.33-.2,10.94-.54,4.71,1.09,6.65,5.9,6.43,1.91-.09,5.18-.59,5,2.77-.18,2.6-2.86,2.3-4.75,2-5.75-.82-6.32,2.39-6.13,7,.31,7.57.3,15.16.13,22.73-.07,3.07,1.73,8.11-2.95,8.37-5.21.28-2.85-5-3.19-7.8-.47-3.88-.12-7.85-.12-11.78Z"/><path class="cls-2" d="M763.4,368.7c0,8.4.34,16.83-.16,25.2-.22,3.68,1.89,9.53-4.25,10.31s-12.53.4-16.24-6c-5.83-10.15-.76-22.62,10.7-25,4.72-1,5.65-2.82,5.53-7.12-.24-8.12.11-16.26.21-24.39,0-2.56-.14-5.57,3.58-5.25,3.52.31,2.1,3.39,2.12,5.34.12,9,.05,17.94.05,26.91Zm-5,17.25c-1.83-1.9,3.15-7.35-2-8.1-5.57-.8-9.23,3.26-9.5,9.27a24.35,24.35,0,0,0,.4,7.45c1,3.76,4.52,5.11,7.87,5,3.75-.13,2.19-3.78,2.64-5.94A70.47,70.47,0,0,0,758.37,386Z"/><path class="cls-2" d="M745.15,231.36c-.5,5.76-.8,12-3.54,17.64-2.44,5-6.5,7.48-12.22,7.13s-8.32-4.25-9.67-9a43.46,43.46,0,0,1,.12-24.09c2-6.93,5.65-12.65,13.77-12.4,8.46.26,9.49,7.46,11.07,13.67C745.22,226.4,745,228.73,745.15,231.36ZM738.23,230a23.83,23.83,0,0,0-.08-5.48c-.56-3.21-1.1-7-5.24-7.57-4.33-.55-5.63,3.09-6.58,6.26a43.65,43.65,0,0,0-.77,21.48c.57,2.85,1.78,5.41,5.24,5.54,2.93.1,4.54-1.85,5.5-4.3C738,241.42,738.74,236.76,738.23,230Z"/><path class="cls-2" d="M768.83,230.38c0,4.77-.13,9.55,0,14.31.11,2.91,1.09,5.68,4.5,6.2,3.18.49,5.42-1.29,6.81-3.94a36.41,36.41,0,0,0,3.75-16.25c.14-5.89.35-11.78.34-17.68,0-2.7,1.86-3.31,3.74-3.63,3.29-.57,2.65,2.11,2.66,3.86,0,9.25.65,18.55-1.53,27.66a38.72,38.72,0,0,1-3.1,8.64c-3.06,5.95-8.2,8.16-14.71,7.1s-8.46-6.43-8.89-11.73c-.71-8.65-.36-17.38-.51-26.08-.05-2.93,1-5.17,4.11-5.24,3.77-.09,2.39,3.06,2.48,5,.17,3.92.05,7.85.05,11.78Z"/><path class="cls-2" d="M665.64,384.56c.29-4.12-.48-8.88,1.22-13.53,2.41-6.62,7.77-8.56,13.92-8.68,4.13-.08,7.8,1.79,8.68,6.39,1.2,6.28-1.59,10.84-6.92,14a18.78,18.78,0,0,1-3.8,1.78c-4.17,1.32-9,1.48-7.72,8.35,1.15,6.12,4.25,9.49,10.27,10.37a4.36,4.36,0,0,1,.83.13c3,1.29,9.19-2.36,8.77,2.75-.37,4.49-6.51,2.64-10.13,2.23C668.57,406.94,665.69,402.34,665.64,384.56Zm5.53-8.11c.29,1.41-1.45,3.79,1.81,4.33,3.83.63,10.87-4.72,11.08-8.56.13-2.56-.74-4.49-3.62-4.51Q671.95,367.65,671.17,376.45Z"/><path class="cls-2" d="M923.62,236.14c0-3.08-.08-6.16,0-9.24.24-7.62,3.91-12,11.81-12.35,8.11-.34,12.45,3.19,13.95,11.29,1.54,8.32,1.33,16.73,1.51,25.13.05,2.63,0,5.49-3.55,5.4-3.11-.09-2.9-2.84-3-5.05-.15-5.88-.11-11.77-.45-17.64a46.28,46.28,0,0,0-1.56-8.18c-1-4.11-4.31-4.87-7.83-4.69s-4.71,3.06-4.81,5.9c-.22,6.13,0,12.28.11,18.43,0,2.78.57,6.29-3.59,6.15s-2.28-3.76-2.49-5.92c-.3-3.05-.08-6.15-.08-9.23Z"/><path class="cls-2" d="M1068.9,392.14A75,75,0,0,0,1079.81,373c.91-2.38,2.51-4.24,5-2.93s.68,3.42-.1,5.13a177.23,177.23,0,0,1-17.89,30.33c-2.92,4-4.64,8.86-7,13.26-.83,1.53-2.3,2.75-4.13,1.77-1.57-.85-.88-2.44-.36-3.72,1-2.59,1.57-5.71,3.36-7.61,9.27-9.86,3.68-18.82-1.21-27.89-.92-1.72-2.16-3.26-3.15-4.95s-2.44-3.66-.26-5.16c2.48-1.7,4.24.12,5.35,2.23C1062.44,379.35,1065.4,385.28,1068.9,392.14Z"/><path class="cls-2" d="M840.71,233c.19-5.88.44-11.68,3.71-17,4.08-6.62,10-7.36,16.74-5.79,1.91.45,3.87,1.62,3.36,4.06s-2.61,2.62-4.66,2.1c-8.57-2.14-11,3.19-11.84,10a74.29,74.29,0,0,0-.1,12.57c.42,7.66,3.82,12.09,12.31,10.77,1.88-.29,4.84-2,5.23,1.76.31,3-2.57,3.28-4.63,3.87-8.11,2.31-15.23-1.26-18.27-9.11C840.91,242,840.71,237.53,840.71,233Z"/><path class="cls-2" d="M922,403.83c-2.27,0-3.39,0-4.51,0-1.69,0-3.72.09-3.88-2.15-.15-2,1.46-2.84,3.35-2.92,1.68-.06,3.38,0,5-.12,7.09-.69,8.6-4,4.45-10-2.69-3.92-5.8-7.56-8.5-11.48-3.05-4.42-4.89-9.51-.64-13.85,4.58-4.66,10.93-3.39,16.77-2.92,1.41.11,1.56,1.5,1.33,2.61-.33,1.62-1.69,1.89-3.14,2.24-13.42,3.26-13.53,3.6-5.06,14.63,1,1.34,2.12,2.62,3.15,4,3.34,4.36,6.23,9,3.63,14.65S925.78,403.34,922,403.83Z"/><path class="cls-2" d="M833.24,383.12c-.35,5.59-.55,11.23-3.44,16.25a9.75,9.75,0,0,1-9.76,5.2c-4.5-.33-7.26-3.05-8.35-7.11a39.09,39.09,0,0,1,.26-22.35c1.8-5.62,5.23-10.26,12-9.56,6.25.64,7.56,5.92,8.69,10.89A46.19,46.19,0,0,1,833.24,383.12ZM816,388.43a24.31,24.31,0,0,0,.24,4.25c.45,3.06,1.08,6.7,4.84,6.86s4.69-3.4,5.52-6.4c1.59-5.78,1.27-11.64.43-17.48-.33-2.25-1.31-4.47-4-4.77s-4,1.46-5,3.62C816.26,378.16,815.92,382,816,388.43Z"/><path class="cls-2" d="M964.68,359c-.16,4-1.7,9.2,5.93,8,1.29-.2,3-.16,3.27,1.68a2.56,2.56,0,0,1-3,3.06c-7.32-1.11-6.49,3.64-6.14,8.16.49,6.4,1,12.8,1.42,19.2.14,2.09,1.22,5-2.2,5.25s-3.12-2.72-3.29-4.77c-.56-6.68-1.17-13.37-1.22-20.06,0-5.42-.88-8.93-7.49-6.52-1.35.49-3.49,1.49-4.16-.87-.76-2.65,1.32-3.58,3.36-3.57,8,.06,8.54-5.1,8.08-11.12a22.5,22.5,0,0,1,.17-4.18c.24-2,.89-4.21,3.28-4.13,3.09.1,1.86,2.77,2,4.5S964.68,357,964.68,359Z"/><path class="cls-2" d="M1008.06,383.52a31.83,31.83,0,0,1-2.41,14.42A10.47,10.47,0,0,1,995,404.55c-5-.2-7.33-3.77-8.47-8-2.16-8-1.09-16.2.56-24.07,1-4.68,5.58-6.51,10.33-6.93s7.16,2.37,9,6.14C1008.29,375.6,1008.16,379.8,1008.06,383.52Zm-5-.22-.49-.06a33.62,33.62,0,0,0,0-5c-.51-3.33-1-7.33-5.29-7.37-3.69,0-4.59,3.68-5.38,6.63a35.19,35.19,0,0,0-.5,15.81c.51,2.64,1,6,4.55,6.22s4.68-2.78,5.35-5.5C1002.14,390.5,1002.5,386.88,1003.08,383.3Z"/><path class="cls-2" d="M727.72,392.24c-1.76,4.15,3.14,11.57-3.32,11.94-3.94.23-1.58-7.59-2.17-11.76-.55-3.87-.47-7.84-1.09-11.7-.65-4-3-6.72-7.44-6.29-4.27.41-4.25,3.95-4.33,7-.14,5,.15,10.08.13,15.11,0,2-.12,4.25-3,3.93-2.3-.25-2.09-2.27-2.1-3.89,0-6.14-.29-12.3.07-18.43.34-5.94,4.08-9.16,9.9-9.33s10.54,2.22,11.7,8.52C727,382.23,727.19,387.28,727.72,392.24Z"/><path class="cls-2" d="M1029,376.18c3.94-2.83,6.46-6.72,10.75-8.2,1.86-.65,3.8-1.89,5,.6.9,1.84-.33,2.95-2,3.9-9.82,5.58-14.93,13.88-14.35,25.39.12,2.41-.41,4.87-3.29,4.81s-2-2.85-2-4.56q-.23-12.14-.12-24.27c0-2.61-.92-6.56,3.12-6.46,3.7.1,1.69,3.92,2.23,6.09C1028.54,374.18,1028.7,374.89,1029,376.18Z"/><path class="cls-2" d="M976.2,235.63c-5,.34-8.51,3.17-8.27,8.59.22,4.93,2.51,8.67,8.15,8.64,5.92,0,8.24-3.75,8.72-9.36C984.31,238.47,981.58,235.28,976.2,235.63Z"/><path class="cls-2" d="M1105.53,402.21c-5-.61-7.35-3.4-7.28-7.88.08-5,2.79-7.72,8-7.46,5,.26,6.7,3.44,6.43,7.9S1109.68,401.71,1105.53,402.21Z"/></g></g></svg>