<svg xmlns="http://www.w3.org/2000/svg" viewBox="0 0 1778 600"><defs><style>.cls-1{fill:#dedfd9;}.cls-2{fill:#114165;}</style></defs><g id="Capa_2" data-name="Capa 2"><g id="Capa_1-2" data-name="Capa 1"><rect class="cls-1" width="1778" height="600" rx="17.09"/><path class="cls-2" d="M717.71,266.91a.8.8,0,0,0-.39-1l-1.48-3.45-.09-.44c-.44-2.08-1.07-3.59-3.86-3-3.08.68-4,2.69-3.68,5.3.92,7.78-2.43,11-10.12,10a22,22,0,0,0-3.62.11l.07.08q-.12-19-.25-38.1l0-3-.06-1.45,0-3c.46-1.29.92-2.58,1.39-3.87l1.54-.16c2.88-.11,5.87.4,8.43-1.52,4.75,1.1,9.55-.4,14.41.61,11.92,2.49,17.54,13,10.53,22.77-3.59,5-2.34,8.56-1.24,13.19s4.07,9,3.14,14.08C724.44,277.89,719.68,275.21,717.71,266.91Zm-10.4-24.35c1.58,1.56-2.31,7,2.63,6.5,4.34-.47,10.65-2.12,10.58-8.05s-5.79-4.08-9.63-4.51C706,236,706.55,238.86,707.31,242.56Z"/><path class="cls-2" d="M984.84,368.81l-.62-1.37c-3.37-3.28-6-3.3-7,1.86-.45,2.39-.15,4.9-.49,7.32-1,7-6.57,2.84-10,3.86-4.2,1.28-3.28-2.4-3.28-4.54,0-8.8.23-17.61.2-26.42-.05-19,1.87-20.82,21.39-19.37,1,.07,1.95.2,2.92.32,12.43,1.56,18.51,12.66,11.35,22.78-3.36,4.76-2.81,8.16-1.36,12.56.84,2.55,1.27,5.3,2.45,7.67,2.64,5.28.55,7.24-4.61,8.34-3.68.78-6.16.95-6.92-3.55a12.43,12.43,0,0,0-3-6.56l.05.06C985.59,370.78,985.21,369.8,984.84,368.81Zm-8.72-21c2.49,1.27-2.29,7.59,3,7.43,4.31-.13,10.54-2.17,10.53-8,0-5.14-5.23-4.45-9.06-4.48C977.81,342.68,974.81,342.34,976.12,347.77Z"/><path class="cls-2" d="M667.8,355.4c-9.51,8.7-9.51,8.7-21.37-2.25-.7,7.57-1.81,14.39-1.83,21.22,0,5.4-3.53,5.12-6.78,5.31-5,.29-2.74-3.68-2.66-5.7.45-10.77,1.17-21.52,2-32.27.14-1.95-.78-5,2.47-5.25,2.69-.22,5.8-2.06,8.13,1.12a15,15,0,0,0,2.08,2.06c7.41,6.78,7.63,6.94,13.61-.82,2.66-3.44,5.63-4.58,9.47-3.66,4.16,1,2.54,4.81,2.83,7.36,1.14,10.22,1.89,20.48,2.81,30.72.27,3.05.72,5.65-4,5.89-4.36.23-3.88-2.28-4.26-5C669.4,368,670,361.61,667.8,355.4Z"/><path class="cls-2" d="M848.43,271.65a1.24,1.24,0,0,0-1.07.3l-2.88.19-5,.75c-.29-.4-.58-.8-.88-1.19,0-4.14.24-8.29-.1-12.4-.21-2.52,2.14-7.08-3.75-6.41-4.07.47-9.36-.69-8.56,6.46a39.1,39.1,0,0,1-.31,6.55c-.56,9.38-.56,9.38-10.36,6l-.72-31c.05-1.44.17-2.89.14-4.33-.2-11.32,1-12,12.23-7.47-.17,2.68-.15,5.38-.54,8-.76,5.15.61,7.17,6.47,7.12,6.9-.05,4.09-4.27,4.19-7.3a49,49,0,0,0-.42-8c-.87-6.71,4.39-4.89,7.75-5.66,4.78-1.08,4.32,2.37,4.38,5.26C849.33,242.9,849.31,257.28,848.43,271.65Z"/><path class="cls-2" d="M1051.84,256.82c.62,14.75,0,15.42-13.41,16.34-2.69.18-5.37.5-8.06.69-7.5.53-12.09-3.28-12.66-10.71-.5-6.6-.93-13.22-1.07-19.83-.16-7.49,2.84-10.16,10.17-11.64,18.35-3.72,23.45,2.1,24.68,19.82C1051.65,253.7,1051.78,255.9,1051.84,256.82Zm-11.64.26c-.31-3.65-.33-6.37-.82-9-.46-2.44,1.22-6.87-3.87-6-4,.7-9.41.43-8.39,7.3.4,2.65.24,5.39.71,8,.52,2.88-1.12,7.47,5.1,6.27C1037.49,262.82,1042.17,262.9,1040.2,257.08Z"/><path class="cls-2" d="M584.75,224.46c2.93.15,5.87.26,8.8.46,2.34.16,5.45-.38,4.71,3.61-.5,2.68-.22,6.27-4.8,5.76a28.2,28.2,0,0,0-3.65.2c-2.74,0-3,1.8-3,4s.34,4.16,3.11,3.77c4.06-.58,5.37,1.34,6.25,5.06,1,4,0,5.62-4,5.28-4.34-.37-5.28,1.65-5.08,5.67.23,4.71,3.26,3.51,6.06,4,3.73.7,9.88-3.81,10.52,4.57.24,3.16-.51,4.36-3.74,4.67-7.54.71-15.07,1.61-22.55,2.79-3.19.51-3.74-.67-3.83-3.41-.46-14.18-1-28.37-1.64-42.55-.15-3.17.65-4.48,4-4.11a83.26,83.26,0,0,0,8.8.06Z"/><path class="cls-2" d="M1222.83,233.54c8.3-2.86,9.63-2,9.63,6.08,0,8.81-.55,17.66,0,26.44.39,6.22-1.62,8.46-7.65,7.46a41.41,41.41,0,0,0-5.12-.26c-2.18-7.19-6.69-12.95-11.11-18.92,1.34,5-2.89,9.36-.81,14.34,1,2.41.23,5.1-3.9,5.23-3.7.12-5.27-.49-5.15-4.6.29-10,0-20,.22-30.06.15-8.18,3-9.93,10.69-7.52,3.5,1.09,3,4.81,5.13,6.68l0,.17a82.74,82.74,0,0,0,8.11,17.17Z"/><path class="cls-2" d="M808,378.39l.09-.39-.31-.24c-1.72-6.53-6-11.5-10.46-18.48v18.48c-.11.63-.23,1.26-.34,1.89-9.15,1.28-9.25,1.28-9.29-7.92,0-8.8-.07-17.61.37-26.39.13-2.55-1.64-7,2.06-7.49,4.13-.51,9.48-1.86,12.25,3.61l0,.25c.9,2.46,1,5.3,3.36,7.05l-.1-.09c.64,4.64,3.07,8.35,6.16,12.9V350.26l-.92-1.06c1.83-1.18,1.11-3.05,1.21-4.66.17-2.83-.7-5.84,4.22-5.63,4.31.18,5.25,1.83,5.12,5.76-.28,8.52-.14,17.06-.17,25.6,0,10.21-.43,10.58-10.64,9.3A10.05,10.05,0,0,1,808,378.39Z"/><path class="cls-2" d="M896.91,239.41q.36-3.49.7-7c7.39-1,9.6,2,9,9.41-.7,8.93,0,18,0,27-.15,1.5-.31,3-.47,4.48-8.59,2.26-13.87-1.67-17.2-9.23l.09.1L888,262.3l-.13-.32-4.07-7.34a36.31,36.31,0,0,0-1.62,13.91c.18,4.2-1.8,5.45-5.71,5.49-4.42,0-3.73-2.91-3.73-5.5,0-9.78-.15-19.58.18-29.35.09-2.76-1.62-7.5,2.86-7.81s9.74-1.46,12.05,5.23a73.29,73.29,0,0,0,9.07,18.74Z"/><path class="cls-2" d="M1039.18,370.47c1.44,5.8-1.11,7.43-6.71,7.58a127.67,127.67,0,0,0-18.91,2.4c-3.31.58-4.25-.27-4.34-3.57q-.56-20.94-1.59-41.87c-.18-3.66,1.07-4.69,4.57-4.46,7.08.48,14.19.63,21.28.92h.12c1.24,3.26-.47,6.16-1.13,9.19l.21-.13c-2.21.07-4.41.25-6.61.16-3-.12-3.59,1.44-3.64,4.08-.08,3.56,1.58,4.22,4.55,3.43,5.79,0,4.71,4.89,5,8,.43,4.06-3.42,2.44-5.39,2.55-4,.24-3.8,2.73-3.78,5.55s.92,4.21,4.19,4.43C1031.09,369,1035.68,366.36,1039.18,370.47Z"/><path class="cls-2" d="M1180,235.18a1.21,1.21,0,0,0,.41,1.27c3.74,9.19,7.24,18.48,11.34,27.51,2.18,4.81,1.31,7.54-3.65,9-4.76-.27-5.33-4.5-6.84-7.59-1.42-2.91-2.78-4.78-6.52-4-3.56.74-7.17.39-8.33,5.33-.56,2.35.76,6.21-3.63,6.95-6.81,1.16-8.67-.52-7.53-7.4,1.82-11.05,3.64-22.11,6.59-32.94,1.88-6.91,9.22-9,15.37-4.24A11.44,11.44,0,0,0,1180,235.18Zm-8.35,8.07c-.54,2.76-1.07,5.31-1.54,7.88-.22,1.15-.67,2.67.65,3.18a5.67,5.67,0,0,0,3.55-.22c2-.68,1.27-2.32.7-3.54C1173.91,248.21,1174.14,245.27,1171.65,243.25Z"/><path class="cls-2" d="M722.18,377.73c-6.1,2.8-9.54.09-11.39-5.62-1.11-3.43-2.78-5.3-6.88-4.45-3.95.82-7.73,1.11-8.16,6.38-.29,3.54-1,6.51-6.09,6-4.59-.44-6.39-1.46-5.23-6.51,2.45-10.69,4.44-21.49,6.44-32.28.86-4.65,2-7.67,8-8.23s7.82,1.93,9.3,6.47a19.19,19.19,0,0,0,1.71,3.18c1.52,3.54,3.28,7,4.51,10.63C717.11,361.41,722.46,368.68,722.18,377.73Zm-20-27.88-1.31.07c-.41,2.58-.79,5.16-1.26,7.73-.21,1.17-.79,2.61.68,3.06a6.21,6.21,0,0,0,3.5-.46c1.59-.53,1.12-1.9.79-3C703.86,354.76,703,352.31,702.21,349.85Z"/><path class="cls-2" d="M904.58,370.5c3.24-2.57,7.08-.84,10.59-1.5,1.35-.26,3.1.46,3.84-1.31s-.32-2.78-1.42-3.83a2.51,2.51,0,0,0-.52-.51c-12.83-7.14-10-18.24-7.6-29.37.61-2.79,1.74-4.31,4.61-4.79,4.1-.68,8.13-1.72,12.22-2.47,2.32-.43,4.81-1.4,5.9,2.19.88,2.94.83,5-2.2,6.74-3.49,2-7.54,3.49-8.85,8.21-.9,3.23-1,5.64,2.31,7.37a31.62,31.62,0,0,1,3.59,2.55c8.47,6.12,9.48,9.85,5.41,20-1.71,4.22-10.51,7-17.47,5.55-3.11-.65-6.23-1.23-9.34-1.84Q905.11,374,904.58,370.5Z"/><path class="cls-2" d="M682.53,224.79c.56,1,1.13,1.91,1.7,2.86-.64,4.64-2.42,7.77-8,6.82-2.51-.43-4,.59-4,3.68s1.07,4.47,4.26,4.19a23.94,23.94,0,0,1,4.36.38l.52,2.57,1.17,5.88-3,1.63c-3.1.08-7-1.94-7.08,4.18-.08,5.7,2.91,5.7,7,5.28,2.92-.3,5.88-.26,8.82-.37l-.21-.08c2,9.3,2,9.19-6.94,10a156.58,156.58,0,0,0-17.43,2.33c-3.84.79-4.66-.39-4.66-3.91,0-5.86-.41-11.72-.65-17.58l-.15-4.38q-.47-11.81-1-23.61l3.19-.69Z"/><path class="cls-2" d="M825.83,333.65l.57-3.09.28-.13,4.55-.09c4.63.22,9.32.06,13.86.79,2.57.41,7.13-2,7.35,3.32.2,4.73-2.2,7-7.18,6.27-1.91-.27-4.11-.07-4.06,2.83,0,1.66-.63,4,1.1,4.65,2,.69,4.34.18,6.53.19l0,0c.74,2.45,1.48,4.89,2.23,7.34-.24,1-.47,2.07-.71,3.1-3.16,1.1-8.73-3.28-9,4.5-.27,8.06,5.33,4.75,9,5.21,2.41.3,4.85.33,7.27.49h0c0,2.88-.09,5.76-.14,8.64l.07,0c-7.76.76-15.66.89-23.25,2.49-5.74,1.22-6.38-.63-6.52-5.55C827.42,360.92,826.52,347.29,825.83,333.65Z"/><path class="cls-2" d="M1071.74,372.8c-.92-3.14-1.72-6-6.3-5.23-4.31.69-8.23,1-8.93,6.55-.31,2.43.06,5.77-4.08,5.68-4.3-.08-9.43.94-6.86-6.57.76-2.22.47-4.81.66-7.23,0-1,0-1.92,0-2.88,3-7.92,4.46-16.28,5.89-24.55.6-3.47,1.84-4.59,4.83-4.93,5.18-.6,10.16-1.14,11.89,5.77.57,2.25,2.29,4.21,3.48,6.31l-.06-.05c.24,3.54,2.34,6.23,4.14,9.06l0,.1q3.18,8.06,6.37,16.12a.73.73,0,0,0,.26.95c-.26,2,2.33,4.93-1.6,5.85-2,.45-4,2.45-6,.39a40.76,40.76,0,0,1-3.67-5.23ZM1063,349.13c-2.46,3.45-1.86,6.54-2.57,9.32-.46,1.81.18,3,2.23,2.22,1.23-.44,4,.71,2.94-2.55C1064.73,355.36,1064,352.54,1063,349.13Z"/><path class="cls-2" d="M1056.86,246.53c0-2-.08-3.93,0-5.88.18-3.83-.6-7.8,6-7.14,5.37.54,8.05,1.47,7.14,7.6s-.93,12.2-1.3,18.31c-.2,3.42.29,6.53,4.57,6.94s6.45-1.5,6.62-5.81c.28-7.1.69-14.21-.88-21.23-.72-3.22.76-4.61,3.83-4.62,2.43,0,5.74-1.87,6.27,2.57,1,8.73,2.61,17.48.14,26.24s-6.62,11.07-18.92,10.45c-8.58-.43-10.83-2.35-12.27-11.34-.85-5.31-1.19-10.7-1.76-16.05Z"/><path class="cls-2" d="M650.12,242.35c-3.42,8.56-7.16,17-10.16,25.7-2.59,7.53-8.69,5.37-13.9,6s-4.55-3.91-5.61-6.75c-2.53-6.82-4.88-13.7-7.3-20.55q-2.17-6.6-4.36-13.2l1.61-1.49c4.17.86,8.46-.88,12.59.62l.3-.67-.33.65c.93,4.29,1.51,8.68,3.56,12.66l.69,3.17c1,3.27,1.91,6.53,3.32,11.32,3.34-6.72,5.57-11.77,6.76-17.24l-.1.11c.93-2.17,2-4.3,2.76-6.52.9-2.62,2.17-3.22,5.22-3.3C654.19,232.6,651.47,237.66,650.12,242.35Z"/><path class="cls-2" d="M756.24,341a.44.44,0,0,0-.29.69l-4.35,2.2,0,0a14.47,14.47,0,0,0-8.1,6.17.5.5,0,0,0-.48.64l-.94,1.17-.25.29c-5.08,7.92-4.62,11.62,2.16,17.22v-.06c1.54,1.73,3.6,1.26,5.47,1.13,1.63-.11,3.77-.18,3.52-2.66s-2.67-1.44-4.07-2.08c.55-3.3-1.58-6.95,1.3-9.95,5.61.36,12.3-1.48,13.73,7.09,1.81,10.93-4.73,18.35-15.79,17.67-5.73-.36-11.07-2-15.61-5.69l-1.22-1.57c-5.08-9.69-3.74-19.37.06-29l-.12.09,1.17-1.84,0-.07c1.86-1.85,3.59-3.86,5.6-5.53C746.4,329.94,752,331.27,756.24,341Z"/><path class="cls-2" d="M982,227.67c6.08-1.84,6.08,4,8.2,7.47,1.34,2.19,1.55,6,4.44,6.06,2.44.1,3-3.48,4.39-5.36,1.19-1.54,2.09-3.31,3.19-4.93,2.08-3,5.06-1.63,7.34-.85,3.48,1.17.94,3.62.27,5.38a29.64,29.64,0,0,1-3.55,7.23c-5.73,7.64-5.87,16.43-5.26,25.23s-5.91,5.51-9.94,6.42c-5.25,1.19-5.64-2.27-5.35-6,.9-12-2.79-22.51-9-32.59C971.94,228.08,972.35,227.83,982,227.67Z"/><path class="cls-2" d="M758.31,241.78c2.1-3.16,4.51-6.2,6.26-9.58,2.07-4,5.34-3.28,8.14-2.09,3.67,1.58.87,4.26-.09,6-5.76,10.38-9.93,20.91-8.69,33.3.76,7.55-6.21,3.88-9.73,4.86-4.21,1.16-5.68-1.29-5.32-5.28,1.1-12.46-2.66-23.56-9.35-33.92-1.22-1.9-4.22-4.25-1.34-6.82,2.36-2.12,11.72-.24,13.08,2.28,1.85,3.43,3.58,6.92,5.43,10.36C756.88,241.22,757.5,241.34,758.31,241.78Z"/><path class="cls-2" d="M1149.08,233.92c1.23,4.14-.89,5.73-4.67,6.39a14.15,14.15,0,0,0-5.42,2.13c-4.37,2.94-8.53,6.5-7.55,12.38.94,5.62,6.34,5.89,10.5,6,7,.16,5.83,4.62,5.85,9,0,6.28-4.13,3.89-7.1,3.55-4.55-.52-9.12-.43-13.37-3.16-10.73-6.87-9.27-17-7.23-26.84,1.71-8.24,8.17-12.36,16.07-14.24,1.9-.45,3.87-.67,5.73-1.26C1147.56,226,1150.45,227.44,1149.08,233.92Z"/><path class="cls-2" d="M943,249.49a1.08,1.08,0,0,0,1.05.46c5.54,7.56,4.1,14.76-1.13,21.76l0,0c-9,3.92-18,3.91-25.5-2.47-7.91-6.71-7.22-16.24-4.77-25.19s7.85-15.44,17.74-17.48c4.47-.92,5.84,1,7.62,4.43,2.23,4.35-.89,4.92-3.35,6.23-5.81,3.09-10.25,7.4-12.48,13.74-1.61,4.58.64,8.2,3.32,11.36,2,2.41,5.27,2.39,8.24,1.79,2.32-.48,4.09-2.68,1.48-3.77-4.9-2.06-3.27-6.06-2.74-8.63.78-3.79,5-1.42,7.57-2.1A13.49,13.49,0,0,1,943,249.49Z"/><path class="cls-2" d="M1118.06,380.73l-2.79,1.66c-7-1.21-14-2.17-21-1.71-4.35.29-5.21-1.33-5.17-5.39.13-13.37-.17-26.75-.31-40.13a11.45,11.45,0,0,1,2.68-1c11.56-1.1,11.53-1.08,11.06,10.31-.13,3.14-.1,6.3,0,9.46.31,15.29.32,15.29,15.68,15.07Z"/><path class="cls-2" d="M799.42,273c-6.72,2-9.5-.05-9.17-7.49.36-8-.61-16.08-.85-24.13-.09-3.16-.79-5.22-4.6-4.63-3.41.54-5.42-.08-4.92-4.54.47-4.18,2.08-5.2,6-4.81a83.93,83.93,0,0,0,16.07.45c7.53-.73,9,2.52,7.07,8.86-6.2-1.28-8.5.54-7.95,7.46C801.86,253.73,802.94,263.55,799.42,273Z"/><path class="cls-2" d="M617,360.33c0-4.39,0-8.78,0-13.17,0-3-1.07-6.81,4.37-6,3.79.56,8.62-1.13,8.31,5.87-.42,9.25-.28,18.54,0,27.8.16,6.2-4.24,5.3-7.94,5.75-4.69.57-4.24-2.65-4.23-5.62,0-4.87,0-9.75,0-14.63Z"/><path class="cls-2" d="M854.84,273.24c0-9.91,0-19.82,0-29.73-.06-9.31-.1-9.33,9-8.28a21.52,21.52,0,0,1,3.47,1c.17.57.33,1.15.5,1.73-.09,8.69-.78,17.42-.1,26,.62,8-2.42,11-10,10.61Z"/><path class="cls-2" d="M616.13,330.66c.32-6.82,6-5.56,9.65-6.13,5.38-.83,3.77,4.32,3.76,6.71,0,6.91-6.81,5.19-10.35,6C615.49,338,617.59,332.77,616.13,330.66Z"/><path class="cls-2" d="M885.94,326.81c2.12-.6,4.22-1.61,6.35-1.69,2.37-.1,6-3.3,6.84,2.06.61,3.79,1.78,6.58-3.84,8.92-10.58,4.4-7.76-4.07-9.51-8.34A.79.79,0,0,0,885.94,326.81Z"/><path class="cls-2" d="M1123.88,369c10.61-1.49,11.76-.44,9.08,8.2-1.74,5.63-6.48,2.26-9.76,3.28Q1123.55,374.73,1123.88,369Z"/><path class="cls-2" d="M867.59,228.4c-1.65.39-3.33,1.18-5,1.09-2.63-.16-6.3,5.36-7.83-1.13-1.13-4.83-1.31-9.33,5.66-9.62a36.69,36.69,0,0,0,5.71-1.12h0l1.92,8.54Z"/><path class="cls-2" d="M566.34,227.79c-2.75,3-1.34,9.23-7.08,10.25-1.75.32-4.36-1.17-3-3.66,1.93-3.62,1-9,5.9-10.64A3.57,3.57,0,0,1,566.34,227.79Z"/><path class="cls-2" d="M556,223.27c-2.9,2.9-1.53,9.15-7.1,10.29-1.58.32-4.4-1.24-3-3.71,2-3.61.91-9.16,5.93-10.67A3.59,3.59,0,0,1,556,223.27Z"/><path class="cls-2" d="M1146.12,324.94c.9,1.88,5.55,1.24,3.48,5.09-1.82,3.4-2,8-5.52,10-1.36.75-5.78-.34-3.92-4.65l4.59-10.67A2.49,2.49,0,0,0,1146.12,324.94Z"/><path class="cls-2" d="M1156.39,343.78c-5.41,1.46-7.93-.22-5.06-5.63,1.47-2.79.2-9.27,5.9-7.53,7.41,2.27.08,6.45.25,9.78a6.34,6.34,0,0,1-.61,2.07A1.32,1.32,0,0,0,1156.39,343.78Z"/><path class="cls-2" d="M771,380.62c-1.51-11.69-.8-23.46-1.29-35.18-.13-3,.57-5,4-4.21,3.12.72,8.34-2,8.54,4,.36,10.28.77,20.64-.09,30.86-.57,6.77-7.18,3.54-11.19,4.53Z"/><path class="cls-2" d="M768.07,326.49a48.69,48.69,0,0,0,7.08-1.54c4.06-1.49,6-.23,7.05,3.9,1.18,4.41-.67,5.56-4.49,7.15-11.69,4.87-7.26-5.57-9.59-9.55Z"/><path class="cls-2" d="M887.06,360.24c0-4.16-.26-8.34.09-12.46.22-2.53-2.32-7,3.65-6.59,4.15.32,9.15-1.16,8.81,6.15-.4,9-.26,18.07-.17,27.11.07,5.62-3.57,5.87-7.73,6.12-5.41.33-4.2-3.45-4.25-6.4-.1-4.64,0-9.29,0-13.93Z"/></g></g></svg>