<svg xmlns="http://www.w3.org/2000/svg" viewBox="0 0 1778 600"><defs><style>.cls-1{fill:#fff;}.cls-2{fill:#eeb043;}.cls-3{fill:#40210c;}</style></defs><g id="Capa_2" data-name="Capa 2"><g id="Capa_1-2" data-name="Capa 1"><rect class="cls-1" width="1778" height="600" rx="17.09"/><path class="cls-2" d="M745.59,301.11c-.05-16,0-29.8,3.44-43.32.59-2.28,1.23-4.46,3-6.22.79-.81,1.91-2,1.84-2.88-.7-10.72,7.59-17.65,11.47-26.33,4.62-10.32,12.34-19.2,21-26.85,6.75-6,13.73-11.7,20.65-17.48a30.37,30.37,0,0,1,11.82-6.1c6.13-1.65,11-6.06,16.65-8.92.88-.45,1.72-1.48,2.56-1.47,10.07.2,18.79-6.26,29.08-5.54a124.09,124.09,0,0,0,20.91-.81c15.91-1.56,31.41,1.26,46.19,6.12,11.34,3.72,22.39,9.24,31.7,17.35,3.07,2.68,5.85,6.05,10.64,5.64a2.29,2.29,0,0,1,2.42,1.49c1.63,6,6.82,8.8,11.15,12.25,4.79,3.81,6.7,9.68,10.46,14,8.77,10,13,22.49,19.88,33.5,2.82,4.51,2.79,10.83,3.89,16.36q2.54,12.67,4.81,25.4c.68,3.8.17,7.61-.34,11.42-1.48,11-2,22.14-4,33.11-.74,4.15-2.83,7.75-4.27,11.55-2.76,7.33-4.65,15-9.54,21.68-2.74,3.74-4.51,8.49-7.14,12.65a43.92,43.92,0,0,1-6.94,8.2c-8.74,8.36-16.44,17.95-26.44,24.86-7.89,5.44-16,11.17-24.83,14.47-12,4.46-23.94,9.16-36.9,11.25a186,186,0,0,1-22.4,2.59c-12.39.49-24-4-36-5.49a17.88,17.88,0,0,1-10-4.11c-1.26-1.11-2.8-2.33-4.41-2.12-8.43,1.08-13.35-4.91-19-9.32-3.25-2.56-7.54-2-10.8-4.68-12.27-10-25.83-18.5-33.86-33a182.84,182.84,0,0,0-13.88-20.67c-3.65-4.88-5-10.39-6.31-16.06C748.63,328.9,743.69,314.41,745.59,301.11Zm136-8.58c1.12,1.57,1.77,2.52,2.46,3.43,1.63,2.17,3.34,4.31,6.47,3.88,3.67-.52,2.06-4,3.23-5.94.82-1.35.52-2.3-.69-2.84s-1.84.85-2.11,1.5c-2.59,6.34-4.14.69-5.61-.63-1.24-1.11-1.3-3.5-3.63-3.57s-4.73,3.6-7.44.22c-.32-.41-1.36,1.16-1.64,2.11a12.09,12.09,0,0,0,.13,7.36c.42,1.28,1,2.56,2.52,2.81s2.4-.9,3.06-2.09C879.36,296.89,880.32,295,881.58,292.53ZM838.77,297c0,5,2.57,7.53,5.54,6.24,2.39-1,4.2-2.14,6.3.46.95,1.18,2.73.32,2.15-1-2.19-4.88-2.4-10.28-4.47-15.13-.58-1.36-2.88-1.81-2.78-.09.21,3.39-2.14,3.93-4,5.26A6,6,0,0,0,838.77,297Zm31-48.51c3.39,3.23,4.85,9.68,10.53,6.31,3.41-2,3.48-6.23,1.32-10.12-1.34.9-1.35,2.14-1.75,3.19-.5,1.35-.43,3.35-2.11,3.66-2.08.39-2.51-1.82-3.37-3.11-4.12-6.15-5-6.12-8.81.51-.2.35-.7.54-1.2.91a34.67,34.67,0,0,0-.05-4.12,2.4,2.4,0,0,0-1.16-1.41c-.71-.42-1.19.21-1.6.73-1.52,1.9-1,9.33.75,10.91s3.08.9,4.05-.81C867.46,253.16,868.43,251.06,869.72,248.51Zm69.49,44.16c3.51,3.15,5,9.69,10.66,6.28,3.27-2,3-6.41.89-10.83-.74,2-1.2,3.18-1.64,4.39s-.25,3.38-2.15,3.48c-1.73.1-2.14-1.85-2.91-3.05-4-6.37-5.54-6.32-9.12.4-.27.5-.32,1.32-1.45.78.08-.74.15-1.54.25-2.34.17-1.25,1-2.86-1-3.2-1.81-.31-2,1.39-2.34,2.61a12.09,12.09,0,0,0,0,6.4c.41,1.45,1,3,2.69,3.28,1.83.36,2.59-1.2,3.3-2.47C937.37,296.68,938.15,294.87,939.21,292.67ZM808.88,253.39c-1.24-2.83-.34-5.13-.43-7.39,0-1.05-.4-2.08-1.6-2.17s-1.63.95-1.76,2a29.67,29.67,0,0,0,.17,9.45c.29,1.5.86,3,2.52,3.41s2.71-.86,3.76-2,1.06-3.2,3-3.68a38.26,38.26,0,0,0,2,3.52c.64.91,1.44,2.2,2.77,1.57s.78-2,.27-3A28,28,0,0,1,817,246c-.16-1.34-.46-2.89-2.13-2.93s-1.81,1.63-2.15,2.88A16.12,16.12,0,0,1,808.88,253.39Zm102.27,92c-.26-1.8-.55-4.61-1.1-7.38-.47-2.37-2.43-2.55-4.32-2.23-2.47.41-4.41,1.74-4.84,4.36a3.37,3.37,0,0,0,2.85,4.05c2,.43,4.77-.32,4.06,3.22-.59,2.92-.12,6.7-4.72,7-.78,0-1.77-.2-2,.88s.69,1.76,1.5,2.3c2.12,1.4,3.82.25,5.4-1C911.17,353.83,911,350.07,911.15,345.37ZM878.32,339c.66,2.52.34,6.76,3.92,6.83s7-1.76,10.67-.3c.35.13,1.38-.85,1.71-1.5a1.09,1.09,0,0,0-1-1.43c-3.36-.54-3.78-3.37-4.47-5.86-1-3.46-3.47-4.27-6.5-3.81S878.5,335.8,878.32,339Zm43.6-6.28c-2.84.2-4.95,1.53-5.1,4.75-.16,3.47-.35,7.13,3.87,8.66a2.17,2.17,0,0,0,1.89-.16c2.19-2.46,4.31-1.65,6.75-.36a2.43,2.43,0,0,0,3.35-1.28c.31-.68.11-1.47-.59-1.6-3.77-.69-4.09-3.9-5-6.67C926.32,333.56,924.28,333.09,921.92,332.72Zm-126.55-38.1c.11,5.29,3.2,8.78,6.16,6.85,2.59-1.69,4.19-1.38,6.46,0a2.48,2.48,0,0,0,3.45-1c.51-.87.27-1.79-.7-1.92-3.51-.48-3.67-3.48-4.42-5.87-1.05-3.37-3.52-4.33-6.51-3.93C796.39,289.16,795.54,291.9,795.37,294.62Zm22.45,6.53c.15,1.85-1,4.33,1.44,4.85s2.49-2.12,3.11-3.74c.94-2.44,2.29-5,5.14-4.55s1.62,3.49,1.89,5.48a2.13,2.13,0,0,1,0,.5c-.06,1.15-.43,2.66,1,3,1.68.35,2.24-1.2,2.47-2.51.63-3.42.33-6.79-2.33-9.28-3.7-3.48-7.08.87-10.73.94C817.2,295.84,818.47,299.37,817.82,301.15ZM963,346.83c.15,1.4-.87,3,.68,4.12a1.4,1.4,0,0,0,1.35-.26c2.2-2.85,1.57-6,.54-9-1-2.85-3-4.38-6.15-3.65-2.18.49-3.87,2.1-6.49,1.95-1.82-.1-1.59,2.59-1.69,4.16-.12,1.91-1.13,4.07.64,5.66,1.08,1,2.26.41,2.86-.81s.82-2.54,1.45-3.7c1.05-1.93,2.47-4.05,4.89-3.53C963.61,342.33,962.64,345,963,346.83Zm-125-89c.21,2.09-.72,3.57.7,4.5a1.8,1.8,0,0,0,1.73-.33c2-2.93,1.33-6.05.18-9a5,5,0,0,0-5.95-3.38c-2.24.41-4,2.06-6.52,2.12-1.69,0-2.75,8.12-1.37,9.55s2.44.72,3.17-.62a29.67,29.67,0,0,0,1.14-3.29c.89-2.34,2.59-4.47,5-4.1C838.91,253.74,837.65,256.75,837.92,257.87Zm14.77,84.24a14.28,14.28,0,0,1-.47-1.6c-.26-1.52-.74-3.45-2.42-3.17-2,.33-1.36,2.55-.9,3.72,1.89,4.79,1.19,8.86-2.5,12.5a2,2,0,0,0,.07,3.09c1.34,1,2.13-.3,2.84-1.11a51.19,51.19,0,0,0,7.27-10.67c1-1.91,4-4.1,1.65-6C855.43,336.65,855.33,341.57,852.69,342.11Zm-38.79-7.06h0c0,1,0,2,0,3,.2,3.15.26,6.41,3.1,8.57,1.41,1.06,3.15,1.7,4.33-.16,1-1.65.13-2.12-1.64-3-2.13-1-3.52-4.12-.81-5.85,3.56-2.27,5.52-3.39-.44-4.31-.7-.11-.8-.89-.8-1.6,0-1.79,1.32-4.71-1.75-4.59-2.55.1-1.65,3.13-2,4.95A17.43,17.43,0,0,0,813.9,335.05Zm159-90.79c-.16-1.55-1.15-1.86-2.13-2a4.18,4.18,0,0,0-4.68,2c-1.35,2.21-.26,3.86,1.36,5.19,3.58,2.92,3.44,5-1.19,6.28-.79.21-1.83.1-1.68,1.25a2.82,2.82,0,0,0,2.34,2.32c3,.72,7.67-4.35,7.1-7.39C973.49,249.3,965.79,247.65,972.85,244.26Zm-178,2.62c.35-1.73,3.61-.7,3.08-3.17-.31-1.41-1.64-1.53-2.78-1.56a3.89,3.89,0,0,0-4,2.44c-1,2.48.4,4.1,2.14,5.52,2.35,1.93,2.64,3.66-.28,5.33-1.12.63-4.18-.18-2.56,2.69,1.15,2.05,3.09,1.36,4.79.37C800.43,255.46,800.33,252.57,794.81,246.88Zm185.05,4.18c0,4.51,3.52,9.27,6.82,9.35,1.19,0,2.53-.11,2.94-1.35.58-1.72-1-1.64-2-2-2.08-.75-4.21-1.63-1.28-3.89,1.92-1.47,2.45-3.06,1.23-5.1A4,4,0,0,0,982.9,246C980.45,246.7,980.26,249.1,979.86,251.06ZM900,295.17c-.08,4.38,3.59,9.4,6.78,9.41,1.16,0,2.53-.11,2.93-1.37.58-1.84-1.12-1.47-2.08-1.85-2-.78-4.19-1.67-1.25-3.93,1.88-1.46,2.45-3.13,1.27-5.14a4,4,0,0,0-4.58-2.13C900.59,290.87,900.65,293.38,900,295.17Zm82.38,9.55c1-1.14,1.74-1.54,1.83-2.05,1.18-6.67.15-13.21-1.42-19.69a2,2,0,0,0-1.4-1.13c-1-.11-1.4.79-1.4,1.65A92.25,92.25,0,0,0,982.42,304.72Zm-77.26-53.24c-.47-3.44-.94-7.39-1.56-11.32-.17-1.09-.48-2.59-2-2.47s-1.37,1.69-1.31,2.77a107.07,107.07,0,0,0,1,11.89c.4,2.41-.43,6.91,2.27,6.7S904.74,254.53,905.16,251.48Zm10.13.34c-.42-3.41-.8-7.06-1.34-10.68-.21-1.4-.2-3.54-2.13-3.4-2.08.14-1.48,2.28-1.4,3.64a84.77,84.77,0,0,0,1,10.93c.46,2.42-.52,6.94,2.16,6.75C916.47,258.87,914.71,254.54,915.29,251.82ZM970,286.91c.49,4.62,1,9.4,1.54,14.17.11.92.18,2.24,1.41,2.31,1.6.09,1.76-1.43,1.8-2.49a70.21,70.21,0,0,0-1.53-16.79c-.24-1.11-.46-2.56-2-2.25s-1.12,1.79-1.18,2.89C970,285.41,970,286.08,970,286.91Zm-140.4,50.17c-2.67,2.75-2.34,5.78-2.28,8.7,0,1.17.28,2.39,1.7,2.68s2-.88,2.51-1.9c1-2,2.22-3.67,4.67-4,1.33-.16,3.49.43,2.85-2.06-.44-1.72-2.2-2-3.7-1.46C832.91,339.88,830.72,340.38,829.58,337.08Zm104.56-82.75c.05,2.59-.61,5,1.38,5.72,2.39.89,2.73-1.81,3.57-3.26,1.19-2,3-2.43,5.07-2.49.89,0,1.73-.32,1.91-1.25a1.8,1.8,0,0,0-1.17-2c-2.75-1.29-6.41,1.92-8.69-1.75-.43.48-1.06.89-1.24,1.44A36.6,36.6,0,0,0,934.14,254.33Zm19.1-6.85c-2.08,3.92-1.28,7.19-.84,10.39a2.1,2.1,0,0,0,1.34,1.27,1.1,1.1,0,0,0,1.38-1.05C955.21,254.63,956.41,251,953.24,247.48Zm-11,95c-1-1.52,1.18-5.45-2-5.32-2.92.11-1,3.82-1.38,5.9a5.94,5.94,0,0,0,.52,3.38c.68,1.33,1.91,1.47,2.5-.11A16.49,16.49,0,0,0,942.2,342.52ZM961,298.12c-.43-1.38,1.14-5.19-1.85-5s-1,3.81-1.31,5.89a7.53,7.53,0,0,0,.28,2.93,1.55,1.55,0,0,0,1.8,1.3c.83-.1,1-.79,1.06-1.44C961,300.77,961,299.78,961,298.12Zm-69.41-43.84c-.79-1.71,1.23-5.58-2-5.41-2.9.14-1.09,3.83-1.4,5.93a6.62,6.62,0,0,0,.51,2.91c.2.56.74,1.3,1.22,1.38,1,.16,1.39-.73,1.5-1.58S891.51,255.52,891.58,254.28Z"/><path class="cls-2" d="M809,458.2c1.14-3.86,2.59-8.95,4.17-14,.94-3,2-6,3.13-8.92,1.41-3.66,4.1-5.17,7.9-4.08,4,1.12,5.26,4.22,4.27,7.79-2.11,7.67-4.62,15.24-7.06,22.82-1.18,3.64-3.71,5.42-7.62,4.7S808.94,463,809,458.2Z"/><path class="cls-2" d="M785.74,412.17a7.3,7.3,0,0,1-2.42,6c-4,4-7.89,8-12,11.86-3.48,3.25-7.65,3.37-10.15.59-2.68-3-2.41-6.62,1.08-10.07,4.12-4.06,8.37-8,12.68-11.85a6.76,6.76,0,0,1,7.41-1.4A5.76,5.76,0,0,1,785.74,412.17Z"/><path class="cls-2" d="M954.51,161.82c-3.66-.33-6.3-2.39-5.22-6.12a236.83,236.83,0,0,1,8.07-23c1-2.37,3.95-3.28,6.53-2.41a5.22,5.22,0,0,1,3.71,6.31,111.17,111.17,0,0,1-8.18,23C958.48,161.59,956.37,161.32,954.51,161.82Z"/><path class="cls-2" d="M1020.49,175.15c.12,2.24-1.24,3.54-2.57,4.79a129,129,0,0,0-12.64,14.1c-2.12,2.67-4.75,4.42-8.13,1.86s-3.7-5.44-1.14-8.63c4.69-5.83,9.32-11.71,15.43-16.21a5.51,5.51,0,0,1,6.08-.68C1019.49,171.34,1020.17,173.26,1020.49,175.15Z"/><path class="cls-2" d="M1053.41,220.06c3.43-.29,4.9.6,5.95,2.29,1.16,1.87,1.49,4.07-.13,5.53-6.79,6.13-14.36,11.07-23.32,13.4a4.4,4.4,0,0,1-5.06-2.37c-.89-1.85-1.14-4.38.52-5.59A139.55,139.55,0,0,1,1053.41,220.06Z"/><path class="cls-2" d="M1055.73,293.15c3.65,0,7.31-.06,11,0,3.12.06,5.62,1.17,5.87,4.74.26,3.79-1.91,5.09-5.43,5.62-7.84,1.17-15.57-.3-23.35-.43-3.41-.06-5.13-2.16-4.92-5.49s2.36-4.59,5.41-4.63c3.82-.05,7.64,0,11.46,0Z"/><path class="cls-2" d="M881.44,130.28c0-3.49,0-7,0-10.47,0-3.77,2-6.29,5.62-6.28s5,2.71,4.94,6.22c-.1,7.29-.15,14.58-.1,21.88,0,3.54-1.93,5.44-5.09,5.44s-5.33-1.79-5.35-5.32c0-3.82,0-7.65,0-11.47Z"/><path class="cls-2" d="M760.31,167.54c-.19-2.32,1.12-3.74,2.88-4.89a4.14,4.14,0,0,1,5.11.48c6.42,5.1,11.34,11.63,16.55,17.86,1.81,2.17,1,4.86-1.06,6.74-1.88,1.72-4.62,2.5-6.37.66-5.81-6.1-11.24-12.55-16.76-18.91C760.29,169.05,760.42,168.2,760.31,167.54Z"/><path class="cls-2" d="M826.33,156.29a5.08,5.08,0,0,1-5.07-3.93c-1.74-6.23-3.48-12.44-5.21-18.67-1-3.59,0-6.6,3.73-7.41s5.88,1.48,6.81,5c1.56,5.94,3.33,11.82,4.7,17.8C832.31,153.57,830.49,156.2,826.33,156.29Z"/><path class="cls-2" d="M726.42,371.22c-2.91.06-4.63-1.43-5.44-4.13a4.39,4.39,0,0,1,2.79-5.68,99.93,99.93,0,0,0,18.51-8.2c2.18-1.29,4.91-.36,6.46,2.12s.52,4.74-1.26,6.72C744.34,365.53,731.05,371.3,726.42,371.22Z"/><path class="cls-2" d="M962.84,457.65c.06,3.3-1.14,5.17-3.26,6s-4.19,0-5.71-1.85a16.77,16.77,0,0,1-2.72-5.28c-1.63-4.71-2.88-9.54-5.12-14a7.87,7.87,0,0,1-.37-6.31c1.26-3.43,6.21-4.69,8-1.7C958,441.93,959.64,450.54,962.84,457.65Z"/><path class="cls-2" d="M720.7,293.73c3.48,0,7-.06,10.43,0s4.71,2.14,4.71,5.18-1.68,5-4.86,5.1c-7,.12-13.9.24-20.85,0-3-.09-4.67-2.22-4.71-5.33s1.68-4.94,4.86-5c3.47-.08,7,0,10.42,0Z"/><path class="cls-2" d="M882.16,463c0-3.33,0-6.66,0-10,0-3,1.48-4.74,4.48-4.93,2.81-.18,5.25,1,5.55,3.87a100.37,100.37,0,0,1-.06,22.39c-.36,3-2.78,4.47-5.91,4s-4.11-2.49-4.1-5.35c0-3.33,0-6.66,0-10Z"/><path class="cls-2" d="M1022.54,418.7a4.81,4.81,0,0,1-7.48,3.89c-6.7-4.45-11.9-10.56-16.69-16.95-1.24-1.65-.72-3.62.71-5s3.89-2.55,5.42-1.12c6.07,5.65,11.82,11.65,17.63,17.58C1022.52,417.48,1022.46,418.34,1022.54,418.7Z"/><path class="cls-2" d="M741.16,241.53a19.41,19.41,0,0,1-2.54-.57c-6.6-2.26-13.22-4.45-19.76-6.87-2.85-1.06-5-2.9-3.36-6.44,1.46-3.09,3.94-3.25,6.72-2.05,6.86,3,14.42,4.05,21,7.84a4.66,4.66,0,0,1,2.53,5.41C745.27,241.18,743.45,241.44,741.16,241.53Z"/><path class="cls-2" d="M1053.85,366.42c0,3.38-2.69,5.43-5.81,4.16-6.13-2.49-12.16-5.25-18.2-8-2.71-1.22-4.49-3.29-3.06-6.32,1.54-3.26,4.22-2.56,6.76-1.11,5.08,2.88,10.76,4.31,16,6.66C1051.74,362.78,1054,363.65,1053.85,366.42Z"/><path class="cls-3" d="M881.58,292.53c-1.26,2.44-2.22,4.36-3.25,6.24-.66,1.19-1.46,2.36-3.06,2.09s-2.1-1.53-2.52-2.81a12.09,12.09,0,0,1-.13-7.36c.28-.95,1.32-2.52,1.64-2.11,2.71,3.38,5-.28,7.44-.22s2.39,2.46,3.63,3.57c1.47,1.32,3,7,5.61.63.27-.65.89-2.05,2.11-1.5s1.51,1.49.69,2.84c-1.17,1.92.44,5.42-3.23,5.94-3.13.43-4.84-1.71-6.47-3.88C883.35,295.05,882.7,294.1,881.58,292.53Z"/><path class="cls-3" d="M838.77,297a6,6,0,0,1,2.7-4.24c1.9-1.33,4.25-1.87,4-5.26-.1-1.72,2.2-1.27,2.78.09,2.07,4.85,2.28,10.25,4.47,15.13.58,1.3-1.2,2.16-2.15,1-2.1-2.6-3.91-1.5-6.3-.46C841.34,304.55,838.73,302,838.77,297Z"/><path class="cls-3" d="M869.72,248.51c-1.29,2.55-2.26,4.65-3.4,6.65-1,1.71-2.36,2.33-4.05.81s-2.27-9-.75-10.91c.41-.52.89-1.15,1.6-.73a2.4,2.4,0,0,1,1.16,1.41,34.67,34.67,0,0,1,.05,4.12c.5-.37,1-.56,1.2-.91,3.83-6.63,4.69-6.66,8.81-.51.86,1.29,1.29,3.5,3.37,3.11,1.68-.31,1.61-2.31,2.11-3.66.4-1,.41-2.29,1.75-3.19,2.16,3.89,2.09,8.09-1.32,10.12C874.57,258.19,873.11,251.74,869.72,248.51Z"/><path class="cls-3" d="M939.21,292.67c-1.06,2.2-1.84,4-2.79,5.73-.71,1.27-1.47,2.83-3.3,2.47-1.65-.33-2.28-1.83-2.69-3.28a12.09,12.09,0,0,1,0-6.4c.32-1.22.53-2.92,2.34-2.61,2,.34,1.18,1.95,1,3.2-.1.8-.17,1.6-.25,2.34,1.13.54,1.18-.28,1.45-.78,3.58-6.72,5.07-6.77,9.12-.4.77,1.2,1.18,3.15,2.91,3.05,1.9-.1,1.67-2.14,2.15-3.48s.9-2.42,1.64-4.39c2.14,4.42,2.38,8.85-.89,10.83C944.24,302.36,942.72,295.82,939.21,292.67Z"/><path class="cls-3" d="M808.88,253.39a16.12,16.12,0,0,0,3.87-7.44c.34-1.25.41-2.92,2.15-2.88s2,1.59,2.13,2.93a28,28,0,0,0,2.55,9.09c.51,1,1.16,2.35-.27,3s-2.13-.66-2.77-1.57a38.26,38.26,0,0,1-2-3.52c-2,.48-1.93,2.55-3,3.68s-2,2.38-3.76,2-2.23-1.91-2.52-3.41a29.67,29.67,0,0,1-.17-9.45c.13-1,.5-2.08,1.76-2s1.56,1.12,1.6,2.17C808.54,248.26,807.64,250.56,808.88,253.39Z"/><path class="cls-3" d="M911.15,345.37c-.11,4.7,0,8.46-3.2,11.12-1.58,1.29-3.28,2.44-5.4,1-.81-.54-1.8-1.08-1.5-2.3s1.25-.84,2-.88c4.6-.26,4.13-4,4.72-7,.71-3.54-2.06-2.79-4.06-3.22a3.37,3.37,0,0,1-2.85-4.05c.43-2.62,2.37-3.95,4.84-4.36,1.89-.32,3.85-.14,4.32,2.23C910.6,340.76,910.89,343.57,911.15,345.37Z"/><path class="cls-3" d="M878.32,339c.18-3.2,1.23-5.59,4.37-6.07s5.54.35,6.5,3.81c.69,2.49,1.11,5.32,4.47,5.86a1.09,1.09,0,0,1,1,1.43c-.33.65-1.36,1.63-1.71,1.5-3.68-1.46-7.19.36-10.67.3S879,341.52,878.32,339Zm6.61,0c-.1-1.09.54-2.89-1.31-3.06s-1.89,1.58-2,2.89-.25,3.08,1.39,3.25C884.85,342.26,884.6,340.36,884.93,339Z"/><path class="cls-3" d="M921.92,332.72c2.36.37,4.4.84,5.2,3.34.88,2.77,1.2,6,5,6.67.7.13.9.92.59,1.6a2.43,2.43,0,0,1-3.35,1.28c-2.44-1.29-4.56-2.1-6.75.36a2.17,2.17,0,0,1-1.89.16c-4.22-1.53-4-5.19-3.87-8.66C917,334.25,919.08,332.92,921.92,332.72Zm1.19,6.35c-.11-1.21.44-3-1.41-3.05-1.6,0-1.76,1.69-1.75,3s-.29,3.07,1.45,3.11S922.78,340.26,923.11,339.07Z"/><path class="cls-3" d="M795.37,294.62c.17-2.72,1-5.46,4.44-5.93,3-.4,5.46.56,6.51,3.93.75,2.39.91,5.39,4.42,5.87,1,.13,1.21,1.05.7,1.92a2.48,2.48,0,0,1-3.45,1c-2.27-1.35-3.87-1.66-6.46,0C798.57,303.4,795.48,299.91,795.37,294.62Zm6.59.25c-.05-1.2.59-2.95-1.37-3s-1.74,1.74-1.83,2.94-.3,3.06,1.45,3.12S801.72,296.13,802,294.87Z"/><path class="cls-3" d="M817.82,301.15c.65-1.78-.62-5.31,2-5.35,3.65-.07,7-4.42,10.73-.94,2.66,2.49,3,5.86,2.33,9.28-.23,1.31-.79,2.86-2.47,2.51-1.46-.3-1.09-1.81-1-3a2.13,2.13,0,0,0,0-.5c-.27-2,.94-5-1.89-5.48s-4.2,2.11-5.14,4.55c-.62,1.62-.66,4.25-3.11,3.74S818,303,817.82,301.15Z"/><path class="cls-3" d="M963,346.83c-.32-1.83.65-4.5-1.92-5.05-2.42-.52-3.84,1.6-4.89,3.53-.63,1.16-.87,2.52-1.45,3.7s-1.78,1.79-2.86.81c-1.77-1.59-.76-3.75-.64-5.66.1-1.57-.13-4.26,1.69-4.16,2.62.15,4.31-1.46,6.49-1.95,3.15-.73,5.19.8,6.15,3.65,1,3,1.66,6.14-.54,9a1.4,1.4,0,0,1-1.35.26C962.09,349.85,963.11,348.23,963,346.83Z"/><path class="cls-3" d="M837.92,257.87c-.27-1.12,1-4.13-1.9-4.58-2.43-.37-4.13,1.76-5,4.1a29.67,29.67,0,0,1-1.14,3.29c-.73,1.34-1.85,2-3.17.62s-.32-9.51,1.37-9.55c2.52-.06,4.28-1.71,6.52-2.12a5,5,0,0,1,5.95,3.38c1.15,3,1.84,6.1-.18,9a1.8,1.8,0,0,1-1.73.33C837.2,261.44,838.13,260,837.92,257.87Z"/><path class="cls-3" d="M852.69,342.11c2.64-.54,2.74-5.46,5.54-3.22,2.35,1.88-.68,4.07-1.65,6a51.19,51.19,0,0,1-7.27,10.67c-.71.81-1.5,2.11-2.84,1.11a2,2,0,0,1-.07-3.09c3.69-3.64,4.39-7.71,2.5-12.5-.46-1.17-1.09-3.39.9-3.72,1.68-.28,2.16,1.65,2.42,3.17A14.28,14.28,0,0,0,852.69,342.11Z"/><path class="cls-3" d="M813.9,335.05a17.43,17.43,0,0,1,0-3c.3-1.82-.6-4.85,2-4.95,3.07-.12,1.74,2.8,1.75,4.59,0,.71.1,1.49.8,1.6,6,.92,4,2,.44,4.31-2.71,1.73-1.32,4.81.81,5.85,1.77.86,2.68,1.33,1.64,3-1.18,1.86-2.92,1.22-4.33.16-2.84-2.16-2.9-5.42-3.1-8.57-.06-1,0-2,0-3Z"/><path class="cls-3" d="M972.85,244.26c-7.06,3.39.64,5,1.12,7.65.57,3-4.08,8.11-7.1,7.39a2.82,2.82,0,0,1-2.34-2.32c-.15-1.15.89-1,1.68-1.25,4.63-1.26,4.77-3.36,1.19-6.28-1.62-1.33-2.71-3-1.36-5.19a4.18,4.18,0,0,1,4.68-2C971.7,242.4,972.69,242.71,972.85,244.26Z"/><path class="cls-3" d="M794.82,246.89c5.51,5.68,5.61,8.57.41,11.61-1.7,1-3.64,1.68-4.79-.37-1.62-2.87,1.44-2.06,2.56-2.69,2.92-1.67,2.63-3.4.28-5.33-1.74-1.42-3.18-3-2.14-5.52a3.89,3.89,0,0,1,4-2.44c1.14,0,2.47.15,2.78,1.56C798.42,246.18,795.16,245.15,794.82,246.89Z"/><path class="cls-3" d="M979.86,251.06c.4-2,.59-4.36,3-5.07a4,4,0,0,1,4.62,2.08c1.22,2,.69,3.63-1.23,5.1-2.93,2.26-.8,3.14,1.28,3.89,1,.36,2.63.28,2,2-.41,1.24-1.75,1.38-2.94,1.35C983.38,260.33,979.87,255.57,979.86,251.06Z"/><path class="cls-3" d="M900,295.17c.61-1.79.55-4.3,3.07-5a4,4,0,0,1,4.58,2.13c1.18,2,.61,3.68-1.27,5.14-2.94,2.26-.71,3.15,1.25,3.93,1,.38,2.66,0,2.08,1.85-.4,1.26-1.77,1.38-2.93,1.37C903.63,304.57,900,299.55,900,295.17Z"/><path class="cls-3" d="M982.42,304.72A92.25,92.25,0,0,1,980,283.5c0-.86.37-1.76,1.4-1.65a2,2,0,0,1,1.4,1.13c1.57,6.48,2.6,13,1.42,19.69C984.16,303.18,983.46,303.58,982.42,304.72Z"/><path class="cls-3" d="M905.16,251.48c-.42,3.05,1.14,7.35-1.58,7.57s-1.87-4.29-2.27-6.7a107.07,107.07,0,0,1-1-11.89c-.06-1.08-.28-2.64,1.31-2.77s1.79,1.38,2,2.47C904.22,244.09,904.69,248,905.16,251.48Z"/><path class="cls-3" d="M915.29,251.82c-.58,2.72,1.18,7.05-1.67,7.24-2.68.19-1.7-4.33-2.16-6.75a84.77,84.77,0,0,1-1-10.93c-.08-1.36-.68-3.5,1.4-3.64,1.93-.14,1.92,2,2.13,3.4C914.49,244.76,914.87,248.41,915.29,251.82Z"/><path class="cls-3" d="M970,286.91c0-.83,0-1.5,0-2.16.06-1.1-.36-2.6,1.18-2.89s1.79,1.14,2,2.25a70.21,70.21,0,0,1,1.53,16.79c0,1.06-.2,2.58-1.8,2.49-1.23-.07-1.3-1.39-1.41-2.31C971,296.31,970.47,291.53,970,286.91Z"/><path class="cls-3" d="M829.58,337.08c1.14,3.3,3.33,2.8,5.75,2,1.5-.5,3.26-.26,3.7,1.46.64,2.49-1.52,1.9-2.85,2.06-2.45.3-3.66,2-4.67,4-.53,1-1,2.19-2.51,1.9s-1.67-1.51-1.7-2.68C827.24,342.86,826.91,339.83,829.58,337.08Z"/><path class="cls-3" d="M934.14,254.33a36.6,36.6,0,0,1,.83-3.57c.18-.55.81-1,1.24-1.44,2.28,3.67,5.94.46,8.69,1.75a1.8,1.8,0,0,1,1.17,2c-.18.93-1,1.23-1.91,1.25-2.07.06-3.88.48-5.07,2.49-.84,1.45-1.18,4.15-3.57,3.26C933.53,259.32,934.19,256.92,934.14,254.33Z"/><path class="cls-3" d="M953.24,247.48c3.17,3.49,2,7.15,1.88,10.61a1.1,1.1,0,0,1-1.38,1.05,2.1,2.1,0,0,1-1.34-1.27C952,254.67,951.16,251.4,953.24,247.48Z"/><path class="cls-3" d="M942.2,342.52a16.49,16.49,0,0,1-.4,3.85c-.59,1.58-1.82,1.44-2.5.11a5.94,5.94,0,0,1-.52-3.38c.33-2.08-1.54-5.79,1.38-5.9C943.38,337.07,941.16,341,942.2,342.52Z"/><path class="cls-3" d="M961,298.12c0,1.66,0,2.65,0,3.64-.05.65-.23,1.34-1.06,1.44a1.55,1.55,0,0,1-1.8-1.3,7.53,7.53,0,0,1-.28-2.93c.34-2.08-1.59-5.75,1.31-5.89S960.56,296.74,961,298.12Z"/><path class="cls-3" d="M891.58,254.28c-.07,1.24-.06,2.25-.19,3.23s-.5,1.74-1.5,1.58c-.48-.08-1-.82-1.22-1.38a6.62,6.62,0,0,1-.51-2.91c.31-2.1-1.5-5.79,1.4-5.93C892.81,248.7,890.79,252.57,891.58,254.28Z"/><path class="cls-2" d="M884.93,339c-.33,1.38-.08,3.28-1.9,3.08-1.64-.17-1.48-1.95-1.39-3.25s.28-3.05,2-2.89S884.83,337.89,884.93,339Z"/><path class="cls-2" d="M923.11,339.07c-.33,1.19,0,3.08-1.71,3.05S920,340.24,920,339s.15-3,1.75-3C923.55,336,923,337.86,923.11,339.07Z"/><path class="cls-2" d="M802,294.87c-.24,1.26,0,3.09-1.75,3s-1.53-1.91-1.45-3.12,0-3,1.83-2.94S801.91,293.67,802,294.87Z"/></g></g></svg>