<svg xmlns="http://www.w3.org/2000/svg" viewBox="0 0 231.97 270.24"><defs><style>.cls-1{isolation:isolate;}.cls-2{mix-blend-mode:multiply;}.cls-3{fill:#878787;}.cls-4{fill:#b9b9b9;}.cls-5{fill:#8b8b8b;}.cls-6{fill:#6b6b6b;}.cls-7{fill:#aaa;}.cls-8{fill:#918e8e;}.cls-9{fill:#a6a6a6;}.cls-10{fill:#dfdfdf;}.cls-11{fill:#535353;}.cls-12{fill:#aaa8a8;}.cls-13{fill:#b7abab;}.cls-14{fill:#939595;}.cls-15{fill:#c0c5c5;}.cls-16{fill:#bfbfbf;}.cls-17{fill:#b8b7b7;}.cls-18{fill:#d4d4d4;}.cls-19{fill:#959595;}.cls-20{fill:#c6c6c6;}.cls-21{fill:#cecece;}.cls-22{fill:#606a6a;}.cls-23{fill:#d4cfcf;}.cls-24{fill:#4e4747;}.cls-25{fill:#5f5757;}.cls-26{fill:#4e4545;}.cls-27{fill:#2d1e1e;}.cls-28{fill:#372727;}.cls-29{fill:#251f1f;}.cls-30{fill:#473434;}.cls-31{fill:#a9b1b1;}.cls-32{fill:#656c6c;}.cls-33{fill:#fff;}.cls-34{fill:#fefefe;}.cls-35{fill:#fdfdfd;}.cls-36{fill:#fbfbfb;}.cls-37{fill:#f8f8f8;}.cls-38{fill:#727272;}.cls-39{fill:#211e1e;}.cls-40{fill:#343636;}.cls-41{fill:#181919;}.cls-42{fill:#131010;}.cls-43{fill:#e4e8e8;}.cls-44{fill:#eaeded;}.cls-45{fill:#394242;}.cls-46{fill:#242626;}.cls-47{fill:#212323;}.cls-48{fill:#262c2c;}.cls-49{fill:#3a3c3c;}.cls-50{fill:#171c1c;}.cls-51{fill:#d7dddd;}.cls-52{fill:#212b2b;}.cls-53{fill:#232d2d;}.cls-54{fill:#1e2121;}.cls-55{fill:#232020;}.cls-56{fill:#e1e9e9;}.cls-57{fill:#696c6c;}.cls-58{fill:#090909;}.cls-59{fill:#b7b8b8;}.cls-60{fill:#4a4f4f;}.cls-61{fill:#74a0a0;}.cls-62{fill:#333d3d;}.cls-63{fill:#4b3a3a;}.cls-64{fill:#1c2020;}.cls-65{fill:#5b5c5c;}.cls-66{fill:#323939;}.cls-67{fill:#4a4a4a;}.cls-68{fill:#252525;}.cls-69{fill:#efffff;}.cls-70{fill:#212424;}.cls-71{fill:#cddddd;}.cls-72{fill:#3b3e3e;}.cls-73{fill:#202828;}.cls-74{fill:#bbc4c4;}.cls-75{fill:#d0ebeb;}.cls-76{fill:#4c5b5b;}.cls-77{fill:#dcf0f0;}.cls-78{fill:#494a4a;}.cls-79{fill:#6a7676;}.cls-80{fill:#404848;}.cls-81{fill:#332e2e;}.cls-82{fill:#1e2727;}.cls-83{fill:#c4c7c7;}.cls-84{fill:#b9bbbb;}.cls-85{fill:#414646;}.cls-86{fill:#303737;}.cls-87{fill:#2f4f4f;}.cls-88{fill:#659191;}.cls-89{fill:#cedbdb;}.cls-90{fill:#2d2727;}.cls-91{fill:#373d3d;}.cls-92{fill:#c9cece;}.cls-93{fill:#343434;}.cls-94{fill:#b2aeae;}.cls-95{fill:#526262;}.cls-96{fill:#1a2323;}.cls-97{fill:#c7d8d8;}.cls-98{fill:#a5a7a7;}.cls-99{fill:#b6acac;}.cls-100{fill:#d6d7d7;}.cls-101{fill:#badbdb;}.cls-102{fill:#7b9595;}.cls-103{fill:#3d5252;}.cls-104{fill:#2f3333;}.cls-105{fill:#463737;}.cls-106{fill:#1f2020;}.cls-107{fill:#3e3d3d;}.cls-108{fill:#546262;}.cls-109{fill:#293232;}.cls-110{fill:#2a1818;}.cls-111{fill:#727e7e;}.cls-112{fill:#b8b6b6;}.cls-113{fill:#373a3a;}.cls-114{fill:#212020;}.cls-115{fill:#e2f3f3;}.cls-116{fill:#313333;}.cls-117{fill:#c2c3c3;}.cls-118{fill:#465454;}.cls-119{fill:#2e2929;}.cls-120{fill:#1c1d1d;}.cls-121{fill:#afb6b6;}.cls-122{fill:#a8b1b1;}.cls-123{fill:#b5c9c9;}.cls-124{fill:#8a9f9f;}.cls-125{fill:#917676;}.cls-126{fill:#dddada;}.cls-127{fill:#6c7c7c;}.cls-128{fill:#3b3a3a;}.cls-129{fill:#bad6d6;}.cls-130{fill:#bddfdf;}.cls-131{fill:#2c1d1d;}.cls-132{fill:#131313;}.cls-133{fill:#b3c3c3;}.cls-134{fill:#9fb4b4;}.cls-135{fill:#404a4a;}.cls-136{fill:#a2aeae;}.cls-137{fill:#a59f9f;}.cls-138{fill:#1e2626;}.cls-139{fill:#88a2a2;}.cls-140{fill:#976d6d;}.cls-141{fill:#6e6b6b;}.cls-142{fill:#515757;}.cls-143{fill:#b5b7b7;}.cls-144{fill:#93b1b1;}.cls-145{fill:#c1c2c2;}.cls-146{fill:#0c0f0f;}.cls-147{fill:#475050;}.cls-148{fill:#617676;}.cls-149{fill:#5a6565;}.cls-150{fill:#b9d1d1;}.cls-151{fill:#cecaca;}.cls-152{fill:#a0bbbb;}.cls-153{fill:#5a4141;}.cls-154{fill:#abbbbb;}.cls-155{fill:gray;}.cls-156{fill:#313c3c;}.cls-157{fill:#b4c0c0;}.cls-158{fill:#312828;}.cls-159{fill:#445a5a;}.cls-160{fill:#464545;}.cls-161{fill:#7ca3a3;}.cls-162{fill:#374343;}.cls-163{fill:#7b7a7a;}.cls-164{fill:#a1adad;}.cls-165{fill:#88b0b0;}.cls-166{fill:#5b6868;}.cls-167{fill:#273030;}.cls-168{fill:#5b7070;}.cls-169{fill:#838686;}.cls-170{fill:#6b7b7b;}.cls-171{fill:#292b2b;}.cls-172{fill:#c3c5c5;}.cls-173{fill:#405151;}.cls-174{fill:#d4e6e6;}.cls-175{fill:#9e9c9c;}.cls-176{fill:#626060;}.cls-177{fill:#838383;}.cls-178{fill:#9fa9a9;}.cls-179{fill:#978b8b;}.cls-180{fill:#737171;}.cls-181{fill:#8e8e8e;}.cls-182{fill:#bfdddd;}.cls-183{fill:#2b2b2b;}.cls-184{fill:#6fa3a3;}.cls-185{fill:#9fc8c8;}.cls-186{fill:#bfcccc;}.cls-187{fill:#587272;}.cls-188{fill:#508484;}.cls-189{fill:#90adad;}.cls-190{fill:#f3e9e9;}.cls-191{fill:#1b1c1c;}.cls-192{fill:#a6afaf;}.cls-193{fill:#dedfdf;}.cls-194{fill:#536161;}.cls-195{fill:#404646;}.cls-196{fill:#3d4e4e;}.cls-197{fill:#3c4848;}.cls-198{fill:#7a7676;}.cls-199{fill:#609595;}.cls-200{fill:#3e5f5f;}.cls-201{fill:#618d8d;}.cls-202{fill:#3f4e4e;}.cls-203{fill:#4f5c5c;}.cls-204{fill:#6a7373;}.cls-205{fill:#304242;}.cls-206{fill:#b2a4a4;}.cls-207{fill:#334848;}.cls-208{fill:#5e5d5d;}.cls-209{fill:#010101;}.cls-210{fill:#414e4e;}.cls-211{fill:#8c9595;}.cls-212{fill:#4e6565;}.cls-213{fill:#9eadad;}.cls-214{fill:#736868;}.cls-215{fill:#010000;}.cls-216{fill:#020101;}.cls-217{fill:#201d1d;}.cls-218{fill:#c2b4b4;}.cls-219{fill:#6d5f5f;}.cls-220{fill:#100e0e;}.cls-221{fill:#100d0d;}.cls-222{fill:#161616;}.cls-223{fill:#0f0f0f;}.cls-224{fill:#758b8b;}</style></defs><g class="cls-1"><g id="Capa_2" data-name="Capa 2"><g id="Capa_1-2" data-name="Capa 1"><g id="ArjBys" class="cls-2"><path d="M232,176.5c-.24-.36-.07-.76-.12-1.14V173a.87.87,0,0,0-.08-.5c-.57-1.64-1-3.33-1.73-4.91a44.48,44.48,0,0,0-2.75-5.31c-.6-1-1.21-2-1.72-3.07-.69-1.44-1.37-2.86-2.13-4.26a31.48,31.48,0,0,0-2.76-4.15,6.38,6.38,0,0,0-1.22-1.57,3.53,3.53,0,0,1-.46-.68,10.31,10.31,0,0,0-.84-1.3c-.64-.87-1.21-1.78-1.82-2.67a44,44,0,0,0-3.44-4.48c-.25-.27-.47-.58-.69-.87-.73-.94-1.43-1.9-2.19-2.81-1-1.13-2-2.2-2.91-3.34s-1.89-2.08-2.72-3.23c-.52-.72-1.07-1.42-1.66-2.09a18.56,18.56,0,0,1-1.55-2,22,22,0,0,0-5.1-5.36c-1.17-.91-2.39-1.76-3.51-2.72a18.38,18.38,0,0,0-3.83-2.46c-.26-.13-.52-.28-.78-.42,0-.13,0-.24,0-.35a17.06,17.06,0,0,0-.2-4.28,1.66,1.66,0,0,1,0-.22c-.12-1-.16-2.12-.38-3.15a46.66,46.66,0,0,0-1.21-4.61c-.39-1.19-.76-2.39-1.05-3.61a40.2,40.2,0,0,0-1.67-5,2.71,2.71,0,0,1-.42-1.16c-.46-.35-.14-1-.47-1.37-.28-1-.53-2-.9-3s-.77-2.22-1.19-3.33c-.53-1.42-1.1-2.82-1.63-4.24-.38-1-.71-2-1.1-3-.49-1.24-1.06-2.45-1.51-3.7a53.53,53.53,0,0,0-2.72-6.44,26.48,26.48,0,0,0-2-3.43c-.22-.29-.36-.64-.56-.94-.77-1.12-1.49-2.28-2.34-3.34-.62-.78-1-1.71-1.7-2.44a.27.27,0,0,1-.08-.2c.12-.59-.29-.9-.67-1.17a2.65,2.65,0,0,1-.78-.92,20.43,20.43,0,0,0-1.82-2.62c-.35-.41-.62-.88-1-1.27a13.52,13.52,0,0,1-1.11-1.39c-.16-.2-.33-.4-.51-.59-1.08-1.08-2.18-2.12-3.23-3.23-2-2.12-4.21-4-6.35-5.91-1.32-1.19-2.71-2.3-4.06-3.46a67.48,67.48,0,0,0-5.4-4.12,8.93,8.93,0,0,0-1.43-.84,12.87,12.87,0,0,1-1.46-.8,5,5,0,0,0-1-.5A15.54,15.54,0,0,0,135.16,29a3.88,3.88,0,0,0-1.74-.59c-.53-.08-.91-.48-1.44-.55-.21,0-.3-.33-.28-.56s.2-.17.33-.23a2,2,0,0,0,1-.62c.39-.58.76-1.18,1.13-1.78a2,2,0,0,0,.18-1.09c0-.67,0-1.35,0-2a5,5,0,0,0-1.81-4,2.23,2.23,0,0,0-1.69-.72,1.16,1.16,0,0,1-1.25-.89,9.47,9.47,0,0,1-.5-2.29c0-.37,0-.66.47-.74a.46.46,0,0,0,.32-.29,5.81,5.81,0,0,0,.75-2.88,4.55,4.55,0,0,1,.16-1.87,1.27,1.27,0,0,0,0-.55,4.46,4.46,0,0,0-2-3.35,10.82,10.82,0,0,1-1.27-1.08,6.18,6.18,0,0,0-2-1.41A30.93,30.93,0,0,0,122.14.21a.81.81,0,0,0-.55-.09h-2.27a1,1,0,0,0-.55.07,2.07,2.07,0,0,0-.88.46.83.83,0,0,1-.7.26,36.79,36.79,0,0,1-3.78.18,5.23,5.23,0,0,0-2.69.6A7.92,7.92,0,0,0,109,2.9a6.3,6.3,0,0,0-2.23,4.34,2.8,2.8,0,0,1-.38,1.69c-.1.12-.07.36-.07.54a4.13,4.13,0,0,0,.9,2.58,3.1,3.1,0,0,1,.68,2.79,2.56,2.56,0,0,0-.09.78c0,.66,0,1.32,0,2a2.11,2.11,0,0,1-.1,1.08c-.21.33-.68.06-1,.08s-.67,0-1,0a1,1,0,0,0-.62.21,3.09,3.09,0,0,0-1.31,1.87,7.27,7.27,0,0,0,.16,3.95,9.62,9.62,0,0,0,1.89,2.86,1.76,1.76,0,0,0,1.21.73c.45,0,.62.39.81.68a.59.59,0,0,1-.45.89,2.39,2.39,0,0,0-.77.1,9.23,9.23,0,0,1-2.58.65,11.12,11.12,0,0,0-1.83.45,26.34,26.34,0,0,0-3.46,1.69,55.07,55.07,0,0,0-6.43,4.52c-2.63,2.09-5.2,4.24-7.77,6.41A6.84,6.84,0,0,0,83,45.18c-.21.18-.46.29-.67.45h0a.91.91,0,0,1-.24.2c0,.09-.09.17-.13.26a8.2,8.2,0,0,0-1,.65h0c-.32.2-.55.52-.92.64h0a.32.32,0,0,1-.23.23,2.06,2.06,0,0,1-.48.45,4.14,4.14,0,0,0-.69.37c-1.19.93-2.4,1.85-3.55,2.83a61.6,61.6,0,0,0-4.65,4.49c-1.41,1.47-2.87,2.88-4.31,4.32a46.17,46.17,0,0,0-4.49,5.09,45.08,45.08,0,0,0-2.81,4.15c-.32.54-.73,1-1,1.59a25.89,25.89,0,0,1-2.2,3.36c-1.07,1.38-2,2.85-3,4.26-.62.83-1.22,1.68-1.8,2.54a37.35,37.35,0,0,0-2.92,4.81c-.12.71-.67,1.23-.86,1.92a.74.74,0,0,0-.17.25,2.38,2.38,0,0,1-.21.56c-.27.93-.74,1.78-1.06,2.69-.2.66-.4,1.32-.57,2,0,.1-.15.22-.13.3a6.86,6.86,0,0,1-.2,1.75c0,.73-.14,1.47-.1,2.2,0,.55,0,1.11,0,1.66,0,1.17,0,2.34,0,3.51a38.38,38.38,0,0,0,.92,7.31c0,.24.08.49.11.74.24,1.74.48,3.48.73,5.23.06.39.17.77.26,1.16a25.63,25.63,0,0,0,1.4,4.09c.1.24.17.49.27.73a.43.43,0,0,1-.2.57c-.24.17-.49.33-.75.49a34.51,34.51,0,0,0-2.91,2c-1.23,1-2.45,1.94-3.69,2.89a40.77,40.77,0,0,0-5.86,5.44,56,56,0,0,0-6.67,9.89c-.27.49-.52,1-.8,1.46s-.32.39-.71.19c-1.18-.62-2.35-1.26-3.54-1.86a4.3,4.3,0,0,0-1.14-.45,1.22,1.22,0,0,0-1.61,1.05c-.14.61-.23,1.24-.43,1.84-.32.94-.68,1.88-1.07,2.8-.69,1.64-1.45,3.24-2.28,4.82-1.1,2.1-2.13,4.24-3.17,6.37-.49,1-1,2-1.43,3-.78,1.73-1.52,3.47-2.29,5.2-.88,2-1.75,3.92-2.52,5.93-.48,1.28-1,2.56-1.52,3.81q-1,2.31-2.06,4.57c-.41.87-.86,1.73-1.32,2.57-.61,1.11-1.24,2.2-1.86,3.3a.32.32,0,0,0-.06.27,3.5,3.5,0,0,1,.3.65c0,.05.09.13.15.16a18.24,18.24,0,0,1,3.6,3.13c1.14,1.18,2.23,2.4,3.33,3.62a4.51,4.51,0,0,1,.67.89c.19.37.48.66.69,1a2,2,0,0,0,1.35.87c1.19.31,2.37.65,3.52,1.07,1.36.51,2.73,1,4.11,1.41.92.3,1.84.57,2.73,1a28.55,28.55,0,0,0,2.87,1.2A37.38,37.38,0,0,0,28,204.37c.65.14,1.27.4,1.91.58,1.47.4,2.84,1.07,4.29,1.51.74.23,1.48.49,2.2.79.92.38,1.86.73,2.77,1.15,1.14.53,2.28,1,3.47,1.47a10.8,10.8,0,0,1,3.24,1.43.5.5,0,0,0,.41.12c.7-.28,1.11.17,1.55.57a10.61,10.61,0,0,0,2.71,1.71c1.44.69,3,1.09,4.46,1.65s2.72,1,4,1.58a9.25,9.25,0,0,1,.93.32c.22.14.48.15.72.28a18.8,18.8,0,0,0,3.89,1.52c1,.3,2.06.52,3.1.74s2.22.58,3.35.78c.65.11,1.29.28,2,.34,1.93.16,3.87.05,5.8,0,1.27,0,2.56,0,3.84,0,1.76,0,3.54.06,5.31-.07.88-.07,1.77-.13,2.65-.26a15.1,15.1,0,0,0,4.25-1.27.44.44,0,0,1,.47,0,2.56,2.56,0,0,1,.13.59c0,2.7,0,5.4-.06,8.1,0,.41,0,.82,0,1.23.12,1.48.27,3,.41,4.43,0,.37.11.74.12,1.1,0,1.23,0,2.45,0,3.67a22.6,22.6,0,0,0,.54,4.63c.28,1.15.36,2.33.53,3.49a5.73,5.73,0,0,0,.42,1.37c.09.21.4,0,.54.28s.51.24.79.31l1,.22c.19,0,.31.12.24.39a2.15,2.15,0,0,0,0,.76,10.58,10.58,0,0,0,.13,2.51,8.87,8.87,0,0,1,.21,2.07,7,7,0,0,0,.05,1.65c.17.58-.12,1.12.07,1.7a1.42,1.42,0,0,1-.5,1.49A11.86,11.86,0,0,1,98,260.51c-.86.44-1.78.74-2.68,1.1-2.24.91-4.42,2-6.7,2.79-1.36.5-2.7,1.05-4.06,1.57a1.25,1.25,0,0,0-.7.51c-.07.13-.16.3-.12.41.15.5.29,1,.92,1.15a11.38,11.38,0,0,0,2.85.45q9.22-.06,18.45-.08a7.67,7.67,0,0,0,2.43-.19,5.61,5.61,0,0,1,1.1-.15,17.11,17.11,0,0,0,3.42-.35,1.88,1.88,0,0,1,1,0,.78.78,0,0,0,.54,0,2.18,2.18,0,0,0,1.15-1.16c.07-.21.06-.44.24-.61a.79.79,0,0,0,.21-.72,8.64,8.64,0,0,1,0-.88c0-.4.07-.72.57-.79.27,0,.32-.32.06-.48a1.49,1.49,0,0,1-.61-1.35,12.09,12.09,0,0,0-.2-2c-.36-1.56-.53-3.14-.81-4.71a7.12,7.12,0,0,1-.16-1.77,20.17,20.17,0,0,0-.11-3.11c0-.34.09-.5.38-.5.82,0,1.63,0,2.45,0,1,0,2-.08,3,0,1.61.09,3.22,0,4.83,0,.64,0,1.25-.15,1.88-.17a.62.62,0,0,1,.56.27.8.8,0,0,0,1.12.19c.15-.1.39-.12.48-.25.22-.34.51-.34.86-.34.86,0,1.71,0,2.57,0a3.14,3.14,0,0,0,2.78-1.5c.19-.31.22-.32-.17-.52s-.48-.29-.44-.67a8.35,8.35,0,0,1,0-.87,5,5,0,0,0,.05-1.22c-.07-1.32-.16-2.63-.2-4,0-1.07-.11-2.14-.14-3.21a13.26,13.26,0,0,0-.12-1.67,14.45,14.45,0,0,1-.16-1.73c-.09-1.58-.28-3.17-.24-4.76,0-.67-.14-1.34-.1-2a15.26,15.26,0,0,0-.23-3.82.93.93,0,0,1,0-.44,2.05,2.05,0,0,0,0-1.1,12.15,12.15,0,0,1-.12-2.55c0-1.52-.2-3-.29-4.52s-.3-3.24-.23-4.87a2.55,2.55,0,0,0-.06-.78,4.17,4.17,0,0,1,0-1,18,18,0,0,0,0-2.08c-.21-1.8-.08-3.62-.38-5.41-.07-.42.07-.88,0-1.32-.09-1-.27-1.91-.33-2.86s-.12-1.92-.21-2.86c-.24-2.3-.46-4.6-.61-6.91-.11-1.62-.28-3.23-.41-4.85,0-.7,0-1.4-.09-2.11-.24-3.13-.5-6.27-.76-9.4,0-.59-.16-1.18-.16-1.77a17.69,17.69,0,0,0-.2-2.07c-.17-1.49-.28-3-.41-4.48a49.24,49.24,0,0,1-.08-6.43,1.66,1.66,0,0,0,.1-.66,4.19,4.19,0,0,1-.09-1,5.68,5.68,0,0,1-.11-.72c0-.12-.05-.25,0-.36a1,1,0,0,0,0,.3c0,.35.14.69.12,1a1.07,1.07,0,0,0,.06.3,1.31,1.31,0,0,0,.38.65,15.6,15.6,0,0,1,.8,2.51,29.37,29.37,0,0,1,.78,2.89c.27,1.49.78,2.9,1.15,4.36s.69,2.62,1.09,3.92a22.39,22.39,0,0,1,.9,3.63c.12.95.42,1.88.62,2.82.3,1.41.54,2.83.88,4.22.28,1.19.49,2.4.78,3.58s.46,2.18.78,3.24a2.13,2.13,0,0,1,.19.75,5.75,5.75,0,0,0,.33,1.84c.06.33.12.66.19,1,.29,1.52.54,3,1,4.54a5.66,5.66,0,0,1,.29,1.37,8.51,8.51,0,0,0,.31,1.63c.47,1.89.86,3.81,1.21,5.73.06.32.1.65.17,1a6.15,6.15,0,0,1,.21,1.76c.28.73.2,1.53.43,2.27.06.29.11.58.17.87a19.13,19.13,0,0,0,.59,2.46c.2.63.13,1.35.34,1.95a21.43,21.43,0,0,1,.61,2.79c.34,1.54.5,3.12.84,4.67a9.3,9.3,0,0,0,.23,1.62c.37,1,.24,2,.71,3a14.27,14.27,0,0,0,.29,2.43c.21,1.41.36,2.84.58,4.26s.53,2.83.74,4.26c.06.4.19.78.25,1.18.17,1.14.14,2.28.27,3.42a27.1,27.1,0,0,1,.25,4.85.92.92,0,0,0,.08.43,1.83,1.83,0,0,1,.13,1c0,.48,0,1,0,1.45a.82.82,0,0,0,.1.53c.41.51.73,1.12,1.45,1.28a5.06,5.06,0,0,0,1.08.17,5.46,5.46,0,0,1,1,.11,33.57,33.57,0,0,0,5.1.46c.3,0,.66-.07.87.07a6.41,6.41,0,0,0,1.55.47c.32.12.33,0,.44-.24.22-.41.65-.32,1-.27s.35.36.31.62c-.07.48.12.93.09,1.42a28.12,28.12,0,0,0,0,3.31,34.16,34.16,0,0,0,.32,4.41,2.26,2.26,0,0,1,0,.45c0,.89.07,1.79,0,2.68-.07,1.48.27,2.94.18,4.43a1.66,1.66,0,0,0,0,.22.65.65,0,0,0,.58.59c1,.08,2,.5,3,.64.28.24.62.08.93.13h13.62a1.66,1.66,0,0,0,.54-.06,3.26,3.26,0,0,1,.88-.05,52.5,52.5,0,0,0,8.77-.62c1.3-.16,1.92-.93,1.64-2-.19-.73-.79-1-1.42-1.3a65.87,65.87,0,0,0-9.93-2.86c-1.87-.46-2-.53-2.23-2.44a55.82,55.82,0,0,0-1.24-5.88,4.25,4.25,0,0,1-.48-2,1.34,1.34,0,0,0,0-.3c-.25-1-.42-1.93-.58-2.9,0-.34-.17-.67.27-.82s1-.2,1.53-.3c2.16-.45,2.83-1.42,2.74-3.6-.06-1.71-.36-3.41-.3-5.12a72.24,72.24,0,0,0-.67-9.54c-.44-4.24-2.23-8.29-1.93-12.65a2.91,2.91,0,0,0-.52-1.28,1.49,1.49,0,0,0,.42.2,40.87,40.87,0,0,0,9.25-.34,107,107,0,0,0,18.38-4.16,24.45,24.45,0,0,0,8.1-4.16c.31-.63,1-.91,1.37-1.45l.12-.09a1.73,1.73,0,0,0,.21-.17,1.07,1.07,0,0,0,.18-.19,2.24,2.24,0,0,1,.41-.35,2.11,2.11,0,0,0,.23-.19l.2-.24c.75-1.07,1.2-2.31,1.93-3.39a12.93,12.93,0,0,0,2.06-6.85,5.36,5.36,0,0,0-.16-1.32c.3.49.3.49,1.13.52,3-.76,5.6-2,7.16-4.82.33-.59.73-1.12,1.08-1.69,1.32-2.19,2.82-4.31,2.9-7v-3.33c0-.2-.06-.43.12-.61ZM50.11,131c-.19.47-.4.92-.59,1.39-.33.81-.59,1.66-.9,2.48q-1.08,2.86-2.36,5.64a72.08,72.08,0,0,1-6,10.64.3.3,0,0,1-.34.13l-.06.11a1,1,0,0,1-.85.26,4.75,4.75,0,0,1-1.55-.45,4.28,4.28,0,0,1-2.6-1.16,6.21,6.21,0,0,1-.93-.37,2.65,2.65,0,0,1-1.58-1.69,4.09,4.09,0,0,1,.77-2.64c.51-.9,1.12-1.73,1.7-2.58a30.32,30.32,0,0,1,2.6-3.27c2-2.18,4.18-4.18,6.24-6.29a28.63,28.63,0,0,1,4.17-3.76,12.63,12.63,0,0,1,1.57-1.53.31.31,0,0,1,.42,0,1,1,0,0,1,.22.25l.07,0c.19,0,.31.12.31.29C50.84,129.08,50.32,130.42,50.11,131Zm13.68,26.58c-.28.93-.94,2.07-2.11,1.63a2.62,2.62,0,0,1-1.16-1.12,9.92,9.92,0,0,1-.83-1.74,12.49,12.49,0,0,1-.51-2.11c-.17-1-.28-2-.38-3-.13-1.4-.19-2.8-.42-4.18s-.44-2.49-.54-3.75a3.91,3.91,0,0,1,.47-2.79.28.28,0,0,1,.47.11,6.73,6.73,0,0,0,1.55-.14c.6-.12,1.18-.29,1.78-.39,1.18-.2,2.4-.23,3.57-.52,1-.24,2-.57,3-.74a9.06,9.06,0,0,0,2.59-.55c.18-.4.36-.81.5-1.22a.3.3,0,0,1,.57,0,.32.32,0,0,1,0,.09.24.24,0,0,1,.16.25,6.12,6.12,0,0,1-1.12,3.09,6.62,6.62,0,0,1-.23,1,34.73,34.73,0,0,1-2.78,6.23,25.12,25.12,0,0,1-1.6,2.81c-.19.28-.39.55-.59.81-.34.69-.67,1.37-1,2.07-.39.89-.74,1.78-1.06,2.7C64,156.56,63.93,157.06,63.79,157.54ZM67.55,160l-.21.39v.07a1.08,1.08,0,0,1-.35.72,1.67,1.67,0,0,1-1.33.32,1.15,1.15,0,0,1-1-.74l-.26-.1a.3.3,0,0,1-.2-.36,43.83,43.83,0,0,1,1.81-4.75c1.1-3,3-5.53,4.27-8.4.35-.78.62-1.58.93-2.37l1-2.45c.65-1.61,1.27-3.22,1.76-4.88a.31.31,0,0,1,.51-.26c.39.37.3,1.14.25,1.61a13.43,13.43,0,0,1-.24,1.67,6.53,6.53,0,0,1-.73,4.08c-.11.25-.22.5-.34.74l-.24,1A16.16,16.16,0,0,1,72,149.64c-.53,1.06-1.07,2.13-1.52,3.23s-.78,2.27-1.23,3.38c-.35.89-.76,1.74-1.15,2.61C67.92,159.25,67.75,159.63,67.55,160Zm8.91-14.14c0,1.14-.11,2.28-.16,3.42s0,2.06-.14,3.08c0,.15,0,.3,0,.45s0,.52,0,.77a7.27,7.27,0,0,1-.28,2,5.85,5.85,0,0,1-.73,1.43,10.57,10.57,0,0,1-2.5,2.45,9.7,9.7,0,0,1-3,1.5.3.3,0,0,1-.38-.29,9.15,9.15,0,0,1,.65-3c.67-1.85,1.6-3.59,2.43-5.37,1-2.17,1.87-4.4,2.67-6.65a.31.31,0,0,1,.11-.14c.09-.36.18-.73.26-1.1v0a.29.29,0,0,1,.08-.26c.17-.82.32-1.63.42-2.46a7.07,7.07,0,0,0-.29-3.76c-.16-.34.35-.64.51-.3a7.66,7.66,0,0,1,.35,4.22.27.27,0,0,1,.14.24C76.53,143.28,76.5,144.57,76.46,145.87Zm24,27.73a10.28,10.28,0,0,1-.25,1.83,30.85,30.85,0,0,1-.16,5.52c0,.29-.52.28-.57,0-.31-1.8-.86-3.55-1.24-5.33a10,10,0,0,1-.74-2.28c-.3-1.39-.44-2.8-.68-4.2s-.66-2.94-1-4.39c-.44-1.65-.94-3.3-1.5-4.92a77,77,0,0,0-3.94-9.27c-.81-1.62-1.63-3.24-2.39-4.9A46.85,46.85,0,0,0,85.62,141c-1.72-2.84-4.24-5.07-6.28-7.66a.32.32,0,0,1,0-.37c-.88-.81-1.83-1.53-2.72-2.34A9.73,9.73,0,0,1,75,128.83c-.43-.66-.77-1.38-1.21-2a11,11,0,0,0-3.6-3.15A11.25,11.25,0,0,1,67,121.11a9.19,9.19,0,0,1-1.56-3.37,21.39,21.39,0,0,1-.5-2.86.24.24,0,0,1-.23-.21c-.23-1.49-.46-3-.56-4.48a12.37,12.37,0,0,1-.11-1.92c-.18-.81-.36-1.61-.46-2.43a25.26,25.26,0,0,1-.09-4.84A20.27,20.27,0,0,1,66,92.23a24,24,0,0,1,5.91-6.31c2.37-1.87,4.91-3.49,7.4-5.18,2.94-2,5.69-4.22,8.56-6.31.74-.53,1.5-1,2.2-1.62S91.36,71.7,92,71.14a17.76,17.76,0,0,1,3.92-2.86.3.3,0,0,1,.26,0,.31.31,0,0,1,.41.18,5.12,5.12,0,0,1,.13,2.17c-.08.78-.21,1.56-.24,2.35a17.54,17.54,0,0,0,.17,2.71c.11,1.06.27,2.11.44,3.15.39,2.47.66,5,.84,7.45a.27.27,0,0,1,.11.2c.47,4.41.71,8.84.84,13.28a.28.28,0,0,1-.38.27c.05,3.6.42,7.19.72,10.78.16,2,.3,3.93.35,5.91s0,4,.09,6c.12,4,.37,8.1.55,12.15.17,3.85.26,7.69.19,11.54-.06,3-.18,6-.2,9,0,.62.1,1.23.12,1.85.1,2.58.11,5.15,0,7.73,0,1.31.07,2.63.13,3.94A36.39,36.39,0,0,1,100.46,173.6Zm69.7-56.29a14.64,14.64,0,0,1-2.78,2.61,20.62,20.62,0,0,0-3.68,4,14.5,14.5,0,0,0-2.39,5.22h0a46.41,46.41,0,0,0-.23,4.71,9.64,9.64,0,0,0,.47,3.38c.33.89.82,1.7,1.1,2.61a8.36,8.36,0,0,1,0,3.45,26.16,26.16,0,0,1-.94,4.28,5.73,5.73,0,0,1-1.43,2.76.3.3,0,0,1-.5-.21c-.05-.64-.11-1.27-.19-1.91a116.51,116.51,0,0,0-3.42-15.41c-.68-2.61-1.32-5.23-2-7.83s-1.5-5.43-2.11-8.19a68.94,68.94,0,0,1-1.16-8.08c-.27-2.79-.6-5.58-.93-8.37-.68-5.62-1.29-11.25-1.91-16.89-.57-5.25-1.18-10.51-2.05-15.72a.27.27,0,0,1-.2-.27v-.68a.29.29,0,0,1,0-.57.37.37,0,0,1,.23,0,.27.27,0,0,1,.37.19v.06c.15.12.28.26.41.38.35.34.68.68,1,1,.83.88,1.64,1.78,2.45,2.67.55.62,1.08,1.25,1.67,1.83a33.14,33.14,0,0,1,3.9,4.47c.25.37.49.74.72,1.12a.38.38,0,0,1,.09.09q1.57,2.58,2.89,5.3c3.16,6.45,5.42,13.28,8.36,19.83a.29.29,0,0,1,0,.3c.19.48.37,1,.54,1.46.6,1.68,1.14,3.39,1.58,5.13.07.22.13.44.2.65a22.81,22.81,0,0,1,.7,2.91A4.94,4.94,0,0,1,170.16,117.31Zm23.55,31.74a4.68,4.68,0,0,1-.78,1.75,3.62,3.62,0,0,1-1.73,1.13,6.83,6.83,0,0,1-4.09-.26c-.73-.12-1.46-.3-2.18-.49a28.2,28.2,0,0,1-7.73-3.44,14.7,14.7,0,0,1-3.46-2.87,5,5,0,0,1-1.3-3.11,13.19,13.19,0,0,1-.59-5.27.25.25,0,0,1,.14-.24.32.32,0,0,1,.28-.3c1.5-.2,2.85.76,4.2,1.25a15.85,15.85,0,0,0,1.92.48,2.88,2.88,0,0,0,2-.24,4.78,4.78,0,0,1,1.62-.66,10.59,10.59,0,0,1,1.95,0,5.1,5.1,0,0,0,2-.21,10.45,10.45,0,0,0,1.72-.82,4.61,4.61,0,0,0,2.37-2.45.29.29,0,0,1,.36-.21,1.74,1.74,0,0,1,.61.3,6.45,6.45,0,0,1,1.83,3.29,24.45,24.45,0,0,1,.9,4.14c.15,1.16.25,2.34.3,3.51A17.81,17.81,0,0,1,193.71,149.05Z"/><path class="cls-3" d="M171.56,270c1.72-.07,3.43-.05,5.14,0,.08,0,.11.07.09.11s0,.07-.07.07h-5.15c-.07-.05-.1-.09-.07-.13S171.54,270,171.56,270Z"/><path class="cls-4" d="M166.87,270a28.51,28.51,0,0,1,3.58,0c.07,0,.1.08.07.13s0,.07-.07.07h-3.58c-.07-.05-.09-.09-.07-.13S166.85,270,166.87,270Z"/><path class="cls-5" d="M121.7.21h-2.48c-.07-.05-.09-.1-.06-.14s0-.06.07-.06h2.46c.07,0,.09.09.07.13S121.72.21,121.7.21Z"/><path class="cls-6" d="M176.72,270.24c0-.06,0-.12,0-.18a7.66,7.66,0,0,1,1.79,0q.12.06.09.12s-.05.07-.08.07Z"/><path class="cls-7" d="M231.78,179.86a8.15,8.15,0,0,1,0-1.78c.06-.11.11-.11.18,0v1.79C231.91,180,231.84,180,231.78,179.86Z"/><path class="cls-8" d="M232,176.5c-.1,0-.2-.08-.2-.2,0-.31,0-.62,0-.93.07-.08.13-.08.19,0Z"/><path class="cls-9" d="M170.45,270.24V270a3.45,3.45,0,0,1,1.11,0,1.27,1.27,0,0,1,0,.2Z"/><path class="cls-10" d="M165.31,270a1.79,1.79,0,0,1,.89,0c.07.05.1.09.07.14s0,.07-.07.07h-.89Z"/><path class="cls-11" d="M178.5,270.24a1.15,1.15,0,0,0,0-.19l.92,0c.07.05.09.1.06.14s-.05.07-.07.07Z"/><path class="cls-12" d="M231.77,173.82c0-.3,0-.6,0-.9q.11-.15.21,0v.9C231.9,173.92,231.84,173.92,231.77,173.82Z"/><path class="cls-13" d="M.42,187.9l0,.24a.5.5,0,0,1-.22.43H0v-.67Z"/><path class="cls-14" d="M232,178.07h-.18a2.42,2.42,0,0,1,0-.89c.06-.11.12-.12.2,0Z"/><path class="cls-15" d="M231.78,179.86H232v.89h-.2Z"/><path class="cls-16" d="M166.2,270.24V270a1.18,1.18,0,0,1,.67,0v.2Z"/><path class="cls-17" d="M231.77,174.72h.2v.68l-.19,0C231.78,175.16,231.77,174.94,231.77,174.72Z"/><path class="cls-18" d="M180.28,270v.25h-.44c-.08-.05-.1-.1-.07-.14s.05-.07.08-.07Z"/><path class="cls-19" d="M179.86,270a1.48,1.48,0,0,0,0,.21h-.45a1.48,1.48,0,0,1,0-.21Z"/><path class="cls-20" d="M119.23,0a1.34,1.34,0,0,1,0,.2h-.45c0-.06,0-.13,0-.19Z"/><path class="cls-21" d="M121.7.21a.74.74,0,0,1,0-.21h.44a1.48,1.48,0,0,1,0,.21Z"/><path class="cls-22" d="M232,177.17l-.2,0c0-.19-.06-.39.2-.46Z"/><path class="cls-23" d="M232,172.92h-.21v-.45h.2Z"/><path class="cls-24" d="M46.78,88.66A3.32,3.32,0,0,1,46.26,90a1,1,0,0,0-.25.79c.05.23-.2.36-.34.52a.2.2,0,0,1-.06-.32,3.49,3.49,0,0,1,.22-.93,11.12,11.12,0,0,0,.71-1.79A1.25,1.25,0,0,1,47,87.7a.24.24,0,0,1,.07.19C47,88,47,88,47,88a.3.3,0,0,1-.07.15A3.33,3.33,0,0,0,46.78,88.66Z"/><path class="cls-25" d="M45.61,91l.06.32a4.75,4.75,0,0,1-.69,2A3.43,3.43,0,0,1,45.61,91Z"/><path class="cls-26" d="M47,88l0-.3c0-.25,0-.54.19-.73s.31-.82.68-1.09a1.33,1.33,0,0,1-.22,1C47.44,87.27,47.22,87.63,47,88Z"/><path class="cls-27" d="M82.09,46.08c-.34.27-.61.67-1.11.67.23-.28.43-.62.85-.69A.2.2,0,0,1,82.09,46.08Z"/><path class="cls-27" d="M81,46.75c-.19.38-.42.7-.92.64C80.35,47.16,80.5,46.72,81,46.75Z"/><path class="cls-28" d="M83,45.18a.55.55,0,0,1-.67.45A.72.72,0,0,1,83,45.18Z"/><path class="cls-27" d="M79.83,47.61a.52.52,0,0,1-.49.46C79.34,47.74,79.54,47.62,79.83,47.61Z"/><path class="cls-27" d="M80.05,47.39a.23.23,0,0,1-.23.23C79.84,47.49,79.89,47.39,80.05,47.39Z"/><path class="cls-28" d="M82.09,46.08l-.26,0a.25.25,0,0,1,.25-.22Z"/><path class="cls-28" d="M82.32,45.64a.21.21,0,0,1-.25.2A.21.21,0,0,1,82.32,45.64Z"/><path class="cls-29" d="M183,92.34c-.14,0-.33.07-.36-.1-.06-.42-.08-.85-.11-1.27A1.62,1.62,0,0,1,183,92.34Z"/><path class="cls-29" d="M183.46,93.5a1,1,0,0,1-.42-1.16C183.2,92.72,183.58,93,183.46,93.5Z"/><path class="cls-30" d="M219.46,149.2a.62.62,0,0,1-.46-.68A.75.75,0,0,1,219.46,149.2Z"/><path class="cls-31" d="M141.63,205.77a2,2,0,0,1,.43,1.4c0,.29,0,.58,0,.87,0,0-.08,0-.08-.06A4.94,4.94,0,0,1,141.63,205.77Z"/><path class="cls-32" d="M.23,188.57c0-.18,0-.36.22-.43.36.25.36.25.21.68Z"/><path class="cls-33" d="M61.48,116.31a37,37,0,0,1-4.19,2.07c-.39.16-.8,0-1.19.17a8.09,8.09,0,0,1-1.09.22,12.9,12.9,0,0,1-3.67.13,5,5,0,0,0-1.22,0,.53.53,0,0,1-.66-.43A12.56,12.56,0,0,1,49,117a28.5,28.5,0,0,1-.82-4.37c-.11-1.34-.38-2.65-.61-4s-.45-2.4-.58-3.61a32.82,32.82,0,0,1-.17-3.43c0-1.56,0-3.11,0-4.66a12.43,12.43,0,0,1,.86-5,12.6,12.6,0,0,0,.56-1.67,23.12,23.12,0,0,1,2.11-4.64c.63-1.2,1.32-2.37,1.87-3.61a25.52,25.52,0,0,1,4.41-6.56c.44-.5.89-1,1.36-1.48a15.78,15.78,0,0,0,2.34-3.22,33,33,0,0,1,2.42-3.69c.41-.52.71-1.11,1.18-1.6a16.56,16.56,0,0,0,1.23-1.41,18.91,18.91,0,0,1,2.28-2.37,9.72,9.72,0,0,1,1.69-1.58,15.31,15.31,0,0,1,2.8-2.83c.35-.32.54-.78.94-1.07s.67-.26.91-.58c.38-.5.82-1,1.21-1.46a3.81,3.81,0,0,1,.7-.69c.75-.6,1.46-1.24,2.19-1.86s1.31-.93,1.92-1.47a9,9,0,0,1,2-1.45c.16-.07.26-.25.39-.39s.5-.24.66-.48a3.94,3.94,0,0,0,1.2-.94c.86-.83,1.92-1.39,2.73-2.26a10.33,10.33,0,0,1,1.19-1,21.44,21.44,0,0,0,2.37-2.1c1.13-.44,1.68-1.66,2.79-2.13a18.49,18.49,0,0,1,2.68-2.08c.58-.38,1.08-.84,1.69-1.18S98.48,35.38,99,35a16.26,16.26,0,0,1,1.82-1,38.58,38.58,0,0,1,5.61-2.09l.11,0a10.7,10.7,0,0,1,3.94-.95c.62-.1,1.24-.18,1.86-.29a14.57,14.57,0,0,1,4-.09,6.55,6.55,0,0,0,.89,0l7.26-.1a9,9,0,0,1,1.55.12,9,9,0,0,0,3.32-.06,6.82,6.82,0,0,0,1.7-.52,1.68,1.68,0,0,1,1.5,0c.64.29,1.32.5,2,.77a1.14,1.14,0,0,0,.53.12,17.77,17.77,0,0,1,3.35,1.6c.23.32.65.36.93.62.53.28,1.18.37,1.53.94A28.22,28.22,0,0,1,144,36.39l.93.76a7.23,7.23,0,0,1,2.29,2h0a30,30,0,0,1,4,3.4c0,.07,0,.18.08.2a2.72,2.72,0,0,1,1.1,1,2.07,2.07,0,0,0,.92.73c.12,0,.21.18.31.28.65.64,1.29,1.29,1.94,1.91a5.81,5.81,0,0,1,1.12,1.15.73.73,0,0,0,.54.35,12.86,12.86,0,0,1,1.61,1.77l.2.23c.16.1.1.32.26.42h0a2.68,2.68,0,0,1,.44.45,40.85,40.85,0,0,1,3.37,4.47,7,7,0,0,0,1.46,1.79,3.8,3.8,0,0,1,1,1.32,13.13,13.13,0,0,0,.66,1.15c.13.12.08.33.23.43h0a2.48,2.48,0,0,1,.19.26,8.24,8.24,0,0,0,1.18,1.86c.42.68.93,1.31,1.34,2,.71,1.17,1.41,2.36,2.06,3.56a22.06,22.06,0,0,1,1,2.22c.9,2.27,1.78,4.54,2.66,6.82,1,2.66,2,5.35,3.1,8a20.24,20.24,0,0,1,.73,2.11,4,4,0,0,0,.58,1.2,24.37,24.37,0,0,1,2.62,5,49.13,49.13,0,0,1,2.9,11c.22,1.4.48,2.79.7,4.19.07.45,0,.45-.39.66a8.62,8.62,0,0,1-3,.88,35.47,35.47,0,0,0-4.66,1.11,13.1,13.1,0,0,1-2.64.36l-1.46,0a6.77,6.77,0,0,1-.78,0c-1.13-.14-1.28-.24-1.62-1.34-1.37-4.29-2.93-8.51-4.57-12.71a12.89,12.89,0,0,1-.86-3,2.59,2.59,0,0,0-.21-.63c-1.15-2.62-2.3-5.24-3.47-7.86-1.28-2.86-2.72-5.63-4.21-8.38a7.58,7.58,0,0,0-.76-1.09c-1.46-1.75-2.85-3.55-4.41-5.2a.73.73,0,0,1-.21-.26c-.28-.87-1-1.2-1.76-1.56-.23-.12-.49-.2-.71-.32s-.3-.2-.3-.3c0-.54-.46-.72-.77-1-.61-.6-1.18-1.24-1.78-1.86a7.42,7.42,0,0,0-1.31-1.19.31.31,0,0,0-.44.15,1,1,0,0,0-.12.42c0,.71.05,1.41.1,2.12.08,1.22.51,2.36.64,3.57s.27,2.65.52,4a12.36,12.36,0,0,1,0,2.65,16.54,16.54,0,0,0,.19,3.22c.21,1.12.3,2.27.44,3.4a2.76,2.76,0,0,0,.1.65,11.53,11.53,0,0,1,.53,3.95,27.82,27.82,0,0,0,.39,3.53c.23,1.43.41,2.86.53,4.31a52.47,52.47,0,0,0,.4,5.31c.07.4.17.79.23,1.19a26.35,26.35,0,0,1,.44,6.08c-.05.77,0,1.55,0,2.32,0,.44-.06.5-.48.59-.93.2-1.86.44-2.8.6a63.81,63.81,0,0,1-6.76.75c-1.89.1-3.77.32-5.64.57-.66.09-1.34.14-2,.27-.9.2-1.79.46-2.69.69l-6.11,1.53c-1.47.37-2.93.76-4.41,1.08a8.69,8.69,0,0,1-1.77.14c-1.45,0-2.9,0-4.35,0a15.07,15.07,0,0,1-1.78-.14,33.16,33.16,0,0,0-4.11-.17h-4.91c-.36,0-.46-.09-.49-.45a3.49,3.49,0,0,0-.52-1.9c-.11-.15-.07-.43-.09-.65-.24-3.08-.47-6.17-.73-9.25a28.12,28.12,0,0,1-.25-3.78,2.07,2.07,0,0,1,0-.56,12,12,0,0,0,.21-3.87c0-1.53,0-3-.16-4.57-.14-1.67-.37-3.33-.6-5-.29-2.14-.64-4.28-.92-6.42a12.77,12.77,0,0,1-.1-2.23,12.39,12.39,0,0,0-.37-3.32,15,15,0,0,1-.54-3.52,2.85,2.85,0,0,1,.32-1.94,8.26,8.26,0,0,0,.13-2.33c0-.25,0-.56-.28-.7a1.72,1.72,0,0,0-.91-.35c-.39,0-.91-.13-1.12.46-.06.18-.32.3-.51.41-1,.64-2,1.28-3,1.89a4.6,4.6,0,0,0-1.73,1.34,3.47,3.47,0,0,1-1.07.79,18.39,18.39,0,0,0-2.9,1.87.76.76,0,0,1-.19.12,22.64,22.64,0,0,0-4.87,3.67c-1.55,1.32-3.2,2.54-4.84,3.75-.77.57-1.58,1.09-2.36,1.66-1.23.89-2.51,1.73-3.65,2.73a40.38,40.38,0,0,0-4.82,5.05,7.19,7.19,0,0,0-.87,1.43c-.34.74-.8,1.43-1.09,2.19s-.36,1.51-.61,2.23a15.08,15.08,0,0,0-.58,2.61,4.67,4.67,0,0,0,0,1.12c.23,2.52.19,5,.38,7.57.13,1.75.28,3.49.45,5.23a8.84,8.84,0,0,0,.3,1.31c.09.35.19.71.29,1.08a6.75,6.75,0,0,0-1.47.83C62,116,61.73,116.19,61.48,116.31Z"/><path class="cls-33" d="M55,135.82c-.1.24.05.43.15.63.2.39.41.77.62,1.16s.46.76.17,1.24a.53.53,0,0,0,.08.52,6.55,6.55,0,0,1,.61,2.92c.13,1.44.21,2.88.22,4.33,0,1.75.52,3.42.66,5.15.09,1.07.3,2.12.38,3.19a20.42,20.42,0,0,0,.39,2.07,4.19,4.19,0,0,0,1.24,2.2,23.79,23.79,0,0,0,4.19,3.3,6.12,6.12,0,0,0,1.82.83,4.35,4.35,0,0,0,1.43.14,11.68,11.68,0,0,0,4.88-1.4,45.86,45.86,0,0,0,3.85-2.63,3.21,3.21,0,0,0,.84-1,7.14,7.14,0,0,0,.68-1.52,14.43,14.43,0,0,0,.67-5.27c-.07-.93,0-1.86,0-2.79,0-2.78,0-5.57-.08-8.35,0-1.11-.2-2.22-.29-3.33a5.19,5.19,0,0,1,0-1.11,18.57,18.57,0,0,0-.09-3.65c.09-.09.16-.08.24,0,1.92,2.31,3.8,4.66,5.56,7.1a37.15,37.15,0,0,1,3.35,5.63c.45.94.86,1.89,1.29,2.84s1,2.12,1.57,3.18c.63,1.25,1.24,2.52,1.9,3.76s1.16,2.31,1.69,3.49a20.64,20.64,0,0,1,1.2,3.82c.45,2,.88,3.91,1.32,5.86.32,1.41.59,2.84,1,4.23.32,1.11.55,2.24.82,3.35.32,1.3.53,2.61.85,3.89s.61,2.67.95,4a3.24,3.24,0,0,1,.11.76c0,1.38.08,2.75.11,4.13a9.61,9.61,0,0,0,.26,2,47.54,47.54,0,0,1,1.3,7c.07,1.17.16,2.35.12,3.53,0,1.33,0,2.67.06,4a16.29,16.29,0,0,1-1.19,6.73,6.74,6.74,0,0,1-2.49,3.3c-.58.4-1.1.88-1.64,1.33a10.8,10.8,0,0,1-5.87,2.27,27.71,27.71,0,0,1-2.86.29c-1,0-2.06.08-3.08,0-2.73-.12-5.45.09-8.18,0a25.84,25.84,0,0,1-4.22-.21c-1-.18-2-.4-3-.63-1.48-.34-3-.66-4.42-1.14s-2.53-1.05-3.8-1.57c-2.14-.88-4.31-1.65-6.48-2.43a19.72,19.72,0,0,1-3.11-1.23c-.56-.31-1-.73-1.56-1.06-.27-.25-.65-.38-.85-.71h0a3.82,3.82,0,0,1-.94-.85,1.75,1.75,0,0,0-.69-.66,5.34,5.34,0,0,1-1.54-2c-1.14-2.07-2-4.27-3-6.39a18.1,18.1,0,0,1-.83-2.77c-.31-.25-.06-.63-.2-.92-.06-.7-.15-1.4-.18-2.1,0-1.08-.05-2.16-.07-3.24,0-.56,0-1.12,0-1.67a57.76,57.76,0,0,1,0-6c.05-1,.23-2.07.36-3.11a.89.89,0,0,1,.08-.32,5.51,5.51,0,0,0,.46-2.16c.17-1.51.34-3,.52-4.54a1,1,0,0,1,.16-.53,2.1,2.1,0,0,0,.4-1.47,1.45,1.45,0,0,1,.8-1.47c.31-.15.31-.48.37-.77.23-1.13.46-2.26.73-3.39A6.29,6.29,0,0,1,46,162.88a2.7,2.7,0,0,0,.47-1c.48-1.52,1-3,1.43-4.58a2.18,2.18,0,0,1,.59-1.18c.22-.18.2-.47.31-.7a2,2,0,0,1,.74-1.08.64.64,0,0,0,.29-.46c.35-1.75,1-3.41,1.45-5.14.58-2.46,1.24-4.9,1.74-7.37a38.53,38.53,0,0,0,.42-5.77c.2-.35,0-.74.12-1.1s.38-.09.55.05A3.53,3.53,0,0,1,55,135.82Z"/><path class="cls-33" d="M189.26,121.24a8.15,8.15,0,0,1,2.87,2.31c.34.35.65.71,1,1.07a11.22,11.22,0,0,1,1.42,2.1c.55,1.08,1.27,2.07,1.93,3.1.27.43.56.85.84,1.28.19.09.12.31.22.45h0a.56.56,0,0,1,.22.26l1.3,2.68a25.67,25.67,0,0,1,1,2.57,68.41,68.41,0,0,0,3.14,7,19.24,19.24,0,0,1,1,3.12,24,24,0,0,0,.84,2.52c.42.28,0,.77.29,1.09h0c.42.8.72,1.65,1.11,2.47a7.1,7.1,0,0,0,.67,1.52,31.64,31.64,0,0,1,1.37,3.86c.7,2.25,1.43,4.5,2.17,6.73a10.62,10.62,0,0,0,.77,1.72,21.87,21.87,0,0,1,1.73,4.33,24,24,0,0,0,1.54,3.92,9.59,9.59,0,0,1,.86,3,18,18,0,0,1,.29,2.83,8.1,8.1,0,0,0,.37,1.73c.39,1.65.81,3.3,1.2,5a10.53,10.53,0,0,1,.14,2.86,17.94,17.94,0,0,0,0,1.94,18,18,0,0,1,0,2.2,14.41,14.41,0,0,1-.77,3.44,8.2,8.2,0,0,1-.83,1.68c-.74,1.24-1.41,2.52-2.11,3.79a4.27,4.27,0,0,1-1.1,1.39,18.73,18.73,0,0,1-4.86,3c-.62.24-1.18.61-1.78.89a22.25,22.25,0,0,1-4.51,1.55c-1.11.25-2.19.64-3.29,1a26.92,26.92,0,0,1-4.86,1.18c-1.67.18-3.31.48-4.95.78a53.22,53.22,0,0,1-5.5.82,43.26,43.26,0,0,1-5.34.07,12.64,12.64,0,0,1-3.67-.85c-.91-.34-1.71-.87-2.57-1.28a.42.42,0,0,1-.27-.22h0a3.2,3.2,0,0,1-.92-.63c-.78-.51-1.61-.92-2.35-1.49-1.25-1-2.27-2.13-3.44-3.17s-1.82-2.33-2.82-3.42c-.71-.75-1.35-1.57-2-2.35a15,15,0,0,1-3-4.78,9.88,9.88,0,0,1-.57-3.28c0-1.63,0-3.27,0-4.9a21,21,0,0,1,.31-4.33,13.15,13.15,0,0,0,.31-2.66,39.77,39.77,0,0,1,.58-5c.33-2.21.61-4.43.9-6.64a42.5,42.5,0,0,1,1.21-6c.41-1.47.73-3,1-4.46.17-.95.41-1.89.61-2.84a.87.87,0,0,1,0-.22c.85-1.76.92-3.71,1.32-5.58.48-2.32.94-4.64,1.47-7,.39-1.66.9-3.29,1.31-4.95a33,33,0,0,0,.83-3.7,13.81,13.81,0,0,1,1.15-4,3.22,3.22,0,0,1,.29-.41,7.06,7.06,0,0,1,.68,1.42c.48,1.17.95,2.35,1.52,3.47a5.47,5.47,0,0,1,.59,2.11c.09,1.15.11,2.3.26,3.44.29,2.13.64,4.25,1,6.37.13.87.3,1.75.44,2.62a20.9,20.9,0,0,0,1,4c.37,1.05.77,2.09,1.18,3.12a6.11,6.11,0,0,0,1.86,2.47,36.48,36.48,0,0,0,3.41,2.51,7.77,7.77,0,0,0,5,1.29c.54-.05,1.1,0,1.65,0a11,11,0,0,0,2.69-.64,15.54,15.54,0,0,1,2.11-.64,3.48,3.48,0,0,0,2.61-2.06,18,18,0,0,0,1.28-3.31,19.48,19.48,0,0,0,.65-4.5c0-1,.07-2.07.08-3.11,0-.62,0-1.24,0-1.86s-.08-1.48,0-2.2a6.89,6.89,0,0,0-.13-2c-.25-1.2-.52-2.39-.74-3.59a6.41,6.41,0,0,0-.21-.75,11.12,11.12,0,0,1-.49-2,10.76,10.76,0,0,0-.47-1.94,20.7,20.7,0,0,0-.92-2.86,4.13,4.13,0,0,0-1.26-1.79,1,1,0,0,1-.51-.81,20.93,20.93,0,0,0-.69-3.14c-.27-1.3-.61-2.59-.92-3.88C189,121.65,188.69,121.29,189.26,121.24Z"/><path class="cls-33" d="M166,222.17c.16.81.1,1.66.25,2.47a34.54,34.54,0,0,0,.65,3.77c.7,2.48.65,5.06.89,7.6.15,1.2.38,2.4.41,3.6,0,.93.23,1.81.33,2.71a1.7,1.7,0,0,0,.15.41c.21,1.2.47,2.39.68,3.59-.15.44.15.77.29,1.14s.23.65-.33.66a16.64,16.64,0,0,0-4,.94,3.78,3.78,0,0,1-2.77-.23c-.2-.1-.41-.19-.61-.27a.52.52,0,0,0-.69.18,2.92,2.92,0,0,1-.37.41,1.12,1.12,0,0,1-1.07.12c-.27-.09-.22-.45-.22-.7,0-1.88-.2-3.74-.28-5.61,0-.53-.33-1-.3-1.51a5,5,0,0,0-.23-1.41,4.5,4.5,0,0,1-.14-1.21,2.54,2.54,0,0,0,0-.55,38.17,38.17,0,0,1-.46-4.27,18.39,18.39,0,0,0-.34-2.08,23.52,23.52,0,0,1-.29-2.51c-.21-2-.23-4-.59-5.95-.17-.94-.4-1.88-.48-2.83-.06-.78-.16-1.55-.24-2.32-.14-1.37-.25-2.74-.4-4.1a24.13,24.13,0,0,0-.7-4.71c-.09-2-1-3.89-1.22-5.88a8.46,8.46,0,0,1-.53-2.48c-.18-.84-.39-1.66-.59-2.49-.28-1.15-.54-2.31-.93-3.43s-.57-2.3-.9-3.44c-.71-2.42-1.34-4.86-2-7.3-.62-2.25-1.34-4.47-2-6.7a19.52,19.52,0,0,1-.93-5.78,9,9,0,0,0-.44-3c-.31-.91-.53-1.85-.76-2.78s-.39-1.88-.61-2.82a28.94,28.94,0,0,0-1.1-3.73,18.68,18.68,0,0,1-.57-2.26c-.41-1.58-.79-3.16-1.33-4.7s-1-3.26-1.46-4.9a27.79,27.79,0,0,1-.72-5.06,52.16,52.16,0,0,0-.92-7c-.46-2-.94-4-1.32-6.07-.32-1.71-.74-3.39-.92-5.12a3.5,3.5,0,0,0-.1-.66,13.76,13.76,0,0,1-.41-4.19c0-1,0-1.92,0-2.88,0-.12,0-.23,0-.34s-.25-.41-.13-.63.45-.17.7-.22a42.46,42.46,0,0,1,4.51-.42c.29,0,.59,0,.94,0a15.48,15.48,0,0,1,.65,2.77c.39,2.1.68,4.22,1,6.34.14.86.22,1.74.43,2.6.29,1.18.48,2.39.73,3.58.17.78.43,1.55.56,2.34s.43,1.7.56,2.57c.16,1,.44,2.07.64,3.1.11.58.19,1.16.27,1.74a2.08,2.08,0,0,0,.2.95.55.55,0,0,1,.12.31c-.18,1.58.44,3.05.66,4.57a1.72,1.72,0,0,0,.07.21,15.13,15.13,0,0,1,.7,2c.84,2.45,1.34,5,2.1,7.48a22.75,22.75,0,0,0,.54,3.58,24.47,24.47,0,0,0,.53,3.06,1.08,1.08,0,0,1,.07.54,7.67,7.67,0,0,0,.23,2.61,45.11,45.11,0,0,0,1.21,4.67.46.46,0,0,0,.05.21c.74.94.74,2.13,1.06,3.2s.5,2.21.9,3.27c.2.5.35,1,.53,1.52a2.07,2.07,0,0,1,.1,1c-.12.81-.23,1.62-.39,2.42a22.88,22.88,0,0,0-.52,4.89c0,1.27-.06,2.56,0,3.85a7.91,7.91,0,0,0,.07,1.82,16.47,16.47,0,0,0,1.37,6h0c.14.12.09.33.23.44a5.24,5.24,0,0,0,.82,1.31c.83,1,1.59,2,2.49,3a31.31,31.31,0,0,1,2.08,2.61,12.86,12.86,0,0,0,1.77,2,3.32,3.32,0,0,1,1,2.61,16.56,16.56,0,0,0,.75,5.13,17.91,17.91,0,0,1,.71,3.48C166.06,220,165.75,221.12,166,222.17Z"/><path class="cls-33" d="M146.7,183.26a7.92,7.92,0,0,0,.49,2.47c.33,1.09.58,2.2.89,3.3s.66,2.26,1,3.4c.21.78.37,1.57.54,2.36s.37,1.4.6,2.1.36,1.66.58,2.47c.5,1.82.76,3.68,1.14,5.51.1.5.29,1,.36,1.51a.42.42,0,0,0,.23.35c.34.39,0,.92.29,1.32h0a12.33,12.33,0,0,1,.41,2.49h0a15.14,15.14,0,0,1,.49,4.69,5.07,5.07,0,0,0,.14,2.05,3.87,3.87,0,0,1,.1,1,.69.69,0,0,0,0,.32,15.53,15.53,0,0,1,.27,2.54c0,.06.08.11.13.17.18.66,0,1.35.24,2h0c.61,1.68.42,3.45.63,5.18h0c0,1.17.25,2.31.37,3.47a4.09,4.09,0,0,1,.07,1.21l.06.88c.24,1.18.24,2.4.43,3.59a18.58,18.58,0,0,0,.41,3.49c.3,1.1.3,2.25.56,3.35,0,0,0,.07,0,.11a6.52,6.52,0,0,0,.19,2.15c.1.7,0,1.45.08,2.17,0,.27-.1.41-.38.42a22,22,0,0,1-3.45-.14c-.85-.1-1.68-.34-2.53-.45a.93.93,0,0,1-.85-.87,2,2,0,0,1,0-.34l-.27-4c0-.37,0-.75-.06-1.11-.26-2.07-.23-4.17-.64-6.22-.63-3.21-1.1-6.44-1.57-9.67-.38-2.65-.91-5.28-1.42-7.9-.41-2.16-.8-4.32-1.21-6.47-.26-1.31-.56-2.61-.81-3.92-.19-1-.34-2-.52-3-.45-2.45-.87-4.9-1.37-7.33s-1.07-4.72-1.59-7.08c-.62-2.86-1.21-5.74-1.83-8.61-.26-1.2-.56-2.38-.83-3.58-.17-.76-.31-1.53-.47-2.29-.53-2.58-1-5.17-1.73-7.71s-1.41-5.38-2.14-8.06-1.58-5.58-2.4-8.36a16.59,16.59,0,0,0-.73-1.75,3.16,3.16,0,0,1-.17-.52c0-.1,0-.23.16-.23s.33.06.4,0,0-.32,0-.5a5.86,5.86,0,0,0-1-1.61,9.71,9.71,0,0,1-.77-1.08,2.17,2.17,0,0,1-.39-1.77,7.27,7.27,0,0,1-.07-2.28c-.09-1.25,0-2.51-.14-3.76a1.4,1.4,0,0,1,.08-1.13l-.06-.21a5.45,5.45,0,0,1,0-2.24c0-1.57,0-3.14,0-4.71,0-2.44,0-4.88-.06-7.32,0-.09-.09-.19-.14-.28s-.07-.1,0-.14,0-.07,0-.07h0a6.78,6.78,0,0,0,0-2.06,22.93,22.93,0,0,0-.08-2.87c-.06-.36.1-.54.46-.6a12,12,0,0,0,2-.55,11.94,11.94,0,0,1,3.14-.65c.24-.11.26,0,.23.22a1.67,1.67,0,0,0-.72,1.3c0,.44-.11.88-.15,1.32s.1.84.09,1.28a15.85,15.85,0,0,0,.54,5.17c.14.41.05.89.17,1.31.35,1.24.42,2.54.82,3.78.21.68.32,1.42.49,2.13s.17,1.46.41,2.15c.33.95.32,1.95.61,2.91.22.74.17,1.54.43,2.28-.2.41,0,.78.1,1.17s0,.72,0,1.09a14.27,14.27,0,0,0,.3,2.84,9.13,9.13,0,0,0,.33,2.7A7.31,7.31,0,0,0,138,149c.45,1.36.8,2.75,1.26,4.11.28.8.52,1.62.72,2.44.34,1.32.69,2.63,1.06,3.94.43,1.51,1,3,1.32,4.53.26,1.15.51,2.31.75,3.46.09.41.27.77.36,1.16a18.69,18.69,0,0,1,.61,3.81,14.57,14.57,0,0,0,.55,4.24c.15.47.22,1,.34,1.48a3,3,0,0,0,.38.78c.37.7.3,1.55.75,2.22.14.37-.07.78.15,1.14h0C146.44,182.63,146.54,183,146.7,183.26Z"/><path class="cls-33" d="M28.11,147.82a12.63,12.63,0,0,1,1.37.7,4.9,4.9,0,0,0,1,.54,23.29,23.29,0,0,1,3.16,1.85,31.77,31.77,0,0,0,3,1.48c.73.35,1.5.64,2.25,1a.35.35,0,0,1,.22.53l-2.1,5a15.1,15.1,0,0,0-.65,1.64c-.42,1.58-1.18,3-1.7,4.55a46.46,46.46,0,0,1-2,4.69,19.75,19.75,0,0,0-1.77,6.63,28.15,28.15,0,0,1-.35,3.41,2.52,2.52,0,0,0,0,.55q0,4.57,0,9.14a15.33,15.33,0,0,0,.85,5.58c.1.28,0,.43-.32.37-1.64-.32-3.28-.65-4.9-1.06s-3.25-.74-4.89-1.09c-2.68-.59-5.36-1.14-8-2-1.8-.57-3.64-1-5.45-1.56-1.31-.39-2.64-.76-3.92-1.24-1.08-.4-1.19-.46-.54-1.49a56.14,56.14,0,0,0,4.08-8.22c1.1-2.58,2.1-5.2,3.18-7.8.66-1.6,1.3-3.23,2.08-4.78s1.3-3.06,2.13-4.52,1.42-3,2.16-4.51,1.53-3,2.3-4.56c.24-.49.47-1,.68-1.51.57-1.33,1.18-2.65,1.63-4,.22-.67.4-1.35.59-2a.3.3,0,0,1,.43-.21,18.29,18.29,0,0,1,3.5,1.71.3.3,0,0,1,.12.39,4.19,4.19,0,0,1-.32.59,9.52,9.52,0,0,0-.83,1.58,10,10,0,0,0-.84,4.76c0,.23,0,.53.2.6a3.51,3.51,0,0,0,.93.08s.05-.05.07-.08c.21-.28.67,0,.85-.43s0-.58.08-.87c.16-.88.25-1.77.4-2.64a3.22,3.22,0,0,1,.34-.91C27.37,149,27.73,148.46,28.11,147.82Z"/><path class="cls-33" d="M107.82,199.77l-.27,5a2,2,0,0,0,0,.34c.11,1.18,0,2.35,0,3.53,0,1,.1,1.94,0,2.91a1.17,1.17,0,0,0,0,.32,3.22,3.22,0,0,1,0,1.82c.06,1.11.11,2.21.19,3.32.06.76.13,1.53.24,2.29.25,1.82.55,3.64.78,5.46a40.93,40.93,0,0,1,.46,6.82c.25,1.58,0,3.16.06,4.75.17,2.27.14,4.55.14,6.83a6.9,6.9,0,0,0,0,1.2,5.74,5.74,0,0,1,0,1.1,3.46,3.46,0,0,0,.06,1.11,1.29,1.29,0,0,1,0,.55c0,.16-.1.29-.28.27-1.62-.16-3.25,0-4.87-.11a43.51,43.51,0,0,1-4.41-.54.8.8,0,0,1-.69-.77c-.23-1.46-.42-2.93-.7-4.38-.16-.84-.2-1.68-.32-2.53a8.2,8.2,0,0,1,0-1.72,6.4,6.4,0,0,1,.12-1.63,1.29,1.29,0,0,0,0-.55c-.09-.92-.14-1.84-.28-2.75a8.51,8.51,0,0,1,.19-3.18,6,6,0,0,0,.24-1.74,1.44,1.44,0,0,1,.06-.55,9.21,9.21,0,0,0,.27-3.38,29.63,29.63,0,0,1,.29-5.07c.1-.62.3-1.22.4-1.84a2.72,2.72,0,0,1,1.06-1.52,7.84,7.84,0,0,0,1.59-2.61,10.77,10.77,0,0,0,.55-1.69,9.7,9.7,0,0,0,.4-3.08c-.06-3.34-.1-6.68-.15-10a8.31,8.31,0,0,0-.26-1.3c-.3-1.91-.87-3.76-1.21-5.67a8.18,8.18,0,0,1-.15-2.21c.09-.85-.08-1.71,0-2.57.08-.47.09-1,.17-1.44a17.07,17.07,0,0,0,.1-2.77c0-2.05.14-4.1,0-6.15-.11-2.39,0-4.78-.17-7.17,0-.56,0-1.12,0-1.68a5.57,5.57,0,0,1,0-1.63.4.4,0,0,0,0-.11c-.21-1.87.09-3.74,0-5.61a35.89,35.89,0,0,0-.13-4.75,1.7,1.7,0,0,1,0-.55,32.94,32.94,0,0,0,.1-3.44,1.2,1.2,0,0,0-.19-.95,37.75,37.75,0,0,0,0-5.21,21.29,21.29,0,0,0,0-2.88.91.91,0,0,1,.37-.88,1.35,1.35,0,0,0,.24-1.06,24,24,0,0,0-.36-4.78,5.06,5.06,0,0,1-.06-1.23,24.92,24.92,0,0,0-.28-4.23,47.42,47.42,0,0,1-.24-9.15,1.13,1.13,0,0,1,.88-1.13,1.81,1.81,0,0,1,.76-.09,13.65,13.65,0,0,0,2.55.15.37.37,0,0,1,.44.38,10,10,0,0,1,.08,1.1,46.35,46.35,0,0,0,.11,5.4c.08,1.09.16,2.18.3,3.28.23,1.78.28,3.58.4,5.38a1.63,1.63,0,0,0,0,.44,12.66,12.66,0,0,1,.26,2.38c.1.79.13,1.59.2,2.38a15.83,15.83,0,0,0,.28,3.08,6.59,6.59,0,0,1,0,1.33c.12,1.61.19,3.23.33,4.83s.16,3.21.29,4.81c0,.61.09,1.24.1,1.85s.12,1.26.09,1.87c0,.92.17,1.81.07,2.73,0,.27.16.57.12.84-.07.47.08.92,0,1.4a6.88,6.88,0,0,0,0,1.63c.08,1.92.14,3.83.22,5.75a4.84,4.84,0,0,1-.06,1.52,1,1,0,0,0-.06.44,24.86,24.86,0,0,1,.06,3.86c0,.76.06,1.54,0,2.31s.13,1.76.06,2.63a9.65,9.65,0,0,0,0,2.08,16,16,0,0,1,0,2,7.27,7.27,0,0,0,0,1.32c.08.43-.15.84,0,1.28a2,2,0,0,1,0,.88,17.92,17.92,0,0,0-.09,2.07c0,.69-.13,1.37-.12,2.08,0,1.46-.11,2.92-.17,4.39C107.89,197.83,108,198.81,107.82,199.77Z"/><path class="cls-33" d="M114.38,119.07a51.51,51.51,0,0,0,5.62-.5l.33,0c.44,0,.55.09.52.5s-.07.67-.07,1c0,1.33,0,2.67,0,4,0,2.69-.1,5.39-.08,8.08,0,2.41-.1,4.81-.12,7.21,0,2-.06,4-.08,6,0,3.4-.09,6.79-.15,10.18,0,3.06-.17,6.12-.19,9.19,0,2-.06,3.93.1,5.9a25.07,25.07,0,0,0,.74,4c.66,2.66,1.37,5.31,2,8a32.23,32.23,0,0,1,.77,4.6c.06.78.25,1.54.34,2.31.25,2.13.47,4.27.53,6.42,0,.63.11,1.26.17,1.89.08.9.08,1.82.16,2.72a64.46,64.46,0,0,0,.89,6.49,27.09,27.09,0,0,1,.3,5.09c0,2.52-.08,5,0,7.56,0,.48.08,1,.14,1.43a37.14,37.14,0,0,1,0,4.22c0,1.92.17,3.84.21,5.75s0,3.56,0,5.34a44.69,44.69,0,0,0,0,4.63c.13,1.21.28,2.42.37,3.64.07.83,0,1.68.09,2.52,0,.28-.12.39-.37.45a7.76,7.76,0,0,1-2.2.1c-1-.06-1.92,0-2.88,0l-.77,0c-.55,0-.57-.16-.68-.67a23.88,23.88,0,0,1-.26-4c0-.43-.3-.82-.06-1.3.15-.32-.16-.74-.06-1.17a3.92,3.92,0,0,0,0-1.28c0-.7-.08-1.4-.17-2.1a10.23,10.23,0,0,1-.11-2.07c0-.46,0-.91,0-1.37s-.07-.88-.1-1.33,0-.94-.09-1.4a3.08,3.08,0,0,1-.08-.53,48.56,48.56,0,0,0-.3-5c0-.25.1-.49.1-.75a19.31,19.31,0,0,0-.24-3.32c-.1-.59,0-1.17-.08-1.76a3,3,0,0,1-.05-1.75c-.14-1.92-.08-3.85-.38-5.75,0-.3,0-.58,0-.86-.27-2.5-.61-5-.94-7.47-.06-.44,0-.89,0-1.34-.1-1.63-.19-3.25-.35-4.88-.14-1.47-.12-3-.22-4.44a9.46,9.46,0,0,0-.27-2.42.85.85,0,0,1,0-.32,17.61,17.61,0,0,0-.35-3.08c-.22-1.8-.48-3.6-.72-5.39,0-.26-.1-.51-.15-.76s-.12-.21-.11-.31c.16-2.06-.19-4.13,0-6.19a23.06,23.06,0,0,1,0-3.22c0-1.29.12-2.58.2-3.87,0-.74.12-1.48.17-2.22.22-3,.25-6.08.22-9.12,0-1.48.12-3,.11-4.43,0-1.84.13-3.68.1-5.52s0-3.63-.11-5.44c-.06-1.24-.3-2.48-.34-3.72,0-1-.17-2-.23-3-.12-1.72-.36-3.44-.4-5.17,0-1.07-.06-2.13,0-3.2,0-1.48-.07-2.95-.14-4.43a4.75,4.75,0,0,1,0-.54A2.62,2.62,0,0,0,114.38,119.07Z"/><path class="cls-33" d="M111,236.91v-5c0-1.19-.14-2.37-.06-3.56a7.1,7.1,0,0,0-.12-1.22c-.19-1.62-.36-3.24-.57-4.85s-.48-3.23-.67-4.85c-.1-.84-.14-1.69-.16-2.54,0-2.22-.09-4.45-.07-6.67,0-2,.16-3.92.19-5.88,0-1.6.28-3.18.24-4.78,0-.7.12-1.4.16-2.09.07-1,.07-1.93.14-2.9,0-.55.12-1.11.12-1.66,0-2.15.13-4.3.1-6.45,0-1,0-2.07,0-3.11s0-2.37,0-3.55c0-3.11.06-6.22-.07-9.33,0-.81,0-1.63,0-2.45q-.09-2.94-.21-5.88c-.07-2.07-.12-4.15-.23-6.23s-.27-4.15-.4-6.23c-.1-1.59-.19-3.19-.3-4.78-.13-1.76-.27-3.53-.41-5.29-.13-1.51-.26-3-.4-4.54-.22-2.21-.46-4.42-.66-6.63s-.31-4.43-.33-6.65c0-.44.07-.53.48-.57a3.8,3.8,0,0,1,.67,0c1.3,0,2.6,0,3.9,0,.42,0,.44.06.44.53,0,2,0,4,0,6,0,2.83.23,5.65.46,8.46.17,2.18.43,4.36.6,6.54.14,1.74.21,3.48.3,5.22.12,2.61.26,5.21.34,7.81,0,1.67,0,3.35,0,5a73.74,73.74,0,0,1-.6,8.12,85.85,85.85,0,0,0-.49,10.14,40.07,40.07,0,0,0,.22,5c.11.81.24,1.61.36,2.42.19,1.29.39,2.57.57,3.86.24,1.62.4,3.25.52,4.88,0,.56.09,1.11.13,1.67.16,3,.3,5.94.5,8.91.11,1.52.3,3,.51,4.55a46.34,46.34,0,0,1,.41,6.23c0,2.85,0,5.71.2,8.57.16,2.26.13,4.53.22,6.8.07,2.07.1,4.15.23,6.22.07,1.19.25,2.37.25,3.56,0,.62,0,1.24,0,1.86a8.7,8.7,0,0,0,.08,1.45,10.07,10.07,0,0,1,.08,1.45,9.08,9.08,0,0,0,.19,2.44,2.55,2.55,0,0,1,0,.55c0,.15,0,.3-.25.3l-4.77.05a3.42,3.42,0,0,1-.44,0c-1.12-.15-1.17-.2-1.37-1.32a2.53,2.53,0,0,1,0-.55c0-1.48-.06-3,0-4.44,0-.92,0-1.85,0-2.77A10.4,10.4,0,0,1,111,236.91Z"/><path class="cls-33" d="M191.92,119.46a3.33,3.33,0,0,0,1.1.91,2.39,2.39,0,0,1,.67.47c1.22,1,2.43,2,3.65,3a4.86,4.86,0,0,1,.65.72c.81.91,1.46,2,2.21,2.9.21.31.48.57.68.89.08.12.13.28.24.36a10.52,10.52,0,0,1,1.3,1.45c.15.1.1.32.26.42h0a1.15,1.15,0,0,0,.21.23,14.06,14.06,0,0,0,1.71,2.06c1.08,1.39,2.44,2.55,3.4,4a26.47,26.47,0,0,1,2.68,3.3,2.48,2.48,0,0,0,.67.7c.22.16.29.45.49.64h0l.21.25c.34.44.69.87,1,1.31a27.12,27.12,0,0,1,1.94,2.7,40.93,40.93,0,0,0,2.42,3.44,28.51,28.51,0,0,0,1.61,2.39c.4.45.62,1,1,1.42a9.47,9.47,0,0,1,1,1.43c.7,1.17,1.36,2.35,1.95,3.58s1.18,2.4,1.8,3.58c.72,1.37,1.63,2.63,2.28,4s1.45,2.9,2,4.44c.28.83.57,1.67.89,2.49a2.32,2.32,0,0,1,.13,1.29,8.53,8.53,0,0,0,0,2.2c.09,1.29,0,2.57,0,3.85a10.19,10.19,0,0,1-.42,1.94,11.72,11.72,0,0,1-1.59,3.42,38.64,38.64,0,0,1-2.23,3.33,1.75,1.75,0,0,1-.47.47c-.65.41-1.31.82-2,1.18s-1.36.6-2,1a1.44,1.44,0,0,1-1.59,0,.52.52,0,0,1-.27-.55,12.16,12.16,0,0,0-.42-4.41c-.42-1.76-.85-3.52-1.26-5.29a6.52,6.52,0,0,1-.11-1,6.37,6.37,0,0,0-.52-2.27c-1.58-3.54-2.69-7.26-4-10.91q-.76-2.15-1.47-4.32c-.66-2-1.33-4-1.92-6a14.82,14.82,0,0,0-1.06-2.56,74.62,74.62,0,0,1-3.71-9.2,10.75,10.75,0,0,1-.66-2c-.07-.16,0-.37-.2-.49h0c0-.26-.32-.59.21-.67l0,0a.48.48,0,0,1,.2.2l0,0c.15.08.1.31.27.39a56.2,56.2,0,0,1,4.82,7.74,38.13,38.13,0,0,0,3.45,5.05s.1.06.16.08c.1-.24,0-.44-.12-.64-1.09-2.89-2.26-5.75-3.54-8.56a13.23,13.23,0,0,0-1.13-1.92c-1.13-1.71-2.44-3.29-3.71-4.89-.88-1.1-1.79-2.18-2.71-3.26a11.37,11.37,0,0,1-1.72-2.72,38.11,38.11,0,0,0-2.86-5c-.69-1.06-1.32-2.15-1.95-3.24a2.85,2.85,0,0,0-.35-.55,40.24,40.24,0,0,0-3.8-4,9.36,9.36,0,0,0-1.39-.93,2.09,2.09,0,0,0-1.31-.1.39.39,0,0,1-.47-.36c0-.19,0-.37-.06-.56-.19-1.08-.21-1.31-.06-1.34.52-.1.75.45,1.19.52a1.41,1.41,0,0,1,.31.14,3,3,0,0,1,.65.47h0A6.7,6.7,0,0,1,191.92,119.46Z"/><path class="cls-33" d="M122.6,118.39l2.31-.31.66-.08c.24,0,.48-.34.72-.1s.08.5.08.76c0,1.63-.07,3.27-.1,4.9,0,.63,0,1.26,0,1.89q.06,2.16,0,4.32c0,1.33.1,2.66,0,4-.14,2.92.2,5.85,0,8.77,0,.82,0,1.64,0,2.46a2.39,2.39,0,0,0,.49,1.55,3.92,3.92,0,0,1,.68,1.39,4.79,4.79,0,0,1,.12,1.42c0,1.1-.07,2.21-.09,3.31,0,.67,0,1.33,0,2,0,1.67,0,3.34,0,5,0,1.3.11,2.6.23,3.89.19,2.15.46,4.29.66,6.44q.34,3.7.62,7.43c.14,1.73.21,3.47.32,5.2s.24,3.56.39,5.33.36,3.4.51,5.1.22,3.62.43,5.41c.16,1.33.15,2.66.26,4,.2,2.3.26,4.6.3,6.9,0,2.47.21,4.94.44,7.41.11,1.11.09,2.22.14,3.33s.11,2.46.22,3.68a40,40,0,0,1,.16,4.1c0,1.15.07,2.28.13,3.42s.13,2.15.21,3.22c0,.48.11,1,.15,1.44a16.49,16.49,0,0,1,.1,2.44c-.07,1,.07,2,.1,3,0,1.29.21,2.57.17,3.87,0,.58.14,1.19-.33,1.68,0,0,0,.14,0,.21.06.28-.05.42-.34.42-.44,0-.89,0-1.34,0-2-.11-1.72,0-1.82-1.89-.06-1.23-.23-2.43-.36-3.64a6.9,6.9,0,0,1-.07-1.11,5,5,0,0,0,0-.67c-.1-.8-.07-1.6-.09-2.41-.05-1.94,0-3.89-.08-5.83a22.72,22.72,0,0,0-.23-4.2c-.08-.31.08-.65.07-1-.07-1.76-.1-3.52-.16-5.28a11.65,11.65,0,0,0-.12-1.44,20.32,20.32,0,0,1-.14-3.22c0-1.63,0-3.27,0-4.9a29.59,29.59,0,0,0-.25-4.31c-.15-.91-.25-1.81-.48-2.71a12.62,12.62,0,0,1-.31-1.84c-.16-1.51-.3-3-.43-4.54-.19-2.25-.34-4.5-.56-6.75-.17-1.8-.37-3.6-.65-5.38a55.08,55.08,0,0,0-1.45-6.84c-.37-1.25-.62-2.52-1-3.77s-.57-2.59-.89-3.88a11.54,11.54,0,0,1-.26-2.87c0-2.6,0-5.2,0-7.8,0-2,.08-4,.16-6s0-3.79.07-5.68c0-1.25,0-2.51.1-3.76,0-.45-.18-.89,0-1.33a34.92,34.92,0,0,1,.06-4.09c0-1.34.08-2.67.09-4,0-1.59,0-3.18,0-4.77,0-3,0-6.08.06-9.12,0-1.1,0-2.2,0-3.3A2.33,2.33,0,0,1,122.6,118.39Z"/><path class="cls-33" d="M159.08,155.89a9,9,0,0,1-.5,3.58,34.71,34.71,0,0,0-.92,5.47c-.06.51-.23,1-.32,1.51-.4,2.27-.78,4.54-1.17,6.8,0,.19,0,.37,0,.56s0,.33-.17.36-.22-.23-.26-.37c-.14-.45-.21-.93-.35-1.38-.45-1.46-.91-2.9-1.36-4.35a15.61,15.61,0,0,1-.83-3.9,37.52,37.52,0,0,0-.6-4.73c-.27-1.6-.54-3.2-.9-4.78s-.88-3.43-1.4-5.12a43.3,43.3,0,0,1-1.94-7.77c-.18-1.53-.58-3-.69-4.59a9.62,9.62,0,0,0-.4-1.73,20.24,20.24,0,0,0-.81-3.22,6.25,6.25,0,0,1-.2-1.08c-.25-1.12-.55-2.22-.78-3.35-.19-1-.35-2-.45-3a17.92,17.92,0,0,1-.36-1.94,16.71,16.71,0,0,0-.4-1.94c-.14-1.14-.51-2.24-.63-3.38a20.75,20.75,0,0,0-.49-2.18.43.43,0,0,1,.43-.51,31.62,31.62,0,0,0,5.05-.69,4.94,4.94,0,0,1,.65-.12c.11,0,.29,0,.31,0,.22.5.8.65,1,1.14a4,4,0,0,1,.45,1.48,32.56,32.56,0,0,0,1,5.26c.71,3.12,1.66,6.18,2.18,9.35.09.51.13,1,.22,1.54a21.28,21.28,0,0,0,.75,3c.46,1.45.8,2.93,1.25,4.39a25.65,25.65,0,0,1,1.1,5.43,25.09,25.09,0,0,0,1,5.69c.26.78.3,1.61.49,2.4A9.63,9.63,0,0,1,159.08,155.89Z"/><path class="cls-33" d="M39.15,199.76A10.5,10.5,0,0,1,35.6,198a3.7,3.7,0,0,0-.46-.31A3,3,0,0,1,33.56,196a17.67,17.67,0,0,1-1.05-3.51,14.73,14.73,0,0,1-.11-3c0-2.87,0-5.75,0-8.62a10.66,10.66,0,0,1,.15-2.1c.17-.86.14-1.75.26-2.63a13.93,13.93,0,0,1,1-4.27,21,21,0,0,1,1-2.1,44.07,44.07,0,0,0,2.06-4.92c.24-.58.45-1.17.67-1.76a2,2,0,0,0,.26-.84c.15-.31.14-.69.41-.94L40.81,155c.1-.24.15-.5.24-.75a19.57,19.57,0,0,1,1.82-3.91c1.41-2.26,2.79-4.54,4-6.91a52.43,52.43,0,0,0,3.1-6.88l1-3c.18-.21,0-.5.18-.72a.2.2,0,0,1,0-.18.18.18,0,0,1,.27,0,.77.77,0,0,1,.06.3,1.19,1.19,0,0,1-.09.62.21.21,0,0,1,0,.2c-.06.05-.08.09-.06.14s0,.08,0,.08c-.08,1.8-.28,3.59-.28,5.4a7.37,7.37,0,0,1-.3,1.85c-.47,2-1,4-1.44,6.05a32.29,32.29,0,0,1-1.13,3.83,20.47,20.47,0,0,0-.63,2.45,14.69,14.69,0,0,1-1.08,3c-.49,1.07-.95,2.16-1.44,3.23s-.73,2-1.08,3a15.52,15.52,0,0,1-.66,2h0a10.93,10.93,0,0,1-.69,1.78h0a2.57,2.57,0,0,1-.43,1.35.57.57,0,0,0-.22.37,46.62,46.62,0,0,0-1.4,5.71,6,6,0,0,0-.16,1.53,2.88,2.88,0,0,1-.15,1.09,12.38,12.38,0,0,0-.4,2.41c-.06.55-.27,1.09-.32,1.62-.08.93-.31,1.82-.45,2.73a39.3,39.3,0,0,0-.41,7.51c0,.89-.05,1.79,0,2.67a32.43,32.43,0,0,0,.45,3.39c.16.84.46,1.64.59,2.49C39.78,200.06,39.4,199.72,39.15,199.76Z"/><path class="cls-33" d="M171.61,120.82a6.3,6.3,0,0,0,1.29-2.48,2,2,0,0,0,0-.55,4.94,4.94,0,0,1,0-1.33c0-.39-.24-.78-.07-1.18.07-.16-.05-.27-.1-.41-.17-.37-.32-.74-.47-1.1.21-.27.49-.2.73-.22.41,0,.82-.06,1.22-.11.22,0,.51,0,.63-.17.52-.57,1.23-.45,1.86-.6,1.16-.26,2.34-.41,3.5-.6a29.37,29.37,0,0,0,4.41-1.21.92.92,0,0,1,.55-.09,6.58,6.58,0,0,1,.27,2.5c0,.7,0,1.41,0,2.12a6.66,6.66,0,0,0,.35,2.07c.24.78.48,1.56.71,2.34a5,5,0,0,1,.27,1.08,39.14,39.14,0,0,0,1.06,5.45,10.45,10.45,0,0,1,.23,2.09c0,1,.07,2,.09,3a8.53,8.53,0,0,1,0,1,.78.78,0,0,1-.11.41c-.54.65-.95,1.44-1.79,1.78l-.82.36a1.47,1.47,0,0,1-1.75,0,2.42,2.42,0,0,0-.62-.24,1.36,1.36,0,0,0-1.54.26,5.26,5.26,0,0,1-3.07,1.11,1.82,1.82,0,0,1-1.07-.23,2.14,2.14,0,0,0-.93-.31.65.65,0,0,1-.64-.65c0-.91-.56-1.67-.65-2.56a1.84,1.84,0,0,0-.79-1.28l-.82-.6a2.48,2.48,0,0,0-.86.65,1.56,1.56,0,0,0-.42,1c0,.55,0,1.11-.08,1.67a.79.79,0,0,1-.11.29.26.26,0,0,1-.16.13.21.21,0,0,1-.19-.06,2,2,0,0,1-.32-.82c0-.22,0-.51-.18-.63-.62-.51-.63-1.31-1-1.94s-.64-1.25-.94-1.88a4.6,4.6,0,0,1-.3-3.14c.05-.22.1-.44.16-.65C170.25,123.84,170.62,122.15,171.61,120.82Z"/><path class="cls-33" d="M73.15,127.94a5.35,5.35,0,0,0,.75,1.1A6.84,6.84,0,0,1,75,131c.18.4.24.85.64,1.13a.58.58,0,0,1,.14.52,3.26,3.26,0,0,1-.32,1.6,2.88,2.88,0,0,0-.17.52c-.31.87-.48.92-1.24.43-.38-.25-.72-.51-.67-1a2.34,2.34,0,0,0-1.1-2.14c-.63-.5-.58-.52-1.32-.24a.5.5,0,0,0-.4.56c0,.45,0,.9,0,1.34a1,1,0,0,0,.48,1.11,1.17,1.17,0,0,1-.09,1.76,2.36,2.36,0,0,1-.78.42,3.1,3.1,0,0,0-.92.34.66.66,0,0,1-.53.07,1.6,1.6,0,0,0-1.38.17c-.46.25-.59.2-.93-.24a10.31,10.31,0,0,1-1.68-2.46c-.16-.42-.58-.42-.93-.48s-.5.29-.49.51a4.57,4.57,0,0,0,.57,2c.07.12.19.23.25.36.11.29.56.55.28.88s-.65.2-.94.12a3.75,3.75,0,0,1-2.2-1.17c-.35-.43-.76-.8-1.13-1.21s-.7-.06-1-.17-.35.21-.5.35.12.79-.5.7a19.06,19.06,0,0,0-1.76-3.15c-.2-.77-.84-1.29-1.15-2a7.65,7.65,0,0,0-.59-.93,38.42,38.42,0,0,1-2.09-3.9c-.21-.42-.26-.92-.45-1.35a23.25,23.25,0,0,0-.92-2.26,6.31,6.31,0,0,1-.42-1.38.29.29,0,0,1,.2-.36,20,20,0,0,1,4.64-1.15,14.32,14.32,0,0,0,5.81-1.75,14.58,14.58,0,0,0,2.16-1.56,1,1,0,0,1,.63-.31c.46,1.32.93,2.65,1.38,4,.24.75.46,1.5.68,2.25a.89.89,0,0,0,.63.7c.21.06.4.22.61.26a6.25,6.25,0,0,1,3.06,1.7,5.93,5.93,0,0,1,1.29,1.11h0a1.51,1.51,0,0,0,.21.23h0l.22.23h0a.6.6,0,0,1,.21.24h0l.25.18h0A5.77,5.77,0,0,1,73.15,127.94Z"/><path class="cls-33" d="M168.89,212.74c.64.43,1.28.87,1.94,1.29a10.9,10.9,0,0,0,1.06.58,2,2,0,0,1,1,1.11c.31.87.7,1.7,1,2.6.49,1.64.71,3.34,1.26,5,.25.74.46,1.49.68,2.24a9.84,9.84,0,0,1,.37,2.64,3.85,3.85,0,0,0,.55,2.56c.2.25.14.57.17.86.2,2.25.34,4.51.59,6.76.1.94-.11,1.86,0,2.78.07.44,0,.9.13,1.33.14.67,0,1.33.05,2,0,.35,0,.72,0,1.09a.74.74,0,0,1-.7,1c-1.54.23-3.06.61-4.57,1-.44.1-.5.05-.74-.29a6.51,6.51,0,0,1-.9-2.67c-.2-1.12-.4-2.25-.58-3.37-.07-.48-.13-1-.16-1.44a44.56,44.56,0,0,0-.63-4.74c-.17-.95-.18-1.92-.27-2.88-.1-1.22-.34-2.41-.54-3.61-.23-1.42-.51-2.84-.72-4.27-.31-2.16-.54-4.34-.9-6.5a22.28,22.28,0,0,0-.91-3.64,7.39,7.39,0,0,1-.33-3.29c.73.2,1.07.86,1.68,1.12S168.41,212.48,168.89,212.74Z"/><path class="cls-33" d="M6.49,191.49c.72,0,1.31.51,2,.51A24.6,24.6,0,0,0,12,193.08c1,.3,2,.64,3.07.86a25.09,25.09,0,0,0,4,.89,12.72,12.72,0,0,0,2.58.6c1.89.4,3.77.81,5.63,1.3,1.14.29,2.29.5,3.45.7.46.08.91.22,1.37.32a.77.77,0,0,1,.42.33,7.62,7.62,0,0,0,2.61,2,23.13,23.13,0,0,0,2.26,1.19,19.46,19.46,0,0,0,2.9.8,1.32,1.32,0,0,1,1.05.84c.6,1.39,1.27,2.75,1.91,4.13-.13.22-.3.1-.47.05l-.75-.21a11.65,11.65,0,0,1-1.78-.6c-1-.46-2.06-.84-3.11-1.2s-2.31-.77-3.48-1.1c-1.75-.5-3.51-.95-5.26-1.42L26.13,202a26.71,26.71,0,0,1-3.38-1.11c-2.21-.88-4.33-2-6.6-2.69a15,15,0,0,0-3.24-.76,14.89,14.89,0,0,1-2.07-.42,1.26,1.26,0,0,1-.84-.67,12.14,12.14,0,0,0-2.13-2.56c-.65-.66-1.24-1.38-1.87-2.07C6,191.34,6.21,191.34,6.49,191.49Z"/><path class="cls-33" d="M179,159a9.23,9.23,0,0,0-1.55-1.25,5,5,0,0,1-1.4-1.92c-.24-.58-.53-1.13-.77-1.72a6,6,0,0,1-.47-1.45,12.92,12.92,0,0,0-.56-1.44,30.64,30.64,0,0,1-.75-3.91c0-.25-.1-.5-.14-.75s0-.24.11-.28a.39.39,0,0,1,.3,0c.61.42,1.21.87,1.81,1.29a24.24,24.24,0,0,0,2.18,1.51c.86.5,1.69,1,2.52,1.6a10.09,10.09,0,0,0,2.43,1,31.54,31.54,0,0,0,4.15,1.16,8.33,8.33,0,0,0,1.21.15c.81.05,1.62,0,2.42.1a3.48,3.48,0,0,0,2.57-.76c.21-.16.41-.08.42.25a1.82,1.82,0,0,1,0,.33,8.36,8.36,0,0,1-.72,2.44c-.19.44-.41.87-.56,1.32a4.42,4.42,0,0,1-1.6,2.09A8.83,8.83,0,0,0,189,160.1a1.66,1.66,0,0,1-.76.44,8.82,8.82,0,0,1-3.38.54,4.08,4.08,0,0,0-.78,0,4.05,4.05,0,0,1-2.05-.4l-1.71-.76a.46.46,0,0,1-.26-.23h0C179.73,159.45,179.25,159.38,179,159Z"/><path class="cls-33" d="M173.77,249c.16,1.08.3,2.11.47,3.13.2,1.17.29,2.35.42,3.53a13.44,13.44,0,0,0,.5,2.51,15,15,0,0,1,.53,3.05c.08.94.08.94-.87,1-2.1.15-4.21.25-6.3.47a2.18,2.18,0,0,1-.44,0,29.17,29.17,0,0,0-4.18,0,1.81,1.81,0,0,1-.15-1c.05-.7-.06-1.4-.05-2.1a13,13,0,0,0-.19-1.53c-.06-1,.13-1.9.12-2.86,0-.23-.18-.52,0-.66s-.09-.57.08-.84,0-.49-.1-.74.09-.55.08-.86c0-1.06,0-1.06,1.08-1.22a6.8,6.8,0,0,0,1.19-.25,16.73,16.73,0,0,1,4.14-.84,8.88,8.88,0,0,0,2.37-.55A12.43,12.43,0,0,1,173.77,249Z"/><path class="cls-33" d="M112.71,249.86c-.15.07-.28.2-.2.34.52.94.37,2,.65,3a18.61,18.61,0,0,0,.59,4.26c.16,1.13.47,2.23.65,3.35a1.42,1.42,0,0,1,0,.22c0,1.25.36,1.22-1.07,1.2-1.22,0-2.44,0-3.66,0a4.14,4.14,0,0,1-1-.06,56.77,56.77,0,0,0-5.92-1s-.09-.1-.14-.15a.42.42,0,0,1,0-.49c0-.43,0-.86.07-1.28s.4-1.06,0-1.57c-.06-1.06-.18-2.12-.18-3.19A29.75,29.75,0,0,0,102,250c0-.22-.06-.44-.07-.66a.3.3,0,0,1,.32-.35,3.61,3.61,0,0,1,.66,0,21.27,21.27,0,0,0,3.19.06,16,16,0,0,1,3.52.21,6.14,6.14,0,0,0,1.76.15C111.8,249.68,112.43,249.21,112.71,249.86Z"/><path class="cls-33" d="M124.58,9.14A11.15,11.15,0,0,1,126,10.39a1.15,1.15,0,0,1,.17.39c0,.16-.09.41.17.45s.28-.07.42-.12a.25.25,0,0,1,.34.18,1.39,1.39,0,0,1,.14.42,21.58,21.58,0,0,0,.66,3.48,3.31,3.31,0,0,1,.1,1.09,11.34,11.34,0,0,0-2.47.94.36.36,0,0,1-.42,0,3.31,3.31,0,0,0-2-.34c-.81,0-1.63,0-2.44.1s-1.53.29-2.31.36a16.73,16.73,0,0,0-3,.36,15.12,15.12,0,0,0-1.51.37c-.66.24-1.42.05-2,.52a5.57,5.57,0,0,1-2.18-.38.24.24,0,0,1-.16-.25,13,13,0,0,1,.31-3.73,22.94,22.94,0,0,1,1.34-3.05c.1-.2.22-.39.33-.6a1.54,1.54,0,0,1,.43,0,12.34,12.34,0,0,0,3.21.15,4.37,4.37,0,0,0,3-1.08.48.48,0,0,1,.6-.09,7.65,7.65,0,0,0,3.92.65,5.15,5.15,0,0,0,.56,0A1.57,1.57,0,0,0,124.58,9.14Z"/><path class="cls-33" d="M118.65,26.18c-.92,0-1.85,0-2.78,0-.65,0-1.25-.21-1.88-.24a.33.33,0,0,1-.28-.31,6.48,6.48,0,0,1-.07-.77c0-.67,0-1.34,0-2a2.86,2.86,0,0,0-.46-2,.64.64,0,0,1-.14-.3c-.18-.69-.23-.92.59-1.09a27.3,27.3,0,0,1,5.17-.66,7,7,0,0,0,1.43-.16,15.46,15.46,0,0,1,3.33-.13c.59,0,.73.14.81.7a16.19,16.19,0,0,1,.17,2,4,4,0,0,0,.27,1.42,4.57,4.57,0,0,1,.28,2.07c-.06.66-.15.88-.79,1a16.53,16.53,0,0,1-3.64.49c-.67,0-1.34,0-2,0Z"/><path class="cls-34" d="M49.19,124.63a3.73,3.73,0,0,1,.41,1.26.59.59,0,0,1-.33.74c-.5.3-1,.64-1.51.94a17.75,17.75,0,0,0-2.25,1.8c-1,.85-2,1.79-2.92,2.74s-1.9,2.07-2.83,3.12a23.34,23.34,0,0,1-2.12,2.1c-.34.29-.59.67-.9,1a32.11,32.11,0,0,0-4.7,6.18c-.5.86-1,1.71-1.55,2.58a3.81,3.81,0,0,1-1.44-.87,1.26,1.26,0,0,1,.25-.73c1.19-2,2.2-4,3.47-5.95a5.08,5.08,0,0,1,.52-.7,11.29,11.29,0,0,0,.89-1.39,30.46,30.46,0,0,1,3.59-4.33,17.79,17.79,0,0,1,2-1.88c.72-.52,1.33-1.18,2-1.73,2-1.58,4-3.18,6.05-4.68.34-.26.61-.71,1.16-.45h0C49.06,124.46,49.14,124.54,49.19,124.63Z"/><path class="cls-34" d="M76.18,152.15c0,.08,0,.15,0,.22s0,.3,0,.45,0,.52,0,.77,0,.22,0,.33h0a2.72,2.72,0,0,0,.1-1.1Z"/><path class="cls-34" d="M162.86,128a14.28,14.28,0,0,0,1-1.84c.39-.74.76-1.49,1.18-2.2a10.64,10.64,0,0,1,2.06-2.33c.41-.37.85-.7,1.27-1a.4.4,0,0,0,.27-.2h0c.11-.09.15-.23.28-.3a.33.33,0,0,1,.25.1.21.21,0,0,1,0,.25,1.05,1.05,0,0,1,0,.19c-.12.12-.06.32-.2.43-.22.46-.45.92-.64,1.4a5.59,5.59,0,0,1-.75,1.35,4.79,4.79,0,0,0-1,3.65,1.62,1.62,0,0,1-.28,1.14,12.82,12.82,0,0,0-1.7,4c-.17.79-.39,1.57-.53,2.37a33,33,0,0,1-.84,3.43,6.71,6.71,0,0,0-.13.76c-.34.59-.43.33-.53-.13a22.14,22.14,0,0,1-.59-3.26c-.15-2.32-.44-4.69.69-6.89C162.75,128.53,162.65,128.2,162.86,128Z"/><path class="cls-35" d="M129.61,27.22c.08.3.17.58.23.87.09.49-.07.71-.57.73-.66,0-1.34.06-2,.05q-3.24,0-6.47.2c-2.15.17-4.31.21-6.46.3-1.38.06-2.75.11-4.13.15a5,5,0,0,1-.67,0,.4.4,0,0,1-.22-.62,1,1,0,0,1,.36-.24,28.17,28.17,0,0,0,3-1,1.1,1.1,0,0,1,.54,0c1.11,0,2.19.35,3.31.31l2.78-.08c.11,0,.22,0,.33,0a13.35,13.35,0,0,0,4.41-.29,3,3,0,0,0,1.27-.4,1.73,1.73,0,0,1,1.17-.27A9.65,9.65,0,0,1,129.61,27.22Z"/><path class="cls-35" d="M127.9,25.34h-.78c-.42,0-.54-.09-.5-.54a5.59,5.59,0,0,0-.44-2.49A3.76,3.76,0,0,1,126,20.9a6.44,6.44,0,0,0-.14-1.86c-.1-.34.06-.49.31-.61a4.91,4.91,0,0,1,.83-.32c1.56-.43,1.24-.46,1.52.9a4.66,4.66,0,0,1,.16,1,21.1,21.1,0,0,0,.52,4.49c.18.76-.05.85-.7.81h-.55Z"/><path class="cls-35" d="M109.47,23.67c0-.88,0-1.76,0-2.65a4.91,4.91,0,0,1,.06-.66.3.3,0,0,1,.31-.25,2.72,2.72,0,0,1,1.28.28c.34.14.39.51.57.79a3.21,3.21,0,0,1,.44,1.81c0,1,0,1.92,0,2.88a.59.59,0,0,1-.46.66c-.6.16-1.2.37-1.81.52-.34.09-.49,0-.48-.39,0-1,0-2,0-3Z"/><path class="cls-36" d="M106.88,19.89c.75,0,1.16.33,1.06,1.07-.15,1.07,0,2.13-.12,3.2-.06.8,0,1.62,0,2.43,0,.21.07.49-.15.61a.59.59,0,0,1-.7-.2c-1.13-1.21-2.13-2.49-2-4.3,0-.26,0-.52,0-.78a4.3,4.3,0,0,1,.16-.87A1.4,1.4,0,0,1,106.88,19.89Z"/><path class="cls-37" d="M130.66,21.25c-.09-1-.18-1.92-.26-2.88,0-.36.09-.43.46-.39a1.55,1.55,0,0,1,1,.55A4.58,4.58,0,0,1,133.05,22c0,.33,0,.65,0,1a2,2,0,0,1-.56,1.63c-.36.35-.44.94-.94,1.19a4.15,4.15,0,0,1-.46-2.09c-.12-.35-.19-.68.27-.84s.78,0,.8-.51a2.43,2.43,0,0,0-.23-1.59c-.14-.2-.33-.12-.44.07s-.11.57-.31.81C130.67,21.89,130.82,21.39,130.66,21.25Z"/><path class="cls-38" d="M76.3,149.26v0c0,1,0,2.06-.14,3.08,0,.15,0,.29,0,.44s0,.52,0,.78c0,.11,0,.22,0,.33h0a1.32,1.32,0,0,0,.26-1C76.35,151.67,76.31,150.47,76.3,149.26Z"/><path class="cls-39" d="M163,139.08c-.12-.05-.31.32-.37-.07a33.07,33.07,0,0,1-.69-5.34c0-.74,0-1.48,0-2.22a3.69,3.69,0,0,1,.31-1.38,6.76,6.76,0,0,0,.58-2.11c-.4.29-.41.78-.57,1.17a6.51,6.51,0,0,0-.58,2.93,8.82,8.82,0,0,1,0,1.78,7,7,0,0,0,.27,2.84c.05.18.17.39.11.53-.19.43.06.81.13,1.19,0,.21.09.42.12.64a7.14,7.14,0,0,1,.31.81c0,.09,0,.18.07.28s.16-.19.23-.29A1,1,0,0,0,163,139.08Z"/><path class="cls-40" d="M167.75,236a.63.63,0,0,1-.18-.5c-.06-1.18-.26-2.34-.28-3.51a22.07,22.07,0,0,0-.3-2.29,3,3,0,0,1-.13-1.3,1.56,1.56,0,0,1,.46,1.08c.11.94.32,1.86.35,2.82a9.91,9.91,0,0,0,.2,1.94c.12.54-.07,1.13.18,1.67Z"/><path class="cls-41" d="M101.52,140.71a2.48,2.48,0,0,0-.25,1c.07,1.56,0,3.11.06,4.66,0,.93,0,1.85,0,2.77a.63.63,0,0,1-.18.51,3.35,3.35,0,0,1-.09-.76,12.56,12.56,0,0,0-.08-3.41c.14-.75-.11-1.52.09-2.28a3.72,3.72,0,0,0-.11-1.52,1,1,0,0,1,.29-.91C101.28,140.73,101.42,140.74,101.52,140.71Z"/><path class="cls-42" d="M102.21,266.68c.39,0,.81-.17,1.12.21h1.1a.57.57,0,0,1,.48.23h0c-.24.2-.43.55-.84.29-.08-.06-.21,0-.32-.06-.59-.09-1.17.18-1.74.09a4.53,4.53,0,0,0-1.76,0c-.15,0-.32,0-.35-.17s.11-.26.25-.32l.11,0c.14.13.3.08.45.06a.86.86,0,0,1,.6-.16c.17.14.31,0,.47,0S102.1,266.88,102.21,266.68Z"/><path class="cls-43" d="M58.1,136.71c.32-.12.19-.56.5-.7a2.16,2.16,0,0,0,1,2,2.69,2.69,0,0,1,1,1.05C59.07,138.93,58.47,138.36,58.1,136.71Z"/><path class="cls-44" d="M116.12,9.49a3,3,0,0,1-1.6.38.67.67,0,0,1-.68-.45c-.17-.38,0-.62.35-.56s1.07-.07,1.43.44c.12.16.23.11.32-.06.23-.45.59-.31.94-.19,0,0,0,.06,0,.07a.18.18,0,0,1-.09.06c-.13.12-.38.05-.45.27l0-.06,0,.06Z"/><path class="cls-45" d="M151.2,42.53a2.87,2.87,0,0,1-.48-.28c-1-.86-2.08-1.73-3.1-2.61-.15-.13-.37-.26-.4-.51a1.19,1.19,0,0,1,1.15.52,6.55,6.55,0,0,0,1.31,1.17,5,5,0,0,0,1.23,1.06A.53.53,0,0,1,151.2,42.53Z"/><path class="cls-46" d="M155.64,233.11a5.56,5.56,0,0,1-.41-2.31,9.59,9.59,0,0,0-.12-1.19,1.91,1.91,0,0,1,.09-1.18l.27,0h0c-.08.43-.23.87.09,1.28a.33.33,0,0,1,.09.2c-.17,1,.32,1.93.34,2.91C156,233.07,155.82,233.08,155.64,233.11Z"/><path class="cls-47" d="M153.67,215.22a.72.72,0,0,1-.18-.81,1.59,1.59,0,0,0,0-.75,7.48,7.48,0,0,1-.11-1.17,4.18,4.18,0,0,0-.23-1.19,2,2,0,0,1,0-.77c.09.07.21.12.24.21a.79.79,0,0,1,.06.43c0,.4.57.51.37,1a2.16,2.16,0,0,0,0,1.07,8.25,8.25,0,0,1,0,1.22A1.57,1.57,0,0,1,153.67,215.22Z"/><path class="cls-48" d="M155.68,198.43a10.24,10.24,0,0,1-1.39-4.29,3.54,3.54,0,0,1,0-1.74.36.36,0,0,1,.25.34c0,.29,0,.59,0,.89a6.58,6.58,0,0,0,.64,2.78A3.91,3.91,0,0,1,155.68,198.43Z"/><path class="cls-49" d="M155.19,228.44c-.05-.05-.14-.09-.14-.14a13.26,13.26,0,0,1-.16-2.81.83.83,0,0,0,0-.42,3.51,3.51,0,0,1-.28-1.81.36.36,0,0,1,.29.31,8.52,8.52,0,0,1,.4,2.36c0,.59,0,1.19,0,1.78a.28.28,0,0,1,0,.28Z"/><path class="cls-50" d="M171.61,120.82c-.11.68-.67,1.13-.89,1.75a6.92,6.92,0,0,1-.75,1.69,2.47,2.47,0,0,1-.84.83c0-.22-.06-.48.13-.62a5.22,5.22,0,0,0,1.13-1.85c.26-.48.47-1,.69-1.49A.49.49,0,0,1,171.61,120.82Z"/><path class="cls-51" d="M168.65,264.43c.18.36-.1.55-.29.76a.69.69,0,0,1-.56.3.32.32,0,0,1-.25-.16c-.07-.28-.18-.46-.52-.42a2.41,2.41,0,0,1-1.25-.35A4.77,4.77,0,0,1,168.65,264.43Z"/><path class="cls-52" d="M208,137a47.11,47.11,0,0,1-3.34-3.84s0-.13-.06-.2a.84.84,0,0,1,.62.42,3.64,3.64,0,0,0,.46.63,16.67,16.67,0,0,1,2.06,2.3A.76.76,0,0,1,208,137Z"/><path class="cls-53" d="M138.45,32.47a.91.91,0,0,1-.33,0,29.66,29.66,0,0,1-3-1.55c.24-.11.48-.27.72,0a2.67,2.67,0,0,0,1.06.54A3,3,0,0,1,138.45,32.47Z"/><path class="cls-54" d="M169.32,246.32a1.88,1.88,0,0,1-.46-1.19,12.83,12.83,0,0,1-.22-2.4.83.83,0,0,1,.39.85,4.63,4.63,0,0,0,.32,1.58A1.55,1.55,0,0,1,169.32,246.32Z"/><path class="cls-55" d="M175.66,248.58a2,2,0,0,0,0,1c.24.92.43,1.85.65,2.78a.78.78,0,0,1,0,.43c-.25-.08-.32-.3-.37-.52-.2-1-.39-1.95-.55-2.94C175.33,249,175.24,248.7,175.66,248.58Z"/><path class="cls-56" d="M110.74,2.92A3.14,3.14,0,0,1,112,2.26a.3.3,0,0,1,.41.35,2.38,2.38,0,0,1-.18.51c-.11.22-.29.34-.53.18a1.2,1.2,0,0,0-.74-.14Q110.62,3.22,110.74,2.92Z"/><path class="cls-45" d="M147.21,39.12a17.24,17.24,0,0,1-2.29-2c.14-.06.29-.15.41,0,.56.43,1,.93,1.63,1.31A.71.71,0,0,1,147.21,39.12Z"/><path class="cls-57" d="M156.13,237.58a1.28,1.28,0,0,1-.16-.27c-.12-1-.24-1.93-.34-2.9a2,2,0,0,1,.07-.42.24.24,0,0,1,.22.21,3.09,3.09,0,0,0,.37,1.66c0,.06.06.16,0,.21C156.05,236.55,156.33,237.09,156.13,237.58Z"/><path class="cls-58" d="M94.18,267.32a1.71,1.71,0,0,1-1.43.45.25.25,0,0,1-.23-.3c0-.15,0-.3.17-.35l.85-.22c0,.09.11.09.15,0l.26,0C94.07,267,94.3,267.07,94.18,267.32Z"/><path class="cls-59" d="M130.66,21.25l.39.44a1.4,1.4,0,0,1,.45,1.36c-.51,0-.35.43-.44.69A5,5,0,0,1,130.66,21.25Z"/><path class="cls-60" d="M166,222.17s-.08,0-.08-.08c-.12-1-.23-2.06-.34-3.09a.84.84,0,0,1,.36.53A6.18,6.18,0,0,1,166,222.17Z"/><path class="cls-47" d="M153.19,210.54s-.09,0-.09-.06a15.4,15.4,0,0,1-.32-2.43c.24.06.44.24.38.45a1.43,1.43,0,0,0,.19,1.13A.83.83,0,0,1,153.19,210.54Z"/><path class="cls-61" d="M168.65,264.43h-2.58a.86.86,0,0,0-.29.14h-.34s-.06-.06-.06-.09a.63.63,0,0,1,0-.19.13.13,0,0,1,.09,0c.93,0,1.86,0,2.78,0C168.41,264.22,168.53,264.36,168.65,264.43Z"/><path class="cls-41" d="M155.69,76.28a3.75,3.75,0,0,1-.95-1.18c-.08-.16-.48-.28-.18-.49s.39.14.51.31c.29.37.56.77.83,1.15Z"/><path class="cls-62" d="M158.82,49.89a11.26,11.26,0,0,1-1.55-1.46c-.06-.06,0-.21-.06-.31.38-.09.49.27.72.43A2.37,2.37,0,0,1,158.82,49.89Z"/><path class="cls-63" d="M45.19,206.47l1.54,2c-.14,0-.35,0-.4-.08C45.89,207.81,45.11,207.38,45.19,206.47Z"/><path class="cls-64" d="M169.1,120.06l-.2.1a.17.17,0,0,1-.24,0c.25-.55.81-.73,1.26-1,0,0,.13,0,.18.08a.09.09,0,0,1,0,.09c-.24.38-.22.95-.78,1.1C169.27,120.26,169.26,120.1,169.1,120.06Z"/><path class="cls-65" d="M107.82,199.77a7.07,7.07,0,0,1,.23-2.9c.09.41.3.8,0,1.25a1.44,1.44,0,0,0,0,.63A1.33,1.33,0,0,1,107.82,199.77Z"/><path class="cls-66" d="M206.46,153.25c-.36-.21-.36-.62-.54-.93a5.6,5.6,0,0,1-.57-1.54c.29.12.59.18.54.65,0,.25.2.53.31.79A1.69,1.69,0,0,1,206.46,153.25Z"/><path class="cls-67" d="M96.64,266.92c-.09.13-.16.1-.23,0s-.13-.19,0-.29a.74.74,0,0,1,.7-.16,3.53,3.53,0,0,1,.32.21.23.23,0,0,0,.34,0c.08.07.21.12.23.21s.37.22.21.41-.34.13-.55-.06a2.44,2.44,0,0,0-.79-.33A.14.14,0,0,0,96.64,266.92Z"/><path class="cls-68" d="M174,266.87a5.09,5.09,0,0,1-1.49-.32c-.05,0-.1-.11-.11-.17s.08-.14.12-.14c.5,0,1-.21,1.47.18C173.89,266.57,174.16,266.72,174,266.87Z"/><path class="cls-69" d="M99.09,265.55c-.29,0-.52,0-.72-.08s-.12-.1-.09-.19-.12,0,0-.09a1.73,1.73,0,0,1,1.58,0,.23.23,0,0,1,.05.2.24.24,0,0,1-.14.14Z"/><path class="cls-70" d="M146.05,181.21a4.65,4.65,0,0,1-.67-2.24c.3.14.36.44.44.71.16.51.31,1,.46,1.54C146.2,181.31,146.12,181.31,146.05,181.21Z"/><path class="cls-71" d="M95.75,264l1.2-.45a.38.38,0,0,1,.29.07.31.31,0,0,1,0,.27,1.93,1.93,0,0,1-.22.36C96.59,264.24,96.07,264.61,95.75,264Z"/><path class="cls-72" d="M191,133.39a2.75,2.75,0,0,1,.26.22,4.46,4.46,0,0,0-.48-1,1,1,0,0,1-.24.22c-.1.06-.15.13-.14.21A1.88,1.88,0,0,1,191,133.39Z"/><path class="cls-73" d="M214.55,206.29c0,.42-.38.61-.65.82a2.06,2.06,0,0,1-.93.53c.11-.31.2-.63.59-.72s.44-.32.54-.61S214.4,206.24,214.55,206.29Z"/><path class="cls-74" d="M91.37,266c.11,0,.27,0,.31.05a.2.2,0,0,1-.15.32,3.14,3.14,0,0,1-1.18.14c-.11-.16-.34-.1-.45-.26a.2.2,0,0,1,0-.24h0A2.68,2.68,0,0,1,91.37,266Z"/><path class="cls-49" d="M154.56,223.27a2.81,2.81,0,0,1-.24-2,2,2,0,0,1,.38,1.37C154.66,222.85,154.61,223.05,154.56,223.27Z"/><path class="cls-55" d="M176.3,252.76s.08,0,.08.06c.1.48.2,1,.26,1.44a1.6,1.6,0,0,1-.1.52c-.06,0-.16-.07-.17-.11a2.11,2.11,0,0,0-.22-1C176,253.32,176.12,253,176.3,252.76Z"/><path class="cls-75" d="M120.1,8.24c-.29,0-.59,0-.88,0-.12,0-.16-.14-.15-.24s.1-.32.25-.31c.4,0,.79.14,1.18.21C120.66,8.3,120.2,8.08,120.1,8.24Z"/><path class="cls-76" d="M140.91,34c-.51-.32-1.13-.45-1.53-.94a2.07,2.07,0,0,1,1.26.37A.54.54,0,0,1,140.91,34Z"/><path class="cls-77" d="M114.79,3.76c-.3,0-.49,0-.64-.11a.36.36,0,0,1-.09-.4.2.2,0,0,1,.26-.14q.42.12.84.27c.09,0,.11.1.07.16s-.07.15-.13.16A1.09,1.09,0,0,1,114.79,3.76Z"/><path class="cls-78" d="M220.76,194a.67.67,0,0,1-.66.26c-.4-.05-.48.17-.52.48a2.64,2.64,0,0,1-.12.4c-.21-.51.09-1-.06-1.57.36,0,.29.44.59.41A6.66,6.66,0,0,1,220.76,194Z"/><path class="cls-79" d="M147.88,148.3s-.08,0-.09-.06a6.3,6.3,0,0,1-.61-1.93l.18.12a.73.73,0,0,1,.31.55C147.67,147.43,148.17,147.8,147.88,148.3Z"/><path class="cls-80" d="M112.71,249.86c-.17-.27-.46-.2-.7-.25s-.45,0-.62-.17c.09-.06.2-.2.26-.18a10,10,0,0,0,1.53.2.21.21,0,0,1,.15.14c0,.17-.1.14-.2.16A3.2,3.2,0,0,0,112.71,249.86Z"/><path class="cls-81" d="M42.71,166.65a3.86,3.86,0,0,1,.69-1.78.62.62,0,0,1,0,.63c-.1.23-.18.48-.27.72a.88.88,0,0,0-.18.25A.28.28,0,0,1,42.71,166.65Z"/><path class="cls-82" d="M191.92,119.46a5.57,5.57,0,0,1-1.59-1.31c.1,0,.24,0,.31,0,.38.26.75.54,1.11.82A.53.53,0,0,1,191.92,119.46Z"/><path class="cls-83" d="M121.16,5.06a.81.81,0,0,1-.43-.48c-.08-.16-.21-.31-.09-.5s.39-.12.6,0,.21.19.14.36S121.23,4.86,121.16,5.06Z"/><path class="cls-84" d="M114.81,6.1s.07,0,.09,0a1.14,1.14,0,0,1,.32.79.18.18,0,0,1-.21.19.58.58,0,0,1-.39-.91S114.75,6.13,114.81,6.1Z"/><path class="cls-85" d="M128.43,120.54c0,.09.14.18.15.27,0,.48,0,1,0,1.45a.31.31,0,0,1-.21.34A3.23,3.23,0,0,1,128.43,120.54Z"/><path class="cls-86" d="M55,135.82a.65.65,0,0,1-.38-.35l-.5-.8a.43.43,0,0,1-.12-.36.2.2,0,0,1,.18-.15.44.44,0,0,1,.16.06h0a1,1,0,0,0,.32.64A.93.93,0,0,1,55,135.82Z"/><path class="cls-87" d="M95.75,264c.06.21.24.25.42.25H97c-.53.34-1.1.16-1.66.16-.09,0-.14-.05-.12-.14s0-.16.08-.18A2.71,2.71,0,0,1,95.75,264Z"/><path class="cls-88" d="M179,268.9a3.13,3.13,0,0,1,.43,0,.2.2,0,0,1,.12.16.21.21,0,0,1-.09.17,2.16,2.16,0,0,1-1.58-.11c.13-.23.36-.12.55-.15S178.78,269.06,179,268.9Z"/><path class="cls-89" d="M122.36,8.74c.49-.22.68-.21.83.07.06.12.1.29-.09.36a1.5,1.5,0,0,1-1,0C122,8.91,122.23,8.85,122.36,8.74Z"/><path class="cls-81" d="M43.4,164.87a4.72,4.72,0,0,1,.66-2A2.69,2.69,0,0,1,43.4,164.87Z"/><path class="cls-90" d="M42.28,168a2.35,2.35,0,0,1,.43-1.35c.28.33.13.65,0,1S42.53,168,42.28,168Z"/><path class="cls-91" d="M108.74,4.71a3.79,3.79,0,0,1,1.33-1.34c.07,0,.09.11.06.16s0,.08-.07.08a4.89,4.89,0,0,1-1,1.09A.26.26,0,0,1,108.74,4.71Z"/><path class="cls-92" d="M128.78,6.21c0-.26.07-.53.1-.79a.47.47,0,0,1,.4.24c.27.39.26.43-.24.81C128.83,6.52,128.72,6.45,128.78,6.21Z"/><path class="cls-93" d="M128.62,135.12l0,2.24s-.08,0-.08-.07a3,3,0,0,1,0-2.1S128.59,135.14,128.62,135.12Z"/><path class="cls-94" d="M89.92,266.21c.19,0,.36.05.43.26a.76.76,0,0,1-.71.12l-.62-.2c-.07,0-.09-.08-.06-.11a.1.1,0,0,1,.08,0,.87.87,0,0,1,.65-.23.19.19,0,0,1,.11.14l0,.07h.09Z"/><path class="cls-95" d="M49,124.36a.62.62,0,0,0-.51.09,6.77,6.77,0,0,1-.65.36c.11-.57.62-.71,1-.84C49.13,123.9,49.11,124.18,49,124.36Z"/><path class="cls-96" d="M71.81,126.6a4.05,4.05,0,0,1-1.29-1.11A1.48,1.48,0,0,1,71.81,126.6Z"/><path class="cls-97" d="M126.17,8.49c.21.08.21.25.19.42a.32.32,0,0,1-.13.24c-.15.07-.25,0-.32-.16a.31.31,0,0,0-.25-.23l-.4-.27c0-.2,0-.31.25-.25l.22.1C125.87,8.41,126.05,8.38,126.17,8.49Z"/><path class="cls-98" d="M75.85,140.49h0a7.92,7.92,0,0,0,0-1.46A7,7,0,0,0,75.85,140.49Z"/><path class="cls-99" d="M165.09,265.76a1.91,1.91,0,0,1,1-.22.18.18,0,0,1,.18.22c0,.14,0,.34-.17.34a6.69,6.69,0,0,1-1-.12q-.1-.08-.06-.15C165,265.78,165.07,265.76,165.09,265.76Z"/><path class="cls-100" d="M102.67,257.71c.19,0,.43.06.39.27-.08.44,0,.93-.36,1.3A7.51,7.51,0,0,1,102.67,257.71Z"/><path class="cls-101" d="M189.8,268.24c-.08,0-.19,0-.28-.08s-.15-.24-.1-.37.09-.2.23-.17l.52.13c.12,0,.2.11.18.22a.43.43,0,0,1-.21.21A1.09,1.09,0,0,1,189.8,268.24Z"/><path class="cls-102" d="M177.19,216.35l-.05,1.1a1.61,1.61,0,0,1-.16-.39.84.84,0,0,0-.77-.82C176.65,216,176.91,216.22,177.19,216.35Z"/><path class="cls-103" d="M168.89,212.74a2.06,2.06,0,0,1-1.38-.87A2.81,2.81,0,0,1,168.89,212.74Z"/><path class="cls-104" d="M164,266c-.38,0-.48-.23-.57-.55.39,0,.77-.15,1,.28C164.36,266,164.08,265.81,164,266Z"/><path class="cls-105" d="M47.42,209.17a1.45,1.45,0,0,1,.94.85A.86.86,0,0,1,47.42,209.17Z"/><path class="cls-106" d="M110.25,5.64a1.24,1.24,0,0,1-.69,1.16s-.06,0-.08,0a.17.17,0,0,1,0-.1.18.18,0,0,1,0-.1Z"/><path class="cls-107" d="M117.83,4.52c.12.18.25.29.26.41s.3.43.15.7-.3-.12-.42-.6C117.78,4.9,117.66,4.78,117.83,4.52Z"/><path class="cls-108" d="M174,266.87a1.06,1.06,0,0,0-.15-.15c-.07-.06-.22-.1-.15-.2s.19-.07.29-.1l1,.37A1.48,1.48,0,0,1,174,266.87Z"/><path class="cls-109" d="M120.1,8.24c.1-.16.37-.14.4-.38.33-.09.55.08.9.33A2.25,2.25,0,0,1,120.1,8.24Z"/><path class="cls-47" d="M152.78,208.05c-.39-.38-.27-.86-.29-1.32.26,0,.41.16.38.44Z"/><path class="cls-110" d="M179,159c.41.17.87.27,1.11.71a3,3,0,0,0-.42,0C179.22,159.65,179.05,159.38,179,159Z"/><path class="cls-105" d="M48.36,210a1.85,1.85,0,0,1,.85.71,1.14,1.14,0,0,1-.6-.18A.42.42,0,0,1,48.36,210Z"/><path class="cls-111" d="M129.34,153.92l0-.89c.06-.11.13-.12.2,0,0,.38.32.71.25,1.11C129.51,154.28,129.43,154.09,129.34,153.92Z"/><path class="cls-112" d="M101.33,266.9l-.66.19c-.08,0-.12-.09-.1-.15s0-.09.06-.09c.2-.17.37-.48.71-.23A.17.17,0,0,1,101.33,266.9Z"/><path class="cls-86" d="M53.69,134.45c-.18.36,0,.8-.21,1.15a2.2,2.2,0,0,1,.16-1.65l.13.09A.33.33,0,0,1,53.69,134.45Z"/><path class="cls-113" d="M108.05,6.28a.55.55,0,0,1,.17-.48l.08,0c.09,0,.15,0,.16.09,0,.31.12.63-.17.88C108.09,6.64,108.2,6.39,108.05,6.28Z"/><path class="cls-114" d="M191.58,159.91c-.12,0-.23-.06-.22-.18s.21-.28.39-.3.12.07.14.12S191.8,159.9,191.58,159.91Z"/><path class="cls-115" d="M110,8.05a.37.37,0,0,1,.2.46.21.21,0,0,1-.24.17.28.28,0,0,1-.27-.38C109.76,8.18,109.83,8,110,8.05Z"/><path class="cls-116" d="M177.88,266.87a.36.36,0,0,1-.53.14c-.12-.07-.1-.18,0-.26a.44.44,0,0,1,.49-.05C177.92,266.73,177.94,266.79,177.88,266.87Z"/><path class="cls-117" d="M113.57,2a.42.42,0,0,1,.23.09c.07.08,0,.2-.07.28s-.21.19-.31.3-.2,0-.25-.05-.17-.34-.06-.51S113.36,1.94,113.57,2Z"/><path class="cls-93" d="M128.66,137.57c.11.07.09.17.07.28-.06.29-.1.57-.15.85C128.19,138.07,128.2,137.92,128.66,137.57Z"/><path class="cls-9" d="M109.59,10.51c0,.24-.15.4-.25.58s-.12.05-.18.05-.06-.05-.06-.08a1.44,1.44,0,0,1,.23-1l.12,0C109.51,10.2,109.46,10.38,109.59,10.51Z"/><path class="cls-118" d="M200.88,128.4c-.28-.25-.67-.43-.68-.89C200.62,127.66,201,127.88,200.88,128.4Z"/><path class="cls-119" d="M41.17,196.39a1,1,0,0,1,.2.92c-.4-.15-.46-.22-.38-.51A3.65,3.65,0,0,1,41.17,196.39Z"/><path class="cls-120" d="M179.62,267.11h.22c.21,0,.44,0,.5.29,0,0-.08.12-.13.13-.26,0-.51,0-.57-.32a.41.41,0,0,1,0-.11Z"/><path class="cls-121" d="M51.46,132.88c0-.06,0-.12-.05-.17s0-.34-.14-.49.06-.2.1-.3.08-.21.22-.15a.21.21,0,0,1,.11.16c0,.32,0,.63-.05.95C51.58,133,51.52,133,51.46,132.88Z"/><path class="cls-122" d="M6.49,191.49c-.17.07-.39,0-.49.25a3.89,3.89,0,0,1-.39-.32s0-.14,0-.19a.21.21,0,0,1,.17-.08C6,191.2,6.34,191.19,6.49,191.49Z"/><path class="cls-123" d="M111.62,266.44a2.14,2.14,0,0,1-1.35-.14,2.66,2.66,0,0,1,1.36-.09q.11.07.06.15C111.67,266.41,111.64,266.44,111.62,266.44Z"/><path class="cls-124" d="M109.61,263.76a2.83,2.83,0,0,1,1.34.09,2.68,2.68,0,0,1-1.33.11c-.08,0-.11-.08-.09-.13S109.58,263.76,109.61,263.76Z"/><path class="cls-125" d="M116.53,8.05c-.13.36-.39.27-.61.14a.39.39,0,0,1-.24-.43c0-.09.08-.11.16,0l.26.19A1,1,0,0,1,116.53,8.05Z"/><path class="cls-126" d="M172.13,264.14a.75.75,0,0,1-.42.47c-.08,0-.13,0-.17-.08a.29.29,0,0,1,.06-.39c.15-.15.33-.1.51-.07C172.12,264.07,172.13,264.12,172.13,264.14Z"/><path class="cls-127" d="M185.88,266.87c-.18,0-.25-.12-.26-.27s.12-.16.22-.17a1.16,1.16,0,0,1,.32,0c.11,0,.21.1.16.21s-.14.13-.21.2A.16.16,0,0,0,185.88,266.87Z"/><path class="cls-128" d="M108.23,6.89a.88.88,0,0,1-.36.59,1,1,0,0,1,.14-1C108.22,6.53,108.1,6.78,108.23,6.89Z"/><path class="cls-129" d="M99.47,263.36a1.74,1.74,0,0,1-.32,0,.85.85,0,0,1-.25-.17.91.91,0,0,1,.2-.24c.26-.21.45.05.67.13C99.8,263.32,99.71,263.43,99.47,263.36Z"/><path class="cls-66" d="M205.35,150.78a1.85,1.85,0,0,1-.29-1.09C205.63,149.93,205.47,150.36,205.35,150.78Z"/><path class="cls-130" d="M112.15,264.83a.71.71,0,0,1,.21,0s.12.08.12.13a.19.19,0,0,1-.09.16.49.49,0,0,1-.51,0,.26.26,0,0,1-.12-.15c-.06-.17.09-.15.18-.18A.72.72,0,0,1,112.15,264.83Z"/><path class="cls-131" d="M170.22,211.42a1.37,1.37,0,0,1,.92.63C170.71,212,170.32,211.94,170.22,211.42Z"/><path class="cls-132" d="M107.32,10.88a.45.45,0,0,1-.23-.44.12.12,0,0,1,.07-.07.66.66,0,0,1,.2.06.3.3,0,0,1,.14.37S107.39,10.85,107.32,10.88Z"/><path class="cls-133" d="M91.37,266H89.91A1.6,1.6,0,0,1,91.37,266Z"/><path class="cls-134" d="M164,266c.06-.24.28-.2.45-.27l.66.05a1.64,1.64,0,0,1,0,.22C164.71,266.25,164.34,266,164,266Z"/><path class="cls-135" d="M38.23,161.28a1.44,1.44,0,0,1-.41.94C37.81,161.84,37.69,161.42,38.23,161.28Z"/><path class="cls-136" d="M189.26,121.24c-.26.17-.15.47-.26.7-.19-.16-.18-.39-.22-.6s-.11-.42.07-.48S189.21,121,189.26,121.24Z"/><path class="cls-137" d="M39.15,199.76a.69.69,0,0,1,.49-.08c.06,0,.14-.11.21-.16s.24.15.18.32a.22.22,0,0,1-.24.16C39.56,200,39.27,200.09,39.15,199.76Z"/><path class="cls-138" d="M94.18,267.32l-.23-.44c.21,0,.42,0,.63,0a.09.09,0,0,1,0,.15A4,4,0,0,1,94.18,267.32Z"/><path class="cls-139" d="M82.77,47.86c0,.41-.32.49-.66.48A.68.68,0,0,1,82.77,47.86Z"/><path class="cls-140" d="M165.12,268.44c.07.06.08.15,0,.17-.35.09-.7.19-1-.16a.66.66,0,0,1,.49-.11A.77.77,0,0,1,165.12,268.44Z"/><path class="cls-141" d="M109.61,263.76a.45.45,0,0,0,0,.2,2.24,2.24,0,0,1-1-.1C108.94,263.6,109.29,263.8,109.61,263.76Z"/><path class="cls-142" d="M146.05,181.21h.23c0,.37.16.74,0,1.11C146,182,146.06,181.6,146.05,181.21Z"/><path class="cls-143" d="M112.92,3.26s.13.07.14.12-.14.44-.25.38a.23.23,0,0,1-.08-.18C112.73,3.44,112.74,3.29,112.92,3.26Z"/><path class="cls-144" d="M102.63,260.56l0,.49c-.18,0-.36,0-.54,0s-.11-.09-.05-.16A.91.91,0,0,1,102.63,260.56Z"/><path class="cls-145" d="M204.42,141.62c-.26.17-.09.46-.21.67a1,1,0,0,1-.25-.62c-.07-.27,0-.37.31-.31Z"/><path class="cls-146" d="M203.54,140.94c-.23-.19-.2-.4,0-.51s.36.12.42.33A.62.62,0,0,1,203.54,140.94Z"/><path class="cls-147" d="M203.54,140.94c.08-.2.25-.22.44-.18l.06.32a.39.39,0,0,1-.28.32Z"/><path class="cls-19" d="M99.47,263.36c.12-.06.26-.12.3-.27.11,0,.23,0,.3.09s.07.18.07.28-.12.07-.18.08A.54.54,0,0,1,99.47,263.36Z"/><path class="cls-142" d="M146.7,183.26c-.37-.21-.34-.59-.42-.93A.85.85,0,0,1,146.7,183.26Z"/><path class="cls-148" d="M134.21,116.09l-.23-.22a.31.31,0,0,1,.33-.2,1,1,0,0,1,.26.11,1.13,1.13,0,0,1-.16.26S134.28,116.07,134.21,116.09Z"/><path class="cls-149" d="M125.51,8.24c-.11.06-.23.11-.25.25a2.2,2.2,0,0,1-.26-.15.24.24,0,0,1-.09-.18.18.18,0,0,1,.24-.11A2.47,2.47,0,0,1,125.51,8.24Z"/><path class="cls-150" d="M178.51,269.1l-.68.06c-.12-.14-.08-.26.07-.31a.89.89,0,0,1,.6,0c.07.05.1.09.08.14S178.54,269.1,178.51,269.1Z"/><path class="cls-151" d="M102.21,266.68a1,1,0,0,1,.14.15c0,.06.09.15.07.18s-.17.1-.26.06l-.38-.19c-.08,0-.1-.08-.08-.12s.06-.06.08-.06Z"/><path class="cls-152" d="M110.74,2.92l.21.24-.45.19a.14.14,0,0,1-.24,0C110.3,3.08,110.5,3,110.74,2.92Z"/><path class="cls-153" d="M61.48,116.31c.11-.36.41-.41.72-.42C62.08,116.24,61.8,116.31,61.48,116.31Z"/><path class="cls-154" d="M122.36,8.74l-.22.42h-.45c-.08-.05-.1-.09-.08-.14s0-.07.08-.07A1.07,1.07,0,0,1,122.36,8.74Z"/><path class="cls-82" d="M190.33,118.15a1,1,0,0,1-.65-.47A.54.54,0,0,1,190.33,118.15Z"/><path class="cls-155" d="M128.78,6.21c.09.09.18.17.26.26a1.38,1.38,0,0,1-.14.27.21.21,0,0,1-.17.08s-.09-.09-.11-.15A.43.43,0,0,1,128.78,6.21Z"/><path class="cls-156" d="M211.84,141.6a.65.65,0,0,1-.49-.64C211.68,141,211.89,141.22,211.84,141.6Z"/><path class="cls-157" d="M169.1,120.06a2.07,2.07,0,0,1,.15-.25c.05,0,.13-.09.18-.07s.11.14.07.23-.1.26-.14.39a.53.53,0,0,1-.22,0C169.13,120.28,169.11,120.17,169.1,120.06Z"/><path class="cls-158" d="M104.76,265.22a.2.2,0,0,1,.23.15c0,.13-.09.16-.2.15s-.16,0-.17-.07S104.65,265.26,104.76,265.22Z"/><path class="cls-159" d="M193.69,120.84a.94.94,0,0,1-.67-.47C193.36,120.36,193.64,120.44,193.69,120.84Z"/><path class="cls-160" d="M182.68,267.05c0,.06,0,.15-.08.17a.16.16,0,0,1-.24-.1.22.22,0,0,1,.08-.18C182.54,266.89,182.63,266.93,182.68,267.05Z"/><path class="cls-161" d="M89,266.24a.39.39,0,0,1,0,.15l-.4.05s-.08-.05-.07-.06,0-.13.07-.14Z"/><path class="cls-96" d="M73.15,127.94c-.24,0-.33-.25-.42-.44C73,127.49,73.16,127.65,73.15,127.94Z"/><path class="cls-162" d="M119.06,2.57a.64.64,0,0,1-.13.1.19.19,0,0,1-.24-.11s0-.06.07-.07A.23.23,0,0,1,119.06,2.57Z"/><path class="cls-163" d="M111.62,266.44v-.23h.43s.09.05.08.06,0,.13-.08.14Z"/><path class="cls-164" d="M203.76,141.4a.45.45,0,0,1,.28-.32c.11.06.22.13.23.28a.5.5,0,0,0-.31.31Z"/><path class="cls-165" d="M164.67,268.44h-.53c-.1-.07-.1-.18,0-.21a2.67,2.67,0,0,1,.49,0q.1,0,.09.12C164.7,268.41,164.69,268.44,164.67,268.44Z"/><path class="cls-166" d="M111.59,4.24l.25-.17s.07,0,.1,0,.09.11,0,.18l-.34.24a.17.17,0,0,1-.08-.17C111.55,4.27,111.57,4.24,111.59,4.24Z"/><path class="cls-167" d="M197.5,131.55c-.21-.08-.23-.26-.22-.45C197.66,131.16,197.66,131.16,197.5,131.55Z"/><path class="cls-168" d="M121.24,9.16h-.42s-.08-.06-.08-.06.05-.13.09-.13a2,2,0,0,1,.42,0c.07,0,.09.09.06.13S121.27,9.16,121.24,9.16Z"/><path class="cls-169" d="M109.41,9.63c0-.21-.16-.46.14-.6.15.19.06.4,0,.6S109.46,9.72,109.41,9.63Z"/><path class="cls-170" d="M77.62,132.44h-.24a.18.18,0,0,1-.13-.3c.09-.13.2,0,.26,0A.81.81,0,0,1,77.62,132.44Z"/><path class="cls-93" d="M187.46,268.62s-.09-.1-.09-.13.11-.17.21-.13a.2.2,0,0,1,0,.17C187.6,268.58,187.52,268.59,187.46,268.62Z"/><path class="cls-171" d="M111.59,4.24l0,.26c-.06.11-.15.2-.26.13s0-.19,0-.27A.81.81,0,0,1,111.59,4.24Z"/><path class="cls-172" d="M51.2,132.84c.08.28.12.54-.18.72A.71.71,0,0,1,51.2,132.84Z"/><path class="cls-173" d="M159.72,51c-.16-.14-.4-.19-.44-.45C159.6,50.53,159.75,50.67,159.72,51Z"/><path class="cls-174" d="M101.78,266.7a.54.54,0,0,0,0,.18c-.15.12-.3.17-.45,0v-.28A.53.53,0,0,1,101.78,266.7Z"/><path class="cls-73" d="M215.21,205.6a.75.75,0,0,1-.43.46C214.81,205.66,214.81,205.66,215.21,205.6Z"/><path class="cls-172" d="M51.46,132.88h.19a1,1,0,0,1-.18.7A.94.94,0,0,1,51.46,132.88Z"/><path class="cls-175" d="M108.23,6.89c-.19-.09-.17-.27-.22-.42s0-.13,0-.19c.26,0,.21.27.24.44A1.15,1.15,0,0,0,108.23,6.89Z"/><path class="cls-176" d="M96.4,266.62v.29l-.33,0a.58.58,0,0,1-.18-.11.71.71,0,0,1,.18-.12A3.16,3.16,0,0,1,96.4,266.62Z"/><path class="cls-177" d="M175.92,264s.09-.09.12-.09.18.08.16.2,0,.06-.07.06S175.93,264.12,175.92,264Z"/><path class="cls-86" d="M129.51,153h-.2a2.81,2.81,0,0,1,0-.41s.07-.06.12-.08.05.05.05.08S129.5,152.89,129.51,153Z"/><path class="cls-178" d="M118.06,7.53a.19.19,0,0,1-.24.12.16.16,0,0,1-.08-.24.47.47,0,0,1,.27-.06A1.71,1.71,0,0,1,118.06,7.53Z"/><path class="cls-179" d="M120.81,6.71c.17,0,.29.15.23.31s-.22.15-.36.08a1,1,0,0,1-.17-.14C120.56,6.82,120.71,6.8,120.81,6.71Z"/><path class="cls-48" d="M155.91,198.87a.39.39,0,0,1-.23-.44A.36.36,0,0,1,155.91,198.87Z"/><path class="cls-180" d="M110.26,3.35h.24a.62.62,0,0,1-.44.26V3.37A.15.15,0,0,1,110.26,3.35Z"/><path class="cls-181" d="M112.15,6.4c-.12-.07-.09-.17,0-.26s0,0,.07-.08a1.48,1.48,0,0,1,.1.27S112.2,6.38,112.15,6.4Z"/><path class="cls-182" d="M120.81,6.71c0,.15-.18.2-.3.25s-.16-.14-.08-.22A.3.3,0,0,1,120.81,6.71Z"/><path class="cls-183" d="M110.79,7.07a.2.2,0,0,1-.08,0c-.1,0-.11-.08,0-.13a.1.1,0,0,1,.09,0S110.79,7.05,110.79,7.07Z"/><path class="cls-184" d="M116.53,8.05a.57.57,0,0,1-.43-.15C116.27,7.87,116.47,7.74,116.53,8.05Z"/><path class="cls-185" d="M178.51,269.1c0-.07,0-.14,0-.21H179C178.87,269.11,178.69,269.11,178.51,269.1Z"/><path class="cls-186" d="M126.17,8.49a.43.43,0,0,1-.44-.15A.45.45,0,0,1,126.17,8.49Z"/><path class="cls-187" d="M129.48,8.41l-.08.17s-.07-.05-.06-.07a.61.61,0,0,1,.07-.17Z"/><path class="cls-188" d="M164.67,268.44a1.18,1.18,0,0,0,0-.2.41.41,0,0,1,.49.2Z"/><path class="cls-189" d="M121.24,9.16a.61.61,0,0,1,0-.19l.44,0v.21Z"/><path class="cls-145" d="M204.21,142.29a.37.37,0,0,1,.2.49A.41.41,0,0,1,204.21,142.29Z"/><path class="cls-190" d="M116.35,9.45c.06-.24.25-.26.45-.27C116.74,9.42,116.55,9.44,116.35,9.45Z"/><path class="cls-42" d="M104.91,267.11a.64.64,0,0,1,.15.13c.06.08,0,.14-.07.15s0-.05-.06-.08,0-.14,0-.21Z"/><path class="cls-191" d="M163,254s-.06,0-.07,0a.13.13,0,0,1,0-.08c0-.09.07-.1.12,0S163,253.93,163,254Z"/><path class="cls-145" d="M204.93,142.26a.34.34,0,0,1-.27-.39A.38.38,0,0,1,204.93,142.26Z"/><path class="cls-192" d="M109.41,9.63h.17v.44l-.06.09-.09-.05-.11-.08Z"/><path class="cls-193" d="M109.44,10.11l.15,0v.44C109.4,10.43,109.41,10.27,109.44,10.11Z"/><path class="cls-194" d="M100.63,266.85l0,.24c-.18,0-.33,0-.41-.18Z"/><path class="cls-195" d="M93.69,266.9a.45.45,0,0,1,0,.2s-.07.06-.11.09,0-.06,0-.08,0-.14,0-.21Z"/><path class="cls-196" d="M89.3,267.07l-.17-.09s.05-.07.07-.07l.17.08Z"/><path class="cls-173" d="M159.28,50.54c-.23,0-.26-.23-.26-.42A.31.31,0,0,1,159.28,50.54Z"/><path class="cls-197" d="M166.43,60.16a.37.37,0,0,1-.23-.43A.3.3,0,0,1,166.43,60.16Z"/><path class="cls-198" d="M97.76,266.65c-.15.27-.32.23-.49,0a.25.25,0,0,1,.34,0A.2.2,0,0,1,97.76,266.65Z"/><path class="cls-26" d="M46.78,88.66a.5.5,0,0,1,.16-.51A.56.56,0,0,1,46.78,88.66Z"/><path class="cls-199" d="M97.61,266.63l-.34,0-.17-.2C97.3,266.43,97.49,266.42,97.61,266.63Z"/><path class="cls-157" d="M168.89,121a.37.37,0,0,1,.2-.43C169.16,120.78,169.05,120.91,168.89,121Z"/><path class="cls-200" d="M113.85,265.79a.5.5,0,0,1,.21,0s.07.08.1.13,0,.06-.07.06l-.21,0c-.08,0-.11-.08-.09-.13S113.82,265.79,113.85,265.79Z"/><path class="cls-172" d="M51.27,132.22a.5.5,0,0,1,.14.49l-.18-.05A.39.39,0,0,1,51.27,132.22Z"/><path class="cls-201" d="M113.85,265.79a.76.76,0,0,0,0,.21,1.38,1.38,0,0,1-.2,0c-.1,0-.19,0-.18-.15s.09-.08.15-.1A.69.69,0,0,1,113.85,265.79Z"/><path class="cls-202" d="M202.68,130.63c-.23-.06-.26-.23-.26-.42C202.67,130.25,202.72,130.41,202.68,130.63Z"/><path class="cls-202" d="M202.89,130.86c-.14,0-.23-.07-.21-.23A.21.21,0,0,1,202.89,130.86Z"/><path class="cls-96" d="M72.7,127.49c-.13,0-.23,0-.25-.18A.21.21,0,0,1,72.7,127.49Z"/><path class="cls-96" d="M72.45,127.31c-.15,0-.2-.1-.21-.24A.22.22,0,0,1,72.45,127.31Z"/><path class="cls-167" d="M197.72,131.81a.23.23,0,0,1-.22-.26A.24.24,0,0,1,197.72,131.81Z"/><polygon class="cls-203" points="177.05 264.81 177.01 264.74 177.09 264.74 177.05 264.81"/><path class="cls-96" d="M72.25,127.07a.21.21,0,0,1-.22-.23A.24.24,0,0,1,72.25,127.07Z"/><path class="cls-133" d="M89.71,266.21a1.5,1.5,0,0,0,0-.2l.22,0v.24h0A.14.14,0,0,1,89.71,266.21Z"/><path class="cls-96" d="M72,126.84a.22.22,0,0,1-.21-.23A.23.23,0,0,1,72,126.84Z"/><path class="cls-95" d="M49.19,124.63c-.16,0-.21-.11-.18-.26C49.15,124.4,49.23,124.48,49.19,124.63Z"/><path class="cls-85" d="M128.41,122.6a.2.2,0,0,1,0,.21s-.14-.07-.15-.11S128.33,122.58,128.41,122.6Z"/><path class="cls-204" d="M190.8,132.66l-.24.22C190.59,132.75,190.65,132.65,190.8,132.66Z"/><path class="cls-157" d="M168.65,120.34c0,.17-.11.23-.27.2A.25.25,0,0,1,168.65,120.34Z"/><path class="cls-157" d="M168.66,120.13l.24,0a.2.2,0,0,1-.25.18A.3.3,0,0,1,168.66,120.13Z"/><path class="cls-86" d="M53.91,133.78l.09-.09s0,0,0,.05,0,0-.08,0Z"/><path class="cls-172" d="M51.44,134c-.15-.08-.15-.15,0-.22Z"/><path class="cls-205" d="M155.69,76.28l.21-.21A.22.22,0,0,1,155.69,76.28Z"/><path class="cls-176" d="M96.64,266.92c0-.17.11-.22.22,0Z"/><path class="cls-86" d="M53.64,134l.27-.17h0c0,.06.05.12.07.17l-.1.13-.15,0Z"/><path class="cls-197" d="M166.63,60.43a.2.2,0,0,1-.19-.26C166.58,60.2,166.66,60.28,166.63,60.43Z"/><path class="cls-86" d="M54,133.94l.22.22-.1.1c-.17,0-.25-.06-.2-.23Z"/><path class="cls-206" d="M185.88,266.87c.06-.13.13-.18.23,0Z"/><path class="cls-86" d="M54.35,134.22s0-.09.06-.08.05.05,0,.09Z"/><path class="cls-145" d="M204.64,141.84c-.14,0-.21-.06-.2-.2S204.63,141.72,204.64,141.84Z"/><polygon class="cls-207" points="101.44 261.89 101.42 261.83 101.48 261.84 101.44 261.89"/><path class="cls-120" d="M179.63,267.1l-.1-.05c0-.07.06-.05.09.06Z"/><path class="cls-156" d="M212.05,141.85c-.16,0-.22-.1-.21-.25A.23.23,0,0,1,212.05,141.85Z"/><path class="cls-190" d="M116.12,9.49l.24,0C116.3,9.56,116.22,9.61,116.12,9.49Z"/><path class="cls-186" d="M125.66,8.76a.28.28,0,0,1,.25.23A.34.34,0,0,1,125.66,8.76Z"/><path class="cls-110" d="M180.09,159.7a.25.25,0,0,1,.26.23A.27.27,0,0,1,180.09,159.7Z"/><path class="cls-46" d="M155.47,228.41s0-.1,0-.09.06,0,0,.08Z"/><path class="cls-46" d="M155.28,228a2.46,2.46,0,0,0,0-.28C155.4,227.79,155.4,227.89,155.28,228Z"/><path class="cls-90" d="M43,166.47l.18-.25Z"/><path class="cls-208" d="M108.74,4.71H109C108.93,4.78,108.85,5,108.74,4.71Z"/><path class="cls-131" d="M171.14,212.05a.25.25,0,0,1,.27.22A.26.26,0,0,1,171.14,212.05Z"/><path class="cls-73" d="M215.36,205.36c0,.12,0,.23-.16.24A.19.19,0,0,1,215.36,205.36Z"/><path class="cls-73" d="M214.78,206.06a.22.22,0,0,1-.23.23A.23.23,0,0,1,214.78,206.06Z"/><path d="M69.37,185.94,68.22,187a.72.72,0,0,1-.24.19h0a.89.89,0,0,0-.64.49c-.82.68-1.6,1.41-2.45,2.07a24.78,24.78,0,0,0-3.81,3.36c-1.09,1.25-2.29,2.42-3.44,3.61-.37.38-.68.39-1.24.11a.64.64,0,0,1-.28-.67,5.31,5.31,0,0,1,1.15-1.62c1.29-1.43,2.58-2.86,4-4.17.43-.4.88-.79,1.35-1.16a18.41,18.41,0,0,0,4.08-4.5,9.54,9.54,0,0,1,1.63-1.67c1.05-1.05,2.13-2.06,3.19-3.1a6.46,6.46,0,0,0,1-1.45,6.67,6.67,0,0,1,1-1.43,10.31,10.31,0,0,0,1.34-1.92c.65-1,1.27-2.09,1.92-3.13s1.35-2.13,2-3.19a10.84,10.84,0,0,0,1-2.24,34.77,34.77,0,0,0,1.56-6.12,4.57,4.57,0,0,1,.24-.74c.07-.11.14-.12.23,0,.19.64.41,1.27.59,1.92a4.68,4.68,0,0,1-.12,2.2c-.24,1.23-.65,2.43-1,3.64s-.9,2.51-1.32,3.78a25.93,25.93,0,0,1-2.43,5.1,24.76,24.76,0,0,1-4,5.31c-.64.77-1.41,1.42-2,2.19l-.44.47C70.49,184.81,70,185.39,69.37,185.94Z"/><path class="cls-209" d="M92.81,183.81c-.09-1.25,0-2.51-.2-3.76a3.92,3.92,0,0,1-.08-.76,37.62,37.62,0,0,0-.45-5c-.09-1.39-.44-2.76-.67-4.14-.38-2.34-1-4.63-1.57-6.92a58.39,58.39,0,0,0-2.23-6.94c-.34-.86-.61-1.75-1-2.61-.54-1.32-1-2.69-1.66-4-.32-.62-.43-1.34-.69-2a45,45,0,0,0-2.21-5c-.13-.23-.31-.44-.23-.72a.52.52,0,0,1,.13-.29.37.37,0,0,1,.31,0,6,6,0,0,1,1.21,1.14,13.85,13.85,0,0,1,1.41,2.66c1,2.3,2,4.63,3,7,.88,2.16,1.69,4.34,2.39,6.57q.81,2.53,1.46,5.12c.48,1.94.92,3.9,1.29,5.87.51,2.66.83,5.35,1.16,8,.19,1.51.27,3,.35,4.55a21.05,21.05,0,0,1-.12,4.76,6.3,6.3,0,0,1-2.24,4.06,7.73,7.73,0,0,1-2.59,1.42,8.68,8.68,0,0,1-2.32.2.44.44,0,0,1-.41-.33,2.23,2.23,0,0,1,.26-1.71c.08-.15.24-.15.4-.12s.06,0,.09.05a2,2,0,0,0,2.17.05,5.17,5.17,0,0,0,1.95-1.45,4,4,0,0,0,1-2.1c.07-.5.11-1,.13-1.52C92.82,185.28,92.81,184.54,92.81,183.81Z"/><path class="cls-209" d="M64.85,168.69l-2.44-.21a2.41,2.41,0,0,1-1.23-.46c-.59-.44-1.26-.77-1.84-1.22a6.82,6.82,0,0,1-2.71-4,4.84,4.84,0,0,0-.25-.73,36.77,36.77,0,0,1-2.33-7.88,23,23,0,0,1-.18-4.77,16.46,16.46,0,0,1,.4-3.42c.17-.75.21-1.54.31-2.31a.21.21,0,0,1,.23-.19.31.31,0,0,1,.19.09,1,1,0,0,1,.17.29,3.66,3.66,0,0,1,.16,1.32c-.1,1.25-.16,2.52-.22,3.78a34.11,34.11,0,0,0,.13,3.78,1.09,1.09,0,0,0,.14.64A4,4,0,0,1,56,154.9a2.92,2.92,0,0,0,.32.82,6,6,0,0,1,.7,2.09c.34,1.52.89,3,1.38,4.46a4.9,4.9,0,0,0,1.55,2A7.46,7.46,0,0,0,62.52,166c.73.24,1.32.81,2.07,1.06a4.68,4.68,0,0,0,2.61.37,5.34,5.34,0,0,0,.52-.18c.19-.07.38-.09.51.08s0,.36,0,.53a1.61,1.61,0,0,1-1.55.9c-.59,0-1.18,0-1.78,0Z"/><path class="cls-210" d="M71.56,183.85c0-.25.12-.39.27-.56a18.19,18.19,0,0,0,1.48-1.56c0-.07.2,0,.3-.07a1.67,1.67,0,0,1-.6.89C72.56,183,72.05,183.42,71.56,183.85Z"/><path class="cls-76" d="M69.37,185.94c0-.11,0-.27,0-.32a12,12,0,0,0,1.29-1.18c.09-.09.27-.08.41-.12A4.26,4.26,0,0,1,69.37,185.94Z"/><path class="cls-211" d="M56.11,196.18c.08.23.3.4.28.67C55.86,196.73,55.83,196.67,56.11,196.18Z"/><path class="cls-212" d="M67.33,187.7c.12-.54.16-.56.64-.49C67.85,187.5,67.58,187.58,67.33,187.7Z"/><path class="cls-213" d="M53.89,134l.2.23c0,.14,0,.28,0,.41l-.44-.22,0-.42A.33.33,0,0,1,53.89,134Z"/><path class="cls-214" d="M81.89,159.71l-.23,0a.65.65,0,0,1,.1-.59A.5.5,0,0,1,81.89,159.71Z"/><path class="cls-212" d="M68,187.2c0-.15.09-.21.24-.19A.21.21,0,0,1,68,187.2Z"/><path class="cls-215" d="M187.9,185c-.27-.06-.56-.11-.84-.19a23.64,23.64,0,0,1-3.85-1.41,7.39,7.39,0,0,1-1.55-1.07,13.43,13.43,0,0,1-1.56-1.55,35.93,35.93,0,0,1-4.56-6.26c-.66-1.2-1.48-2.31-2.07-3.55a25.71,25.71,0,0,1-1.51-3.59c-.33-1.1-.8-2.16-1.13-3.26-.48-1.55-1.08-3.07-1.45-4.67-.41-1.8-.91-3.59-1.4-5.37a23.25,23.25,0,0,1-1-4.67c-.08-1.38,0-2.74,0-4.11a.32.32,0,0,1,.23-.34.44.44,0,0,1,.4.14.74.74,0,0,1,.3.57c0,.26.06.52.06.78a20.56,20.56,0,0,0,1.16,6.54c.43,1.34.83,2.69,1.21,4.05.09.32.11.65.21,1,.63,1.86,1.05,3.8,1.79,5.63a6.31,6.31,0,0,0,.39.78A13.26,13.26,0,0,1,174,166.8a20.07,20.07,0,0,0,2.66,5c.55.79,1,1.64,1.58,2.43a7.47,7.47,0,0,1,.49,1,12.74,12.74,0,0,0,1.81,2.39,10.19,10.19,0,0,1,1,1.33,7.73,7.73,0,0,0,1.92,2,1.34,1.34,0,0,0,.49.25c2.21.61,4.41,1.24,6.67,1.67a8.38,8.38,0,0,0,2,.13,1.83,1.83,0,0,1,1.28.45c.09.06.2.09.19.23s-.11.19-.22.21c-.65.15-1.3.32-2,.44-1.17.21-2.34.4-3.52.6Z"/><path class="cls-209" d="M202.21,186.57l.2-.24c.35-.42.59-.91.91-1.34a17.22,17.22,0,0,0,1.8-3.62c.28-.71.48-1.45.72-2.17a5.11,5.11,0,0,0,.47-2.46c.09-1.27,0-2.56.13-3.84.53,0,.21.55.5.68h0c.2.27-.07.66.23.9h0c.21.27-.09.67.25.91.11.31.24.62.33.94a5.09,5.09,0,0,1,.06,2.3,21.8,21.8,0,0,1-3,7.48,35.08,35.08,0,0,1-2.82,3.73,38,38,0,0,1-5.26,5.27,24.9,24.9,0,0,1-3.23,2.35,16.91,16.91,0,0,1-4.31,1.73,3.08,3.08,0,0,1-1.86-.41,23.09,23.09,0,0,0,5.45-2.76c1.16-.86,2.3-1.74,3.37-2.71s2-1.95,3-3c.71-.75,1.34-1.57,2-2.36C201.57,187.55,201.79,187,202.21,186.57Z"/><path class="cls-216" d="M201.84,156.2a18.17,18.17,0,0,1-.29,3.27,12.13,12.13,0,0,1-2.14,4.92,7.44,7.44,0,0,1-2.17,1.89c-.41.25-.84.47-1.24.73a5.22,5.22,0,0,1-4.49.38.85.85,0,0,1-.39-.2c-.19-.22-.6-.36-.52-.67s.5-.4.84-.41l1.44-.06a4.42,4.42,0,0,0,2.27-.8,12.64,12.64,0,0,0,2.3-1.74A7.52,7.52,0,0,0,199,161.1a13.65,13.65,0,0,0,1-4.19,23.4,23.4,0,0,0-.15-4.1.81.81,0,0,1,.13-.72c.15-.17.72-.38.88-.28a.65.65,0,0,1,.2.26A7.75,7.75,0,0,1,201.84,156.2Z"/><path class="cls-217" d="M206.94,173.58c-.26,0-.18-.39-.44-.44,0,1.37,0,2.73,0,4.09a11.25,11.25,0,0,1-.27,1.74c0,.16-.2.21-.35.23a20.93,20.93,0,0,0,.31-4.47,8.54,8.54,0,0,0,0-1.43c0-.15.1-.35.18-.51a.27.27,0,0,1,.45,0A1.22,1.22,0,0,1,206.94,173.58Z"/><path class="cls-218" d="M202.21,186.57a2.71,2.71,0,0,1-1.08,1.39c0-.11,0-.26,0-.31a7.47,7.47,0,0,0,.78-1C202,186.58,202.11,186.59,202.21,186.57Z"/><path class="cls-219" d="M203.32,185a2,2,0,0,1-.91,1.34A2.55,2.55,0,0,1,203.32,185Z"/><path class="cls-217" d="M207.17,174.47c-.37-.23-.3-.57-.23-.9A1.37,1.37,0,0,1,207.17,174.47Z"/><path class="cls-217" d="M207.41,175.37c-.39-.22-.29-.57-.25-.91A1.12,1.12,0,0,1,207.41,175.37Z"/><path class="cls-220" d="M123.5,15c0,.38-.26.54-.68.44a1.43,1.43,0,0,1-1-.49.67.67,0,0,1-.16-.39,1,1,0,0,1,1.39-.68A2.65,2.65,0,0,1,123.5,15Z"/><path class="cls-221" d="M115.67,15.46A.55.55,0,0,1,115,16a2.31,2.31,0,0,1-.53-.15c-.22-.11-.5-.17-.59-.46,0-.13.39-.56.65-.64a1.28,1.28,0,0,1,.33-.06A.7.7,0,0,1,115.67,15.46Z"/><path class="cls-222" d="M107.13,23.31c0,.32.06.5.06.69s0,.32-.17.36a.89.89,0,0,1-.43,0,.76.76,0,0,1-.43-.61,4.53,4.53,0,0,1,.08-1.87c0-.08.15-.17.24-.19a.38.38,0,0,1,.29.1,1.37,1.37,0,0,1,.36.91C107.14,22.93,107.13,23.19,107.13,23.31Z"/><path class="cls-223" d="M131.5,23.05a2.75,2.75,0,0,1-.45-1.36c0-.3.06-.59.11-.89a1,1,0,0,1,.29-.58.37.37,0,0,1,.5,0,2.17,2.17,0,0,1,.45,1.12c0,.44,0,.89,0,1.34s-.12.59-.72.48A.52.52,0,0,1,131.5,23.05Z"/><path class="cls-224" d="M103.33,266.89a.36.36,0,0,1-.34.21c-.1,0-.21,0-.23-.14s.1-.08.16-.08.28,0,.41,0Z"/><path class="cls-74" d="M89.71,266.21h.21C89.86,266.33,89.79,266.35,89.71,266.21Z"/></g></g></g></g></svg>